<?xml version="1.0" encoding="UTF-8" standalone="no"?>
<!-- Created with Inkscape (http://www.inkscape.org/) -->

<svg
   xmlns:dc="http://purl.org/dc/elements/1.1/"
   xmlns:cc="http://creativecommons.org/ns#"
   xmlns:rdf="http://www.w3.org/1999/02/22-rdf-syntax-ns#"
   xmlns:svg="http://www.w3.org/2000/svg"
   xmlns="http://www.w3.org/2000/svg"
   xmlns:sodipodi="http://sodipodi.sourceforge.net/DTD/sodipodi-0.dtd"
   xmlns:inkscape="http://www.inkscape.org/namespaces/inkscape"
   width="512"
   height="512"
   id="svg3000"
   version="1.1"
   inkscape:version="0.48.4 r9939"
   sodipodi:docname="bongo-small.svg">
  <defs
     id="defs3002" />
  <sodipodi:namedview
     id="base"
     pagecolor="#ffffff"
     bordercolor="#666666"
     borderopacity="1.0"
     inkscape:pageopacity="0.0"
     inkscape:pageshadow="2"
     inkscape:zoom="1"
     inkscape:cx="246.92154"
     inkscape:cy="330.59652"
     inkscape:document-units="px"
     inkscape:current-layer="layer1"
     showgrid="false"
     inkscape:window-width="1920"
     inkscape:window-height="1028"
     inkscape:window-x="0"
     inkscape:window-y="25"
     inkscape:window-maximized="1" />
  <metadata
     id="metadata3005">
    <rdf:RDF>
      <cc:Work
         rdf:about="">
        <dc:format>image/svg+xml</dc:format>
        <dc:type
           rdf:resource="http://purl.org/dc/dcmitype/StillImage" />
        <dc:title />
      </cc:Work>
    </rdf:RDF>
  </metadata>
  <g
     inkscape:label="Layer 1"
     inkscape:groupmode="layer"
     id="layer1"
     transform="translate(0,-540.36218)">
    <path
       style="fill:#664410;fill-opacity:1;stroke:#111111;stroke-width:3.44456887;stroke-miterlimit:4;stroke-opacity:1;stroke-dasharray:none"
       d="m 227.53752,769.18702 54.37233,0 7.55662,78.46113 -68.51831,0 z"
       id="rect3833"
       inkscape:connector-curvature="0"
       sodipodi:nodetypes="ccccc" />
    <path
       style="fill:#b98331;fill-opacity:1;stroke:#111111;stroke-width:3.53788160999999990;stroke-opacity:1"
       d="m 19.704145,731.0226 210.638225,0 -11.56445,147.93504 c -12.42777,10.62497 -44.04565,15.17613 -63.62881,15.07081 l -61.001532,0 c -21.705674,0.67013 -48.443398,-1.92957 -61.854618,-15.364 z"
       id="rect3019"
       inkscape:connector-curvature="0"
       sodipodi:nodetypes="ccccccc" />
    <path
       style="fill:#111111;fill-opacity:1;stroke:none"
       d="m 53.999428,890.14493 0,8.14001 -2.258026,0 c -2.205544,0 -2.436114,1.99645 -2.436114,4.20129 l 0,8.53389 c 0,2.32751 2.030234,4.2013 4.552118,4.2013 l 0.141993,0 0,1.83806 8.819711,0 0,-1.83806 0.284512,0 c 2.521866,0 4.552119,-1.87379 4.552119,-4.2013 l 0,-8.53389 c 0,-2.3952 -0.185722,-4.20129 -1.938196,-4.20129 l -2.898435,0 0,-8.14001 z"
       id="rect3792"
       inkscape:connector-curvature="0"
       sodipodi:nodetypes="ccssssccccssssccc" />
    <path
       style="fill:#ffdea8;fill-opacity:1;stroke:#111111;stroke-width:4.14217949000000019;stroke-miterlimit:4;stroke-opacity:1;stroke-dasharray:none"
       d="m 36.019011,680.00491 c -9.793474,0 -17.677744,9.31247 -17.677744,20.87998 l 0,2.01682 c 0,1.48673 0.08365,2.99229 0.331463,4.38953 l 214.89513,0 c 0.2478,-1.39724 0.33144,-2.9028 0.33144,-4.38953 l 0,-2.01682 c 0,-11.56751 -7.88428,-20.87998 -17.67774,-20.87998 l -180.202549,0 z"
       id="rect3820"
       inkscape:connector-curvature="0" />
    <rect
       y="701.96136"
       x="3.910059"
       height="28.755903"
       width="244.91147"
       id="rect3789"
       style="fill:#111111;fill-opacity:1;stroke:none"
       rx="7.0757632"
       ry="7.0757632" />
    <path
       style="fill:#111111;fill-opacity:1;stroke:none"
       d="m 220.15054,861.2602 c -12.73502,10.58499 -44.82831,15.14113 -64.78746,15.03599 l -62.35515,0 c -21.660547,0.655 -48.158927,-1.82725 -62.134044,-14.4832 l 1.437261,16.80494 c 13.41122,13.43444 40.096694,16.03781 61.802357,15.36768 l 61.028476,0 c 19.58315,0.10529 51.25409,-4.41104 63.68186,-15.036 l 1.3267,-17.68941 z"
       id="path3828"
       inkscape:connector-curvature="0" />
    <path
       style="font-size:medium;font-style:normal;font-variant:normal;font-weight:normal;font-stretch:normal;text-indent:0;text-align:start;text-decoration:none;line-height:normal;letter-spacing:normal;word-spacing:normal;text-transform:none;direction:ltr;block-progression:tb;writing-mode:lr-tb;text-anchor:start;baseline-shift:baseline;color:#000000;fill:#111111;fill-opacity:1;stroke:none;stroke-width:2;marker:none;visibility:visible;display:inline;overflow:visible;enable-background:accumulate;font-family:Sans;-inkscape-font-specification:Sans"
       d="m 27.803083,729.47371 2.763974,5.19627 8.771801,16.9144 c 0.490955,8.36883 3.296795,12.1476 6.690978,12.84372 0.137975,1.43154 8.196805,87.36494 8.196805,112.64162 l 9.020314,0.35355 c 0,-26.80467 -8.038314,-110.86575 -8.196816,-112.4873 3.029636,-0.7737 4.95222,-5.44477 5.623435,-12.26184 3.449523,-7.947 8.417612,-15.92752 12.357261,-23.64265 -14.754352,0.16543 -30.060973,0.44223 -45.227752,0.44223 z m 25.933304,19.69065 c -2.566829,1.59598 -5.816113,1.10535 -7.754158,-0.202 l -6.526126,-13.58361 21.339215,0.0664 c -2.453015,4.43072 -4.894187,9.13467 -7.058931,13.71921 z"
       id="path3838"
       inkscape:connector-curvature="0"
       sodipodi:nodetypes="ccccccccccccccc" />
    <path
       sodipodi:nodetypes="ccssssccccssssccc"
       inkscape:connector-curvature="0"
       id="path2999"
       d="m 189.58715,890.14493 0,8.14001 -2.25802,0 c -2.20555,0 -2.43612,1.99645 -2.43612,4.20129 l 0,8.53389 c 0,2.32751 2.03024,4.2013 4.55212,4.2013 l 0.142,0 0,1.83806 8.81971,0 0,-1.83806 0.28451,0 c 2.52186,0 4.55212,-1.87379 4.55212,-4.2013 l 0,-8.53389 c 0,-2.3952 -0.18572,-4.20129 -1.9382,-4.20129 l -2.89843,0 0,-8.14001 z"
       style="fill:#111111;fill-opacity:1;stroke:none" />
    <path
       sodipodi:nodetypes="ccccccccccccccc"
       inkscape:connector-curvature="0"
       id="path3001"
       d="m 225.03084,729.47371 -2.76398,5.19627 -8.7718,16.9144 c -0.49095,8.36883 -3.29679,12.1476 -6.69098,12.84372 -0.13797,1.43154 -8.1968,87.36494 -8.1968,112.64162 l -9.02032,0.35355 c 0,-26.80467 8.03832,-110.86575 8.19682,-112.4873 -3.02964,-0.7737 -4.95222,-5.44477 -5.62343,-12.26184 -3.44953,-7.947 -8.41762,-15.92752 -12.35727,-23.64265 14.75436,0.16543 30.06098,0.44223 45.22776,0.44223 z m -25.93331,19.69065 c 2.56683,1.59598 5.81612,1.10535 7.75416,-0.202 l 6.52613,-13.58361 -21.33922,0.0664 c 2.45302,4.43072 4.89419,9.13467 7.05893,13.71921 z"
       style="font-size:medium;font-style:normal;font-variant:normal;font-weight:normal;font-stretch:normal;text-indent:0;text-align:start;text-decoration:none;line-height:normal;letter-spacing:normal;word-spacing:normal;text-transform:none;direction:ltr;block-progression:tb;writing-mode:lr-tb;text-anchor:start;baseline-shift:baseline;color:#000000;fill:#111111;fill-opacity:1;stroke:none;stroke-width:2;marker:none;visibility:visible;display:inline;overflow:visible;enable-background:accumulate;font-family:Sans;-inkscape-font-specification:Sans" />
    <path
       sodipodi:nodetypes="ccccccc"
       inkscape:connector-curvature="0"
       id="path3771"
       d="m 279.21233,731.0226 210.63823,0 -11.56445,147.93504 c -12.42777,10.62497 -44.04565,15.17613 -63.62881,15.07081 l -61.00153,0 c -21.70568,0.67013 -48.4434,-1.92957 -61.85462,-15.364 z"
       style="fill:#b98331;fill-opacity:1;stroke:#111111;stroke-width:3.53788161;stroke-opacity:1" />
    <path
       sodipodi:nodetypes="ccssssccccssssccc"
       inkscape:connector-curvature="0"
       id="path3773"
       d="m 313.50762,890.14493 0,8.14001 -2.25803,0 c -2.20554,0 -2.43611,1.99645 -2.43611,4.20129 l 0,8.53389 c 0,2.32751 2.03023,4.2013 4.55212,4.2013 l 0.14199,0 0,1.83806 8.81971,0 0,-1.83806 0.28451,0 c 2.52187,0 4.55212,-1.87379 4.55212,-4.2013 l 0,-8.53389 c 0,-2.3952 -0.18572,-4.20129 -1.9382,-4.20129 l -2.89843,0 0,-8.14001 z"
       style="fill:#111111;fill-opacity:1;stroke:none" />
    <path
       inkscape:connector-curvature="0"
       id="path3775"
       d="m 295.5272,680.00491 c -9.79347,0 -17.67774,9.31247 -17.67774,20.87998 l 0,2.01682 c 0,1.48673 0.0836,2.99229 0.33146,4.38953 l 214.89513,0 c 0.2478,-1.39724 0.33144,-2.9028 0.33144,-4.38953 l 0,-2.01682 c 0,-11.56751 -7.88428,-20.87998 -17.67774,-20.87998 l -180.20255,0 z"
       style="fill:#ffdea8;fill-opacity:1;stroke:#111111;stroke-width:4.14217949;stroke-miterlimit:4;stroke-opacity:1;stroke-dasharray:none" />
    <rect
       ry="7.0757632"
       rx="7.0757632"
       style="fill:#111111;fill-opacity:1;stroke:none"
       id="rect3777"
       width="244.91147"
       height="28.755903"
       x="263.41824"
       y="701.96136" />
    <path
       inkscape:connector-curvature="0"
       id="path3779"
       d="m 479.65873,861.2602 c -12.73502,10.58499 -44.82831,15.14113 -64.78746,15.03599 l -62.35515,0 c -21.66055,0.655 -48.15893,-1.82725 -62.13404,-14.4832 l 1.43726,16.80494 c 13.41122,13.43444 40.09669,16.03781 61.80235,15.36768 l 61.02848,0 c 19.58315,0.10529 51.25409,-4.41104 63.68186,-15.036 l 1.3267,-17.68941 z"
       style="fill:#111111;fill-opacity:1;stroke:none" />
    <path
       sodipodi:nodetypes="ccccccccccccccc"
       inkscape:connector-curvature="0"
       id="path3781"
       d="m 287.31127,729.47371 2.76398,5.19627 8.7718,16.9144 c 0.49095,8.36883 3.29679,12.1476 6.69098,12.84372 0.13797,1.43154 8.1968,87.36494 8.1968,112.64162 l 9.02031,0.35355 c 0,-26.80467 -8.03831,-110.86575 -8.19681,-112.4873 3.02963,-0.7737 4.95222,-5.44477 5.62343,-12.26184 3.44953,-7.947 8.41762,-15.92752 12.35726,-23.64265 -14.75435,0.16543 -30.06097,0.44223 -45.22775,0.44223 z m 25.93331,19.69065 c -2.56683,1.59598 -5.81612,1.10535 -7.75416,-0.202 l -6.52613,-13.58361 21.33922,0.0664 c -2.45302,4.43072 -4.89419,9.13467 -7.05893,13.71921 z"
       style="font-size:medium;font-style:normal;font-variant:normal;font-weight:normal;font-stretch:normal;text-indent:0;text-align:start;text-decoration:none;line-height:normal;letter-spacing:normal;word-spacing:normal;text-transform:none;direction:ltr;block-progression:tb;writing-mode:lr-tb;text-anchor:start;baseline-shift:baseline;color:#000000;fill:#111111;fill-opacity:1;stroke:none;stroke-width:2;marker:none;visibility:visible;display:inline;overflow:visible;enable-background:accumulate;font-family:Sans;-inkscape-font-specification:Sans" />
    <path
       style="fill:#111111;fill-opacity:1;stroke:none"
       d="m 449.09534,890.14493 0,8.14001 -2.25802,0 c -2.20555,0 -2.43612,1.99645 -2.43612,4.20129 l 0,8.53389 c 0,2.32751 2.03024,4.2013 4.55212,4.2013 l 0.142,0 0,1.83806 8.81971,0 0,-1.83806 0.28451,0 c 2.52186,0 4.55212,-1.87379 4.55212,-4.2013 l 0,-8.53389 c 0,-2.3952 -0.18572,-4.20129 -1.9382,-4.20129 l -2.89843,0 0,-8.14001 z"
       id="path3783"
       inkscape:connector-curvature="0"
       sodipodi:nodetypes="ccssssccccssssccc" />
    <path
       style="font-size:medium;font-style:normal;font-variant:normal;font-weight:normal;font-stretch:normal;text-indent:0;text-align:start;text-decoration:none;line-height:normal;letter-spacing:normal;word-spacing:normal;text-transform:none;direction:ltr;block-progression:tb;writing-mode:lr-tb;text-anchor:start;baseline-shift:baseline;color:#000000;fill:#111111;fill-opacity:1;stroke:none;stroke-width:2;marker:none;visibility:visible;display:inline;overflow:visible;enable-background:accumulate;font-family:Sans;-inkscape-font-specification:Sans"
       d="m 484.53903,729.47371 -2.76398,5.19627 -8.7718,16.9144 c -0.49095,8.36883 -3.29679,12.1476 -6.69098,12.84372 -0.13797,1.43154 -8.1968,87.36494 -8.1968,112.64162 l -9.02032,0.35355 c 0,-26.80467 8.03832,-110.86575 8.19682,-112.4873 -3.02964,-0.7737 -4.95222,-5.44477 -5.62343,-12.26184 -3.44953,-7.947 -8.41762,-15.92752 -12.35727,-23.64265 14.75436,0.16543 30.06098,0.44223 45.22776,0.44223 z m -25.93331,19.69065 c 2.56683,1.59598 5.81612,1.10535 7.75416,-0.202 l 6.52613,-13.58361 -21.33922,0.0664 c 2.45302,4.43072 4.89419,9.13467 7.05893,13.71921 z"
       id="path3785"
       inkscape:connector-curvature="0"
       sodipodi:nodetypes="ccccccccccccccc" />
  </g>
</svg>
