<?xml version="1.0" encoding="UTF-8" standalone="no"?>
<!-- Generator: Adobe Illustrator 18.0.0, SVG Export Plug-In . SVG Version: 6.00 Build 0)  -->

<svg
   xmlns:dc="http://purl.org/dc/elements/1.1/"
   xmlns:cc="http://creativecommons.org/ns#"
   xmlns:rdf="http://www.w3.org/1999/02/22-rdf-syntax-ns#"
   xmlns:svg="http://www.w3.org/2000/svg"
   xmlns="http://www.w3.org/2000/svg"
   xmlns:sodipodi="http://sodipodi.sourceforge.net/DTD/sodipodi-0.dtd"
   xmlns:inkscape="http://www.inkscape.org/namespaces/inkscape"
   version="1.1"
   id="Capa_1"
   x="0px"
   y="0px"
   viewBox="0 0 512 512"
   xml:space="preserve"
   inkscape:version="0.48.4 r9939"
   width="100%"
   height="100%"
   sodipodi:docname="clap2.svg"><metadata
     id="metadata49"><rdf:RDF><cc:Work
         rdf:about=""><dc:format>image/svg+xml</dc:format><dc:type
           rdf:resource="http://purl.org/dc/dcmitype/StillImage" /></cc:Work></rdf:RDF></metadata><defs
     id="defs47" /><sodipodi:namedview
     pagecolor="#ffffff"
     bordercolor="#666666"
     borderopacity="1"
     objecttolerance="10"
     gridtolerance="10"
     guidetolerance="10"
     inkscape:pageopacity="0"
     inkscape:pageshadow="2"
     inkscape:window-width="1255"
     inkscape:window-height="774"
     id="namedview45"
     showgrid="false"
     inkscape:zoom="0.38767712"
     inkscape:cx="-106.49853"
     inkscape:cy="-138.76627"
     inkscape:window-x="612"
     inkscape:window-y="185"
     inkscape:window-maximized="0"
     inkscape:current-layer="Capa_1" /><path
     inkscape:connector-curvature="0"
     id="path5"
     d="m 209.61001,257.90205 56.2423,-81.10032 c 7.60854,-10.96964 19.68718,-17.89675 32.86145,-19.05919 -0.26574,-2.79549 -1.10601,-5.5791 -2.61288,-8.16526 -5.56277,-9.54742 -17.81214,-12.77937 -27.35955,-7.21661 l -13.44002,7.82975 c 3.14734,-5.91462 3.27353,-13.26484 -0.34739,-19.47935 -5.56277,-9.54741 -17.81215,-12.77937 -27.36104,-7.21659 l -120.30841,70.08612 13.29897,-33.79675 c 4.04701,-10.28377 -1.00952,-21.90071 -11.29329,-25.94325 -10.282288,-4.047 -21.897741,1.00952 -25.943256,11.29181 0,0 -25.765102,64.99101 -34.130781,86.74178 -8.306296,21.59488 -13.831948,37.49486 -3.364087,55.46437 l 24.152836,41.45873 C 82.34331,349.975 107.20282,359.41404 129.7998,353.22774 l -4.45824,-71.7162 c -1.53507,-24.68433 17.19752,-45.91251 41.88778,-47.4461 17.9992,-1.12087 34.34605,8.61509 42.38067,23.83661 z"
     style="fill:#fac083;fill-opacity:1;stroke:#000000;stroke-width:4;stroke-miterlimit:4;stroke-opacity:1;stroke-dasharray:none" /><path
     inkscape:connector-curvature="0"
     id="path7"
     d="m 356.24321,143.56171 c 4.35134,4.34837 11.3987,4.34689 15.74707,0 l 54.5187,-54.51869 c 4.34836,-4.349856 4.34836,-11.398701 0,-15.747073 -4.34986,-4.346887 -11.39871,-4.346887 -15.74708,0 l -54.51869,54.517213 c -4.34837,4.34985 -4.34837,11.3987 0,15.74855 z"
     style="fill:#333333;fill-opacity:1;stroke:#ffffff;stroke-width:11.42490101;stroke-miterlimit:4;stroke-opacity:1;stroke-dasharray:none" /><path
     inkscape:connector-curvature="0"
     id="path9"
     d="m 324.02904,109.58681 c 5.84781,1.86316 12.11873,-1.36286 13.98783,-7.23145 l 17.71416,-55.632134 c 1.86613,-5.858203 -1.37177,-12.121699 -7.23146,-13.987832 -5.86116,-1.873555 -12.1217,1.371765 -13.98783,7.231451 l -17.71416,55.632137 c -1.86613,5.859688 1.37177,12.121698 7.23146,13.987828 z"
     style="fill:#333333;fill-opacity:1;stroke:#ffffff;stroke-width:12.37697601;stroke-miterlimit:4;stroke-opacity:1;stroke-dasharray:none" /><path
     inkscape:connector-curvature="0"
     id="path11"
     d="m 467.06953,151.30683 c -1.86613,-5.85821 -8.12518,-9.10055 -13.98783,-7.23145 l -55.63214,17.71267 c -6.28873,2.00272 -9.63798,9.13173 -6.65098,15.40117 0.46171,0.69478 0.90709,1.39997 1.32872,2.11999 2.82963,3.56006 7.58181,5.13076 12.07864,3.69812 l 55.63213,-17.71416 c 5.85969,-1.86465 9.09611,-8.12665 7.23146,-13.98634 z"
     style="fill:#333333;fill-opacity:1;stroke:#ffffff;stroke-width:12.37697601;stroke-miterlimit:4;stroke-opacity:1;stroke-dasharray:none" /><path
     inkscape:connector-curvature="0"
     id="path13"
     d="m 387.7522,298.54872 c -6.57823,-4.56215 -14.81475,-5.14709 -21.79233,-2.11406 l 21.26233,-30.6613 c 7.07706,-10.20508 4.54137,-24.21518 -5.66372,-31.29075 -6.57971,-4.56363 -14.81624,-5.14709 -21.79381,-2.11406 l 12.21077,-17.60727 c 7.07705,-10.20509 4.54137,-24.21519 -5.66372,-31.29224 -10.19025,-7.06814 -24.2048,-4.55473 -31.29076,5.66372 l -9.96161,14.36344 c 0.39193,-7.51946 -2.97513,-15.06268 -9.61868,-19.66937 -10.1947,-7.06963 -24.20777,-4.55028 -31.29076,5.66372 l -89.17057,128.58204 -2.53271,-40.73722 c -0.7705,-12.39338 -11.44175,-21.81906 -23.83662,-21.04558 -12.39486,0.76902 -21.81757,11.44324 -21.04558,23.83662 0,0 4.57997,78.43695 6.49954,104.55539 1.94927,26.52522 3.74711,44.7575 22.95181,58.0743 l 44.30915,30.72809 c 10.32534,7.16019 22.14715,10.59554 33.85168,10.59554 18.88401,0 37.46963,-8.93725 49.02272,-25.59586 19.31604,-27.85245 72.26997,-104.21246 89.21511,-128.64588 7.07853,-10.20212 4.54285,-24.21222 -5.66224,-31.28927 z"
     style="fill:#ffb15c;fill-opacity:1;stroke:#000000;stroke-width:4;stroke-miterlimit:4;stroke-opacity:1;stroke-dasharray:none" /><g
     id="g15"
     transform="translate(0,207.623)" /><g
     id="g17"
     transform="translate(0,207.623)" /><g
     id="g19"
     transform="translate(0,207.623)" /><g
     id="g21"
     transform="translate(0,207.623)" /><g
     id="g23"
     transform="translate(0,207.623)" /><g
     id="g25"
     transform="translate(0,207.623)" /><g
     id="g27"
     transform="translate(0,207.623)" /><g
     id="g29"
     transform="translate(0,207.623)" /><g
     id="g31"
     transform="translate(0,207.623)" /><g
     id="g33"
     transform="translate(0,207.623)" /><g
     id="g35"
     transform="translate(0,207.623)" /><g
     id="g37"
     transform="translate(0,207.623)" /><g
     id="g39"
     transform="translate(0,207.623)" /><g
     id="g41"
     transform="translate(0,207.623)" /><g
     id="g43"
     transform="translate(0,207.623)" /><path
     style="fill:none;stroke:#000000;stroke-width:4;stroke-linecap:butt;stroke-linejoin:miter;stroke-miterlimit:4;stroke-opacity:1;stroke-dasharray:none"
     d="m 325.54926,202.56724 -59.24728,85.95459"
     id="path3775"
     inkscape:connector-curvature="0"
     sodipodi:nodetypes="cc" /><path
     sodipodi:nodetypes="cc"
     inkscape:connector-curvature="0"
     id="path3777"
     d="m 359.87123,232.28695 -54.90592,77.27186"
     style="fill:none;stroke:#000000;stroke-width:4;stroke-linecap:butt;stroke-linejoin:miter;stroke-miterlimit:4;stroke-opacity:1;stroke-dasharray:none" /><path
     style="fill:none;stroke:#000000;stroke-width:4;stroke-linecap:butt;stroke-linejoin:miter;stroke-miterlimit:4;stroke-opacity:1;stroke-dasharray:none"
     d="m 366.462,295.72502 -34.93565,47.31646"
     id="path3779"
     inkscape:connector-curvature="0"
     sodipodi:nodetypes="cc" /><path
     sodipodi:nodetypes="cc"
     inkscape:connector-curvature="0"
     id="path3781"
     d="m 256.19599,149.16848 -83.12477,55.56505"
     style="fill:none;stroke:#000000;stroke-width:4;stroke-linecap:butt;stroke-linejoin:miter;stroke-miterlimit:4;stroke-opacity:1;stroke-dasharray:none" /><path
     style="fill:none;stroke:#000000;stroke-width:4;stroke-linecap:butt;stroke-linejoin:miter;stroke-miterlimit:4;stroke-opacity:1;stroke-dasharray:none"
     d="m 241.90445,211.30903 -29.14281,19.48062"
     id="path3783"
     inkscape:connector-curvature="0"
     sodipodi:nodetypes="cc" /></svg>