<?xml version="1.0" encoding="UTF-8" standalone="no"?>
<!-- Generator: Adobe Illustrator 17.1.0, SVG Export Plug-In . SVG Version: 6.00 Build 0)  -->

<svg
   xmlns:dc="http://purl.org/dc/elements/1.1/"
   xmlns:cc="http://creativecommons.org/ns#"
   xmlns:rdf="http://www.w3.org/1999/02/22-rdf-syntax-ns#"
   xmlns:svg="http://www.w3.org/2000/svg"
   xmlns="http://www.w3.org/2000/svg"
   xmlns:sodipodi="http://sodipodi.sourceforge.net/DTD/sodipodi-0.dtd"
   xmlns:inkscape="http://www.inkscape.org/namespaces/inkscape"
   version="1.1"
   id="Capa_1"
   x="0px"
   y="0px"
   viewBox="0 0 199.366 199.366"
   style="enable-background:new 0 0 199.366 199.366;"
   xml:space="preserve"
   inkscape:version="0.48.4 r9939"
   width="100%"
   height="100%"
   sodipodi:docname="conga.svg"><metadata
     id="metadata39"><rdf:RDF><cc:Work
         rdf:about=""><dc:format>image/svg+xml</dc:format><dc:type
           rdf:resource="http://purl.org/dc/dcmitype/StillImage" /></cc:Work></rdf:RDF></metadata><defs
     id="defs37" /><sodipodi:namedview
     pagecolor="#ffffff"
     bordercolor="#666666"
     borderopacity="1"
     objecttolerance="10"
     gridtolerance="10"
     guidetolerance="10"
     inkscape:pageopacity="0"
     inkscape:pageshadow="2"
     inkscape:window-width="1829"
     inkscape:window-height="946"
     id="namedview35"
     showgrid="false"
     inkscape:zoom="4.7350099"
     inkscape:cx="19.154226"
     inkscape:cy="56.013208"
     inkscape:window-x="0"
     inkscape:window-y="25"
     inkscape:window-maximized="0"
     inkscape:current-layer="Capa_1" /><path
     d="m 53.435838,29.773341 -0.258544,0.517088 C 44.443885,49.393726 39.16421,60.939266 39.16421,89.962376 c 0,13.722274 3.544741,30.515224 7.704611,45.555444 0.01986,0.17788 0.05733,0.33404 0.129271,0.49124 3.765228,13.53033 8.034307,25.59751 10.652013,32.62825 2.946988,7.91185 10.614368,13.23745 19.080545,13.23745 l 46.12424,0 c 8.46618,0 16.13357,-5.32477 19.08055,-13.23745 2.61771,-7.03074 6.88679,-19.07207 10.65201,-32.6024 0.0728,-0.15802 0.10942,-0.33673 0.12927,-0.51709 4.15988,-15.0394 7.67877,-31.83317 7.67877,-45.555444 0,-29.023937 -5.253,-40.566995 -13.98723,-59.671947 l -0.25856,-0.517088 -92.713862,0 z"
     id="path3794"
     inkscape:connector-curvature="0"
     style="fill:#e9b96e;stroke:#333333;stroke-opacity:1;stroke-width:3.00000004;stroke-miterlimit:4;stroke-dasharray:none" /><path
     sodipodi:nodetypes="ccccccccccccccccc"
     inkscape:connector-curvature="0"
     id="path3871"
     d="m 34.138696,340.45975 c 0.23598,0.74926 0.47347,1.49518 0.71875,2.25 0.024,0.215 0.0693,0.40375 0.15625,0.59375 3.96294,14.24083 8.30229,26.8867 11.46875,35.59375 l 4.25,0 10.75,0 72.093754,0 13.34375,0 4.25,0 c 3.16646,-8.70093 7.50581,-21.32167 11.46875,-35.5625 0.088,-0.191 0.13225,-0.407 0.15625,-0.625 0.20529,-0.75023 0.42783,-1.50554 0.625,-2.25 l -4.15625,0 c -0.003,0.008 0.002,0.0231 0,0.0312 l -120.875004,0 c -0.003,-0.01 0.003,-0.0214 0,-0.0312 z"
     style="fill:#4e9a06" /><path
     style="fill:#333333;fill-opacity:1"
     d="M 65.90625,30 52.28125,60.28125 55.5625,61.0625 68.46875,32.34375 81.75,61.9375 l 4.65625,0 L 99.6875,32.34375 113,61.9375 l 4.625,0 13.3125,-29.59375 12.75,28.40625 3.375,-0.59375 L 133.5,30 128.375,30 115.3125,59.03125 102.25,30 97.125,30 84.0625,59.03125 71.03125,30 z"
     id="path3"
     inkscape:connector-curvature="0"
     sodipodi:nodetypes="cccccccccccccccccccc" /><g
     id="g5" /><g
     id="g7" /><g
     id="g9" /><g
     id="g11" /><g
     id="g13" /><g
     id="g15" /><g
     id="g17" /><g
     id="g19" /><g
     id="g21" /><g
     id="g23" /><g
     id="g25" /><g
     id="g27" /><g
     id="g29" /><g
     id="g31" /><g
     id="g33" /><path
     d="m 34.138696,340.45975 c 0.23598,0.74926 0.47347,1.49518 0.71875,2.25 0.024,0.215 0.0693,0.40375 0.15625,0.59375 3.96294,14.24083 8.30229,26.8867 11.46875,35.59375 l 4.25,0 10.75,0 72.093754,0 13.34375,0 4.25,0 c 3.16646,-8.70093 7.50581,-21.32167 11.46875,-35.5625 0.088,-0.191 0.13225,-0.407 0.15625,-0.625 0.20529,-0.75023 0.42783,-1.50554 0.625,-2.25 l -4.15625,0 c -0.003,0.008 0.002,0.0231 0,0.0312 l -120.875004,0 c -0.003,-0.01 0.003,-0.0214 0,-0.0312 z m 5.375,4.03125 118.625004,0 c -1.021,3.59 -3.09375,10.4375 -3.09375,10.4375 l -1.9375,6.0625 c 0,0 -3.28675,9.89125 -4.71875,13.90625 l -99.125004,0 c -1.452,-4.072 -4.78125,-14.125 -4.78125,-14.125 l -1.9375,-6.0625 c 0,0 -2.03125,-6.70475 -3.03125,-10.21875 z"
     id="path3016"
     inkscape:connector-curvature="0"
     sodipodi:nodetypes="cccccccccccccccccccccccccc" /><path
     transform="matrix(0.6471231,0,0,0.6471231,22.097262,19.976362)"
     d="m 58.289211,69.165642 a 10.031658,10.031658 0 1 1 -20.063316,0 10.031658,10.031658 0 1 1 20.063316,0 z"
     sodipodi:ry="10.031658"
     sodipodi:rx="10.031658"
     sodipodi:cy="69.165642"
     sodipodi:cx="48.257553"
     id="path3826"
     style="fill:none;stroke:#333333;stroke-width:7.72650528;stroke-miterlimit:4;stroke-opacity:1;stroke-dasharray:none"
     sodipodi:type="arc" /><path
     sodipodi:nodetypes="scssccscccsscccsccsssssssscccssccccccccccccccccsccsccccccccccccssccc"
     inkscape:connector-curvature="0"
     id="path3832"
     d="m -183.90645,-2.6940873e-7 c -3.581,0 -6.46775,2.91999996940873 -6.46875,6.49999996940873 l 0,7.0000003 c 0,1.104 0.896,2 2,2 l 8.625,0 -0.3125,0.65625 c -10.556,23.09 -16.9375,37.045 -16.9375,72.125 0,16.586 4.2845,36.8835 9.3125,55.0625 0.024,0.215 0.0693,0.40375 0.15625,0.59375 4.551,16.354 9.711,30.9395 12.875,39.4375 3.562,9.563 12.8295,16 23.0625,16 l 55.750003,0 c 10.233,0 19.5005,-6.436 23.0625,-16 3.164,-8.498 8.324,-23.05225 12.875,-39.40625 0.088,-0.191 0.13225,-0.407 0.15625,-0.625 5.028,-18.178 9.28125,-38.4765 9.28125,-55.0625 0,-35.081 -6.34925,-49.033 -16.90625,-72.125 l -0.3125,-0.65625 8.625,0 c 1.104,0 2,-0.896 2,-2 l 0,-7.0000003 c 0,-3.58 -2.919,-6.49999996940873 -6.5,-6.49999996940873 z m 0,3.99999996940873 120.343753,0 c 1.375,0 2.5,1.125 2.5,2.5 l 0,5.0000003 -24.9375,0 -100.375003,0 0,-5.0000003 c 0,-1.375 1.09375,-2.5 2.46875,-2.5 z m 8.5625,11.5000003 10.8125,0 -17.0625,37.96875 c -0.0441,0.187023 2.91932,1.136622 3.75,1.4375 l 16.40625,-36.53125 16.0625,35.75 5.59375,0 16.0625,-35.75 16.0625,35.75 5.59375,0 16.062503,-35.75 16.0625,35.75 4.15625,-0.5 -17.125,-38.125 10.8125,0 1.0625,2.3125 c 10.331,22.596 16.5625,36.25875 16.5625,70.46875 0,15.848 -4.0005,35.25675 -8.8125,52.84375 l -120.875003,0 c -4.812,-17.587 -8.84375,-36.99675 -8.84375,-52.84375 0,-34.209 6.26275,-47.87175 16.59375,-70.46875 z m 17,0 31.53125,0 -15.78125,35.09375 z m 37.71875,0 31.531253,0 -15.781253,35.09375 z m -51.21875,164.03125 96.218753,0 c -0.319,0.869 -0.61925,1.6665 -0.90625,2.4375 -2.98,8.007 -10.7415,13.40625 -19.3125,13.40625 l -55.750003,0 c -8.571,0 -16.3315,-5.39925 -19.3125,-13.40625 -0.287,-0.771 -0.6195,-1.5685 -0.9375,-2.4375 z" /><path
     sodipodi:nodetypes="sccccccccccccccccccccccccsscccccscccccss"
     style="fill:#3465a4"
     inkscape:connector-curvature="0"
     id="path3834"
     d="m -157.05823,147.74409 c -0.33261,0 -0.6661,0.0957 -0.98127,0.30173 -0.11863,0.0756 -0.21894,0.19874 -0.3271,0.30173 l -15.44603,14.08068 -9.88546,-9.05186 -1.86729,-1.56926 2.98742,10.32865 1.24221,1.14737 6.2511,5.68257 c 0.77804,0.71288 1.766,0.71288 2.54405,0 l 15.48237,-14.13098 15.48238,14.13098 c 0.77805,0.71288 1.80235,0.71288 2.5804,0 l 15.48237,-14.13098 15.48236,14.13098 c 0.77805,0.71288 1.80236,0.71288 2.5804,0 l 15.482383,-14.13098 15.44603,14.13098 c 0.77804,0.71288 1.80236,0.71288 2.5804,0 l 6.2364,-5.63437 3.3991,-10.89486 -1.20378,1.14105 -9.70374,8.85071 -15.44604,-14.08068 c -0.11049,-0.10782 -0.24249,-0.22932 -0.36344,-0.30173 -0.31284,-0.20115 -0.61464,-0.30173 -0.94493,-0.30173 l -0.0362,0 c -0.3326,0 -0.6661,0.0974 -0.98126,0.30173 -0.11863,0.0772 -0.21895,0.19874 -0.3271,0.30173 l -15.446033,14.08068 -15.40967,-14.08068 c -0.11049,-0.10782 -0.24249,-0.22449 -0.36344,-0.30173 -0.31285,-0.20276 -0.64982,-0.30173 -0.98128,-0.30173 -0.33378,0 -0.6661,0.0957 -0.98128,0.30173 -0.11746,0.0756 -0.21893,0.19874 -0.32709,0.30173 l -15.4461,14.08068 -15.44603,-14.08068 c -0.11049,-0.10621 -0.24249,-0.22449 -0.36344,-0.30173 -0.31284,-0.20276 -0.61348,-0.30173 -0.94493,-0.30173 z" /><path
     transform="translate(-190.7078,-8.4627213)"
     d="m 58.289211,69.165642 a 10.031658,10.031658 0 1 1 -20.063316,0 10.031658,10.031658 0 1 1 20.063316,0 z"
     sodipodi:ry="10.031658"
     sodipodi:rx="10.031658"
     sodipodi:cy="69.165642"
     sodipodi:cx="48.257553"
     id="path3836"
     style="fill:#000000;fill-opacity:1;stroke:none"
     sodipodi:type="arc" /><path
     sodipodi:type="arc"
     style="fill:#000000;fill-opacity:1;stroke:none"
     id="path3838"
     sodipodi:cx="48.257553"
     sodipodi:cy="69.165642"
     sodipodi:rx="10.031658"
     sodipodi:ry="10.031658"
     d="m 58.289211,69.165642 a 10.031658,10.031658 0 1 1 -20.063316,0 10.031658,10.031658 0 1 1 20.063316,0 z"
     transform="translate(-229.35608,-11.208227)" /><path
     sodipodi:type="arc"
     style="fill:#000000;fill-opacity:1;stroke:none"
     id="path3840"
     sodipodi:cx="48.257553"
     sodipodi:cy="69.165642"
     sodipodi:rx="10.031658"
     sodipodi:ry="10.031658"
     d="m 58.289211,69.165642 a 10.031658,10.031658 0 1 1 -20.063316,0 10.031658,10.031658 0 1 1 20.063316,0 z"
     transform="translate(-153.37383,-8.4627213)" /><path
     transform="translate(-114.66614,-11.208227)"
     d="m 58.289211,69.165642 a 10.031658,10.031658 0 1 1 -20.063316,0 10.031658,10.031658 0 1 1 20.063316,0 z"
     sodipodi:ry="10.031658"
     sodipodi:rx="10.031658"
     sodipodi:cy="69.165642"
     sodipodi:cx="48.257553"
     id="path3842"
     style="fill:#000000;fill-opacity:1;stroke:none"
     sodipodi:type="arc" /><path
     d="M -372.65625 -1.1875 C -376.23725 -1.1875 -379.124 1.7325 -379.125 5.3125 L -379.125 12.3125 C -379.125 13.4165 -378.229 14.3125 -377.125 14.3125 L -368.5 14.3125 L -368.8125 14.96875 C -379.3685 38.05875 -385.75 52.01375 -385.75 87.09375 C -385.75 103.67975 -381.4655 123.97725 -376.4375 142.15625 C -376.4135 142.37125 -376.3682 142.56 -376.28125 142.75 C -371.73025 159.104 -366.57025 173.6895 -363.40625 182.1875 C -359.84425 191.7505 -350.57675 198.1875 -340.34375 198.1875 L -284.59375 198.1875 C -274.36075 198.1875 -265.09325 191.7515 -261.53125 182.1875 C -258.36725 173.6895 -253.20725 159.13525 -248.65625 142.78125 C -248.56825 142.59025 -248.524 142.37425 -248.5 142.15625 C -243.472 123.97825 -239.21875 103.67975 -239.21875 87.09375 C -239.21875 52.01275 -245.568 38.06075 -256.125 14.96875 L -256.4375 14.3125 L -247.8125 14.3125 C -246.7085 14.3125 -245.8125 13.4165 -245.8125 12.3125 L -245.8125 5.3125 C -245.8125 1.7325 -248.7315 -1.1875 -252.3125 -1.1875 L -372.65625 -1.1875 z M -372.65625 2.8125 L -252.3125 2.8125 C -250.9375 2.8125 -249.8125 3.9375 -249.8125 5.3125 L -249.8125 10.3125 L -274.75 10.3125 L -375.125 10.3125 L -375.125 5.3125 C -375.125 3.9375 -374.03125 2.8125 -372.65625 2.8125 z M -353.78125 14.28125 L -347.53125 14.28125 L -331.8125 49.3125 L -316.0625 14.28125 L -309.8125 14.28125 L -294.09375 49.3125 L -278.34375 14.28125 L -272.09375 14.28125 L -257.46875 46.8125 C -256.87315 46.70227 -256.25251 46.65625 -255.625 46.65625 C -250.08467 46.65625 -245.59375 51.14717 -245.59375 56.6875 C -245.59375 62.22783 -250.08467 66.71875 -255.625 66.71875 C -261.16533 66.71875 -265.65625 62.22783 -265.65625 56.6875 C -265.65625 53.20018 -263.88794 50.14138 -261.1875 48.34375 L -275.21875 17.09375 L -290.15625 50.3125 C -286.70804 51.8996 -284.3125 55.39271 -284.3125 59.4375 C -284.3125 64.97783 -288.80342 69.46875 -294.34375 69.46875 C -299.88408 69.46875 -304.375 64.97783 -304.375 59.4375 C -304.375 55.22392 -301.7751 51.61083 -298.09375 50.125 L -312.9375 17.09375 L -327.8125 50.15625 C -324.17865 51.66411 -321.625 55.25817 -321.625 59.4375 C -321.625 64.97783 -326.11592 69.46875 -331.65625 69.46875 C -337.19658 69.46875 -341.6875 64.97783 -341.6875 59.4375 C -341.6875 55.35746 -339.24669 51.8487 -335.75 50.28125 L -350.65625 17.09375 L -364.71875 48.375 C -362.05031 50.17776 -360.28125 53.22479 -360.28125 56.6875 C -360.28125 62.22783 -364.77217 66.71875 -370.3125 66.71875 C -375.85283 66.71875 -380.34375 62.22783 -380.34375 56.6875 C -380.34375 51.14717 -375.85283 46.65625 -370.3125 46.65625 C -369.66386 46.65625 -369.02061 46.6949 -368.40625 46.8125 L -353.78125 14.28125 z "
     id="path3845" /><path
     style="fill:#eeeeec"
     d="m -371.61925,144.74255 c 1,3.514 3.03125,10.21875 3.03125,10.21875 l 1.9375,6.0625 c 0,0 3.32925,10.053 4.78125,14.125 l 99.125,0 c 1.432,-4.015 4.71875,-13.90625 4.71875,-13.90625 l 1.9375,-6.0625 c 0,0 2.07275,-6.8475 3.09375,-10.4375 l -118.625,0 z"
     id="path3873"
     inkscape:connector-curvature="0" /><path
     d="m -345.17668,147.74409 c -0.32616,0 -0.65318,0.0957 -0.96225,0.30173 -0.11633,0.0756 -0.2147,0.19874 -0.32075,0.30173 l -15.14662,14.08068 -9.69383,-9.05186 -1.83109,-1.56926 2.92951,10.32865 1.21813,1.14737 6.12992,5.68257 c 0.76296,0.71288 1.73177,0.71288 2.49474,0 l 15.18224,-14.13098 15.18226,14.13098 c 0.76297,0.71288 1.76741,0.71288 2.53037,0 l 15.18225,-14.13098 15.18224,14.13098 c 0.76297,0.71288 1.76741,0.71288 2.53037,0 l 15.18226,-14.13098 15.14661,14.13098 c 0.76296,0.71288 1.76742,0.71288 2.53038,0 l 6.11551,-5.63437 3.33321,-10.89486 -1.18045,1.14105 -9.51563,8.85071 -15.14662,-14.08068 c -0.10835,-0.10782 -0.23779,-0.22932 -0.3564,-0.30173 -0.30677,-0.20115 -0.60272,-0.30173 -0.92661,-0.30173 l -0.0355,0 c -0.32615,0 -0.65318,0.0974 -0.96224,0.30173 -0.11632,0.0772 -0.21471,0.19874 -0.32075,0.30173 l -15.14662,14.08068 -15.11095,-14.08068 c -0.10835,-0.10782 -0.23779,-0.22449 -0.3564,-0.30173 -0.30678,-0.20276 -0.63722,-0.30173 -0.96225,-0.30173 -0.32731,0 -0.65319,0.0957 -0.96226,0.30173 -0.11519,0.0756 -0.21468,0.19874 -0.32075,0.30173 l -15.14667,14.08068 -15.14662,-14.08068 c -0.10834,-0.10621 -0.23778,-0.22449 -0.35639,-0.30173 -0.30678,-0.20276 -0.6016,-0.30173 -0.92662,-0.30173 z"
     id="path3878"
     inkscape:connector-curvature="0"
     style="fill:#000000;fill-opacity:1"
     sodipodi:nodetypes="sccccccccccccccccccccccccsscccccscccccss" /><path
     id="path3880"
     d="m 259.5,0 c -3.581,0 -6.46775,2.92 -6.46875,6.5 l 0,7 c 0,1.104 0.896,2 2,2 l 8.625,0 -0.3125,0.65625 c -10.556,23.09 -16.9375,37.045 -16.9375,72.125 0,16.586 4.2845,36.8835 9.3125,55.0625 0.024,0.215 0.0692,0.40375 0.15625,0.59375 0.78154,2.80845 1.57074,5.53648 2.375,8.21875 l 1.46875,1.21875 9.875,9.0625 15.4375,-14.09375 c 0.10816,-0.10299 0.22513,-0.2369 0.34375,-0.3125 0.31517,-0.20603 0.63613,-0.28125 0.96875,-0.28125 l 0.0312,0 c 0.33145,0 0.6559,0.0785 0.96875,0.28125 0.12095,0.0772 0.23327,0.20629 0.34375,0.3125 l 15.4375,14.09375 15.46875,-14.09375 c 0.10816,-0.10299 0.19504,-0.2369 0.3125,-0.3125 0.31517,-0.20603 0.66622,-0.28125 1,-0.28125 0.33146,0 0.6559,0.0785 0.96875,0.28125 0.12095,0.0772 0.26451,0.20468 0.375,0.3125 l 15.40625,14.09375 15.4375,-14.09375 c 0.10815,-0.10299 0.19387,-0.2353 0.3125,-0.3125 0.31516,-0.20433 0.6674,-0.28125 1,-0.28125 l 0.0312,0 c 0.33029,0 0.62466,0.0801 0.9375,0.28125 0.12095,0.0724 0.26451,0.20468 0.375,0.3125 l 15.4375,14.09375 9.71875,-8.875 1.125,-1.0625 c 0.83589,-2.77889 1.65683,-5.61363 2.46875,-8.53125 0.088,-0.191 0.13225,-0.407 0.15625,-0.625 5.028,-18.178 9.28125,-38.4765 9.28125,-55.0625 0,-35.081 -6.34925,-49.033 -16.90625,-72.125 L 375.7187,15.5 l 8.625,0 c 1.104,0 2,-0.896 2,-2 l 0,-7 c 0,-3.58 -2.919,-6.5 -6.5,-6.5 L 259.5,0 z m 0,4 120.34375,0 c 1.375,0 2.5,1.125 2.5,2.5 l 0,5 -24.9375,0 -100.375,0 0,-5 C 257.03125,5.125 258.125,4 259.5,4 z m 8.5625,11.5 10.8125,0 -17.0625,37.96875 c -0.0441,0.187023 2.91932,1.136622 3.75,1.4375 l 16.40625,-36.53125 16.0625,35.75 5.59375,0 16.0625,-35.75 16.0625,35.75 5.59375,0 16.0625,-35.75 16.0625,35.75 4.15625,-0.5 L 360.5,15.5 l 10.8125,0 1.0625,2.3125 c 10.331,22.596 16.5625,36.25875 16.5625,70.46875 0,15.848 -4.0005,35.25675 -8.8125,52.84375 l -120.875,0 c -4.812,-17.587 -8.84375,-36.99675 -8.84375,-52.84375 0,-34.209 6.26275,-47.87175 16.59375,-70.46875 L 268.0625,15.5 z m 17,0 31.53125,0 L 300.8125,50.59375 285.0625,15.5 z m 37.71875,0 31.53125,0 -15.78125,35.09375 -15.75,-35.09375 z m -36.4375,139.34375 -15.46875,14.125 c -0.77804,0.71288 -1.78446,0.71288 -2.5625,0 l -6.25,-5.6875 -0.4375,-0.4375 c 2.71984,8.35948 5.25918,15.51994 7.125,20.53125 3.562,9.563 12.8295,16 23.0625,16 l 55.75,0 c 10.233,0 19.5005,-6.436 23.0625,-16 1.82185,-4.8932 4.28941,-11.84097 6.9375,-19.9375 l -6.09375,5.53125 c -0.77804,0.71288 -1.81571,0.71288 -2.59375,0 l -15.4375,-14.125 -15.46875,14.125 c -0.77804,0.71288 -1.8157,0.71288 -2.59375,0 l -15.46875,-14.125 -15.5,14.125 c -0.77804,0.71288 -1.78446,0.71288 -2.5625,0 l -15.5,-14.125 z m -14.78125,24.6875 96.21875,0 c -0.319,0.869 -0.61925,1.6665 -0.90625,2.4375 -2.98,8.007 -10.7415,13.40625 -19.3125,13.40625 l -55.75,0 c -8.571,0 -16.3315,-5.39925 -19.3125,-13.40625 -0.287,-0.771 -0.6195,-1.5685 -0.9375,-2.4375 z"
     inkscape:connector-curvature="0" /><path
     transform="translate(252.69865,-8.462721)"
     d="m 58.289211,69.165642 a 10.031658,10.031658 0 1 1 -20.063316,0 10.031658,10.031658 0 1 1 20.063316,0 z"
     sodipodi:ry="10.031658"
     sodipodi:rx="10.031658"
     sodipodi:cy="69.165642"
     sodipodi:cx="48.257553"
     id="path3882"
     style="fill:#000000;fill-opacity:1;stroke:none"
     sodipodi:type="arc" /><path
     sodipodi:type="arc"
     style="fill:#000000;fill-opacity:1;stroke:none"
     id="path3884"
     sodipodi:cx="48.257553"
     sodipodi:cy="69.165642"
     sodipodi:rx="10.031658"
     sodipodi:ry="10.031658"
     d="m 58.289211,69.165642 a 10.031658,10.031658 0 1 1 -20.063316,0 10.031658,10.031658 0 1 1 20.063316,0 z"
     transform="translate(214.05037,-11.208227)" /><path
     sodipodi:type="arc"
     style="fill:#000000;fill-opacity:1;stroke:none"
     id="path3886"
     sodipodi:cx="48.257553"
     sodipodi:cy="69.165642"
     sodipodi:rx="10.031658"
     sodipodi:ry="10.031658"
     d="m 58.289211,69.165642 a 10.031658,10.031658 0 1 1 -20.063316,0 10.031658,10.031658 0 1 1 20.063316,0 z"
     transform="translate(290.03261,-8.462721)" /><path
     transform="translate(328.74031,-11.208227)"
     d="m 58.289211,69.165642 a 10.031658,10.031658 0 1 1 -20.063316,0 10.031658,10.031658 0 1 1 20.063316,0 z"
     sodipodi:ry="10.031658"
     sodipodi:rx="10.031658"
     sodipodi:cy="69.165642"
     sodipodi:cx="48.257553"
     id="path3888"
     style="fill:#000000;fill-opacity:1;stroke:none"
     sodipodi:type="arc" /><path
     sodipodi:nodetypes="scssccscccsscccsccsssssssscccss"
     inkscape:connector-curvature="0"
     id="path3907"
     d="m -372.66698,281.9461 c -3.581,0 -6.46775,2.92 -6.46875,6.5 l 0,7 c 0,1.104 0.896,2 2,2 l 8.625,0 -0.3125,0.65625 c -10.556,23.09 -16.9375,37.045 -16.9375,72.125 0,16.586 4.2845,36.8835 9.3125,55.0625 0.024,0.215 0.0693,0.40375 0.15625,0.59375 4.551,16.354 9.711,30.9395 12.875,39.4375 3.562,9.563 12.8295,16 23.0625,16 l 55.75001,0 c 10.233,0 19.5005,-6.436 23.0625,-16 3.164,-8.498 8.324,-23.05225 12.875,-39.40625 0.088,-0.191 0.13225,-0.407 0.15625,-0.625 5.028,-18.178 9.28125,-38.4765 9.28125,-55.0625 0,-35.081 -6.34925,-49.033 -16.90625,-72.125 l -0.3125,-0.65625 8.625,0 c 1.104,0 2,-0.896 2,-2 l 0,-7 c 0,-3.58 -2.919,-6.5 -6.5,-6.5 z m 0,4 120.34376,0 c 1.375,0 2.5,1.125 2.5,2.5 l 0,5 -24.9375,0 -100.37501,0 0,-5 c 0,-1.375 1.09375,-2.5 2.46875,-2.5 z" /><path
     style="fill:#729fcf"
     inkscape:connector-curvature="0"
     id="path3909"
     d="m -353.79668,297.42719 -14.625,32.53125 c -0.61436,-0.1176 -1.25761,-0.15625 -1.90625,-0.15625 -5.54033,0 -10.03125,4.49092 -10.03125,10.03125 0,5.54033 4.49092,10.03125 10.03125,10.03125 5.54033,0 10.03125,-4.49092 10.03125,-10.03125 0,-3.46271 -1.76906,-6.50974 -4.4375,-8.3125 l 14.0625,-31.28125 14.90625,33.1875 c -3.49669,1.56745 -5.9375,5.07621 -5.9375,9.15625 0,5.54033 4.49092,10.03125 10.03125,10.03125 5.54033,0 10.03125,-4.49092 10.03125,-10.03125 0,-4.17933 -2.55365,-7.77339 -6.1875,-9.28125 l 14.875,-33.0625 14.84375,33.03125 c -3.68135,1.48583 -6.28125,5.09892 -6.28125,9.3125 0,5.54033 4.49092,10.03125 10.03125,10.03125 5.54033,0 10.03125,-4.49092 10.03125,-10.03125 0,-4.04479 -2.39554,-7.5379 -5.84375,-9.125 l 14.9375,-33.21875 14.03125,31.25 c -2.70044,1.79763 -4.46875,4.85643 -4.46875,8.34375 0,5.54033 4.49092,10.03125 10.03125,10.03125 5.54033,0 10.03125,-4.49092 10.03125,-10.03125 0,-5.54033 -4.49092,-10.03125 -10.03125,-10.03125 -0.62751,0 -1.24815,0.046 -1.84375,0.15625 l -14.625,-32.53125 -6.25,0 -15.75,35.03125 -15.71875,-35.03125 -6.25,0 -15.75,35.03125 -15.71875,-35.03125 -6.25,0 z" /><path
     sodipodi:type="arc"
     style="fill:#000000;fill-opacity:1;stroke:none"
     id="path3912"
     sodipodi:cx="-369.90417"
     sodipodi:cy="58.606003"
     sodipodi:rx="3.695874"
     sodipodi:ry="3.695874"
     d="m -366.2083,58.606003 a 3.695874,3.695874 0 1 1 -7.39175,0 3.695874,3.695874 0 1 1 7.39175,0 z"
     transform="matrix(1.2,0,0,1.2,73.505652,-13.305146)" /><path
     transform="matrix(1.2,0,0,1.2,112.18364,-10.318429)"
     d="m -366.2083,58.606003 a 3.695874,3.695874 0 1 1 -7.39175,0 3.695874,3.695874 0 1 1 7.39175,0 z"
     sodipodi:ry="3.695874"
     sodipodi:rx="3.695874"
     sodipodi:cy="58.606003"
     sodipodi:cx="-369.90417"
     id="path3914"
     style="fill:#000000;fill-opacity:1;stroke:none"
     sodipodi:type="arc" /><path
     sodipodi:type="arc"
     style="fill:#000000;fill-opacity:1;stroke:none"
     id="path3916"
     sodipodi:cx="-369.90417"
     sodipodi:cy="58.606003"
     sodipodi:rx="3.695874"
     sodipodi:ry="3.695874"
     d="m -366.2083,58.606003 a 3.695874,3.695874 0 1 1 -7.39175,0 3.695874,3.695874 0 1 1 7.39175,0 z"
     transform="matrix(1.2,0,0,1.2,149.36827,-10.318429)" /><path
     transform="matrix(1.2,0,0,1.2,188.6436,-13.15581)"
     d="m -366.2083,58.606003 a 3.695874,3.695874 0 1 1 -7.39175,0 3.695874,3.695874 0 1 1 7.39175,0 z"
     sodipodi:ry="3.695874"
     sodipodi:rx="3.695874"
     sodipodi:cy="58.606003"
     sodipodi:cx="-369.90417"
     id="path3918"
     style="fill:#000000;fill-opacity:1;stroke:none"
     sodipodi:type="arc" /><path
     sodipodi:type="arc"
     style="fill:none;stroke:#333333;stroke-width:7.38665898;stroke-miterlimit:4;stroke-opacity:1;stroke-dasharray:none"
     id="path3804"
     sodipodi:cx="48.257553"
     sodipodi:cy="69.165642"
     sodipodi:rx="10.031658"
     sodipodi:ry="10.031658"
     d="m 58.289211,69.165642 a 10.031658,10.031658 0 1 1 -20.063316,0 10.031658,10.031658 0 1 1 20.063316,0 z"
     transform="matrix(0.67689602,0,0,0.67689602,51.349014,20.007801)" /><path
     transform="matrix(0.67689602,0,0,0.67689602,82.56021,20.007801)"
     d="m 58.289211,69.165642 a 10.031658,10.031658 0 1 1 -20.063316,0 10.031658,10.031658 0 1 1 20.063316,0 z"
     sodipodi:ry="10.031658"
     sodipodi:rx="10.031658"
     sodipodi:cy="69.165642"
     sodipodi:cx="48.257553"
     id="path3806"
     style="fill:none;stroke:#333333;stroke-width:7.38665898;stroke-miterlimit:4;stroke-opacity:1;stroke-dasharray:none"
     sodipodi:type="arc" /><path
     sodipodi:type="arc"
     style="fill:none;stroke:#333333;stroke-width:7.72650528;stroke-miterlimit:4;stroke-opacity:1;stroke-dasharray:none"
     id="path3810"
     sodipodi:cx="48.257553"
     sodipodi:cy="69.165642"
     sodipodi:rx="10.031658"
     sodipodi:ry="10.031658"
     d="m 58.289211,69.165642 a 10.031658,10.031658 0 1 1 -20.063316,0 10.031658,10.031658 0 1 1 20.063316,0 z"
     transform="matrix(0.6471231,0,0,0.6471231,114.8637,19.976362)" /><path
     style="fill:#e9b96e"
     inkscape:connector-curvature="0"
     id="path3027"
     d="m 53.435838,-170.22666 -0.258544,0.51709 c -8.733409,19.10329 -14.013084,30.64883 -14.013084,59.67194 0,13.722279 3.544741,30.515229 7.704611,45.555449 0.01986,0.17788 0.05733,0.33404 0.129271,0.49124 3.765228,13.53033 8.034307,25.59751 10.652013,32.62825 2.946988,7.91185 10.614368,13.23745 19.080545,13.23745 l 46.12424,0 c 8.46618,0 16.13357,-5.32477 19.08055,-13.23745 2.61771,-7.03074 6.88679,-19.07207 10.65201,-32.6024 0.0728,-0.15802 0.10942,-0.33673 0.12927,-0.51709 4.15988,-15.0394 7.67877,-31.83317 7.67877,-45.555449 0,-29.02393 -5.253,-40.56699 -13.98723,-59.67194 l -0.25856,-0.51709 -92.713862,0 z" /><path
     style="fill:#333333;fill-opacity:1"
     sodipodi:nodetypes="scssccsccccccccsscccccscccccsscccccccsccsssssccccccccccccccccsccsccccccccccccccccssccccccccccccccsscc"
     inkscape:connector-curvature="0"
     id="path3029"
     d="m 49.854973,-182.86778 c -2.965411,0 -5.355916,2.41804 -5.356744,5.38262 l 0,5.79667 c 0,0.91422 0.741974,1.65619 1.656192,1.65619 l 7.142324,0 -0.25878,0.54344 c -8.741377,19.12073 -14.025869,30.6768 -14.025869,59.7264 0,13.734789 3.547975,30.543059 7.71164,45.597009 0.01988,0.17804 0.05735,0.33434 0.12939,0.49168 0.647187,2.32566 1.30072,4.58474 1.966727,6.80591 l 1.216266,1.00925 4.54317,7.58955 2.789503,-0.0849 13.206111,-11.67097 c 0.08957,-0.0853 0.186425,-0.19618 0.284657,-0.25878 0.260993,-0.17062 0.52678,-0.23291 0.802218,-0.23291 l 0.02588,0 c 0.274476,0 0.543151,0.065 0.802217,0.23291 0.100161,0.0639 0.193167,0.17083 0.284659,0.25878 l 12.994919,11.67093 13.020794,-11.67097 c 0.0896,-0.0853 0.16151,-0.19618 0.25878,-0.25878 0.261,-0.17062 0.5517,-0.23291 0.8281,-0.23291 0.274483,0 0.543153,0.065 0.802223,0.23291 0.10015,0.0639 0.21903,0.16949 0.31053,0.25878 l 12.96904,11.67097 12.99493,-11.67097 c 0.0896,-0.0853 0.16054,-0.19485 0.25877,-0.25878 0.26099,-0.16921 0.55268,-0.23291 0.8281,-0.23291 l 0.0258,0 c 0.27351,0 0.51728,0.0663 0.77634,0.23291 0.10015,0.0599 0.21904,0.16949 0.31054,0.25878 l 12.99492,11.67097 2.89706,0.19211 5.44901,-8.42131 c 0.6922,-2.30118 1.37202,-4.64862 2.04437,-7.06469 0.0729,-0.15816 0.10951,-0.33703 0.12939,-0.51756 4.16366,-15.05313 7.68576,-31.86222 7.68576,-45.597009 0,-29.05043 -5.25779,-40.60402 -14,-59.7264 l -0.25877,-0.54344 7.14232,0 c 0.91422,0 1.6562,-0.74197 1.6562,-1.65619 l 0,-5.79667 c 3e-5,-2.96458 -2.41718,-5.38262 -5.38259,-5.38262 z m 7.090568,12.83548 8.953785,0 -13.62357,30.31619 3.288601,0.78166 12.896889,-28.71707 13.301286,29.60442 4.632159,0 13.301284,-29.60442 13.301285,29.60442 4.63215,0 13.30129,-29.60442 12.76193,28.40398 3.36562,-0.58391 -13.56563,-30.20085 8.95379,0 0.87985,1.91497 c 8.55505,18.71165 13.71533,30.02572 13.71533,58.35487 0,13.123659 -3.31279,29.195959 -7.29759,43.759669 l -100.096051,0 c -3.984796,-14.56371 -7.323471,-30.63684 -7.323471,-43.759669 0,-28.32833 5.186156,-39.64239 13.741212,-58.35487 z m 14.077626,0 26.110888,0 -13.068382,29.06098 z m 31.234733,0 26.11088,0 -13.06839,29.06098 z M 71.661778,-54.642351 58.42979,-42.945501 c -0.644295,0.59034 -1.477701,0.59034 -2.121995,0 l -4.330827,-4.70979 -0.362292,-0.36229 c 2.252287,6.92244 4.3551,12.85199 5.900181,17.00183 2.949677,7.91908 10.624053,13.24953 19.097955,13.24953 l 46.166328,0 c 8.4739,0 16.14827,-5.32962 19.09796,-13.24953 1.50866,-4.05204 3.55203,-9.80545 5.74491,-16.51015 l -4.41263,4.5804 c -0.6443,0.59034 -1.50358,0.59034 -2.14788,0 l -12.99491,-11.69685 -13.02081,11.69685 c -0.64429,0.59034 -1.50357,0.59034 -2.14786,0 l -13.020795,-11.69685 -13.046677,11.69685 c -0.644294,0.59034 -1.4777,0.59034 -2.121995,0 z m -11.817902,20.44361 79.678324,0 c -0.26417,0.71961 -0.51281,1.38003 -0.75047,2.01849 -2.46773,6.63055 -8.89499,11.10165 -15.99259,11.10165 l -46.166328,0 c -7.097608,0 -13.524043,-4.4711 -15.992596,-11.10165 -0.237664,-0.63846 -0.513006,-1.29888 -0.77634,-2.01849 z" /><path
     sodipodi:type="arc"
     style="fill:none;stroke:#333333;stroke-width:7.72650528;stroke-miterlimit:4;stroke-opacity:1;stroke-dasharray:none"
     id="path3031"
     sodipodi:cx="48.257553"
     sodipodi:cy="69.165642"
     sodipodi:rx="10.031658"
     sodipodi:ry="10.031658"
     d="m 58.289211,69.165642 a 10.031658,10.031658 0 1 1 -20.063316,0 10.031658,10.031658 0 1 1 20.063316,0 z"
     transform="matrix(0.6471231,0,0,0.6471231,22.097262,-180.02364)" /><path
     inkscape:connector-curvature="0"
     id="path3033"
     d="m 51.75,-59.312501 -3.40625,0.875 c 1.480723,5.69935 3.574999,11.78131 5.625,17.40625 l 3.3125,-1.1875 c -2.034285,-5.58182 -4.100393,-11.58634 -5.53125,-17.09375 z"
     style="font-size:medium;font-style:normal;font-variant:normal;font-weight:normal;font-stretch:normal;text-indent:0;text-align:start;text-decoration:none;line-height:normal;letter-spacing:normal;word-spacing:normal;text-transform:none;direction:ltr;block-progression:tb;writing-mode:lr-tb;text-anchor:start;baseline-shift:baseline;color:#000000;fill:#333333;fill-opacity:1;stroke:none;stroke-width:3.5;marker:none;visibility:visible;display:inline;overflow:visible;enable-background:accumulate;font-family:Sans;-inkscape-font-specification:Sans" /><path
     transform="matrix(0.67689602,0,0,0.67689602,51.349014,-179.9922)"
     d="m 58.289211,69.165642 a 10.031658,10.031658 0 1 1 -20.063316,0 10.031658,10.031658 0 1 1 20.063316,0 z"
     sodipodi:ry="10.031658"
     sodipodi:rx="10.031658"
     sodipodi:cy="69.165642"
     sodipodi:cx="48.257553"
     id="path3035"
     style="fill:none;stroke:#333333;stroke-width:7.38665915;stroke-miterlimit:4;stroke-opacity:1;stroke-dasharray:none"
     sodipodi:type="arc" /><path
     sodipodi:type="arc"
     style="fill:none;stroke:#333333;stroke-width:7.38665915;stroke-miterlimit:4;stroke-opacity:1;stroke-dasharray:none"
     id="path3037"
     sodipodi:cx="48.257553"
     sodipodi:cy="69.165642"
     sodipodi:rx="10.031658"
     sodipodi:ry="10.031658"
     d="m 58.289211,69.165642 a 10.031658,10.031658 0 1 1 -20.063316,0 10.031658,10.031658 0 1 1 20.063316,0 z"
     transform="matrix(0.67689602,0,0,0.67689602,82.56021,-179.9922)" /><path
     transform="matrix(0.6471231,0,0,0.6471231,114.8637,-180.02364)"
     d="m 58.289211,69.165642 a 10.031658,10.031658 0 1 1 -20.063316,0 10.031658,10.031658 0 1 1 20.063316,0 z"
     sodipodi:ry="10.031658"
     sodipodi:rx="10.031658"
     sodipodi:cy="69.165642"
     sodipodi:cx="48.257553"
     id="path3039"
     style="fill:none;stroke:#333333;stroke-width:7.72650528;stroke-miterlimit:4;stroke-opacity:1;stroke-dasharray:none"
     sodipodi:type="arc" /><path
     style="font-size:medium;font-style:normal;font-variant:normal;font-weight:normal;font-stretch:normal;text-indent:0;text-align:start;text-decoration:none;line-height:normal;letter-spacing:normal;word-spacing:normal;text-transform:none;direction:ltr;block-progression:tb;writing-mode:lr-tb;text-anchor:start;baseline-shift:baseline;color:#000000;fill:#333333;fill-opacity:1;stroke:none;stroke-width:3.5;marker:none;visibility:visible;display:inline;overflow:visible;enable-background:accumulate;font-family:Sans;-inkscape-font-specification:Sans"
     d="m 147.58325,-59.312501 3.40625,0.875 c -1.48073,5.69935 -3.575,11.78131 -5.625,17.40625 l -3.3125,-1.1875 c 2.03428,-5.58182 4.10039,-11.58634 5.53125,-17.09375 z"
     id="path3041"
     inkscape:connector-curvature="0" /><path
     d="m 52.787756,18.435253 c -2.778408,0 -5.025338,2.386675 -5.026114,5.299933 l 0,5.669696 c 0,0.786092 0.54963,1.450463 1.256529,1.602305 l 100.960609,0 c 0.70689,-0.151842 1.22731,-0.816213 1.22731,-1.602305 l 0,-5.669696 c 0,-2.913258 -2.27694,-5.299933 -5.05533,-5.299933 l -93.363004,0 z"
     id="path3825"
     inkscape:connector-curvature="0"
     style="fill:#333333;fill-opacity:1" /><path
     d="m 54.9375,160.90625 c 1.002175,2.83675 1.947593,5.43989 2.71875,7.5 2.95551,7.89221 10.63436,13.1875 19.125,13.1875 l 46.25,0 c 8.49064,0 16.20075,-5.29448 19.15625,-13.1875 0.77116,-2.06011 1.71657,-4.6664 2.71875,-7.5 l -89.96875,0 z"
     id="path3043"
     style="fill:#333333;fill-opacity:1" /></svg>