<?xml version="1.0" encoding="UTF-8" standalone="no"?>
<!-- Created with Inkscape (http://www.inkscape.org/) -->

<svg
   xmlns:dc="http://purl.org/dc/elements/1.1/"
   xmlns:cc="http://creativecommons.org/ns#"
   xmlns:rdf="http://www.w3.org/1999/02/22-rdf-syntax-ns#"
   xmlns:svg="http://www.w3.org/2000/svg"
   xmlns="http://www.w3.org/2000/svg"
   xmlns:sodipodi="http://sodipodi.sourceforge.net/DTD/sodipodi-0.dtd"
   xmlns:inkscape="http://www.inkscape.org/namespaces/inkscape"
   width="512"
   height="512"
   id="svg5542"
   version="1.1"
   inkscape:version="0.48.4 r9939"
   sodipodi:docname="snare (copy).svg">
  <defs
     id="defs5544" />
  <sodipodi:namedview
     id="base"
     pagecolor="#ffffff"
     bordercolor="#666666"
     borderopacity="1.0"
     inkscape:pageopacity="0.0"
     inkscape:pageshadow="2"
     inkscape:zoom="1.4"
     inkscape:cx="201.88179"
     inkscape:cy="421.04373"
     inkscape:document-units="px"
     inkscape:current-layer="layer1"
     showgrid="false"
     inkscape:window-width="1072"
     inkscape:window-height="670"
     inkscape:window-x="553"
     inkscape:window-y="183"
     inkscape:window-maximized="0" />
  <metadata
     id="metadata5547">
    <rdf:RDF>
      <cc:Work
         rdf:about="">
        <dc:format>image/svg+xml</dc:format>
        <dc:type
           rdf:resource="http://purl.org/dc/dcmitype/StillImage" />
        <dc:title />
      </cc:Work>
    </rdf:RDF>
  </metadata>
  <g
     inkscape:label="Layer 1"
     inkscape:groupmode="layer"
     id="layer1"
     transform="translate(0,-540.36218)">
    <rect
       x="96.584587"
       y="582.26453"
       stroke-miterlimit="10"
       width="317.06323"
       height="353.51996"
       id="rect125"
       style="fill:#ff572f;stroke:#333333;stroke-width:8;stroke-linecap:round;stroke-linejoin:round;stroke-miterlimit:10;fill-opacity:0.94117647" />
    <g
       id="g131"
       transform="matrix(1.1047499,0,0,1.1047499,-501.08511,-387.7059)">
      <path
         style="fill:#eefaf9;stroke:#333333;stroke-width:5.43109369;stroke-linecap:round;stroke-linejoin:round;stroke-miterlimit:10"
         inkscape:connector-curvature="0"
         id="path133"
         d="m 549,940 c 0,4.4 -3.6,8 -8,8 l 0,0 c -4.4,0 -8,-3.6 -8,-8 v -20 c 0,-4.4 3.6,-8 8,-8 l 0,0 c 4.4,0 8,3.6 8,8 v 20 z"
         stroke-miterlimit="10" />
      <path
         style="fill:#eefaf9;stroke:#333333;stroke-width:5.43109369;stroke-linecap:round;stroke-linejoin:round;stroke-miterlimit:10"
         inkscape:connector-curvature="0"
         id="path135"
         d="m 836,940 c 0,4.4 -3.6,8 -8,8 l 0,0 c -4.4,0 -8,-3.6 -8,-8 v -20 c 0,-4.4 3.6,-8 8,-8 l 0,0 c 4.4,0 8,3.6 8,8 v 20 z"
         stroke-miterlimit="10" />
      <g
         id="g137">
        <line
           style="fill:none;stroke:#333333;stroke-width:7.24145842;stroke-linecap:round;stroke-linejoin:round;stroke-miterlimit:10"
           id="line139"
           y2="899"
           x2="637"
           y1="912"
           x1="637"
           stroke-miterlimit="10" />
        <path
           style="fill:#eefaf9;stroke:#333333;stroke-width:5.43109369;stroke-linecap:round;stroke-linejoin:round;stroke-miterlimit:10"
           inkscape:connector-curvature="0"
           id="path141"
           d="m 645,940 c 0,4.4 -3.6,8 -8,8 l 0,0 c -4.4,0 -8,-3.6 -8,-8 v -20 c 0,-4.4 3.6,-8 8,-8 l 0,0 c 4.4,0 8,3.6 8,8 v 20 z"
           stroke-miterlimit="10" />
      </g>
      <g
         id="g143">
        <line
           style="fill:none;stroke:#333333;stroke-width:7.24145842;stroke-linecap:round;stroke-linejoin:round;stroke-miterlimit:10"
           id="line145"
           y2="899"
           x2="732"
           y1="912"
           x1="732"
           stroke-miterlimit="10" />
        <path
           style="fill:#eefaf9;stroke:#333333;stroke-width:5.43109369;stroke-linecap:round;stroke-linejoin:round;stroke-miterlimit:10"
           inkscape:connector-curvature="0"
           id="path147"
           d="m 740,940 c 0,4.4 -3.6,8 -8,8 l 0,0 c -4.4,0 -8,-3.6 -8,-8 v -20 c 0,-4.4 3.6,-8 8,-8 l 0,0 c 4.4,0 8,3.6 8,8 v 20 z"
           stroke-miterlimit="10" />
      </g>
    </g>
    <rect
       style="fill:#eefaf9;stroke:#333333;stroke-width:8;stroke-linecap:round;stroke-linejoin:round;stroke-miterlimit:10"
       id="rect149"
       height="23.199747"
       width="335.84396"
       stroke-miterlimit="10"
       y="582.26453"
       x="86.641838" />
    <g
       id="g155"
       transform="matrix(1.1047499,0,0,1.1047499,-501.08511,-387.7059)">
      <path
         style="fill:#eefaf9;stroke:#333333;stroke-width:5.43109369;stroke-linecap:round;stroke-linejoin:round;stroke-miterlimit:10"
         inkscape:connector-curvature="0"
         id="path157"
         d="m 836,1156 c 0,4.4 -3.6,8 -8,8 l 0,0 c -4.4,0 -8,-3.6 -8,-8 v -20 c 0,-4.4 3.6,-8 8,-8 l 0,0 c 4.4,0 8,3.6 8,8 v 20 z"
         stroke-miterlimit="10" />
      <path
         style="fill:#eefaf9;stroke:#333333;stroke-width:5.43109369;stroke-linecap:round;stroke-linejoin:round;stroke-miterlimit:10"
         inkscape:connector-curvature="0"
         id="path159"
         d="m 549,1156 c 0,4.4 -3.6,8 -8,8 l 0,0 c -4.4,0 -8,-3.6 -8,-8 v -20 c 0,-4.4 3.6,-8 8,-8 l 0,0 c 4.4,0 8,3.6 8,8 v 20 z"
         stroke-miterlimit="10" />
      <g
         id="g161">
        <line
           style="fill:none;stroke:#333333;stroke-width:7.24145842;stroke-linecap:round;stroke-linejoin:round;stroke-miterlimit:10"
           id="line163"
           y2="1177"
           x2="732"
           y1="1164"
           x1="732"
           stroke-miterlimit="10" />
        <path
           style="fill:#eefaf9;stroke:#333333;stroke-width:5.43109369;stroke-linecap:round;stroke-linejoin:round;stroke-miterlimit:10"
           inkscape:connector-curvature="0"
           id="path165"
           d="m 740,1156 c 0,4.4 -3.6,8 -8,8 l 0,0 c -4.4,0 -8,-3.6 -8,-8 v -20 c 0,-4.4 3.6,-8 8,-8 l 0,0 c 4.4,0 8,3.6 8,8 v 20 z"
           stroke-miterlimit="10" />
      </g>
      <g
         id="g167">
        <line
           style="fill:none;stroke:#333333;stroke-width:7.24145842;stroke-linecap:round;stroke-linejoin:round;stroke-miterlimit:10"
           id="line169"
           y2="1177"
           x2="637"
           y1="1164"
           x1="637"
           stroke-miterlimit="10" />
        <path
           style="fill:#eefaf9;stroke:#333333;stroke-width:5.43109369;stroke-linecap:round;stroke-linejoin:round;stroke-miterlimit:10"
           inkscape:connector-curvature="0"
           id="path171"
           d="m 645,1156 c 0,4.4 -3.6,8 -8,8 l 0,0 c -4.4,0 -8,-3.6 -8,-8 v -20 c 0,-4.4 3.6,-8 8,-8 l 0,0 c 4.4,0 8,3.6 8,8 v 20 z"
           stroke-miterlimit="10" />
      </g>
    </g>
    <rect
       style="fill:#eefaf9;stroke:#333333;stroke-width:8;stroke-linecap:round;stroke-linejoin:round;stroke-miterlimit:10"
       id="rect173"
       height="23.199747"
       width="335.84396"
       stroke-miterlimit="10"
       y="912.58472"
       x="87.74659" />
    <g
       id="Floor-Tom-Legs"
       transform="matrix(1.1047499,0,0,1.1047499,-501.08511,-387.7059)">
      <g
         id="g178">
        <path
           style="fill:#eefaf9;stroke:#333333;stroke-width:5.43109369;stroke-linecap:round;stroke-linejoin:round;stroke-miterlimit:10"
           inkscape:connector-curvature="0"
           id="path180"
           d="m 526.3,1122.8 -11.3,52.7 v 76.2 c 0,3.1 2.4,5.7 5.5,5.7 3.1,0 5.5,-2.5 5.5,-5.7 v -75 l 11.3,-52.7 11.2,-52.7 3.6,-16.6 -10.9,-2.2 -14.9,70.3 z"
           stroke-miterlimit="10" />
        <path
           style="fill:#5c5c5c;stroke:#333333;stroke-width:5.43109369;stroke-linecap:round;stroke-linejoin:round;stroke-miterlimit:10"
           inkscape:connector-curvature="0"
           id="path182"
           d="m 533.5,1245 0,0 -6.8,-11 h -11 l -6.6,11 h 0 c -1.3,2 -2,4.6 -2,7.3 0,7.8 6.3,14.2 14.2,14.2 7.9,0 14.2,-6.6 14.2,-14.4 -0.2,-2.5 -0.8,-5.1 -2,-7.1 z"
           stroke-miterlimit="10" />
        <path
           style="fill:#eefaf9;stroke:#333333;stroke-width:5.43109369;stroke-linecap:round;stroke-linejoin:round;stroke-miterlimit:10"
           inkscape:connector-curvature="0"
           id="path184"
           d="m 553,1014 c 0,-5.6 -4.9,-10.2 -10.5,-10.2 -5.6,0 -10.5,4.6 -10.5,10.2 v 58 h 21 v -58 z"
           stroke-miterlimit="10" />
      </g>
      <g
         id="g186">
        <path
           style="fill:#eefaf9;stroke:#333333;stroke-width:5.43109369;stroke-linecap:round;stroke-linejoin:round;stroke-miterlimit:10"
           inkscape:connector-curvature="0"
           id="path188"
           d="m 681,1251.7 c 0,3.1 2.4,5.7 5.5,5.7 3.1,0 5.5,-2.5 5.5,-5.7 V 1070 h -11 v 181.7 z"
           stroke-miterlimit="10" />
        <path
           style="fill:#5c5c5c;stroke:#333333;stroke-width:5.43109369;stroke-linecap:round;stroke-linejoin:round;stroke-miterlimit:10"
           inkscape:connector-curvature="0"
           id="path190"
           d="m 699.5,1245 0,0 -6.8,-11 h -11 l -6.6,11 h 0 c -1.3,2 -2,4.6 -2,7.3 0,7.8 6.3,14.2 14.2,14.2 7.9,0 14.2,-6.6 14.2,-14.4 -0.2,-2.5 -0.8,-5.1 -2,-7.1 z"
           stroke-miterlimit="10" />
        <path
           style="fill:#eefaf9;stroke:#333333;stroke-width:5.43109369;stroke-linecap:round;stroke-linejoin:round;stroke-miterlimit:10"
           inkscape:connector-curvature="0"
           id="path192"
           d="m 697,1014 c 0,-5.6 -4.9,-10.2 -10.5,-10.2 -5.6,0 -10.5,4.6 -10.5,10.2 v 58 h 21 v -58 z"
           stroke-miterlimit="10" />
      </g>
      <g
         id="g194">
        <path
           style="fill:#eefaf9;stroke:#333333;stroke-width:5.43109369;stroke-linecap:round;stroke-linejoin:round;stroke-miterlimit:10"
           inkscape:connector-curvature="0"
           id="path196"
           d="m 843.6,1122.8 -14.2,-70.5 -10.7,2.2 3.4,16.6 10.5,52.7 10.4,52.7 v 75 c 0,3.1 2.4,5.7 5.5,5.7 3.1,0 5.5,-2.5 5.5,-5.7 v -76.2 l -10.4,-52.5 z"
           stroke-miterlimit="10" />
        <path
           style="fill:#5c5c5c;stroke:#333333;stroke-width:5.43109369;stroke-linecap:round;stroke-linejoin:round;stroke-miterlimit:10"
           inkscape:connector-curvature="0"
           id="path198"
           d="m 861.5,1245 0,0 -6.8,-11 h -11 l -6.6,11 h 0 c -1.3,2 -2,4.6 -2,7.3 0,7.8 6.3,14.2 14.2,14.2 7.9,0 14.2,-6.6 14.2,-14.4 -0.2,-2.5 -0.8,-5.1 -2,-7.1 z"
           stroke-miterlimit="10" />
        <path
           style="fill:#eefaf9;stroke:#333333;stroke-width:5.43109369;stroke-linecap:round;stroke-linejoin:round;stroke-miterlimit:10"
           inkscape:connector-curvature="0"
           id="path200"
           d="m 816,1014 c 0,-5.6 4.9,-10.2 10.5,-10.2 5.6,0 10.5,4.6 10.5,10.2 v 58 h -21 v -58 z"
           stroke-miterlimit="10" />
      </g>
    </g>
  </g>
</svg>
