<?xml version="1.0" encoding="UTF-8" standalone="no"?>
<!-- Generator: Adobe Illustrator 17.1.0, SVG Export Plug-In . SVG Version: 6.00 Build 0)  -->

<svg
   xmlns:dc="http://purl.org/dc/elements/1.1/"
   xmlns:cc="http://creativecommons.org/ns#"
   xmlns:rdf="http://www.w3.org/1999/02/22-rdf-syntax-ns#"
   xmlns:svg="http://www.w3.org/2000/svg"
   xmlns="http://www.w3.org/2000/svg"
   xmlns:sodipodi="http://sodipodi.sourceforge.net/DTD/sodipodi-0.dtd"
   xmlns:inkscape="http://www.inkscape.org/namespaces/inkscape"
   version="1.1"
   id="Capa_1"
   x="0px"
   y="0px"
   viewBox="0 0 48 48"
   xml:space="preserve"
   inkscape:version="0.48.4 r9939"
   width="100%"
   height="100%"
   sodipodi:docname="cajon.svg"><metadata
     id="metadata39"><rdf:RDF><cc:Work
         rdf:about=""><dc:format>image/svg+xml</dc:format><dc:type
           rdf:resource="http://purl.org/dc/dcmitype/StillImage" /></cc:Work></rdf:RDF></metadata><defs
     id="defs37" /><sodipodi:namedview
     pagecolor="#ffffff"
     bordercolor="#666666"
     borderopacity="1"
     objecttolerance="10"
     gridtolerance="10"
     guidetolerance="10"
     inkscape:pageopacity="0"
     inkscape:pageshadow="2"
     inkscape:window-width="1829"
     inkscape:window-height="946"
     id="namedview35"
     showgrid="false"
     inkscape:zoom="3.3481576"
     inkscape:cx="-55.543428"
     inkscape:cy="43.386336"
     inkscape:window-x="0"
     inkscape:window-y="25"
     inkscape:window-maximized="0"
     inkscape:current-layer="Capa_1" /><g
     id="g5"
     transform="translate(0,-151.366)" /><g
     id="g7"
     transform="translate(0,-151.366)" /><g
     id="g9"
     transform="translate(0,-151.366)" /><g
     id="g11"
     transform="translate(0,-151.366)" /><g
     id="g13"
     transform="translate(0,-151.366)" /><g
     id="g15"
     transform="translate(0,-151.366)" /><g
     id="g17"
     transform="translate(0,-151.366)" /><g
     id="g19"
     transform="translate(0,-151.366)" /><g
     id="g21"
     transform="translate(0,-151.366)" /><g
     id="g23"
     transform="translate(0,-151.366)" /><g
     id="g25"
     transform="translate(0,-151.366)" /><g
     id="g27"
     transform="translate(0,-151.366)" /><g
     id="g29"
     transform="translate(0,-151.366)" /><g
     id="g31"
     transform="translate(0,-151.366)" /><g
     id="g33"
     transform="translate(0,-151.366)" /><rect
     style="fill:#222222;fill-opacity:1;stroke:none"
     id="rect3885"
     width="2.9243081"
     height="2.691335"
     x="12.834296"
     y="40.250973"
     rx="0.40070716"
     ry="0.40070716" /><rect
     ry="0.40070716"
     rx="0.40070716"
     y="40.250973"
     x="32.264534"
     height="2.691335"
     width="2.9243081"
     id="rect3903"
     style="fill:#222222;fill-opacity:1;stroke:none" /><rect
     style="fill:#e4ca84;fill-opacity:1;stroke:#222222;stroke-width:0.45056382;stroke-linecap:round;stroke-linejoin:round;stroke-miterlimit:4;stroke-opacity:1;stroke-dasharray:none"
     id="rect3115"
     width="27.549437"
     height="35.549435"
     x="10.225282"
     y="5.2252836"
     rx="0.88127244"
     ry="0.8522085" /><path
     sodipodi:type="arc"
     style="fill:#805a0f;fill-opacity:1;stroke:none"
     id="path3887"
     sodipodi:cx="173.52827"
     sodipodi:cy="345.93854"
     sodipodi:rx="2.9867172"
     sodipodi:ry="2.9867172"
     d="m 176.51499,345.93854 a 2.9867172,2.9867172 0 1 1 -5.97343,0 2.9867172,2.9867172 0 1 1 5.97343,0 z"
     transform="matrix(0.28759934,0,0,0.28759934,-36.77533,-63.503673)" /><path
     transform="matrix(0.28759934,0,0,0.28759934,-36.77533,-70.277381)"
     d="m 176.51499,345.93854 a 2.9867172,2.9867172 0 1 1 -5.97343,0 2.9867172,2.9867172 0 1 1 5.97343,0 z"
     sodipodi:ry="2.9867172"
     sodipodi:rx="2.9867172"
     sodipodi:cy="345.93854"
     sodipodi:cx="173.52827"
     id="path3889"
     style="fill:#805a0f;fill-opacity:1;stroke:none"
     sodipodi:type="arc" /><path
     transform="matrix(0.28759934,0,0,0.28759934,-36.77533,-77.029369)"
     d="m 176.51499,345.93854 a 2.9867172,2.9867172 0 1 1 -5.97343,0 2.9867172,2.9867172 0 1 1 5.97343,0 z"
     sodipodi:ry="2.9867172"
     sodipodi:rx="2.9867172"
     sodipodi:cy="345.93854"
     sodipodi:cx="173.52827"
     id="path3893"
     style="fill:#805a0f;fill-opacity:1;stroke:none"
     sodipodi:type="arc" /><path
     sodipodi:type="arc"
     style="fill:#805a0f;fill-opacity:1;stroke:none"
     id="path3895"
     sodipodi:cx="173.52827"
     sodipodi:cy="345.93854"
     sodipodi:rx="2.9867172"
     sodipodi:ry="2.9867172"
     d="m 176.51499,345.93854 a 2.9867172,2.9867172 0 1 1 -5.97343,0 2.9867172,2.9867172 0 1 1 5.97343,0 z"
     transform="matrix(0.28759934,0,0,0.28759934,-36.77533,-83.75971)" /><path
     sodipodi:type="arc"
     style="fill:#805a0f;fill-opacity:1;stroke:none"
     id="path3899"
     sodipodi:cx="173.52827"
     sodipodi:cy="345.93854"
     sodipodi:rx="2.9867172"
     sodipodi:ry="2.9867172"
     d="m 176.51499,345.93854 a 2.9867172,2.9867172 0 1 1 -5.97343,0 2.9867172,2.9867172 0 1 1 5.97343,0 z"
     transform="matrix(0.28759934,0,0,0.28759934,-36.77533,-90.463239)" /><path
     transform="matrix(0.28759934,0,0,0.28759934,-29.518849,-90.463673)"
     d="m 176.51499,345.93854 a 2.9867172,2.9867172 0 1 1 -5.97343,0 2.9867172,2.9867172 0 1 1 5.97343,0 z"
     sodipodi:ry="2.9867172"
     sodipodi:rx="2.9867172"
     sodipodi:cy="345.93854"
     sodipodi:cx="173.52827"
     id="path3905"
     style="fill:#805a0f;fill-opacity:1;stroke:none"
     sodipodi:type="arc" /><path
     sodipodi:type="arc"
     style="fill:#805a0f;fill-opacity:1;stroke:none"
     id="path3907"
     sodipodi:cx="173.52827"
     sodipodi:cy="345.93854"
     sodipodi:rx="2.9867172"
     sodipodi:ry="2.9867172"
     d="m 176.51499,345.93854 a 2.9867172,2.9867172 0 1 1 -5.97343,0 2.9867172,2.9867172 0 1 1 5.97343,0 z"
     transform="matrix(0.28759934,0,0,0.28759934,-22.2846,-90.463673)" /><path
     transform="matrix(0.28759934,0,0,0.28759934,-15.037904,-90.463673)"
     d="m 176.51499,345.93854 a 2.9867172,2.9867172 0 1 1 -5.97343,0 2.9867172,2.9867172 0 1 1 5.97343,0 z"
     sodipodi:ry="2.9867172"
     sodipodi:rx="2.9867172"
     sodipodi:cy="345.93854"
     sodipodi:cx="173.52827"
     id="path3909"
     style="fill:#805a0f;fill-opacity:1;stroke:none"
     sodipodi:type="arc" /><path
     transform="matrix(0.28759934,0,0,0.28759934,-15.038322,-63.503673)"
     d="m 176.51499,345.93854 a 2.9867172,2.9867172 0 1 1 -5.97343,0 2.9867172,2.9867172 0 1 1 5.97343,0 z"
     sodipodi:ry="2.9867172"
     sodipodi:rx="2.9867172"
     sodipodi:cy="345.93854"
     sodipodi:cx="173.52827"
     id="path3915"
     style="fill:#805a0f;fill-opacity:1;stroke:none"
     sodipodi:type="arc" /><path
     sodipodi:type="arc"
     style="fill:#805a0f;fill-opacity:1;stroke:none"
     id="path3917"
     sodipodi:cx="173.52827"
     sodipodi:cy="345.93854"
     sodipodi:rx="2.9867172"
     sodipodi:ry="2.9867172"
     d="m 176.51499,345.93854 a 2.9867172,2.9867172 0 1 1 -5.97343,0 2.9867172,2.9867172 0 1 1 5.97343,0 z"
     transform="matrix(0.28759934,0,0,0.28759934,-15.038322,-70.277381)" /><path
     sodipodi:type="arc"
     style="fill:#805a0f;fill-opacity:1;stroke:none"
     id="path3919"
     sodipodi:cx="173.52827"
     sodipodi:cy="345.93854"
     sodipodi:rx="2.9867172"
     sodipodi:ry="2.9867172"
     d="m 176.51499,345.93854 a 2.9867172,2.9867172 0 1 1 -5.97343,0 2.9867172,2.9867172 0 1 1 5.97343,0 z"
     transform="matrix(0.28759934,0,0,0.28759934,-15.038322,-77.029369)" /><path
     transform="matrix(0.28759934,0,0,0.28759934,-15.038322,-83.75971)"
     d="m 176.51499,345.93854 a 2.9867172,2.9867172 0 1 1 -5.97343,0 2.9867172,2.9867172 0 1 1 5.97343,0 z"
     sodipodi:ry="2.9867172"
     sodipodi:rx="2.9867172"
     sodipodi:cy="345.93854"
     sodipodi:cx="173.52827"
     id="path3921"
     style="fill:#805a0f;fill-opacity:1;stroke:none"
     sodipodi:type="arc" /><path
     transform="matrix(1.339263,0,0,1.339263,-208.4,-432.30268)"
     d="m 176.51499,345.93854 a 2.9867172,2.9867172 0 1 1 -5.97343,0 2.9867172,2.9867172 0 1 1 5.97343,0 z"
     sodipodi:ry="2.9867172"
     sodipodi:rx="2.9867172"
     sodipodi:cy="345.93854"
     sodipodi:cx="173.52827"
     id="path3923"
     style="fill:#a07829;fill-opacity:1;stroke:none"
     sodipodi:type="arc" /></svg>