<?xml version="1.0" encoding="UTF-8" standalone="no"?>
<!-- Created with Inkscape (http://www.inkscape.org/) -->

<svg
   xmlns:dc="http://purl.org/dc/elements/1.1/"
   xmlns:cc="http://creativecommons.org/ns#"
   xmlns:rdf="http://www.w3.org/1999/02/22-rdf-syntax-ns#"
   xmlns:svg="http://www.w3.org/2000/svg"
   xmlns="http://www.w3.org/2000/svg"
   xmlns:sodipodi="http://sodipodi.sourceforge.net/DTD/sodipodi-0.dtd"
   xmlns:inkscape="http://www.inkscape.org/namespaces/inkscape"
   width="512"
   height="512"
   id="svg5750"
   version="1.1"
   inkscape:version="0.48.4 r9939"
   sodipodi:docname="crash.svg">
  <defs
     id="defs5752" />
  <sodipodi:namedview
     id="base"
     pagecolor="#ffffff"
     bordercolor="#666666"
     borderopacity="1.0"
     inkscape:pageopacity="0.0"
     inkscape:pageshadow="2"
     inkscape:zoom="0.49497475"
     inkscape:cx="532.61852"
     inkscape:cy="204.32054"
     inkscape:document-units="px"
     inkscape:current-layer="layer1"
     showgrid="false"
     inkscape:window-width="1287"
     inkscape:window-height="837"
     inkscape:window-x="26"
     inkscape:window-y="51"
     inkscape:window-maximized="0" />
  <metadata
     id="metadata5755">
    <rdf:RDF>
      <cc:Work
         rdf:about="">
        <dc:format>image/svg+xml</dc:format>
        <dc:type
           rdf:resource="http://purl.org/dc/dcmitype/StillImage" />
        <dc:title></dc:title>
      </cc:Work>
    </rdf:RDF>
  </metadata>
  <g
     inkscape:label="Layer 1"
     inkscape:groupmode="layer"
     id="layer1"
     transform="translate(0,-540.36218)">
    <g
       id="Crash-Stand-Top"
       transform="matrix(1.456156,0,0,1.456156,-547.16206,-247.63283)">
      <path
         style="fill:#eefaf9;stroke:#333333;stroke-width:4.12043762;stroke-linecap:round;stroke-linejoin:round;stroke-miterlimit:10"
         inkscape:connector-curvature="0"
         id="path511"
         d="m 558,649.3 20.3,-55.8 c 1.1,-2.9 -0.3,-6.1 -3.2,-7.2 -2.9,-1.1 -6,0.5 -7.1,3.4 l -20.3,55.8 10.3,3.8 z"
         stroke-miterlimit="10" />
      <path
         style="fill:#eefaf9;stroke:#333333;stroke-width:4.12043762;stroke-linecap:round;stroke-linejoin:round;stroke-miterlimit:10"
         inkscape:connector-curvature="0"
         id="path513"
         d="m 575.4,610.2 c 1.6,-4.3 -0.6,-9 -4.9,-10.6 l -0.5,-0.2 c -4.3,-1.6 -9,0.6 -10.6,4.9 l -65.2,179.3 16,5.8 65.2,-179.2 z"
         stroke-miterlimit="10" />
      <path
         style="fill:#5c5c5c;stroke:#333333;stroke-width:4.12043762;stroke-linecap:round;stroke-linejoin:round;stroke-miterlimit:10"
         inkscape:connector-curvature="0"
         id="path515"
         d="m 539.1,645.7 c 0,0.1 -0.1,0.2 -0.1,0.2 l -0.2,0.5 c -1.6,4.3 0.7,9 4.9,10.6 l 9.9,3.6 c 4.3,1.6 9,-0.7 10.6,-4.9 l 0.2,-0.5 c 0,-0.1 0,-0.2 0.1,-0.2 l -25.4,-9.3 z"
         stroke-miterlimit="10" />
      <path
         style="fill:#5c5c5c;stroke:#333333;stroke-width:4.12043762;stroke-linecap:round;stroke-linejoin:round;stroke-miterlimit:10"
         inkscape:connector-curvature="0"
         id="path517"
         d="m 575.7,623.9 c 0,-0.1 0.1,-0.2 0.1,-0.2 l 0.2,-0.5 c 1.6,-4.3 -0.6,-9 -4.9,-10.6 l -9.9,-3.6 c -4.3,-1.6 -9,0.6 -10.6,4.9 l -0.2,0.5 c 0,0.1 0,0.2 -0.1,0.2 l 25.4,9.3 z"
         stroke-miterlimit="10" />
      <g
         id="Crash-Cymbol">
        <path
           style="fill:#fde74c;stroke:#333333;stroke-width:4.12043762;stroke-linecap:round;stroke-linejoin:round;stroke-miterlimit:10"
           inkscape:connector-curvature="0"
           id="path520"
           d="m 691.9,684.6 -48.7,-18.7 c -33.9,-13 -46.9,-22.8 -54.8,-31.5 -3.3,-3.4 -9.8,-9.5 -16.9,-12.1 -2.2,-0.8 -8.7,-3.2 -8.7,-3.2 0,0 0,0 -0.1,0 -0.1,0 -0.1,0 -0.1,0 0,0 -6.6,-2.4 -8.7,-3.2 -7.1,-2.6 -16.1,-2.1 -20.7,-1.6 -11.7,1.5 -28,0.7 -62.3,-11.1 l -49.3,-17 c -5.4,-2 -10.6,-0.3 -12.1,3.9 l -0.1,0.1 c -1.5,4.2 1.1,8.6 6.6,10.6 l 135.4,49.3 0.1,0 0.1,0 135.4,49.3 c 5.4,2 10.3,0.3 11.9,-3.9 l 0.1,-0.1 c 1.2,-4.2 -1.7,-8.8 -7.1,-10.8 z"
           stroke-miterlimit="10" />
        <line
           style="fill:none;stroke:#fef5b7;stroke-width:2.74695849;stroke-linecap:round;stroke-linejoin:round;stroke-miterlimit:10"
           id="line522"
           y2="620.79999"
           x2="546.59998"
           y1="630.09998"
           x1="572.29999"
           stroke-miterlimit="10" />
      </g>
    </g>
    <rect
       x="170.72285"
       y="898.36194"
       stroke-miterlimit="10"
       width="24.754652"
       height="136.95856"
       id="rect525"
       style="fill:#eefaf9;stroke:#333333;stroke-width:6;stroke-linecap:round;stroke-linejoin:round;stroke-miterlimit:10" />
    <g
       id="g557"
       transform="matrix(1.456156,0,0,1.456156,-547.16206,-247.63283)">
      <path
         stroke-miterlimit="10"
         d="m 488.4,786.8 c 0,-7.5 6,-13.5 13.5,-13.5 7.5,0 13.5,6 13.5,13.5 0,7.5 -6,13.5 -13.5,13.5 -7.5,0 -13.5,-6.1 -13.5,-13.5 z"
         id="path559"
         inkscape:connector-curvature="0"
         style="fill:#eefaf9;stroke:#333333;stroke-width:4.12043762;stroke-linecap:round;stroke-linejoin:round;stroke-miterlimit:10" />
      <path
         d="m 504.3,783.5 c -1.8,-1.3 -4.3,-0.9 -5.6,0.9 -1.3,1.8 -0.9,4.3 0.9,5.6 1.8,1.3 4.3,0.9 5.6,-0.9 1.3,-1.8 0.9,-4.3 -0.9,-5.6 z"
         id="path561"
         inkscape:connector-curvature="0"
         style="fill:#333333" />
    </g>
  </g>
</svg>
