<?xml version="1.0" encoding="UTF-8" standalone="no"?>
<!-- Created with Inkscape (http://www.inkscape.org/) -->

<svg
   xmlns:dc="http://purl.org/dc/elements/1.1/"
   xmlns:cc="http://creativecommons.org/ns#"
   xmlns:rdf="http://www.w3.org/1999/02/22-rdf-syntax-ns#"
   xmlns:svg="http://www.w3.org/2000/svg"
   xmlns="http://www.w3.org/2000/svg"
   xmlns:sodipodi="http://sodipodi.sourceforge.net/DTD/sodipodi-0.dtd"
   xmlns:inkscape="http://www.inkscape.org/namespaces/inkscape"
   width="512"
   height="512"
   id="svg5542"
   version="1.1"
   inkscape:version="0.48.4 r9939"
   sodipodi:docname="djembe.svg">
  <defs
     id="defs5544" />
  <sodipodi:namedview
     id="base"
     pagecolor="#ffffff"
     bordercolor="#666666"
     borderopacity="1.0"
     inkscape:pageopacity="0.0"
     inkscape:pageshadow="2"
     inkscape:zoom="0.34999999"
     inkscape:cx="-329.54565"
     inkscape:cy="-54.739493"
     inkscape:document-units="px"
     inkscape:current-layer="layer1"
     showgrid="false"
     inkscape:window-width="1920"
     inkscape:window-height="1028"
     inkscape:window-x="0"
     inkscape:window-y="25"
     inkscape:window-maximized="1" />
  <metadata
     id="metadata5547">
    <rdf:RDF>
      <cc:Work
         rdf:about="">
        <dc:format>image/svg+xml</dc:format>
        <dc:type
           rdf:resource="http://purl.org/dc/dcmitype/StillImage" />
        <dc:title />
      </cc:Work>
    </rdf:RDF>
  </metadata>
  <g
     inkscape:label="Layer 1"
     inkscape:groupmode="layer"
     id="layer1"
     transform="translate(0,-540.36218)">
    <path
       style="fill:#caa15f;fill-opacity:1;stroke:#222222;stroke-width:5.57077646;stroke-linecap:round;stroke-linejoin:round;stroke-miterlimit:10;stroke-opacity:1;stroke-dasharray:none"
       d="m 125.5624,579.98447 264.84817,0 c -20.47632,151.38845 -40.46668,191.37167 -82.22439,254.85876 l -97.12381,0 C 141.49788,768.60571 130.85841,638.53736 125.5624,579.98447 z"
       id="rect125"
       inkscape:connector-curvature="0"
       sodipodi:nodetypes="ccccc" />
    <path
       style="fill:#fee5b9;fill-opacity:1;stroke:#222222;stroke-width:6.01085901;stroke-linecap:round;stroke-linejoin:round;stroke-miterlimit:10;stroke-opacity:1;stroke-dasharray:none"
       d="m 145.74119,552.5419 224.88976,0 c 10.80398,4.83904 17.83363,12.42759 20.55851,21.121 1.3964,4.45506 0.58497,11.20208 1.60562,14.6522 l -271.09015,0 c 1.42015,-3.91139 -0.0248,-10.85514 2.45436,-15.58501 4.48441,-8.55692 12.07148,-15.72836 21.58191,-20.18819 z"
       id="rect149"
       inkscape:connector-curvature="0"
       sodipodi:nodetypes="ccsccsc" />
    <path
       style="fill:none;stroke:#222222;stroke-width:5.49570894;stroke-linecap:butt;stroke-linejoin:miter;stroke-miterlimit:4;stroke-opacity:1;stroke-dasharray:none"
       d="m 125.69471,573.61224 c 22.20601,1.04088 55.86201,0.69391 71.12864,0 15.26666,-0.69394 94.02862,2.42876 100.968,1.38785 6.93935,-1.04092 54.47412,-2.08179 61.76046,-2.08179 7.28638,0 31.22722,2.08179 31.22722,2.08179"
       id="path3806"
       inkscape:connector-curvature="0" />
    <path
       style="fill:none;stroke:#222222;stroke-width:5.49570894;stroke-linecap:butt;stroke-linejoin:miter;stroke-miterlimit:4;stroke-opacity:1;stroke-dasharray:none"
       d="m 191.05953,811.77495 c 4.17553,-0.85653 10.84857,-5.77255 14.80157,-6.04768 14.16399,-0.98587 27.22659,3.44045 38.35166,3.05681 14.22998,-0.49068 33.36682,1.96275 41.70852,0.49069 8.34167,-1.47207 19.22629,-0.13581 21.18905,-0.13581 1.96275,0 9.90642,9.82815 9.90642,9.82815"
       id="path3808"
       inkscape:connector-curvature="0"
       sodipodi:nodetypes="cssssc" />
    <path
       style="fill:#6b4b13;fill-opacity:1;stroke:#222222;stroke-width:5.41593647;stroke-linecap:round;stroke-linejoin:round;stroke-miterlimit:4;stroke-opacity:1;stroke-dasharray:none"
       d="m 208.92074,834.9338 95.02358,0.11899 c 16.23394,71.05129 26.90159,135.19674 33.00489,195.52571 0,7.3461 -111.13563,19.225 -161.22342,0.4733 5.13432,-32.61071 29.9234,-196.4204 33.19495,-196.11812 z"
       id="rect3810"
       inkscape:connector-curvature="0"
       sodipodi:nodetypes="ccccc" />
    <path
       style="fill:none;stroke:#222222;stroke-width:5.49570894;stroke-linecap:butt;stroke-linejoin:miter;stroke-miterlimit:4;stroke-opacity:1;stroke-dasharray:none"
       d="m 150.29104,566.79001 -7.59482,21.44233 c 0,0 6.24544,43.71809 8.32722,49.96353 2.08183,6.24545 15.26664,72.16956 16.65453,75.63924 1.3879,3.46969 39.55447,95.0695 39.55447,95.0695 l 3.46967,18.04242"
       id="path3813"
       inkscape:connector-curvature="0"
       sodipodi:nodetypes="ccsscc" />
    <path
       style="fill:none;stroke:#222222;stroke-width:5.49570894;stroke-linecap:butt;stroke-linejoin:miter;stroke-miterlimit:4;stroke-opacity:1;stroke-dasharray:none"
       d="m 151.58302,566.76584 c 0,0 -0.13954,16.70178 -0.35928,21.59026 -0.84059,18.69831 5.49045,55.44777 5.49045,55.44777 0,0 17.82085,72.62187 18.80222,78.01945 0.98137,5.39755 32.8761,87.83319 32.8761,87.83319"
       id="path3815"
       inkscape:connector-curvature="0"
       sodipodi:nodetypes="cscsc" />
    <path
       inkscape:connector-curvature="0"
       id="path3817"
       d="m 197.45093,567.46882 -7.86543,6.96076 -4.75068,13.80276 c 0,0 1.09322,43.71809 3.175,49.96353 2.08184,6.24545 15.26665,72.16956 16.65453,75.63924 1.3879,3.46969 21.95025,94.57881 21.95025,94.57881 l -9.67663,22.06368"
       style="fill:none;stroke:#222222;stroke-width:5.49570894;stroke-linecap:butt;stroke-linejoin:miter;stroke-miterlimit:4;stroke-opacity:1;stroke-dasharray:none"
       sodipodi:nodetypes="cccsscc" />
    <path
       sodipodi:nodetypes="cscssc"
       inkscape:connector-curvature="0"
       id="path3819"
       d="m 189.30545,566.15248 c 0,0 3.1726,17.31514 2.95283,22.20362 -0.84056,18.69831 2.66902,55.44777 2.66902,55.44777 0,0 15.3674,72.62187 16.34877,78.01945 0.85766,4.71705 15.81192,68.27163 20.17235,84.22187 0.62906,2.30103 4.63433,23.44076 4.63433,23.44076"
       style="fill:none;stroke:#222222;stroke-width:5.49570894;stroke-linecap:butt;stroke-linejoin:miter;stroke-miterlimit:4;stroke-opacity:1;stroke-dasharray:none" />
    <path
       sodipodi:nodetypes="ccsscc"
       style="fill:none;stroke:#222222;stroke-width:5.49570894;stroke-linecap:butt;stroke-linejoin:miter;stroke-miterlimit:4;stroke-opacity:1;stroke-dasharray:none"
       d="m 247.9485,568.63835 -12.30808,19.59399 c 0,0 -1.1077,53.04117 0.97412,59.28661 2.08183,6.24546 5.99286,74.99039 7.38076,78.46008 1.38789,3.4697 10.3791,82.08793 10.3791,82.08793 l -13.36564,21.53931"
       id="path3821"
       inkscape:connector-curvature="0" />
    <path
       inkscape:connector-curvature="0"
       id="path3823"
       d="m 240.74563,567.62122 6.0116,20.61112 c 0,0 -5.40137,62.45736 -3.31956,68.7028 2.08182,6.24545 1.30944,65.5742 2.69732,69.04389 0.66773,1.66932 5.52711,20.73355 9.31003,40.06831 4.07988,20.85249 4.29331,42.01962 4.29331,42.01962 l 3.73287,23.06216"
       style="fill:none;stroke:#222222;stroke-width:5.49570894;stroke-linecap:butt;stroke-linejoin:miter;stroke-miterlimit:4;stroke-opacity:1;stroke-dasharray:none"
       sodipodi:nodetypes="ccssscc" />
    <path
       sodipodi:type="arc"
       style="fill:#222222;fill-opacity:1;stroke:none"
       id="path3825"
       sodipodi:cx="177.88155"
       sodipodi:cy="283.29514"
       sodipodi:rx="1.3573925"
       sodipodi:ry="1.294258"
       d="m 179.23894,283.29514 a 1.3573925,1.294258 0 1 1 -2.71479,0 1.3573925,1.294258 0 1 1 2.71479,0 z"
       transform="matrix(6.5464115,0,0,7.0596077,-951.63347,-1165.8986)" />
    <path
       transform="matrix(6.2978165,0,0,6.7915243,-881.09577,-1090.2988)"
       d="m 179.23894,283.29514 a 1.3573925,1.294258 0 1 1 -2.71479,0 1.3573925,1.294258 0 1 1 2.71479,0 z"
       sodipodi:ry="1.294258"
       sodipodi:rx="1.3573925"
       sodipodi:cy="283.29514"
       sodipodi:cx="177.88155"
       id="path3827"
       style="fill:#222222;fill-opacity:1;stroke:none"
       sodipodi:type="arc" />
    <path
       sodipodi:type="arc"
       style="fill:#222222;fill-opacity:1;stroke:none"
       id="path3829"
       sodipodi:cx="177.88155"
       sodipodi:cy="283.29514"
       sodipodi:rx="1.3573925"
       sodipodi:ry="1.294258"
       d="m 179.23894,283.29514 a 1.3573925,1.294258 0 1 1 -2.71479,0 1.3573925,1.294258 0 1 1 2.71479,0 z"
       transform="matrix(6.2978165,0,0,6.7915243,-856.46097,-1090.2988)" />
    <path
       inkscape:connector-curvature="0"
       id="path3831"
       d="m 291.89997,567.76115 c 0,0 -0.23961,12.53553 -0.26021,21.0784 -0.0193,8.54285 -2.84225,-0.45734 0.0325,36.07709 0.5164,6.56303 -1.6804,97.5927 -3.06828,101.06239 -1.38788,3.4697 -7.71327,82.08793 -7.71327,82.08793 l -16.43752,25.86162"
       style="fill:none;stroke:#222222;stroke-width:5.49570894;stroke-linecap:butt;stroke-linejoin:miter;stroke-miterlimit:4;stroke-opacity:1;stroke-dasharray:none"
       sodipodi:nodetypes="czsscc" />
    <path
       inkscape:connector-curvature="0"
       id="path3833"
       d="m 349.28577,566.1228 0.36234,21.76256 c 0,0 -2.24296,44.06507 -4.32477,50.31051 -2.08181,6.24545 -12.49085,67.31201 -13.87874,70.78166 -0.49828,1.2456 -0.19099,18.0721 -5.21357,35.73448 -1.57498,5.53858 -5.86407,11.15936 -8.04904,16.40766 -10.25633,24.63569 -13.36389,49.07056 -13.36389,49.07056 L 294.45,830.7485"
       style="fill:none;stroke:#222222;stroke-width:5.49570894;stroke-linecap:butt;stroke-linejoin:miter;stroke-miterlimit:4;stroke-opacity:1;stroke-dasharray:none"
       sodipodi:nodetypes="ccsssscc" />
    <path
       sodipodi:nodetypes="ccsscc"
       style="fill:none;stroke:#222222;stroke-width:5.49570894;stroke-linecap:butt;stroke-linejoin:miter;stroke-miterlimit:4;stroke-opacity:1;stroke-dasharray:none"
       d="m 294.20694,568.10812 7.80681,20.12422 c 0,0 -0.24898,23.59389 -2.33077,29.83931 -2.08184,6.24546 -6.24542,104.43769 -7.63329,107.90738 -1.38788,3.4697 -5.28452,82.08793 -5.28452,82.08793 l 5.98763,22.98125"
       id="path3835"
       inkscape:connector-curvature="0" />
    <path
       transform="matrix(6.2978165,0,0,6.7915243,-827.51036,-1090.2988)"
       d="m 179.23894,283.29514 a 1.3573925,1.294258 0 1 1 -2.71479,0 1.3573925,1.294258 0 1 1 2.71479,0 z"
       sodipodi:ry="1.294258"
       sodipodi:rx="1.3573925"
       sodipodi:cy="283.29514"
       sodipodi:cx="177.88155"
       id="path3837"
       style="fill:#222222;fill-opacity:1;stroke:none"
       sodipodi:type="arc" />
    <path
       sodipodi:nodetypes="ccsssc"
       style="fill:none;stroke:#222222;stroke-width:5.49570894;stroke-linecap:butt;stroke-linejoin:miter;stroke-miterlimit:4;stroke-opacity:1;stroke-dasharray:none"
       d="m 355.79556,566.19983 1.73485,21.68553 c 0,0 -3.83772,33.3926 -5.91951,39.63803 -2.08184,6.24545 -13.22692,77.98446 -14.61479,81.45414 -0.65451,1.63621 -1.85449,30.5041 -11.0073,52.48912 -10.25636,24.63567 -20.4241,48.27218 -20.4241,48.27218"
       id="path3839"
       inkscape:connector-curvature="0" />
    <path
       style="fill:none;stroke:#222222;stroke-width:8;stroke-linecap:butt;stroke-linejoin:miter;stroke-miterlimit:4;stroke-opacity:1;stroke-dasharray:none"
       d="m 176.52416,483.96827 c 21.80502,12.4528 122.69714,17.06893 159.60411,1.01015"
       id="path3790"
       inkscape:connector-curvature="0"
       transform="translate(0,540.36218)"
       sodipodi:nodetypes="cc" />
  </g>
</svg>
