<?xml version="1.0" encoding="UTF-8" standalone="no"?>
<!-- Created with Inkscape (http://www.inkscape.org/) -->

<svg
   xmlns:dc="http://purl.org/dc/elements/1.1/"
   xmlns:cc="http://creativecommons.org/ns#"
   xmlns:rdf="http://www.w3.org/1999/02/22-rdf-syntax-ns#"
   xmlns:svg="http://www.w3.org/2000/svg"
   xmlns="http://www.w3.org/2000/svg"
   xmlns:sodipodi="http://sodipodi.sourceforge.net/DTD/sodipodi-0.dtd"
   xmlns:inkscape="http://www.inkscape.org/namespaces/inkscape"
   width="512"
   height="512"
   id="svg5542"
   version="1.1"
   inkscape:version="0.48.4 r9939"
   sodipodi:docname="snare.svg">
  <defs
     id="defs5544" />
  <sodipodi:namedview
     id="base"
     pagecolor="#ffffff"
     bordercolor="#666666"
     borderopacity="1.0"
     inkscape:pageopacity="0.0"
     inkscape:pageshadow="2"
     inkscape:zoom="0.7"
     inkscape:cx="404.47485"
     inkscape:cy="272.40308"
     inkscape:document-units="px"
     inkscape:current-layer="layer1"
     showgrid="false"
     inkscape:window-width="1072"
     inkscape:window-height="670"
     inkscape:window-x="553"
     inkscape:window-y="183"
     inkscape:window-maximized="0" />
  <metadata
     id="metadata5547">
    <rdf:RDF>
      <cc:Work
         rdf:about="">
        <dc:format>image/svg+xml</dc:format>
        <dc:type
           rdf:resource="http://purl.org/dc/dcmitype/StillImage" />
        <dc:title />
      </cc:Work>
    </rdf:RDF>
  </metadata>
  <g
     inkscape:label="Layer 1"
     inkscape:groupmode="layer"
     id="layer1"
     transform="translate(0,-540.36218)">
    <rect
       x="124.95411"
       y="589.8764"
       stroke-miterlimit="10"
       width="264.46375"
       height="130.45297"
       id="rect10"
       style="fill:#ff572f;stroke:#333333;stroke-width:8;stroke-linecap:round;stroke-linejoin:round;stroke-miterlimit:10;fill-opacity:0.94117647" />
    <g
       id="g14"
       transform="matrix(1.1859361,0,0,1.1859361,-1320.702,-459.67706)">
      <path
         stroke-miterlimit="10"
         d="m 1227,950 c 0,4.4 -3.6,8 -8,8 l 0,0 c -4.4,0 -8,-3.6 -8,-8 v -20 c 0,-4.4 3.6,-8 8,-8 l 0,0 c 4.4,0 8,3.6 8,8 v 20 z"
         id="path16"
         inkscape:connector-curvature="0"
         style="fill:#eefaf9;stroke:#333333;stroke-width:5.05929422;stroke-linecap:round;stroke-linejoin:round;stroke-miterlimit:10" />
      <path
         stroke-miterlimit="10"
         d="m 1450,950 c 0,4.4 -3.6,8 -8,8 l 0,0 c -4.4,0 -8,-3.6 -8,-8 v -20 c 0,-4.4 3.6,-8 8,-8 l 0,0 c 4.4,0 8,3.6 8,8 v 20 z"
         id="path18"
         inkscape:connector-curvature="0"
         style="fill:#eefaf9;stroke:#333333;stroke-width:5.05929422;stroke-linecap:round;stroke-linejoin:round;stroke-miterlimit:10" />
      <g
         id="g20">
        <line
           stroke-miterlimit="10"
           x1="1293"
           y1="971"
           x2="1293"
           y2="958"
           id="line22"
           style="fill:none;stroke:#333333;stroke-width:6.74572611;stroke-linecap:round;stroke-linejoin:round;stroke-miterlimit:10" />
        <line
           stroke-miterlimit="10"
           x1="1293"
           y1="922"
           x2="1293"
           y2="909"
           id="line24"
           style="fill:none;stroke:#333333;stroke-width:6.74572611;stroke-linecap:round;stroke-linejoin:round;stroke-miterlimit:10" />
        <path
           stroke-miterlimit="10"
           d="m 1301,950 c 0,4.4 -3.6,8 -8,8 l 0,0 c -4.4,0 -8,-3.6 -8,-8 v -20 c 0,-4.4 3.6,-8 8,-8 l 0,0 c 4.4,0 8,3.6 8,8 v 20 z"
           id="path26"
           inkscape:connector-curvature="0"
           style="fill:#eefaf9;stroke:#333333;stroke-width:5.05929422;stroke-linecap:round;stroke-linejoin:round;stroke-miterlimit:10" />
      </g>
      <g
         id="g28">
        <line
           stroke-miterlimit="10"
           x1="1368"
           y1="971"
           x2="1368"
           y2="958"
           id="line30"
           style="fill:none;stroke:#333333;stroke-width:6.74572611;stroke-linecap:round;stroke-linejoin:round;stroke-miterlimit:10" />
        <line
           stroke-miterlimit="10"
           x1="1368"
           y1="922"
           x2="1368"
           y2="909"
           id="line32"
           style="fill:none;stroke:#333333;stroke-width:6.74572611;stroke-linecap:round;stroke-linejoin:round;stroke-miterlimit:10" />
        <path
           stroke-miterlimit="10"
           d="m 1376,950 c 0,4.4 -3.6,8 -8,8 l 0,0 c -4.4,0 -8,-3.6 -8,-8 v -20 c 0,-4.4 3.6,-8 8,-8 l 0,0 c 4.4,0 8,3.6 8,8 v 20 z"
           id="path34"
           inkscape:connector-curvature="0"
           style="fill:#eefaf9;stroke:#333333;stroke-width:5.05929422;stroke-linecap:round;stroke-linejoin:round;stroke-miterlimit:10" />
      </g>
    </g>
    <rect
       x="113.09474"
       y="589.8764"
       stroke-miterlimit="10"
       width="285.81061"
       height="24.904657"
       id="rect36"
       style="fill:#eefaf9;stroke:#333333;stroke-width:8;stroke-linecap:round;stroke-linejoin:round;stroke-miterlimit:10" />
    <rect
       x="113.09474"
       y="695.42468"
       stroke-miterlimit="10"
       width="285.81061"
       height="24.904657"
       id="rect38"
       style="fill:#eefaf9;stroke:#333333;stroke-width:8;stroke-linecap:round;stroke-linejoin:round;stroke-miterlimit:10" />
    <rect
       x="245.91959"
       y="829.43549"
       stroke-miterlimit="10"
       width="20.160913"
       height="112.66393"
       id="rect45"
       style="fill:#eefaf9;stroke:#333333;stroke-width:5.99999952;stroke-linecap:round;stroke-linejoin:round;stroke-miterlimit:10" />
    <path
       stroke-miterlimit="10"
       d="m 343.64072,1011.8587 c -4.03218,4.0322 -10.43623,3.9136 -14.34982,-0.1186 l -79.10194,-79.10195 c -4.03218,-4.03218 -4.15078,-10.31764 -0.1186,-14.34983 l 0,0 c 4.03219,-4.03218 10.43624,-3.91359 14.34983,0.1186 l 79.10194,79.10198 c 3.91359,3.9135 4.03218,10.3176 0.11859,14.3498 l 0,0 z"
       id="path51"
       inkscape:connector-curvature="0"
       style="fill:#eefaf9;stroke:#333333;stroke-width:5.99999952;stroke-linecap:round;stroke-linejoin:round;stroke-miterlimit:10" />
    <path
       stroke-miterlimit="10"
       d="m 344.1151,998.1018 -14.23124,14.2313 c 0,0 7.59,12.8081 9.48749,14.7056 5.5739,5.5739 14.11264,5.0995 19.68654,-0.4744 5.5739,-5.5739 6.04828,-14.1127 0.59297,-19.6866 -1.8975,-1.6603 -15.53576,-8.7759 -15.53576,-8.7759 z"
       id="path55"
       inkscape:connector-curvature="0"
       style="fill:#5c5c5c;stroke:#333333;stroke-width:5.99999952;stroke-linecap:round;stroke-linejoin:round;stroke-miterlimit:10" />
    <path
       stroke-miterlimit="10"
       d="m 170.61265,1011.5029 c -4.03219,-4.0322 -3.91359,-10.4362 0.11859,-14.3498 l 79.10194,-79.10196 c 4.03218,-4.03219 10.31764,-4.15078 14.34982,-0.1186 l 0,0 c 4.03219,4.03219 3.91359,10.43624 -0.11859,14.34983 l -79.10194,79.10193 c -4.03218,4.0322 -10.43624,4.1508 -14.34982,0.1186 l 0,0 z"
       id="path59"
       inkscape:connector-curvature="0"
       style="fill:#eefaf9;stroke:#333333;stroke-width:5.99999952;stroke-linecap:round;stroke-linejoin:round;stroke-miterlimit:10" />
    <path
       stroke-miterlimit="10"
       d="M 184.25091,1011.9773 170.01968,997.746 c 0,0 -12.80811,7.59 -14.70561,9.4875 -5.5739,5.5739 -5.09953,14.1127 0.47437,19.6866 5.5739,5.5739 14.11264,6.0482 19.68654,0.5929 1.66031,-1.7789 8.77593,-15.5357 8.77593,-15.5357 z"
       id="path63"
       inkscape:connector-curvature="0"
       style="fill:#5c5c5c;stroke:#333333;stroke-width:5.99999952;stroke-linecap:round;stroke-linejoin:round;stroke-miterlimit:10" />
    <g
       id="g65"
       transform="matrix(1.1859361,0,0,1.1859361,-1320.702,-477.67706)">
      <path
         style="fill:#eefaf9;stroke:#333333;stroke-width:5.05929422;stroke-linecap:round;stroke-linejoin:round;stroke-miterlimit:10"
         inkscape:connector-curvature="0"
         id="path67"
         d="m 1317.1,1182.8 c 0,-7.5 6,-13.5 13.5,-13.5 7.5,0 13.5,6 13.5,13.5 0,7.5 -6,13.5 -13.5,13.5 -7.5,0 -13.5,-6.1 -13.5,-13.5 z"
         stroke-miterlimit="10" />
      <path
         style="fill:#333333"
         inkscape:connector-curvature="0"
         id="path69"
         d="m 1333,1179.5 c -1.8,-1.3 -4.3,-0.9 -5.6,0.9 -1.3,1.8 -0.9,4.3 0.9,5.6 1.8,1.3 4.3,0.9 5.6,-0.9 1.3,-1.8 0.9,-4.3 -0.9,-5.6 z" />
    </g>
    <path
       style="fill:#5c5c5c;stroke:#333333;stroke-width:5.99999952;stroke-linecap:round;stroke-linejoin:round;stroke-miterlimit:10"
       inkscape:connector-curvature="0"
       id="path77"
       d="m 114.28068,702.06594 c 0,-4.38796 -3.32062,-7.82717 -7.70858,-7.82717 -4.38797,0 -7.708588,3.5578 -7.708588,7.82717 v 14.70561 h 15.417168 v -14.70561 z"
       stroke-miterlimit="10" />
    <path
       style="fill:#eefaf9;stroke:#333333;stroke-width:5.99999952;stroke-linecap:round;stroke-linejoin:round;stroke-miterlimit:10"
       inkscape:connector-curvature="0"
       id="path79"
       d="m 114.28068,723.05701 v -6.28546 H 98.863512 v 11.85936 c 0,4.26937 2.964838,8.42015 7.234208,8.89452 l 145.03999,16.12873 1.42312,-15.29857 -138.28015,-15.29858 z"
       stroke-miterlimit="10" />
    <path
       style="fill:#eefaf9;stroke:#333333;stroke-width:5.99999952;stroke-linecap:round;stroke-linejoin:round;stroke-miterlimit:10"
       inkscape:connector-curvature="0"
       id="path85"
       d="m 413.13658,716.77155 h -15.41717 v 6.28546 l -136.02687,15.17998 1.8975,15.29858 142.9053,-16.01014 c 4.26937,-0.47437 6.52264,-4.74374 6.52264,-8.89452 l 0,0 v -11.85936 z"
       stroke-miterlimit="10" />
    <path
       style="fill:#5c5c5c;stroke:#333333;stroke-width:5.99999952;stroke-linecap:round;stroke-linejoin:round;stroke-miterlimit:10"
       inkscape:connector-curvature="0"
       id="path89"
       d="m 413.13658,702.06594 c 0,-4.38796 -3.32062,-7.82717 -7.70859,-7.82717 -4.38796,0 -7.70858,3.5578 -7.70858,7.82717 v 14.70561 h 15.41717 v -14.70561 z"
       stroke-miterlimit="10" />
    <g
       id="g93"
       transform="matrix(1.1859361,0,0,1.1859361,-1320.702,-459.67706)">
      <rect
         x="1323.6"
         y="1017"
         transform="matrix(1,0.00570904,-0.00570904,1,6.0417,-7.5767)"
         stroke-miterlimit="10"
         width="13"
         height="75"
         id="rect95"
         style="fill:#eefaf9;stroke:#333333;stroke-width:5.05929422;stroke-linecap:round;stroke-linejoin:round;stroke-miterlimit:10" />
      <circle
         stroke-miterlimit="10"
         cx="1330.6"
         cy="1016.8"
         r="8.5"
         id="circle97"
         d="m 1339.1,1016.8 c 0,4.6944 -3.8056,8.5 -8.5,8.5 -4.6944,0 -8.5,-3.8056 -8.5,-8.5 0,-4.6944 3.8056,-8.5 8.5,-8.5 4.6944,0 8.5,3.8056 8.5,8.5 z"
         sodipodi:cx="1330.6"
         sodipodi:cy="1016.8"
         sodipodi:rx="8.5"
         sodipodi:ry="8.5"
         style="fill:#eefaf9;stroke:#333333;stroke-width:5.05929422;stroke-linecap:round;stroke-linejoin:round;stroke-miterlimit:10" />
      <circle
         cx="1330.6"
         cy="1016.8"
         r="2"
         id="circle99"
         d="m 1332.6,1016.8 c 0,1.1046 -0.8955,2 -2,2 -1.1046,0 -2,-0.8954 -2,-2 0,-1.1046 0.8954,-2 2,-2 1.1045,0 2,0.8954 2,2 z"
         sodipodi:cx="1330.6"
         sodipodi:cy="1016.8"
         sodipodi:rx="2"
         sodipodi:ry="2"
         style="fill:#333333" />
    </g>
    <path
       style="fill:#eefaf9;stroke:#333333;stroke-width:5.99999952;stroke-linecap:round;stroke-linejoin:round;stroke-miterlimit:10"
       inkscape:connector-curvature="0"
       id="path103"
       d="m 361.42976,731.71435 c -2.96484,-3.08344 -7.82717,-3.08344 -10.91061,-0.1186 l -99.38144,98.31411 10.79202,10.91061 99.38144,-98.31411 c 3.08343,-2.96484 3.08343,-7.82717 0.11859,-10.79201 z"
       stroke-miterlimit="10" />
    <circle
       style="fill:#eefaf9;stroke:#333333;stroke-width:5.05929422;stroke-linecap:round;stroke-linejoin:round;stroke-miterlimit:10"
       sodipodi:ry="8.5"
       sodipodi:rx="8.5"
       sodipodi:cy="1007.8"
       sodipodi:cx="1414.6"
       d="m 1423.1,1007.8 c 0,4.6944 -3.8056,8.5 -8.5,8.5 -4.6944,0 -8.5,-3.8056 -8.5,-8.5 0,-4.6944 3.8056,-8.50001 8.5,-8.50001 4.6944,0 8.5,3.80561 8.5,8.50001 z"
       id="circle107"
       r="8.5"
       cy="1007.8"
       cx="1414.6"
       stroke-miterlimit="10"
       transform="matrix(1.1859361,0,0,1.1859361,-1320.702,-459.67706)" />
    <circle
       style="fill:#333333"
       sodipodi:ry="2"
       sodipodi:rx="2"
       sodipodi:cy="1007.8"
       sodipodi:cx="1414.6"
       d="m 1416.6,1007.8 c 0,1.1046 -0.8955,2 -2,2 -1.1046,0 -2,-0.8954 -2,-2 0,-1.1046 0.8954,-2 2,-2 1.1045,0 2,0.8954 2,2 z"
       id="circle109"
       r="2"
       cy="1007.8"
       cx="1414.6"
       transform="matrix(1.1859361,0,0,1.1859361,-1320.702,-459.67706)" />
    <path
       style="fill:#eefaf9;stroke:#333333;stroke-width:5.99999952;stroke-linecap:round;stroke-linejoin:round;stroke-miterlimit:10"
       inkscape:connector-curvature="0"
       id="path113"
       d="m 154.24673,730.52841 c -3.08344,2.96484 -3.08344,7.82718 -0.1186,10.91061 l 98.31411,99.38145 10.91061,-10.79202 -98.3141,-99.38145 c -2.84625,-3.08343 -7.70859,-3.08343 -10.79202,-0.11859 z"
       stroke-miterlimit="10" />
    <circle
       style="fill:#eefaf9;stroke:#333333;stroke-width:5.05929422;stroke-linecap:round;stroke-linejoin:round;stroke-miterlimit:10"
       sodipodi:ry="8.5"
       sodipodi:rx="8.5"
       sodipodi:cy="1007.8"
       sodipodi:cx="1248.6"
       d="m 1257.1,1007.8 c 0,4.6944 -3.8056,8.5 -8.5,8.5 -4.6944,0 -8.5,-3.8056 -8.5,-8.5 0,-4.6944 3.8056,-8.50001 8.5,-8.50001 4.6944,0 8.5,3.80561 8.5,8.50001 z"
       id="circle117"
       r="8.5"
       cy="1007.8"
       cx="1248.6"
       stroke-miterlimit="10"
       transform="matrix(1.1859361,0,0,1.1859361,-1320.702,-459.67706)" />
    <circle
       style="fill:#333333"
       sodipodi:ry="2"
       sodipodi:rx="2"
       sodipodi:cy="1007.8"
       sodipodi:cx="1248.6"
       d="m 1250.6,1007.8 c 0,1.1046 -0.8955,2 -2,2 -1.1046,0 -2,-0.8954 -2,-2 0,-1.1046 0.8954,-2 2,-2 1.1045,0 2,0.8954 2,2 z"
       id="circle119"
       r="2"
       cy="1007.8"
       cx="1248.6"
       transform="matrix(1.1859361,0,0,1.1859361,-1320.702,-459.67706)" />
    <path
       style="fill:#eefaf9;stroke:#333333;stroke-width:5.99999952;stroke-linecap:round;stroke-linejoin:round;stroke-miterlimit:10"
       inkscape:connector-curvature="0"
       id="path121"
       d="m 277.93986,831.92595 c 0,5.81108 -4.74374,10.55483 -10.55483,10.55483 h -21.58404 c -5.81108,0 -10.55483,-4.74375 -10.55483,-10.55483 v -4.98094 c 0,-5.81108 4.74375,-10.55483 10.55483,-10.55483 h 21.58404 c 5.81109,0 10.55483,4.74375 10.55483,10.55483 v 4.98094 z"
       stroke-miterlimit="10" />
  </g>
</svg>
