<?xml version="1.0" encoding="UTF-8" standalone="no"?>
<!-- Generator: Adobe Illustrator 16.0.0, SVG Export Plug-In . SVG Version: 6.00 Build 0)  -->

<svg
   xmlns:dc="http://purl.org/dc/elements/1.1/"
   xmlns:cc="http://creativecommons.org/ns#"
   xmlns:rdf="http://www.w3.org/1999/02/22-rdf-syntax-ns#"
   xmlns:svg="http://www.w3.org/2000/svg"
   xmlns="http://www.w3.org/2000/svg"
   xmlns:sodipodi="http://sodipodi.sourceforge.net/DTD/sodipodi-0.dtd"
   xmlns:inkscape="http://www.inkscape.org/namespaces/inkscape"
   version="1.1"
   id="Capa_1"
   x="0px"
   y="0px"
   width="512"
   height="512"
   viewBox="0 0 512.00001 512.00001"
   xml:space="preserve"
   inkscape:version="0.48.4 r9939"
   sodipodi:docname="tambourine.svg"><metadata
     id="metadata53"><rdf:RDF><cc:Work
         rdf:about=""><dc:format>image/svg+xml</dc:format><dc:type
           rdf:resource="http://purl.org/dc/dcmitype/StillImage" /></cc:Work></rdf:RDF></metadata><defs
     id="defs51" /><sodipodi:namedview
     pagecolor="#ffffff"
     bordercolor="#666666"
     borderopacity="1"
     objecttolerance="10"
     gridtolerance="10"
     guidetolerance="10"
     inkscape:pageopacity="0"
     inkscape:pageshadow="2"
     inkscape:window-width="1602"
     inkscape:window-height="942"
     id="namedview49"
     showgrid="false"
     inkscape:zoom="2.1562948"
     inkscape:cx="150.01671"
     inkscape:cy="85.958045"
     inkscape:window-x="389"
     inkscape:window-y="79"
     inkscape:window-maximized="0"
     inkscape:current-layer="Capa_1" /><g
     id="g5"
     style="fill:#c4a000"
     transform="matrix(0.99099074,0,0,0.99098838,40.328596,40.329079)"><path
       inkscape:connector-curvature="0"
       id="path7"
       d="m 113.331,425.928 c -2.06,0 -4.131,-0.125 -6.209,-0.377 -13.896,-1.695 -26.238,-8.933 -34.756,-20.37 -8.392,-11.284 -12.058,-25.314 -10.315,-39.505 0.793,-6.464 7.655949,-9.75406 14.053949,-9.09806 6.454,0.79 14.438816,7.60095 13.653816,14.05695 -0.998,8.171 -1.49786,14.3101 3.25914,20.7101 4.631,6.227 9.760085,10.38399 17.194085,11.28199 7.444,0.958 14.61101,-1.75398 20.61101,-6.68398 6.08696,-5.03699 6.87046,-9.34625 9.45809,-18.05312 0.794,-6.46 9.38085,-11.29099 15.81385,-10.62199 6.45,0.797 13.26488,6.43401 12.47988,12.88201 -1.733,14.222 -7.64102,27.89482 -18.50402,36.80282 -9.375,7.716 -25.0138,8.97528 -36.7398,8.97528 z"
       style="fill:#ffd105;fill-opacity:1"
       sodipodi:nodetypes="sccccccccccccs" /></g><g
     id="g9"
     style="fill:#c4a000"
     transform="matrix(0.99099074,0,0,0.99098838,40.328596,40.329079)"><path
       inkscape:connector-curvature="0"
       id="path11"
       d="m 384.237,191.407 c -1.535,0 -3.065,-0.06 -4.601,-0.18 -6.484,-0.517 -11.312,-6.202 -10.792,-12.688 0.513,-6.474 6.1,-11.311 12.68,-10.786 8.211,0.637 16.153,-1.733 22.333,-6.743 6.023,-4.883 9.674,-11.679 10.279,-19.155 0.613,-7.482 -1.899,-14.792 -7.061,-20.576 -5.314,-5.949 -12.748,-9.586 -20.943,-10.253 -6.488,-0.519 -11.317,-6.204 -10.788,-12.686 0.513,-6.478 6.079,-11.235 12.68,-10.786 14.267,1.146 27.278,7.568 36.624,18.047 9.489,10.644 14.098,24.195 12.972,38.143 -1.13,13.954 -7.851,26.585 -18.931,35.558 -9.742,7.889 -21.833,12.105 -34.452,12.105 z"
       style="fill:#ffd105;fill-opacity:1" /></g><g
     id="g13"
     style="fill:#ffd105;stroke:none;stroke-opacity:1;stroke-width:5.04546193000000009;stroke-miterlimit:4;stroke-dasharray:none;fill-opacity:1"
     transform="matrix(0.99099074,0,0,0.99098838,40.328596,40.329079)"><path
       inkscape:connector-curvature="0"
       id="path15"
       d="m 293.629,344.02 c -13.77,0 -26.993,-5.237 -37.289,-14.783 -4.776,-4.424 -5.061,-11.882 -0.637,-16.643 4.408,-4.777 11.866,-5.065 16.643,-0.638 6.035,5.599 13.822,8.443 21.721,8.504 7.758,-0.116 14.835,-3.198 19.925,-8.696 5.098,-5.494 7.642,-12.792 7.169,-20.538 -0.501,-7.946 -4.096,-15.416 -10.131,-21.003 -4.765,-4.424 -5.057,-11.878 -0.633,-16.646 4.42,-4.765 11.866,-5.058 16.643,-0.634 10.496,9.727 16.76,22.807 17.625,36.837 0.873,14.227 -3.879,27.728 -13.393,37.994 -9.506,10.263 -22.603,16.029 -36.869,16.238 -0.268,0 -0.513,0.008 -0.774,0.008 z"
       style="fill:#ffd105;stroke:none;stroke-opacity:1;stroke-width:5.04546193000000009;stroke-miterlimit:4;stroke-dasharray:none;fill-opacity:1" /></g><path
     inkscape:connector-curvature="0"
     id="path17"
     d="m 435.85777,167.60469 c -3.25243,-3.65179 -7.86351,-5.8835 -12.99783,-6.30269 -6.20757,-0.49648 -11.85027,-3.39116 -15.89351,-8.14295 -4.03432,-4.74981 -5.98063,-10.79186 -5.48414,-17.00734 0.34982,-4.34251 1.91459,-8.24007 4.23747,-11.52123 L 369.55653,85.598423 c -1.93739,-2.98288 -4.07,-5.82801 -6.47315,-8.49079 -2.80352,-3.10378 -5.88451,-5.87954 -9.17757,-8.38971 l -0.0674,-0.0813 -0.0159,0.0159 C 306.44429,32.524055 211.36468,56.916242 132.97632,127.73425 49.105801,203.51216 16.118692,303.71694 59.328862,351.52817 c 2.138558,2.37044 4.534773,4.43566 6.96171,6.46422 l -0.101081,0.10009 34.739179,32.84333 c 4.46144,-3.11765 9.99414,-4.79341 15.88558,-4.20179 6.40775,0.78288 11.93252,3.90351 15.76865,8.81286 3.84405,4.9163 5.53765,11.02475 4.77558,17.21545 -0.62333,5.1026 0.64513,10.07538 3.56261,13.99474 2.67072,3.57846 6.42757,5.82602 10.59766,6.3344 4.72207,0.62432 8.34513,-0.73432 11.84035,-3.59333 3.77271,-3.09783 6.1937,-7.61772 6.82297,-12.74014 1.52316,-12.47357 12.93838,-21.61941 25.79748,-20.36085 6.38594,0.79081 11.90774,3.91143 15.75278,8.8198 3.84406,4.91728 5.53766,11.02474 4.77955,17.21545 -0.48261,3.95206 -1.3418,7.7961 -2.47747,11.51726 24.31197,-7.27583 54.41827,-21.19526 87.51637,-47.41384 -5.13928,-2.71233 -9.96838,-6.07674 -14.32873,-10.11898 -9.43523,-8.75241 -10.00802,-23.55381 -1.25559,-32.99 8.37189,-9.06953 23.8918,-9.69385 32.97819,-1.25063 3.65676,3.3872 8.51063,5.26909 13.68558,5.31665 4.20973,-0.0664 8.23712,-1.79567 11.09117,-4.87665 2.8709,-3.09287 4.28504,-7.2471 4.01153,-11.70655 -0.30622,-4.87665 -2.53793,-9.48375 -6.31459,-12.97897 -9.44315,-8.75637 -10.00405,-23.54192 -1.25955,-32.97712 8.39567,-9.07052 23.88387,-9.68592 32.97819,-1.26252 4.84892,4.49116 8.91892,9.58286 12.18819,15.10266 17.33441,-22.25165 29.91603,-41.53232 39.049,-57.8975 -0.8136,0.0317 -1.62027,0.11099 -2.43783,0.11099 -1.81946,0 -3.65775,-0.0803 -5.48811,-0.22099 -6.21946,-0.49847 -11.86712,-3.38125 -15.91432,-8.14494 -4.03432,-4.74386 -5.98063,-10.78789 -5.48811,-17.00734 1.04054,-12.84915 12.04946,-22.41814 25.14243,-21.3776 4.91234,0.32604 10.05459,-1.04846 13.84017,-4.11359 3.46748,-2.80747 5.56739,-6.67431 5.90532,-10.8543 0.34784,-4.20773 -1.10595,-8.36394 -4.07595,-11.68375 z M 293.23538,304.81694 C 216.39098,374.23568 121.04479,393.90481 80.255613,348.74746 39.458506,303.601 68.688769,210.72656 145.52028,141.3098 222.35179,71.897013 317.71087,52.230849 358.50401,97.385233 399.29418,142.53764 370.05698,235.4101 293.23538,304.81694 z"
     style="fill:#f44800;fill-opacity:1;stroke:#000000;stroke-width:5.50000011;stroke-miterlimit:4;stroke-opacity:1;stroke-dasharray:none" /><g
     id="g19"
     transform="translate(0,74.212007)" /><g
     id="g21"
     transform="translate(0,74.212007)" /><g
     id="g23"
     transform="translate(0,74.212007)" /><g
     id="g25"
     transform="translate(0,74.212007)" /><g
     id="g27"
     transform="translate(0,74.212007)" /><g
     id="g29"
     transform="translate(0,74.212007)" /><g
     id="g31"
     transform="translate(0,74.212007)" /><g
     id="g33"
     transform="translate(0,74.212007)" /><g
     id="g35"
     transform="translate(0,74.212007)" /><g
     id="g37"
     transform="translate(0,74.212007)" /><g
     id="g39"
     transform="translate(0,74.212007)" /><g
     id="g41"
     transform="translate(0,74.212007)" /><g
     id="g43"
     transform="translate(0,74.212007)" /><g
     id="g45"
     transform="translate(0,74.212007)" /><g
     id="g47"
     transform="translate(0,74.212007)" /><g
     transform="matrix(0.99099074,0,0,0.99098838,42.18363,42.184113)"
     style="fill:none;stroke:#000000;stroke-width:5.04546213;stroke-miterlimit:4;stroke-opacity:1;stroke-dasharray:none"
     id="g3771" /><path
     style="fill:none;stroke:#000000;stroke-width:5.5;stroke-linecap:butt;stroke-linejoin:miter;stroke-miterlimit:4;stroke-opacity:1;stroke-dasharray:none"
     d="m 386.09785,300.08489 c 1.48759,3.14275 6.1294,19.00748 5.44525,32.74728 -0.68416,13.73981 -4.91813,27.20504 -16.75572,39.95801 -17.04153,18.35932 -48.50922,23.72325 -72.55309,14.28873"
     id="path3775"
     inkscape:connector-curvature="0"
     sodipodi:nodetypes="czsc" /><path
     sodipodi:nodetypes="cssc"
     inkscape:connector-curvature="0"
     id="path3777"
     d="m 405.95562,124.30719 c 5.77845,-10.74806 40.4926,-4.70075 54.67493,7.49564 13.54065,11.64456 24.1395,27.01719 22.87578,51.44059 -1.53781,29.72075 -27.09076,57.08735 -57.77174,57.59779"
     style="fill:none;stroke:#000000;stroke-width:5.5;stroke-linecap:butt;stroke-linejoin:miter;stroke-miterlimit:4;stroke-opacity:1;stroke-dasharray:none" /><path
     style="fill:none;stroke:#000000;stroke-width:5.5;stroke-linecap:butt;stroke-linejoin:miter;stroke-miterlimit:4;stroke-opacity:1;stroke-dasharray:none"
     d="m 213.81256,434.64297 c -6.87658,19.52396 -28.18722,43.98044 -75.3285,36.66828 -39.509331,-8.27521 -57.660048,-60.66417 -38.583383,-80.10304"
     id="path3779"
     inkscape:connector-curvature="0"
     sodipodi:nodetypes="ccc" /></svg>