<?xml version="1.0" encoding="UTF-8" standalone="no"?>
<!-- Created with Inkscape (http://www.inkscape.org/) -->

<svg
   xmlns:dc="http://purl.org/dc/elements/1.1/"
   xmlns:cc="http://creativecommons.org/ns#"
   xmlns:rdf="http://www.w3.org/1999/02/22-rdf-syntax-ns#"
   xmlns:svg="http://www.w3.org/2000/svg"
   xmlns="http://www.w3.org/2000/svg"
   xmlns:sodipodi="http://sodipodi.sourceforge.net/DTD/sodipodi-0.dtd"
   xmlns:inkscape="http://www.inkscape.org/namespaces/inkscape"
   width="48"
   height="48"
   id="svg2"
   version="1.1"
   inkscape:version="0.48.4 r9939"
   sodipodi:docname="tambourine2.svg">
  <defs
     id="defs4" />
  <sodipodi:namedview
     id="base"
     pagecolor="#ffffff"
     bordercolor="#666666"
     borderopacity="1.0"
     inkscape:pageopacity="0.0"
     inkscape:pageshadow="2"
     inkscape:zoom="7.9195959"
     inkscape:cx="15.1722"
     inkscape:cy="17.065622"
     inkscape:document-units="px"
     inkscape:current-layer="layer1"
     showgrid="false"
     inkscape:window-width="1333"
     inkscape:window-height="915"
     inkscape:window-x="181"
     inkscape:window-y="134"
     inkscape:window-maximized="0" />
  <metadata
     id="metadata7">
    <rdf:RDF>
      <cc:Work
         rdf:about="">
        <dc:format>image/svg+xml</dc:format>
        <dc:type
           rdf:resource="http://purl.org/dc/dcmitype/StillImage" />
      </cc:Work>
    </rdf:RDF>
  </metadata>
  <g
     inkscape:label="Layer 1"
     inkscape:groupmode="layer"
     id="layer1"
     transform="translate(0,-1004.3622)">
    <path
       style="fill:#000000"
       d="m 91.663398,1056.1987 c -0.08434,-0.015 -0.567412,-0.068 -1.073482,-0.1167 -1.517851,-0.1475 -3.66139,-0.6752 -5.171564,-1.273 -1.050038,-0.4157 -2.952667,-1.4255 -3.870405,-2.0541 -1.040641,-0.7128 -2.117768,-1.5935 -2.875984,-2.3516 -2.965831,-2.9653 -4.88519,-6.5278 -5.68645,-10.5545 -0.530863,-2.6679 -0.500382,-5.6675 0.08476,-8.341 0.859262,-3.9259 2.982645,-7.6712 5.888697,-10.3867 0.453209,-0.4235 0.929971,-0.8476 1.05947,-0.9424 0.129501,-0.095 0.559783,-0.4152 0.956182,-0.7118 2.461263,-1.8416 5.512546,-3.1198 8.673402,-3.6332 6.233947,-1.0126 12.481996,0.8824 17.153466,5.2025 3.41306,3.1564 5.50429,7.1898 6.30401,12.1585 0.13543,0.8415 0.13565,4.5454 3.1e-4,5.3674 -0.3348,2.0336 -0.621,3.1178 -1.25353,4.7489 -1.62164,4.1815 -4.74654,7.8597 -8.57227,10.0901 -0.73249,0.4271 -2.1905,1.1493 -2.84121,1.4075 -1.387012,0.5502 -3.314802,1.0479 -4.814321,1.243 -0.824011,0.1072 -3.605959,0.2105 -3.961078,0.1471 z m 5.056597,-5.667 c 0.841192,-0.1078 1.807327,-0.2462 2.146965,-0.3076 2.11868,-0.383 3.80791,-0.4758 4.50354,-0.2474 l 0.43554,0.143 0.75296,-0.6492 c 1.14663,-0.9886 2.48367,-2.4808 3.17862,-3.5474 0.82281,-1.2628 1.22437,-2.0073 1.67495,-3.1054 0.98032,-2.3891 1.38182,-4.3955 1.38182,-6.9052 0,-3.2734 -0.81782,-6.3144 -2.42754,-9.0264 -2.57622,-4.3405 -6.64835,-7.3258 -11.489394,-8.4228 -1.443811,-0.3272 -2.273527,-0.4173 -3.877381,-0.4213 -1.785191,0 -2.590533,0.081 -4.135399,0.4384 -5.892724,1.3634 -10.762785,5.7233 -12.795929,11.4555 -1.328931,3.7468 -1.358274,7.9149 -0.08234,11.6966 0.127458,0.3777 0.299575,0.8331 0.382482,1.0119 0.08291,0.1787 0.150741,0.3496 0.150741,0.3796 0,0.03 0.208057,0.4623 0.462347,0.9606 1.068505,2.0939 2.56894,4.0007 4.317039,5.4863 l 0.677148,0.5754 0.355362,-0.1774 c 0.70115,-0.3502 1.527997,-0.3075 4.524234,0.2337 0.915129,0.1653 1.974413,0.3406 2.353966,0.3895 0.379553,0.049 1.035144,0.1348 1.456869,0.1907 1.23021,0.1633 4.173132,0.09 6.053402,-0.1511 z m -19.663625,-10.514 c 0,-0.022 -0.08388,-0.4617 -0.186399,-0.9776 -0.288124,-1.45 -0.39069,-2.9746 -0.280277,-4.1663 0.102931,-1.1109 0.356941,-2.6343 0.49613,-2.9754 l 0.09198,-0.2254 0.574623,0.5691 c 2.004841,1.9859 2.044659,5.166 0.09029,7.2116 -0.490243,0.5132 -0.786356,0.7255 -0.786356,0.564 z m 30.96822,-0.5546 c -0.6768,-0.71 -1.07723,-1.4314 -1.29221,-2.3281 -0.37062,-1.5461 -0.0397,-3.1405 0.91394,-4.4036 0.28047,-0.3714 0.90996,-0.9552 1.03007,-0.9552 0.15237,0 0.45346,1.5902 0.59287,3.1313 0.10943,1.2096 0.0142,2.6087 -0.28236,4.1491 -0.10191,0.5293 -0.18547,0.971 -0.1857,0.9816 -2.3e-4,0.01 -0.0476,0.019 -0.10526,0.019 -0.0577,0 -0.35977,-0.2674 -0.67135,-0.5942 z m -29.011332,-11.9782 c -0.02517,-0.041 0.12537,-0.3325 0.334543,-0.6484 1.215386,-1.8353 3.01562,-3.5752 4.992914,-4.8256 l 0.575079,-0.3637 0.02183,0.7684 c 0.03568,1.256 -0.338772,2.3201 -1.169517,3.3234 -0.985999,1.1909 -2.36517,1.8199 -3.989924,1.8199 -0.395533,0 -0.739748,-0.033 -0.764923,-0.074 z m 25.761572,-0.069 c -0.61961,-0.1525 -1.37501,-0.5077 -1.8947,-0.891 -0.78369,-0.5781 -1.59395,-1.8138 -1.85863,-2.8347 -0.0697,-0.2689 -0.11849,-0.783 -0.11849,-1.2487 l 0,-0.7917 0.17253,0.091 c 0.92517,0.4885 2.3905,1.6335 3.47146,2.7126 1.15696,1.1549 2.45306,2.9083 2.24657,3.0392 -0.17415,0.1104 -1.45612,0.062 -2.01874,-0.077 z m -13.226448,-5.3477 c -0.89869,-0.265 -1.53332,-0.6409 -2.254344,-1.3354 l -0.613779,-0.5911 0.686457,-0.1599 c 1.176275,-0.2739 1.639206,-0.3293 3.101794,-0.3713 1.555113,-0.044 2.698269,0.059 3.989135,0.3623 l 0.719244,0.1689 -0.613779,0.5911 c -0.729735,0.7029 -1.360244,1.0729 -2.282092,1.3394 -0.920189,0.266 -1.821692,0.2647 -2.732636,0 z m -19.863833,18.3837 c -1.72248,-0.8617 -2.894794,-2.9549 -2.729507,-4.8737 0.158887,-1.8445 1.139201,-3.3799 2.693856,-4.2194 0.230254,-0.1243 0.439244,-0.2054 0.464423,-0.1802 0.02518,0.025 0.01,0.1787 -0.03375,0.3411 -0.450794,1.6741 -0.573183,5.223 -0.253459,7.3495 0.09511,0.6326 0.20304,1.2796 0.239843,1.4377 0.07734,0.3324 0.02949,0.3506 -0.381409,0.145 z m 42.105781,-0.145 c 0.0363,-0.1581 0.14351,-0.7878 0.23819,-1.3993 0.14339,-0.9262 0.17217,-1.4256 0.17235,-2.9904 2.3e-4,-1.8937 -0.0824,-2.7912 -0.38371,-4.1695 -0.0634,-0.2899 -0.0947,-0.5477 -0.0696,-0.5729 0.0251,-0.025 0.22493,0.054 0.44401,0.1754 1.34634,0.747 2.21629,1.901 2.58148,3.4244 0.24281,1.0129 0.1727,1.9681 -0.22186,3.0226 -0.40793,1.0903 -1.49901,2.279 -2.48248,2.7045 -0.32134,0.139 -0.35041,0.1187 -0.27841,-0.1948 z m -3.34598,-16.4787 c -0.85663,-1.2032 -1.42857,-1.8838 -2.40919,-2.8666 -1.27754,-1.2803 -2.0486,-1.9061 -3.84162,-3.1179 l -0.25048,-0.1693 0.22439,-0.086 c 0.59247,-0.2268 1.19244,-0.3271 1.94962,-0.3261 0.70322,10e-4 0.89485,0.032 1.51415,0.245 0.38997,0.1341 0.83215,0.32 0.98261,0.413 1.25847,0.7781 2.17327,2.0181 2.449,3.3197 0.18814,0.8881 0.12104,2.2418 -0.14216,2.8678 l -0.10293,0.2447 -0.37339,-0.5245 z m -35.525406,0.2231 c -0.251378,-0.6182 -0.312377,-1.9251 -0.130006,-2.7854 0.349366,-1.6481 1.646398,-3.1242 3.255142,-3.7045 0.766095,-0.2763 1.64174,-0.3797 2.368462,-0.2796 0.582825,0.08 1.300018,0.2743 1.421152,0.3844 0.03392,0.031 -0.162404,0.1966 -0.436272,0.3683 -2.168196,1.3594 -4.459744,3.5797 -5.99437,5.8079 -0.159008,0.2309 -0.313689,0.4198 -0.343735,0.4198 -0.03005,0 -0.09321,-0.095 -0.140373,-0.2109 z m 13.255636,-8.9546 c 0,-0.045 0.329771,-0.6756 0.479918,-0.9176 0.35444,-0.5711 1.269909,-1.3699 1.982223,-1.7295 0.57678,-0.2911 1.615429,-0.5324 2.291853,-0.5324 0.676424,0 1.715073,0.2413 2.291853,0.5324 0.563546,0.2845 1.287501,0.862 1.687685,1.3463 0.33474,0.405 0.814488,1.2506 0.747567,1.3175 -0.0229,0.023 -0.397148,-0.03 -0.831657,-0.1166 -2.234289,-0.4476 -5.555044,-0.4514 -7.741358,-0.01 -0.787406,0.1593 -0.908084,0.1738 -0.908084,0.1089 z"
       id="path2996"
       inkscape:connector-curvature="0" />
    <path
       inkscape:connector-curvature="0"
       id="path2998"
       d="m 22.847299,1048.5315 c -0.07732,-0.014 -0.5202,-0.062 -0.984162,-0.107 -1.391557,-0.1352 -3.356741,-0.619 -4.741259,-1.1671 -0.962669,-0.381 -2.706988,-1.3069 -3.548366,-1.8832 -0.954053,-0.6535 -1.941555,-1.4609 -2.636684,-2.1559 -2.719056,-2.7186 -4.4787131,-5.9846 -5.2133035,-9.6763 -0.4866921,-2.4459 -0.4587474,-5.196 0.077707,-7.6469 0.7877663,-3.5993 2.7344714,-7.033 5.3987235,-9.5226 0.415499,-0.3882 0.85259,-0.7771 0.971314,-0.864 0.118726,-0.087 0.513206,-0.3806 0.876622,-0.6525 2.256472,-1.6885 5.053871,-2.8602 7.951726,-3.3309 5.715246,-0.9284 11.44342,0.8089 15.726196,4.7696 3.129074,2.8937 5.046301,6.5916 5.779479,11.1469 0.124161,0.7715 0.124364,4.1672 2.84e-4,4.9208 -0.306942,1.8643 -0.569328,2.8583 -1.149227,4.3536 -1.486712,3.8336 -4.3516,7.2058 -7.859008,9.2507 -0.671543,0.3915 -2.008237,1.0536 -2.604805,1.2903 -1.271604,0.5044 -3.038991,0.9607 -4.413742,1.1397 -0.755447,0.098 -3.305921,0.1929 -3.631495,0.1348 z m 4.635859,-5.1955 c 0.7712,-0.099 1.656946,-0.2257 1.968325,-0.282 1.942393,-0.3511 3.49107,-0.4362 4.128819,-0.2269 l 0.3993,0.1311 0.690309,-0.5951 c 1.051224,-0.9064 2.277015,-2.2744 2.914141,-3.2523 0.754347,-1.1577 1.122496,-1.8402 1.535584,-2.8469 0.898752,-2.1903 1.266845,-4.0298 1.266845,-6.3307 0,-3.001 -0.749773,-5.789 -2.225555,-8.2754 -2.361863,-3.9793 -6.095169,-6.7162 -10.533409,-7.7219 -1.323677,-0.3 -2.084356,-0.3826 -3.554761,-0.3863 -1.636652,0 -2.374985,0.074 -3.791309,0.4019 -5.402415,1.2501 -9.867257,5.2472 -11.7312316,10.5024 -1.2183561,3.4351 -1.2452577,7.2563 -0.075489,10.7233 0.1168528,0.3463 0.2746487,0.7638 0.3506573,0.9278 0.076011,0.1638 0.1381984,0.3204 0.1381984,0.3479 0,0.028 0.1907455,0.4239 0.4238771,0.8807 0.9795988,1.9197 2.3551888,3.6679 3.9578358,5.0299 l 0.620805,0.5275 0.325794,-0.1627 c 0.64281,-0.3209 1.400859,-0.2819 4.147792,0.2143 0.838984,0.1516 1.81013,0.3122 2.158102,0.3571 0.347972,0.045 0.949013,0.1235 1.335649,0.1749 1.127849,0.1497 3.825903,0.082 5.549722,-0.1386 z"
       style="fill:#f44800;fill-opacity:1;stroke:#000000;stroke-width:0.48869357;stroke-miterlimit:4;stroke-opacity:1;stroke-dasharray:none"
       sodipodi:nodetypes="ccccsscccccsscsccccccccccssssccsccscccccccc" />
    <path
       style="fill:#dab200;fill-opacity:1"
       d="m 4.7002561,1025.5849 c -0.023084,-0.023 -0.2165114,0.069 -0.4276069,0.1833 -1.4252986,0.7697 -2.3283444,2.1574 -2.4740112,3.8484 -0.1515341,1.7591 0.925395,3.6999 2.5045546,4.4899 0.3767079,0.1885 0.4374247,0.152 0.3665202,-0.1527 -0.033741,-0.145 -0.1266078,-0.7334 -0.2138035,-1.3134 -0.2931211,-1.9496 -0.1994819,-5.1846 0.2138035,-6.7195 0.040109,-0.1488 0.053628,-0.3125 0.030543,-0.336 z m 4.8581438,0.4582 -0.061087,0.2138 c -0.1276077,0.3126 -0.3637835,1.6999 -0.4581502,2.7183 -0.101226,1.0924 -0.019804,2.4886 0.2443468,3.8179 0.093989,0.473 0.1832601,0.8958 0.1832601,0.9163 -8.5e-6,0.1481 0.2530451,-0.049 0.7024974,-0.5192 1.791754,-1.8753 1.776938,-4.8072 -0.06109,-6.6279 z"
       id="path3160"
       inkscape:connector-curvature="0"
       sodipodi:nodetypes="ccscscccccsscccc" />
    <path
       style="fill:#dab200;fill-opacity:1"
       d="m 43.310551,1025.5849 c -0.023,0.023 0.003,0.2535 0.06109,0.5192 0.276242,1.2637 0.366731,2.1124 0.36652,3.8485 -1.65e-4,1.4347 -0.0518,1.8693 -0.18326,2.7184 -0.0868,0.5606 -0.180523,1.1378 -0.213803,1.2828 -0.06601,0.2874 -0.01971,0.3107 0.27489,0.1832 0.90164,-0.39 1.886219,-1.4744 2.260208,-2.474 0.36173,-0.9667 0.436409,-1.8508 0.213803,-2.7794 -0.334804,-1.3967 -1.148064,-2.4612 -2.382381,-3.146 -0.200851,-0.1119 -0.374046,-0.1762 -0.397067,-0.1527 z m -4.858144,0.5498 c -0.110116,0 -0.68971,0.5452 -0.946843,0.8857 -0.874294,1.1581 -1.194996,2.6144 -0.855214,4.0318 0.197093,0.822 0.570704,1.4872 1.191191,2.138 0.285654,0.2997 0.55797,0.5498 0.610866,0.5498 0.05288,0 0.09142,-0.021 0.09163,-0.031 2.11e-4,-0.01 0.08983,-0.4004 0.18326,-0.8857 0.271884,-1.4122 0.375215,-2.709 0.27489,-3.8179 -0.12781,-1.4129 -0.410088,-2.8711 -0.549781,-2.8711 z"
       id="path3158"
       inkscape:connector-curvature="0"
       sodipodi:nodetypes="ccscccccccccccscsccc" />
    <path
       style="fill:#dab200;fill-opacity:1"
       d="m 11.786313,1012.6022 c -0.539783,-2e-4 -1.122577,0.1155 -1.649341,0.3054 -1.4748874,0.5321 -2.6424078,1.8794 -2.9627046,3.3903 -0.1671967,0.7887 -0.1388319,1.9683 0.09163,2.5351 0.043239,0.1064 0.1251671,0.2138 0.1527167,0.2138 0.027546,0 0.1596559,-0.1854 0.3054335,-0.397 1.4069361,-2.0429 3.5100134,-4.0683 5.4978024,-5.3146 0.251081,-0.1574 0.428154,-0.3076 0.397064,-0.3359 -0.111055,-0.1009 -0.779035,-0.2933 -1.313364,-0.3666 -0.166564,-0.023 -0.33931,-0.03 -0.519237,-0.03 z m 4.888687,4.2473 -0.54978,0.336 c -1.812773,1.1464 -3.467245,2.7462 -4.581503,4.4288 -0.191769,0.2896 -0.328509,0.5422 -0.305433,0.5803 0.02308,0.037 0.339875,0.092 0.702497,0.092 1.489564,0 2.761245,-0.588 3.665202,-1.6799 0.761622,-0.9198 1.10173,-1.9027 1.069017,-3.0543 l 0,-0.7025 z"
       id="path3156"
       inkscape:connector-curvature="0"
       sodipodi:nodetypes="ccscsccccccccccscccc" />
    <path
       style="fill:#dab200;fill-opacity:1"
       d="m 36.316125,1012.6327 c -0.694179,-9e-4 -1.258884,0.067 -1.802058,0.2749 l -0.18326,0.092 0.213803,0.1527 c 1.643831,1.111 2.371788,1.6973 3.543029,2.871 0.899027,0.9011 1.413767,1.5237 2.199121,2.6268 l 0.335977,0.4581 0.09163,-0.2138 c 0.2413,-0.5739 0.294659,-1.8125 0.122173,-2.6267 -0.252788,-1.1933 -1.075907,-2.341 -2.229664,-3.0543 -0.137942,-0.085 -0.558778,-0.2436 -0.916301,-0.3666 -0.56777,-0.1952 -0.729742,-0.2138 -1.37445,-0.2138 z m -5.010861,4.2168 0,0.733 c 0,0.427 0.05827,0.9141 0.122173,1.1607 0.242658,0.9358 0.991945,2.0661 1.710428,2.5962 0.476449,0.3514 1.172915,0.6543 1.740971,0.7941 0.515806,0.1271 1.672941,0.1929 1.832601,0.092 0.189309,-0.12 -0.98571,-1.7511 -2.046405,-2.8099 -0.991018,-0.9894 -2.328317,-2.0262 -3.176508,-2.4741 z"
       id="path3154"
       inkscape:connector-curvature="0"
       sodipodi:nodetypes="ccccccccscccccsccccccc" />
    <path
       style="fill:#dab200;fill-opacity:1"
       d="m 24.005404,1007.3211 c -0.620142,0 -1.578703,0.2217 -2.107491,0.4886 -0.653046,0.3298 -1.47711,1.0647 -1.802058,1.5883 -0.137654,0.2219 -0.45815,0.8132 -0.45815,0.8552 0,0.06 0.133324,0.024 0.855214,-0.1222 2.0044,-0.404 5.037673,-0.3797 7.086056,0.031 0.398355,0.079 0.74259,0.1131 0.763584,0.092 0.06135,-0.061 -0.365066,-0.8199 -0.671954,-1.1912 -0.366886,-0.4439 -1.041054,-0.9914 -1.55771,-1.2523 -0.528788,-0.2669 -1.487349,-0.4886 -2.107491,-0.4886 z m -0.427607,7.6653 c -1.340892,0.038 -1.76213,0.085 -2.840532,0.3359 l -0.610867,0.1528 0.549781,0.5497 c 0.66103,0.6367 1.253033,0.9788 2.076947,1.2218 0.835148,0.2426 1.660931,0.2438 2.504555,0 0.845145,-0.2444 1.407931,-0.5773 2.076948,-1.2218 l 0.580323,-0.5497 -0.671953,-0.1528 c -1.183459,-0.2775 -2.239484,-0.377 -3.665202,-0.3359 z"
       id="path3152"
       inkscape:connector-curvature="0"
       sodipodi:nodetypes="cccscccsccccccccccccc" />
  </g>
</svg>
