<?xml version="1.0" encoding="UTF-8" standalone="no"?>
<!-- Created with Inkscape (http://www.inkscape.org/) -->

<svg
   xmlns:dc="http://purl.org/dc/elements/1.1/"
   xmlns:cc="http://creativecommons.org/ns#"
   xmlns:rdf="http://www.w3.org/1999/02/22-rdf-syntax-ns#"
   xmlns:svg="http://www.w3.org/2000/svg"
   xmlns="http://www.w3.org/2000/svg"
   xmlns:sodipodi="http://sodipodi.sourceforge.net/DTD/sodipodi-0.dtd"
   xmlns:inkscape="http://www.inkscape.org/namespaces/inkscape"
   width="512"
   height="512"
   id="svg5542"
   version="1.1"
   inkscape:version="0.48.4 r9939"
   sodipodi:docname="conga.svg">
  <defs
     id="defs5544" />
  <sodipodi:namedview
     id="base"
     pagecolor="#ffffff"
     bordercolor="#666666"
     borderopacity="1.0"
     inkscape:pageopacity="0.0"
     inkscape:pageshadow="2"
     inkscape:zoom="0.35"
     inkscape:cx="514.81754"
     inkscape:cy="-226.83481"
     inkscape:document-units="px"
     inkscape:current-layer="layer1"
     showgrid="false"
     inkscape:window-width="1920"
     inkscape:window-height="1028"
     inkscape:window-x="0"
     inkscape:window-y="25"
     inkscape:window-maximized="1" />
  <metadata
     id="metadata5547">
    <rdf:RDF>
      <cc:Work
         rdf:about="">
        <dc:format>image/svg+xml</dc:format>
        <dc:type
           rdf:resource="http://purl.org/dc/dcmitype/StillImage" />
        <dc:title />
      </cc:Work>
    </rdf:RDF>
  </metadata>
  <g
     inkscape:label="Layer 1"
     inkscape:groupmode="layer"
     id="layer1"
     transform="translate(0,-540.36218)">
    <path
       style="fill:#a2794a;fill-opacity:0.94117647;stroke:#333333;stroke-width:8;stroke-linecap:round;stroke-linejoin:round;stroke-miterlimit:10"
       d="m 127.39699,598.49874 258.33237,0 c 33.97813,121.09236 -7.27613,299.97314 -49.17059,443.52046 l -134.68609,0 -29.60156,0 C 109.31838,798.09352 106.29817,701.97406 127.39699,598.49874 z"
       id="rect125"
       inkscape:connector-curvature="0"
       sodipodi:nodetypes="cccccc" />
    <path
       style="fill:#fee5b9;fill-opacity:1;stroke:#333333;stroke-width:8;stroke-linecap:round;stroke-linejoin:round;stroke-miterlimit:10"
       d="m 129.30989,567.73984 252.81877,0 5,28.10257 -262.14256,0 z"
       id="rect149"
       inkscape:connector-curvature="0"
       sodipodi:nodetypes="ccccc" />
    <path
       sodipodi:nodetypes="cccc"
       inkscape:connector-curvature="0"
       id="path3823"
       d="m 220.20852,629.93153 73.23983,0 -35.70641,83.55268 z"
       style="fill:#fee5b9;fill-opacity:1;stroke:#333333;stroke-width:3.99999952;stroke-linecap:round;stroke-linejoin:round;stroke-miterlimit:4;stroke-opacity:1;stroke-dasharray:none" />
    <path
       sodipodi:nodetypes="ccc"
       inkscape:connector-curvature="0"
       id="path3825"
       d="m 231.03709,600.82862 c 5.00521,32.99755 55.43084,22.37156 50.62022,0 z"
       style="fill:#fee5b9;fill-opacity:1;stroke:#333333;stroke-width:4;stroke-linecap:butt;stroke-linejoin:miter;stroke-miterlimit:4;stroke-opacity:1;stroke-dasharray:none" />
    <path
       style="font-size:medium;font-style:normal;font-variant:normal;font-weight:normal;font-stretch:normal;text-indent:0;text-align:start;text-decoration:none;line-height:normal;letter-spacing:normal;word-spacing:normal;text-transform:none;direction:ltr;block-progression:tb;writing-mode:lr-tb;text-anchor:start;baseline-shift:baseline;color:#000000;fill:#fee5b9;fill-opacity:1;stroke:#333333;stroke-width:3;stroke-miterlimit:4;stroke-opacity:1;stroke-dasharray:none;marker:none;visibility:visible;display:inline;overflow:visible;enable-background:accumulate;font-family:Sans;-inkscape-font-specification:Sans"
       d="m 256.16377,614.95313 a 2.9556622,2.9601668 0 0 0 -2.92458,3.02153 l 0,20.31828 a 2.9556622,2.9601668 0 1 0 5.91073,0 l 0,-20.31828 a 2.9556622,2.9601668 0 0 0 -2.98615,-3.02153 z"
       id="path3827"
       inkscape:connector-curvature="0" />
    <path
       style="fill:#fee5b9;fill-opacity:1;stroke:#333333;stroke-width:4;stroke-linecap:round;stroke-linejoin:round;stroke-miterlimit:4;stroke-opacity:1;stroke-dasharray:none"
       d="m 323.04788,632.83215 56.22797,-3.49232 c -4.25521,24.41052 -6.46348,44.9864 -30.48029,74.68504 -7.75242,-24.82652 -12.94242,-46.36618 -25.74768,-71.19272 z"
       id="path3829"
       inkscape:connector-curvature="0"
       sodipodi:nodetypes="cccc" />
    <path
       style="fill:#fee5b9;fill-opacity:1;stroke:#333333;stroke-width:3.50000024;stroke-linecap:butt;stroke-linejoin:miter;stroke-miterlimit:4;stroke-opacity:1;stroke-dasharray:none"
       d="m 328.41458,601.80709 c 9.59929,29.27921 46.00244,16.91589 41.8462,-0.97211 z"
       id="path3831"
       inkscape:connector-curvature="0"
       sodipodi:nodetypes="ccc" />
    <path
       inkscape:connector-curvature="0"
       id="path3769"
       d="m 351.50389,612.98193 a 3.0003002,2.5082259 0 0 1 2.75,2.19448 c 1.07849,6.3848 2.35325,12.97361 1.71875,19.77642 a 3.0003002,2.5082259 0 1 1 -5.96875,-0.39186 c 0.56158,-6.02107 -0.59983,-12.24009 -1.6875,-18.67919 a 3.0003002,2.5082259 0 0 1 3.1875,-2.89985 z"
       style="font-size:medium;font-style:normal;font-variant:normal;font-weight:normal;font-stretch:normal;text-indent:0;text-align:start;text-decoration:none;line-height:normal;letter-spacing:normal;word-spacing:normal;text-transform:none;direction:ltr;block-progression:tb;writing-mode:lr-tb;text-anchor:start;baseline-shift:baseline;color:#000000;fill:#fee5b9;fill-opacity:1;stroke:#333333;stroke-width:3;stroke-miterlimit:4;stroke-opacity:1;stroke-dasharray:none;marker:none;visibility:visible;display:inline;overflow:visible;enable-background:accumulate;font-family:Sans;-inkscape-font-specification:Sans" />
    <rect
       style="fill:#333333;fill-opacity:1;stroke:none"
       id="rect3794"
       width="6.1044369"
       height="7.771574"
       x="253.10333"
       y="615.81512" />
    <path
       style="fill:#333333;fill-opacity:1;stroke:none"
       d="m 348.32335,613.27598 4.97463,-0.28411 1.32583,8.24508 -4.94307,-0.0316 z"
       id="rect3794-6"
       inkscape:connector-curvature="0"
       sodipodi:nodetypes="ccccc" />
    <path
       transform="matrix(1.4113736,0,0,1.4113736,19.580407,509.57405)"
       d="m 173.03572,96.375 c 0,3.402468 -2.31853,6.16071 -5.17857,6.16071 -2.86005,0 -5.17857,-2.758242 -5.17857,-6.16071 0,-3.402468 2.31852,-6.160714 5.17857,-6.160714 2.86004,0 5.17857,2.758246 5.17857,6.160714 z"
       sodipodi:ry="6.1607141"
       sodipodi:rx="5.1785712"
       sodipodi:cy="96.375"
       sodipodi:cx="167.85715"
       id="path3830"
       style="fill:#333333;fill-opacity:1;stroke:none"
       sodipodi:type="arc" />
    <path
       sodipodi:type="arc"
       style="fill:#333333;fill-opacity:1;stroke:none"
       id="path3832"
       sodipodi:cx="167.85715"
       sodipodi:cy="96.375"
       sodipodi:rx="5.1785712"
       sodipodi:ry="6.1607141"
       d="m 173.03572,96.375 c 0,3.402468 -2.31853,6.16071 -5.17857,6.16071 -2.86005,0 -5.17857,-2.758242 -5.17857,-6.16071 0,-3.402468 2.31852,-6.160714 5.17857,-6.160714 2.86004,0 5.17857,2.758246 5.17857,6.160714 z"
       transform="matrix(1.3894212,0,0,1.3894212,119.7677,508.69456)" />
    <path
       sodipodi:nodetypes="cccc"
       inkscape:connector-curvature="0"
       id="path3768"
       d="m 192.13299,632.83215 -56.22797,-3.49232 c 4.25521,24.41052 6.46348,44.9864 30.48029,74.68504 7.75242,-24.82652 12.94242,-46.36618 25.74768,-71.19272 z"
       style="fill:#fee5b9;fill-opacity:1;stroke:#333333;stroke-width:4;stroke-linecap:round;stroke-linejoin:round;stroke-miterlimit:4;stroke-opacity:1;stroke-dasharray:none" />
    <path
       sodipodi:nodetypes="ccc"
       inkscape:connector-curvature="0"
       id="path3770"
       d="m 186.76629,601.80709 c -9.59929,29.27921 -46.00244,16.91589 -41.8462,-0.97211 z"
       style="fill:#fee5b9;fill-opacity:1;stroke:#333333;stroke-width:3.50000024;stroke-linecap:butt;stroke-linejoin:miter;stroke-miterlimit:4;stroke-opacity:1;stroke-dasharray:none" />
    <path
       style="font-size:medium;font-style:normal;font-variant:normal;font-weight:normal;font-stretch:normal;text-indent:0;text-align:start;text-decoration:none;line-height:normal;letter-spacing:normal;word-spacing:normal;text-transform:none;direction:ltr;block-progression:tb;writing-mode:lr-tb;text-anchor:start;baseline-shift:baseline;color:#000000;fill:#fee5b9;fill-opacity:1;stroke:#333333;stroke-width:3;stroke-miterlimit:4;stroke-opacity:1;stroke-dasharray:none;marker:none;visibility:visible;display:inline;overflow:visible;enable-background:accumulate;font-family:Sans;-inkscape-font-specification:Sans"
       d="m 163.67698,612.98193 a 3.0003002,2.5082259 0 0 0 -2.75,2.19448 c -1.07849,6.3848 -2.35325,12.97361 -1.71875,19.77642 a 3.0003002,2.5082259 0 1 0 5.96875,-0.39186 c -0.56158,-6.02107 0.59983,-12.24009 1.6875,-18.67919 a 3.0003002,2.5082259 0 0 0 -3.1875,-2.89985 z"
       id="path3772"
       inkscape:connector-curvature="0" />
    <path
       sodipodi:nodetypes="ccccc"
       inkscape:connector-curvature="0"
       id="path3774"
       d="m 166.85752,613.27598 -4.97463,-0.28411 -1.32583,8.24508 4.94307,-0.0316 z"
       style="fill:#333333;fill-opacity:1;stroke:none" />
    <path
       transform="matrix(-1.3894212,0,0,1.3894212,395.41317,508.69456)"
       d="m 173.03572,96.375 c 0,3.402468 -2.31853,6.16071 -5.17857,6.16071 -2.86005,0 -5.17857,-2.758242 -5.17857,-6.16071 0,-3.402468 2.31852,-6.160714 5.17857,-6.160714 2.86004,0 5.17857,2.758246 5.17857,6.160714 z"
       sodipodi:ry="6.1607141"
       sodipodi:rx="5.1785712"
       sodipodi:cy="96.375"
       sodipodi:cx="167.85715"
       id="path3776"
       style="fill:#333333;fill-opacity:1;stroke:none"
       sodipodi:type="arc" />
    <path
       style="font-size:medium;font-style:normal;font-variant:normal;font-weight:normal;font-stretch:normal;text-indent:0;text-align:start;text-decoration:none;line-height:normal;letter-spacing:normal;word-spacing:normal;text-transform:none;direction:ltr;block-progression:tb;writing-mode:lr-tb;text-anchor:start;baseline-shift:baseline;color:#000000;fill:#fee5b9;fill-opacity:1;stroke:#333333;stroke-width:3;marker:none;visibility:visible;display:inline;overflow:visible;enable-background:accumulate;font-family:Sans;-inkscape-font-specification:Sans;stroke-opacity:1;stroke-miterlimit:4;stroke-dasharray:none"
       d="m 231.46875,969.40625 -6.84375,10.65625 -19.3125,30 -17.375,-29.375 -6.21875,-10.53125 -7.15625,9.9375 -10.42752,14.48967 5.26643,20.23578 2.59859,-3.7567 8.40625,-11.6875 17.71875,30 6.59375,11.1562 7.03125,-10.9062 19.4375,-30.25 17.8125,28.8125 6.78125,10.9375 6.8125,-10.9375 17.4375,-27.9375 20.0625,29.3438 7.78125,11.375 6.03125,-12.4063 14.0625,-29 10.4375,12.375 1.9375,2.3739 5.25334,-18.70443 L 332.25,979.8125 324.3125,970.40625 318.9375,981.5 305.53125,1009.1875 286.3125,981.125 279.40625,971 l -6.46875,10.40625 -17.09375,27.37495 -17.6875,-28.5937 z"
       id="path3778"
       inkscape:connector-curvature="0"
       sodipodi:nodetypes="ccccccccccccccccccccccccccccccccccc" />
  </g>
</svg>
