<?xml version="1.0" encoding="UTF-8" standalone="no"?>
<!-- Generator: Adobe Illustrator 17.1.0, SVG Export Plug-In . SVG Version: 6.00 Build 0)  -->

<svg
   xmlns:dc="http://purl.org/dc/elements/1.1/"
   xmlns:cc="http://creativecommons.org/ns#"
   xmlns:rdf="http://www.w3.org/1999/02/22-rdf-syntax-ns#"
   xmlns:svg="http://www.w3.org/2000/svg"
   xmlns="http://www.w3.org/2000/svg"
   xmlns:sodipodi="http://sodipodi.sourceforge.net/DTD/sodipodi-0.dtd"
   xmlns:inkscape="http://www.inkscape.org/namespaces/inkscape"
   version="1.1"
   id="Capa_1"
   x="0px"
   y="0px"
   viewBox="0 0 199.366 199.366"
   style="enable-background:new 0 0 199.366 199.366;"
   xml:space="preserve"
   inkscape:version="0.48.4 r9939"
   width="100%"
   height="100%"
   sodipodi:docname="conga2.svg"><metadata
     id="metadata39"><rdf:RDF><cc:Work
         rdf:about=""><dc:format>image/svg+xml</dc:format><dc:type
           rdf:resource="http://purl.org/dc/dcmitype/StillImage" /></cc:Work></rdf:RDF></metadata><defs
     id="defs37" /><sodipodi:namedview
     pagecolor="#ffffff"
     bordercolor="#666666"
     borderopacity="1"
     objecttolerance="10"
     gridtolerance="10"
     guidetolerance="10"
     inkscape:pageopacity="0"
     inkscape:pageshadow="2"
     inkscape:window-width="1829"
     inkscape:window-height="946"
     id="namedview35"
     showgrid="false"
     inkscape:zoom="0.59187624"
     inkscape:cx="28.140868"
     inkscape:cy="-30.477885"
     inkscape:window-x="0"
     inkscape:window-y="25"
     inkscape:window-maximized="0"
     inkscape:current-layer="Capa_1" /><path
     d="m 53.435838,29.773341 -0.258544,0.517088 C 44.443885,49.393726 39.16421,60.939266 39.16421,89.962376 c 0,13.722274 3.544741,30.515224 7.704611,45.555444 0.01986,0.17788 0.05733,0.33404 0.129271,0.49124 3.765228,13.53033 8.034307,25.59751 10.652013,32.62825 2.946988,7.91185 10.614368,13.23745 19.080545,13.23745 l 46.12424,0 c 8.46618,0 16.13357,-5.32477 19.08055,-13.23745 2.61771,-7.03074 6.88679,-19.07207 10.65201,-32.6024 0.0728,-0.15802 0.10942,-0.33673 0.12927,-0.51709 4.15988,-15.0394 7.67877,-31.83317 7.67877,-45.555444 0,-29.023937 -5.253,-40.566995 -13.98723,-59.671947 l -0.25856,-0.517088 -92.713862,0 z"
     id="path3794"
     inkscape:connector-curvature="0"
     style="fill:#e9b96e;stroke:#333333;stroke-opacity:1;stroke-width:3.00000004;stroke-miterlimit:4;stroke-dasharray:none" /><path
     style="fill:#333333;fill-opacity:1"
     d="M 65.90625,30 52.28125,60.28125 55.5625,61.0625 68.46875,32.34375 81.75,61.9375 l 4.65625,0 L 99.6875,32.34375 113,61.9375 l 4.625,0 13.3125,-29.59375 12.75,28.40625 3.375,-0.59375 L 133.5,30 128.375,30 115.3125,59.03125 102.25,30 97.125,30 84.0625,59.03125 71.03125,30 z"
     id="path3"
     inkscape:connector-curvature="0"
     sodipodi:nodetypes="cccccccccccccccccccc" /><g
     id="g5" /><g
     id="g7" /><g
     id="g9" /><g
     id="g11" /><g
     id="g13" /><g
     id="g15" /><g
     id="g17" /><g
     id="g19" /><g
     id="g21" /><g
     id="g23" /><g
     id="g25" /><g
     id="g27" /><g
     id="g29" /><g
     id="g31" /><g
     id="g33" /><path
     transform="matrix(0.6471231,0,0,0.6471231,22.097262,19.976362)"
     d="m 58.289211,69.165642 a 10.031658,10.031658 0 1 1 -20.063316,0 10.031658,10.031658 0 1 1 20.063316,0 z"
     sodipodi:ry="10.031658"
     sodipodi:rx="10.031658"
     sodipodi:cy="69.165642"
     sodipodi:cx="48.257553"
     id="path3826"
     style="fill:none;stroke:#333333;stroke-width:7.72650528;stroke-miterlimit:4;stroke-opacity:1;stroke-dasharray:none"
     sodipodi:type="arc" /><path
     sodipodi:type="arc"
     style="fill:none;stroke:#333333;stroke-width:7.38665898;stroke-miterlimit:4;stroke-opacity:1;stroke-dasharray:none"
     id="path3804"
     sodipodi:cx="48.257553"
     sodipodi:cy="69.165642"
     sodipodi:rx="10.031658"
     sodipodi:ry="10.031658"
     d="m 58.289211,69.165642 a 10.031658,10.031658 0 1 1 -20.063316,0 10.031658,10.031658 0 1 1 20.063316,0 z"
     transform="matrix(0.67689602,0,0,0.67689602,51.349014,20.007801)" /><path
     transform="matrix(0.67689602,0,0,0.67689602,82.56021,20.007801)"
     d="m 58.289211,69.165642 a 10.031658,10.031658 0 1 1 -20.063316,0 10.031658,10.031658 0 1 1 20.063316,0 z"
     sodipodi:ry="10.031658"
     sodipodi:rx="10.031658"
     sodipodi:cy="69.165642"
     sodipodi:cx="48.257553"
     id="path3806"
     style="fill:none;stroke:#333333;stroke-width:7.38665898;stroke-miterlimit:4;stroke-opacity:1;stroke-dasharray:none"
     sodipodi:type="arc" /><path
     sodipodi:type="arc"
     style="fill:none;stroke:#333333;stroke-width:7.72650528;stroke-miterlimit:4;stroke-opacity:1;stroke-dasharray:none"
     id="path3810"
     sodipodi:cx="48.257553"
     sodipodi:cy="69.165642"
     sodipodi:rx="10.031658"
     sodipodi:ry="10.031658"
     d="m 58.289211,69.165642 a 10.031658,10.031658 0 1 1 -20.063316,0 10.031658,10.031658 0 1 1 20.063316,0 z"
     transform="matrix(0.6471231,0,0,0.6471231,114.8637,19.976362)" /><path
     d="m 52.787756,18.435253 c -2.778408,0 -5.025338,2.386675 -5.026114,5.299933 l 0,5.669696 c 0,0.786092 0.54963,1.450463 1.256529,1.602305 l 100.960609,0 c 0.70689,-0.151842 1.22731,-0.816213 1.22731,-1.602305 l 0,-5.669696 c 0,-2.913258 -2.27694,-5.299933 -5.05533,-5.299933 l -93.363004,0 z"
     id="path3825"
     inkscape:connector-curvature="0"
     style="fill:#333333;fill-opacity:1" /><path
     d="m 54.9375,160.90625 c 1.002175,2.83675 1.947593,5.43989 2.71875,7.5 2.95551,7.89221 10.63436,13.1875 19.125,13.1875 l 46.25,0 c 8.49064,0 16.20075,-5.29448 19.15625,-13.1875 0.77116,-2.06011 1.71657,-4.6664 2.71875,-7.5 l -89.96875,0 z"
     id="path3043"
     style="fill:#333333;fill-opacity:1" /></svg>