<?xml version="1.0" encoding="UTF-8" standalone="no"?>
<!-- Created with Inkscape (http://www.inkscape.org/) -->

<svg
   xmlns:dc="http://purl.org/dc/elements/1.1/"
   xmlns:cc="http://creativecommons.org/ns#"
   xmlns:rdf="http://www.w3.org/1999/02/22-rdf-syntax-ns#"
   xmlns:svg="http://www.w3.org/2000/svg"
   xmlns="http://www.w3.org/2000/svg"
   xmlns:sodipodi="http://sodipodi.sourceforge.net/DTD/sodipodi-0.dtd"
   xmlns:inkscape="http://www.inkscape.org/namespaces/inkscape"
   width="512"
   height="512"
   id="svg5542"
   version="1.1"
   inkscape:version="0.48.4 r9939"
   sodipodi:docname="cowbell2.svg">
  <defs
     id="defs5544" />
  <sodipodi:namedview
     id="base"
     pagecolor="#ffffff"
     bordercolor="#666666"
     borderopacity="1.0"
     inkscape:pageopacity="0.0"
     inkscape:pageshadow="2"
     inkscape:zoom="0.7"
     inkscape:cx="74.819418"
     inkscape:cy="154.92064"
     inkscape:document-units="px"
     inkscape:current-layer="layer1"
     showgrid="false"
     inkscape:window-width="1920"
     inkscape:window-height="1028"
     inkscape:window-x="0"
     inkscape:window-y="25"
     inkscape:window-maximized="1" />
  <metadata
     id="metadata5547">
    <rdf:RDF>
      <cc:Work
         rdf:about="">
        <dc:format>image/svg+xml</dc:format>
        <dc:type
           rdf:resource="http://purl.org/dc/dcmitype/StillImage" />
        <dc:title />
      </cc:Work>
    </rdf:RDF>
  </metadata>
  <g
     inkscape:label="Layer 1"
     inkscape:groupmode="layer"
     id="layer1"
     transform="translate(0,-540.36218)">
    <rect
       style="fill:#222222;fill-opacity:1;stroke:none"
       id="rect3761"
       width="61.446121"
       height="38.279587"
       x="220.04205"
       y="583.13953"
       rx="2.2119474"
       ry="1.5789526" />
    <path
       style="fill:#b51d10;fill-opacity:1;stroke:#222222;stroke-width:5.71581459;stroke-linecap:butt;stroke-linejoin:round;stroke-miterlimit:4;stroke-opacity:1;stroke-dasharray:none;stroke-dashoffset:8"
       d="m 167.24004,613.01612 161.31108,0 c 3.84304,0 5.98844,3.21274 6.93689,6.93689 l 75.6583,297.04783 c 0.74929,2.94182 -14.63124,55.70568 -22.5917,78.1744 -3.96151,6.84816 -8.67263,9.39586 -16.80505,10.76676 l -231.87281,0.7712 c -7.518,0.3337 -11.9538,-5.4796 -15.48322,-11.63026 -8.44358,-23.14577 -24.15029,-77.58311 -23.5495,-80.55955 l 59.45912,-294.57038 c 0.76038,-3.76707 3.09386,-6.93689 6.93689,-6.93689 z"
       id="rect2987"
       inkscape:connector-curvature="0"
       sodipodi:nodetypes="ssssccccsss" />
    <path
       style="fill:#b51c10;fill-opacity:1;stroke:#ff7b16;stroke-width:21.6472187;stroke-linecap:butt;stroke-linejoin:round;stroke-miterlimit:4;stroke-opacity:1;stroke-dasharray:none;stroke-dashoffset:8"
       d="m 124.75205,911.56016 264.41803,0 c 5.39121,0 11.24789,4.67157 9.73142,9.9739 l -18.06769,63.16798 c -1.51663,5.3023 -4.3402,9.9738 -9.73141,9.9738 l -228.32825,0 c -5.39123,0 -8.21835,-4.6705 -9.73144,-9.9738 l -18.02209,-63.16798 c -1.51309,-5.30345 4.34023,-9.9739 9.73143,-9.9739 z"
       id="rect2989"
       inkscape:connector-curvature="0"
       sodipodi:nodetypes="sssssssss" />
  </g>
</svg>
