<?xml version="1.0" encoding="UTF-8" standalone="no"?>
<!-- Created with Inkscape (http://www.inkscape.org/) -->

<svg
   xmlns:dc="http://purl.org/dc/elements/1.1/"
   xmlns:cc="http://creativecommons.org/ns#"
   xmlns:rdf="http://www.w3.org/1999/02/22-rdf-syntax-ns#"
   xmlns:svg="http://www.w3.org/2000/svg"
   xmlns="http://www.w3.org/2000/svg"
   xmlns:sodipodi="http://sodipodi.sourceforge.net/DTD/sodipodi-0.dtd"
   xmlns:inkscape="http://www.inkscape.org/namespaces/inkscape"
   width="512"
   height="512"
   id="svg5542"
   version="1.1"
   inkscape:version="0.48.4 r9939"
   sodipodi:docname="cowbell.svg">
  <defs
     id="defs5544" />
  <sodipodi:namedview
     id="base"
     pagecolor="#ffffff"
     bordercolor="#666666"
     borderopacity="1.0"
     inkscape:pageopacity="0.0"
     inkscape:pageshadow="2"
     inkscape:zoom="0.24748737"
     inkscape:cx="-1862.6654"
     inkscape:cy="444.26846"
     inkscape:document-units="px"
     inkscape:current-layer="layer1"
     showgrid="false"
     inkscape:window-width="1920"
     inkscape:window-height="1028"
     inkscape:window-x="0"
     inkscape:window-y="25"
     inkscape:window-maximized="1" />
  <metadata
     id="metadata5547">
    <rdf:RDF>
      <cc:Work
         rdf:about="">
        <dc:format>image/svg+xml</dc:format>
        <dc:type
           rdf:resource="http://purl.org/dc/dcmitype/StillImage" />
        <dc:title />
      </cc:Work>
    </rdf:RDF>
  </metadata>
  <g
     inkscape:label="Layer 1"
     inkscape:groupmode="layer"
     id="layer1"
     transform="translate(0,-540.36218)">
    <rect
       style="fill:none;stroke:#222222;stroke-width:22.18442917000000136;stroke-miterlimit:4;stroke-opacity:1;stroke-dasharray:none"
       id="rect3779"
       width="95.076134"
       height="63.384087"
       x="210.17102"
       y="602.19275"
       rx="6.3384089"
       ry="6.3384089" />
    <path
       style="fill:#b51d10;fill-opacity:1;stroke:#222222;stroke-width:7.68613767999999986;stroke-miterlimit:4;stroke-opacity:1;stroke-dasharray:none"
       d="m 177.16811,638.95163 158.80275,0 c 14.0459,0 22.31134,6.85445 23.75293,20.8262 l 32.25797,312.64932 c 1.44154,13.9718 -11.30772,25.35361 -25.35366,25.35361 l -221.24912,0 c -14.04591,0 -26.84521,-11.3871 -25.35363,-25.35361 l 33.38982,-312.64932 c 1.49158,-13.96648 9.70702,-20.8262 23.75294,-20.8262 z"
       id="rect3776"
       inkscape:connector-curvature="0"
       sodipodi:nodetypes="sssssssss" />
    <path
       style="fill:#fcaf3e;fill-opacity:1;stroke:none"
       d="m 126.29176,968.7192 259.62269,0 c 3.47875,0 2.27933,4.69024 2.27933,10.51623 0,5.82599 -12.80058,14.51623 -16.27933,14.51623 l -233.62269,0 c -3.47875,0 -14.27933,-8.69024 -14.27933,-14.51623 0,-5.82599 -1.19942,-10.51623 2.27933,-10.51623 z"
       id="rect3752"
       inkscape:connector-curvature="0"
       sodipodi:nodetypes="sssssss" />
  </g>
</svg>
