<?xml version="1.0" encoding="UTF-8" standalone="no"?>
<!-- Created with Inkscape (http://www.inkscape.org/) -->

<svg
   xmlns:dc="http://purl.org/dc/elements/1.1/"
   xmlns:cc="http://creativecommons.org/ns#"
   xmlns:rdf="http://www.w3.org/1999/02/22-rdf-syntax-ns#"
   xmlns:svg="http://www.w3.org/2000/svg"
   xmlns="http://www.w3.org/2000/svg"
   xmlns:sodipodi="http://sodipodi.sourceforge.net/DTD/sodipodi-0.dtd"
   xmlns:inkscape="http://www.inkscape.org/namespaces/inkscape"
   width="512"
   height="512"
   id="svg5250"
   version="1.1"
   inkscape:version="0.48.4 r9939"
   sodipodi:docname="kick.svg">
  <defs
     id="defs5252" />
  <sodipodi:namedview
     id="base"
     pagecolor="#ffffff"
     bordercolor="#666666"
     borderopacity="1.0"
     inkscape:pageopacity="0.0"
     inkscape:pageshadow="2"
     inkscape:zoom="1.4"
     inkscape:cx="168.26416"
     inkscape:cy="289.04772"
     inkscape:document-units="px"
     inkscape:current-layer="layer1"
     showgrid="false"
     inkscape:window-width="1920"
     inkscape:window-height="1028"
     inkscape:window-x="0"
     inkscape:window-y="25"
     inkscape:window-maximized="1" />
  <metadata
     id="metadata5255">
    <rdf:RDF>
      <cc:Work
         rdf:about="">
        <dc:format>image/svg+xml</dc:format>
        <dc:type
           rdf:resource="http://purl.org/dc/dcmitype/StillImage" />
        <dc:title />
      </cc:Work>
    </rdf:RDF>
  </metadata>
  <g
     inkscape:label="Layer 1"
     inkscape:groupmode="layer"
     id="layer1"
     transform="translate(0,-540.36218)">
    <g
       id="g404"
       transform="matrix(1.1965068,0,0,1,-944.6808,-288.63782)">
      <path
         style="fill:#eefaf9;stroke:#333333;stroke-width:5.48521519;stroke-linecap:round;stroke-linejoin:round;stroke-miterlimit:10"
         inkscape:connector-curvature="0"
         id="path406"
         d="m 815.3,1050.3 c 0.3,-5.6 5.3,-10 11,-9.7 5.6,0.3 10.3,5 10,10.7 l -2.7,58 -21,-1 2.7,-58 z"
         stroke-miterlimit="10" />
      <path
         style="fill:#eefaf9;stroke:#333333;stroke-width:5.48521519;stroke-linecap:round;stroke-linejoin:round;stroke-miterlimit:10"
         inkscape:connector-curvature="0"
         id="path408"
         d="m 828.6,1109.1 -7.7,167.4 c -0.1,3.1 -2.6,5.5 -5.8,5.4 -3.1,-0.1 -5.4,-2.8 -5.2,-5.9 l 7.7,-167.4 11,0.5 z"
         stroke-miterlimit="10" />
      <path
         style="fill:#5c5c5c;stroke:#333333;stroke-width:5.48521519;stroke-linecap:round;stroke-linejoin:round;stroke-miterlimit:10"
         inkscape:connector-curvature="0"
         id="path410"
         d="m 803.4,1269 0,0 7.3,-10.6 11,0.4 6.1,11.2 h 0 c 1.2,3 1.8,4.8 1.7,7.5 -0.4,7.8 -7,13.9 -14.8,13.5 -7.8,-0.4 -13.8,-7.2 -13.5,-15 0.2,-2.5 0.9,-5 2.2,-7 z"
         stroke-miterlimit="10" />
    </g>
    <g
       id="g412"
       transform="matrix(1.1293637,0,0,1,-939.15846,-288.63782)">
      <path
         style="fill:#eefaf9;stroke:#333333;stroke-width:5.64591503;stroke-linecap:round;stroke-linejoin:round;stroke-miterlimit:10"
         inkscape:connector-curvature="0"
         id="path414"
         d="m 1256.2,1050.3 c -0.3,-5.6 -5.3,-10 -11,-9.7 -5.6,0.3 -10.3,5 -10,10.7 l 2.7,58 21,-1 -2.7,-58 z"
         stroke-miterlimit="10" />
      <path
         style="fill:#eefaf9;stroke:#333333;stroke-width:5.64591503;stroke-linecap:round;stroke-linejoin:round;stroke-miterlimit:10"
         inkscape:connector-curvature="0"
         id="path416"
         d="m 1242.9,1109.1 7.7,167.4 c 0.1,3.1 2.6,5.5 5.8,5.4 3.1,-0.1 5.4,-2.8 5.2,-5.9 l -7.7,-167.4 -11,0.5 z"
         stroke-miterlimit="10" />
      <path
         style="fill:#5c5c5c;stroke:#333333;stroke-width:5.64591503;stroke-linecap:round;stroke-linejoin:round;stroke-miterlimit:10"
         inkscape:connector-curvature="0"
         id="path418"
         d="m 1268.1,1269 0,0 -7.3,-10.6 -11,0.4 -6.1,11.2 h 0 c -1.2,3 -1.8,4.8 -1.7,7.5 0.4,7.8 7,13.9 14.8,13.5 7.8,-0.4 13.8,-7.2 13.5,-15 -0.2,-2.5 -1,-5 -2.2,-7 z"
         stroke-miterlimit="10" />
    </g>
    <circle
       style="fill:#ff572f;stroke:#333333;stroke-width:8;stroke-linecap:round;stroke-linejoin:round;stroke-miterlimit:10;fill-opacity:0.94117647"
       sodipodi:ry="210"
       sodipodi:rx="210"
       sodipodi:cy="1085"
       sodipodi:cx="1035.7"
       d="m 1245.7,1085 c 0,115.9798 -94.0203,210 -210,210 -115.97985,0 -210.00005,-94.0202 -210.00005,-210 0,-115.9798 94.0202,-210 210.00005,-210 115.9797,0 210,94.0202 210,210 z"
       id="circle421"
       r="210"
       cy="1085"
       cx="1035.7"
       stroke-miterlimit="10"
       transform="translate(-779.75,-288.63782)" />
    <circle
       style="fill:none"
       sodipodi:ry="201.2"
       sodipodi:rx="201.2"
       sodipodi:cy="1085"
       sodipodi:cx="1035.7"
       d="m 1236.8999,1085 c 0,111.1197 -90.0803,201.2 -201.1999,201.2 -111.11974,0 -201.20005,-90.0803 -201.20005,-201.2 0,-111.11969 90.08031,-201.2 201.20005,-201.2 111.1196,0 201.1999,90.08031 201.1999,201.2 z"
       r="201.2"
       cy="1085"
       cx="1035.7"
       id="Inner-Drum-Wobble"
       transform="translate(-779.75,-288.63782)" />
    <circle
       style="fill:#fdfffc;stroke:#333333;stroke-width:8.24461079;stroke-linecap:round;stroke-linejoin:round;stroke-miterlimit:10"
       sodipodi:ry="192.60001"
       sodipodi:rx="192.60001"
       sodipodi:cy="1085"
       sodipodi:cx="1035.7"
       d="m 1228.3,1085 c 0,106.37 -86.23,192.6 -192.6,192.6 -106.3701,0 -192.60005,-86.23 -192.60005,-192.6 0,-106.37005 86.22995,-192.60001 192.60005,-192.60001 106.37,0 192.6,86.22996 192.6,192.60001 z"
       r="192.60001"
       cy="1085"
       cx="1035.7"
       stroke-miterlimit="10"
       id="Inner-Drum"
       transform="matrix(0.97033081,0,0,0.97033081,-749.02159,-256.44679)" />
    <g
       id="Drum-Logo-Wobble"
       transform="translate(-779.75,-288.63782)">
      <g
         id="g426">
        <path
           style="fill:none"
           inkscape:connector-curvature="0"
           id="path428"
           d="m 980.6,942.2 -4.3,19.9 h 0.8 c 7.1,0 12.2,-8.3 12.2,-15 0,-4.8 -2.7,-9 -9.4,-9 -13.9,0 -23.1,7.8 -23.1,20.8 0,4.4 1.1,5.1 1.2,5.8 -5.9,0 -9.2,-2.1 -9.2,-8.3 0,-11.4 15.8,-22.3 30.1,-22.3 13.5,0 19.4,6.7 19.4,13.7 0,5.2 -3.3,11.2 -9.2,14.6 4.5,1.3 5.9,4.5 5.9,8.6 0,7 -4.2,16.4 -4.2,21.7 0,2.6 1.3,4.9 3.3,5.7 -3.6,1 -6.4,1.5 -8.5,1.5 -5.6,0 -6.7,-2.9 -6.7,-5.7 0,-5.7 4.5,-16 4.5,-22.5 0,-3.4 -1.3,-5.8 -5.1,-5.8 -0.8,0 -1.7,0.1 -2.7,0.3 l -6.9,32.3 h -12.3 l 11.7,-54.5 12.5,-1.8 z" />
        <path
           style="fill:none"
           inkscape:connector-curvature="0"
           id="path430"
           d="m 1068.7,955.4 c -2.8,0 -5.4,1 -7.4,2.5 l 4.1,-19.4 -12.7,1.7 -9.5,44.5 c -0.3,1.5 -0.5,2.8 -0.5,4 -1.6,1.1 -3.2,1.9 -4.5,1.9 -3.4,0 -4.3,-1.4 -4.3,-3.3 0,-0.8 0.2,-2 0.3,-2.9 l 6.2,-29.4 h -12.3 l -6.2,29.4 c -0.3,1 -0.4,2.1 -0.5,3 -2.1,1.7 -4.3,3.2 -6.1,3.2 -3.4,0 -4.3,-1.3 -4.3,-3.2 0,-0.8 0.2,-2 0.3,-2.9 l 6.2,-29.4 h -12.3 l -6.2,29.4 c -0.3,1.6 -0.5,3.2 -0.5,4.5 0,6.4 4.1,9.4 10.7,9.4 3.7,0 8.3,-3.4 12.3,-7.2 0.8,5 4.7,7.2 10.5,7.2 3.3,0 7.4,-2.8 11.1,-6.1 1.5,4.7 6.6,6.4 13.6,6.4 15.3,0 22.7,-18.9 22.7,-32.4 0.1,-5.1 -2.5,-10.9 -10.7,-10.9 z m -10.1,37.1 c -2.6,0 -3.8,-0.6 -3.8,-3.2 0,-1.1 0.3,-2.7 0.7,-4.7 l 4.9,-23 c 0.8,-0.6 3.8,-1.2 4.6,-1.2 2.1,0 4.9,1.2 4.9,6.3 0,6.3 -4.2,25.8 -11.3,25.8 z" />
        <path
           style="fill:none"
           inkscape:connector-curvature="0"
           id="path432"
           d="m 1099.1,955.5 -6.3,29.1 c -0.3,0.9 -0.4,1.9 -0.4,2.7 0,1.9 0.9,3.2 4.3,3.2 2,0 4.3,-1.5 6.5,-3.4 l 6.7,-31.6 h 12.4 l -10.5,49.7 c -2.6,12.2 -9.9,14.6 -15.6,14.6 -5.2,0 -10.1,-3.7 -10.1,-9.3 0,-8 6.7,-10.5 14.8,-12.8 l 1.3,-5.9 c -3.9,3.5 -8.2,6.6 -11.6,6.6 -6.7,0 -10.6,-2.9 -10.6,-9.3 0,-1.4 0.2,-2.7 0.5,-4.4 l 6,-29.1 h 12.6 z m -4.8,56.7 c 1.7,0 4,-1.6 5.1,-6.7 l 1,-5.1 c -5.4,1.8 -9.5,4.3 -9.5,8.9 -0.1,1.2 1.5,2.9 3.4,2.9 z" />
      </g>
      <line
         style="fill:none"
         id="line434"
         y2="1009"
         x2="1078"
         y1="1009"
         x1="955" />
    </g>
    <path
       stroke-miterlimit="10"
       d="m 44.205937,783.30562 c -7.689107,0 -13.455938,5.95784 -13.455938,13.31006 0,7.35223 5.766831,13.31006 13.455938,13.31006 v 11.78892 h 25.630358 v -50.705 H 44.205937 v 12.29596 z"
       id="path453"
       inkscape:connector-curvature="0"
       style="fill:#eefaf9;stroke:#333333;stroke-width:7.99999952;stroke-linecap:round;stroke-linejoin:round;stroke-miterlimit:10" />
    <path
       stroke-miterlimit="10"
       d="m 139.66945,974.60225 c -3.74188,6.52074 -1.49675,14.29547 4.73971,17.93203 6.23646,3.63657 14.09441,1.75559 17.83628,-4.76515 l 10.10306,5.89374 12.47293,-21.694 -43.15631,-25.07977 -12.47293,21.694 10.47726,6.01915 z"
       id="path463"
       inkscape:connector-curvature="0"
       style="fill:#eefaf9;stroke:#333333;stroke-width:8;stroke-linecap:round;stroke-linejoin:round;stroke-miterlimit:10" />
    <path
       stroke-miterlimit="10"
       d="m 350.19026,988.23783 c 3.82198,6.66469 11.84812,8.58719 18.21807,4.87035 6.36996,-3.71684 8.66314,-11.66321 4.84117,-18.32789 l 10.19193,-5.89569 -12.73992,-22.17291 -44.08009,25.63342 12.73992,22.17291 10.82892,-6.28019 z"
       id="path473"
       inkscape:connector-curvature="0"
       style="fill:#eefaf9;stroke:#333333;stroke-width:8;stroke-linecap:round;stroke-linejoin:round;stroke-miterlimit:10" />
    <path
       stroke-miterlimit="10"
       d="m 466.79097,808.95531 c 7.40515,0 12.95901,-5.74638 12.95901,-12.83766 0,-7.09128 -5.55386,-12.83766 -12.95901,-12.83766 v -11.3705 h -24.68384 v 48.90538 h 24.68384 v -11.85956 z"
       id="path483"
       inkscape:connector-curvature="0"
       style="fill:#eefaf9;stroke:#333333;stroke-width:8;stroke-linecap:round;stroke-linejoin:round;stroke-miterlimit:10" />
    <path
       stroke-miterlimit="10"
       d="m 372.8764,617.6574 c 3.82428,-6.66675 1.52971,-14.61557 -4.84408,-18.33356 -6.37379,-3.71799 -14.40476,-1.7949 -18.22903,4.87185 l -10.19806,-5.89751 -12.74759,22.17977 44.10662,25.64136 12.74758,-22.17977 -10.83544,-6.28214 z"
       id="path493"
       inkscape:connector-curvature="0"
       style="fill:#eefaf9;stroke:#333333;stroke-width:8;stroke-linecap:round;stroke-linejoin:round;stroke-miterlimit:10" />
    <path
       stroke-miterlimit="10"
       d="m 161.54943,604.9699 c -3.69419,-6.43642 -11.452,-8.29307 -17.60898,-4.70354 -6.157,3.58955 -8.37351,11.26374 -4.67931,17.70016 l -9.97432,5.81753 12.31397,21.41348 42.60635,-24.75546 -12.31397,-21.41348 -10.34374,5.94131 z"
       id="path503"
       inkscape:connector-curvature="0"
       style="fill:#eefaf9;stroke:#333333;stroke-width:8;stroke-linecap:round;stroke-linejoin:round;stroke-miterlimit:10" />
  </g>
</svg>
