<?xml version="1.0" encoding="UTF-8" standalone="no"?>
<!-- Created with Inkscape (http://www.inkscape.org/) -->

<svg
   xmlns:dc="http://purl.org/dc/elements/1.1/"
   xmlns:cc="http://creativecommons.org/ns#"
   xmlns:rdf="http://www.w3.org/1999/02/22-rdf-syntax-ns#"
   xmlns:svg="http://www.w3.org/2000/svg"
   xmlns="http://www.w3.org/2000/svg"
   xmlns:sodipodi="http://sodipodi.sourceforge.net/DTD/sodipodi-0.dtd"
   xmlns:inkscape="http://www.inkscape.org/namespaces/inkscape"
   width="512"
   height="512"
   id="svg5542"
   version="1.1"
   inkscape:version="0.48.4 r9939"
   sodipodi:docname="maracas2.svg">
  <defs
     id="defs5544" />
  <sodipodi:namedview
     id="base"
     pagecolor="#ffffff"
     bordercolor="#666666"
     borderopacity="1.0"
     inkscape:pageopacity="0.0"
     inkscape:pageshadow="2"
     inkscape:zoom="0.49497475"
     inkscape:cx="-714.123"
     inkscape:cy="166.02161"
     inkscape:document-units="px"
     inkscape:current-layer="layer1"
     showgrid="false"
     inkscape:window-width="1920"
     inkscape:window-height="1028"
     inkscape:window-x="0"
     inkscape:window-y="25"
     inkscape:window-maximized="1" />
  <metadata
     id="metadata5547">
    <rdf:RDF>
      <cc:Work
         rdf:about="">
        <dc:format>image/svg+xml</dc:format>
        <dc:type
           rdf:resource="http://purl.org/dc/dcmitype/StillImage" />
        <dc:title />
      </cc:Work>
    </rdf:RDF>
  </metadata>
  <g
     inkscape:label="Layer 1"
     inkscape:groupmode="layer"
     id="layer1"
     transform="translate(0,-540.36218)">
    <path
       style="fill:#d9bb7a;fill-opacity:1;stroke:#333333;stroke-width:6;stroke-linecap:round;stroke-linejoin:round;stroke-miterlimit:4;stroke-opacity:1;stroke-dasharray:none"
       d="m 331.19264,799.39868 c -7.39967,35.33758 -18.59419,70.68701 -25.72724,105.78577 -1.95826,9.847 3.73351,19.26632 12.71049,21.05156 8.97696,1.78524 17.83954,-4.73969 19.7978,-14.58669 5.53083,-35.00365 11.23317,-72.03339 16.74429,-107.60662"
       id="path3855"
       inkscape:connector-curvature="0"
       sodipodi:nodetypes="ccscc" />
    <path
       sodipodi:nodetypes="sscss"
       inkscape:connector-curvature="0"
       id="path3894"
       d="m 383.52951,597.60889 c -43.69142,-8.68885 -88.24938,30.20046 -99.52029,86.87563 -10.2413,51.49782 8.02619,108.18709 57.90258,118.07775 49.87639,9.89066 90.08867,-35.13032 100.32655,-86.61094 11.27091,-56.67517 -15.01745,-109.65359 -58.70884,-118.34244 z"
       style="fill:#f44800;fill-opacity:1;stroke:#333333;stroke-width:6;stroke-miterlimit:4;stroke-opacity:1;stroke-dasharray:none" />
    <path
       sodipodi:nodetypes="ssccsccss"
       inkscape:connector-curvature="0"
       id="path3867"
       d="m 794.98973,625.70593 c -44.54701,0 -80.66384,46.83337 -80.66384,104.61839 0,52.50628 29.82362,95.99954 68.69109,103.50398 -0.36499,36.10216 -4.44963,72.95613 -4.5997,108.77206 0,10.03983 7.41968,18.16807 16.57245,18.16807 9.15276,0 16.57244,-8.12824 16.57244,-18.16807 -1.40283,-35.41014 -3.03263,-72.8409 -4.56588,-108.80583 38.84842,-7.52596 68.65727,-50.98146 68.65727,-103.47021 0,-57.78502 -36.11684,-104.61839 -80.66383,-104.61839 z"
       style="fill:#fee5b9;fill-opacity:1;stroke:#333333;stroke-width:6;stroke-linecap:round;stroke-linejoin:round;stroke-miterlimit:4;stroke-opacity:1;stroke-dasharray:none" />
    <path
       sodipodi:nodetypes="cccccccc"
       inkscape:connector-curvature="0"
       id="path3869"
       d="m 692.63606,747.88272 26.83313,-25.91123 23.72834,26.45385 24.01179,-23.53845 27.5446,24.40067 24.97589,-26.73479 28.65937,24.9237 36.57523,-39.38138"
       style="fill:none;stroke:#000000;stroke-width:20;stroke-linecap:butt;stroke-linejoin:miter;stroke-miterlimit:4;stroke-opacity:1;stroke-dasharray:none" />
    <path
       style="fill:none;stroke:#000000;stroke-width:16;stroke-linecap:butt;stroke-linejoin:miter;stroke-miterlimit:4;stroke-opacity:1;stroke-dasharray:none"
       d="m 725.7946,134.20295 141.42136,1.01015"
       id="path3758"
       inkscape:connector-curvature="0"
       transform="translate(0,540.36218)"
       sodipodi:nodetypes="cc" />
    <path
       style="font-size:medium;font-style:normal;font-variant:normal;font-weight:normal;font-stretch:normal;text-indent:0;text-align:start;text-decoration:none;line-height:normal;letter-spacing:normal;word-spacing:normal;text-transform:none;direction:ltr;block-progression:tb;writing-mode:lr-tb;text-anchor:start;baseline-shift:baseline;color:#000000;fill:#ffff96;fill-opacity:1;stroke:#353535;stroke-width:2.20000005;stroke-miterlimit:4;stroke-opacity:1;stroke-dasharray:none;marker:none;visibility:visible;display:inline;overflow:visible;enable-background:accumulate;font-family:Sans;-inkscape-font-specification:Sans"
       d="m 295.78125,657.39343 c -3.69925,8.35145 -6.61851,17.37663 -8.59375,26.9375 l 0.46875,-0.28125 12.15625,22 5.0625,9.15625 8.90625,-5.4375 20.75,-12.6875 15.9375,22.375 5.65625,7.9375 8.0625,-5.4375 22.34375,-15.0625 16.65625,22.9375 5.6875,7.8125 8.03125,-5.4375 22.15625,-15.03125 c 0.027,-0.1365 0.0671,-0.26966 0.0937,-0.40625 1.68451,-8.64617 2.51742,-17.17829 2.53125,-25.5 l -28,18.96875 -16.625,-22.90625 -5.6875,-7.8125 -8,5.40625 -22.28125,15 -15.6875,-22.03125 -5.40625,-7.59375 -7.96875,4.84375 -19.78125,12.09375 -12.09375,-21.9375 -4.375,-7.90625 z"
       id="path3760"
       inkscape:connector-curvature="0" />
    <path
       style="font-size:medium;font-style:normal;font-variant:normal;font-weight:normal;font-stretch:normal;text-indent:0;text-align:start;text-decoration:none;line-height:normal;letter-spacing:normal;word-spacing:normal;text-transform:none;direction:ltr;block-progression:tb;writing-mode:lr-tb;text-anchor:start;baseline-shift:baseline;color:#000000;fill:#ffff96;fill-opacity:1;fill-rule:nonzero;stroke:#333333;stroke-width:2;stroke-miterlimit:4;stroke-opacity:1;stroke-dasharray:none;marker:none;visibility:visible;display:inline;overflow:visible;enable-background:accumulate;font-family:Sans;-inkscape-font-specification:Sans"
       d="m 309.68607,632.1624 5.90768,1.05635 117.21875,20.90625 5.34343,0.96259 c -1.97044,-5.31544 -3.70857,-10.34133 -6.32091,-15.35832 L 320.81468,619.9338 c -1.63933,1.60803 -7.42179,6.86121 -11.12861,12.2286 z"
       id="path3769"
       inkscape:connector-curvature="0"
       sodipodi:nodetypes="ccccccc" />
    <path
       sodipodi:nodetypes="ccccccc"
       inkscape:connector-curvature="0"
       id="path3777"
       d="m 414.12876,771.75266 -5.85692,-1.30883 -116.21391,-25.9159 -5.29722,-1.19094 c 1.74059,5.39508 3.2615,10.49091 5.65619,15.61535 l 110.06886,24.54023 c 1.70681,-1.53622 7.70932,-6.53649 11.643,-11.73991 z"
       style="font-size:medium;font-style:normal;font-variant:normal;font-weight:normal;font-stretch:normal;text-indent:0;text-align:start;text-decoration:none;line-height:normal;letter-spacing:normal;word-spacing:normal;text-transform:none;direction:ltr;block-progression:tb;writing-mode:lr-tb;text-anchor:start;baseline-shift:baseline;color:#000000;fill:#ffff96;fill-opacity:1;fill-rule:nonzero;stroke:#333333;stroke-width:2;stroke-miterlimit:4;stroke-opacity:1;stroke-dasharray:none;marker:none;visibility:visible;display:inline;overflow:visible;enable-background:accumulate;font-family:Sans;-inkscape-font-specification:Sans" />
    <path
       sodipodi:nodetypes="ccscc"
       inkscape:connector-curvature="0"
       id="path3779"
       d="m 178.5302,915.26947 c 17.74906,31.43996 32.65381,65.3921 50.44575,96.47673 5.02379,8.6925 15.51502,12.0172 23.43948,7.4372 7.92451,-4.5799 10.28117,-15.3301 5.25738,-24.02252 -18.93334,-29.95621 -39.07429,-61.5483 -58.39818,-91.91958"
       style="fill:#d9bb7a;fill-opacity:1;stroke:#333333;stroke-width:6;stroke-linecap:round;stroke-linejoin:round;stroke-miterlimit:4;stroke-opacity:1;stroke-dasharray:none" />
    <path
       style="fill:#f44800;fill-opacity:1;stroke:#333333;stroke-width:6;stroke-miterlimit:4;stroke-opacity:1;stroke-dasharray:none"
       d="M 84.754479,729.08575 C 46.1856,751.3765 38.35039,809.99731 67.265273,860.02768 93.53874,905.48772 144.66318,936.04368 188.6733,910.57625 232.6834,885.10883 233.20775,824.74624 206.94306,779.30138 178.02819,729.27101 123.32334,706.795 84.754479,729.08575 z"
       id="path3781"
       inkscape:connector-curvature="0"
       sodipodi:nodetypes="sscss" />
    <path
       id="path3783"
       d="m 58.24217,831.90134 c 2.728777,8.71693 6.488202,17.4257 11.310495,25.91436 l 0.166774,-0.52059 23.648611,8.51572 9.84476,3.54211 3.10685,-9.96169 7.22582,-23.22331 26.73786,6.30325 9.48707,2.23447 2.4727,-9.40511 6.85697,-26.05962 27.64912,6.25189 9.42807,2.1199 2.44924,-9.38448 6.73666,-25.91246 c -0.0698,-0.1204 -0.12746,-0.24694 -0.19757,-0.36714 -4.43742,-7.60941 -9.43964,-14.57134 -14.91866,-20.83484 l -8.53129,32.7266 -27.60502,-6.24902 -9.42808,-2.1199 -2.44635,9.34038 -6.85123,25.97143 -26.32321,-6.20983 -9.072414,-2.14102 -2.793915,8.89703 -6.889402,22.13803 -23.560411,-8.50998 -8.503488,-3.05615 z"
       style="font-size:medium;font-style:normal;font-variant:normal;font-weight:normal;font-stretch:normal;text-indent:0;text-align:start;text-decoration:none;line-height:normal;letter-spacing:normal;word-spacing:normal;text-transform:none;direction:ltr;block-progression:tb;writing-mode:lr-tb;text-anchor:start;baseline-shift:baseline;color:#000000;fill:#ffff96;fill-opacity:1;stroke:#353535;stroke-width:2.20000005;stroke-miterlimit:4;stroke-opacity:1;stroke-dasharray:none;marker:none;visibility:visible;display:inline;overflow:visible;enable-background:accumulate;font-family:Sans;-inkscape-font-specification:Sans"
       inkscape:connector-curvature="0" />
    <path
       sodipodi:nodetypes="ccccccc"
       inkscape:connector-curvature="0"
       id="path3785"
       d="m 52.04899,803.76607 5.13688,-3.10308 101.88923,-61.61082 4.65095,-2.80134 c -4.98726,-2.69514 -9.60891,-5.3259 -14.88174,-7.3733 l -96.49795,58.35686 c -0.17134,2.28993 -1.05202,10.05249 -0.29737,16.53168 z"
       style="font-size:medium;font-style:normal;font-variant:normal;font-weight:normal;font-stretch:normal;text-indent:0;text-align:start;text-decoration:none;line-height:normal;letter-spacing:normal;word-spacing:normal;text-transform:none;direction:ltr;block-progression:tb;writing-mode:lr-tb;text-anchor:start;baseline-shift:baseline;color:#000000;fill:#ffff96;fill-opacity:1;fill-rule:nonzero;stroke:#333333;stroke-width:2;stroke-miterlimit:4;stroke-opacity:1;stroke-dasharray:none;marker:none;visibility:visible;display:inline;overflow:visible;enable-background:accumulate;font-family:Sans;-inkscape-font-specification:Sans" />
    <path
       style="font-size:medium;font-style:normal;font-variant:normal;font-weight:normal;font-stretch:normal;text-indent:0;text-align:start;text-decoration:none;line-height:normal;letter-spacing:normal;word-spacing:normal;text-transform:none;direction:ltr;block-progression:tb;writing-mode:lr-tb;text-anchor:start;baseline-shift:baseline;color:#000000;fill:#ffff96;fill-opacity:1;fill-rule:nonzero;stroke:#333333;stroke-width:2;stroke-miterlimit:4;stroke-opacity:1;stroke-dasharray:none;marker:none;visibility:visible;display:inline;overflow:visible;enable-background:accumulate;font-family:Sans;-inkscape-font-specification:Sans"
       d="m 222.62602,839.78265 -5.26527,2.87983 -104.43863,57.18285 -4.76686,2.59924 c 4.86706,2.90661 9.37159,5.73323 14.55171,8.00497 l 98.91273,-54.16318 c 0.26942,-2.28049 1.48232,-9.99811 1.00632,-16.50371 z"
       id="path3787"
       inkscape:connector-curvature="0"
       sodipodi:nodetypes="ccccccc" />
  </g>
</svg>
