<?xml version="1.0" encoding="UTF-8" standalone="no"?>
<!-- Created with Inkscape (http://www.inkscape.org/) -->

<svg
   xmlns:dc="http://purl.org/dc/elements/1.1/"
   xmlns:cc="http://creativecommons.org/ns#"
   xmlns:rdf="http://www.w3.org/1999/02/22-rdf-syntax-ns#"
   xmlns:svg="http://www.w3.org/2000/svg"
   xmlns="http://www.w3.org/2000/svg"
   xmlns:sodipodi="http://sodipodi.sourceforge.net/DTD/sodipodi-0.dtd"
   xmlns:inkscape="http://www.inkscape.org/namespaces/inkscape"
   width="512"
   height="512"
   id="svg2"
   version="1.1"
   inkscape:version="0.48.4 r9939"
   sodipodi:docname="tambourine.svg">
  <defs
     id="defs4" />
  <sodipodi:namedview
     id="base"
     pagecolor="#ffffff"
     bordercolor="#666666"
     borderopacity="1.0"
     inkscape:pageopacity="0.0"
     inkscape:pageshadow="2"
     inkscape:zoom="0.7"
     inkscape:cx="113.09726"
     inkscape:cy="195.57346"
     inkscape:document-units="px"
     inkscape:current-layer="layer1"
     showgrid="false"
     inkscape:window-width="1333"
     inkscape:window-height="915"
     inkscape:window-x="181"
     inkscape:window-y="134"
     inkscape:window-maximized="0" />
  <metadata
     id="metadata7">
    <rdf:RDF>
      <cc:Work
         rdf:about="">
        <dc:format>image/svg+xml</dc:format>
        <dc:type
           rdf:resource="http://purl.org/dc/dcmitype/StillImage" />
      </cc:Work>
    </rdf:RDF>
  </metadata>
  <g
     inkscape:label="Layer 1"
     inkscape:groupmode="layer"
     id="layer1"
     transform="translate(0,-540.3622)">
    <path
       inkscape:connector-curvature="0"
       id="path2998"
       d="m 243.70276,1014.7846 c -0.82487,-0.1494 -5.5496,-0.6614 -10.49924,-1.1415 -14.84541,-1.4423 -35.81038,-6.6036 -50.5807,-12.4509 -10.26994,-4.06455 -28.87869,-13.94225 -37.85468,-20.09035 -10.17802,-6.9717 -20.71289,-15.58519 -28.12867,-22.99959 C 87.632033,929.09969 68.859659,894.25735 61.022902,854.87355 55.830773,828.7802 56.128893,799.44159 61.851896,773.2949 c 8.404048,-38.39806 29.171888,-75.02946 57.594664,-101.58901 4.43263,-4.14139 9.0956,-8.29025 10.36217,-9.21732 1.2666,-0.92813 5.47499,-4.06032 9.35198,-6.961 24.0725,-18.01326 53.91571,-30.51319 84.83061,-35.53471 60.97139,-9.90436 122.08069,8.62951 167.7702,50.88305 33.38159,30.87057 53.83495,70.32051 61.65664,118.91736 1.32458,8.23051 1.32674,44.45652 0.003,52.49608 -3.27452,19.88872 -6.0737,30.49291 -12.26018,46.44507 -15.86054,40.89761 -46.42374,76.87292 -83.84147,98.68833 -7.16416,4.1766 -21.42428,11.24 -27.78858,13.76525 -13.56573,5.381 -32.42057,10.2489 -47.08669,12.1585 -8.05926,1.0455 -35.26822,2.0579 -38.74151,1.4381 z m 49.45627,-55.42669 c 8.22732,-1.05616 17.67663,-2.40782 20.99849,-3.00844 20.72183,-3.7456 37.24343,-4.65346 44.04706,-2.42061 l 4.25981,1.3986 7.36436,-6.34865 c 11.21467,-9.66965 24.29165,-24.26375 31.08864,-34.69618 8.04752,-12.35058 11.97501,-19.63162 16.38192,-30.3713 9.58806,-23.36656 13.51495,-42.99071 13.51495,-67.53718 0,-32.01526 -7.99873,-61.75821 -23.74266,-88.28362 -25.19683,-42.45197 -65.02449,-71.64976 -112.37252,-82.37877 -14.12125,-3.20046 -22.23633,-4.08166 -37.9229,-4.12113 -17.46013,0 -25.33682,0.78945 -40.44644,4.28755 -57.63405,13.33632 -105.26588,55.97818 -125.151134,112.04171 -12.997667,36.64633 -13.284658,77.41166 -0.805332,114.39831 1.246609,3.69439 2.930008,8.14837 3.740883,9.89795 0.8109,1.74745 1.474328,3.41809 1.474328,3.71147 0,0.29871 2.034911,4.52225 4.522005,9.39548 10.45056,20.47975 25.12563,39.12989 42.22299,53.65998 l 6.62287,5.62748 3.47564,-1.73572 c 6.85762,-3.42342 14.94464,-3.00736 44.24947,2.2862 8.95045,1.6173 19.31083,3.33061 23.02307,3.80961 3.71223,0.48007 10.12426,1.31752 14.24897,1.86587 12.03211,1.59703 40.81549,0.87479 59.20554,-1.47861 z"
       style="fill:#f44800;fill-opacity:1;stroke:#000000;stroke-width:5.21348095;stroke-miterlimit:4;stroke-opacity:1;stroke-dasharray:none"
       sodipodi:nodetypes="ccccsscccccsscsccccccccccssssccsccscccccccc" />
    <path
       style="fill:#dab200;fill-opacity:1"
       d="m 50.10647,769.98562 c -0.246265,-0.24537 -2.309787,0.73611 -4.561796,1.95548 -15.205371,8.21131 -24.839244,23.01558 -26.393246,41.0555 -1.616597,18.76643 9.872298,39.47128 26.719089,47.89915 4.018795,2.01096 4.666534,1.62157 3.910111,-1.62903 -0.359956,-1.54689 -1.350677,-7.82406 -2.280899,-14.01161 -3.127074,-20.79873 -2.128112,-55.31035 2.280899,-71.68497 0.427891,-1.58743 0.572114,-3.33382 0.325839,-3.58452 z m 51.82765,4.88817 -0.65169,2.28086 c -1.361343,3.33488 -3.880913,18.13487 -4.887636,28.99937 -1.079899,11.65394 -0.211273,26.54888 2.60674,40.73012 1.002696,5.04606 1.955056,9.55657 1.955056,9.77527 -9e-5,1.57996 2.69954,-0.52274 7.49438,-5.53893 19.1148,-20.00607 18.95674,-51.28417 -0.65172,-70.70776 z"
       id="path3160"
       inkscape:connector-curvature="0"
       sodipodi:nodetypes="ccscscccccsscccc" />
    <path
       style="fill:#dab200;fill-opacity:1"
       d="m 462.00883,769.98562 c -0.24537,0.24537 0.032,2.70439 0.65172,5.53893 2.947,13.4814 3.91236,22.53551 3.9101,41.05657 -0.002,15.30566 -0.55261,19.94206 -1.95505,29.00043 -0.926,5.9806 -1.92586,12.13828 -2.28089,13.68517 -0.70421,3.06604 -0.21027,3.31461 2.93258,1.95441 9.61887,-4.16059 20.12256,-15.72919 24.11235,-26.39312 3.85901,-10.31295 4.6557,-19.74471 2.28089,-29.6512 -3.57175,-14.90027 -12.24777,-26.25657 -25.41571,-33.56216 -2.14272,-1.19377 -3.9904,-1.87973 -4.23599,-1.62903 z m -51.82766,5.86538 c -1.17474,0 -7.35796,5.8163 -10.10111,9.44882 -9.32714,12.35484 -12.74845,27.89094 -9.12359,43.01205 2.10263,8.76926 6.08838,15.86575 12.70786,22.80861 3.04742,3.19726 5.95254,5.86538 6.51684,5.86538 0.56414,0 0.97529,-0.22403 0.97753,-0.33072 0.002,-0.10668 0.95833,-4.27154 1.95505,-9.44882 2.90052,-15.06563 4.00287,-28.90015 2.93259,-40.73012 -1.36351,-15.0731 -4.3749,-30.62947 -5.86518,-30.62947 z"
       id="path3158"
       inkscape:connector-curvature="0"
       sodipodi:nodetypes="ccscccccccccccscsccc" />
    <path
       style="fill:#dab200;fill-opacity:1"
       d="m 125.70195,631.48358 c -5.75852,-0.002 -11.97588,1.23218 -17.59551,3.25807 -15.734391,5.67655 -28.189732,20.04981 -31.606722,36.1684 -1.783688,8.41401 -1.481087,20.99821 0.977527,27.04495 0.461282,1.1351 1.335307,2.28086 1.629212,2.28086 0.293866,0 1.703241,-1.97788 3.258426,-4.23527 15.009476,-21.79407 37.445527,-43.40144 58.651657,-56.69722 2.67859,-1.67918 4.56764,-3.28154 4.23596,-3.58345 -1.18476,-1.07642 -8.3109,-3.12898 -14.01123,-3.91096 -1.77694,-0.24537 -3.61983,-0.32005 -5.53932,-0.32005 z m 52.15349,45.31104 -5.86517,3.58452 c -19.33902,12.23002 -36.98926,29.29701 -48.87639,47.24732 -2.04583,3.08952 -3.5046,5.7843 -3.25842,6.19076 0.24623,0.39472 3.62586,0.98148 7.49438,0.98148 15.89097,0 29.45752,-6.27291 39.10111,-17.92151 8.12514,-9.81261 11.75348,-20.29839 11.40449,-32.58389 l 0,-7.49441 z"
       id="path3156"
       inkscape:connector-curvature="0"
       sodipodi:nodetypes="ccscsccccccccccscccc" />
    <path
       style="fill:#dab200;fill-opacity:1"
       d="m 387.39089,631.80896 c -7.40564,-0.01 -13.43003,0.71477 -19.22472,2.93269 l -1.95505,0.98147 2.28089,1.62904 c 17.53672,11.85237 25.30271,18.10713 37.79775,30.6284 9.591,9.61311 15.08234,16.25513 23.46066,28.02323 l 3.58427,4.8871 0.97753,-2.28086 c 2.57423,-6.12248 3.14348,-19.33612 1.30336,-28.02216 -2.69679,-12.73037 -11.47799,-24.97426 -23.7865,-32.58389 -1.47159,-0.90679 -5.96116,-2.59877 -9.77528,-3.91096 -6.05709,-2.08243 -7.78504,-2.28086 -14.66291,-2.28086 z m -53.45687,44.98566 0,7.8198 c 0,4.55532 0.62164,9.7518 1.30337,12.38258 2.58872,9.9833 10.58227,22.04156 18.24719,27.69678 5.08285,3.7488 12.51289,6.9802 18.57302,8.47161 5.50272,1.35593 17.84727,2.0579 19.55056,0.98148 2.01958,-1.28019 -10.51575,-18.68109 -21.83146,-29.97658 -10.57238,-10.55511 -24.83895,-21.6159 -33.88762,-26.39419 z"
       id="path3154"
       inkscape:connector-curvature="0"
       sodipodi:nodetypes="ccccccccscccccsccccccc" />
    <path
       style="fill:#dab200;fill-opacity:1"
       d="m 256.05765,575.14375 c -6.61579,0 -16.84191,2.36514 -22.48313,5.21248 -6.96683,3.51837 -15.75811,11.35843 -19.22472,16.9443 -1.46852,2.36728 -4.88763,8.67538 -4.88763,9.12345 0,0.64009 1.42232,0.25603 9.12359,-1.30366 21.38334,-4.30995 53.74291,-4.05071 75.59547,0.33072 4.24973,0.84278 7.92209,1.20657 8.14606,0.98147 0.6545,-0.65076 -3.8946,-8.74686 -7.16854,-12.70796 -3.91401,-4.73561 -11.10617,-10.57645 -16.61796,-13.35979 -5.64122,-2.84734 -15.86734,-5.21248 -22.48314,-5.21248 z m -4.56179,81.77495 c -14.30491,0.40539 -18.79876,0.9068 -30.30337,3.58345 l -6.51685,1.6301 5.86518,5.86431 c 7.052,6.79244 13.3676,10.44203 22.15728,13.03441 8.90953,2.5881 17.71915,2.6009 26.7191,0 9.01617,-2.60731 15.02009,-6.15875 22.15729,-13.03441 l 6.191,-5.86431 -7.16852,-1.6301 c -12.62538,-2.96043 -23.89127,-4.02191 -39.10111,-3.58345 z"
       id="path3152"
       inkscape:connector-curvature="0"
       sodipodi:nodetypes="cccscccsccccccccccccc" />
  </g>
</svg>
