<?xml version="1.0" encoding="UTF-8" standalone="no"?>
<!-- Generator: Adobe Illustrator 18.1.0, SVG Export Plug-In . SVG Version: 6.00 Build 0)  -->

<svg
   xmlns:dc="http://purl.org/dc/elements/1.1/"
   xmlns:cc="http://creativecommons.org/ns#"
   xmlns:rdf="http://www.w3.org/1999/02/22-rdf-syntax-ns#"
   xmlns:svg="http://www.w3.org/2000/svg"
   xmlns="http://www.w3.org/2000/svg"
   xmlns:sodipodi="http://sodipodi.sourceforge.net/DTD/sodipodi-0.dtd"
   xmlns:inkscape="http://www.inkscape.org/namespaces/inkscape"
   enable-background="new 0 0 500 500"
   xml:space="preserve"
   viewBox="0 0 320 68"
   height="100%"
   width="100%"
   version="1.1"
   y="0px"
   x="0px"
   id="svg2"
   inkscape:version="0.48.4 r9939"
   sodipodi:docname="logo_mix.svg"><defs
     id="defs30" /><sodipodi:namedview
     pagecolor="#ffffff"
     bordercolor="#666666"
     borderopacity="1"
     objecttolerance="10"
     gridtolerance="10"
     guidetolerance="10"
     inkscape:pageopacity="0"
     inkscape:pageshadow="2"
     inkscape:window-width="1368"
     inkscape:window-height="718"
     id="namedview28"
     showgrid="false"
     inkscape:zoom="2.9154558"
     inkscape:cx="147.47324"
     inkscape:cy="24.611374"
     inkscape:window-x="470"
     inkscape:window-y="254"
     inkscape:window-maximized="0"
     inkscape:current-layer="svg2" /><metadata
     id="metadata4"><rdf:RDF><cc:Work
         rdf:about=""><dc:format>image/svg+xml</dc:format><dc:type
           rdf:resource="http://purl.org/dc/dcmitype/StillImage" /><dc:title /></cc:Work></rdf:RDF></metadata><g
     style="font-size:54px;font-style:normal;font-variant:normal;font-weight:bold;font-stretch:normal;line-height:125%;letter-spacing:0px;word-spacing:0px;fill:#cf4317;font-family:Exo 2"
     font-weight="bold"
     transform="translate(5.2002624,26.459377)"
     font-size="54px"
     font-stretch="normal"
     line-height="125%"
     font-variant="normal"
     font-style="normal"
     id="g6"><path
       d="m 30.07,22.68 0,5.4 c -3.3e-5,2.916 -1.17,4.95 -3.51,6.102 -2.34,1.152 -5.814,1.728 -10.42,1.728 H 1.56 V 0.86 h 14.2 c 4.968,3.504e-5 8.334,0.558 10.1,1.674 1.764,1.116 2.646,3.06 2.646,5.832 v 4.32 c -3.1e-5,1.008 -0.396,1.944 -1.188,2.808 -0.792,0.864 -1.692,1.44 -2.7,1.728 v 0.27 c 1.296,0.144 2.52,0.72 3.672,1.728 1.188,1.008 1.782,2.16 1.782,3.456 m -9.666,-11.07 0,-1.728 C 20.405977,8.726 20.136,7.934 19.596,7.502 19.056,7.07 17.724,6.854 15.6,6.854 H 9.984 v 8.262 h 5.778 c 1.98,2.1e-5 3.24,-0.252 3.78,-0.756 0.576,-0.504 0.864,-1.422 0.864,-2.754 m 1.242,15.34 0,-2.808 c -2.4e-5,-1.296 -0.342,-2.214 -1.026,-2.754 -0.648,-0.54 -1.818,-0.81 -3.51,-0.81 H 9.984 v 9.342 h 5.994 c 2.052,6e-6 3.51,-0.234 4.374,-0.702 0.864,-0.468 1.296,-1.224 1.296,-2.268"
       id="path8"
       inkscape:connector-curvature="0" /><path
       d="m 59.06,35.91 -7.722,0 0,-2.376 c -0.576,1.044 -1.404,1.8 -2.484,2.268 -1.08,0.432 -3.06,0.648 -5.94,0.648 -3.528,0 -5.868,-0.54 -7.02,-1.62 -1.152,-1.08 -1.728,-3.33 -1.728,-6.75 -2e-6,-3.096 0.594,-5.238 1.782,-6.426 1.188,-1.224 3.312,-1.836 6.372,-1.836 h 8.856 v -1.782 c -1.9e-5,-1.584 -0.378,-2.628 -1.134,-3.132 -0.72,-0.54 -2.268,-0.81 -4.644,-0.81 -2.232,2.2e-5 -5.292,0.216 -9.18,0.648 V 9.774 c 2.988,-0.36 6.318,-0.54 9.99,-0.54 4.824,2.67e-5 8.172,0.594 10.04,1.782 1.872,1.152 2.808,3.456 2.808,6.912 v 17.98 m -7.884,-6.696 0,-5.076 -5.4,0 c -1.728,1.2e-5 -2.808,0.198 -3.24,0.594 -0.432,0.396 -0.648,1.458 -0.648,3.186 -9e-6,1.692 0.216,2.718 0.648,3.078 0.468,0.36 1.62,0.54 3.456,0.54 0.9,5e-6 1.566,5e-6 1.998,0 0.432,-0.03599 0.9,-0.08999 1.404,-0.162 0.504,-0.072 0.846,-0.18 1.026,-0.324 0.216,-0.18 0.396,-0.414 0.54,-0.702 0.144,-0.288 0.216,-0.666 0.216,-1.134"
       id="path10"
       inkscape:connector-curvature="0" /><path
       d="m 88.51,25.7 0,3.294 c -2.6e-5,1.296 -0.252,2.412 -0.756,3.348 -0.468,0.936 -1.08,1.674 -1.836,2.214 -0.72,0.504 -1.674,0.9 -2.862,1.188 -1.188,0.288 -2.34,0.468 -3.456,0.54 -1.08,0.108 -2.358,0.162 -3.834,0.162 -2.844,0 -6.282,-0.27 -10.31,-0.81 v -5.238 c 5.004,0.756 8.478,1.134 10.42,1.134 1.548,5e-6 2.736,-0.144 3.564,-0.432 0.864,-0.324 1.296,-0.936 1.296,-1.836 v -1.62 c -1.8e-5,-0.828 -0.234,-1.44 -0.702,-1.836 C 79.566,25.376 78.558,25.16 77.01,25.16 h -3.402 c -2.736,1.1e-5 -4.878,-0.54 -6.426,-1.62 -1.512,-1.116 -2.268,-2.736 -2.268,-4.86 v -3.186 c -2e-6,-2.376 1.134,-4.014 3.402,-4.914 2.268,-0.9 5.472,-1.35 9.612,-1.35 1.728,2.67e-5 4.824,0.162 9.288,0.486 v 5.022 C 81.6,14.306 78.432,14.09 77.712,14.09 c -2.196,2.2e-5 -3.582,0.162 -4.158,0.486 -0.576,0.288 -0.864,0.864 -0.864,1.728 v 1.404 c -1e-5,0.432 0.216,0.828 0.648,1.188 0.468,0.36 1.17,0.54 2.106,0.54 H 78.9 c 6.408,1.7e-5 9.612,2.088 9.612,6.264"
       id="path12"
       inkscape:connector-curvature="0" /><path
       d="m 116.9,25.7 0,3.294 c -2e-5,1.296 -0.252,2.412 -0.756,3.348 -0.468,0.936 -1.08,1.674 -1.836,2.214 -0.72,0.504 -1.674,0.9 -2.862,1.188 -1.188,0.288 -2.34,0.468 -3.456,0.54 -1.08,0.108 -2.358,0.162 -3.834,0.162 -2.844,0 -6.282,-0.27 -10.31,-0.81 v -5.238 c 5.004,0.756 8.478,1.134 10.42,1.134 1.548,5e-6 2.736,-0.144 3.564,-0.432 0.864,-0.324 1.296,-0.936 1.296,-1.836 v -1.62 c -1e-5,-0.828 -0.234,-1.44 -0.702,-1.836 -0.468,-0.432 -1.476,-0.648 -3.024,-0.648 h -3.402 c -2.736,1.1e-5 -4.878,-0.54 -6.426,-1.62 -1.512,-1.116 -2.268,-2.736 -2.268,-4.86 v -3.186 c -2e-6,-2.376 1.134,-4.014 3.402,-4.914 2.268,-0.9 5.472,-1.35 9.612,-1.35 1.728,2.67e-5 4.824,0.162 9.288,0.486 v 5.022 c -5.616,-0.432 -8.784,-0.648 -9.504,-0.648 -2.196,2.2e-5 -3.582,0.162 -4.158,0.486 -0.576,0.288 -0.864,0.864 -0.864,1.728 v 1.404 c -1e-5,0.432 0.216,0.828 0.648,1.188 0.468,0.36 1.17,0.54 2.106,0.54 h 3.456 c 6.408,1.7e-5 9.612,2.088 9.612,6.264"
       id="path14"
       inkscape:connector-curvature="0" /></g><path
     style="opacity:0.16;fill:#eeeeec;fill-opacity:1"
     sodipodi:nodetypes="cscssssc"
     inkscape:connector-curvature="0"
     id="path2991"
     d="M 288.12655,24.128951 C 286.07694,12.483509 275.62501,2.8881566 264.18607,2.1690646 c -9.29204,-0.58413 -18.92058,4.0078607 -22.94756,11.7313334 -16.15258,0.977779 -21.02992,7.885676 -20.84025,17.827825 0.24254,12.713518 13.04096,22.660372 20.78124,22.738666 l 42.65513,0.43146 c 8.89113,0.08993 21.8541,-9.781308 21.9196,-18.663057 0.12127,-16.443655 -12.59581,-15.643076 -17.62768,-12.106341 z" /><path
     style="fill:#888a85;fill-opacity:1"
     d="m 261.5002,1.6451515 c -7.51215,0 -16.54057,5.3398598 -19.86475,11.6147485 4.49587,-4.8895814 13.37766,-9.2284485 19.61475,-8.8022485 10.67077,0.729168 17.07146,7.3877685 19.71875,17.8437495 2.09249,-1.390195 4.09396,-2.161843 5.96875,-2.375 C 283.84509,9.362765 272.22524,1.6451515 261.5002,1.6451515 z"
     id="path3801"
     inkscape:connector-curvature="0"
     sodipodi:nodetypes="scsccs" /><path
     style="fill:#babdb6;fill-opacity:1"
     d="m 235.91545,14.424758 c -9.22169,1.139447 -16.81215,5.681282 -16.31975,15.092473 0.21437,4.097362 1.15974,4.474087 2.25865,5.992234 -0.67507,-1.823365 -0.93453,-2.631125 -0.9774,-4.839498 -0.1805,-9.296957 6.43391,-11.450204 14.25725,-13.540512 0.16584,-0.749577 0.4316,-1.991613 0.78125,-2.704697 z"
     id="path2994"
     inkscape:connector-curvature="0"
     sodipodi:nodetypes="cscscc" /><g
     transform="matrix(1.53961,0,0,1.5386998,285.68779,23.549747)"
     id="g2999"
     style="fill:#888a85;fill-opacity:1;stroke:#888a85;stroke-width:0.2598829;stroke-miterlimit:4;stroke-opacity:1;stroke-dasharray:none"><g
       transform="translate(-230.9546,-533.6597)"
       style="fill:#888a85;fill-opacity:1;stroke:#888a85;stroke-width:0.2598829;stroke-miterlimit:4;stroke-opacity:1;stroke-dasharray:none"
       id="g3001"><path
         sodipodi:nodetypes="cccccccc"
         inkscape:connector-curvature="0"
         d="m 248.22443,536.802 c 0.008,0.36938 -0.14955,0.73865 -0.43121,0.97985 -0.36025,0.32891 -0.90945,0.39628 -1.3583,0.22886 -0.44485,-0.17177 -0.7737,-0.61188 -0.79903,-1.09011 -0.0338,-0.37371 0.0854,-0.76581 0.35602,-1.03193 0.2551,-0.27187 0.63497,-0.4047 1.004,-0.38222 0.37984,0.008 0.74658,0.19956 0.97342,0.50374 0.17473,0.22433 0.25749,0.50935 0.2551,0.79181 z"
         style="fill:#888a85;fill-opacity:1;stroke:#888a85;stroke-width:0.2598829;stroke-miterlimit:4;stroke-opacity:1;stroke-dasharray:none"
         id="path3003" /></g><g
       transform="translate(-230.9546,-533.6597)"
       style="fill:#888a85;fill-opacity:1;stroke:#888a85;stroke-width:0.2598829;stroke-miterlimit:4;stroke-opacity:1;stroke-dasharray:none"
       id="g3005"><path
         sodipodi:nodetypes="cccccccc"
         inkscape:connector-curvature="0"
         d="m 248.71981,542.64502 c 0.008,0.36967 -0.14923,0.73944 -0.43121,0.98083 -0.36025,0.32891 -0.90945,0.39628 -1.3583,0.22887 -0.44511,-0.17184 -0.77393,-0.61235 -0.79903,-1.09083 -0.0349,-0.37399 0.0921,-0.76081 0.35555,-1.03089 0.24963,-0.27846 0.6336,-0.4051 1.00145,-0.3835 0.48385,0.0133 0.92314,0.34301 1.12317,0.77515 0.074,0.16275 0.10881,0.34192 0.10837,0.52037 z"
         style="fill:#888a85;fill-opacity:1;stroke:#888a85;stroke-width:0.2598829;stroke-miterlimit:4;stroke-opacity:1;stroke-dasharray:none"
         id="path3007" /></g><g
       transform="translate(-230.9546,-533.6597)"
       style="fill:#888a85;fill-opacity:1;stroke:#888a85;stroke-width:0.2598829;stroke-miterlimit:4;stroke-opacity:1;stroke-dasharray:none"
       id="g3009"><path
         sodipodi:nodetypes="ccccccccscsccccccc"
         inkscape:connector-curvature="0"
         d="m 243.979,540.86798 c 0.045,2.8246 -1.2154,5.57017 -3.21431,7.53651 -2.48942,2.48828 -4.93842,4.03723 -8.25871,5.0945 -0.44172,0.23921 -1.10792,-0.0762 -0.41212,-0.40117 1.33796,-0.60855 1.91933,-1.09732 3.15178,-1.91702 2.72235,-1.6833 5.01959,-4.33406 5.57715,-7.56226 0.32492,-1.96502 0.23445,-4.01059 -0.25795,-5.94002 -0.36132,-1.41859 -1.34451,-2.88302 -2.90132,-3.09265 -1.41284,-0.21626 -2.91467,0.27318 -3.92295,1.29506 -0.26516,0.26874 -0.78141,1.0131 -0.69622,1.86654 0.60202,-0.47279 0.56093,-0.42015 1.05465,-0.6403 1.13673,-0.50686 2.64449,0.21388 2.928,1.46555 0.30209,1.15023 0.0685,2.61366 -1.06664,3.22688 -1.18524,0.64453 -2.93424,0.37778 -3.59586,-0.89094 -1.09534,-1.95448 -0.49303,-4.62673 1.27752,-5.98295 1.80312,-1.49647 4.43407,-1.55482 6.55761,-0.78709 2.18456,0.81249 3.48666,3.07621 3.69728,5.31832 0.0573,0.46798 0.0821,0.93974 0.0821,1.41104 z"
         style="fill:#888a85;fill-opacity:1;stroke:#888a85;stroke-width:0.2598829;stroke-miterlimit:4;stroke-opacity:1;stroke-dasharray:none"
         id="path3011" /></g></g><g
     style="font-size:53px;font-style:normal;font-variant:normal;font-weight:bold;font-stretch:normal;line-height:125%;letter-spacing:0px;word-spacing:0px;fill:#888a85;font-family:Play"
     font-weight="bold"
     transform="translate(5.0548344,20.529661)"
     font-size="53px"
     font-stretch="normal"
     line-height="125%"
     font-variant="normal"
     font-style="normal"
     id="g16"><path
       d="m 150,41.56 c -3.887,0.7773 -7.597,1.166 -11.13,1.166 -1.413,-10e-7 -2.756,-0.07067 -4.028,-0.212 -1.237,-0.106 -2.632,-0.3533 -4.187,-0.742 -1.519,-0.424 -2.827,-0.9717 -3.922,-1.643 -1.06,-0.7067 -1.961,-1.678 -2.703,-2.915 -0.742,-1.272 -1.113,-2.756 -1.113,-4.452 v -15.1 c 0,-6.925 5.318,-10.39 15.95,-10.39 2.615,3.49e-5 6.254,0.3887 10.92,1.166 v 6.201 c -4.205,-0.9893 -7.809,-1.484 -10.81,-1.484 -1.201,2.9e-5 -2.191,0.03536 -2.968,0.106 -0.742,0.0707 -1.537,0.2474 -2.385,0.53 -0.8127,0.2827 -1.431,0.742 -1.855,1.378 -0.3887,0.6007 -0.583,1.396 -0.583,2.385 v 14.63 c -1e-5,3.109 2.844,4.664 8.533,4.664 2.509,5e-6 5.936,-0.5123 10.28,-1.537 v 6.254"
       id="path18"
       inkscape:connector-curvature="0"
       style="fill:#888a85" /><path
       d="m 163,42.19 -7.738,0 0,-37.1 7.738,0 0,37.1"
       id="path20"
       inkscape:connector-curvature="0"
       style="fill:#888a85" /><path
       d="m 195.3,25.82 0,7.579 c -3e-5,1.661 -0.265,3.092 -0.795,4.293 -0.53,1.166 -1.184,2.085 -1.961,2.756 -0.7774,0.636 -1.802,1.131 -3.074,1.484 -1.237,0.3533 -2.385,0.5653 -3.445,0.636 -1.025,0.106 -2.279,0.159 -3.763,0.159 -1.484,-10e-7 -2.756,-0.053 -3.816,-0.159 -1.025,-0.07067 -2.173,-0.2827 -3.445,-0.636 -1.237,-0.3533 -2.244,-0.848 -3.021,-1.484 -0.7773,-0.6713 -1.431,-1.59 -1.961,-2.756 -0.53,-1.201 -0.795,-2.632 -0.795,-4.293 V 25.82 c 0,-1.767 0.265,-3.268 0.795,-4.505 0.5653,-1.272 1.237,-2.244 2.014,-2.915 0.8127,-0.6713 1.855,-1.184 3.127,-1.537 1.272,-0.3886 2.403,-0.6183 3.392,-0.689 1.025,-0.106 2.261,-0.159 3.71,-0.159 1.449,2.6e-5 2.668,0.05303 3.657,0.159 1.025,0.07069 2.173,0.3004 3.445,0.689 1.272,0.3534 2.297,0.8657 3.074,1.537 0.8126,0.6714 1.484,1.643 2.014,2.915 0.5653,1.237 0.848,2.738 0.848,4.505 m -7.738,8.48 0,-9.699 c -2e-5,-1.378 -0.3534,-2.35 -1.06,-2.915 -0.7067,-0.6006 -2.12,-0.901 -4.24,-0.901 -2.12,2.1e-5 -3.533,0.3004 -4.24,0.901 -0.7067,0.5654 -1.06,1.537 -1.06,2.915 V 34.3 c -1e-5,1.343 0.3357,2.279 1.007,2.809 0.7067,0.53 2.138,0.795 4.293,0.795 2.155,4e-6 3.569,-0.265 4.24,-0.795 0.7066,-0.53 1.06,-1.466 1.06,-2.809"
       id="path22"
       inkscape:connector-curvature="0"
       style="fill:#888a85" /><path
       d="m 226,42.19 -7.632,0 0,-3.127 c -0.6007,2.438 -3.339,3.657 -8.215,3.657 -3.392,-10e-7 -5.724,-0.6007 -6.996,-1.802 -1.272,-1.237 -1.908,-3.092 -1.908,-5.565 v -18.82 h 7.738 v 17.76 c -1e-5,1.413 0.2296,2.367 0.689,2.862 0.4946,0.4947 1.643,0.742 3.445,0.742 2.226,4e-6 3.639,-0.2297 4.24,-0.689 0.6006,-0.4947 0.901,-1.466 0.901,-2.915 V 16.533 H 226 v 25.65"
       id="path24"
       inkscape:connector-curvature="0"
       style="fill:#888a85" /><path
       d="m 258.3,42.19 -7.473,0 0,-2.915 c -0.6007,0.954 -1.148,1.661 -1.643,2.12 -0.4947,0.424 -1.237,0.742 -2.226,0.954 -0.9894,0.2473 -2.403,0.371 -4.24,0.371 -4.381,-10e-7 -7.243,-0.5477 -8.586,-1.643 -1.343,-1.0953 -2.014,-3.533 -2.014,-7.314 v -10.02 c 0,-2.897 0.8127,-4.911 2.438,-6.042 1.661,-1.131 4.258,-1.696 7.791,-1.696 2.544,2.6e-5 4.328,0.2474 5.353,0.742 1.025,0.4594 1.979,1.343 2.862,2.65 V 5.087 h 7.738 v 37.1 m -7.738,-7.685 0,-10.34 c -2e-5,-1.272 -0.3534,-2.155 -1.06,-2.65 -0.6714,-0.4946 -2.138,-0.742 -4.399,-0.742 -2.367,2.1e-5 -3.834,0.2297 -4.399,0.689 -0.5653,0.4594 -0.848,1.449 -0.848,2.968 v 9.805 c -1e-5,1.413 0.2827,2.385 0.848,2.915 0.5653,0.4947 1.89,0.742 3.975,0.742 2.509,4e-6 4.116,-0.212 4.823,-0.636 0.7066,-0.4593 1.06,-1.378 1.06,-2.756"
       id="path26"
       inkscape:connector-curvature="0"
       style="fill:#888a85" /></g></svg>