<svg><defs><svg id="bongo" width="512" height="512"><g transform="translate(0 -540.362)"><path d="M227.538 769.187h54.372l7.556 78.461h-68.518z" fill="#664410" stroke="#111" stroke-width="3.445"/><path d="M19.704 731.023h210.638l-11.564 147.935c-12.428 10.625-44.046 15.176-63.629 15.07H94.148c-21.706.67-48.444-1.93-61.855-15.364z" fill="#b98331" stroke="#111" stroke-width="3.538"/><path d="M54 890.145v8.14H51.74c-2.205 0-2.436 1.996-2.436 4.201v8.534c0 2.328 2.03 4.201 4.552 4.201H54v1.838h8.82v-1.838h.285c2.521 0 4.552-1.873 4.552-4.2v-8.535c0-2.395-.186-4.201-1.938-4.201h-2.899v-8.14z" fill="#111"/><path d="M36.019 680.005c-9.793 0-17.678 9.312-17.678 20.88v2.017c0 1.486.084 2.992.332 4.39h214.895c.248-1.398.331-2.904.331-4.39v-2.017c0-11.568-7.884-20.88-17.677-20.88H36.019z" fill="#ffdea8" stroke="#111" stroke-width="4.142"/><rect y="701.961" x="3.91" height="28.756" width="244.911" rx="7.076" ry="7.076" fill="#111"/><path d="M220.15 861.26c-12.734 10.585-44.828 15.141-64.787 15.036H93.008c-21.66.655-48.159-1.827-62.134-14.483l1.437 16.805c13.411 13.434 40.097 16.038 61.803 15.368h61.028c19.583.105 51.254-4.411 63.682-15.036l1.327-17.69z" fill="#111"/><path style="text-indent:0;text-align:start;line-height:normal;text-transform:none;block-progression:tb;marker:none;-inkscape-font-specification:Sans" d="M27.803 729.474l2.764 5.196 8.772 16.914c.49 8.37 3.297 12.148 6.69 12.844.139 1.432 8.198 87.365 8.198 112.642l9.02.353c0-26.804-8.038-110.865-8.197-112.487 3.03-.774 4.952-5.445 5.624-12.262 3.45-7.947 8.417-15.927 12.357-23.643-14.755.166-30.061.443-45.228.443zm25.933 19.69c-2.566 1.596-5.816 1.106-7.754-.202l-6.526-13.583 21.34.066c-2.454 4.43-4.895 9.135-7.06 13.72z" font-weight="400" color="#000" fill="#111" overflow="visible" font-family="Sans"/><path d="M189.587 890.145v8.14h-2.258c-2.205 0-2.436 1.996-2.436 4.201v8.534c0 2.328 2.03 4.201 4.552 4.201h.142v1.838h8.82v-1.838h.284c2.522 0 4.552-1.873 4.552-4.2v-8.535c0-2.395-.185-4.201-1.938-4.201h-2.898v-8.14z" fill="#111"/><path d="M225.03 729.474l-2.763 5.196-8.772 16.914c-.49 8.37-3.297 12.148-6.69 12.844-.139 1.432-8.198 87.365-8.198 112.642l-9.02.353c0-26.804 8.038-110.865 8.197-112.487-3.03-.774-4.952-5.445-5.624-12.262-3.45-7.947-8.417-15.927-12.357-23.643 14.754.166 30.061.443 45.228.443zm-25.932 19.69c2.566 1.596 5.816 1.106 7.754-.202l6.526-13.583-21.34.066c2.454 4.43 4.895 9.135 7.06 13.72z" style="text-indent:0;text-align:start;line-height:normal;text-transform:none;block-progression:tb;marker:none;-inkscape-font-specification:Sans" font-weight="400" color="#000" fill="#111" overflow="visible" font-family="Sans"/><path d="M279.212 731.023h210.639l-11.565 147.935c-12.428 10.625-44.046 15.176-63.629 15.07h-61.001c-21.706.67-48.444-1.93-61.855-15.364z" fill="#b98331" stroke="#111" stroke-width="3.538"/><path d="M313.508 890.145v8.14h-2.258c-2.206 0-2.437 1.996-2.437 4.201v8.534c0 2.328 2.03 4.201 4.553 4.201h.142v1.838h8.82v-1.838h.284c2.522 0 4.552-1.873 4.552-4.2v-8.535c0-2.395-.186-4.201-1.938-4.201h-2.899v-8.14z" fill="#111"/><path d="M295.527 680.005c-9.793 0-17.678 9.312-17.678 20.88v2.017c0 1.486.084 2.992.332 4.39h214.895c.248-1.398.331-2.904.331-4.39v-2.017c0-11.568-7.884-20.88-17.677-20.88H295.527z" fill="#ffdea8" stroke="#111" stroke-width="4.142"/><rect ry="7.076" rx="7.076" width="244.911" height="28.756" x="263.418" y="701.961" fill="#111"/><path d="M479.659 861.26c-12.735 10.585-44.829 15.141-64.788 15.036h-62.355c-21.66.655-48.159-1.827-62.134-14.483l1.437 16.805c13.412 13.434 40.097 16.038 61.803 15.368h61.028c19.583.105 51.254-4.411 63.682-15.036l1.327-17.69z" fill="#111"/><path d="M287.311 729.474l2.764 5.196 8.772 16.914c.491 8.37 3.297 12.148 6.691 12.844.138 1.432 8.197 87.365 8.197 112.642l9.02.353c0-26.804-8.038-110.865-8.197-112.487 3.03-.774 4.953-5.445 5.624-12.262 3.45-7.947 8.417-15.927 12.357-23.643-14.754.166-30.061.443-45.228.443zm25.934 19.69c-2.567 1.596-5.817 1.106-7.755-.202l-6.526-13.583 21.34.066c-2.454 4.43-4.895 9.135-7.06 13.72z" style="text-indent:0;text-align:start;line-height:normal;text-transform:none;block-progression:tb;marker:none;-inkscape-font-specification:Sans" font-weight="400" color="#000" fill="#111" overflow="visible" font-family="Sans"/><path d="M449.095 890.145v8.14h-2.258c-2.205 0-2.436 1.996-2.436 4.201v8.534c0 2.328 2.03 4.201 4.552 4.201h.142v1.838h8.82v-1.838h.285c2.521 0 4.552-1.873 4.552-4.2v-8.535c0-2.395-.186-4.201-1.939-4.201h-2.898v-8.14z" fill="#111"/><path style="text-indent:0;text-align:start;line-height:normal;text-transform:none;block-progression:tb;marker:none;-inkscape-font-specification:Sans" d="M484.539 729.474l-2.764 5.196-8.772 16.914c-.49 8.37-3.297 12.148-6.69 12.844-.139 1.432-8.198 87.365-8.198 112.642l-9.02.353c0-26.804 8.038-110.865 8.197-112.487-3.03-.774-4.952-5.445-5.623-12.262-3.45-7.947-8.418-15.927-12.358-23.643 14.755.166 30.061.443 45.228.443zm-25.933 19.69c2.567 1.596 5.816 1.106 7.754-.202l6.526-13.583-21.34.066c2.454 4.43 4.895 9.135 7.06 13.72z" font-weight="400" color="#000" fill="#111" overflow="visible" font-family="Sans"/></g></svg><svg id="bongo_h" width="512" height="512"><g transform="translate(0 -540.362)"><path d="M144.406 726.814h220.379l-12.1 154.776c-13.002 11.116-46.082 15.878-66.57 15.768h-63.823c-22.71.7-50.684-2.019-64.715-16.075z" fill="#b98331" stroke="#111" stroke-width="3.701"/><path d="M180.287 893.295v8.516h-2.362c-2.308 0-2.549 2.089-2.549 4.396v8.928c0 2.435 2.124 4.396 4.763 4.396h.148v1.923h9.228v-1.923h.297c2.639 0 4.763-1.96 4.763-4.396v-8.928c0-2.506-.194-4.396-2.028-4.396h-3.032v-8.516z" fill="#111"/><path d="M161.475 673.437c-10.246 0-18.495 9.744-18.495 21.846v2.11c0 1.555.088 3.13.347 4.593h224.832c.26-1.462.347-3.038.347-4.593v-2.11c0-12.102-8.249-21.846-18.495-21.846H161.475z" fill="#ffdea8" stroke="#111" stroke-width="4.334"/><rect ry="7.403" rx="7.403" width="256.237" height="30.086" x="127.882" y="696.409" fill="#111"/><path d="M354.122 863.074c-13.324 11.075-46.902 15.842-67.784 15.732H221.1c-22.663.685-50.386-1.912-65.008-15.153l1.504 17.582c14.031 14.055 41.95 16.78 64.66 16.078h63.85c20.49.11 53.625-4.615 66.627-15.731l1.389-18.508z" fill="#111"/><path d="M152.88 725.194l2.891 5.436 9.178 17.697c.513 8.756 3.449 12.71 7 13.437.145 1.498 8.576 91.405 8.576 117.85l9.437.37c0-28.043-8.41-115.992-8.575-117.688 3.17-.81 5.18-5.697 5.883-12.829 3.61-8.314 8.807-16.664 12.929-24.736-15.437.173-31.451.463-47.32.463zm27.132 20.6c-2.685 1.67-6.085 1.157-8.113-.21l-6.828-14.212 22.326.07c-2.566 4.635-5.12 9.556-7.385 14.353z" style="text-indent:0;text-align:start;line-height:normal;text-transform:none;block-progression:tb;marker:none;-inkscape-font-specification:Sans" font-weight="400" color="#000" fill="#111" overflow="visible" font-family="Sans"/><path d="M322.145 893.295v8.516h-2.363c-2.307 0-2.548 2.089-2.548 4.396v8.928c0 2.435 2.124 4.396 4.762 4.396h.149v1.923h9.227v-1.923h.298c2.638 0 4.763-1.96 4.763-4.396v-8.928c0-2.506-.195-4.396-2.028-4.396h-3.033v-8.516z" fill="#111"/><path style="text-indent:0;text-align:start;line-height:normal;text-transform:none;block-progression:tb;marker:none;-inkscape-font-specification:Sans" d="M359.227 725.194l-2.891 5.436-9.178 17.697c-.513 8.756-3.449 12.71-7 13.437-.144 1.498-8.576 91.405-8.576 117.85l-9.437.37c0-28.043 8.41-115.992 8.575-117.688-3.17-.81-5.18-5.697-5.883-12.829-3.609-8.314-8.807-16.664-12.929-24.736 15.437.173 31.451.463 47.32.463zm-27.132 20.6c2.685 1.67 6.085 1.157 8.113-.21l6.828-14.212-22.326.07c2.566 4.635 5.12 9.556 7.385 14.353z" font-weight="400" color="#000" fill="#111" overflow="visible" font-family="Sans"/></g></svg><svg id="bongo_hs" width="512" height="512"><defs><linearGradient id="a"><stop offset="0" stop-color="#b98331"/><stop offset="1" stop-color="#b98331" stop-opacity="0"/></linearGradient><linearGradient y2="972.106" x2="255.956" y1="906.882" x1="255.956" gradientTransform="translate(50.21 192.527) scale(.80387)" gradientUnits="userSpaceOnUse" id="b" xlink:href="#a"/></defs><g transform="translate(0 -540.362)"><path d="M144.227 898.09h220.732l-5.691 72.81-208.894-.712z" fill="url(#b)"/><path d="M333.429 724.283c0 42.763-34.666 77.43-77.429 77.43-42.763 0-77.429-34.667-77.429-77.43 0-42.762 34.666-77.428 77.429-77.428 42.763 0 77.429 34.666 77.429 77.428z" fill="#111"/><text style="line-height:125%;-inkscape-font-specification:Sans Bold" x="220.917" y="760.734" font-size="100" font-weight="700" letter-spacing="0" word-spacing="0" fill="#fff" font-family="Sans"><tspan x="220.917" y="760.734">S</tspan></text><path d="M150.374 970.188l-6.147-72.098h220.732l-5.691 72.81" fill="none" stroke="#111" stroke-width="3.707"/><path d="M161.323 844.627c-10.262 0-18.524 9.759-18.524 21.88v2.114c0 1.558.087 3.136.347 4.6H368.34c.26-1.464.347-3.042.347-4.6v-2.113c0-12.122-8.262-21.88-18.525-21.88H161.323z" fill="#ffdea8" stroke="#111" stroke-width="4.341"/><rect ry="7.415" rx="7.415" width="256.648" height="30.134" x="127.676" y="867.636" fill="#111"/><path d="M152.714 896.467l2.896 5.445 9.192 17.725c.515 8.77 3.455 12.73 7.012 13.46.06.63 3.333 37.472 3.333 37.472l9.455-.018s-3.266-36.21-3.335-36.923c3.174-.81 5.19-5.705 5.893-12.85 3.614-8.327 8.82-16.69 12.95-24.775-15.462.174-31.503.464-47.396.464zM179.89 917.1c-2.69 1.672-6.095 1.158-8.126-.212l-6.839-14.234 22.362.07c-2.57 4.643-5.129 9.572-7.397 14.376zM359.393 896.467l-2.896 5.445-9.192 17.725c-.515 8.77-3.455 12.73-7.012 13.46-.06.626-3.308 37.17-3.308 37.17l-9.382-.853s3.17-35.086 3.238-35.786c-3.175-.81-5.19-5.705-5.893-12.85-3.615-8.327-8.821-16.69-12.95-24.775 15.462.174 31.502.464 47.395.464zM332.217 917.1c2.69 1.672 6.095 1.158 8.126-.212l6.839-14.234-22.362.07c2.57 4.643 5.129 9.572 7.397 14.376z" style="text-indent:0;text-align:start;line-height:normal;text-transform:none;block-progression:tb;marker:none;-inkscape-font-specification:Sans" font-weight="400" color="#000" fill="#111" overflow="visible" font-family="Sans"/><rect width="400.67" height="417.78" x="55.665" y="608.108" rx="5.377" ry="5.95" fill="#fff" fill-opacity=".275"/></g></svg><svg id="bongo_l" width="512" height="512"><g transform="translate(0 -540.362)"><path d="M116.956 709.707h274.588l-15.076 192.848c-16.2 13.85-57.418 19.783-82.946 19.646H214c-28.295.873-63.15-2.516-80.633-20.029z" fill="#b98331" stroke="#111" stroke-width="4.612"/><path d="M161.663 917.138v10.612h-2.943c-2.875 0-3.176 2.602-3.176 5.476v11.125c0 3.034 2.647 5.477 5.934 5.477h.185v2.396h11.498v-2.396h.37c3.288 0 5.935-2.443 5.935-5.477v-11.125c0-3.122-.242-5.476-2.527-5.476h-3.778v-10.612z" fill="#111"/><path d="M138.224 643.2c-12.767 0-23.045 12.14-23.045 27.22v2.628c0 1.939.11 3.901.433 5.723h280.136c.323-1.822.432-3.784.432-5.723v-2.629c0-15.08-10.278-27.219-23.044-27.219H138.224z" fill="#ffdea8" stroke="#111" stroke-width="5.4"/><rect ry="9.224" rx="9.224" width="319.266" height="37.486" x="96.367" y="671.823" fill="#111"/><path d="M378.258 879.484c-16.602 13.799-58.439 19.738-84.457 19.601h-81.286c-28.237.854-62.78-2.382-80.998-18.88l1.874 21.907c17.482 17.513 52.27 20.907 80.565 20.033h79.557c25.528.137 66.814-5.75 83.015-19.6l1.73-23.06z" fill="#111"/><path d="M127.514 707.688l3.603 6.773 11.435 22.05c.64 10.91 4.298 15.836 8.722 16.743.18 1.866 10.686 113.889 10.686 146.84l11.758.46c0-34.942-10.478-144.524-10.685-146.638 3.95-1.008 6.456-7.098 7.33-15.984 4.498-10.36 10.974-20.763 16.11-30.82-19.234.215-39.188.576-58.96.576zm33.806 25.668c-3.346 2.08-7.581 1.441-10.108-.263l-8.507-17.708 27.817.087c-3.197 5.776-6.38 11.908-9.202 17.884z" style="text-indent:0;text-align:start;line-height:normal;text-transform:none;block-progression:tb;marker:none;-inkscape-font-specification:Sans" font-weight="400" color="#000" fill="#111" overflow="visible" font-family="Sans"/><path d="M338.415 917.138v10.612h-2.943c-2.875 0-3.176 2.602-3.176 5.476v11.125c0 3.034 2.647 5.477 5.934 5.477h.185v2.396h11.498v-2.396h.37c3.288 0 5.935-2.443 5.935-5.477v-11.125c0-3.122-.243-5.476-2.527-5.476h-3.778v-10.612z" fill="#111"/><path style="text-indent:0;text-align:start;line-height:normal;text-transform:none;block-progression:tb;marker:none;-inkscape-font-specification:Sans" d="M384.62 707.688l-3.604 6.773-11.434 22.05c-.64 10.91-4.298 15.836-8.723 16.743-.18 1.866-10.685 113.889-10.685 146.84l-11.759.46c0-34.942 10.479-144.524 10.685-146.638-3.95-1.008-6.455-7.098-7.33-15.984-4.497-10.36-10.974-20.763-16.11-30.82 19.234.215 39.188.576 58.96.576zm-33.807 25.668c3.346 2.08 7.582 1.441 10.108-.263l8.508-17.708-27.818.087c3.198 5.776 6.38 11.908 9.202 17.884z" font-weight="400" color="#000" fill="#111" overflow="visible" font-family="Sans"/></g></svg><svg id="bongo_ls" width="512" height="512"><g transform="translate(0 -540.362)"><path d="M116.956 876.99h274.588l-7.08 89.336-259.86.353z" fill="#b98331"/><path d="M333.429 700.283c0 42.763-34.666 77.43-77.429 77.43-42.763 0-77.429-34.667-77.429-77.43 0-42.762 34.666-77.428 77.429-77.428 42.763 0 77.429 34.666 77.429 77.428z" fill="#111"/><text style="line-height:125%;-inkscape-font-specification:Sans Bold" x="220.917" y="736.734" font-size="100" font-weight="700" letter-spacing="0" word-spacing="0" fill="#fff" font-family="Sans"><tspan x="220.917" y="736.734">S</tspan></text><path d="M124.604 966.679l-7.648-89.69h274.588l-7.08 89.69" fill="none" stroke="#111" stroke-width="4.612"/><path d="M138.224 810.483c-12.767 0-23.045 12.14-23.045 27.219v2.63c0 1.937.11 3.9.433 5.721h280.136c.323-1.821.432-3.784.432-5.722v-2.629c0-15.08-10.278-27.219-23.044-27.219H138.224z" fill="#ffdea8" stroke="#111" stroke-width="5.4"/><rect ry="9.224" rx="9.224" width="319.266" height="37.486" x="96.367" y="839.105" fill="#111"/><path d="M123.525 922.785h261.407l-2.75 43.565-255.433-.153z" fill="#fff" fill-opacity=".314"/><path d="M125.15 937.902h258.987l-1.955 28.448-255.433-.09z" fill="#fff" fill-opacity=".392"/><path d="M125.525 952.648h257.551l-.894 13.952-255.433-.044z" fill="#fff" fill-opacity=".588"/><path d="M127.514 874.97l3.603 6.774 11.435 22.05c.64 10.91 4.298 15.835 8.722 16.743.076.783 4.147 46.615 4.147 46.615l11.761-.022s-4.062-45.044-4.149-45.93c3.95-1.01 6.456-7.099 7.33-15.985 4.498-10.36 10.974-20.763 16.11-30.82-19.234.215-39.188.576-58.96.576zm33.806 25.669c-3.346 2.08-7.581 1.441-10.108-.263l-8.507-17.708 27.817.087c-3.197 5.776-6.38 11.908-9.202 17.884zM384.62 874.97l-3.604 6.774-11.435 22.05c-.64 10.91-4.297 15.835-8.722 16.743-.075.78-4.115 46.24-4.115 46.24l-11.671-1.061s3.942-43.647 4.027-44.517c-3.95-1.009-6.455-7.098-7.33-15.985-4.497-10.36-10.974-20.763-16.11-30.82 19.234.216 39.188.576 58.96.576zm-33.807 25.669c3.346 2.08 7.582 1.441 10.108-.263l8.508-17.708-27.818.087c3.198 5.776 6.38 11.908 9.202 17.884z" style="text-indent:0;text-align:start;line-height:normal;text-transform:none;block-progression:tb;marker:none;-inkscape-font-specification:Sans" font-weight="400" color="#000" fill="#111" overflow="visible" font-family="Sans"/><rect width="400.67" height="430.036" x="47.112" y="599.278" rx="5.377" ry="6.124" fill="#fff" fill-opacity=".275"/></g></svg><svg id="cabasa" width="512" height="512"><g stroke="#333" stroke-linecap="round" stroke-linejoin="round"><path transform="matrix(.5757 .35898 -.35852 .57496 81.691 42.753)" d="M267.857 59.857c0 9.862-7.995 17.857-17.857 17.857-9.862 0-17.857-7.995-17.857-17.857C232.143 49.995 240.138 42 250 42c9.862 0 17.857 7.995 17.857 17.857z" fill="#ff9" fill-opacity=".941" stroke-width="11.799"/><path transform="matrix(.5757 .35898 -.35852 .57496 236.67 139.389)" d="M267.857 59.857c0 9.862-7.995 17.857-17.857 17.857-9.862 0-17.857-7.995-17.857-17.857C232.143 49.995 240.138 42 250 42c9.862 0 17.857 7.995 17.857 17.857z" fill="#ff9" fill-opacity=".941" stroke-width="11.799"/><path d="M267.857 59.857c0 9.862-7.995 17.857-17.857 17.857-9.862 0-17.857-7.995-17.857-17.857C232.143 49.995 240.138 42 250 42c9.862 0 17.857 7.995 17.857 17.857z" transform="matrix(.91049 .56773 -.567 .90932 163.281 -104.03)" fill="#ff9" fill-opacity=".941" stroke-width="7.461"/><path fill="#f44800" stroke-width="8" d="M278.863 42.276l159.149 99.236-126.503 202.876-159.149-99.236z"/><path d="M215.966 289.404c-11.779 18.464-21.924 35.99-34.927 55.235-13.333 19.734-29.956 41.343-43.061 60.89-6.773 10.778-4.249 24.535 5.63 30.742 9.878 6.207 23.369 2.513 30.142-8.265 11.776-20.51 23.25-42.561 35.543-63.459 11.363-19.316 24.599-38.435 35.307-57.214" fill="#d9bb7a" stroke-width="6"/><path fill="#ff9" fill-opacity=".941" stroke-width="6" d="M265.669 65.156l157.603 98.273-11.58 18.572-157.604-98.273z"/><path transform="matrix(.5757 .35898 -.35852 .57496 109.066 -3.322)" d="M267.857 59.857c0 9.862-7.995 17.857-17.857 17.857-9.862 0-17.857-7.995-17.857-17.857C232.143 49.995 240.138 42 250 42c9.862 0 17.857 7.995 17.857 17.857z" fill="#ff9" fill-opacity=".941" stroke-width="11.799"/><path d="M267.857 59.857c0 9.862-7.995 17.857-17.857 17.857-9.862 0-17.857-7.995-17.857-17.857C232.143 49.995 240.138 42 250 42c9.862 0 17.857 7.995 17.857 17.857z" transform="matrix(.5757 .35898 -.35852 .57496 101.202 54.918)" fill="#ff9" fill-opacity=".941" stroke-width="11.799"/><path d="M267.857 59.857c0 9.862-7.995 17.857-17.857 17.857-9.862 0-17.857-7.995-17.857-17.857C232.143 49.995 240.138 42 250 42c9.862 0 17.857 7.995 17.857 17.857z" transform="matrix(.5757 .35898 -.35852 .57496 154.59 25.065)" fill="#ff9" fill-opacity=".941" stroke-width="11.799"/><path transform="matrix(.5757 .35898 -.35852 .57496 149.653 85.13)" d="M267.857 59.857c0 9.862-7.995 17.857-17.857 17.857-9.862 0-17.857-7.995-17.857-17.857C232.143 49.995 240.138 42 250 42c9.862 0 17.857 7.995 17.857 17.857z" fill="#ff9" fill-opacity=".941" stroke-width="11.799"/><path transform="matrix(.5757 .35898 -.35852 .57496 209.22 59.13)" d="M267.857 59.857c0 9.862-7.995 17.857-17.857 17.857-9.862 0-17.857-7.995-17.857-17.857C232.143 49.995 240.138 42 250 42c9.862 0 17.857 7.995 17.857 17.857z" fill="#ff9" fill-opacity=".941" stroke-width="11.799"/><path d="M267.857 59.857c0 9.862-7.995 17.857-17.857 17.857-9.862 0-17.857-7.995-17.857-17.857C232.143 49.995 240.138 42 250 42c9.862 0 17.857 7.995 17.857 17.857z" transform="matrix(.5757 .35898 -.35852 .57496 199.404 116.152)" fill="#ff9" fill-opacity=".941" stroke-width="11.799"/><path d="M267.857 59.857c0 9.862-7.995 17.857-17.857 17.857-9.862 0-17.857-7.995-17.857-17.857C232.143 49.995 240.138 42 250 42c9.862 0 17.857 7.995 17.857 17.857z" transform="matrix(.5757 .35898 -.35852 .57496 265.67 94.329)" fill="#ff9" fill-opacity=".941" stroke-width="11.799"/><path fill="#ff9" fill-opacity=".941" stroke-width="6" d="M180.327 202.02l157.604 98.273-11.58 18.572-157.604-98.274z"/></g></svg><svg id="cajon" viewBox="0 0 48 48"><rect width="2.924" height="2.691" x="12.834" y="40.251" rx=".401" ry=".401" fill="#222"/><rect ry=".401" rx=".401" y="40.251" x="32.265" height="2.691" width="2.924" fill="#222"/><rect width="27.549" height="35.549" x="10.225" y="5.225" rx=".881" ry=".852" fill="#e4ca84" stroke="#222" stroke-width=".451" stroke-linecap="round" stroke-linejoin="round"/><path d="M13.99 35.988a.859.859 0 1 1-1.718 0 .859.859 0 1 1 1.718 0zM13.99 29.214a.859.859 0 1 1-1.718 0 .859.859 0 1 1 1.718 0zM13.99 22.462a.859.859 0 1 1-1.718 0 .859.859 0 1 1 1.718 0zM13.99 15.732a.859.859 0 1 1-1.718 0 .859.859 0 1 1 1.718 0zM13.99 9.028a.859.859 0 1 1-1.718 0 .859.859 0 1 1 1.718 0zM21.247 9.028a.859.859 0 1 1-1.718 0 .859.859 0 1 1 1.718 0zM28.481 9.028a.859.859 0 1 1-1.718 0 .859.859 0 1 1 1.718 0zM35.728 9.028a.859.859 0 1 1-1.718 0 .859.859 0 1 1 1.718 0zM35.727 35.988a.859.859 0 1 1-1.718 0 .859.859 0 1 1 1.718 0zM35.727 29.214a.859.859 0 1 1-1.718 0 .859.859 0 1 1 1.718 0zM35.727 22.462a.859.859 0 1 1-1.718 0 .859.859 0 1 1 1.718 0zM35.727 15.732a.859.859 0 1 1-1.718 0 .859.859 0 1 1 1.718 0z" fill="#805a0f"/><path d="M28 31a4 4 0 1 1-8 0 4 4 0 1 1 8 0z" fill="#a07829"/></svg><svg id="clap" viewBox="0 0 512 512"><path d="M209.61 257.902l56.242-81.1c7.609-10.97 19.687-17.897 32.862-19.06a19.893 19.893 0 0 0-2.613-8.165c-5.563-9.547-17.812-12.78-27.36-7.216l-13.44 7.83c3.148-5.915 3.274-13.265-.347-19.48-5.563-9.547-17.812-12.78-27.361-7.217l-120.309 70.087 13.3-33.797c4.046-10.284-1.01-21.9-11.294-25.943-10.282-4.047-21.898 1.01-25.943 11.291 0 0-25.765 64.991-34.13 86.742-8.307 21.595-13.833 37.495-3.365 55.465l24.153 41.458c12.338 21.178 37.198 30.617 59.795 24.43l-4.458-71.715c-1.536-24.685 17.197-45.913 41.887-47.447 18-1.12 34.346 8.616 42.381 23.837z" fill="#fac083" stroke="#000" stroke-width="4"/><path d="M356.243 143.562c4.352 4.348 11.399 4.347 15.747 0l54.519-54.519c4.348-4.35 4.348-11.399 0-15.747-4.35-4.347-11.399-4.347-15.747 0l-54.519 54.517c-4.348 4.35-4.348 11.399 0 15.749z" fill="#333" stroke="#fff" stroke-width="11.425"/><path d="M324.029 109.587c5.848 1.863 12.119-1.363 13.988-7.232l17.714-55.632c1.866-5.858-1.372-12.121-7.231-13.988-5.862-1.873-12.122 1.372-13.988 7.232l-17.714 55.632c-1.867 5.86 1.371 12.122 7.231 13.988zM467.07 151.307c-1.867-5.858-8.126-9.1-13.988-7.232l-55.632 17.713c-6.29 2.003-9.638 9.132-6.651 15.401.461.695.907 1.4 1.328 2.12 2.83 3.56 7.582 5.131 12.079 3.698l55.632-17.714c5.86-1.864 9.096-8.126 7.232-13.986z" fill="#333" stroke="#fff" stroke-width="12.377"/><path d="M387.752 298.549c-6.578-4.562-14.815-5.147-21.792-2.114l21.262-30.662c7.077-10.205 4.542-24.215-5.664-31.29-6.58-4.564-14.816-5.147-21.793-2.114l12.21-17.608c7.077-10.205 4.542-24.215-5.663-31.292-10.19-7.068-24.205-4.555-31.291 5.664l-9.962 14.363c.392-7.52-2.975-15.062-9.618-19.67-10.195-7.069-24.208-4.55-31.291 5.665l-89.17 128.582-2.533-40.738c-.77-12.393-11.442-21.819-23.837-21.045-12.395.769-21.818 11.443-21.046 23.836 0 0 4.58 78.437 6.5 104.556 1.95 26.525 3.747 44.757 22.952 58.074l44.309 30.728a59.228 59.228 0 0 0 33.852 10.596c18.884 0 37.47-8.938 49.022-25.596l89.215-128.646c7.079-10.202 4.543-24.212-5.662-31.29z" fill="#ffb15c" stroke="#000" stroke-width="4"/><path d="M325.55 202.567l-59.248 85.955M359.871 232.287l-54.906 77.272M366.462 295.725l-34.936 47.316M256.196 149.168l-83.125 55.566M241.904 211.309l-29.142 19.48" fill="none" stroke="#000" stroke-width="4"/></svg><svg id="claves" width="512" height="512"><g stroke="#333" stroke-linejoin="round" stroke-dashoffset="8"><path d="M39.01 98.143l427.163 176.06c3.843 19.994-8.422 49.333-27.627 61.93L13.012 160.074c-5.065-20.159 10.47-50.649 25.997-61.93z" fill="#a2612d" stroke-width="6.085"/><path d="M79.492 361.039L460.505 98.032c19.312 6.587 35.155 30.755 39.46 48.405L118.95 413.967c-16.858-8.478-36.962-28.674-39.46-52.928z" fill="#d9bb7a" stroke-width="6.085"/><path transform="matrix(1.60504 .46709 -.50289 1.23199 260.227 -263.594)" d="M241.429 370.929a7.321 25.357 0 1 1-14.643 0 7.321 25.357 0 1 1 14.643 0z" fill="#d7803c" stroke-width="4"/><path d="M241.429 370.929a7.321 25.357 0 1 1-14.643 0 7.321 25.357 0 1 1 14.643 0z" transform="matrix(1.1315 -1.23046 .88034 .99785 -487.84 302.38)" fill="#f2d089" stroke-width="4"/></g></svg><svg id="conga" width="512" height="512"><path d="M127.397 58.137h258.332c33.978 121.092-7.276 299.973-49.17 443.52H172.27c-62.953-243.926-65.973-340.045-44.874-443.52z" fill="#a2794a" fill-opacity=".941" stroke="#333" stroke-width="8" stroke-linecap="round" stroke-linejoin="round" stroke-miterlimit="10"/><path d="M129.31 27.378h252.819l5 28.102H124.986z" fill="#fee5b9" stroke="#333" stroke-width="8" stroke-linecap="round" stroke-linejoin="round" stroke-miterlimit="10"/><path d="M220.209 89.57h73.24l-35.707 83.552z" fill="#fee5b9" stroke="#333" stroke-width="4" stroke-linecap="round" stroke-linejoin="round"/><path d="M231.037 60.466c5.005 32.998 55.43 22.372 50.62 0z" fill="#fee5b9" stroke="#333" stroke-width="4"/><path style="text-indent:0;text-align:start;line-height:normal;text-transform:none;block-progression:tb;marker:none;-inkscape-font-specification:Sans" d="M256.164 74.591a2.956 2.96 0 0 0-2.925 3.021v20.319a2.956 2.96 0 1 0 5.91 0V77.612a2.956 2.96 0 0 0-2.985-3.021z" font-weight="400" color="#000" fill="#fee5b9" stroke="#333" stroke-width="3" overflow="visible" font-family="Sans"/><path d="M323.048 92.47l56.228-3.492c-4.255 24.41-6.464 44.986-30.48 74.685-7.753-24.827-12.943-46.366-25.748-71.193z" fill="#fee5b9" stroke="#333" stroke-width="4" stroke-linecap="round" stroke-linejoin="round"/><path d="M328.415 61.445c9.599 29.28 46.002 16.916 41.846-.972z" fill="#fee5b9" stroke="#333" stroke-width="3.5"/><path d="M351.504 72.62a3 2.508 0 0 1 2.75 2.194c1.078 6.385 2.353 12.974 1.719 19.777a3 2.508 0 1 1-5.97-.392c.562-6.021-.599-12.24-1.687-18.68a3 2.508 0 0 1 3.188-2.9z" style="text-indent:0;text-align:start;line-height:normal;text-transform:none;block-progression:tb;marker:none;-inkscape-font-specification:Sans" font-weight="400" color="#000" fill="#fee5b9" stroke="#333" stroke-width="3" overflow="visible" font-family="Sans"/><path fill="#333" d="M253.103 75.453h6.104v7.772h-6.104zM348.323 72.914l4.975-.284 1.326 8.245-4.943-.032zM263.798 105.233c0 4.802-3.272 8.695-7.308 8.695-4.037 0-7.31-3.893-7.31-8.695 0-4.802 3.273-8.695 7.31-8.695 4.036 0 7.308 3.893 7.308 8.695zM360.187 102.238c0 4.727-3.221 8.56-7.195 8.56s-7.195-3.833-7.195-8.56c0-4.728 3.221-8.56 7.195-8.56s7.195 3.832 7.195 8.56z"/><path d="M192.133 92.47l-56.228-3.492c4.255 24.41 6.464 44.986 30.48 74.685 7.753-24.827 12.943-46.366 25.748-71.193z" fill="#fee5b9" stroke="#333" stroke-width="4" stroke-linecap="round" stroke-linejoin="round"/><path d="M186.766 61.445c-9.599 29.28-46.002 16.916-41.846-.972z" fill="#fee5b9" stroke="#333" stroke-width="3.5"/><path style="text-indent:0;text-align:start;line-height:normal;text-transform:none;block-progression:tb;marker:none;-inkscape-font-specification:Sans" d="M163.677 72.62a3 2.508 0 0 0-2.75 2.194c-1.079 6.385-2.353 12.974-1.719 19.777a3 2.508 0 1 0 5.969-.392c-.562-6.021.6-12.24 1.687-18.68a3 2.508 0 0 0-3.187-2.9z" font-weight="400" color="#000" fill="#fee5b9" stroke="#333" stroke-width="3" overflow="visible" font-family="Sans"/><path d="M166.858 72.914l-4.975-.284-1.326 8.245 4.943-.032zM154.994 102.238c0 4.727 3.221 8.56 7.195 8.56s7.195-3.833 7.195-8.56c0-4.728-3.221-8.56-7.195-8.56s-7.195 3.832-7.195 8.56z" fill="#333"/><path style="text-indent:0;text-align:start;line-height:normal;text-transform:none;block-progression:tb;marker:none;-inkscape-font-specification:Sans" d="M231.469 429.044l-6.844 10.656-19.313 30-17.375-29.375-6.218-10.53-7.156 9.937-10.428 14.49 5.266 20.235L172 470.7l8.406-11.687 17.719 30 6.594 11.156 7.031-10.906 19.438-30.25L249 487.825l6.781 10.938 6.813-10.938 17.437-27.937 20.063 29.344 7.781 11.375 6.031-12.407 14.063-29 10.437 12.375 1.938 2.374 5.253-18.704-13.347-15.795-7.938-9.406-5.375 11.094-13.406 27.687-19.219-28.062-6.906-10.125-6.469 10.406-17.093 27.375-17.688-28.594z" font-weight="400" color="#000" fill="#fee5b9" stroke="#333" stroke-width="3" overflow="visible" font-family="Sans"/></svg><svg id="conga2" viewBox="0 0 199.366 199.366"><path d="M53.436 29.773l-.259.517c-8.733 19.104-14.013 30.65-14.013 59.672 0 13.723 3.545 30.516 7.705 45.556.02.178.057.334.13.491 3.764 13.53 8.033 25.598 10.651 32.628 2.947 7.912 10.614 13.238 19.08 13.238h46.125c8.466 0 16.133-5.325 19.08-13.238 2.618-7.03 6.887-19.072 10.652-32.602.073-.158.11-.337.13-.517 4.16-15.04 7.678-31.833 7.678-45.556 0-29.024-5.253-40.567-13.987-59.672l-.258-.517H53.436z" fill="#e9b96e" stroke="#333" stroke-width="3"/><path d="M65.906 30L52.281 60.281l3.282.782 12.906-28.72L81.75 61.938h4.656l13.281-29.593L113 61.937h4.625l13.313-29.593 12.75 28.406 3.375-.594L133.5 30h-5.125l-13.063 29.031L102.25 30h-5.125L84.062 59.031 71.032 30z" fill="#333"/><path d="M59.818 64.735a6.492 6.492 0 1 1-12.984 0 6.492 6.492 0 1 1 12.984 0z" fill="none" stroke="#333" stroke-width="5.000296240000001"/><path d="M90.805 66.826a6.79 6.79 0 1 1-13.581 0 6.79 6.79 0 1 1 13.58 0zM122.016 66.826a6.79 6.79 0 1 1-13.58 0 6.79 6.79 0 1 1 13.58 0z" fill="none" stroke="#333" stroke-width="5.000260299999999"/><path d="M152.584 64.735a6.492 6.492 0 1 1-12.983 0 6.492 6.492 0 1 1 12.983 0z" fill="none" stroke="#333" stroke-width="5.000296240000001"/><path d="M52.788 18.435c-2.779 0-5.026 2.387-5.026 5.3v5.67c0 .786.55 1.45 1.256 1.602h100.96c.708-.152 1.228-.816 1.228-1.602v-5.67c0-2.913-2.277-5.3-5.055-5.3H52.788zM54.938 160.906a444.127 444.127 0 0 0 2.718 7.5c2.956 7.892 10.635 13.188 19.125 13.188h46.25c8.49 0 16.201-5.295 19.156-13.188.772-2.06 1.717-4.666 2.72-7.5h-89.97z" fill="#333"/></svg><svg id="conga_l" width="512" height="512"><path d="M127.397 58.137h258.332c33.978 121.092-7.276 299.973-49.17 443.52H172.27c-62.953-243.926-65.973-340.045-44.874-443.52z" fill="#a2794a" fill-opacity=".941" stroke="#333" stroke-width="8" stroke-linecap="round" stroke-linejoin="round" stroke-miterlimit="10"/><path d="M129.31 27.378h252.819l5 28.102H124.986z" fill="#fee5b9" stroke="#333" stroke-width="8" stroke-linecap="round" stroke-linejoin="round" stroke-miterlimit="10"/><path d="M220.209 89.57h73.24l-35.707 83.552z" fill="#fee5b9" stroke="#333" stroke-width="4" stroke-linecap="round" stroke-linejoin="round"/><path d="M231.037 60.466c5.005 32.998 55.43 22.372 50.62 0z" fill="#fee5b9" stroke="#333" stroke-width="4"/><path style="text-indent:0;text-align:start;line-height:normal;text-transform:none;block-progression:tb;marker:none;-inkscape-font-specification:Sans" d="M256.164 74.591a2.956 2.96 0 0 0-2.925 3.021v20.319a2.956 2.96 0 1 0 5.91 0V77.612a2.956 2.96 0 0 0-2.985-3.021z" font-weight="400" color="#000" fill="#fee5b9" stroke="#333" stroke-width="3" overflow="visible" font-family="Sans"/><path d="M323.048 92.47l56.228-3.492c-4.255 24.41-6.464 44.986-30.48 74.685-7.753-24.827-12.943-46.366-25.748-71.193z" fill="#fee5b9" stroke="#333" stroke-width="4" stroke-linecap="round" stroke-linejoin="round"/><path d="M328.415 61.445c9.599 29.28 46.002 16.916 41.846-.972z" fill="#fee5b9" stroke="#333" stroke-width="3.5"/><path d="M351.504 72.62a3 2.508 0 0 1 2.75 2.194c1.078 6.385 2.353 12.974 1.719 19.777a3 2.508 0 1 1-5.97-.392c.562-6.021-.599-12.24-1.687-18.68a3 2.508 0 0 1 3.188-2.9z" style="text-indent:0;text-align:start;line-height:normal;text-transform:none;block-progression:tb;marker:none;-inkscape-font-specification:Sans" font-weight="400" color="#000" fill="#fee5b9" stroke="#333" stroke-width="3" overflow="visible" font-family="Sans"/><path fill="#333" d="M253.103 75.453h6.104v7.772h-6.104zM348.323 72.914l4.975-.284 1.326 8.245-4.943-.032zM263.798 105.233c0 4.802-3.272 8.695-7.308 8.695-4.037 0-7.31-3.893-7.31-8.695 0-4.802 3.273-8.695 7.31-8.695 4.036 0 7.308 3.893 7.308 8.695zM360.187 102.238c0 4.727-3.221 8.56-7.195 8.56s-7.195-3.833-7.195-8.56c0-4.728 3.221-8.56 7.195-8.56s7.195 3.832 7.195 8.56z"/><path d="M192.133 92.47l-56.228-3.492c4.255 24.41 6.464 44.986 30.48 74.685 7.753-24.827 12.943-46.366 25.748-71.193z" fill="#fee5b9" stroke="#333" stroke-width="4" stroke-linecap="round" stroke-linejoin="round"/><path d="M186.766 61.445c-9.599 29.28-46.002 16.916-41.846-.972z" fill="#fee5b9" stroke="#333" stroke-width="3.5"/><path style="text-indent:0;text-align:start;line-height:normal;text-transform:none;block-progression:tb;marker:none;-inkscape-font-specification:Sans" d="M163.677 72.62a3 2.508 0 0 0-2.75 2.194c-1.079 6.385-2.353 12.974-1.719 19.777a3 2.508 0 1 0 5.969-.392c-.562-6.021.6-12.24 1.687-18.68a3 2.508 0 0 0-3.187-2.9z" font-weight="400" color="#000" fill="#fee5b9" stroke="#333" stroke-width="3" overflow="visible" font-family="Sans"/><path d="M166.858 72.914l-4.975-.284-1.326 8.245 4.943-.032zM154.994 102.238c0 4.727 3.221 8.56 7.195 8.56s7.195-3.833 7.195-8.56c0-4.728-3.221-8.56-7.195-8.56s-7.195 3.832-7.195 8.56z" fill="#333"/><path style="text-indent:0;text-align:start;line-height:normal;text-transform:none;block-progression:tb;marker:none;-inkscape-font-specification:Sans" d="M231.469 429.044l-6.844 10.656-19.313 30-17.375-29.375-6.218-10.53-7.156 9.937-10.428 14.49 5.266 20.235L172 470.7l8.406-11.687 17.719 30 6.594 11.156 7.031-10.906 19.438-30.25L249 487.825l6.781 10.938 6.813-10.938 17.437-27.937 20.063 29.344 7.781 11.375 6.031-12.407 14.063-29 10.437 12.375 1.938 2.374 5.253-18.704-13.347-15.795-7.938-9.406-5.375 11.094-13.406 27.687-19.219-28.062-6.906-10.125-6.469 10.406-17.093 27.375-17.688-28.594z" font-weight="400" color="#000" fill="#fee5b9" stroke="#333" stroke-width="3" overflow="visible" font-family="Sans"/></svg><svg id="conga_ls" width="512" height="512"><defs><linearGradient id="a"><stop offset="0" stop-color="#a2794a"/><stop offset="1" stop-color="#a2794a" stop-opacity="0"/></linearGradient><linearGradient xlink:href="#a" id="b" x1="255.243" y1="882.162" x2="256.249" y2="995.805" gradientUnits="userSpaceOnUse" gradientTransform="translate(0 -31.26)"/></defs><g transform="translate(0 -540.362)"><path d="M126.433 822.954h258.332c11.694 41.675 11.39 141.762 11.39 141.762l-280.819-2.212s2.147-95.657 11.097-139.55z" fill="url(#b)"/><path d="M115.336 962.505c-3.023-54.21 2.082-97.216 11.811-139.551h257.618c11.694 41.675 14.477 90.194 11.39 141.762" fill="none" stroke="#333" stroke-width="8" stroke-linecap="round" stroke-linejoin="round" stroke-miterlimit="10"/><path d="M128.346 792.195h252.819l5 28.103H124.022z" fill="#fee5b9" stroke="#333" stroke-width="8" stroke-linecap="round" stroke-linejoin="round" stroke-miterlimit="10"/><path d="M219.244 854.387h73.24l-35.706 83.552z" fill="#fee5b9" stroke="#333" stroke-width="4" stroke-linecap="round" stroke-linejoin="round"/><path d="M230.073 825.284c5.005 32.997 55.43 22.371 50.62 0z" fill="#fee5b9" stroke="#333" stroke-width="4"/><path style="text-indent:0;text-align:start;line-height:normal;text-transform:none;block-progression:tb;marker:none;-inkscape-font-specification:Sans" d="M255.2 839.408a2.956 2.96 0 0 0-2.925 3.022v20.318a2.956 2.96 0 1 0 5.91 0V842.43a2.956 2.96 0 0 0-2.985-3.022z" font-weight="400" color="#000" fill="#fee5b9" stroke="#333" stroke-width="3" overflow="visible" font-family="Sans"/><path d="M322.084 857.287l56.228-3.492c-4.255 24.41-6.464 44.986-30.48 74.685-7.753-24.826-12.943-46.366-25.748-71.193z" fill="#fee5b9" stroke="#333" stroke-width="4" stroke-linecap="round" stroke-linejoin="round"/><path d="M327.45 826.262c9.6 29.28 46.003 16.916 41.847-.972z" fill="#fee5b9" stroke="#333" stroke-width="3.5"/><path d="M350.54 837.437a3 2.508 0 0 1 2.75 2.195c1.078 6.384 2.353 12.973 1.719 19.776a3 2.508 0 1 1-5.97-.392c.562-6.02-.599-12.24-1.687-18.679a3 2.508 0 0 1 3.188-2.9z" style="text-indent:0;text-align:start;line-height:normal;text-transform:none;block-progression:tb;marker:none;-inkscape-font-specification:Sans" font-weight="400" color="#000" fill="#fee5b9" stroke="#333" stroke-width="3" overflow="visible" font-family="Sans"/><path fill="#333" d="M252.139 840.27h6.104v7.772h-6.104zM347.36 837.731l4.974-.284 1.326 8.245-4.943-.031zM262.834 870.05a7.309 8.695 0 1 1-14.617 0 7.309 8.695 0 1 1 14.617 0zM359.223 867.055a7.195 8.56 0 1 1-14.39 0 7.195 8.56 0 1 1 14.39 0z"/><path d="M191.169 857.287l-56.228-3.492c4.255 24.41 6.463 44.986 30.48 74.685 7.753-24.826 12.943-46.366 25.748-71.193z" fill="#fee5b9" stroke="#333" stroke-width="4" stroke-linecap="round" stroke-linejoin="round"/><path d="M185.802 826.262c-9.6 29.28-46.002 16.916-41.846-.972z" fill="#fee5b9" stroke="#333" stroke-width="3.5"/><path style="text-indent:0;text-align:start;line-height:normal;text-transform:none;block-progression:tb;marker:none;-inkscape-font-specification:Sans" d="M162.713 837.437a3 2.508 0 0 0-2.75 2.195c-1.079 6.384-2.353 12.973-1.719 19.776a3 2.508 0 1 0 5.969-.392c-.562-6.02.6-12.24 1.687-18.679a3 2.508 0 0 0-3.187-2.9z" font-weight="400" color="#000" fill="#fee5b9" stroke="#333" stroke-width="3" overflow="visible" font-family="Sans"/><path d="M165.893 837.731l-4.974-.284-1.326 8.245 4.943-.031zM154.03 867.055a7.195 8.56 0 1 1 14.39 0 7.195 8.56 0 1 1-14.39 0z" fill="#333"/><path d="M323.143 681.551a77.429 77.429 0 1 1-154.858 0 77.429 77.429 0 1 1 154.858 0z" fill="#111"/><text style="line-height:125%;-inkscape-font-specification:Sans Bold" x="185.883" y="718.001" font-size="90" font-weight="700" letter-spacing="0" word-spacing="0" fill="#fff" font-family="Sans"><tspan x="185.883" y="718.001">LS</tspan></text><rect width="400.67" height="408.922" x="59.948" y="579.68" rx="5.377" ry="5.823" fill="#fff" fill-opacity=".275"/></g></svg><svg id="cowbell" width="512" height="512"><g transform="translate(0 -540.362)"><rect width="61.446" height="38.28" x="220.042" y="583.14" rx="2.212" ry="1.579" fill="#222"/><path d="M167.24 613.016h161.311c3.843 0 5.989 3.213 6.937 6.937l75.658 297.048c.75 2.942-14.63 55.706-22.591 78.174-3.962 6.848-8.673 9.396-16.805 10.767l-231.873.771c-7.518.334-11.954-5.48-15.483-11.63-8.444-23.146-24.15-77.583-23.55-80.56l59.46-294.57c.76-3.767 3.093-6.937 6.936-6.937z" fill="#b51d10" stroke="#222" stroke-width="5.716" stroke-linejoin="round" stroke-dashoffset="8"/><path d="M124.752 911.56H389.17c5.391 0 11.248 4.672 9.731 9.974l-18.067 63.168c-1.517 5.302-4.34 9.974-9.732 9.974H142.774c-5.391 0-8.218-4.67-9.731-9.974l-18.022-63.168c-1.513-5.303 4.34-9.974 9.731-9.974z" fill="#b51c10" stroke="#ff7b16" stroke-width="21.647" stroke-linejoin="round" stroke-dashoffset="8"/></g></svg><svg id="cowbell2" width="512" height="512"><g transform="translate(0 -540.362)"><rect width="95.076" height="63.384" x="210.171" y="602.193" rx="6.338" ry="6.338" fill="none" stroke="#222" stroke-width="22.184"/><path d="M177.168 638.952h158.803c14.046 0 22.311 6.854 23.753 20.826l32.258 312.65c1.441 13.97-11.308 25.353-25.354 25.353H145.38c-14.046 0-26.845-11.387-25.354-25.354l33.39-312.65c1.492-13.966 9.707-20.825 23.753-20.825z" fill="#b51d10" stroke="#222" stroke-width="7.686"/><path d="M126.292 968.72h259.622c3.48 0 2.28 4.69 2.28 10.515 0 5.826-12.8 14.517-16.28 14.517H138.292c-3.479 0-14.28-8.69-14.28-14.517 0-5.826-1.199-10.516 2.28-10.516z" fill="#fcaf3e"/></g></svg><svg id="crash" width="512" height="512"><g stroke-miterlimit="10" stroke-linecap="round" stroke-linejoin="round"><path d="M265.373 157.487l29.56-81.253c1.602-4.223-.437-8.883-4.66-10.485-4.223-1.602-8.737.728-10.338 4.951l-29.56 81.254 14.998 5.533z" fill="#eefaf9" stroke="#333" stroke-width="5.9993792"/><path d="M290.71 100.551c2.33-6.261-.874-13.105-7.135-15.435l-.728-.291c-6.262-2.33-13.106.874-15.435 7.135L172.47 353.05l23.299 8.446L290.71 100.55z" fill="#eefaf9" stroke="#333" stroke-width="5.9993792"/><path d="M237.852 152.245c0 .146-.146.291-.146.291l-.291.728c-2.33 6.262 1.02 13.106 7.135 15.435l14.416 5.243c6.261 2.33 13.105-1.02 15.435-7.136l.291-.728c0-.145 0-.29.146-.29l-36.986-13.543zM291.147 120.5c0-.145.146-.29.146-.29l.29-.729c2.33-6.261-.873-13.105-7.134-15.435l-14.416-5.242c-6.262-2.33-13.106.874-15.436 7.135l-.29.728c0 .146 0 .291-.146.291l36.986 13.543z" fill="#5c5c5c" stroke="#333" stroke-width="5.9993792"/><path d="M460.352 208.89l-70.915-27.23c-49.363-18.93-68.293-33.201-79.797-45.87-4.805-4.95-14.27-13.833-24.609-17.62-3.203-1.164-12.668-4.659-12.668-4.659h-.292s-9.61-3.495-12.668-4.66c-10.339-3.786-23.444-3.057-30.143-2.33-17.037 2.185-40.772 1.02-90.718-16.163L66.753 65.604c-7.863-2.913-15.435-.437-17.62 5.679l-.145.145c-2.184 6.116 1.602 12.523 9.61 15.436l197.164 71.788h.292l197.163 71.788c7.863 2.913 14.999.437 17.328-5.679l.146-.145c1.747-6.116-2.475-12.814-10.339-15.727z" fill="#fde74c" stroke="#333" stroke-width="5.9993792"/><path fill="none" stroke="#fef5b7" stroke-width="4.00007152" d="M286.196 129.529l-37.423-13.542"/></g><path stroke-miterlimit="10" fill="#eefaf9" stroke="#333" stroke-width="6" stroke-linecap="round" stroke-linejoin="round" d="M170.723 358h24.755v136.959h-24.755z"/><path stroke-miterlimit="10" d="M164.025 357.709a19.576 19.576 0 0 1 19.658-19.659 19.576 19.576 0 0 1 19.658 19.659 19.576 19.576 0 0 1-19.658 19.658c-10.922 0-19.658-8.883-19.658-19.658z" fill="#eefaf9" stroke="#333" stroke-width="5.9993792" stroke-linecap="round" stroke-linejoin="round"/><path d="M187.177 352.903a5.83 5.83 0 0 0-8.154 1.31 5.83 5.83 0 0 0 1.31 8.155 5.83 5.83 0 0 0 8.155-1.31 5.83 5.83 0 0 0-1.31-8.155z" fill="#333"/></svg><svg id="djembe" width="512" height="512"><path d="M125.562 39.622h264.849c-20.477 151.389-40.467 191.372-82.225 254.86l-97.124-.001c-69.564-66.237-80.204-196.306-85.5-254.859z" fill="#caa15f" stroke="#222" stroke-width="5.571" stroke-linecap="round" stroke-linejoin="round" stroke-miterlimit="10"/><path d="M145.741 12.18h224.89c10.804 4.839 17.834 12.427 20.558 21.12 1.397 4.456.585 11.203 1.606 14.653h-271.09c1.42-3.911-.025-10.855 2.454-15.585 4.485-8.557 12.072-15.728 21.582-20.188z" fill="#fee5b9" stroke="#222" stroke-width="6.011" stroke-linecap="round" stroke-linejoin="round" stroke-miterlimit="10"/><path d="M125.695 33.25c22.206 1.04 55.862.694 71.128 0 15.267-.694 94.029 2.429 100.968 1.388 6.94-1.041 54.474-2.082 61.76-2.082 7.287 0 31.228 2.082 31.228 2.082M191.06 271.413c4.175-.857 10.848-5.773 14.801-6.048 14.164-.986 27.227 3.44 38.352 3.057 14.23-.49 33.367 1.963 41.708.49 8.342-1.471 19.227-.135 21.19-.135 1.962 0 9.906 9.828 9.906 9.828" fill="none" stroke="#222" stroke-width="5.496"/><path d="M208.92 294.572l95.024.119c16.234 71.05 26.902 135.196 33.005 195.525 0 7.346-111.135 19.225-161.223.474 5.134-32.611 29.923-196.42 33.195-196.118z" fill="#6b4b13" stroke="#222" stroke-width="5.416" stroke-linecap="round" stroke-linejoin="round"/><path d="M150.291 26.428l-7.595 21.442s6.246 43.718 8.327 49.964c2.082 6.245 15.267 72.17 16.655 75.639 1.388 3.47 39.554 95.07 39.554 95.07l3.47 18.042" fill="none" stroke="#222" stroke-width="5.496"/><path d="M151.583 26.404s-.14 16.701-.36 21.59c-.84 18.698 5.491 55.448 5.491 55.448s17.821 72.622 18.802 78.02c.982 5.397 32.877 87.832 32.877 87.832M197.45 27.107l-7.864 6.96-4.751 13.803s1.093 43.718 3.175 49.964c2.082 6.245 15.266 72.17 16.654 75.639 1.388 3.47 21.95 94.579 21.95 94.579l-9.676 22.063" fill="none" stroke="#222" stroke-width="5.496"/><path d="M189.305 25.79s3.173 17.315 2.953 22.204c-.84 18.698 2.67 55.448 2.67 55.448s15.367 72.622 16.348 78.02c.858 4.716 15.812 68.27 20.172 84.221.63 2.301 4.635 23.44 4.635 23.44M247.948 28.276L235.64 47.87s-1.107 53.041.975 59.287c2.081 6.245 5.992 74.99 7.38 78.46 1.388 3.47 10.38 82.088 10.38 82.088l-13.366 21.54" fill="none" stroke="#222" stroke-width="5.496"/><path d="M240.746 27.259l6.011 20.611s-5.401 62.458-3.32 68.703c2.082 6.245 1.31 65.574 2.698 69.044.668 1.67 5.527 20.733 9.31 40.068 4.08 20.853 4.293 42.02 4.293 42.02l3.733 23.062" fill="none" stroke="#222" stroke-width="5.496"/><path d="M221.738 293.692a8.886 9.137 0 1 1-17.772 0 8.886 9.137 0 1 1 17.772 0zM247.718 293.345a8.549 8.79 0 1 1-17.097 0 8.549 8.79 0 1 1 17.097 0zM272.353 293.345a8.549 8.79 0 1 1-17.097 0 8.549 8.79 0 1 1 17.097 0z" fill="#222"/><path d="M291.9 27.399s-.24 12.536-.26 21.078c-.02 8.543-2.842-.457.032 36.077.517 6.563-1.68 97.593-3.068 101.063-1.388 3.47-7.713 82.088-7.713 82.088l-16.438 25.861M349.286 25.76l.362 21.763s-2.243 44.065-4.325 50.31c-2.081 6.246-12.49 67.313-13.878 70.782-.499 1.246-.191 18.072-5.214 35.735-1.575 5.538-5.864 11.16-8.049 16.407-10.256 24.636-13.364 49.071-13.364 49.071l-10.368 20.558" fill="none" stroke="#222" stroke-width="5.496"/><path d="M294.207 27.746l7.807 20.124s-.25 23.594-2.331 29.84c-2.082 6.245-6.245 104.437-7.633 107.907-1.388 3.47-5.285 82.088-5.285 82.088l5.988 22.981" fill="none" stroke="#222" stroke-width="5.496"/><path d="M301.304 293.345a8.549 8.79 0 1 1-17.098 0 8.549 8.79 0 1 1 17.098 0z" fill="#222"/><path d="M355.796 25.838l1.734 21.685s-3.837 33.393-5.92 39.638c-2.08 6.246-13.226 77.985-14.614 81.454-.654 1.637-1.854 30.504-11.007 52.49-10.257 24.635-20.424 48.272-20.424 48.272" fill="none" stroke="#222" stroke-width="5.496"/><path d="M176.524 483.968c21.805 12.453 122.697 17.07 159.604 1.01" fill="none" stroke="#222" stroke-width="8"/></svg><svg id="hihat-open" width="512" height="512"><path d="M265.2 210.883V30.27c0-4.753-3.68-8.74-8.433-8.74s-8.433 3.833-8.433 8.74v180.612h16.865z" stroke-miterlimit="10" fill="#eefaf9" stroke="#333" stroke-width="5.9994507299999995" stroke-linecap="round" stroke-linejoin="round"/><path d="M269.799 440.558c0 7.053-5.673 12.572-12.572 12.572h-.767c-7.053 0-12.572-5.673-12.572-12.572V76.267c0-7.053 5.672-12.572 12.572-12.572h.767c7.052 0 12.572 5.672 12.572 12.572v364.291z" stroke-miterlimit="10" fill="#eefaf9" stroke="#333" stroke-width="5.9994507299999995" stroke-linecap="round" stroke-linejoin="round"/><path fill="#bcece8" d="M248.334 135.755h16.865v119.591h-16.865z"/><path d="M278.538 97.425c0-1.533-1.073-.92-1.073-1.073v-.767c0-7.052-4.6-11.959-11.652-11.959h-16.1c-7.052 0-13.645 4.907-13.645 11.96v.766c0 .153 1.073-.46 1.073 1.073h41.397z" stroke-miterlimit="10" fill="#5c5c5c" stroke="#333" stroke-width="5.9994507299999995" stroke-linecap="round" stroke-linejoin="round"/><g stroke-miterlimit="10" stroke-linecap="round" stroke-linejoin="round"><path d="M396.749 119.963l-50.596-1.226c-35.264-.767-50.29-6.9-60.562-13.8l.153.308c-5.366-4.293-12.112-6.44-19.472-6.44h-9.045-9.046c-7.36 0-14.26 2.147-19.626 6.44v-.154c-10.119 6.9-25.45 12.88-60.715 13.646l-51.362 1.073c-5.673 0-10.733 4.14-10.733 9.813v.153c0 5.673 5.52 10.272 11.193 10.272H397.209c5.673 0 8.892-4.6 8.892-10.272v-.153c.154-5.367-3.68-9.66-9.352-9.66z" fill="#fde74c" stroke="#333" stroke-width="5.9994507299999995"/><path fill="none" stroke="#fef5b7" stroke-width="4.00014489" d="M242.201 109.69H269.8"/></g><path stroke-miterlimit="10" fill="#eefaf9" stroke="#333" stroke-width="6" stroke-linecap="round" stroke-linejoin="round" d="M243.734 186.352h26.065v304.117h-26.065z"/><path stroke-miterlimit="10" d="M116.478 195.813l50.289 1.227c35.264.766 50.903 6.9 60.102 13.799 6.133 4.293 13.799 7.512 21.158 7.512h18.092c7.36 0 14.259-2.913 19.625-7.206v-.153c10.12-6.9 25.452-13.032 60.715-13.952l50.29-1.227c5.673 0 9.506-4.293 9.506-9.966v-.153c0-5.673-3.373-8.893-8.893-8.893H117.091c-5.673 0-11.192 3.22-11.192 8.893v.153c-.154 5.827 4.906 9.966 10.579 9.966z" fill="#fde74c" stroke="#333" stroke-width="6" stroke-linecap="round" stroke-linejoin="round"/><g transform="translate(-2025.42 -1130.814) scale(1.53321)" stroke-miterlimit="10" fill="#eefaf9" stroke="#333" stroke-width="3.913" stroke-linecap="round" stroke-linejoin="round"><circle cx="1504.7" cy="998.5" r="10"/><path d="M1502 1010.1c0 6-4.9 10.9-10.9 10.9h-5.1c-6 0-10.9-4.9-10.9-10.9V988c0-6 4.9-10.9 10.9-10.9h5.1c6 0 10.9 4.9 10.9 10.9v22.1z"/></g><path stroke-miterlimit="10" d="M237.141 218.351s-1.073-.46-1.073-.306v.766c0 7.053 6.746 13.34 13.646 13.34h16.099c7.052 0 11.652-6.44 11.652-13.34v-.766c0-.153 1.073.306 1.073.306h-41.397z" fill="#5c5c5c" stroke="#333" stroke-width="6" stroke-linecap="round" stroke-linejoin="round"/><path stroke-miterlimit="10" opacity=".3" fill="none" stroke="#bead39" stroke-width="4" stroke-linecap="round" stroke-linejoin="round" d="M242.201 207.619h27.598"/></svg><svg id="hihat" width="512" height="512"><path d="M265.2 210.883V30.27c0-4.753-3.68-8.74-8.433-8.74s-8.433 3.833-8.433 8.74v180.612h16.865z" stroke-miterlimit="10" fill="#eefaf9" stroke="#333" stroke-width="5.9994507299999995" stroke-linecap="round" stroke-linejoin="round"/><path d="M269.799 440.558c0 7.053-5.673 12.572-12.572 12.572h-.767c-7.053 0-12.572-5.673-12.572-12.572V76.267c0-7.053 5.672-12.572 12.572-12.572h.767c7.052 0 12.572 5.672 12.572 12.572v364.291z" stroke-miterlimit="10" fill="#eefaf9" stroke="#333" stroke-width="5.9994507299999995" stroke-linecap="round" stroke-linejoin="round"/><path fill="#bcece8" d="M248.334 135.755h16.865v119.591h-16.865z"/><path d="M278.538 97.425c0-1.533-1.073-.92-1.073-1.073v-.767c0-7.052-4.6-11.959-11.652-11.959h-16.1c-7.052 0-13.645 4.907-13.645 11.96v.766c0 .153 1.073-.46 1.073 1.073h41.397z" stroke-miterlimit="10" fill="#5c5c5c" stroke="#333" stroke-width="5.9994507299999995" stroke-linecap="round" stroke-linejoin="round"/><g stroke-miterlimit="10" stroke-linecap="round" stroke-linejoin="round"><path d="M396.749 119.963l-50.596-1.226c-35.264-.767-50.29-6.9-60.562-13.8l.153.308c-5.366-4.293-12.112-6.44-19.472-6.44h-9.045-9.046c-7.36 0-14.26 2.147-19.626 6.44v-.154c-10.119 6.9-25.45 12.88-60.715 13.646l-51.362 1.073c-5.673 0-10.733 4.14-10.733 9.813v.153c0 5.673 5.52 10.272 11.193 10.272H397.209c5.673 0 8.892-4.6 8.892-10.272v-.153c.154-5.367-3.68-9.66-9.352-9.66z" fill="#fde74c" stroke="#333" stroke-width="5.9994507299999995"/><path fill="none" stroke="#fef5b7" stroke-width="4.00014489" d="M242.201 109.69H269.8"/></g><g stroke-miterlimit="10" stroke-linecap="round" stroke-linejoin="round"><path d="M116.478 163.813l50.289 1.227c35.264.766 50.903 6.9 60.102 13.799 6.133 4.293 13.799 7.512 21.158 7.512h18.092c7.36 0 14.259-2.913 19.625-7.206v-.153c10.12-6.9 25.452-13.032 60.715-13.952l50.29-1.227c5.673 0 9.506-4.293 9.506-9.966v-.153c0-5.673-3.373-8.893-8.893-8.893H117.091c-5.673 0-11.192 3.22-11.192 8.893v.153c-.154 5.827 4.906 9.966 10.579 9.966z" fill="#fde74c" stroke="#333" stroke-width="5.9994507299999995"/><path opacity=".3" fill="none" stroke="#bead39" stroke-width="4.00014489" d="M242.201 175.619H269.8"/></g><path stroke-miterlimit="10" fill="#eefaf9" stroke="#333" stroke-width="6" stroke-linecap="round" stroke-linejoin="round" d="M243.734 186.352h26.065v304.117h-26.065z"/><g transform="translate(-2025.42 -1130.814) scale(1.53321)" stroke-miterlimit="10" fill="#eefaf9" stroke="#333" stroke-width="3.913" stroke-linecap="round" stroke-linejoin="round"><circle cx="1504.7" cy="998.5" r="10"/><path d="M1502 1010.1c0 6-4.9 10.9-10.9 10.9h-5.1c-6 0-10.9-4.9-10.9-10.9V988c0-6 4.9-10.9 10.9-10.9h5.1c6 0 10.9 4.9 10.9 10.9v22.1z"/></g><path stroke-miterlimit="10" d="M237.141 186.351s-1.073-.46-1.073-.306v.766c0 7.053 6.746 13.34 13.646 13.34h16.099c7.052 0 11.652-6.44 11.652-13.34v-.766c0-.153 1.073.306 1.073.306h-41.397z" fill="#5c5c5c" stroke="#333" stroke-width="6" stroke-linecap="round" stroke-linejoin="round"/></svg><svg id="kick" width="512" height="512"><g transform="translate(0 -540.362)"><g stroke-miterlimit="10" stroke="#333" stroke-width="5.485" stroke-linecap="round" stroke-linejoin="round"><path d="M815.3 1050.3c.3-5.6 5.3-10 11-9.7 5.6.3 10.3 5 10 10.7l-2.7 58-21-1 2.7-58zM828.6 1109.1l-7.7 167.4c-.1 3.1-2.6 5.5-5.8 5.4-3.1-.1-5.4-2.8-5.2-5.9l7.7-167.4 11 .5z" fill="#eefaf9" transform="matrix(1.1965 0 0 1 -944.68 -288.638)"/><path d="M803.4 1269l7.3-10.6 11 .4 6.1 11.2c1.2 3 1.8 4.8 1.7 7.5-.4 7.8-7 13.9-14.8 13.5-7.8-.4-13.8-7.2-13.5-15 .2-2.5.9-5 2.2-7z" fill="#5c5c5c" transform="matrix(1.1965 0 0 1 -944.68 -288.638)"/></g><g stroke-miterlimit="10" stroke="#333" stroke-width="5.646" stroke-linecap="round" stroke-linejoin="round"><path d="M1256.2 1050.3c-.3-5.6-5.3-10-11-9.7-5.6.3-10.3 5-10 10.7l2.7 58 21-1-2.7-58zM1242.9 1109.1l7.7 167.4c.1 3.1 2.6 5.5 5.8 5.4 3.1-.1 5.4-2.8 5.2-5.9l-7.7-167.4-11 .5z" fill="#eefaf9" transform="matrix(1.12936 0 0 1 -939.158 -288.638)"/><path d="M1268.1 1269l-7.3-10.6-11 .4-6.1 11.2c-1.2 3-1.8 4.8-1.7 7.5.4 7.8 7 13.9 14.8 13.5 7.8-.4 13.8-7.2 13.5-15-.2-2.5-1-5-2.2-7z" fill="#5c5c5c" transform="matrix(1.12936 0 0 1 -939.158 -288.638)"/></g><circle r="210" cy="1085" cx="1035.7" stroke-miterlimit="10" transform="translate(-779.75 -288.638)" fill="#ff572f" stroke="#333" stroke-width="8" stroke-linecap="round" stroke-linejoin="round" fill-opacity=".941"/><circle r="201.2" cy="1085" cx="1035.7" transform="translate(-779.75 -288.638)" fill="none"/><circle r="192.6" cy="1085" cx="1035.7" stroke-miterlimit="10" transform="translate(-749.022 -256.447) scale(.97033)" fill="#fdfffc" stroke="#333" stroke-width="8.245" stroke-linecap="round" stroke-linejoin="round"/><g fill="none"><path d="M200.85 653.562l-4.3 19.9h.8c7.1 0 12.2-8.3 12.2-15 0-4.8-2.7-9-9.4-9-13.9 0-23.1 7.8-23.1 20.8 0 4.4 1.1 5.1 1.2 5.8-5.9 0-9.2-2.1-9.2-8.3 0-11.4 15.8-22.3 30.1-22.3 13.5 0 19.4 6.7 19.4 13.7 0 5.2-3.3 11.2-9.2 14.6 4.5 1.3 5.9 4.5 5.9 8.6 0 7-4.2 16.4-4.2 21.7 0 2.6 1.3 4.9 3.3 5.7-3.6 1-6.4 1.5-8.5 1.5-5.6 0-6.7-2.9-6.7-5.7 0-5.7 4.5-16 4.5-22.5 0-3.4-1.3-5.8-5.1-5.8-.8 0-1.7.1-2.7.3l-6.9 32.3h-12.3l11.7-54.5 12.5-1.8zM288.95 666.762c-2.8 0-5.4 1-7.4 2.5l4.1-19.4-12.7 1.7-9.5 44.5c-.3 1.5-.5 2.8-.5 4-1.6 1.1-3.2 1.9-4.5 1.9-3.4 0-4.3-1.4-4.3-3.3 0-.8.2-2 .3-2.9l6.2-29.4h-12.3l-6.2 29.4c-.3 1-.4 2.1-.5 3-2.1 1.7-4.3 3.2-6.1 3.2-3.4 0-4.3-1.3-4.3-3.2 0-.8.2-2 .3-2.9l6.2-29.4h-12.3l-6.2 29.4c-.3 1.6-.5 3.2-.5 4.5 0 6.4 4.1 9.4 10.7 9.4 3.7 0 8.3-3.4 12.3-7.2.8 5 4.7 7.2 10.5 7.2 3.3 0 7.4-2.8 11.1-6.1 1.5 4.7 6.6 6.4 13.6 6.4 15.3 0 22.7-18.9 22.7-32.4.1-5.1-2.5-10.9-10.7-10.9zm-10.1 37.1c-2.6 0-3.8-.6-3.8-3.2 0-1.1.3-2.7.7-4.7l4.9-23c.8-.6 3.8-1.2 4.6-1.2 2.1 0 4.9 1.2 4.9 6.3 0 6.3-4.2 25.8-11.3 25.8zM319.35 666.862l-6.3 29.1c-.3.9-.4 1.9-.4 2.7 0 1.9.9 3.2 4.3 3.2 2 0 4.3-1.5 6.5-3.4l6.7-31.6h12.4l-10.5 49.7c-2.6 12.2-9.9 14.6-15.6 14.6-5.2 0-10.1-3.7-10.1-9.3 0-8 6.7-10.5 14.8-12.8l1.3-5.9c-3.9 3.5-8.2 6.6-11.6 6.6-6.7 0-10.6-2.9-10.6-9.3 0-1.4.2-2.7.5-4.4l6-29.1h12.6zm-4.8 56.7c1.7 0 4-1.6 5.1-6.7l1-5.1c-5.4 1.8-9.5 4.3-9.5 8.9-.1 1.2 1.5 2.9 3.4 2.9zM175.25 720.362h123"/></g><path stroke-miterlimit="10" d="M44.206 783.306c-7.69 0-13.456 5.957-13.456 13.31 0 7.352 5.767 13.31 13.456 13.31v11.789h25.63V771.01h-25.63v12.296zM139.67 974.602c-3.742 6.521-1.497 14.296 4.74 17.932 6.236 3.637 14.094 1.756 17.835-4.765l10.103 5.894 12.473-21.694-43.156-25.08-12.473 21.694 10.477 6.02zM350.19 988.238c3.822 6.665 11.848 8.587 18.218 4.87 6.37-3.717 8.663-11.663 4.842-18.328l10.191-5.895-12.74-22.173-44.08 25.633 12.74 22.173 10.83-6.28zM466.791 808.955c7.405 0 12.959-5.746 12.959-12.837 0-7.092-5.554-12.838-12.959-12.838v-11.37h-24.684v48.905h24.684v-11.86zM372.876 617.657c3.825-6.666 1.53-14.615-4.844-18.333-6.373-3.718-14.404-1.795-18.229 4.872l-10.198-5.898-12.747 22.18 44.106 25.641 12.748-22.18-10.836-6.282zM161.55 604.97c-3.695-6.437-11.453-8.293-17.61-4.704-6.157 3.59-8.373 11.264-4.679 17.7l-9.974 5.818 12.314 21.414 42.606-24.756-12.314-21.413-10.344 5.94z" fill="#eefaf9" stroke="#333" stroke-width="8" stroke-linecap="round" stroke-linejoin="round"/></g></svg><svg id="maracas" width="512" height="512"><path d="M331.193 259.037c-7.4 35.337-18.595 70.687-25.728 105.785-1.958 9.847 3.734 19.267 12.71 21.052 8.978 1.785 17.84-4.74 19.799-14.587 5.53-35.004 11.233-72.033 16.744-107.606" fill="#d9bb7a" stroke="#333" stroke-width="6" stroke-linecap="round" stroke-linejoin="round"/><path d="M383.53 57.247c-43.692-8.69-88.25 30.2-99.52 86.875-10.242 51.498 8.025 108.187 57.902 118.078 49.876 9.89 90.088-35.13 100.326-86.61 11.271-56.676-15.017-109.654-58.708-118.343z" fill="#f44800" stroke="#333" stroke-width="6"/><path d="M794.99 85.344c-44.547 0-80.664 46.833-80.664 104.618 0 52.506 29.824 96 68.691 103.504-.365 36.102-4.45 72.956-4.6 108.772 0 10.04 7.42 18.168 16.573 18.168 9.152 0 16.572-8.128 16.572-18.168-1.403-35.41-3.032-72.84-4.566-108.806 38.849-7.526 68.658-50.981 68.658-103.47 0-57.785-36.117-104.618-80.664-104.618z" fill="#fee5b9" stroke="#333" stroke-width="6" stroke-linecap="round" stroke-linejoin="round"/><path d="M692.636 207.52l26.833-25.91 23.729 26.453 24.011-23.538 27.545 24.4 24.976-26.734 28.66 24.923 36.574-39.381" fill="none" stroke="#000" stroke-width="20"/><path d="M725.795 134.203l141.421 1.01" fill="none" stroke="#000" stroke-width="16"/><path style="text-indent:0;text-align:start;line-height:normal;text-transform:none;block-progression:tb;marker:none;-inkscape-font-specification:Sans" d="M295.781 117.031c-3.699 8.352-6.618 17.377-8.594 26.938l.47-.281 12.156 22 5.062 9.156 8.906-5.438 20.75-12.687 15.938 22.375 5.656 7.937 8.063-5.437 22.343-15.063 16.656 22.938 5.688 7.812 8.031-5.437 22.156-15.031c.027-.137.068-.27.094-.407 1.685-8.646 2.518-17.178 2.531-25.5l-28 18.969-16.625-22.906-5.687-7.813-8 5.406-22.281 15-15.688-22.03-5.406-7.595-7.969 4.844-19.781 12.094-12.094-21.938-4.375-7.906z" font-weight="400" color="#000" fill="#ffff96" stroke="#353535" stroke-width="2.2" overflow="visible" font-family="Sans"/><path style="text-indent:0;text-align:start;line-height:normal;text-transform:none;block-progression:tb;marker:none;-inkscape-font-specification:Sans" d="M309.686 91.8l5.908 1.057 117.219 20.906 5.343.962c-1.97-5.315-3.709-10.34-6.321-15.358l-111.02-19.795c-1.64 1.608-7.422 6.86-11.129 12.228zM414.129 231.39l-5.857-1.308-116.214-25.916-5.297-1.191c1.74 5.395 3.261 10.49 5.656 15.615l110.069 24.54c1.707-1.536 7.71-6.536 11.643-11.74z" font-weight="400" color="#000" fill="#ffff96" stroke="#333" stroke-width="2" overflow="visible" font-family="Sans"/><path d="M178.53 374.907c17.75 31.44 32.654 65.392 50.446 96.477 5.024 8.693 15.515 12.017 23.44 7.437 7.924-4.58 10.28-15.33 5.257-24.022-18.934-29.957-39.074-61.549-58.398-91.92" fill="#d9bb7a" stroke="#333" stroke-width="6" stroke-linecap="round" stroke-linejoin="round"/><path d="M84.754 188.724c-38.568 22.29-46.404 80.911-17.489 130.942 26.274 45.46 77.398 76.016 121.408 50.548 44.01-25.467 44.535-85.83 18.27-131.275-28.915-50.03-83.62-72.506-122.189-50.215z" fill="#f44800" stroke="#333" stroke-width="6"/><path d="M58.242 291.54c2.729 8.716 6.488 17.425 11.31 25.914l.167-.521 23.65 8.516 9.844 3.542 3.107-9.962 7.225-23.223 26.738 6.303 9.487 2.234 2.473-9.405 6.857-26.06 27.65 6.253 9.427 2.12 2.45-9.385 6.736-25.912c-.07-.12-.127-.247-.197-.368-4.438-7.609-9.44-14.57-14.92-20.834l-8.53 32.726-27.605-6.249-9.428-2.12-2.447 9.34-6.851 25.972-26.323-6.21-9.073-2.14-2.794 8.896-6.889 22.138-23.56-8.51-8.504-3.056z" style="text-indent:0;text-align:start;line-height:normal;text-transform:none;block-progression:tb;marker:none;-inkscape-font-specification:Sans" font-weight="400" color="#000" fill="#ffff96" stroke="#353535" stroke-width="2.2" overflow="visible" font-family="Sans"/><path d="M52.049 263.404l5.137-3.103 101.89-61.611 4.65-2.801c-4.987-2.695-9.609-5.326-14.882-7.374l-96.498 58.357c-.171 2.29-1.052 10.053-.297 16.532zM222.626 299.42l-5.265 2.88-104.439 57.183-4.767 2.6c4.867 2.906 9.372 5.733 14.552 8.004l98.913-54.163c.27-2.28 1.482-9.998 1.006-16.504z" style="text-indent:0;text-align:start;line-height:normal;text-transform:none;block-progression:tb;marker:none;-inkscape-font-specification:Sans" font-weight="400" color="#000" fill="#ffff96" stroke="#333" stroke-width="2" overflow="visible" font-family="Sans"/></svg><svg id="snare" width="512" height="512"><g transform="translate(0 -540.362)"><path stroke-miterlimit="10" fill="#ff572f" stroke="#333" stroke-width="8" stroke-linecap="round" stroke-linejoin="round" fill-opacity=".941" d="M124.954 589.876h264.464v130.453H124.954z"/><g stroke-miterlimit="10" stroke="#333" stroke-linecap="round" stroke-linejoin="round"><path d="M134.442 666.962c0 5.218-4.27 9.488-9.488 9.488s-9.487-4.27-9.487-9.488v-23.718c0-5.219 4.269-9.488 9.487-9.488s9.488 4.27 9.488 9.488v23.718zM398.905 666.962c0 5.218-4.269 9.488-9.487 9.488s-9.488-4.27-9.488-9.488v-23.718c0-5.219 4.27-9.488 9.488-9.488s9.487 4.27 9.487 9.488v23.718z" fill="#eefaf9" stroke-width="5.99967046"/><path fill="none" stroke-width="8.00035124" d="M212.713 691.867V676.45M212.713 633.756v-15.417"/><path d="M222.2 666.962c0 5.218-4.269 9.488-9.487 9.488s-9.487-4.27-9.487-9.488v-23.718c0-5.219 4.27-9.488 9.487-9.488 5.218 0 9.488 4.27 9.488 9.488v23.718z" fill="#eefaf9" stroke-width="5.99967046"/><g><path fill="none" stroke-width="8.00035124" d="M301.659 691.867V676.45M301.659 633.756v-15.417"/><path d="M311.146 666.962c0 5.218-4.27 9.488-9.487 9.488-5.219 0-9.488-4.27-9.488-9.488v-23.718c0-5.219 4.27-9.488 9.488-9.488s9.487 4.27 9.487 9.488v23.718z" fill="#eefaf9" stroke-width="5.99967046"/></g></g><path stroke-miterlimit="10" fill="#eefaf9" stroke="#333" stroke-width="8" stroke-linecap="round" stroke-linejoin="round" d="M113.095 589.876h285.811v24.905H113.095zM113.095 695.425h285.811v24.905H113.095z"/><path stroke-miterlimit="10" fill="#eefaf9" stroke="#333" stroke-width="6" stroke-linecap="round" stroke-linejoin="round" d="M245.92 829.435h20.161v112.664H245.92z"/><path stroke-miterlimit="10" d="M343.64 1011.859c-4.031 4.032-10.436 3.913-14.35-.119l-79.101-79.102c-4.032-4.032-4.15-10.317-.119-14.35 4.033-4.032 10.437-3.913 14.35.119l79.102 79.102c3.914 3.913 4.032 10.318.119 14.35z" fill="#eefaf9" stroke="#333" stroke-width="6" stroke-linecap="round" stroke-linejoin="round"/><path stroke-miterlimit="10" d="M344.115 998.102l-14.231 14.231s7.59 12.808 9.487 14.706c5.574 5.574 14.113 5.1 19.687-.475 5.574-5.574 6.048-14.112.593-19.686-1.898-1.66-15.536-8.776-15.536-8.776z" fill="#5c5c5c" stroke="#333" stroke-width="6" stroke-linecap="round" stroke-linejoin="round"/><path stroke-miterlimit="10" d="M170.613 1011.503c-4.033-4.032-3.914-10.436.118-14.35l79.102-79.102c4.032-4.032 10.318-4.15 14.35-.118s3.914 10.436-.119 14.35l-79.102 79.101c-4.032 4.033-10.436 4.151-14.35.119z" fill="#eefaf9" stroke="#333" stroke-width="6" stroke-linecap="round" stroke-linejoin="round"/><path stroke-miterlimit="10" d="M184.25 1011.977l-14.23-14.231s-12.808 7.59-14.706 9.488c-5.574 5.573-5.1 14.112.474 19.686s14.113 6.048 19.687.593c1.66-1.779 8.776-15.536 8.776-15.536z" fill="#5c5c5c" stroke="#333" stroke-width="6" stroke-linecap="round" stroke-linejoin="round"/><path d="M241.294 925.048c0-8.894 7.116-16.01 16.01-16.01 8.895 0 16.01 7.116 16.01 16.01 0 8.895-7.115 16.01-16.01 16.01-8.894 0-16.01-7.234-16.01-16.01z" stroke-miterlimit="10" fill="#eefaf9" stroke="#333" stroke-width="5.99967046" stroke-linecap="round" stroke-linejoin="round"/><path d="M260.15 921.135a4.748 4.748 0 0 0-6.64 1.067 4.748 4.748 0 0 0 1.067 6.641 4.748 4.748 0 0 0 6.641-1.067 4.748 4.748 0 0 0-1.067-6.641z" fill="#333"/><path d="M114.28 702.066c0-4.388-3.32-7.827-7.708-7.827s-7.708 3.558-7.708 7.827v14.706h15.417v-14.706z" stroke-miterlimit="10" fill="#5c5c5c" stroke="#333" stroke-width="6" stroke-linecap="round" stroke-linejoin="round"/><path d="M114.28 723.057v-6.285H98.865v11.859c0 4.27 2.964 8.42 7.234 8.894l145.04 16.13 1.423-15.3-138.28-15.298zM413.137 716.772h-15.418v6.285l-136.026 15.18 1.897 15.299 142.905-16.01c4.27-.475 6.523-4.744 6.523-8.895v-11.86z" stroke-miterlimit="10" fill="#eefaf9" stroke="#333" stroke-width="6" stroke-linecap="round" stroke-linejoin="round"/><path d="M413.137 702.066c0-4.388-3.321-7.827-7.709-7.827s-7.709 3.558-7.709 7.827v14.706h15.418v-14.706z" stroke-miterlimit="10" fill="#5c5c5c" stroke="#333" stroke-width="6" stroke-linecap="round" stroke-linejoin="round"/><g transform="matrix(1.18594 0 0 1.18594 -1320.702 -459.677)"><path stroke-miterlimit="10" fill="#eefaf9" stroke="#333" stroke-width="5.05910118" stroke-linecap="round" stroke-linejoin="round" d="M1323.836 1016.98l13 .074-.429 75-13-.074z"/><circle stroke-miterlimit="10" cx="1330.6" cy="1016.8" r="8.5" fill="#eefaf9" stroke="#333" stroke-width="5.059" stroke-linecap="round" stroke-linejoin="round"/><circle cx="1330.6" cy="1016.8" r="2" fill="#333"/></g><path d="M361.43 731.714c-2.965-3.083-7.827-3.083-10.91-.118l-99.382 98.314 10.792 10.91 99.381-98.314a7.554 7.554 0 0 0 .119-10.792z" stroke-miterlimit="10" fill="#eefaf9" stroke="#333" stroke-width="6" stroke-linecap="round" stroke-linejoin="round"/><circle r="8.5" cy="1007.8" cx="1414.6" stroke-miterlimit="10" transform="matrix(1.18594 0 0 1.18594 -1320.702 -459.677)" fill="#eefaf9" stroke="#333" stroke-width="5.059" stroke-linecap="round" stroke-linejoin="round"/><circle r="2" cy="1007.8" cx="1414.6" transform="matrix(1.18594 0 0 1.18594 -1320.702 -459.677)" fill="#333"/><path d="M154.247 730.528c-3.084 2.965-3.084 7.828-.119 10.911l98.314 99.381 10.91-10.792-98.313-99.381c-2.846-3.083-7.709-3.083-10.792-.119z" stroke-miterlimit="10" fill="#eefaf9" stroke="#333" stroke-width="6" stroke-linecap="round" stroke-linejoin="round"/><circle r="8.5" cy="1007.8" cx="1248.6" stroke-miterlimit="10" transform="matrix(1.18594 0 0 1.18594 -1320.702 -459.677)" fill="#eefaf9" stroke="#333" stroke-width="5.059" stroke-linecap="round" stroke-linejoin="round"/><circle r="2" cy="1007.8" cx="1248.6" transform="matrix(1.18594 0 0 1.18594 -1320.702 -459.677)" fill="#333"/><path d="M277.94 831.926c0 5.811-4.744 10.555-10.555 10.555h-21.584c-5.811 0-10.555-4.744-10.555-10.555v-4.981c0-5.811 4.744-10.555 10.555-10.555h21.584c5.811 0 10.555 4.744 10.555 10.555v4.98z" stroke-miterlimit="10" fill="#eefaf9" stroke="#333" stroke-width="6" stroke-linecap="round" stroke-linejoin="round"/></g></svg><svg id="tambourine" viewBox="0 0 512.00001 512.00001" width="512" height="512"><path d="M152.639 462.419c-2.042 0-4.094-.124-6.153-.374-13.771-1.68-26.002-8.852-34.443-20.186-8.317-11.183-11.95-25.086-10.222-39.15.785-6.405 7.587-9.665 13.927-9.015 6.396.783 14.309 7.532 13.53 13.93-.988 8.097-1.484 14.181 3.23 20.523 4.59 6.171 9.673 10.29 17.04 11.18 7.377.95 14.479-1.737 20.425-6.623 6.032-4.992 6.809-9.262 9.373-17.89.787-6.402 9.296-11.19 15.671-10.527 6.392.79 13.146 6.376 12.368 12.766-1.718 14.094-7.572 27.644-18.338 36.471-9.29 7.647-24.788 8.895-36.408 8.895zM421.104 230.011c-1.521 0-3.037-.06-4.56-.178-6.425-.513-11.21-6.146-10.694-12.574.508-6.416 6.045-11.209 12.565-10.689 8.137.632 16.008-1.717 22.132-6.682 5.969-4.839 9.587-11.574 10.187-18.982.607-7.415-1.882-14.659-6.998-20.39-5.266-5.896-12.633-9.5-20.754-10.161-6.43-.515-11.215-6.149-10.691-12.572.508-6.42 6.024-11.134 12.566-10.689 14.138 1.136 27.032 7.5 36.294 17.884 9.403 10.549 13.97 23.977 12.855 37.8-1.12 13.828-7.78 26.345-18.76 35.237-9.655 7.818-21.637 11.996-34.142 11.996z" fill="#ffd105"/><path d="M331.312 381.249c-13.646 0-26.75-5.19-36.953-14.65-4.733-4.384-5.015-11.775-.631-16.493 4.368-4.734 11.759-5.02 16.493-.632 5.98 5.548 13.697 8.367 21.525 8.427 7.688-.115 14.702-3.169 19.746-8.617 5.052-5.445 7.573-12.677 7.104-20.353-.496-7.875-4.059-15.277-10.04-20.814-4.722-4.384-5.011-11.771-.627-16.496 4.38-4.722 11.76-5.012 16.493-.628 10.402 9.639 16.61 22.601 17.466 36.505.866 14.098-3.844 27.478-13.272 37.651-9.42 10.17-22.4 15.885-36.537 16.092-.265 0-.508.008-.767.008z" fill="#ffd105" stroke-width="5.045"/><path d="M435.858 167.605c-3.253-3.652-7.864-5.884-12.998-6.303-6.208-.496-11.85-3.391-15.894-8.143-4.034-4.75-5.98-10.792-5.484-17.007.35-4.343 1.915-8.24 4.238-11.522l-36.163-39.032c-1.938-2.982-4.07-5.828-6.474-8.49-2.803-3.104-5.884-5.88-9.177-8.39l-.068-.081-.015.016c-47.379-36.129-142.458-11.737-220.847 59.081C49.106 203.512 16.12 303.717 59.33 351.528c2.138 2.37 4.535 4.436 6.962 6.464l-.102.1 34.74 32.844c4.461-3.118 9.994-4.794 15.885-4.202 6.408.783 11.933 3.904 15.769 8.813 3.844 4.916 5.538 11.025 4.775 17.215-.623 5.103.646 10.076 3.563 13.995 2.67 3.579 6.428 5.826 10.598 6.334 4.722.625 8.345-.734 11.84-3.593 3.773-3.098 6.194-7.618 6.823-12.74 1.523-12.474 12.938-21.62 25.798-20.36 6.385.79 11.907 3.91 15.752 8.819 3.844 4.917 5.538 11.025 4.78 17.215-.483 3.952-1.342 7.796-2.478 11.518 24.312-7.276 54.419-21.196 87.517-47.414-5.14-2.713-9.969-6.077-14.329-10.12-9.435-8.752-10.008-23.553-1.256-32.99 8.372-9.069 23.892-9.693 32.979-1.25 3.656 3.387 8.51 5.27 13.685 5.317 4.21-.067 8.237-1.796 11.091-4.877 2.871-3.093 4.285-7.247 4.012-11.706-.306-4.877-2.538-9.484-6.315-12.98-9.443-8.756-10.004-23.541-1.26-32.976 8.396-9.071 23.885-9.686 32.979-1.263a67.296 67.296 0 0 1 12.188 15.103c17.335-22.252 29.916-41.533 39.05-57.898-.814.032-1.621.111-2.439.111-1.82 0-3.657-.08-5.488-.22-6.22-.5-11.867-3.382-15.914-8.146-4.034-4.744-5.98-10.788-5.488-17.007 1.04-12.85 12.05-22.418 25.142-21.378 4.913.326 10.055-1.048 13.84-4.113 3.468-2.808 5.568-6.675 5.906-10.855.348-4.207-1.106-8.364-4.076-11.683zM293.235 304.817c-76.844 69.419-172.19 89.088-212.98 43.93C39.46 303.601 68.69 210.727 145.52 141.31c76.832-69.413 172.19-89.08 212.984-43.925 40.79 45.153 11.553 138.025-65.269 207.432z" fill="#f44800" stroke="#000" stroke-width="5.5"/><path d="M386.098 300.085c1.487 3.143 6.13 19.007 5.445 32.747-.684 13.74-4.918 27.205-16.756 39.958-17.041 18.36-48.509 23.723-72.553 14.289M405.956 124.307c5.778-10.748 40.492-4.7 54.675 7.496 13.54 11.644 24.14 27.017 22.875 51.44-1.537 29.721-27.09 57.088-57.771 57.598M213.813 434.643c-6.877 19.524-28.188 43.98-75.329 36.668-39.51-8.275-57.66-60.664-38.583-80.103" fill="none" stroke="#000" stroke-width="5.5"/></svg><svg id="tambourine2" width="512" height="512"><path d="M243.703 474.422c-.825-.149-5.55-.661-10.5-1.141-14.845-1.442-35.81-6.604-50.58-12.451-10.27-4.065-28.879-13.942-37.855-20.09-10.178-6.972-20.713-15.586-28.129-23-29.007-29.003-47.78-63.845-55.616-103.229-5.192-26.093-4.894-55.432.829-81.578 8.404-38.398 29.172-75.03 57.595-101.59 4.432-4.14 9.095-8.29 10.362-9.217 1.266-.928 5.475-4.06 9.352-6.96 24.072-18.014 53.915-30.514 84.83-35.535 60.972-9.905 122.081 8.63 167.77 50.883 33.382 30.87 53.835 70.32 61.657 118.917 1.325 8.23 1.327 44.457.003 52.496-3.274 19.889-6.074 30.493-12.26 46.445-15.86 40.898-46.424 76.873-83.841 98.689-7.165 4.176-21.425 11.24-27.79 13.765-13.565 5.38-32.42 10.249-47.086 12.158-8.059 1.046-35.268 2.058-38.741 1.438zm49.456-55.426c8.227-1.056 17.677-2.408 20.999-3.009 20.721-3.745 37.243-4.653 44.047-2.42l4.26 1.398 7.364-6.348c11.214-9.67 24.291-24.264 31.088-34.697 8.048-12.35 11.975-19.631 16.382-30.37 9.588-23.367 13.515-42.992 13.515-67.538 0-32.015-7.998-61.758-23.742-88.284-25.197-42.452-65.025-71.65-112.373-82.378-14.121-3.2-22.236-4.082-37.923-4.122-17.46 0-25.337.79-40.446 4.288-57.634 13.336-105.266 55.978-125.151 112.042-12.998 36.646-13.285 77.411-.806 114.398 1.247 3.694 2.93 8.148 3.741 9.898.811 1.747 1.474 3.418 1.474 3.711 0 .3 2.035 4.523 4.522 9.396 10.451 20.48 25.126 39.13 42.223 53.66l6.623 5.627 3.476-1.735c6.858-3.424 14.945-3.008 44.25 2.286 8.95 1.617 19.31 3.33 23.023 3.81 3.712.48 10.124 1.317 14.248 1.865 12.033 1.597 40.816.875 59.206-1.478z" fill="#f44800" stroke="#000" stroke-width="5.213"/><path d="M50.106 229.623c-.246-.245-2.31.737-4.561 1.956-15.206 8.211-24.84 23.015-26.394 41.055-1.616 18.767 9.873 39.472 26.72 47.9 4.018 2.01 4.666 1.621 3.91-1.63-.36-1.546-1.351-7.824-2.281-14.011-3.127-20.799-2.128-55.31 2.28-71.685.429-1.587.573-3.334.326-3.585zm51.828 4.889l-.652 2.28c-1.36 3.335-3.88 18.135-4.887 29-1.08 11.654-.211 26.549 2.607 40.73 1.002 5.046 1.955 9.557 1.955 9.775 0 1.58 2.7-.523 7.494-5.539 19.115-20.006 18.957-51.284-.652-70.707zM462.009 229.623c-.246.246.032 2.705.652 5.54 2.947 13.48 3.912 22.535 3.91 41.056-.002 15.306-.553 19.942-1.955 29-.926 5.981-1.926 12.139-2.281 13.686-.705 3.066-.21 3.314 2.932 1.954 9.62-4.16 20.123-15.73 24.113-26.393 3.859-10.313 4.655-19.745 2.28-29.651-3.571-14.9-12.247-26.257-25.415-33.563-2.143-1.193-3.99-1.88-4.236-1.629zm-51.828 5.866c-1.175 0-7.358 5.816-10.1 9.449-9.328 12.354-12.75 27.89-9.125 43.012 2.103 8.769 6.089 15.865 12.708 22.808 3.048 3.198 5.953 5.866 6.517 5.866.564 0 .975-.224.978-.331.002-.107.958-4.272 1.955-9.449 2.9-15.066 4.003-28.9 2.932-40.73-1.363-15.073-4.375-30.63-5.865-30.63zM125.702 91.121c-5.759-.002-11.976 1.233-17.596 3.258-15.734 5.677-28.19 20.05-31.606 36.169-1.784 8.414-1.481 20.998.977 27.045.462 1.135 1.336 2.28 1.63 2.28.293 0 1.703-1.977 3.258-4.235 15.01-21.794 37.445-43.401 58.652-56.697 2.678-1.679 4.567-3.281 4.235-3.583-1.184-1.077-8.31-3.13-14.01-3.911-1.778-.246-3.62-.32-5.54-.32zm52.153 45.311l-5.865 3.585c-19.339 12.23-36.989 29.297-48.876 47.247-2.046 3.09-3.505 5.785-3.259 6.191.247.395 3.626.981 7.495.981 15.89 0 29.457-6.272 39.1-17.921 8.126-9.813 11.754-20.298 11.405-32.584v-7.494zM387.39 91.447c-7.405-.01-13.43.715-19.224 2.932l-1.955.982 2.281 1.629c17.537 11.852 25.303 18.107 37.798 30.628 9.59 9.613 15.082 16.255 23.46 28.024l3.585 4.887.977-2.281c2.574-6.123 3.144-19.336 1.304-28.022-2.697-12.73-11.478-24.975-23.787-32.584-1.472-.907-5.961-2.599-9.775-3.911-6.057-2.083-7.785-2.281-14.663-2.281zm-53.456 44.985v7.82c0 4.556.622 9.752 1.303 12.383 2.59 9.983 10.583 22.041 18.248 27.697 5.082 3.748 12.512 6.98 18.573 8.471 5.502 1.356 17.847 2.058 19.55.982 2.02-1.28-10.516-18.681-21.831-29.977-10.573-10.555-24.84-21.616-33.888-26.394zM256.058 34.782c-6.616 0-16.842 2.365-22.483 5.212-6.967 3.518-15.759 11.358-19.225 16.944-1.469 2.368-4.888 8.676-4.888 9.124 0 .64 1.422.256 9.124-1.304 21.383-4.31 53.743-4.05 75.595.33 4.25.844 7.922 1.207 8.146.982.655-.65-3.894-8.747-7.168-12.708-3.914-4.735-11.106-10.576-16.618-13.36-5.641-2.847-15.868-5.212-22.483-5.212zm-4.562 81.774c-14.305.406-18.799.907-30.304 3.584l-6.516 1.63 5.865 5.864c7.052 6.793 13.367 10.442 22.157 13.035 8.91 2.588 17.72 2.6 26.72 0 9.015-2.608 15.02-6.159 22.156-13.035l6.191-5.864-7.168-1.63c-12.625-2.96-23.891-4.022-39.101-3.584z" fill="#dab200"/></svg><svg id="tom1" width="512" height="512"><g transform="translate(0 -540.362)"><path d="M64.948 771.393c-8.382 0-14.968 6.912-14.968 15.327v151.763c0 9.016 29.937 9.016 29.937 0V786.72c0-8.415-6.586-15.327-14.969-15.327z" stroke-miterlimit="10" fill="#eefaf9" stroke="#333" stroke-width="6" stroke-linecap="round" stroke-linejoin="round"/><path stroke-miterlimit="10" fill="#ff980f" fill-opacity=".941" stroke="#333" stroke-width="8" stroke-linecap="round" stroke-linejoin="round" d="M408.682 667.139H120.263v240.843h288.419z"/><g stroke-miterlimit="10" fill="#f8fdfd" stroke="#333" stroke-linecap="round" stroke-linejoin="round"><path d="M757 739c0 4.4-3.6 8-8 8s-8-3.6-8-8v-20c0-4.4 3.6-8 8-8s8 3.6 8 8v20zM979 739c0 4.4-3.6 8-8 8s-8-3.6-8-8v-20c0-4.4 3.6-8 8-8s8 3.6 8 8v20z" stroke-width="4.591" transform="matrix(-1.30506 0 0 1.30893 1387.478 -221.622)"/><path stroke-width="6.121" d="M823 711v-13" transform="matrix(-1.30506 0 0 1.30893 1387.478 -221.622)"/><path d="M831 739c0 4.4-3.6 8-8 8s-8-3.6-8-8v-20c0-4.4 3.6-8 8-8s8 3.6 8 8v20z" stroke-width="4.591" transform="matrix(-1.30506 0 0 1.30893 1387.478 -221.622)"/><g><path stroke-width="6.121" d="M897 711v-13" transform="matrix(-1.30506 0 0 1.30893 1387.478 -221.622)"/><path d="M905 739c0 4.4-3.6 8-8 8s-8-3.6-8-8v-20c0-4.4 3.6-8 8-8s8 3.6 8 8v20z" stroke-width="4.591" transform="matrix(-1.30506 0 0 1.30893 1387.478 -221.622)"/></g></g><path stroke-miterlimit="10" fill="#f8fdfd" stroke="#333" stroke-width="8" stroke-linecap="round" stroke-linejoin="round" d="M420.427 667.139H109.822v27.487h310.605z"/><g stroke-miterlimit="10" fill="#eefaf9" stroke="#333" stroke-linecap="round" stroke-linejoin="round"><path d="M979 823c0 4.4-3.6 8-8 8s-8-3.6-8-8v-20c0-4.4 3.6-8 8-8s8 3.6 8 8v20zM757 823c0 4.4-3.6 8-8 8s-8-3.6-8-8v-20c0-4.4 3.6-8 8-8s8 3.6 8 8v20z" stroke-width="4.591" transform="matrix(-1.30506 0 0 1.30893 1387.478 -221.622)"/><path stroke-width="6.121" d="M897 831v13" transform="matrix(-1.30506 0 0 1.30893 1387.478 -221.622)"/><path d="M905 823c0 4.4-3.6 8-8 8s-8-3.6-8-8v-20c0-4.4 3.6-8 8-8s8 3.6 8 8v20z" stroke-width="4.591" transform="matrix(-1.30506 0 0 1.30893 1387.478 -221.622)"/><g><path stroke-width="6.121" d="M823 831v13" transform="matrix(-1.30506 0 0 1.30893 1387.478 -221.622)"/><path d="M831 823c0 4.4-3.6 8-8 8s-8-3.6-8-8v-20c0-4.4 3.6-8 8-8s8 3.6 8 8v20z" stroke-width="4.591" transform="matrix(-1.30506 0 0 1.30893 1387.478 -221.622)"/></g></g><path stroke-miterlimit="10" fill="#f8fdfd" stroke="#333" stroke-width="8" stroke-linecap="round" stroke-linejoin="round" d="M420.427 880.495H109.822v27.487h310.605z"/><path stroke-miterlimit="10" d="M135.924 802.09c0 7.853 6.395 14.267 14.225 14.267h6.656c7.83 0 14.225-6.414 14.225-14.267v-28.928c0-7.853-6.395-14.267-14.225-14.267h-6.656c-7.83 0-14.225 6.414-14.225 14.267v28.928z" fill="#eefaf9" stroke="#333" stroke-width="6" stroke-linecap="round" stroke-linejoin="round"/><path stroke-miterlimit="10" d="M146.977 801.746H66.445c-8.98 0-16.016-6.612-16.016-15.026 0-8.415 6.137-15.027 14.52-15.027h-.15 82.328c8.382 0 15.268 6.612 15.268 15.027-.15 8.414-6.886 15.026-15.418 15.026z" fill="#eefaf9" stroke="#333" stroke-width="6" stroke-linecap="round" stroke-linejoin="round"/><circle stroke-miterlimit="10" cx="1009.1" cy="770.8" r="13.3" transform="matrix(-1.49687 0 0 1.50261 1575.29 -371.795)" fill="#eefaf9" stroke="#333" stroke-width="4.001" stroke-linecap="round" stroke-linejoin="round"/><path d="M61.206 781.61a5.978 5.978 0 0 1 8.383 1.353 6.031 6.031 0 0 1-1.347 8.415 5.978 5.978 0 0 1-8.383-1.353 6.031 6.031 0 0 1 1.347-8.414z" fill="#333"/></g></svg><svg id="tom2" width="512" height="512"><g transform="translate(0 -540.362)"><path d="M447.051 771.393c8.383 0 14.97 6.912 14.97 15.327v151.763c0 9.016-29.938 9.016-29.938 0V786.72c0-8.415 6.586-15.327 14.968-15.327z" stroke-miterlimit="10" fill="#eefaf9" stroke="#333" stroke-width="6" stroke-linecap="round" stroke-linejoin="round"/><path stroke-miterlimit="10" fill="#ff980f" stroke="#333" stroke-width="8" stroke-linecap="round" stroke-linejoin="round" fill-opacity=".941" d="M59.362 648.479H390.17V924.96H59.362z"/><g stroke-miterlimit="10" fill="#f8fdfd" stroke="#333" stroke-linecap="round" stroke-linejoin="round"><path d="M757 739c0 4.4-3.6 8-8 8s-8-3.6-8-8v-20c0-4.4 3.6-8 8-8s8 3.6 8 8v20zM979 739c0 4.4-3.6 8-8 8s-8-3.6-8-8v-20c0-4.4 3.6-8 8-8s8 3.6 8 8v20z" stroke-width="4.001" transform="matrix(1.49687 0 0 1.50261 -1063.29 -371.795)"/><path stroke-width="5.334" d="M823 711v-13" transform="matrix(1.49687 0 0 1.50261 -1063.29 -371.795)"/><path d="M831 739c0 4.4-3.6 8-8 8s-8-3.6-8-8v-20c0-4.4 3.6-8 8-8s8 3.6 8 8v20z" stroke-width="4.001" transform="matrix(1.49687 0 0 1.50261 -1063.29 -371.795)"/><g><path stroke-width="5.334" d="M897 711v-13" transform="matrix(1.49687 0 0 1.50261 -1063.29 -371.795)"/><path d="M905 739c0 4.4-3.6 8-8 8s-8-3.6-8-8v-20c0-4.4 3.6-8 8-8s8 3.6 8 8v20z" stroke-width="4.001" transform="matrix(1.49687 0 0 1.50261 -1063.29 -371.795)"/></g></g><path stroke-miterlimit="10" fill="#f8fdfd" stroke="#333" stroke-width="8" stroke-linecap="round" stroke-linejoin="round" d="M45.89 648.479h356.255v31.555H45.89z"/><g stroke-miterlimit="10" fill="#eefaf9" stroke="#333" stroke-linecap="round" stroke-linejoin="round"><path d="M979 823c0 4.4-3.6 8-8 8s-8-3.6-8-8v-20c0-4.4 3.6-8 8-8s8 3.6 8 8v20zM757 823c0 4.4-3.6 8-8 8s-8-3.6-8-8v-20c0-4.4 3.6-8 8-8s8 3.6 8 8v20z" stroke-width="4.001" transform="matrix(1.49687 0 0 1.50261 -1063.29 -371.795)"/><path stroke-width="5.334" d="M897 831v13" transform="matrix(1.49687 0 0 1.50261 -1063.29 -371.795)"/><path d="M905 823c0 4.4-3.6 8-8 8s-8-3.6-8-8v-20c0-4.4 3.6-8 8-8s8 3.6 8 8v20z" stroke-width="4.001" transform="matrix(1.49687 0 0 1.50261 -1063.29 -371.795)"/><g><path stroke-width="5.334" d="M823 831v13" transform="matrix(1.49687 0 0 1.50261 -1063.29 -371.795)"/><path d="M831 823c0 4.4-3.6 8-8 8s-8-3.6-8-8v-20c0-4.4 3.6-8 8-8s8 3.6 8 8v20z" stroke-width="4.001" transform="matrix(1.49687 0 0 1.50261 -1063.29 -371.795)"/></g></g><path stroke-miterlimit="10" fill="#f8fdfd" stroke="#333" stroke-width="8" stroke-linecap="round" stroke-linejoin="round" d="M45.89 893.405h356.255v31.555H45.89z"/><path stroke-miterlimit="10" d="M372.208 803.399c0 9.015-7.335 16.378-16.316 16.378h-7.634c-8.981 0-16.316-7.363-16.316-16.378V770.19c0-9.016 7.335-16.379 16.316-16.379h7.634c8.981 0 16.316 7.363 16.316 16.379v33.208z" fill="#eefaf9" stroke="#333" stroke-width="6" stroke-linecap="round" stroke-linejoin="round"/><path stroke-miterlimit="10" d="M365.023 801.746h80.532c8.98 0 16.016-6.612 16.016-15.026 0-8.415-6.137-15.027-14.52-15.027h.15-82.328c-8.382 0-15.268 6.612-15.268 15.027.15 8.414 6.886 15.026 15.418 15.026z" fill="#eefaf9" stroke="#333" stroke-width="6" stroke-linecap="round" stroke-linejoin="round"/><circle stroke-miterlimit="10" cx="1009.1" cy="770.8" r="13.3" transform="matrix(1.49687 0 0 1.50261 -1063.29 -371.795)" fill="#eefaf9" stroke="#333" stroke-width="4.001" stroke-linecap="round" stroke-linejoin="round"/><path d="M450.794 781.61a5.978 5.978 0 0 0-8.383 1.353 6.031 6.031 0 0 0 1.347 8.415 5.978 5.978 0 0 0 8.383-1.353 6.031 6.031 0 0 0-1.347-8.414z" fill="#333"/></g></svg><svg id="tom3" width="512" height="512"><g stroke-miterlimit="10" stroke="#333" stroke-linecap="round" stroke-linejoin="round"><path fill="#ff572f" stroke-width="8" fill-opacity=".941" d="M96.585 41.903h317.063v353.52H96.585z"/><path d="M105.423 110.397c0 4.86-3.978 8.838-8.838 8.838-4.861 0-8.838-3.977-8.838-8.838V88.302c0-4.861 3.977-8.838 8.838-8.838 4.86 0 8.838 3.977 8.838 8.838v22.095zM422.486 110.397c0 4.86-3.977 8.838-8.838 8.838-4.861 0-8.838-3.977-8.838-8.838V88.302c0-4.861 3.977-8.838 8.838-8.838 4.86 0 8.838 3.977 8.838 8.838v22.095z" fill="#eefaf9" stroke-width="5.999897249999999"/><path fill="none" stroke-width="7.999494749999999" d="M202.64 79.464V65.102"/><path d="M211.479 110.397c0 4.86-3.978 8.838-8.838 8.838-4.861 0-8.838-3.977-8.838-8.838V88.302c0-4.861 3.977-8.838 8.838-8.838 4.86 0 8.838 3.977 8.838 8.838v22.095z" fill="#eefaf9" stroke-width="5.999897249999999"/><path fill="none" stroke-width="7.999494749999999" d="M307.592 79.464V65.102"/><path d="M316.43 110.397c0 4.86-3.977 8.838-8.838 8.838-4.861 0-8.838-3.977-8.838-8.838V88.302c0-4.861 3.977-8.838 8.838-8.838 4.86 0 8.838 3.977 8.838 8.838v22.095z" fill="#eefaf9" stroke-width="5.999897249999999"/><path fill="#eefaf9" stroke-width="8" d="M86.642 41.903h335.844v23.2H86.642z"/><g><path d="M422.486 349.023c0 4.86-3.977 8.838-8.838 8.838-4.861 0-8.838-3.977-8.838-8.838v-22.095c0-4.861 3.977-8.838 8.838-8.838 4.86 0 8.838 3.977 8.838 8.838v22.095zM105.423 349.023c0 4.86-3.978 8.838-8.838 8.838-4.861 0-8.838-3.977-8.838-8.838v-22.095c0-4.861 3.977-8.838 8.838-8.838 4.86 0 8.838 3.977 8.838 8.838v22.095z" fill="#eefaf9" stroke-width="5.999897249999999"/><path fill="none" stroke-width="7.999494749999999" d="M307.592 357.86v14.363"/><path d="M316.43 349.023c0 4.86-3.977 8.838-8.838 8.838-4.861 0-8.838-3.977-8.838-8.838v-22.095c0-4.861 3.977-8.838 8.838-8.838 4.86 0 8.838 3.977 8.838 8.838v22.095z" fill="#eefaf9" stroke-width="5.999897249999999"/><g><path fill="none" stroke-width="7.999494749999999" d="M202.64 357.86v14.363"/><path d="M211.479 349.023c0 4.86-3.978 8.838-8.838 8.838-4.861 0-8.838-3.977-8.838-8.838v-22.095c0-4.861 3.977-8.838 8.838-8.838 4.86 0 8.838 3.977 8.838 8.838v22.095z" fill="#eefaf9" stroke-width="5.999897249999999"/></g></g><path fill="#eefaf9" stroke-width="8" d="M87.747 372.223h335.844v23.2H87.747z"/><g stroke-width="5.431"><path d="M80.345 312.345l-12.484 58.22v84.182c0 3.425 2.651 6.297 6.076 6.297s6.076-2.761 6.076-6.297v-82.856l12.484-58.22 12.373-58.22 3.977-18.34-12.041-2.43-16.461 77.664z" fill="#eefaf9" stroke-width="5.999897249999999"/><path d="M88.299 447.346l-7.512-12.153H68.634l-7.29 12.153c-1.437 2.209-2.21 5.081-2.21 8.064 0 8.617 6.96 15.688 15.687 15.688 8.728 0 15.687-7.292 15.687-15.909-.22-2.762-.883-5.634-2.209-7.843z" fill="#5c5c5c" stroke-width="5.999897249999999"/><path d="M109.842 192.148c0-6.186-5.414-11.268-11.6-11.268-6.187 0-11.6 5.082-11.6 11.268v64.076h23.2v-64.076z" fill="#eefaf9" stroke-width="5.999897249999999"/><g><path d="M251.25 454.747c0 3.425 2.651 6.297 6.076 6.297 3.424 0 6.076-2.761 6.076-6.297V254.014H251.25v200.733z" fill="#eefaf9" stroke-width="5.999897249999999"/><path d="M271.687 447.346l-7.512-12.153h-12.152l-7.291 12.153c-1.437 2.209-2.21 5.081-2.21 8.064 0 8.617 6.96 15.688 15.687 15.688 8.728 0 15.688-7.292 15.688-15.909-.221-2.762-.884-5.634-2.21-7.843z" fill="#5c5c5c" stroke-width="5.999897249999999"/><path d="M268.926 192.148c0-6.186-5.414-11.268-11.6-11.268-6.187 0-11.6 5.082-11.6 11.268v64.076h23.2v-64.076z" fill="#eefaf9" stroke-width="5.999897249999999"/></g><g><path d="M430.882 312.345l-15.688-77.885-11.82 2.43 3.756 18.34 11.6 58.22 11.49 58.22v82.856c0 3.425 2.65 6.297 6.075 6.297 3.425 0 6.076-2.761 6.076-6.297v-84.182l-11.49-57.999z" fill="#eefaf9" stroke-width="5.999897249999999"/><path d="M450.657 447.346l-7.512-12.153h-12.153l-7.291 12.153c-1.436 2.209-2.21 5.081-2.21 8.064 0 8.617 6.96 15.688 15.688 15.688 8.728 0 15.687-7.292 15.687-15.909-.22-2.762-.883-5.634-2.21-7.843z" fill="#5c5c5c" stroke-width="5.999897249999999"/><path d="M400.39 192.148c0-6.186 5.414-11.268 11.6-11.268 6.187 0 11.6 5.082 11.6 11.268v64.076h-23.2v-64.076z" fill="#eefaf9" stroke-width="5.999897249999999"/></g></g></g></svg></defs></svg>