<svg><defs><svg id="arrow-down" viewBox="0 0 32 32" width="32" height="32"><path d="M2 10.283q0-.357.281-.633l1.403-1.374Q3.965 8 4.33 8q.364 0 .645.276L16 19.079 27.025 8.276Q27.305 8 27.67 8t.646.276l1.403 1.374q.281.276.281.633t-.281.633L16.647 23.724q-.281.276-.645.276-.365 0-.646-.276L2.284 10.916q-.28-.276-.28-.633z"/></svg><svg id="arrow-left" viewBox="0 0 32 32" width="32" height="32"><path d="M21.717 2q.357 0 .633.281l1.374 1.403q.276.281.276.646 0 .364-.276.645L12.921 16l10.803 11.025q.276.28.276.645t-.276.646l-1.374 1.403q-.276.281-.633.281t-.633-.281L8.276 16.647Q8 16.366 8 16.002q0-.365.276-.646L21.084 2.284q.276-.28.633-.28z"/></svg><svg id="arrow-right" viewBox="0 0 32 32" width="32" height="32"><path d="M10.283 2q-.357 0-.633.281L8.276 3.684Q8 3.965 8 4.33q0 .364.276.645L19.079 16 8.276 27.025Q8 27.305 8 27.67t.276.646l1.374 1.403q.276.281.633.281t.633-.281l12.808-13.072q.276-.281.276-.645 0-.365-.276-.646L10.916 2.284q-.276-.28-.633-.28z"/></svg><svg id="arrow-up" viewBox="0 0 32 32" width="32" height="32"><path d="M30 21.717q0 .357-.281.633l-1.403 1.374q-.281.276-.646.276-.364 0-.645-.276L16 12.921 4.975 23.724Q4.695 24 4.33 24t-.646-.276L2.281 22.35Q2 22.074 2 21.717t.281-.633L15.353 8.276Q15.634 8 15.998 8q.365 0 .646.276l13.072 12.808q.28.276.28.633z"/></svg><svg id="audio-file" viewBox="0 0 32 32" width="32" height="32"><path style="text-indent:0;text-align:start;line-height:normal;text-transform:none;block-progression:tb;marker:none;-inkscape-font-specification:Sans" d="M6.656 1.344A2.658 2.658 0 0 0 4 4v24a2.658 2.658 0 0 0 2.656 2.656h18.688A2.658 2.658 0 0 0 28 28V9.281a.674.674 0 0 0-.188-.469l-7.28-7.28a.674.674 0 0 0-.47-.188zm0 1.312H19.75l6.938 6.906V28c0 .75-.594 1.344-1.344 1.344H6.656c-.75 0-1.343-.594-1.343-1.344V4c0-.75.593-1.344 1.343-1.344z" font-weight="400" color="#000" overflow="visible" font-family="Sans"/><path d="M27.39 9.333h-6.78a.608.608 0 0 1-.61-.61v-6.78z"/><path style="text-indent:0;text-align:start;line-height:normal;text-transform:none;block-progression:tb;marker:none;-inkscape-font-specification:Sans" d="M16.584 14.801c-.213.012-.403.176-.43.371l-1.234 8.804-1.52-5.728c-.093-.36-.771-.38-.89-.026l-1.147 3.526-1.061-1.962c-.141-.236-.55-.28-.746-.08l-1.204 1.247H7.06v.536l1.491.312a.484.484 0 0 0 .316-.132l.918-.928 1.262 2.386c.164.31.766.255.86-.08l1.004-3.075 1.693 6.443c.063.42.911.372.918-.053l1.204-8.591 1.607 6.788c.106.357.782.357.889 0l1.29-4.508 1.349 3.315c.127.28.615.328.803.08L23.87 21.8l1.635-.172v-.676H23.64a.484.484 0 0 0-.401.185l-.832 1.013-1.55-3.664c-.154-.313-.751-.276-.86.053l-1.176 4.11-1.75-7.504c-.042-.203-.264-.36-.487-.345z" font-weight="400" color="#000" overflow="visible" font-family="Sans"/><path style="text-indent:0;text-align:start;line-height:normal;text-transform:none;block-progression:tb;marker:none;-inkscape-font-specification:Sans" d="M16.462 12.719a.744.744 0 0 0-.636.626l-.954 6.675-1.407-.044-.153-.045-.75-3.066c-.068-.308-.253-.549-.573-.559-.32-.01-.546.212-.635.515l-1.051 3.391L9.4 20.2l-.658-1.297c-.205-.415-.578-.514-.9-.18l-1.217 1.759-2.13.734v.136l3.407.328 1.498 1.81c.247.531 1.208.452 1.363-.112l.476-1.522.023-.022 1.135.022 1.499 5.678a.75.75 0 0 0 .75.56.758.758 0 0 0 .68-.65l.75-5.409 1.77.023.727 3.333a.748.748 0 0 0 .704.605.753.753 0 0 0 .727-.582l.885-3.29 1.522.045.613 1.634c.187.496.703.581.99.134l1.258-2.148 2.474-.656v-.073l-2.361-.703h-2.112l-1.226-3.2c-.212-.567-1.057-.518-1.212.067l-.749 2.887-1.172-.023-1.658-6.809a.752.752 0 0 0-.794-.56z" font-weight="400" color="#000" overflow="visible" font-family="Sans"/></svg><svg id="audio-file2" viewBox="0 0 32 32" width="32" height="32"><path style="text-indent:0;text-align:start;line-height:normal;text-transform:none;block-progression:tb;marker:none;-inkscape-font-specification:Sans" d="M6.656 1.344A2.658 2.658 0 0 0 4 4v24a2.658 2.658 0 0 0 2.656 2.656h18.688A2.658 2.658 0 0 0 28 28V9.281a.674.674 0 0 0-.188-.469l-7.28-7.28a.674.674 0 0 0-.47-.188zm0 1.312H19.75l6.938 6.906V28c0 .75-.594 1.344-1.344 1.344H6.656c-.75 0-1.343-.594-1.343-1.344V4c0-.75.593-1.344 1.343-1.344z" font-weight="400" color="#000" overflow="visible" font-family="Sans"/><path d="M27.39 9.333h-6.78a.608.608 0 0 1-.61-.61v-6.78z"/><g><path d="M8 18.647v5.55h4.522L16.63 28V14.849l-4.107 3.798zM19.07 25.74a7.262 7.262 0 0 0 1.422-4.318 7.252 7.252 0 0 0-1.422-4.318l-.885.663a6.137 6.137 0 0 1 1.206 3.655c0 1.37-.451 2.632-1.206 3.656l.885.663zM21.953 27.736a10.607 10.607 0 0 0 2.082-6.314c0-2.367-.78-4.548-2.082-6.313l-.884.663a9.473 9.473 0 0 1 1.864 5.65c0 2.12-.698 4.067-1.864 5.65l.884.664z"/></g></svg><svg id="audio-signal" viewBox="0 0 32 32" width="32" height="32"><path style="text-indent:0;text-align:start;line-height:normal;text-transform:none;block-progression:tb;marker:none;-inkscape-font-specification:Sans" d="M16.469 4.625a1 1 0 0 0-.875.875l-2 15.406-2.344-9.656a1 1 0 0 0-1.938-.063l-1.874 6.126-1.594-3.22a1 1 0 0 0-1.625-.25l-2.063 2.282H0v2h2.594a1 1 0 0 0 .719-.313l1.374-1.53L6.75 20.5a1 1 0 0 0 1.875-.156l1.531-5.063 2.781 11.344a1 1 0 0 0 1.97-.125l1.937-15 2.531 11.656a1 1 0 0 0 1.969.032l2.062-7.844 2.094 5.594a1 1 0 0 0 1.781.187l2.032-3H32v-2h-3.25a1 1 0 0 0-.813.438l-1.25 1.843-2.53-6.75a1 1 0 0 0-1.907.094l-1.781 6.906-2.907-13.25a1 1 0 0 0-1.093-.781z" font-weight="400" color="#000" overflow="visible" font-family="Sans"/><path d="M42.78 16.424h2.583l2.364-2.608 2.71 5.528 2.608-8.579 3.642 14.91 2.69-20.765 3.765 17.315L66.01 11.31l3.208 8.562 2.325-3.448h3.238" stroke="#000" stroke-width="2" stroke-linejoin="round"/></svg><svg id="back" viewBox="0 0 32 32" width="32" height="32"><path d="M22.666 5.588l-11.753 9.697c-.169.142-.247.53-.247.714 0 .185.078.49.247.633l11.753 9.778c.617.502 1.313.176 1.333-.209V5.807c-.19-.743-1.108-.447-1.333-.22zM5.833 5.333h1.666c.277 0 .5.298.5.667v20c0 .37-.223.666-.5.666H5.833c-.277 0-.5-.297-.5-.666V6c0-.37.223-.667.5-.667zM-18.308 8.031l-9.095 7.422c-.13.11-.19.406-.19.547 0 .141.06.375.19.484l9.095 7.485c.477.384 1.016.134 1.032-.16V8.199c-.147-.569-.858-.342-1.032-.168z"/><rect ry=".5" rx=".5" y="8" x="-30.667" height="16" width="2.666"/><path d="M-9.667 16a14.334 14.334 0 1 1-28.667 0 14.334 14.334 0 1 1 28.667 0z" stroke="#444" stroke-width="1.33330011"/><path d="M38.16 5.71h5c.831 0 1.5.28 1.5.626v18.75c0 .346-.669.625-1.5.625h-5c-.83 0-1.5-.279-1.5-.625V6.336c0-.346.67-.625 1.5-.625z"/><path d="M22.808-31.809L12.23-24.536c-.152.107-.222.397-.222.536 0 .138.07.368.222.474l10.578 7.334c.555.376 1.182.132 1.2-.157v-15.295c-.17-.558-.997-.336-1.2-.165zM8.5-32h1.666c.277 0 .5.223.5.5v15c0 .277-.223.5-.5.5H8.5a.499.499 0 0 1-.5-.5v-15c0-.277.223-.5.5-.5z"/></svg><svg id="bass" viewBox="0 0 32 32"><g><path d="M2.081 19.546l1.842 4.988-1.649.61-1.841-4.989zM26.861 18.288c.74 1.459 2.336.688 3.197.129.165-.101.319-.212.462-.332.062-.05.105-.08.105-.08L30.623 18a3.823 3.823 0 0 0 1.048-4.181 3.821 3.821 0 0 0-3.904-2.48l-.004-.013-23.475 2.792c.361 3.144-1.559 5.182-1.559 5.182l1.849 5.006.916-.338c.973-.219 4.453 2.076 4.453 2.076 3.461-3.286 16.914-7.756 16.914-7.756zm-18.866-.75a1.04 1.04 0 1 1 1.335.615 1.04 1.04 0 0 1-1.335-.616zm6.283-.628c-.201-.544.077-1.137.615-1.335.543-.201 1.136.077 1.335.615a1.04 1.04 0 0 1-1.95.72zm6.085-1.125a1.04 1.04 0 1 1 1.335.615 1.04 1.04 0 0 1-1.335-.615zm6.085-1.126a1.04 1.04 0 1 1 1.95-.717 1.04 1.04 0 0 1-1.95.717zM23.366 8.276l.004.012a1.357 1.357 0 0 0-.676 1.68 1.352 1.352 0 0 0 1.74.801c.012-.004.028-.017.033-.019l.003.006.727-.268.233.632 1.569-.19-.36-.975.727-.268-.003-.006c.012-.005.032-.005.038-.007a1.352 1.352 0 1 0-.804-2.577l-.004-.013a1.729 1.729 0 0 0-2.218-1.021 1.714 1.714 0 0 0-1.01 2.213zM17.093 8.913l.005.012a1.357 1.357 0 0 0-.676 1.68 1.352 1.352 0 0 0 1.74.801c.012-.004.027-.017.033-.019l.002.006.727-.268.269.726 1.568-.19-.395-1.069.733-.27-.002-.006c.012-.005.032-.005.038-.008a1.352 1.352 0 1 0-.804-2.577l-.005-.012a1.729 1.729 0 0 0-2.217-1.021 1.732 1.732 0 0 0-1.016 2.215zM10.854 9.638l.004.012a1.357 1.357 0 0 0-.676 1.68 1.352 1.352 0 0 0 1.74.802c.012-.005.028-.017.034-.02l.002.007.727-.269.27.733 1.569-.19-.395-1.07.727-.268-.002-.006c.011-.004.031-.005.037-.007a1.352 1.352 0 1 0-.804-2.577l-.004-.012a1.729 1.729 0 0 0-2.217-1.022 1.717 1.717 0 0 0-1.012 2.207zM8.3 13.127l-.501-1.36.726-.268-.002-.006c.012-.004.032-.005.038-.007a1.352 1.352 0 1 0-.804-2.577l-.004-.013a1.729 1.729 0 0 0-2.218-1.021 1.729 1.729 0 0 0-1.021 2.217l.004.012a1.357 1.357 0 0 0-.676 1.68 1.352 1.352 0 0 0 1.74.802c.012-.005.03-.011.034-.02l.002.006.727-.268.373 1.01 1.582-.187z"/></g></svg><svg id="bongo" viewBox="0 0 32 32"><path style="text-indent:0;text-align:start;line-height:normal;text-transform:none;block-progression:tb;marker:none;-inkscape-font-specification:Sans" d="M4.094 8.438l.031.437 1.344 15.906v.125l.125.125c1.613 1.617 4.558 1.824 6.937 1.75h6.563a19.342 19.342 0 0 0 3.812-.375c1.314-.27 2.538-.68 3.313-1.343l.125-.094v-.157l1.25-15.937.031-.438H4.094zm.843.812h21.844l-1.093 13.875c-1.557.943-4.596 1.385-6.563 1.375h-6.719c-2.143.065-4.709-.187-6.281-1.281L4.937 9.25z" font-weight="400" color="#000" overflow="visible" font-family="Sans"/><path d="M8.84 25.977v.951h-.3c-.292 0-.323.234-.323.491v.998c0 .272.27.491.605.491h.019v.215h1.172v-.215h.038c.335 0 .605-.219.605-.49v-.999c0-.28-.024-.49-.257-.49h-.386v-.952z"/><path style="text-indent:0;text-align:start;line-height:normal;text-transform:none;block-progression:tb;marker:none;-inkscape-font-specification:Sans" d="M6.281 3.188c-1.308 0-2.312 1.228-2.312 2.656v.218c0 .176-.002.348.031.532l.063.312h23.812l.063-.312c.032-.184.03-.356.03-.532v-.218c0-1.428-.972-2.657-2.28-2.657H6.28zm0 .78h19.407c.8 0 1.5.812 1.5 1.876v.281H4.78v-.281c0-1.064.7-1.875 1.5-1.875z" font-weight="400" color="#000" overflow="visible" font-family="Sans"/><path d="M3.576 5.713h24.848a.76.76 0 0 1 .762.761v1.573a.76.76 0 0 1-.762.762H3.576a.76.76 0 0 1-.762-.762V6.474a.76.76 0 0 1 .762-.761z"/><path style="text-indent:0;text-align:start;line-height:normal;text-transform:none;block-progression:tb;marker:none;-inkscape-font-specification:Sans" d="M6.299 8.689l.381.716 1.21 2.334c.068 1.155.455 1.676.923 1.772.02.198.336 8.028.336 11.515l1.244.049c0-3.698-.313-11.27-.335-11.494.418-.107.683-.751.776-1.692.476-1.096 1.161-2.197 1.705-3.262-2.036.023-4.148.062-6.24.062zm3.578 2.716c-.354.22-.803.153-1.07-.028l-.9-1.874 2.944.01c-.339.61-.676 1.26-.974 1.892z" font-weight="400" color="#000" overflow="visible" font-family="Sans"/><path d="M21.994 26v.947h-.32c-.314 0-.347.233-.347.49v.992c0 .271.289.49.647.49h.02v.213h1.254v-.214h.04c.359 0 .647-.218.647-.489v-.993c0-.278-.026-.489-.275-.489h-.412V26z"/><path d="M25.533 8.691l-.399.75-1.265 2.44c-.071 1.208-.476 1.753-.965 1.853-.02.207-.013 7.314-.013 10.96l-1.301.052c0-3.868-.01-10.705.012-10.939-.437-.111-.714-.785-.811-1.769-.498-1.146-1.215-2.297-1.783-3.41 2.129.023 4.337.063 6.525.063zm-3.741 2.841c.37.23.839.16 1.118-.03l.942-1.959-3.079.01c.354.639.706 1.318 1.019 1.98z" style="text-indent:0;text-align:start;line-height:normal;text-transform:none;block-progression:tb;marker:none;-inkscape-font-specification:Sans" font-weight="400" color="#000" overflow="visible" font-family="Sans"/></svg><svg id="check" viewBox="0 0 32 32" width="32" height="32"><path d="M26.25 6.525a.94.94 0 0 0-.688.281L12.126 20.244l-5.656-5.657a.988.988 0 0 0-1.406 0l-1.438 1.407a.988.988 0 0 0 0 1.406l7.781 7.781a.988.988 0 0 0 1.406 0c5.185-5.18 10.375-10.355 15.563-15.531a1.026 1.026 0 0 0 0-1.438l-1.406-1.406a1.01 1.01 0 0 0-.719-.281z"/></svg><svg id="color-palette" width="32" height="32"><path d="M15.156 28.112a5.589 5.589 0 0 1-3.89-2.406c-.62-.925-.876-1.773-.938-3.112-.055-1.206-.249-1.781-.776-2.309-.66-.659-1.735-.963-3.633-1.026-.973-.032-1.388-.08-1.93-.224-1.577-.42-2.722-1.75-3.138-3.648-.365-1.666-.227-2.82.514-4.303.194-.39.62-1.113.777-1.32.055-.072.177-.238.271-.368A18.185 18.185 0 0 1 3.989 7.59c.546-.528.856-.786 1.415-1.179.386-.27.58-.393 1.03-.644l.441-.247c.683-.383 2.048-.937 2.869-1.164 1.595-.441 3.097-.572 5.368-.468 2.76.127 4.596.4 6.644.986 2.078.594 4.162 1.592 5.489 2.627.412.322 1.467 1.395 1.776 1.807 1.337 1.783 1.97 3.495 2.25 6.08.314 2.918-.39 5.408-2.156 7.624-.435.546-1.672 1.752-2.212 2.156-1.879 1.406-4.328 2.356-7.01 2.72-1.517.205-3.974.322-4.737.225zm1.28-3.24c.973-.153 1.832-1.05 1.956-2.045.103-.817-.118-1.463-.704-2.052-.482-.485-1.011-.706-1.693-.706-.682 0-1.212.221-1.693.706-.51.514-.717.997-.719 1.685-.002.715.207 1.24.686 1.719.604.603 1.309.829 2.167.693zm-9.961-8.948c.995-.295 1.592-1.251 1.43-2.292-.065-.424-.244-.767-.573-1.095a2.026 2.026 0 0 0-2.29-.39c-.314.148-.78.6-.936.91-.56 1.106.044 2.494 1.25 2.868.296.092.808.092 1.119 0zm18.506-1.615c.35-.09.59-.241.917-.573.32-.325.473-.623.545-1.06a1.934 1.934 0 0 0-.561-1.733c-.346-.345-.663-.514-1.092-.582-.914-.146-1.752.285-2.161 1.113-.175.353-.183.391-.182.867 0 .459.012.523.163.85a2.031 2.031 0 0 0 2.371 1.118zm-12.59-3.376c.43-.205.774-.544.975-.964.142-.297.153-.355.153-.858 0-.5-.011-.562-.151-.858a2.027 2.027 0 0 0-2.155-1.138c-.657.109-1.154.496-1.46 1.137-.124.26-.156.396-.172.743-.031.65.15 1.131.59 1.564.449.442.873.599 1.51.56a1.64 1.64 0 0 0 .71-.186zm6.008.164a2.11 2.11 0 0 0 1.437-1.092c.38-.752.219-1.718-.388-2.325-1.09-1.09-2.937-.609-3.379.88-.149.5-.064 1.145.206 1.574.47.743 1.299 1.12 2.124.963z"/></svg><svg id="countdown" viewBox="0 0 32 32" width="32" height="32"><path d="M15.969 5.5C10.184 5.517 5.5 10.212 5.5 16s4.684 10.483 10.469 10.5H16c5.784-.017 10.469-4.712 10.469-10.5S21.784 5.517 16 5.5h-.031zm-.5 2.875c.18 0 .333.02.5.031H16a6.188 6.188 0 0 1 1.563.281c.588.197 1.09.48 1.468.844.393.35.662.76.844 1.25.196.477.312 1.02.313 1.594 0 .673-.216 1.248-.594 1.781a3.482 3.482 0 0 1-1.407 1.219 4.113 4.113 0 0 1 1.875 1.344c.505.617.75 1.407.75 2.375 0 .645-.119 1.251-.343 1.812a3.84 3.84 0 0 1-1.032 1.438c-.462.392-1.034.699-1.75.937-.48.154-1.073.234-1.687.282h-.031c-.269.022-.516.062-.813.062-.378 0-.78-.038-1.187-.094a9.412 9.412 0 0 1-1.125-.187c-.35-.07-.675-.166-.969-.25-.294-.098-.533-.166-.688-.25l.5-2.188c.295.14.72.318 1.282.5.56.169 1.266.25 2.094.25.331 0 .63-.024.906-.062.01-.002.02.001.031 0 .633-.09 1.13-.272 1.469-.563.49-.434.718-1.003.718-1.718 0-.463-.084-.848-.28-1.157a2.013 2.013 0 0 0-.782-.75A3.067 3.067 0 0 0 16 16.75c-.01-.002-.021.002-.031 0a6.836 6.836 0 0 0-1.313-.125h-.875v-2.063h1.063c.322 0 .646-.006.969-.062.057-.012.103-.045.156-.063.01-.002.022.003.031 0 .26-.068.505-.157.719-.28.266-.169.456-.39.625-.657.168-.266.25-.61.25-1.031 0-.337-.062-.637-.188-.875a1.717 1.717 0 0 0-.5-.594c-.196-.154-.42-.242-.687-.313-.073-.019-.144-.047-.219-.062-.01-.002-.021.002-.031 0a3.373 3.373 0 0 0-.594-.063c-.631 0-1.197.117-1.688.313-.49.182-.902.387-1.28.625l-.938-1.906c.196-.126.438-.235.719-.375.28-.14.57-.28.906-.406.35-.127.732-.243 1.125-.313a6 6 0 0 1 1.25-.125z"/><path d="M69.729 16a13.729 13.729 0 1 1-27.458 0 13.729 13.729 0 1 1 27.458 0z" stroke="#000" stroke-width=".5"/><path d="M66.5 16c0 5.799-4.701 10.5-10.5 10.5S45.5 21.799 45.5 16 50.201 5.5 56 5.5 66.5 10.201 66.5 16z"/><path d="M56 1a14.937 14.937 0 0 0-10.594 4.406c-5.858 5.858-5.858 15.33 0 21.188 5.858 5.858 15.33 5.858 21.188 0A14.937 14.937 0 0 0 71 16h-2.813c0 3.119-1.182 6.245-3.562 8.625-4.76 4.76-12.49 4.76-17.25 0s-4.76-12.49 0-17.25A12.158 12.158 0 0 1 56 3.812V1z"/><g style="line-height:125%;-inkscape-font-specification:Ubuntu Medium" font-size="24" font-weight="500" letter-spacing="0" word-spacing="0" font-family="Ubuntu"><path d="M55.028 24.688c-.432 0-.88-.032-1.344-.096-.448-.048-.88-.12-1.296-.216-.4-.08-.768-.168-1.104-.264a4.956 4.956 0 0 1-.768-.312l.576-2.472c.336.16.824.344 1.464.552.64.192 1.432.288 2.376.288 1.264 0 2.176-.24 2.736-.72.56-.496.84-1.152.84-1.968 0-.528-.112-.968-.336-1.32a2.25 2.25 0 0 0-.888-.84 3.557 3.557 0 0 0-1.296-.456 7.827 7.827 0 0 0-1.536-.144h-.984v-2.352h1.2a6.43 6.43 0 0 0 1.104-.096c.384-.08.728-.208 1.032-.384a2.36 2.36 0 0 0 .744-.744c.192-.304.288-.696.288-1.176 0-.384-.072-.712-.216-.984a1.955 1.955 0 0 0-.576-.672 2.151 2.151 0 0 0-.792-.384 3.76 3.76 0 0 0-.96-.12c-.72 0-1.36.112-1.92.336a8.045 8.045 0 0 0-1.488.72l-1.056-2.16c.224-.144.496-.296.816-.456.32-.16.672-.312 1.056-.456.4-.144.824-.256 1.272-.336.448-.096.92-.144 1.416-.144.928 0 1.728.112 2.4.336.672.224 1.224.544 1.656.96.448.4.776.88.984 1.44.224.544.336 1.144.336 1.8 0 .768-.216 1.456-.648 2.064a4.053 4.053 0 0 1-1.632 1.392 4.64 4.64 0 0 1 2.136 1.512c.576.704.864 1.608.864 2.712 0 .736-.128 1.424-.384 2.064a4.351 4.351 0 0 1-1.176 1.632c-.528.448-1.2.808-2.016 1.08-.8.256-1.76.384-2.88.384"/><path d="M55.028 24.688c-.432 0-.88-.032-1.344-.096-.448-.048-.88-.12-1.296-.216-.4-.08-.768-.168-1.104-.264a4.956 4.956 0 0 1-.768-.312l.576-2.472c.336.16.824.344 1.464.552.64.192 1.432.288 2.376.288 1.264 0 2.176-.24 2.736-.72.56-.496.84-1.152.84-1.968 0-.528-.112-.968-.336-1.32a2.25 2.25 0 0 0-.888-.84 3.557 3.557 0 0 0-1.296-.456 7.827 7.827 0 0 0-1.536-.144h-.984v-2.352h1.2a6.43 6.43 0 0 0 1.104-.096c.384-.08.728-.208 1.032-.384a2.36 2.36 0 0 0 .744-.744c.192-.304.288-.696.288-1.176 0-.384-.072-.712-.216-.984a1.955 1.955 0 0 0-.576-.672 2.151 2.151 0 0 0-.792-.384 3.76 3.76 0 0 0-.96-.12c-.72 0-1.36.112-1.92.336a8.045 8.045 0 0 0-1.488.72l-1.056-2.16c.224-.144.496-.296.816-.456.32-.16.672-.312 1.056-.456.4-.144.824-.256 1.272-.336.448-.096.92-.144 1.416-.144.928 0 1.728.112 2.4.336.672.224 1.224.544 1.656.96.448.4.776.88.984 1.44.224.544.336 1.144.336 1.8 0 .768-.216 1.456-.648 2.064a4.053 4.053 0 0 1-1.632 1.392 4.64 4.64 0 0 1 2.136 1.512c.576.704.864 1.608.864 2.712 0 .736-.128 1.424-.384 2.064a4.351 4.351 0 0 1-1.176 1.632c-.528.448-1.2.808-2.016 1.08-.8.256-1.76.384-2.88.384"/></g><path d="M56.616 46.142h3.787v3.883h-3.787zM90.623 33.922h14.848v9.83H90.623z"/><g style="line-height:125%;-inkscape-font-specification:Ubuntu Medium" font-size="24" font-weight="500" letter-spacing="0" word-spacing="0" font-family="Ubuntu"><path d="M97.79 44.63c-.432 0-.88-.031-1.344-.095-.448-.048-.88-.12-1.296-.216-.4-.08-.768-.168-1.104-.264a4.956 4.956 0 0 1-.768-.312l.576-2.472c.336.16.824.344 1.464.552.64.192 1.432.288 2.376.288 1.264 0 2.176-.24 2.736-.72.56-.496.84-1.152.84-1.968 0-.528-.112-.968-.336-1.32a2.25 2.25 0 0 0-.888-.84 3.557 3.557 0 0 0-1.296-.456 7.827 7.827 0 0 0-1.536-.144h-.984V34.31h1.2a6.43 6.43 0 0 0 1.104-.096c.384-.08.728-.208 1.032-.384a2.36 2.36 0 0 0 .744-.744c.192-.304.288-.696.288-1.176 0-.384-.072-.712-.216-.984a1.955 1.955 0 0 0-.576-.672 2.151 2.151 0 0 0-.792-.384 3.76 3.76 0 0 0-.96-.12c-.72 0-1.36.112-1.92.336a8.045 8.045 0 0 0-1.488.72l-1.056-2.16c.224-.144.496-.296.816-.456.32-.16.672-.312 1.056-.456.4-.144.824-.256 1.272-.336.448-.096.92-.144 1.416-.144.928 0 1.728.112 2.4.336.672.224 1.224.544 1.656.96.448.4.776.88.984 1.44.224.544.336 1.144.336 1.8 0 .768-.216 1.456-.648 2.064a4.053 4.053 0 0 1-1.632 1.392 4.64 4.64 0 0 1 2.136 1.512c.576.704.864 1.608.864 2.712 0 .736-.128 1.424-.384 2.064a4.351 4.351 0 0 1-1.176 1.632c-.528.448-1.2.808-2.016 1.08-.8.256-1.76.384-2.88.384"/><path d="M97.79 44.63c-.432 0-.88-.031-1.344-.095-.448-.048-.88-.12-1.296-.216-.4-.08-.768-.168-1.104-.264a4.956 4.956 0 0 1-.768-.312l.576-2.472c.336.16.824.344 1.464.552.64.192 1.432.288 2.376.288 1.264 0 2.176-.24 2.736-.72.56-.496.84-1.152.84-1.968 0-.528-.112-.968-.336-1.32a2.25 2.25 0 0 0-.888-.84 3.557 3.557 0 0 0-1.296-.456 7.827 7.827 0 0 0-1.536-.144h-.984V34.31h1.2a6.43 6.43 0 0 0 1.104-.096c.384-.08.728-.208 1.032-.384a2.36 2.36 0 0 0 .744-.744c.192-.304.288-.696.288-1.176 0-.384-.072-.712-.216-.984a1.955 1.955 0 0 0-.576-.672 2.151 2.151 0 0 0-.792-.384 3.76 3.76 0 0 0-.96-.12c-.72 0-1.36.112-1.92.336a8.045 8.045 0 0 0-1.488.72l-1.056-2.16c.224-.144.496-.296.816-.456.32-.16.672-.312 1.056-.456.4-.144.824-.256 1.272-.336.448-.096.92-.144 1.416-.144.928 0 1.728.112 2.4.336.672.224 1.224.544 1.656.96.448.4.776.88.984 1.44.224.544.336 1.144.336 1.8 0 .768-.216 1.456-.648 2.064a4.053 4.053 0 0 1-1.632 1.392 4.64 4.64 0 0 1 2.136 1.512c.576.704.864 1.608.864 2.712 0 .736-.128 1.424-.384 2.064a4.351 4.351 0 0 1-1.176 1.632c-.528.448-1.2.808-2.016 1.08-.8.256-1.76.384-2.88.384"/></g><path d="M60.475 65.22c0 8.013-6.496 14.509-14.509 14.509s-11.729-6.326-11.729-14.34c0-8.012 3.716-14.677 11.73-14.677 8.012 0 14.508 6.496 14.508 14.508z"/><path d="M42.688 52.334h1.2a6.43 6.43 0 0 0 1.104-.096c.384-.08.728-.208 1.032-.384a2.36 2.36 0 0 0 .744-.744c.192-.304.288-.696.288-1.176 0-.384-.072-.712-.216-.984a1.955 1.955 0 0 0-.576-.672 2.151 2.151 0 0 0-.792-.384 3.759 3.759 0 0 0-.96-.12c-.72 0-1.36.112-1.92.336a8.045 8.045 0 0 0-1.488.72l-1.056-2.16c.224-.144.496-.296.816-.456.32-.16.672-.312 1.056-.456.4-.144.824-.256 1.272-.336.448-.096.92-.144 1.416-.144.928 0 1.728.112 2.4.336.672.224 1.224.544 1.656.96.448.4.776.88.984 1.44.224.544.336 1.144.336 1.8 0 .768-.216 1.456-.648 2.064a4.053 4.053 0 0 1-1.632 1.392" style="line-height:125%;-inkscape-font-specification:Ubuntu Medium" font-size="24" font-weight="500" letter-spacing="0" word-spacing="0" font-family="Ubuntu"/><path d="M-33.5 16a10.5 10.5 0 1 1-21 0 10.5 10.5 0 1 1 21 0z"/><text y="24.328" x="-50.636" style="line-height:125%;-inkscape-font-specification:Ubuntu Medium" font-size="24" font-weight="500" letter-spacing="0" word-spacing="0" font-family="Ubuntu"><tspan y="24.328" x="-50.636">3</tspan></text><path d="M16-54.5c-5.799 0-10.5 4.701-10.5 10.5S10.201-33.5 16-33.5v-21z"/><text y="-36.702" x="10.184" style="line-height:125%;-inkscape-font-specification:Ubuntu Medium" font-size="21.033" font-weight="500" letter-spacing="0" word-spacing="0" font-family="Ubuntu"><tspan y="-36.702" x="10.184">3</tspan></text><path d="M25.5-54.5C31.299-54.5 36-49.799 36-44s-4.701 10.5-10.5 10.5v-21z"/><path style="text-indent:0;text-align:start;line-height:normal;text-transform:none;block-progression:tb;marker:none;-inkscape-font-specification:Sans" d="M15.986 2.042c-7.718 0-13.969 6.252-13.969 13.97 0 7.716 6.251 13.968 13.969 13.968 7.717 0 14-6.252 14-13.969s-6.283-13.969-14-13.969zm0 .5c7.447 0 13.5 6.022 13.5 13.47 0 7.446-6.053 13.468-13.5 13.468S2.517 23.458 2.517 16.01c0-7.447 6.022-13.469 13.469-13.469z" font-weight="400" color="#000" overflow="visible" font-family="Sans"/><path d="M16 1A14.937 14.937 0 0 0 5.406 5.406c-5.858 5.858-5.858 15.33 0 21.188 5.858 5.858 15.33 5.858 21.188 0l.031-.032-1.969-1.968-.031.031c-4.76 4.76-12.49 4.76-17.25 0s-4.76-12.49 0-17.25A12.158 12.158 0 0 1 16 3.812V1zM-15.218 71.94c-5.784.018-10.468 4.712-10.468 10.5 0 5.789 4.684 10.483 10.468 10.5h.032c5.784-.017 10.468-4.711 10.468-10.5 0-5.788-4.684-10.482-10.468-10.5h-.032zm-.5 2.876c.18 0 .334.02.5.03.01.002.021 0 .032 0a6.188 6.188 0 0 1 1.562.282c.589.197 1.09.48 1.469.844.392.35.661.76.844 1.25.196.477.312 1.019.312 1.594 0 .673-.215 1.248-.594 1.78a3.482 3.482 0 0 1-1.406 1.22 4.113 4.113 0 0 1 1.875 1.343c.505.617.75 1.408.75 2.375 0 .645-.12 1.252-.344 1.813a3.84 3.84 0 0 1-1.03 1.437c-.464.393-1.036.7-1.75.938-.482.154-1.074.234-1.688.281h-.032c-.268.023-.515.063-.812.063-.379 0-.781-.038-1.188-.094a9.412 9.412 0 0 1-1.125-.188c-.35-.07-.674-.165-.968-.25-.295-.098-.534-.165-.688-.25l.5-2.187c.295.14.72.318 1.281.5.561.168 1.267.25 2.094.25.332 0 .63-.025.906-.063.011-.001.02.002.032 0 .632-.09 1.13-.272 1.468-.562.491-.435.72-1.004.72-1.719 0-.463-.086-.848-.282-1.156a2.013 2.013 0 0 0-.781-.75 3.067 3.067 0 0 0-1.125-.406c-.01-.002-.022.002-.032 0a6.836 6.836 0 0 0-1.312-.125h-.875v-2.063h1.062c.323 0 .647-.006.97-.062.056-.012.102-.045.155-.063.01-.002.022.003.032 0 .259-.068.505-.158.718-.281.267-.168.457-.39.625-.656.169-.267.25-.61.25-1.032 0-.336-.061-.636-.187-.875a1.717 1.717 0 0 0-.5-.593c-.197-.155-.421-.243-.688-.313-.072-.019-.144-.047-.218-.062-.01-.002-.022.001-.032 0a3.373 3.373 0 0 0-.593-.063c-.631 0-1.197.116-1.688.313-.49.182-.903.386-1.281.625l-.938-1.907c.197-.126.439-.234.72-.375.28-.14.569-.28.905-.406.35-.126.733-.242 1.125-.312a6 6 0 0 1 1.25-.125z"/><path d="M-1.464 82.447a13.729 13.729 0 1 1-27.458 0 13.729 13.729 0 1 1 27.458 0z" stroke="#000" stroke-width=".5"/><path d="M-15.193 67.447a14.937 14.937 0 0 0-10.594 4.406c-5.858 5.858-5.858 15.33 0 21.188 5.859 5.858 15.33 5.858 21.188 0A14.937 14.937 0 0 0-.193 82.447h-2.812c0 3.119-1.183 6.245-3.563 8.625-4.76 4.76-12.49 4.76-17.25 0s-4.76-12.49 0-17.25a12.158 12.158 0 0 1 8.625-3.563v-2.812z"/><path d="M-15.186 66.44h16v31.865l-16-15.864z"/></svg><svg id="drums" viewBox="0 0 32 32"><path d="M26.773-18.638c.527-.982.704-1.94.5-2.893-.199.526-.497 1.082-.81 1.588l-.13-.702c.316-.589.582-1.163.732-1.756l-.96-4.182a11.22 11.22 0 0 1-.592.947l-.099-.601c.4-.587.665-1.16.783-1.772.08-.463.076-.929-.06-1.381l2.758-.585.737-.195c.151-.045.27-.108.304-.174.103-.113.14-.261.113-.445-.058-.284-.285-.49-.537-.414-.032-.018-.417.07-.467.086 0 0-1.305.311-3.312.752a5.162 5.162 0 0 0-.705-.885c-.182-.603-.565-1.146-1.084-1.593l6.73-2.331.689-.263c.118-.063.254-.159.289-.224.07-.13.108-.28.03-.448-.076-.251-.353-.442-.605-.366-.033-.018-.402.121-.452.136l-7.643 2.853c-1.095-.63-2.512-1.053-4.167-1.267l-.01-.216c-.028-.183-.142-.286-.275-.274-.133.013-.188.194-.176.328l-.002.083c-2.12-.211-4.585-.017-7.112.608-.586.15-1.172.299-1.725.465l-.03-.1c-.029-.184-.142-.287-.275-.274-.133.013-.189.194-.176.327l.046.151c-3.238 1.086-5.862 2.755-7.376 4.556l.05-.016c-.028-.183-.141-.286-.275-.273-.133.012-.188.194-.175.327l.07.417C.477-27.44.125-26.154.39-25l.015.05a3.64 3.64 0 0 0-.02 1.844c.06.201.121.402.232.588.966 1.656 3.261 2.72 6.225 3.088l.053.45c-2.219-.264-4.046-.865-5.33-1.849l1.085 3.87c.968 1.573 2.78 2.672 5.123 3.255 0 0-.018.033.015.05l.086.468c-2.063-.475-3.765-1.388-4.876-2.617l.091.302c.48 1.775 2.356 2.992 4.998 3.567l.046.151c.028.184.141.287.274.274.134-.013.189-.194.176-.327 2.347.416 5.192.3 8.187-.412a22.69 22.69 0 0 0 1.81-.546c.046.151.159.254.26.224.133-.013.188-.194.175-.327l-.015-.05c3.474-1.213 6.155-3.146 7.46-5.185.03.1.13.153.23.123.133-.013.188-.194.175-.327l-.09-.302zm-1.723-7.078l.084.55c-.361.439-.806.874-1.3 1.325-1.671 1.464-3.916 2.662-6.417 3.553l-.071-.417-.016-.05c3.457-1.18 6.201-2.995 7.72-4.961zm-23.866.805c-.726-3.045 4.013-6.613 10.455-8.171 4.015-.964 7.735-.907 10.169-.022A4152.892 4152.892 0 0 1 7.9-27.924c-.268.11-.806.326-1.95.808a.289.289 0 0 0-.297-.075c-.151.046-.576.366-.5.617.06.201.61.2.727.138a.355.355 0 0 0 .241-.293c.367-.055 1.036-.202 2.178-.601l14.737-5.157c.816.522 1.345 1.185 1.555 1.972l.038.4c-6.874 1.58-19.168 4.38-19.218 4.396-.284.058-.837.225-2.042.506-.08-.085-.179-.138-.28-.108-.15.046-.623.298-.58.532.044.234.574.266.708.253.133-.013.236-.126.273-.275.383-.005 1.05-.07 2.236-.317l18.807-3.943c-.726 2.687-4.88 5.558-10.301 6.864-6.492 1.573-12.29.359-13.048-2.704zm6.206 6.028l-.071-.417c1.69.149 3.62.088 5.606-.237.652-.114 1.27-.246 1.939-.392.72-.162 1.39-.392 2.044-.59l.071.418a19.24 19.24 0 0 1-2.044.59 16.14 16.14 0 0 1-1.939.392c-2.02.307-3.916.385-5.606.236zm9.13 5.448c-.636.165-1.254.296-1.905.41-2.271.384-4.414.371-6.281.002l-.101-.518c1.866.37 3.992.414 6.263.031.6-.099 1.22-.23 1.855-.395a21.764 21.764 0 0 0 1.778-.563l.069.5c-.52.185-1.092.384-1.677.533zm8.493-4.672c-1.61 1.664-3.809 3.013-6.295 3.955l-.086-.468c3.293-1.267 5.909-3.235 7.367-5.403l.114.651c-.344.406-.705.844-1.1 1.265zM27.55 21.685c.302-.56.474-.989.524-1.613.04-.493 0-1.058-.093-1.489-.203.539-.548 1.148-.87 1.665l-.27-.821c.324-.603.686-1.19.84-1.797l-.934-3.967c-.18.335-.392.652-.606.969l-.149-.927c.409-.6.68-1.187.8-1.812.082-.474.126-.84-.014-1.303l2.807-.63.753-.2c.154-.046.275-.11.311-.177.106-.116.113-.346.084-.534-.06-.29-.291-.501-.549-.424-.033-.018-.427.073-.478.088 0 0-1.335.319-3.388.77a5.28 5.28 0 0 0-.721-.905c-.187-.618-.578-1.173-1.11-1.63l6.185-2.181.705-.269c.12-.064.26-.162.295-.23.072-.133.11-.285.03-.457-.077-.258-.36-.453-.618-.375-.033-.018-.411.124-.463.14C27.4 4.66 26.194 5.198 23.323 6.19c-1.094-.59-2.478-.988-4.082-1.196l-.01-.22c-.03-.189-.145-.294-.281-.28-.137.012-.193.197-.18.334l-.003.085c-2.169-.216-4.69-.017-7.275.622-.6.153-1.2.306-1.765.476l-.03-.103c-.03-.187-.145-.293-.282-.28-.136.013-.193.199-.18.335l.047.154c-3.313 1.111-5.997 2.819-7.546 4.66l.052-.015c-.029-.188-.145-.293-.281-.28-.136.013-.193.198-.18.335l.073.427C.48 12.475.12 13.79.391 14.97l.016.051a3.724 3.724 0 0 0-.02 1.887c.061.205.124.411.237.601.988 1.695 3.168 2.782 6.2 3.159l.1.732c-2.27-.27-3.971-.885-5.285-1.892l1.048 3.288c.99 1.61 2.687 2.949 5.083 3.545.03.14.176.707.21.882-2.11-.486-3.783-1.588-4.92-2.844l.093.308.045.317c.492 1.816 2.352 3.194 5.054 3.782.141.698.331.556.562.567.23.011.329-.219.269-.468 2.401.427 5.097.146 8.16-.582.652-.168 1.058-.3 1.642-.503.027.18.09.35.415.29.325-.059.352-.41.272-.518 3.554-1.24 6.207-3.025 7.542-5.11.03.102.16.194.264.163.158.031.373-.263.32-.478zm-2.026-7.367l.134.875c-.37.449-.73.815-1.235 1.276-1.71 1.497-3.86 2.745-6.42 3.657-.076-.247-.105-.585-.168-.79 3.537-1.207 6.135-3.006 7.689-5.018zm-24.32.745C.463 11.948 5.31 8.297 11.9 6.703c4.108-.986 7.803-.96 10.292-.055-2.647.991-4.814 1.645-6.18 2.107-2.003.679-5.382 1.945-5.412 1.955-.276.11-3.416 1.112-4.586 1.605a.295.295 0 0 0-.304-.077c-.16.025-.696.34-.607.787.048.245.765.332.906.234a.363.363 0 0 0 .247-.3c.375-.056 3.969-1.12 5.136-1.527l11.35-3.767c.036.024.89-.306.925-.282.773.522 1.278 1.177 1.483 1.947l.04.409c-7.034 1.615-19.61 4.481-19.661 4.497-.29.06-.37.141-1.603.429-.082-.088-.182-.141-.285-.11-.186.007-.729.357-.603.698.017.306.575.44.743.347a.31.31 0 0 0 .288-.242c.391-.075 4.068-.76 5.282-1.01a243.322 243.322 0 0 0 15.724-3.37c-.743 2.75-4.976 5.515-10.522 6.85-6.642 1.61-12.572.368-13.348-2.765zm6.49 6.43l-.117-.699c1.73.152 3.607.098 5.639-.234 1.386-.209 2.716-.596 3.915-1.012l.15.722c-1.335.48-2.623.752-3.947.988-2.066.315-3.91.386-5.64.234zm9.2 5.31a24.77 24.77 0 0 1-1.95.419c-2.179.248-4.088.457-6.087.168l-.157-.844c2.019.342 4.034.207 6.122-.107a21.654 21.654 0 0 0 1.899-.404c.65-.168 1.027-.345 1.61-.55l.143.796c-.533.189-.98.369-1.58.521zm8.688-4.78c-1.647 1.702-3.68 3.042-6.224 4.005-.06-.262-.121-.577-.166-.842 3.37-1.297 5.678-3.075 7.17-5.292l.277.982c-.352.415-.654.716-1.057 1.146z"/></svg><svg id="fretboard" viewBox="0 0 32 32" width="32" height="32"><path style="text-indent:0;text-align:start;line-height:normal;text-transform:none;block-progression:tb;marker:none;-inkscape-font-specification:Sans" d="M.02 5.48S.003 6.326.003 6.67v17.463l.002 1.202c1.294.021 2.589-.017 3.883.01l26.928.55c.335.006 1.192.013 1.192.013s-.004-.864-.004-1.17V5.975l-.003-1.192s-.87.028-1.185.036l-26.884.658zM3.94 6.826l26.751-.694v18.45l-26.75-.605z" font-weight="400" color="#000" overflow="visible" font-family="Sans"/><path style="text-indent:0;text-align:start;line-height:normal;text-transform:none;block-progression:tb;marker:none;-inkscape-font-specification:Sans" d="M12 6.098v18.308h1.344V6.098zM22.666 5.807v18.818h1.313V5.807z" font-weight="400" color="#000" overflow="visible" font-family="Sans"/><path style="text-indent:0;text-align:start;line-height:normal;text-transform:none;block-progression:tb;marker:none;-inkscape-font-specification:Sans" d="M31.005 9.835l-28.65.305v.695l28.65-.304zM2.452 20.15v.696l28.457.305v-.696z" font-weight="400" color="#000" overflow="visible" font-family="Sans"/><path d="M-37.469 7.344c-.631.02-1.187.503-1.187 1.156v15c0 .653.556 1.142 1.187 1.156l26.938.61a1.17 1.17 0 0 0 1.187-1.156V7.653c0-.653-.556-1.177-1.187-1.157zM-36 8.656l25.344-.847v16.145L-36 23.344z" style="text-indent:0;text-align:start;line-height:normal;text-transform:none;block-progression:tb;marker:none;-inkscape-font-specification:Sans" font-weight="400" color="#000" overflow="visible" font-family="Sans"/><path d="M-27.334 8.03v15.82M-18 8.03v15.82" stroke="#000" stroke-width="1.333"/><path d="M-21.174 16a1.333 1.333 0 1 1-2.666 0 1.333 1.333 0 1 1 2.666 0z"/><path d="M-36.788 10.835l26.894-.375M-36.788 21.447l26.894.375M-36.788 13.991l26.894-.216M-36.788 18.011l26.894.216" stroke="#000" stroke-width=".5"/><path d="M20.19 15.716a2.058 2.058 0 1 1-4.117 0 2.058 2.058 0 0 1 4.117 0z"/><path d="M31.005 15.238l-28.65-.005v.695l28.65.005z" style="text-indent:0;text-align:start;line-height:normal;text-transform:none;block-progression:tb;marker:none;-inkscape-font-specification:Sans" font-weight="400" color="#000" overflow="visible" font-family="Sans"/></svg><svg id="github" width="32" height="32"><path d="M15.999 1.315C7.685 1.315.944 8.056.944 16.372c0 6.652 4.314 12.295 10.296 14.287.754.137 1.028-.328 1.028-.727 0-.357-.013-1.304-.02-2.56-4.188.91-5.072-2.019-5.072-2.019-.685-1.738-1.672-2.201-1.672-2.201-1.367-.935.104-.916.104-.916 1.511.107 2.306 1.552 2.306 1.552 1.343 2.3 3.524 1.636 4.382 1.251.137-.973.525-1.637.956-2.013-3.343-.38-6.859-1.672-6.859-7.442 0-1.643.587-2.987 1.55-4.04-.155-.38-.671-1.91.147-3.984 0 0 1.265-.405 4.141 1.543 1.2-.333 2.49-.5 3.77-.506 1.278.01 2.566.173 3.769.506 2.874-1.948 4.136-1.543 4.136-1.543.822 2.073.305 3.604.15 3.984.965 1.053 1.548 2.397 1.548 4.04 0 5.785-3.52 7.057-6.875 7.43.54.465 1.022 1.384 1.022 2.788 0 2.013-.018 3.637-.018 4.13 0 .403.27.872 1.035.725 5.978-1.996 10.288-7.635 10.288-14.285 0-8.316-6.742-15.057-15.057-15.057" fill-rule="evenodd"/></svg><svg id="help" viewBox="0 0 32 32" width="32" height="32"><path d="M16 1.5C7.992 1.5 1.5 7.992 1.5 16S7.992 30.5 16 30.5 30.5 24.008 30.5 16 24.008 1.5 16 1.5zm-.406 5.673c1.81 0 3.232.308 4.531 1.282 1.16.881 1.813 2.126 1.813 3.843 0 1.021-.365 1.96-.875 2.657-.326.417-.994.991-1.875 1.687l-.97.625a2.701 2.701 0 0 0-.905 1.313c-.093.278-.157.88-.157 1.343 0 .093-.034.282-.312.282h-2.875c-.325 0-.344-.158-.344-.25.047-1.207.208-2.275.719-3.063.696-1.067 2.625-2.219 2.625-2.219.278-.232.502-.409.687-.687.325-.464.563-.99.563-1.5 0-.604-.13-1.192-.5-1.656-.464-.557-.979-.844-1.907-.844-.927 0-1.472.522-1.843 1.125s-.344 1.35-.344 2h-3.563c0-2.506.64-4.104 2.032-5.031.928-.65 2.108-.907 3.5-.907zm-.25 14.875c1.253.047 2.203.92 2.156 2.219-.047 1.3-1.028 2.14-2.281 2.094-1.207-.047-2.14-.889-2.094-2.188.046-1.299 1.012-2.171 2.219-2.125z"/></svg><svg id="horizontal" viewBox="0 0 32 32" width="32" height="32"><path style="text-indent:0;text-align:start;line-height:normal;text-transform:none;block-progression:tb;marker:none;-inkscape-font-specification:Sans" d="M21.378 18.375c-.346.038-.348.267-.344.52v2.465H3.814v2.832h17.22v2.356c-.007.412.519.668.937.39l6-3.88c.287-.198.287-.474 0-.672l-6-3.88a.911.911 0 0 0-.593-.13zM5.855 5.334C4.838 5.334 4 6.415 4 7.727v3.214c0 1.312.838 2.393 1.855 2.393h13.623c1.017 0 1.855-1.081 1.855-2.393V7.727c0-1.312-.838-2.393-1.855-2.393zM24.656 5.344c-1.096 0-2 1.063-2 2.375v3.218c0 1.312.904 2.407 2 2.407H28V9.833l-1.5-1.217L28 7.46V5.344zM5.855-14.666C4.838-14.666 4-13.585 4-12.273v3.214c0 1.312.838 2.393 1.855 2.393h13.623c1.017 0 1.855-1.081 1.855-2.393v-3.214c0-1.312-.838-2.393-1.855-2.393zM24.656-14.666c-1.096 0-2 1.081-2 2.393v3.214c0 1.312.904 2.393 2 2.393H28v-8h-3.344z" font-weight="400" color="#000" overflow="visible" font-family="Sans"/></svg><svg id="loop" viewBox="0 0 32 32" width="32" height="32"><path style="text-indent:0;text-align:start;line-height:normal;text-transform:none;block-progression:tb;marker:none;-inkscape-font-specification:Sans" d="M22.5 2.719c-.346.055-.348.384-.344.75V6.75H8.406c-4.115 0-7.5 3.385-7.5 7.5v4.531c0 .9.094 2.907.094 2.907l4.656-4.438v-3c0-1.646 1.104-2.875 2.75-2.875h13.75V14.5c-.007.594.52.964.938.563l6-5.594c.287-.286.287-.683 0-.969l-6-5.594a.697.697 0 0 0-.594-.187zm8.656 8.531L26.5 15.688v3c0 1.646-1.104 2.875-2.75 2.875H10v-3.125c.007-.595-.519-.964-.938-.563l-6 5.594c-.287.285-.287.683 0 .968l6 5.594c.161.154.38.222.594.188.346-.055.348-.384.344-.75v-3.282h13.75c4.115 0 7.5-3.384 7.5-7.5v-4.53c0-.901-.094-2.907-.094-2.907z" font-weight="400" color="#000" overflow="visible" font-family="Sans"/></svg><svg id="menu-dots" width="32" height="32"><g transform="matrix(0 -1.55556 1.55625 0 -2.675 -1602.341)"><rect width="4" height="4" x="-1042.362" y="10" ry="0"/><rect ry="0" y="10" x="-1035.362" height="4" width="4"/><rect ry="0" y="10" x="-1049.362" height="4" width="4"/></g></svg><svg id="minus" viewBox="0 0 32 32" width="32" height="32"><path d="M2.25 14.21v3.581h27.5v-3.582H2.25z"/></svg><svg id="options" viewBox="0 0 32 32" width="32" height="32"><path d="M.725 24.943q.1-.929.84-1.523l13.252-10.648q.498 1.793 1.68 3.26 1.184 1.468 2.83 2.34L6.054 29.033q-.72.58-1.65.478-.914-.099-1.528-.822l-1.656-2.096q-.6-.704-.496-1.65zm4.247-.675q-.05.456.248.826.297.37.754.418.457.049.827-.247.37-.296.419-.754.05-.457-.248-.825-.297-.368-.755-.419-.457-.05-.826.247-.37.298-.42.754zm10.693-14.74q.351-3.244 2.91-5.3 2.558-2.056 5.807-1.704 1.019.11 2.102.521 1.084.41 1.8 1.02.26.223.228.521-.032.299-.334.461l-5.466 2.406-.426 3.929 3.185 2.244 1.48-.7q1.386-.657 2.533-1.163 1.147-.505 1.305-.488.264.028.394.22t.102.455q-.074.683-.605 1.815-1.08 2.26-3.302 3.501-2.223 1.24-4.698.973-3.248-.352-5.307-2.908-2.06-2.557-1.707-5.801z"/></svg><svg id="pause" viewBox="0 0 32 32" width="32" height="32"><path d="M16 1C7.715 1 1 7.715 1 16s6.715 15 15 15 15-6.715 15-15S24.285 1 16 1zm0 2.813c6.731 0 12.188 5.456 12.188 12.187 0 6.731-5.457 12.188-12.188 12.188C9.269 28.188 3.812 22.73 3.812 16 3.813 9.269 9.27 3.812 16 3.812zM11.062 9c-.59 0-1.062.37-1.062.813v12.374c0 .444.472.813 1.063.813h1.874c.591 0 1.063-.37 1.063-.813V9.813C14 9.37 13.528 9 12.937 9h-1.874zm8 0c-.59 0-1.062.37-1.062.813v12.374c0 .444.472.813 1.063.813h1.875c.59 0 1.062-.37 1.062-.813V9.813C22 9.37 21.528 9 20.937 9h-1.875z"/><rect ry=".8" rx="1.067" y="9" x="-10" height="14" width="4"/></svg><svg id="pen" viewBox="0 0 32 32" width="32" height="32"><path d="M26.299 11.723l-16.12 16.188-6.09-6.089 16.189-16.12zm4.138-6.949c.803.803.737 2.14-.134 3.011l-2.819 2.82-6.089-6.09 2.82-2.818c.87-.87 2.208-.937 3.01-.134zM3.141 23.172l5.687 5.687L1 31z"/></svg><svg id="percussions" width="32" height="32"><path style="text-indent:0;text-align:start;line-height:normal;text-transform:none;block-progression:tb;marker:none;-inkscape-font-specification:Sans" d="M24.087.051c-1.307.11-2.564.708-3.61 1.638-1.397 1.241-2.438 3.063-2.875 5.215-.397 1.953-.295 4.028.434 5.717.552 1.276 1.5 2.341 2.775 2.941-.53 2.366-1.27 4.764-1.772 7.188-.2.989.349 1.992 1.337 2.173.989.18 1.905-.516 2.106-1.505v-.034c.389-2.387.783-4.889 1.17-7.32 1.388-.131 2.635-.812 3.644-1.772 1.363-1.298 2.343-3.123 2.741-5.082.437-2.152.179-4.233-.635-5.883a6.499 6.499 0 0 0-1.671-2.106C27.06.666 26.305.278 25.424.118A5.12 5.12 0 0 0 24.087.05zm.1 1.17c.336-.028.666.01 1.003.067.674.123 1.28.4 1.805.836a5.208 5.208 0 0 1 1.337 1.705c.437.885.646 1.983.669 3.142l-1.571 1.17-.903-1.136-.769-.97-1.003.77-1.103.768-.836-1.07-.702-.97-1.036.703-.869.602-.568-1.037-.301-.434c.483-1.117 1.154-2.078 1.939-2.775.887-.789 1.9-1.287 2.908-1.37zM7.037 8.977c-.869.015-1.733.217-2.506.668-1.546.904-2.457 2.562-2.708 4.413-.251 1.851.167 3.899 1.237 5.817.97 1.74 2.392 3.239 4.045 4.045 1.25.61 2.653.81 4.011.434 1.139 2.141 2.146 4.453 3.343 6.62.492.88 1.573 1.275 2.44.768.868-.507 1.094-1.626.602-2.507a.624.624 0 0 0 0-.067c-1.26-2.065-2.62-4.187-3.911-6.285.968-1.003 1.498-2.324 1.638-3.71.189-1.873-.297-3.905-1.27-5.65-1.07-1.918-2.62-3.323-4.313-4.045a6.341 6.341 0 0 0-2.607-.501zm14.476.067l.835 1.103.77 1.003 1.002-.769 1.103-.802.903 1.17.769.97 1.003-.77.4-.3c-.445 1.085-1.032 2.072-1.804 2.808-1.154 1.098-2.539 1.623-4.112 1.337-.255-.047-.508-.086-.736-.167-1.176-.422-1.996-1.325-2.507-2.508-.378-.875-.562-1.903-.568-2.975l.1.2.702 1.104 1.103-.736zM7.07 10.114a5.139 5.139 0 0 1 2.106.434c.908.387 1.802 1.074 2.574 1.94l-.468 1.938-1.404-.3-1.237-.235-.234 1.237-.334 1.337-1.337-.3-1.17-.268-.334 1.203-.234 1.037-1.137-.402-.501-.167c-.362-1.162-.476-2.336-.335-3.376.213-1.568.924-2.819 2.106-3.51a3.992 3.992 0 0 1 1.94-.568zm6.519 5.65c.369 1.113.542 2.247.435 3.309-.16 1.584-.827 2.869-2.207 3.677a4.551 4.551 0 0 1-.668.334c-1.168.446-2.386.33-3.544-.234-.857-.418-1.67-1.096-2.373-1.905l.2.067 1.27.434.368-1.304.335-1.203 1.37.3 1.204.268.267-1.237.334-1.337 1.404.301 1.237.234.268-1.237.1-.468z" font-weight="400" color="#000" overflow="visible" font-family="Sans"/></svg><svg id="piano" width="32" height="32"><path d="M1.01 27.925c-.403-.086-.817-.381-.928-.662C-.03 26.985-.026 7.68.085 7.402c.105-.263.592-.602.97-.675.411-.08 28.143-.08 28.555 0 .441.085.868.411.969.74.115.377.116 19.36.001 19.734-.112.365-.548.668-1.072.746-.27.04-4.259.055-14.203.052-11.81 0-14.01-.016-14.296-.076zm5.662-9.24c-.303-.01-.456 0-.703 0-.614-.014-.668-.512-.667-.721 0-3.334.008-6.728.008-10.096-1.495.01-2.439 0-3.934.01v18.93H6.7c-.011-2.47-.015-5.653-.028-8.122zm8.002-.013c-.251 0-.447-.01-.638-.01-.617-.114-.675-.48-.716-.928V7.871H9.353V17.92c.04.5-.255.743-.59.752-.264 0-.432.01-.76.01-.014 2.467.012 5.647 0 8.112h6.683c0-2.474-.012-5.655-.012-8.129zm7.996.001h-.646c-.695-.032-.677-.518-.707-.811-.01-3.378-.002-6.568-.012-9.978h-3.963v10c-.007.578-.334.758-.651.782-.217 0-.43.021-.696.021 0 2.474-.007 5.647-.007 8.121h6.685c0-2.773-.003-5.6-.003-8.13zm6.61-1.37V7.857c-1.48 0-2.457.012-3.937.021-.01 3.417.017 6.567.01 9.952.022.563-.276.826-.678.834-.211 0-.404.01-.68.01v8.128h5.284v-9.483z"/></svg><svg id="play" viewBox="0 0 32 32" width="32" height="32"><path d="M16 1C7.715 1 1 7.715 1 16s6.715 15 15 15 15-6.715 15-15S24.285 1 16 1zm0 2.813c6.731 0 12.188 5.456 12.188 12.187 0 6.731-5.457 12.188-12.188 12.188C9.269 28.188 3.812 22.73 3.812 16 3.813 9.269 9.27 3.812 16 3.812zM13.062 5.78c-.59.09-1.069.654-1.062 1.25V24.97c-.012.968 1.38 1.59 2.094.937l9.75-9c.49-.465.49-1.347 0-1.812l-9.75-9a1.27 1.27 0 0 0-1.031-.313z"/></svg><svg id="playlist-edit" viewBox="0 0 32 32" width="32" height="32"><path d="M2.666 28.001v2.666h26.668v-2.666H2.666zM2.666 21.334V24h26.668v-2.666H2.666zM16.822 14.668l-1.752 2.666h14.264v-2.666H16.822zM20.661 8.001l-1.733 2.666h10.406V8.001h-8.673zM10.17 4.695l-4.565 9.142 4.627 2.23 4.514-9.166zm2.793-3.026c-.61-.294-1.3-.104-1.554.42l-.826 1.699 4.626 2.231.827-1.699c.255-.524-.023-1.18-.633-1.474zM9.782 17.098L5.26 14.914l.633 4.245z"/></svg><svg id="playlist-mode" viewBox="0 0 32 32" width="32" height="32"><path d="M6.983 6.225v8.077c0 1.124.567.716.927.422l4.684-4.053a.543.543 0 0 0 0-.816L7.91 5.803c-.48-.37-.92-.433-.927.422zM2.666 28.001v2.666h26.668v-2.666H2.666z"/><path style="text-indent:0;text-align:start;line-height:normal;text-transform:none;block-progression:tb;marker:none;-inkscape-font-specification:Sans" d="M9.005 2.358C4.595 2.358 1 5.952 1 10.363c0 4.41 3.594 8.004 8.005 8.004 4.41 0 8.004-3.594 8.004-8.004s-3.594-8.005-8.004-8.005zm0 1.342a6.65 6.65 0 0 1 6.662 6.663 6.65 6.65 0 0 1-6.662 6.662 6.65 6.65 0 0 1-6.663-6.662A6.65 6.65 0 0 1 9.005 3.7z" font-weight="400" color="#000" overflow="visible" font-family="Sans"/><path d="M2.666 21.334V24h26.668v-2.666H2.666zM18.908 14.668l-1.652 2.666h12.078v-2.666H18.908zM20 8.001v2.666h9.334V8.001H20z"/></svg><svg id="plus" viewBox="0 0 32 32" width="32" height="32"><path d="M14.21 2.25v11.96H2.25v3.58h11.96v11.96h3.58V17.79h11.96v-3.58H17.79V2.25z"/></svg><svg id="save" viewBox="0 0 32 32" width="32" height="32"><path style="text-indent:0;text-align:start;line-height:normal;text-transform:none;block-progression:tb;marker:none;-inkscape-font-specification:Sans" d="M5.007 18.667c-2.008 0-3.674 1.743-3.674 3.844v4.344c0 2.1 1.666 3.812 3.674 3.812h21.985c2.008 0 3.674-1.712 3.674-3.813v-4.343c0-2.1-1.666-3.844-3.674-3.844H5.007zm0 2.688h21.985c.64 0 1.105.486 1.105 1.156v4.344c0 .67-.465 1.156-1.105 1.156H5.007c-.64 0-1.105-.487-1.105-1.156V22.51c0-.67.465-1.156 1.105-1.156z" font-weight="400" color="#000" overflow="visible" font-family="Sans"/><path d="M24.293 7.995h-4.254V1.329H11.96v6.666H7.707L16 16.209M25.041 24.507a1.845 1.845 0 1 1-3.69 0 1.845 1.845 0 0 1 3.69 0z"/></svg><svg id="screen-playback" viewBox="0 0 32 32" width="32" height="32"><path style="text-indent:0;text-align:start;line-height:normal;text-transform:none;block-progression:tb;marker:none;-inkscape-font-specification:Sans" d="M3.688 5.281C2.407 5.283-.002 7.158 0 8.438v12.675C0 22.393 2.407 24 3.688 24h24.624c1.281 0 3.692-1.606 3.688-2.887v-2.445h-2.688v2.007a.985.985 0 0 1-1 1H3.688a.985.985 0 0 1-1-1V9a.985.985 0 0 1 1-1h13.651V5.312l-7.776-.03z" font-weight="400" color="#000" overflow="visible" font-family="Sans"/><path d="M14 24l-.656 2.67h-3.226c-.739 0-1.344.447-1.344 1v1.661h14.451v-1.66c0-.554-.605-1-1.344-1h-3.225L18 24zM30.638 5.344h-.76V3.82c0-2.1-1.705-3.806-3.804-3.806a3.806 3.806 0 0 0-3.803 3.806v1.523h-.761c-.837 0-1.521.685-1.521 1.522v7.612c0 .837.684 1.522 1.52 1.522h9.129c.837 0 1.521-.685 1.521-1.522V6.866c0-.837-.684-1.522-1.521-1.522zm-4.564 6.85a1.526 1.526 0 0 1-1.521-1.522c0-.837.684-1.523 1.52-1.523.838 0 1.522.686 1.522 1.523 0 .837-.684 1.522-1.521 1.522zm2.358-6.85h-4.716V3.82a2.36 2.36 0 0 1 2.358-2.36 2.36 2.36 0 0 1 2.358 2.36v1.523z"/></svg><svg id="section-mode" viewBox="0 0 32 32" width="32" height="32"><path d="M2.656 28v2.656h26.688V28h-6.285l-3.636 2.48-2.33.004L15.881 28zM6.983 6.224v8.077c0 1.124.567.717.927.423l4.684-4.053a.543.543 0 0 0 0-.816L7.91 5.802c-.48-.368-.92-.433-.927.422z"/><path style="text-indent:0;text-align:start;line-height:normal;text-transform:none;block-progression:tb;marker:none;-inkscape-font-specification:Sans" d="M9.005 2.358C4.595 2.358 1 5.952 1 10.362s3.594 8.005 8.005 8.005c4.41 0 8.004-3.594 8.004-8.005 0-4.41-3.594-8.004-8.004-8.004zm0 1.342a6.65 6.65 0 0 1 6.662 6.662 6.65 6.65 0 0 1-6.662 6.663 6.65 6.65 0 0 1-6.663-6.663A6.65 6.65 0 0 1 9.005 3.7z" font-weight="400" color="#000" overflow="visible" font-family="Sans"/><path d="M22.936 12.677l-4.565 9.142 4.627 2.231 4.513-9.167zm2.793-3.025c-.61-.295-1.3-.105-1.554.42l-.826 1.698 4.626 2.232.826-1.7c.255-.523-.022-1.18-.632-1.474zM22.548 25.08l-4.522-2.184.633 4.246z"/></svg><svg id="selection-playback" viewBox="0 0 32 32" width="32" height="32"><path d="M18-34.666h-4v21.332h4v-21.332zM-26.739 10.688a.305.305 0 0 0-.227.1l-.704.737a.322.322 0 0 0 0 .464l2.124 3.73-2.168 3.63a.322.322 0 0 0 0 .464l.748.836a.31.31 0 0 0 .227.101.31.31 0 0 0 .228-.101l4.603-4.698a.322.322 0 0 0 0-.464l-4.603-4.697a.31.31 0 0 0-.228-.101z"/><path style="text-indent:0;text-align:start;line-height:normal;text-transform:none;block-progression:tb;marker:none;-inkscape-font-specification:Sans" d="M.03-29.906v2.656h7.68v-2.656z" font-weight="400" color="#000" overflow="visible" font-family="Sans"/><path d="M59.188 10.688c.085 0 .162.032.227.1l.704.737a.322.322 0 0 1 0 .464l-2.124 3.73 2.168 3.63a.322.322 0 0 1 0 .464l-.748.836a.31.31 0 0 1-.227.101.31.31 0 0 1-.228-.101l-4.603-4.698a.322.322 0 0 1 0-.464l4.603-4.697a.31.31 0 0 1 .228-.101z"/><path d="M31.982-21.406v2.656h-7.68v-2.656z" style="text-indent:0;text-align:start;line-height:normal;text-transform:none;block-progression:tb;marker:none;-inkscape-font-specification:Sans" font-weight="400" color="#000" overflow="visible" font-family="Sans"/><path d="M4.308-33.26v9.944c0 1.383.698.882 1.14.52l5.768-4.99a.668.668 0 0 0 0-1.005l-5.768-4.99c-.59-.454-1.131-.533-1.14.52zM14.666 6.667H12v18.666h2.666V6.667z"/><path d="M0 14.678v2.656h7.68v-2.656zM31.982 14.678v2.656h-7.68v-2.656z" style="text-indent:0;text-align:start;line-height:normal;text-transform:none;block-progression:tb;marker:none;-inkscape-font-specification:Sans" font-weight="400" color="#000" overflow="visible" font-family="Sans"/><path d="M19.999 6.667h-2.666v18.666h2.666V6.667zM4.308 11.551v8.829c0 1.228.62.783 1.012.461l5.12-4.43a.593.593 0 0 0 0-.891l-5.12-4.43c-.524-.403-1.004-.473-1.012.461zM27.657 11.551v8.829c0 1.228-.62.783-1.012.461l-5.12-4.43a.593.593 0 0 1 0-.891l5.12-4.43c.524-.403 1.004-.473 1.012.461zM27.443-24.76v9.944c0 1.383-.698.882-1.14.52l-5.768-4.99a.668.668 0 0 1 0-1.005l5.768-4.99c.59-.454 1.131-.533 1.14.52zM13.332 46.667h-2.666v18.666h2.666V46.667zM21.332 46.667h-2.666v18.666h2.666V46.667zM17.333 46.667h-2.666v18.666h2.666V46.667z"/></svg><svg id="slide-animation" viewBox="0 0 32 32" width="32" height="32"><path style="text-indent:0;text-align:start;line-height:normal;text-transform:none;block-progression:tb;marker:none;-inkscape-font-specification:Sans" d="M22.256 18.34c-.36.039-.362.267-.357.521v2.464H4v2.694h17.899v2.356c-.008.412.539.669.974.39l6.236-3.81c.299-.199.299-.475 0-.673l-6.236-3.811a.977.977 0 0 0-.617-.13z" font-weight="400" color="#000" overflow="visible" font-family="Sans"/><path d="M5.019 6.668h4.628c.565 0 1.019.516 1.019 1.157v4.352c0 .641-.454 1.157-1.019 1.157H5.02c-.565 0-1.019-.516-1.019-1.157V7.825c0-.641.454-1.157 1.019-1.157zM14.352 6.668h4.628c.565 0 1.019.516 1.019 1.157v4.352c0 .641-.454 1.157-1.019 1.157h-4.628c-.565 0-1.019-.516-1.019-1.157V7.825c0-.641.454-1.157 1.019-1.157zM23.685 6.668h4.628c.565 0 1.019.516 1.019 1.157v4.352c0 .641-.454 1.157-1.019 1.157h-4.628c-.565 0-1.019-.516-1.019-1.157V7.825c0-.641.454-1.157 1.019-1.157z"/><rect ry="1.157" rx="1.019" y="6.668" x="-36" height="6.666" width="6.666"/><rect width="6.666" height="6.666" x="-26.667" y="6.668" rx="1.019" ry="1.157"/><rect ry="1.157" rx="1.019" y="6.668" x="-17.334" height="6.666" width="6.666"/><path d="M-27.244 21.236h16.984v2.666h-16.984z"/></svg><svg id="tip" width="32" height="32"><path d="M15.378 29.816c-.597-.223-1.056-.605-1.31-1.09-.07-.133-.13-.15-.536-.15-.394 0-.486-.022-.66-.17a.75.75 0 0 1-.245-.398c-.04-.212-.06-.229-.292-.229a.729.729 0 0 1-.433-.143c-.337-.266-.366-.439-.366-2.214 0-1.854.031-2.015.428-2.204.13-.062.236-.15.236-.195 0-.198-.441-1.313-.772-1.952-.488-.94-1.1-1.78-1.995-2.74-1.494-1.603-2.249-2.939-2.653-4.699-.725-3.158.351-6.467 2.906-8.933 1.336-1.29 2.795-2.076 4.589-2.47.425-.093.833-.12 1.81-.118 1.142 0 1.33.019 1.963.177 2.266.57 4.096 1.787 5.492 3.652 2.372 3.169 2.641 6.94.733 10.282-.343.603-.899 1.306-1.9 2.407-1.067 1.174-1.87 2.509-2.328 3.87l-.198.59.264.118c.43.192.458.33.458 2.211 0 1.348-.018 1.675-.108 1.898-.123.307-.365.463-.719.463-.19 0-.235.026-.235.13 0 .222-.151.474-.342.573-.104.053-.371.095-.616.095-.381 0-.442.018-.51.15-.184.354-.542.704-.935.913-.358.191-.5.228-.952.246-.336.013-.62-.011-.774-.07zm3.354-7.602c.624-1.9 1.563-3.452 3.055-5.05 1.168-1.25 1.87-2.587 2.218-4.225.138-.648.154-2.14.028-2.727-.615-2.881-2.813-5.389-5.536-6.315-2.246-.764-4.646-.433-6.68.922-1.784 1.187-3.135 3.095-3.654 5.16-.154.612-.175.823-.17 1.727.004.878.03 1.123.173 1.665.428 1.62.968 2.51 2.614 4.313.73.8 1.421 1.798 1.882 2.717.355.71.763 1.76.88 2.265l.076.331h4.859l.255-.778zm-3.048-1.24l-.163-.163v-3.82l-1.46-1.467c-1.303-1.308-1.462-1.49-1.462-1.682 0-.289.253-.542.541-.542.19 0 .364.148 1.53 1.31l1.316 1.31 1.316-1.31c1.167-1.162 1.34-1.31 1.53-1.31.289 0 .542.253.542.541 0 .192-.154.37-1.395 1.616l-1.395 1.4v3.954l-.163.164a.537.537 0 0 1-.368.163.534.534 0 0 1-.369-.163zM1.966 16.963c-.184-.149-.211-.551-.049-.713.15-.15 2.75-1.101 3.11-1.138.246-.026.322 0 .429.112.178.197.172.583-.011.732-.191.154-2.899 1.131-3.136 1.131a.64.64 0 0 1-.343-.124zm26.084-.4c-1.42-.522-1.636-.65-1.636-.963 0-.194.177-.434.374-.509.13-.049.461.048 1.702.5.856.31 1.578.61 1.625.675.13.176.104.536-.048.688-.215.216-.533.154-2.017-.391zM1.072 11.144a.535.535 0 0 1-.163-.368c0-.13.06-.265.163-.368l.163-.163h3.333l.163.163a.535.535 0 0 1 .163.368c0 .13-.06.266-.163.368l-.163.163H1.235l-.163-.163zm26.236 0a.535.535 0 0 1-.163-.368c0-.13.06-.265.163-.368l.163-.163h1.626c1.61 0 1.629 0 1.808.155.248.214.248.538 0 .752-.18.154-.198.155-1.808.155h-1.626l-.163-.163zM3.443 5.933c-.78-.287-1.465-.569-1.524-.627-.145-.145-.136-.535.017-.704a.466.466 0 0 1 .343-.136c.259 0 2.961.966 3.166 1.131.2.163.193.57-.013.738a.658.658 0 0 1-.362.121c-.115 0-.847-.237-1.627-.523zm23.109.35a.655.655 0 0 1-.138-.328c0-.316.251-.461 1.694-.98 1.39-.501 1.49-.532 1.71-.517.312.021.502.55.298.829-.107.146-2.911 1.172-3.205 1.172a.407.407 0 0 1-.36-.175z"/></svg><svg id="vertical" viewBox="0 0 32 32" width="32" height="32"><path style="text-indent:0;text-align:start;line-height:normal;text-transform:none;block-progression:tb;marker:none;-inkscape-font-specification:Sans" d="M30.851 21.378c-.038-.346-.266-.348-.52-.344h-2.464V3.814h-2.832v17.22h-2.356c-.412-.007-.669.519-.39.937l3.88 6c.198.287.474.287.672 0l3.88-6a.911.911 0 0 0 .13-.593zM3.344 6.656c-1.096 0-2 .904-2 2v2.688c0 1.096.904 2 2 2H18c1.096 0 2-.904 2-2V8.656c0-1.096-.904-2-2-2zM3.344 18.656c-1.096 0-2 .904-2 2v2.688c0 1.096.904 2 2 2H18c1.096 0 2-.904 2-2v-2.688c0-1.096-.904-2-2-2z" font-weight="400" color="#000" overflow="visible" font-family="Sans"/><rect width="17.333" height="5.333" x="-38.001" y="7.334" rx="1.333" ry="1.333" stroke="#000" stroke-width="1.333"/><rect ry="1.333" rx="1.333" y="19.334" x="-38.001" height="5.333" width="17.333" stroke="#000" stroke-width="1.333"/></svg><svg id="volume-medium" viewBox="0 0 32 32" width="32" height="32"><g><path d="M1 10.804v10.384h8.461l7.683 7.115V3.697L9.46 10.804zM21.711 24.076a13.586 13.586 0 0 0 2.661-8.08c0-3.034-.998-5.825-2.66-8.08l-1.656 1.241a11.482 11.482 0 0 1 2.256 6.839c0 2.563-.844 4.924-2.256 6.839l1.655 1.241zM27.106 27.808A19.845 19.845 0 0 0 31 15.996c0-4.43-1.46-8.51-3.894-11.812l-1.655 1.241a17.723 17.723 0 0 1 3.488 10.57 17.74 17.74 0 0 1-3.488 10.572l1.655 1.24z"/></g></svg><svg id="volume-mute" viewBox="0 0 32 32" width="32" height="32"><path d="M18.031 1l-9.125 9.531H1.625V21.47h7.281L18.031 31V1zm3.875 9.969l-1.593 1.594L23.75 16l-3.438 3.438 1.594 1.593 3.438-3.437 3.437 3.437 1.594-1.593L26.937 16l3.438-3.438-1.594-1.593-3.437 3.437-3.438-3.437z"/></svg><svg id="x" viewBox="0 0 32 32" width="32" height="32"><path d="M5.01 7.544L13.468 16l-8.456 8.456 2.533 2.533L16 18.533l8.456 8.456 2.533-2.533L18.533 16l8.456-8.456-2.533-2.533L16 13.467 7.544 5.011z"/></svg><svg id="youtube" viewBox="0 0 32 32" width="32" height="32"><path d="M6.448.4H8.32l1.284 4.813L10.794.4h1.891l-2.164 7.157v4.884H8.66V7.557L6.447.4zm8.572 3.085c-1.455 0-2.42.962-2.42 2.386v4.353c0 1.565.818 2.38 2.42 2.38 1.328 0 2.374-.887 2.374-2.38V5.871c0-1.39-1.036-2.386-2.374-2.386zm.69 6.665c0 .484-.247.84-.691.84-.457 0-.72-.373-.72-.84V6.017c0-.486.223-.846.687-.846.507 0 .724.35.724.846v4.133zm6.148-6.59V10.3c-.202.252-.65.666-.971.666-.353 0-.44-.242-.44-.598v-6.81h-1.65v7.423c0 .878.267 1.586 1.152 1.586.5 0 1.194-.26 1.909-1.109v.98h1.65V3.56h-1.65zm2.864 18.015c-.583 0-.704.41-.704.991v.857h1.39v-.858c.001-.572-.12-.99-.686-.99zm-6.114.052c-.11.055-.217.141-.325.257v5.271c.129.138.252.237.373.298.256.13.63.14.805-.087.09-.12.136-.313.136-.584v-4.366c0-.286-.056-.502-.168-.65-.19-.251-.546-.279-.821-.14zm6.275-6.754c-3.385-.23-14.386-.23-17.766 0-3.658.25-4.09 2.46-4.117 8.277.027 5.807.455 8.028 4.117 8.277 3.38.23 14.38.23 17.766 0 3.658-.25 4.09-2.46 4.117-8.277-.027-5.807-.455-8.027-4.117-8.277zM8.862 28.765H7.09v-9.802H5.257v-1.664h5.436v1.664H8.86v9.802zm6.3 0h-1.573v-.934c-.29.345-.592.608-.905.787-.848.486-2.011.474-2.011-1.242v-7.069h1.571v6.484c0 .341.082.57.419.57.307 0 .733-.394.924-.633v-6.42h1.573v8.457zm6.054-1.753c0 1.047-.392 1.86-1.438 1.86-.576 0-1.056-.21-1.494-.757v.65h-1.587V17.299h1.587v3.692c.355-.433.837-.79 1.399-.79 1.152 0 1.534.973 1.534 2.12v4.691zm5.812-2.277H24.02v1.596c0 .635.054 1.183.686 1.183.664 0 .703-.447.703-1.183v-.587h1.619v.635c0 1.63-.7 2.617-2.357 2.617-1.501 0-2.27-1.094-2.27-2.617v-3.797c0-1.468.97-2.488 2.388-2.488 1.51 0 2.238.96 2.238 2.488v2.153z"/></svg></defs></svg>