<?xml version="1.0" encoding="UTF-8" standalone="no"?>
<!-- Generated by IcoMoon.io -->

<svg
   xmlns:dc="http://purl.org/dc/elements/1.1/"
   xmlns:cc="http://creativecommons.org/ns#"
   xmlns:rdf="http://www.w3.org/1999/02/22-rdf-syntax-ns#"
   xmlns:svg="http://www.w3.org/2000/svg"
   xmlns="http://www.w3.org/2000/svg"
   xmlns:sodipodi="http://sodipodi.sourceforge.net/DTD/sodipodi-0.dtd"
   xmlns:inkscape="http://www.inkscape.org/namespaces/inkscape"
   version="1.1"
   width="32"
   height="32"
   viewBox="0 0 32 32"
   id="svg2"
   inkscape:version="0.48.4 r9939"
   sodipodi:docname="audio-signal2.svg">
  <metadata
     id="metadata10">
    <rdf:RDF>
      <cc:Work
         rdf:about="">
        <dc:format>image/svg+xml</dc:format>
        <dc:type
           rdf:resource="http://purl.org/dc/dcmitype/StillImage" />
        <dc:title></dc:title>
      </cc:Work>
    </rdf:RDF>
  </metadata>
  <defs
     id="defs8" />
  <sodipodi:namedview
     pagecolor="#ffffff"
     bordercolor="#666666"
     borderopacity="1"
     objecttolerance="10"
     gridtolerance="10"
     guidetolerance="10"
     inkscape:pageopacity="0"
     inkscape:pageshadow="2"
     inkscape:window-width="1778"
     inkscape:window-height="854"
     id="namedview6"
     showgrid="false"
     inkscape:zoom="11.313709"
     inkscape:cx="22.547191"
     inkscape:cy="12.176027"
     inkscape:window-x="36"
     inkscape:window-y="72"
     inkscape:window-maximized="0"
     inkscape:current-layer="svg2" />
  <path
     style="font-size:medium;font-style:normal;font-variant:normal;font-weight:normal;font-stretch:normal;text-indent:0;text-align:start;text-decoration:none;line-height:normal;letter-spacing:normal;word-spacing:normal;text-transform:none;direction:ltr;block-progression:tb;writing-mode:lr-tb;text-anchor:start;baseline-shift:baseline;color:#000000;fill:#000000;fill-opacity:1;stroke:none;stroke-width:2;marker:none;visibility:visible;display:inline;overflow:visible;enable-background:accumulate;font-family:Sans;-inkscape-font-specification:Sans"
     d="m 16.46875,4.625 a 1.0001,1.0001 0 0 0 -0.875,0.875 l -2,15.40625 L 11.25,11.25 A 1.0001,1.0001 0 0 0 9.3125,11.1875 l -1.875,6.125 -1.59375,-3.21875 a 1.0001,1.0001 0 0 0 -1.625,-0.25 L 2.15625,16.125 0,16.125 l 0,2 2.59375,0 A 1.0001,1.0001 0 0 0 3.3125,17.8125 L 4.6875,16.28125 6.75,20.5 A 1.0001,1.0001 0 0 0 8.625,20.34375 L 10.15625,15.28125 12.9375,26.625 A 1.0001,1.0001 0 0 0 14.90625,26.5 l 1.9375,-15 2.53125,11.65625 a 1.0001,1.0001 0 0 0 1.96875,0.03125 L 23.40625,15.34375 25.5,20.9375 a 1.0001,1.0001 0 0 0 1.78125,0.1875 l 2.03125,-3 2.6875,0 0,-2 -3.25,0 a 1.0001,1.0001 0 0 0 -0.8125,0.4375 l -1.25,1.84375 -2.53125,-6.75 A 1.0001,1.0001 0 0 0 22.25,11.75 l -1.78125,6.90625 -2.90625,-13.25 A 1.0001,1.0001 0 0 0 16.46875,4.625 z"
     id="path2983"
     inkscape:connector-curvature="0" />
  <path
     sodipodi:nodetypes="cccccccccccc"
     inkscape:connector-curvature="0"
     id="path3777"
     d="m 42.77996,16.423766 2.583324,0 2.363742,-2.607456 2.709424,5.527593 2.608196,-8.578471 3.642018,14.91008 2.690711,-20.7652378 3.76493,17.3143688 2.866729,-10.914943 3.208053,8.562332 2.325145,-3.448266 3.237728,0"
     style="fill:none;stroke:#000000;stroke-width:2;stroke-linecap:butt;stroke-linejoin:round;stroke-miterlimit:4;stroke-opacity:1;stroke-dasharray:none" />
</svg>
