<?xml version="1.0" encoding="UTF-8" standalone="no"?>
<!-- Generated by IcoMoon.io -->

<svg
   xmlns:dc="http://purl.org/dc/elements/1.1/"
   xmlns:cc="http://creativecommons.org/ns#"
   xmlns:rdf="http://www.w3.org/1999/02/22-rdf-syntax-ns#"
   xmlns:svg="http://www.w3.org/2000/svg"
   xmlns="http://www.w3.org/2000/svg"
   xmlns:sodipodi="http://sodipodi.sourceforge.net/DTD/sodipodi-0.dtd"
   xmlns:inkscape="http://www.inkscape.org/namespaces/inkscape"
   version="1.1"
   width="32"
   height="32"
   viewBox="0 0 32 32"
   id="svg2"
   inkscape:version="0.48.4 r9939"
   sodipodi:docname="audio-file.svg">
  <metadata
     id="metadata12">
    <rdf:RDF>
      <cc:Work
         rdf:about="">
        <dc:format>image/svg+xml</dc:format>
        <dc:type
           rdf:resource="http://purl.org/dc/dcmitype/StillImage" />
        <dc:title />
      </cc:Work>
    </rdf:RDF>
  </metadata>
  <defs
     id="defs10" />
  <sodipodi:namedview
     pagecolor="#ffffff"
     bordercolor="#666666"
     borderopacity="1"
     objecttolerance="10"
     gridtolerance="10"
     guidetolerance="10"
     inkscape:pageopacity="0"
     inkscape:pageshadow="2"
     inkscape:window-width="1339"
     inkscape:window-height="793"
     id="namedview8"
     showgrid="false"
     showguides="true"
     inkscape:guide-bbox="true"
     inkscape:zoom="8"
     inkscape:cx="14.090063"
     inkscape:cy="16.863425"
     inkscape:window-x="524"
     inkscape:window-y="230"
     inkscape:window-maximized="0"
     inkscape:current-layer="svg2" />
  <path
     style="fill:#444444"
     d="m 9.5518671,15.586813 0,9.80632 c 4.78e-4,1.364598 0.7831649,0.869788 1.2799459,0.512526 l 6.471884,-4.920244 c 0.340642,-0.254506 0.340642,-0.736377 0,-0.990885 L 10.831813,15.074287 C 10.168764,14.626643 9.5620531,14.548499 9.5518671,15.586813 z"
     id="path2994"
     inkscape:connector-curvature="0"
     sodipodi:nodetypes="ccccccc" />
  <path
     style="font-size:medium;font-style:normal;font-variant:normal;font-weight:normal;font-stretch:normal;text-indent:0;text-align:start;text-decoration:none;line-height:normal;letter-spacing:normal;word-spacing:normal;text-transform:none;direction:ltr;block-progression:tb;writing-mode:lr-tb;text-anchor:start;baseline-shift:baseline;color:#000000;fill:#165193;fill-opacity:1;stroke:none;stroke-width:1.33299994;marker:none;visibility:visible;display:inline;overflow:visible;enable-background:accumulate;font-family:Sans;-inkscape-font-specification:Sans"
     d="M 6.65625,1.34375 C 5.1905376,1.34375 4,2.5342876 4,4 l 0,24 c 0,1.465712 1.1905376,2.65625 2.65625,2.65625 l 18.6875,0 C 26.809462,30.65625 28,29.465712 28,28 L 28,9.28125 C 28.001361,9.1086623 27.932512,8.9365386 27.8125,8.8125 L 20.53125,1.53125 C 20.407211,1.4112384 20.235088,1.3423889 20.0625,1.34375 z m 0,1.3125 13.09375,0 6.9375,6.90625 0,18.4375 c 0,0.750288 -0.593462,1.34375 -1.34375,1.34375 l -18.6875,0 C 5.9059624,29.34375 5.3125,28.750288 5.3125,28 l 0,-24 c 0,-0.7502876 0.5934624,-1.34375 1.34375,-1.34375 z"
     id="rect2987"
     inkscape:connector-curvature="0"
     sodipodi:nodetypes="ssssssccccssccssssss" />
  <path
     style="fill:#000000;fill-opacity:1;stroke:none"
     d="m 27.390476,9.3334087 -6.780952,0 C 20.271848,9.3334087 20,9.0615611 20,8.7238849 l 0,-6.7809524 z"
     id="rect3757"
     inkscape:connector-curvature="0"
     sodipodi:nodetypes="csscc" />
</svg>
