<?xml version="1.0" encoding="UTF-8" standalone="no"?>
<!-- Generated by IcoMoon.io -->

<svg
   xmlns:dc="http://purl.org/dc/elements/1.1/"
   xmlns:cc="http://creativecommons.org/ns#"
   xmlns:rdf="http://www.w3.org/1999/02/22-rdf-syntax-ns#"
   xmlns:svg="http://www.w3.org/2000/svg"
   xmlns="http://www.w3.org/2000/svg"
   xmlns:sodipodi="http://sodipodi.sourceforge.net/DTD/sodipodi-0.dtd"
   xmlns:inkscape="http://www.inkscape.org/namespaces/inkscape"
   version="1.1"
   width="32"
   height="32"
   viewBox="0 0 32 32"
   id="svg2"
   inkscape:version="0.48.4 r9939"
   sodipodi:docname="audio-file2.svg">
  <metadata
     id="metadata12">
    <rdf:RDF>
      <cc:Work
         rdf:about="">
        <dc:format>image/svg+xml</dc:format>
        <dc:type
           rdf:resource="http://purl.org/dc/dcmitype/StillImage" />
        <dc:title />
      </cc:Work>
    </rdf:RDF>
  </metadata>
  <defs
     id="defs10" />
  <sodipodi:namedview
     pagecolor="#ffffff"
     bordercolor="#666666"
     borderopacity="1"
     objecttolerance="10"
     gridtolerance="10"
     guidetolerance="10"
     inkscape:pageopacity="0"
     inkscape:pageshadow="2"
     inkscape:window-width="1339"
     inkscape:window-height="793"
     id="namedview8"
     showgrid="false"
     showguides="true"
     inkscape:guide-bbox="true"
     inkscape:zoom="11.313708"
     inkscape:cx="13.091062"
     inkscape:cy="5.0523593"
     inkscape:window-x="524"
     inkscape:window-y="230"
     inkscape:window-maximized="0"
     inkscape:current-layer="svg2" />
  <path
     style="font-size:medium;font-style:normal;font-variant:normal;font-weight:normal;font-stretch:normal;text-indent:0;text-align:start;text-decoration:none;line-height:normal;letter-spacing:normal;word-spacing:normal;text-transform:none;direction:ltr;block-progression:tb;writing-mode:lr-tb;text-anchor:start;baseline-shift:baseline;color:#000000;fill:#444444;fill-opacity:1;stroke:none;stroke-width:1.33299994000000011;marker:none;visibility:visible;display:inline;overflow:visible;enable-background:accumulate;font-family:Sans;-inkscape-font-specification:Sans"
     d="M 6.65625,1.34375 C 5.1905376,1.34375 4,2.5342876 4,4 l 0,24 c 0,1.465712 1.1905376,2.65625 2.65625,2.65625 l 18.6875,0 C 26.809462,30.65625 28,29.465712 28,28 L 28,9.28125 C 28.001361,9.1086623 27.932512,8.9365386 27.8125,8.8125 L 20.53125,1.53125 C 20.407211,1.4112384 20.235088,1.3423889 20.0625,1.34375 z m 0,1.3125 13.09375,0 6.9375,6.90625 0,18.4375 c 0,0.750288 -0.593462,1.34375 -1.34375,1.34375 l -18.6875,0 C 5.9059624,29.34375 5.3125,28.750288 5.3125,28 l 0,-24 c 0,-0.7502876 0.5934624,-1.34375 1.34375,-1.34375 z"
     id="rect2987"
     inkscape:connector-curvature="0"
     sodipodi:nodetypes="ssssssccccssccssssss" />
  <path
     style="fill:#444444;fill-opacity:1;stroke:none"
     d="m 27.390476,9.3334087 -6.780952,0 C 20.271848,9.3334087 20,9.0615611 20,8.7238849 l 0,-6.7809524 z"
     id="rect3757"
     inkscape:connector-curvature="0"
     sodipodi:nodetypes="csscc" />
  <g
     id="g3"
     transform="matrix(0.0433603,0,0,0.0433603,4.9214187,10.322006)"
     style="fill:#444444;fill-opacity:1">
    <polygon
       points="71,192 71,320 175.3,320 270,407.7 270,104.4 175.3,192 "
       id="polygon5"
       style="fill:#444444;fill-opacity:1" />
    <path
       d="m 326.3,355.6 c 20.5,-27.8 32.8,-62.3 32.8,-99.6 0,-37.4 -12.3,-71.8 -32.8,-99.6 l -20.4,15.3 c 17.4,23.6 27.8,52.7 27.8,84.3 0,31.6 -10.4,60.7 -27.8,84.3 l 20.4,15.3 z"
       id="path7"
       inkscape:connector-curvature="0"
       style="fill:#444444;fill-opacity:1" />
    <path
       d="m 392.8,401.6 c 30,-40.7 48,-91 48,-145.6 0,-54.6 -18,-104.9 -48,-145.6 l -20.4,15.3 c 26.9,36.4 43,81.4 43,130.3 0,48.9 -16.1,93.8 -43,130.3 l 20.4,15.3 z"
       id="path9"
       inkscape:connector-curvature="0"
       style="fill:#444444;fill-opacity:1" />
  </g>
</svg>
