<?xml version="1.0" encoding="UTF-8" standalone="no"?>
<!-- Generated by IcoMoon.io -->

<svg
   xmlns:dc="http://purl.org/dc/elements/1.1/"
   xmlns:cc="http://creativecommons.org/ns#"
   xmlns:rdf="http://www.w3.org/1999/02/22-rdf-syntax-ns#"
   xmlns:svg="http://www.w3.org/2000/svg"
   xmlns="http://www.w3.org/2000/svg"
   xmlns:sodipodi="http://sodipodi.sourceforge.net/DTD/sodipodi-0.dtd"
   xmlns:inkscape="http://www.inkscape.org/namespaces/inkscape"
   version="1.1"
   width="32"
   height="32"
   viewBox="0 0 32 32"
   id="svg2"
   inkscape:version="0.48.4 r9939"
   sodipodi:docname="back.svg">
  <metadata
     id="metadata12">
    <rdf:RDF>
      <cc:Work
         rdf:about="">
        <dc:format>image/svg+xml</dc:format>
        <dc:type
           rdf:resource="http://purl.org/dc/dcmitype/StillImage" />
      </cc:Work>
    </rdf:RDF>
  </metadata>
  <defs
     id="defs10" />
  <sodipodi:namedview
     pagecolor="#ffffff"
     bordercolor="#666666"
     borderopacity="1"
     objecttolerance="10"
     gridtolerance="10"
     guidetolerance="10"
     inkscape:pageopacity="0"
     inkscape:pageshadow="2"
     inkscape:window-width="1418"
     inkscape:window-height="945"
     id="namedview8"
     showgrid="false"
     showguides="true"
     inkscape:guide-bbox="true"
     inkscape:zoom="5.6568545"
     inkscape:cx="5.0550659"
     inkscape:cy="7.5608017"
     inkscape:window-x="0"
     inkscape:window-y="25"
     inkscape:window-maximized="0"
     inkscape:current-layer="svg2" />
  <path
     style="fill:#444444"
     d="M 22.665699,5.5878273 10.912908,15.284551 C 10.744176,15.426919 10.666,15.814524 10.666,15.999046 c 0,0.184521 0.07819,0.49047 0.246908,0.632838 l 11.752791,9.778381 c 0.617053,0.501408 1.313577,0.175401 1.333301,-0.209094 l 0,-20.3938914 C 23.809791,5.0641757 22.891192,5.360282 22.665699,5.5878273 z"
     id="path4"
     inkscape:connector-curvature="0"
     sodipodi:nodetypes="ccsccccc" />
  <path
     style="fill:#444444;fill-opacity:1;stroke:none"
     d="m 5.833,5.3335 1.666,0 c 0.2769998,0 0.5,0.2973287 0.5,0.6666562 l 0,19.9996878 c 0,0.369327 -0.2230002,0.666656 -0.5,0.666656 l -1.666,0 c -0.277,0 -0.5,-0.297329 -0.5,-0.666656 l 0,-19.9996878 C 5.333,5.6308287 5.556,5.3335 5.833,5.3335 z"
     id="rect2989"
     inkscape:connector-curvature="0" />
  <path
     sodipodi:nodetypes="ccsccccc"
     inkscape:connector-curvature="0"
     id="path3764"
     d="m -18.30816,8.03125 -9.094528,7.421875 C -27.533256,15.562094 -27.59375,15.858767 -27.59375,16 c 0,0.141233 0.0605,0.375406 0.191062,0.484375 l 9.094528,7.484375 c 0.477487,0.383777 1.016471,0.134252 1.031733,-0.160041 l 0,-15.6094902 C -17.422839,7.630447 -18.133669,7.8570867 -18.30816,8.03125 z"
     style="fill:#444444" />
  <rect
     ry="0.5"
     rx="0.5"
     y="8"
     x="-30.667"
     height="16"
     width="2.6659999"
     id="rect3766"
     style="fill:#444444;fill-opacity:1;stroke:none" />
  <path
     transform="matrix(1.0170111,0,0,1.0170111,-30.324538,-3.9906244)"
     d="m 20.3125,19.65625 a 14.09375,14.09375 0 1 1 -28.1875,0 14.09375,14.09375 0 1 1 28.1875,0 z"
     sodipodi:ry="14.09375"
     sodipodi:rx="14.09375"
     sodipodi:cy="19.65625"
     sodipodi:cx="6.21875"
     id="path3756"
     style="fill:none;stroke:#444444;stroke-width:1.31070352;stroke-miterlimit:4;stroke-opacity:1;stroke-dasharray:none"
     sodipodi:type="arc" />
  <path
     inkscape:connector-curvature="0"
     id="path2989"
     d="m 38.160693,5.7109316 4.99925,0 c 0.831208,0 1.500375,0.27875 1.500375,0.625 l 0,18.7500004 c 0,0.34625 -0.669167,0.625 -1.500375,0.625 l -4.99925,0 c -0.831207,0 -1.500375,-0.27875 -1.500375,-0.625 l 0,-18.7500004 c 0,-0.34625 0.669168,-0.625 1.500375,-0.625 z"
     style="fill:#ad7fa8;fill-opacity:1;stroke:none" />
  <path
     sodipodi:nodetypes="ccsccccc"
     inkscape:connector-curvature="0"
     id="path2988"
     d="m 22.807811,-31.808877 -10.577776,7.272656 c -0.151863,0.106778 -0.222223,0.397486 -0.222223,0.53588 0,0.138393 0.07037,0.367858 0.222223,0.474636 l 10.577776,7.3339 c 0.555362,0.376062 1.182249,0.131553 1.200001,-0.156823 l 0,-15.295657 c -0.170292,-0.557337 -0.997052,-0.335254 -1.200001,-0.164592 z"
     style="fill:#444444" />
  <path
     inkscape:connector-curvature="0"
     id="path2990"
     d="m 8.5,-32 1.666,0 c 0.277,0 0.5,0.223 0.5,0.5 l 0,15 c 0,0.277 -0.223,0.5 -0.5,0.5 L 8.5,-16 C 8.223,-16 8,-16.223 8,-16.5 l 0,-15 C 8,-31.777 8.223,-32 8.5,-32 z"
     style="fill:#444444;fill-opacity:1;stroke:none" />
</svg>
