<?xml version="1.0" encoding="UTF-8" standalone="no"?>
<!-- Generated by IcoMoon.io -->

<svg
   xmlns:dc="http://purl.org/dc/elements/1.1/"
   xmlns:cc="http://creativecommons.org/ns#"
   xmlns:rdf="http://www.w3.org/1999/02/22-rdf-syntax-ns#"
   xmlns:svg="http://www.w3.org/2000/svg"
   xmlns="http://www.w3.org/2000/svg"
   xmlns:sodipodi="http://sodipodi.sourceforge.net/DTD/sodipodi-0.dtd"
   xmlns:inkscape="http://www.inkscape.org/namespaces/inkscape"
   version="1.1"
   width="32"
   height="32"
   viewBox="0 0 32 32"
   id="svg2"
   inkscape:version="0.48.4 r9939"
   sodipodi:docname="back.svg">
  <metadata
     id="metadata12">
    <rdf:RDF>
      <cc:Work
         rdf:about="">
        <dc:format>image/svg+xml</dc:format>
        <dc:type
           rdf:resource="http://purl.org/dc/dcmitype/StillImage" />
      </cc:Work>
    </rdf:RDF>
  </metadata>
  <defs
     id="defs10" />
  <sodipodi:namedview
     pagecolor="#ffffff"
     bordercolor="#666666"
     borderopacity="1"
     objecttolerance="10"
     gridtolerance="10"
     guidetolerance="10"
     inkscape:pageopacity="0"
     inkscape:pageshadow="2"
     inkscape:window-width="1418"
     inkscape:window-height="945"
     id="namedview8"
     showgrid="false"
     showguides="true"
     inkscape:guide-bbox="true"
     inkscape:zoom="4.0000002"
     inkscape:cx="7.7153859"
     inkscape:cy="15.161902"
     inkscape:window-x="0"
     inkscape:window-y="25"
     inkscape:window-maximized="0"
     inkscape:current-layer="svg2" />
  <path
     style="fill:#444444"
     d="M 56,1 C 47.715312,1 41,7.7153125 41,16 41,24.284687 47.715312,31 56,31 64.284687,31 71,24.284687 71,16 71,7.7153125 64.284687,1 56,1 z m 0,2.8125 C 62.73125,3.8125 68.1875,9.26875 68.1875,16 68.1875,22.73125 62.73125,28.1875 56,28.1875 49.26875,28.1875 43.8125,22.73125 43.8125,16 43.8125,9.26875 49.26875,3.8125 56,3.8125 z"
     id="path6"
     inkscape:connector-curvature="0"
     sodipodi:nodetypes="ssssssssss" />
  <path
     style="fill:#444444"
     d="M 22.807811,8.1911229 12.230035,15.463779 c -0.151863,0.106778 -0.222223,0.397486 -0.222223,0.53588 0,0.138393 0.07037,0.367858 0.222223,0.474636 l 10.577776,7.3339 c 0.555362,0.376062 1.182249,0.131553 1.200001,-0.156823 l 0,-15.2956573 C 23.83752,7.7983781 23.01076,8.0204613 22.807811,8.1911229 z"
     id="path4"
     inkscape:connector-curvature="0"
     sodipodi:nodetypes="ccsccccc" />
  <path
     style="fill:#444444;fill-opacity:1;stroke:none"
     d="m 8.5,8 1.666,0 c 0.277,0 0.5,0.223 0.5,0.5 l 0,15 c 0,0.277 -0.223,0.5 -0.5,0.5 L 8.5,24 C 8.223,24 8,23.777 8,23.5 L 8,8.5 C 8,8.223 8.223,8 8.5,8 z"
     id="rect2989"
     inkscape:connector-curvature="0" />
  <path
     sodipodi:nodetypes="ccsccccc"
     inkscape:connector-curvature="0"
     id="path3764"
     d="m -18.30816,8.03125 -9.094528,7.421875 C -27.533256,15.562094 -27.59375,15.858767 -27.59375,16 c 0,0.141233 0.0605,0.375406 0.191062,0.484375 l 9.094528,7.484375 c 0.477487,0.383777 1.016471,0.134252 1.031733,-0.160041 l 0,-15.6094902 C -17.422839,7.630447 -18.133669,7.8570867 -18.30816,8.03125 z"
     style="fill:#444444" />
  <rect
     ry="0.5"
     rx="0.5"
     y="8"
     x="-30.667"
     height="16"
     width="2.6659999"
     id="rect3766"
     style="fill:#444444;fill-opacity:1;stroke:none" />
  <path
     transform="matrix(1.0170111,0,0,1.0170111,-30.324538,-3.9906244)"
     d="m 20.3125,19.65625 a 14.09375,14.09375 0 1 1 -28.1875,0 14.09375,14.09375 0 1 1 28.1875,0 z"
     sodipodi:ry="14.09375"
     sodipodi:rx="14.09375"
     sodipodi:cy="19.65625"
     sodipodi:cx="6.21875"
     id="path3756"
     style="fill:none;stroke:#444444;stroke-width:1.31070352;stroke-miterlimit:4;stroke-opacity:1;stroke-dasharray:none"
     sodipodi:type="arc" />
  <path
     inkscape:connector-curvature="0"
     id="path2989"
     d="m 44.088809,37.341396 4.99925,0 c 0.831208,0 1.500375,0.27875 1.500375,0.625 l 0,18.75 c 0,0.34625 -0.669167,0.625 -1.500375,0.625 l -4.99925,0 c -0.831207,0 -1.500375,-0.27875 -1.500375,-0.625 l 0,-18.75 c 0,-0.34625 0.669168,-0.625 1.500375,-0.625 z"
     style="fill:#ad7fa8;fill-opacity:1;stroke:none" />
</svg>
