<?xml version="1.0" encoding="UTF-8" standalone="no"?>
<!-- Generated by IcoMoon.io -->

<svg
   xmlns:dc="http://purl.org/dc/elements/1.1/"
   xmlns:cc="http://creativecommons.org/ns#"
   xmlns:rdf="http://www.w3.org/1999/02/22-rdf-syntax-ns#"
   xmlns:svg="http://www.w3.org/2000/svg"
   xmlns="http://www.w3.org/2000/svg"
   xmlns:sodipodi="http://sodipodi.sourceforge.net/DTD/sodipodi-0.dtd"
   xmlns:inkscape="http://www.inkscape.org/namespaces/inkscape"
   version="1.1"
   width="32"
   height="32"
   viewBox="0 0 32 32"
   id="svg2"
   inkscape:version="0.48.4 r9939"
   sodipodi:docname="back.svg">
  <metadata
     id="metadata12">
    <rdf:RDF>
      <cc:Work
         rdf:about="">
        <dc:format>image/svg+xml</dc:format>
        <dc:type
           rdf:resource="http://purl.org/dc/dcmitype/StillImage" />
      </cc:Work>
    </rdf:RDF>
  </metadata>
  <defs
     id="defs10" />
  <sodipodi:namedview
     pagecolor="#ffffff"
     bordercolor="#666666"
     borderopacity="1"
     objecttolerance="10"
     gridtolerance="10"
     guidetolerance="10"
     inkscape:pageopacity="0"
     inkscape:pageshadow="2"
     inkscape:window-width="1418"
     inkscape:window-height="945"
     id="namedview8"
     showgrid="false"
     showguides="true"
     inkscape:guide-bbox="true"
     inkscape:zoom="5.6568545"
     inkscape:cx="5.0550659"
     inkscape:cy="7.5608017"
     inkscape:window-x="0"
     inkscape:window-y="25"
     inkscape:window-maximized="0"
     inkscape:current-layer="svg2" />
  <path
     d="M 22.665699,5.5878273 10.912908,15.284551 C 10.744176,15.426919 10.666,15.814524 10.666,15.999046 c 0,0.184521 0.07819,0.49047 0.246908,0.632838 l 11.752791,9.778381 c 0.617053,0.501408 1.313577,0.175401 1.333301,-0.209094 l 0,-20.3938914 C 23.809791,5.0641757 22.891192,5.360282 22.665699,5.5878273 z"
     id="path4"
     inkscape:connector-curvature="0"
     sodipodi:nodetypes="ccsccccc" />
  <path
     style="fill-opacity:1;stroke:none"
     d="m 5.833,5.3335 1.666,0 c 0.2769998,0 0.5,0.2973287 0.5,0.6666562 l 0,19.9996878 c 0,0.369327 -0.2230002,0.666656 -0.5,0.666656 l -1.666,0 c -0.277,0 -0.5,-0.297329 -0.5,-0.666656 l 0,-19.9996878 C 5.333,5.6308287 5.556,5.3335 5.833,5.3335 z"
     id="rect2989"
     inkscape:connector-curvature="0" />
</svg>
