<?xml version="1.0" encoding="UTF-8" standalone="no"?>
<!-- Generator: Adobe Illustrator 18.1.0, SVG Export Plug-In . SVG Version: 6.00 Build 0)  -->

<svg
   xmlns:dc="http://purl.org/dc/elements/1.1/"
   xmlns:cc="http://creativecommons.org/ns#"
   xmlns:rdf="http://www.w3.org/1999/02/22-rdf-syntax-ns#"
   xmlns:svg="http://www.w3.org/2000/svg"
   xmlns="http://www.w3.org/2000/svg"
   xmlns:sodipodi="http://sodipodi.sourceforge.net/DTD/sodipodi-0.dtd"
   xmlns:inkscape="http://www.inkscape.org/namespaces/inkscape"
   version="1.1"
   id="Layer_1"
   x="0px"
   y="0px"
   viewBox="0 0 32 32"
   enable-background="new 0 0 500 500"
   xml:space="preserve"
   inkscape:version="0.48.4 r9939"
   width="100%"
   height="100%"
   sodipodi:docname="bass-guitar.svg"><metadata
     id="metadata21"><rdf:RDF><cc:Work
         rdf:about=""><dc:format>image/svg+xml</dc:format><dc:type
           rdf:resource="http://purl.org/dc/dcmitype/StillImage" /></cc:Work></rdf:RDF></metadata><defs
     id="defs19" /><sodipodi:namedview
     pagecolor="#ffffff"
     bordercolor="#666666"
     borderopacity="1"
     objecttolerance="10"
     gridtolerance="10"
     guidetolerance="10"
     inkscape:pageopacity="0"
     inkscape:pageshadow="2"
     inkscape:window-width="727"
     inkscape:window-height="480"
     id="namedview17"
     showgrid="false"
     inkscape:zoom="7.5520001"
     inkscape:cx="15.865678"
     inkscape:cy="16.447961"
     inkscape:window-x="414"
     inkscape:window-y="108"
     inkscape:window-maximized="0"
     inkscape:current-layer="Layer_1" /><g
     id="g3"
     transform="matrix(0.02182173,0.05909989,-0.05909989,0.02182173,24.365553,-7.1596286)"
     style="fill:#444444;fill-opacity:1"><rect
       x="257.39999"
       y="472.10001"
       width="84.400002"
       height="27.9"
       id="rect5"
       style="fill:#444444;fill-opacity:1" /><path
       d="m 374.9,96.2 c 25.8,-3 23.1,-31 19.5,-46.9 -0.6,-3 -1.4,-5.9 -2.4,-8.7 -0.4,-1.2 -0.6,-2 -0.6,-2 h -0.1 C 382.5,16.1 360.6,0 334.8,0 307,0 283.5,18.8 276.4,44.5 h -0.2 l -87.5,364.9 c 48.8,11.9 68.6,51.7 68.6,51.7 H 342 v -15.5 c 2.1,-15.7 55.4,-54.9 55.4,-54.9 C 367.5,321.1 374.9,96.2 374.9,96.2 z M 260,373 c -9.2,0 -16.5,-7.4 -16.5,-16.5 0,-9.1 7.4,-16.5 16.5,-16.5 9.2,0 16.5,7.4 16.5,16.5 0,9.1 -7.4,16.5 -16.5,16.5 z m 25.2,-97 c -9.2,0 -16.5,-7.4 -16.5,-16.5 0,-9.2 7.4,-16.5 16.5,-16.5 9.2,0 16.5,7.4 16.5,16.5 0,9.2 -7.5,16.5 -16.5,16.5 z m 16.7,-96.8 c -9.2,0 -16.5,-7.4 -16.5,-16.5 0,-9.1 7.4,-16.5 16.5,-16.5 9.2,0 16.5,7.4 16.5,16.5 0,9.1 -7.4,16.5 -16.5,16.5 z m 16.7,-96.8 c -9.2,0 -16.5,-7.4 -16.5,-16.5 0,-9.1 7.4,-16.5 16.5,-16.5 9.2,0 16.5,7.4 16.5,16.5 0,9.1 -7.3,16.5 -16.5,16.5 z"
       id="path7"
       inkscape:connector-curvature="0"
       style="fill:#444444;fill-opacity:1" /><path
       d="m 206.6,93.2 c 0.1,0 0.1,0 0.2,0 1.2,10.8 10.2,19.3 21.3,19.3 11.9,0 21.5,-9.6 21.5,-21.5 0,-0.2 -0.1,-0.5 -0.1,-0.6 h 0.1 V 78.1 h 10.7 l 5.8,-24.4 H 249.6 V 41.4 h -0.1 c 0,-0.2 0.1,-0.5 0.1,-0.6 0,-11.9 -9.6,-21.5 -21.5,-21.5 -11.1,0 -20.1,8.4 -21.3,19.3 -0.1,0 -0.1,0 -0.2,0 -15.1,0 -27.4,12.3 -27.4,27.4 -0.1,15 12.2,27.2 27.4,27.2 z"
       id="path9"
       inkscape:connector-curvature="0"
       style="fill:#444444;fill-opacity:1" /><path
       d="m 181.6,190.1 c 0.1,0 0.1,0 0.2,0 1.2,10.8 10.2,19.3 21.3,19.3 11.9,0 21.5,-9.6 21.5,-21.5 0,-0.2 -0.1,-0.5 -0.1,-0.6 h 0.1 V 175 h 12.3 l 5.8,-24.4 h -18.1 v -12.4 h -0.1 c 0,-0.2 0.1,-0.5 0.1,-0.6 0,-11.9 -9.6,-21.5 -21.5,-21.5 -11.1,0 -20.1,8.4 -21.3,19.3 -0.1,0 -0.1,0 -0.2,0 -15.1,0 -27.4,12.3 -27.4,27.4 0.1,15 12.3,27.3 27.4,27.3 z"
       id="path11"
       inkscape:connector-curvature="0"
       style="fill:#444444;fill-opacity:1" /><path
       d="m 158.1,287 c 0.1,0 0.1,0 0.2,0 1.2,10.8 10.2,19.3 21.3,19.3 11.9,0 21.5,-9.6 21.5,-21.5 0,-0.2 -0.1,-0.5 -0.1,-0.6 h 0.1 v -12.3 h 12.4 l 5.8,-24.4 h -18.1 v -12.3 h -0.1 c 0,-0.2 0.1,-0.5 0.1,-0.6 0,-11.9 -9.6,-21.5 -21.5,-21.5 -11.1,0 -20.1,8.4 -21.3,19.3 -0.1,0 -0.1,0 -0.2,0 -15.1,0 -27.4,12.3 -27.4,27.4 -0.1,14.9 12.2,27.2 27.3,27.2 z"
       id="path13"
       inkscape:connector-curvature="0"
       style="fill:#444444;fill-opacity:1" /><path
       d="m 196,344.2 h -23 v -12.3 h -0.1 c 0,-0.2 0.1,-0.5 0.1,-0.6 0,-11.9 -9.6,-21.5 -21.5,-21.5 -11.1,0 -20.1,8.4 -21.3,19.3 -0.1,0 -0.1,0 -0.2,0 -15.1,0 -27.4,12.3 -27.4,27.4 0,15.1 12.3,27.4 27.4,27.4 0.1,0 0.1,0 0.2,0 1.2,10.8 10.2,19.3 21.3,19.3 11.9,0 21.5,-9.6 21.5,-21.5 0,-0.2 0,-0.5 -0.1,-0.6 h 0.1 v -12.3 h 17.1 l 5.9,-24.6 z"
       id="path15"
       inkscape:connector-curvature="0"
       style="fill:#444444;fill-opacity:1" /></g></svg>