<?xml version="1.0" encoding="UTF-8" standalone="no"?>
<!-- Generator: Adobe Illustrator 18.1.0, SVG Export Plug-In . SVG Version: 6.00 Build 0)  -->

<svg
   xmlns:dc="http://purl.org/dc/elements/1.1/"
   xmlns:cc="http://creativecommons.org/ns#"
   xmlns:rdf="http://www.w3.org/1999/02/22-rdf-syntax-ns#"
   xmlns:svg="http://www.w3.org/2000/svg"
   xmlns="http://www.w3.org/2000/svg"
   xmlns:sodipodi="http://sodipodi.sourceforge.net/DTD/sodipodi-0.dtd"
   xmlns:inkscape="http://www.inkscape.org/namespaces/inkscape"
   version="1.1"
   id="Layer_1"
   x="0px"
   y="0px"
   viewBox="0 0 32 32"
   enable-background="new 0 0 500 500"
   xml:space="preserve"
   inkscape:version="0.48.4 r9939"
   width="100%"
   height="100%"
   sodipodi:docname="bongo.svg"><metadata
     id="metadata21"><rdf:RDF><cc:Work
         rdf:about=""><dc:format>image/svg+xml</dc:format><dc:type
           rdf:resource="http://purl.org/dc/dcmitype/StillImage" /></cc:Work></rdf:RDF></metadata><defs
     id="defs19" /><sodipodi:namedview
     pagecolor="#ffffff"
     bordercolor="#666666"
     borderopacity="1"
     objecttolerance="10"
     gridtolerance="10"
     guidetolerance="10"
     inkscape:pageopacity="0"
     inkscape:pageshadow="2"
     inkscape:window-width="1446"
     inkscape:window-height="929"
     id="namedview17"
     showgrid="false"
     inkscape:zoom="7.5520001"
     inkscape:cx="18.710613"
     inkscape:cy="25.355176"
     inkscape:window-x="414"
     inkscape:window-y="108"
     inkscape:window-maximized="0"
     inkscape:current-layer="Layer_1"
     showguides="true"
     inkscape:guide-bbox="true" /><path
     style="font-size:medium;font-style:normal;font-variant:normal;font-weight:normal;font-stretch:normal;text-indent:0;text-align:start;text-decoration:none;line-height:normal;letter-spacing:normal;word-spacing:normal;text-transform:none;direction:ltr;block-progression:tb;writing-mode:lr-tb;text-anchor:start;baseline-shift:baseline;color:#000000;fill:#444444;fill-opacity:1;stroke:none;stroke-width:0.80000000999999998;marker:none;visibility:visible;display:inline;overflow:visible;enable-background:accumulate;font-family:Sans;-inkscape-font-specification:Sans"
     d="M 4.09375 8.4375 L 4.125 8.875 L 5.46875 24.78125 L 5.46875 24.90625 L 5.59375 25.03125 C 7.2074797 26.64777 10.151906 26.854707 12.53125 26.78125 L 19.09375 26.78125 C 20.180277 26.78705 21.592095 26.676982 22.90625 26.40625 C 24.220405 26.135518 25.443715 25.725107 26.21875 25.0625 L 26.34375 24.96875 L 26.34375 24.8125 L 27.59375 8.875 L 27.625 8.4375 L 27.1875 8.4375 L 4.5 8.4375 L 4.09375 8.4375 z M 4.9375 9.25 L 26.78125 9.25 L 25.6875 23.125 C 24.131049 24.068142 21.091775 24.510361 19.125 24.5 L 12.40625 24.5 C 10.262617 24.56482 7.697451 24.312789 6.125 23.21875 L 4.9375 9.25 z "
     id="rect3019" /><path
     style="fill:#444444;fill-opacity:1;stroke:none"
     d="m 8.8409384,25.976604 0,0.951626 -0.3001763,0 c -0.2932028,0 -0.3238561,0.233401 -0.3238561,0.491162 l 0,0.997674 c 0,0.272103 0.269898,0.491162 0.6051496,0.491162 l 0.018885,0 0,0.214883 1.1724814,0 0,-0.214883 0.03777,0 c 0.335251,0 0.605157,-0.219059 0.605157,-0.491162 l 0,-0.997674 c 0,-0.280016 -0.02468,-0.491162 -0.257665,-0.491162 l -0.385309,0 0,-0.951626 z"
     id="rect3792"
     inkscape:connector-curvature="0"
     sodipodi:nodetypes="ccssssccccssssccc" /><path
     style="font-size:medium;font-style:normal;font-variant:normal;font-weight:normal;font-stretch:normal;text-indent:0;text-align:start;text-decoration:none;line-height:normal;letter-spacing:normal;word-spacing:normal;text-transform:none;direction:ltr;block-progression:tb;writing-mode:lr-tb;text-anchor:start;baseline-shift:baseline;color:#000000;fill:#444444;fill-opacity:1;stroke:none;stroke-width:0.80000000999999998;marker:none;visibility:visible;display:inline;overflow:visible;enable-background:accumulate;font-family:Sans;-inkscape-font-specification:Sans"
     d="m 6.28125,3.1875 c -1.308156,0 -2.3125,1.2288744 -2.3125,2.65625 l 0,0.21875 c 0,0.1750028 -0.00147,0.3471846 0.03125,0.53125 l 0.0625,0.3125 0.34375,0 23.125,0 0.34375,0 0.0625,-0.3125 c 0.0326,-0.1838546 0.03125,-0.3561472 0.03125,-0.53125 l 0,-0.21875 c 0,-1.4273757 -0.973095,-2.65625 -2.28125,-2.65625 l -19.40625,0 z m 0,0.78125 19.40625,0 c 0.801013,0 1.5,0.8111385 1.5,1.875 l 0,0.21875 c 0,0.024014 4.96e-4,0.038814 0,0.0625 l -22.40625,0 c -4.943e-4,-0.023694 0,-0.038469 0,-0.0625 l 0,-0.21875 c 0,-1.0638616 0.6989854,-1.875 1.5,-1.875 z"
     id="rect3820"
     inkscape:connector-curvature="0" /><path
     style="fill:#444444;fill-opacity:1;stroke:none"
     d="m 3.5755911,5.7125211 24.8488179,0 c 0.422113,0 0.761936,0.3398235 0.761936,0.7619362 l 0,1.5726363 c 0,0.4221127 -0.339823,0.7619362 -0.761936,0.7619362 l -24.8488179,0 c -0.4221126,0 -0.7619362,-0.3398235 -0.7619362,-0.7619362 l 0,-1.5726363 c 0,-0.4221127 0.3398236,-0.7619362 0.7619362,-0.7619362 z"
     id="rect3789" /><path
     style="font-size:medium;font-style:normal;font-variant:normal;font-weight:normal;font-stretch:normal;text-indent:0;text-align:start;text-decoration:none;line-height:normal;letter-spacing:normal;word-spacing:normal;text-transform:none;direction:ltr;block-progression:tb;writing-mode:lr-tb;text-anchor:start;baseline-shift:baseline;color:#000000;fill:#444444;fill-opacity:1;stroke:none;stroke-width:2;marker:none;visibility:visible;display:inline;overflow:visible;enable-background:accumulate;font-family:Sans;-inkscape-font-specification:Sans"
     d="M 6.2987448,8.6885129 6.6800845,9.40544 7.8903166,11.739109 c 0.067734,1.154644 0.4548583,1.675997 0.9231592,1.772041 0.019081,0.197509 0.3350347,8.027526 0.3350347,11.514934 l 1.2445285,0.04878 c 0,-3.698226 -0.313176,-11.269919 -0.335043,-11.493644 0.417999,-0.106742 0.683258,-0.751212 0.775866,-1.691759 0.475925,-1.096447 1.161367,-2.1975139 1.704921,-3.2619655 -2.035652,0.022821 -4.1474934,0.061011 -6.2400382,0.061017 z M 9.8767417,11.405221 C 9.5225979,11.625416 9.0742982,11.557726 8.8069091,11.377351 L 7.906502,9.5032289 l 2.944156,0.0092 C 10.512216,10.123738 10.17541,10.77274 9.8767417,11.405266 z"
     id="path3838"
     inkscape:connector-curvature="0"
     sodipodi:nodetypes="cccccccccccccccc" /><path
     sodipodi:nodetypes="ccssssccccssssccc"
     inkscape:connector-curvature="0"
     id="path2999"
     d="m 21.994404,26.000012 0,0.947332 -0.320915,0 c -0.31346,0 -0.346229,0.232347 -0.346229,0.488945 l 0,0.993172 c 0,0.270875 0.288542,0.488945 0.646965,0.488945 l 0.02019,0 0,0.213913 1.253488,0 0,-0.213913 0.04047,0 c 0.358414,0 0.646957,-0.21807 0.646957,-0.488945 l 0,-0.993172 c 0,-0.278752 -0.02638,-0.488945 -0.275456,-0.488945 l -0.411938,0 0,-0.947332 z"
     style="fill:#444444;fill-opacity:1;stroke:none" /><path
     sodipodi:nodetypes="cccccccccccccccc"
     inkscape:connector-curvature="0"
     id="path3001"
     d="m 25.533054,8.6912959 -0.398757,0.7496579 -1.265492,2.4402112 c -0.07082,1.207358 -0.475622,1.752514 -0.965296,1.852942 -0.0199,0.206526 -0.01214,7.313801 -0.01214,10.960425 l -1.301346,0.051 c 0,-3.867065 -0.01072,-10.704223 0.01215,-10.938162 -0.437083,-0.111615 -0.714451,-0.785508 -0.811287,-1.768994 -0.497653,-1.146495 -1.214388,-2.2978299 -1.782758,-3.4108783 2.128588,0.023864 4.336847,0.063797 6.524933,0.063798 z m -3.741358,2.8407381 c 0.370313,0.230247 0.839087,0.159467 1.118682,-0.02914 l 0.941513,-1.9596836 -3.078572,0.00962 c 0.353889,0.6392116 0.706072,1.3178446 1.018377,1.9792476 z"
     style="font-size:medium;font-style:normal;font-variant:normal;font-weight:normal;font-stretch:normal;text-indent:0;text-align:start;text-decoration:none;line-height:normal;letter-spacing:normal;word-spacing:normal;text-transform:none;direction:ltr;block-progression:tb;writing-mode:lr-tb;text-anchor:start;baseline-shift:baseline;color:#000000;fill:#444444;fill-opacity:1;stroke:none;stroke-width:2;marker:none;visibility:visible;display:inline;overflow:visible;enable-background:accumulate;font-family:Sans;-inkscape-font-specification:Sans" /></svg>