<?xml version="1.0" encoding="UTF-8" standalone="no"?>
<!-- Created with Inkscape (http://www.inkscape.org/) -->

<svg
   xmlns:dc="http://purl.org/dc/elements/1.1/"
   xmlns:cc="http://creativecommons.org/ns#"
   xmlns:rdf="http://www.w3.org/1999/02/22-rdf-syntax-ns#"
   xmlns:svg="http://www.w3.org/2000/svg"
   xmlns="http://www.w3.org/2000/svg"
   xmlns:sodipodi="http://sodipodi.sourceforge.net/DTD/sodipodi-0.dtd"
   xmlns:inkscape="http://www.inkscape.org/namespaces/inkscape"
   width="32"
   height="32"
   id="svg3356"
   version="1.1"
   inkscape:version="0.48.4 r9939"
   sodipodi:docname="color-palette.svg">
  <defs
     id="defs3358" />
  <sodipodi:namedview
     id="base"
     pagecolor="#ffffff"
     bordercolor="#666666"
     borderopacity="1.0"
     inkscape:pageopacity="0.0"
     inkscape:pageshadow="2"
     inkscape:zoom="5.6"
     inkscape:cx="21.616057"
     inkscape:cy="14.031674"
     inkscape:document-units="px"
     inkscape:current-layer="layer1"
     showgrid="false"
     inkscape:window-width="1023"
     inkscape:window-height="626"
     inkscape:window-x="625"
     inkscape:window-y="236"
     inkscape:window-maximized="0" />
  <metadata
     id="metadata3361">
    <rdf:RDF>
      <cc:Work
         rdf:about="">
        <dc:format>image/svg+xml</dc:format>
        <dc:type
           rdf:resource="http://purl.org/dc/dcmitype/StillImage" />
        <dc:title />
      </cc:Work>
    </rdf:RDF>
  </metadata>
  <g
     inkscape:label="Layer 1"
     inkscape:groupmode="layer"
     id="layer1"
     transform="translate(0,-1020.3622)">
    <path
       style="fill:#444444;fill-opacity:1"
       d="m 15.156253,1048.4742 c -1.562794,-0.1991 -3.010689,-1.0945 -3.890653,-2.4061 -0.620264,-0.9245 -0.875783,-1.7727 -0.937332,-3.1115 -0.05546,-1.2063 -0.248883,-1.7815 -0.7764719,-2.3091 -0.659341,-0.6593 -1.734723,-0.9631 -3.632569,-1.026 -0.9735654,-0.032 -1.3885099,-0.081 -1.930731,-0.2246 -1.5763234,-0.4189 -2.721744,-1.7505 -3.13744714,-3.6476 -0.3650557,-1.666 -0.2273305,-2.8199 0.51365974,-4.3034 0.1944217,-0.3893 0.6204957,-1.1125 0.7774766,-1.3197 0.054902,-0.072 0.1767503,-0.238 0.2707663,-0.3677 0.343339,-0.4739 1.1290728,-1.3747 1.5765155,-1.8074 0.5458333,-0.5278 0.8555282,-0.7857 1.41495,-1.1786 0.38587,-0.2711 0.580504,-0.3929 1.02962,-0.6444 0.09438,-0.053 0.292951,-0.1642 0.441266,-0.2474 0.682239,-0.3827 2.047553,-0.9365 2.868226,-1.1634 1.5958819,-0.4414 3.0974729,-0.5722 5.3687319,-0.4678 2.759426,0.127 4.595557,0.3993 6.643499,0.9852 2.078231,0.5947 4.16189,1.5922 5.488761,2.6276 0.412596,0.322 1.467057,1.3948 1.776366,1.8073 1.336885,1.7829 1.970353,3.495 2.249384,6.0797 0.315051,2.9182 -0.388672,5.4078 -2.155057,7.624 -0.435342,0.5463 -1.672294,1.7514 -2.212438,2.1557 -1.878816,1.4059 -4.327872,2.3561 -7.010137,2.7197 -1.516737,0.2056 -3.973824,0.3226 -4.736386,0.2255 z m 1.279805,-3.2398 c 0.973416,-0.1537 1.831543,-1.0506 1.956379,-2.0448 0.102649,-0.8175 -0.118934,-1.463 -0.70455,-2.0526 -0.481541,-0.4848 -1.011105,-0.7055 -1.693095,-0.7055 -0.68199,0 -1.211554,0.2207 -1.693095,0.7055 -0.510529,0.514 -0.716505,0.9969 -0.718579,1.6848 -0.0022,0.7158 0.206965,1.2395 0.686323,1.719 0.603419,0.6034 1.30855,0.8291 2.166617,0.6936 z m -9.9610519,-8.9479 c 0.995393,-0.2956 1.591817,-1.2513 1.43079,-2.2925 -0.06554,-0.4239 -0.245134,-0.7668 -0.573612,-1.0952 -0.596817,-0.5968 -1.520845,-0.7541 -2.2907806,-0.3899 -0.3135911,0.1484 -0.7789787,0.601 -0.9355121,0.91 -0.5604613,1.106 0.044356,2.4944 1.2494957,2.8682 0.2969525,0.092 0.808153,0.092 1.119619,-6e-4 z m 18.5063799,-1.6152 c 0.349976,-0.091 0.58992,-0.2413 0.917046,-0.5736 0.319638,-0.3248 0.472472,-0.6221 0.544802,-1.0601 0.1078,-0.6527 -0.08983,-1.2625 -0.561596,-1.7328 -0.345206,-0.3442 -0.662627,-0.5134 -1.091161,-0.5819 -0.914778,-0.1462 -1.752335,0.2853 -2.161621,1.1134 -0.174579,0.3532 -0.182583,0.3913 -0.182272,0.8665 2.94e-4,0.4592 0.0127,0.5237 0.163442,0.8499 0.417798,0.9043 1.405435,1.3701 2.37136,1.1186 z m -12.590263,-3.3762 c 0.43071,-0.2048 0.774234,-0.5443 0.975043,-0.9636 0.142263,-0.2971 0.152636,-0.3554 0.152636,-0.858 0,-0.5008 -0.0108,-0.5621 -0.1511,-0.8582 -0.387962,-0.8186 -1.270004,-1.2846 -2.154233,-1.1381 -0.657379,0.1089 -1.154083,0.4958 -1.4606029,1.1374 -0.124191,0.26 -0.155526,0.3952 -0.172124,0.7423 -0.0311,0.6504 0.150488,1.1313 0.5907439,1.5647 0.44855,0.4415 0.872114,0.5986 1.508709,0.5594 0.284037,-0.017 0.445827,-0.059 0.710928,-0.1859 z m 6.008094,0.1637 c 0.594905,-0.1128 1.15771,-0.5404 1.436524,-1.0916 0.380367,-0.7517 0.219132,-1.7185 -0.387848,-2.3255 -1.089458,-1.0894 -2.936663,-0.6081 -3.378691,0.8803 -0.148777,0.501 -0.06436,1.1453 0.2062,1.5739 0.469254,0.7434 1.29864,1.1194 2.123815,0.9629 z"
       id="path2994"
       inkscape:connector-curvature="0" />
  </g>
</svg>
