<?xml version="1.0" encoding="UTF-8" standalone="no"?>
<!-- Generated by IcoMoon.io -->

<svg
   xmlns:dc="http://purl.org/dc/elements/1.1/"
   xmlns:cc="http://creativecommons.org/ns#"
   xmlns:rdf="http://www.w3.org/1999/02/22-rdf-syntax-ns#"
   xmlns:svg="http://www.w3.org/2000/svg"
   xmlns="http://www.w3.org/2000/svg"
   xmlns:sodipodi="http://sodipodi.sourceforge.net/DTD/sodipodi-0.dtd"
   xmlns:inkscape="http://www.inkscape.org/namespaces/inkscape"
   version="1.1"
   width="32"
   height="32"
   viewBox="0 0 32 32"
   id="svg2"
   inkscape:version="0.48.4 r9939"
   sodipodi:docname="countdown.svg">
  <metadata
     id="metadata12">
    <rdf:RDF>
      <cc:Work
         rdf:about="">
        <dc:format>image/svg+xml</dc:format>
        <dc:type
           rdf:resource="http://purl.org/dc/dcmitype/StillImage" />
        <dc:title />
      </cc:Work>
    </rdf:RDF>
  </metadata>
  <defs
     id="defs10" />
  <sodipodi:namedview
     pagecolor="#ffffff"
     bordercolor="#666666"
     borderopacity="1"
     objecttolerance="10"
     gridtolerance="10"
     guidetolerance="10"
     inkscape:pageopacity="0"
     inkscape:pageshadow="2"
     inkscape:window-width="1339"
     inkscape:window-height="793"
     id="namedview8"
     showgrid="false"
     showguides="true"
     inkscape:guide-bbox="true"
     inkscape:zoom="2.6074563"
     inkscape:cx="-51.494016"
     inkscape:cy="8.368445"
     inkscape:window-x="0"
     inkscape:window-y="25"
     inkscape:window-maximized="0"
     inkscape:current-layer="svg2" />
  <path
     d="M 15.96875,5.5 C 10.184411,5.5171799 5.5,10.211633 5.5,16 c 0,5.788367 4.684411,10.48282 10.46875,10.5 0.01062,3.2e-5 0.02063,0 0.03125,0 C 21.784339,26.48282 26.46875,21.788367 26.46875,16 26.46875,10.211633 21.784339,5.5171799 16,5.5 c -0.01062,-3.15e-5 -0.02063,0 -0.03125,0 z m -0.5,2.875 c 0.180398,3.3e-6 0.333234,0.020042 0.5,0.03125 0.01038,6.98e-4 0.02075,-6.39e-4 0.03125,0 0.581353,0.035454 1.112601,0.1312967 1.5625,0.28125 0.588915,0.1963221 1.090148,0.4791927 1.46875,0.84375 0.392606,0.3505629 0.661455,0.759244 0.84375,1.25 0.196298,0.476759 0.31249,1.01886 0.3125,1.59375 -10e-6,0.673065 -0.215166,1.248424 -0.59375,1.78125 -0.364581,0.532844 -0.817335,0.938319 -1.40625,1.21875 0.757178,0.266425 1.384221,0.72679 1.875,1.34375 0.504781,0.616973 0.749989,1.407489 0.75,2.375 -1.1e-5,0.645015 -0.119409,1.251624 -0.34375,1.8125 -0.224362,0.546859 -0.568534,1.030864 -1.03125,1.4375 -0.462734,0.392616 -1.034887,0.699127 -1.75,0.9375 -0.480696,0.153821 -1.073432,0.233699 -1.6875,0.28125 -0.01066,8.25e-4 -0.02058,-8.07e-4 -0.03125,0 -0.268536,0.02253 -0.515606,0.0625 -0.8125,0.0625 -0.378598,0 -0.780867,-0.03766 -1.1875,-0.09375 -0.392619,-0.04207 -0.760432,-0.103368 -1.125,-0.1875 -0.350552,-0.07011 -0.67429,-0.165868 -0.96875,-0.25 -0.294463,-0.09815 -0.533259,-0.165868 -0.6875,-0.25 l 0.5,-2.1875 c 0.29446,0.140222 0.720369,0.317717 1.28125,0.5 0.560876,0.168266 1.266449,0.250002 2.09375,0.25 0.331602,1e-6 0.630104,-0.02468 0.90625,-0.0625 0.0109,-0.0015 0.02043,0.0015 0.03125,0 0.632803,-0.08957 1.130083,-0.272217 1.46875,-0.5625 0.490762,-0.434678 0.718742,-1.003625 0.71875,-1.71875 -8e-6,-0.462721 -0.08495,-0.847761 -0.28125,-1.15625 -0.182293,-0.308478 -0.44473,-0.567708 -0.78125,-0.75 C 16.802488,16.959949 16.434675,16.820116 16,16.75 c -0.0098,-0.002 -0.02141,0.0019 -0.03125,0 -0.412022,-0.08019 -0.846882,-0.124993 -1.3125,-0.125 l -0.875,0 0,-2.0625 1.0625,0 c 0.322501,9e-6 0.646239,-0.0064 0.96875,-0.0625 0.05721,-0.01192 0.10328,-0.04481 0.15625,-0.0625 0.0095,-0.0025 0.02181,0.0025 0.03125,0 0.259246,-0.06852 0.505388,-0.15772 0.71875,-0.28125 0.266411,-0.168254 0.456729,-0.389823 0.625,-0.65625 0.168256,-0.266408 0.249993,-0.61058 0.25,-1.03125 -7e-6,-0.336516 -0.06131,-0.636615 -0.1875,-0.875 C 17.280045,11.355388 17.116573,11.154254 16.90625,11 16.709936,10.845771 16.485161,10.757622 16.21875,10.6875 16.146113,10.668389 16.074541,10.640286 16,10.625 c -0.0099,-0.0018 -0.02132,0.0018 -0.03125,0 -0.190624,-0.03413 -0.39013,-0.06249 -0.59375,-0.0625 -0.630994,1.3e-5 -1.196735,0.116205 -1.6875,0.3125 -0.490772,0.182298 -0.902659,0.386638 -1.28125,0.625 l -0.9375,-1.90625 c 0.196306,-0.126184 0.438309,-0.2347662 0.71875,-0.375 0.280437,-0.1402056 0.56972,-0.2800378 0.90625,-0.40625 0.350546,-0.1261832 0.732381,-0.2423754 1.125,-0.3125 0.392611,-0.084117 0.815314,-0.1249851 1.25,-0.125 z"
     id="path2986"
     inkscape:connector-curvature="0"
     sodipodi:nodetypes="csccssccsccccccccccccccsccccccscscccccsccccccccscccccccccccccc" />
  <path
     d="m 15.98574,2.0423322 c -7.7173246,0 -13.9687504,6.2514258 -13.9687504,13.9687498 0,7.717324 6.2514258,13.96875 13.9687504,13.96875 7.717324,0 14,-6.251426 14,-13.96875 0,-7.717324 -6.282676,-13.9687498 -14,-13.9687498 z m 0,0.5 c 7.447104,0 13.5,6.0216459 13.5,13.4687498 0,7.447104 -6.052896,13.46875 -13.5,13.46875 -7.4471045,0 -13.4687504,-6.021646 -13.4687504,-13.46875 0,-7.4471039 6.0216459,-13.4687498 13.4687504,-13.4687498 z"
     id="path3005"
     inkscape:connector-curvature="0" />
  <path
     d="M 16 1 C 12.161239 1 8.335329 2.4771708 5.40625 5.40625 C -0.45190897 11.264409 -0.45190897 20.735591 5.40625 26.59375 C 11.264409 32.451908 20.735591 32.451908 26.59375 26.59375 C 26.604343 26.583157 26.614445 26.573116 26.625 26.5625 L 24.65625 24.59375 C 24.645687 24.60439 24.635611 24.614389 24.625 24.625 C 19.865287 29.384712 12.134713 29.384712 7.375 24.625 C 2.615287 19.865287 2.615287 12.134713 7.375 7.375 C 9.754857 4.9951438 12.880996 3.8125 16 3.8125 L 16 1 z "
     id="path3007" />
</svg>
