<?xml version="1.0" encoding="UTF-8" standalone="no"?>
<!-- Generated by IcoMoon.io -->

<svg
   xmlns:dc="http://purl.org/dc/elements/1.1/"
   xmlns:cc="http://creativecommons.org/ns#"
   xmlns:rdf="http://www.w3.org/1999/02/22-rdf-syntax-ns#"
   xmlns:svg="http://www.w3.org/2000/svg"
   xmlns="http://www.w3.org/2000/svg"
   xmlns:sodipodi="http://sodipodi.sourceforge.net/DTD/sodipodi-0.dtd"
   xmlns:inkscape="http://www.inkscape.org/namespaces/inkscape"
   version="1.1"
   width="32"
   height="32"
   viewBox="0 0 32 32"
   id="svg2"
   inkscape:version="0.48.4 r9939"
   sodipodi:docname="countdown.svg">
  <metadata
     id="metadata12">
    <rdf:RDF>
      <cc:Work
         rdf:about="">
        <dc:format>image/svg+xml</dc:format>
        <dc:type
           rdf:resource="http://purl.org/dc/dcmitype/StillImage" />
        <dc:title />
      </cc:Work>
    </rdf:RDF>
  </metadata>
  <defs
     id="defs10" />
  <sodipodi:namedview
     pagecolor="#ffffff"
     bordercolor="#666666"
     borderopacity="1"
     objecttolerance="10"
     gridtolerance="10"
     guidetolerance="10"
     inkscape:pageopacity="0"
     inkscape:pageshadow="2"
     inkscape:window-width="1339"
     inkscape:window-height="793"
     id="namedview8"
     showgrid="false"
     showguides="true"
     inkscape:guide-bbox="true"
     inkscape:zoom="14.75"
     inkscape:cx="15.936946"
     inkscape:cy="18.794796"
     inkscape:window-x="0"
     inkscape:window-y="25"
     inkscape:window-maximized="0"
     inkscape:current-layer="svg2" />
  <path
     style="fill:#444444;fill-opacity:1;stroke:none"
     d="M 15.96875,5.5 C 10.184411,5.5171799 5.5,10.211633 5.5,16 c 0,5.788367 4.684411,10.48282 10.46875,10.5 0.01062,3.2e-5 0.02063,0 0.03125,0 C 21.784339,26.48282 26.46875,21.788367 26.46875,16 26.46875,10.211633 21.784339,5.5171799 16,5.5 c -0.01062,-3.15e-5 -0.02063,0 -0.03125,0 z m -0.5,2.875 c 0.180398,3.3e-6 0.333234,0.020042 0.5,0.03125 0.01038,6.98e-4 0.02075,-6.39e-4 0.03125,0 0.581353,0.035454 1.112601,0.1312967 1.5625,0.28125 0.588915,0.1963221 1.090148,0.4791927 1.46875,0.84375 0.392606,0.3505629 0.661455,0.759244 0.84375,1.25 0.196298,0.476759 0.31249,1.01886 0.3125,1.59375 -10e-6,0.673065 -0.215166,1.248424 -0.59375,1.78125 -0.364581,0.532844 -0.817335,0.938319 -1.40625,1.21875 0.757178,0.266425 1.384221,0.72679 1.875,1.34375 0.504781,0.616973 0.749989,1.407489 0.75,2.375 -1.1e-5,0.645015 -0.119409,1.251624 -0.34375,1.8125 -0.224362,0.546859 -0.568534,1.030864 -1.03125,1.4375 -0.462734,0.392616 -1.034887,0.699127 -1.75,0.9375 -0.480696,0.153821 -1.073432,0.233699 -1.6875,0.28125 -0.01066,8.25e-4 -0.02058,-8.07e-4 -0.03125,0 -0.268536,0.02253 -0.515606,0.0625 -0.8125,0.0625 -0.378598,0 -0.780867,-0.03766 -1.1875,-0.09375 -0.392619,-0.04207 -0.760432,-0.103368 -1.125,-0.1875 -0.350552,-0.07011 -0.67429,-0.165868 -0.96875,-0.25 -0.294463,-0.09815 -0.533259,-0.165868 -0.6875,-0.25 l 0.5,-2.1875 c 0.29446,0.140222 0.720369,0.317717 1.28125,0.5 0.560876,0.168266 1.266449,0.250002 2.09375,0.25 0.331602,1e-6 0.630104,-0.02468 0.90625,-0.0625 0.0109,-0.0015 0.02043,0.0015 0.03125,0 0.632803,-0.08957 1.130083,-0.272217 1.46875,-0.5625 0.490762,-0.434678 0.718742,-1.003625 0.71875,-1.71875 -8e-6,-0.462721 -0.08495,-0.847761 -0.28125,-1.15625 -0.182293,-0.308478 -0.44473,-0.567708 -0.78125,-0.75 C 16.802488,16.959949 16.434675,16.820116 16,16.75 c -0.0098,-0.002 -0.02141,0.0019 -0.03125,0 -0.412022,-0.08019 -0.846882,-0.124993 -1.3125,-0.125 l -0.875,0 0,-2.0625 1.0625,0 c 0.322501,9e-6 0.646239,-0.0064 0.96875,-0.0625 0.05721,-0.01192 0.10328,-0.04481 0.15625,-0.0625 0.0095,-0.0025 0.02181,0.0025 0.03125,0 0.259246,-0.06852 0.505388,-0.15772 0.71875,-0.28125 0.266411,-0.168254 0.456729,-0.389823 0.625,-0.65625 0.168256,-0.266408 0.249993,-0.61058 0.25,-1.03125 -7e-6,-0.336516 -0.06131,-0.636615 -0.1875,-0.875 C 17.280045,11.355388 17.116573,11.154254 16.90625,11 16.709936,10.845771 16.485161,10.757622 16.21875,10.6875 16.146113,10.668389 16.074541,10.640286 16,10.625 c -0.0099,-0.0018 -0.02132,0.0018 -0.03125,0 -0.190624,-0.03413 -0.39013,-0.06249 -0.59375,-0.0625 -0.630994,1.3e-5 -1.196735,0.116205 -1.6875,0.3125 -0.490772,0.182298 -0.902659,0.386638 -1.28125,0.625 l -0.9375,-1.90625 c 0.196306,-0.126184 0.438309,-0.2347662 0.71875,-0.375 0.280437,-0.1402056 0.56972,-0.2800378 0.90625,-0.40625 0.350546,-0.1261832 0.732381,-0.2423754 1.125,-0.3125 0.392611,-0.084117 0.815314,-0.1249851 1.25,-0.125 z"
     id="path2986"
     inkscape:connector-curvature="0"
     sodipodi:nodetypes="csccssccsccccccccccccccsccccccscscccccsccccccccscccccccccccccc" />
  <path
     transform="translate(43.898305,1.6610165)"
     d="m 25.830508,14.338984 a 13.728813,13.728813 0 1 1 -27.4576261,0 13.728813,13.728813 0 1 1 27.4576261,0 z"
     sodipodi:ry="13.728813"
     sodipodi:rx="13.728813"
     sodipodi:cy="14.338984"
     sodipodi:cx="12.101695"
     id="path3764"
     style="fill:none;stroke:#000000;stroke-width:0.5;stroke-miterlimit:4;stroke-opacity:1;stroke-dasharray:none"
     sodipodi:type="arc" />
  <path
     transform="matrix(1.0896832,0,0,1.0896832,30.246268,-11.399713)"
     style="fill:#fb8b00;fill-opacity:1;stroke:none"
     d="m 33.269974,25.144659 c 0,5.321721 -4.314107,9.635828 -9.635828,9.635828 -5.321721,0 -9.635828,-4.314107 -9.635828,-9.635828 0,-5.321721 4.314107,-9.635828 9.635828,-9.635828 5.321721,0 9.635828,4.314107 9.635828,9.635828 z"
     id="path3766" />
  <path
     id="path3768"
     d="m 56,1 c -3.838761,0 -7.664671,1.4771708 -10.59375,4.40625 -5.858159,5.858159 -5.858159,15.329341 0,21.1875 5.858159,5.858158 15.329341,5.858158 21.1875,0 C 69.522829,23.66467 71,19.838761 71,16 l -2.8125,0 c 0,3.119004 -1.182644,6.245143 -3.5625,8.625 -4.759713,4.759712 -12.490287,4.759712 -17.25,0 -4.759713,-4.759713 -4.759713,-12.490287 0,-17.25 C 49.754857,4.9951438 52.880996,3.8125 56,3.8125 L 56,1 z"
     style="fill:#444444"
     inkscape:connector-curvature="0" />
  <g
     style="font-size:24px;font-style:normal;font-variant:normal;font-weight:500;font-stretch:normal;line-height:125%;letter-spacing:0px;word-spacing:0px;fill:#000000;fill-opacity:1;stroke:none;font-family:Ubuntu;-inkscape-font-specification:Ubuntu Medium"
     id="text3770">
    <path
       d="m 55.027998,24.687999 c -0.432005,0 -0.880004,-0.032 -1.344,-0.096 -0.448003,-0.048 -0.880003,-0.12 -1.296,-0.216 -0.400002,-0.08 -0.768002,-0.168 -1.104,-0.264 -0.336001,-0.112 -0.592001,-0.215999 -0.768,-0.312 l 0.576,-2.472 c 0.335998,0.160003 0.823998,0.344003 1.464,0.552 0.639997,0.192002 1.431996,0.288002 2.376,0.288 1.263994,2e-6 2.175993,-0.239997 2.736,-0.72 0.559992,-0.495997 0.839991,-1.151996 0.84,-1.968 -9e-6,-0.527995 -0.112009,-0.967994 -0.336,-1.32 -0.208008,-0.351993 -0.504008,-0.631993 -0.888,-0.84 -0.368007,-0.223993 -0.800007,-0.375993 -1.296,-0.456 -0.480006,-0.09599 -0.992005,-0.143992 -1.536,-0.144 l -0.984,0 0,-2.352 1.2,0 c 0.367995,1e-5 0.735994,-0.03199 1.104,-0.096 0.383994,-0.07999 0.727993,-0.20799 1.032,-0.384 0.303993,-0.191989 0.551992,-0.439989 0.744,-0.744 0.191992,-0.303988 0.287992,-0.695988 0.288,-1.176 -8e-6,-0.383987 -0.07201,-0.711987 -0.216,-0.984 -0.144008,-0.271986 -0.336008,-0.495986 -0.576,-0.672 -0.224007,-0.175986 -0.488007,-0.303986 -0.792,-0.3839999 -0.304006,-0.079985 -0.624006,-0.1199855 -0.96,-0.12 -0.720005,1.45e-5 -1.360004,0.1120144 -1.92,0.3359999 -0.560003,0.208014 -1.056003,0.448014 -1.488,0.72 l -1.056,-2.1599999 c 0.223999,-0.1439842 0.495998,-0.2959841 0.816,-0.456 0.319998,-0.1599837 0.671997,-0.3119836 1.056,-0.456 0.399997,-0.1439833 0.823996,-0.2559832 1.272,-0.336 0.447995,-0.095983 0.919995,-0.143983 1.416,-0.144 0.927993,1.7e-5 1.727993,0.1120169 2.4,0.336 0.671991,0.2240165 1.223991,0.5440162 1.656,0.96 0.44799,0.4000153 0.77599,0.8800149 0.984,1.4399999 0.223989,0.544014 0.335989,1.144013 0.336,1.8 -1.1e-5,0.768012 -0.216011,1.456011 -0.648,2.064 -0.41601,0.60801 -0.960009,1.072009 -1.632,1.392 0.86399,0.304009 1.57599,0.808008 2.136,1.512 0.575989,0.704007 0.863988,1.608006 0.864,2.712 -1.2e-5,0.736004 -0.128012,1.424003 -0.384,2.064 -0.256011,0.624002 -0.648011,1.168002 -1.176,1.632 -0.52801,0.448001 -1.200009,0.808 -2.016,1.08 -0.800007,0.256 -1.760006,0.384 -2.88,0.384"
       id="path3775"
       style="" />
    <path
       id="path3786"
       d="m 55.027998,24.687999 c -0.432005,0 -0.880004,-0.032 -1.344,-0.096 -0.448003,-0.048 -0.880003,-0.12 -1.296,-0.216 -0.400002,-0.08 -0.768002,-0.168 -1.104,-0.264 -0.336001,-0.112 -0.592001,-0.215999 -0.768,-0.312 l 0.576,-2.472 c 0.335998,0.160003 0.823998,0.344003 1.464,0.552 0.639997,0.192002 1.431996,0.288002 2.376,0.288 1.263994,2e-6 2.175993,-0.239997 2.736,-0.72 0.559992,-0.495997 0.839991,-1.151996 0.84,-1.968 -9e-6,-0.527995 -0.112009,-0.967994 -0.336,-1.32 -0.208008,-0.351993 -0.504008,-0.631993 -0.888,-0.84 -0.368007,-0.223993 -0.800007,-0.375993 -1.296,-0.456 -0.480006,-0.09599 -0.992005,-0.143992 -1.536,-0.144 l -0.984,0 0,-2.352 1.2,0 c 0.367995,1e-5 0.735994,-0.03199 1.104,-0.096 0.383994,-0.07999 0.727993,-0.20799 1.032,-0.384 0.303993,-0.191989 0.551992,-0.439989 0.744,-0.744 0.191992,-0.303988 0.287992,-0.695988 0.288,-1.176 -8e-6,-0.383987 -0.07201,-0.711987 -0.216,-0.984 -0.144008,-0.271986 -0.336008,-0.495986 -0.576,-0.672 -0.224007,-0.175986 -0.488007,-0.303986 -0.792,-0.3839999 -0.304006,-0.079985 -0.624006,-0.1199855 -0.96,-0.12 -0.720005,1.45e-5 -1.360004,0.1120144 -1.92,0.3359999 -0.560003,0.208014 -1.056003,0.448014 -1.488,0.72 l -1.056,-2.1599999 c 0.223999,-0.1439842 0.495998,-0.2959841 0.816,-0.456 0.319998,-0.1599837 0.671997,-0.3119836 1.056,-0.456 0.399997,-0.1439833 0.823996,-0.2559832 1.272,-0.336 0.447995,-0.095983 0.919995,-0.143983 1.416,-0.144 0.927993,1.7e-5 1.727993,0.1120169 2.4,0.336 0.671991,0.2240165 1.223991,0.5440162 1.656,0.96 0.44799,0.4000153 0.77599,0.8800149 0.984,1.4399999 0.223989,0.544014 0.335989,1.144013 0.336,1.8 -1.1e-5,0.768012 -0.216011,1.456011 -0.648,2.064 -0.41601,0.60801 -0.960009,1.072009 -1.632,1.392 0.86399,0.304009 1.57599,0.808008 2.136,1.512 0.575989,0.704007 0.863988,1.608006 0.864,2.712 -1.2e-5,0.736004 -0.128012,1.424003 -0.384,2.064 -0.256011,0.624002 -0.648011,1.168002 -1.176,1.632 -0.52801,0.448001 -1.200009,0.808 -2.016,1.08 -0.800007,0.256 -1.760006,0.384 -2.88,0.384"
       style="" />
  </g>
  <rect
     style="fill:#ed0000;fill-opacity:1;stroke:none"
     id="rect3779"
     width="3.7872159"
     height="3.8830948"
     x="56.616482"
     y="46.142136" />
  <path
     style="fill:#ed0000;fill-opacity:1;stroke:none"
     d="m 90.623426,33.921568 14.847454,0 0,9.830508 -14.847454,0 z"
     id="rect3783"
     inkscape:connector-curvature="0" />
  <g
     id="g3788"
     style="font-size:24px;font-style:normal;font-variant:normal;font-weight:500;font-stretch:normal;line-height:125%;letter-spacing:0px;word-spacing:0px;fill:#000000;fill-opacity:1;stroke:none;font-family:Ubuntu;-inkscape-font-specification:Ubuntu Medium"
     transform="translate(42.761983,19.942808)">
    <path
       id="path3790"
       d="m 55.027998,24.687999 c -0.432005,0 -0.880004,-0.032 -1.344,-0.096 -0.448003,-0.048 -0.880003,-0.12 -1.296,-0.216 -0.400002,-0.08 -0.768002,-0.168 -1.104,-0.264 -0.336001,-0.112 -0.592001,-0.215999 -0.768,-0.312 l 0.576,-2.472 c 0.335998,0.160003 0.823998,0.344003 1.464,0.552 0.639997,0.192002 1.431996,0.288002 2.376,0.288 1.263994,2e-6 2.175993,-0.239997 2.736,-0.72 0.559992,-0.495997 0.839991,-1.151996 0.84,-1.968 -9e-6,-0.527995 -0.112009,-0.967994 -0.336,-1.32 -0.208008,-0.351993 -0.504008,-0.631993 -0.888,-0.84 -0.368007,-0.223993 -0.800007,-0.375993 -1.296,-0.456 -0.480006,-0.09599 -0.992005,-0.143992 -1.536,-0.144 l -0.984,0 0,-2.352 1.2,0 c 0.367995,1e-5 0.735994,-0.03199 1.104,-0.096 0.383994,-0.07999 0.727993,-0.20799 1.032,-0.384 0.303993,-0.191989 0.551992,-0.439989 0.744,-0.744 0.191992,-0.303988 0.287992,-0.695988 0.288,-1.176 -8e-6,-0.383987 -0.07201,-0.711987 -0.216,-0.984 -0.144008,-0.271986 -0.336008,-0.495986 -0.576,-0.672 -0.224007,-0.175986 -0.488007,-0.303986 -0.792,-0.3839999 -0.304006,-0.079985 -0.624006,-0.1199855 -0.96,-0.12 -0.720005,1.45e-5 -1.360004,0.1120144 -1.92,0.3359999 -0.560003,0.208014 -1.056003,0.448014 -1.488,0.72 l -1.056,-2.1599999 c 0.223999,-0.1439842 0.495998,-0.2959841 0.816,-0.456 0.319998,-0.1599837 0.671997,-0.3119836 1.056,-0.456 0.399997,-0.1439833 0.823996,-0.2559832 1.272,-0.336 0.447995,-0.095983 0.919995,-0.143983 1.416,-0.144 0.927993,1.7e-5 1.727993,0.1120169 2.4,0.336 0.671991,0.2240165 1.223991,0.5440162 1.656,0.96 0.44799,0.4000153 0.77599,0.8800149 0.984,1.4399999 0.223989,0.544014 0.335989,1.144013 0.336,1.8 -1.1e-5,0.768012 -0.216011,1.456011 -0.648,2.064 -0.41601,0.60801 -0.960009,1.072009 -1.632,1.392 0.86399,0.304009 1.57599,0.808008 2.136,1.512 0.575989,0.704007 0.863988,1.608006 0.864,2.712 -1.2e-5,0.736004 -0.128012,1.424003 -0.384,2.064 -0.256011,0.624002 -0.648011,1.168002 -1.176,1.632 -0.52801,0.448001 -1.200009,0.808 -2.016,1.08 -0.800007,0.256 -1.760006,0.384 -2.88,0.384"
       inkscape:connector-curvature="0" />
    <path
       d="m 55.027998,24.687999 c -0.432005,0 -0.880004,-0.032 -1.344,-0.096 -0.448003,-0.048 -0.880003,-0.12 -1.296,-0.216 -0.400002,-0.08 -0.768002,-0.168 -1.104,-0.264 -0.336001,-0.112 -0.592001,-0.215999 -0.768,-0.312 l 0.576,-2.472 c 0.335998,0.160003 0.823998,0.344003 1.464,0.552 0.639997,0.192002 1.431996,0.288002 2.376,0.288 1.263994,2e-6 2.175993,-0.239997 2.736,-0.72 0.559992,-0.495997 0.839991,-1.151996 0.84,-1.968 -9e-6,-0.527995 -0.112009,-0.967994 -0.336,-1.32 -0.208008,-0.351993 -0.504008,-0.631993 -0.888,-0.84 -0.368007,-0.223993 -0.800007,-0.375993 -1.296,-0.456 -0.480006,-0.09599 -0.992005,-0.143992 -1.536,-0.144 l -0.984,0 0,-2.352 1.2,0 c 0.367995,1e-5 0.735994,-0.03199 1.104,-0.096 0.383994,-0.07999 0.727993,-0.20799 1.032,-0.384 0.303993,-0.191989 0.551992,-0.439989 0.744,-0.744 0.191992,-0.303988 0.287992,-0.695988 0.288,-1.176 -8e-6,-0.383987 -0.07201,-0.711987 -0.216,-0.984 -0.144008,-0.271986 -0.336008,-0.495986 -0.576,-0.672 -0.224007,-0.175986 -0.488007,-0.303986 -0.792,-0.3839999 -0.304006,-0.079985 -0.624006,-0.1199855 -0.96,-0.12 -0.720005,1.45e-5 -1.360004,0.1120144 -1.92,0.3359999 -0.560003,0.208014 -1.056003,0.448014 -1.488,0.72 l -1.056,-2.1599999 c 0.223999,-0.1439842 0.495998,-0.2959841 0.816,-0.456 0.319998,-0.1599837 0.671997,-0.3119836 1.056,-0.456 0.399997,-0.1439833 0.823996,-0.2559832 1.272,-0.336 0.447995,-0.095983 0.919995,-0.143983 1.416,-0.144 0.927993,1.7e-5 1.727993,0.1120169 2.4,0.336 0.671991,0.2240165 1.223991,0.5440162 1.656,0.96 0.44799,0.4000153 0.77599,0.8800149 0.984,1.4399999 0.223989,0.544014 0.335989,1.144013 0.336,1.8 -1.1e-5,0.768012 -0.216011,1.456011 -0.648,2.064 -0.41601,0.60801 -0.960009,1.072009 -1.632,1.392 0.86399,0.304009 1.57599,0.808008 2.136,1.512 0.575989,0.704007 0.863988,1.608006 0.864,2.712 -1.2e-5,0.736004 -0.128012,1.424003 -0.384,2.064 -0.256011,0.624002 -0.648011,1.168002 -1.176,1.632 -0.52801,0.448001 -1.200009,0.808 -2.016,1.08 -0.800007,0.256 -1.760006,0.384 -2.88,0.384"
       id="path3792"
       inkscape:connector-curvature="0" />
  </g>
  <path
     style="fill:#986601;fill-opacity:1;stroke:none"
     d="m 60.474577,65.220337 c 0,8.012809 -6.495665,14.508474 -14.508474,14.508474 -8.01281,0 -11.728814,-6.326173 -11.728814,-14.338982 0,-8.012809 3.716004,-14.677966 11.728814,-14.677966 8.012809,0 14.508474,6.495665 14.508474,14.508474 z"
     id="path3805"
     inkscape:connector-curvature="0"
     sodipodi:nodetypes="sssss" />
  <g
     style="font-size:24px;font-style:normal;font-variant:normal;font-weight:500;font-stretch:normal;line-height:125%;letter-spacing:0px;word-spacing:0px;fill:#ad0000;fill-opacity:1;stroke:none;font-family:Ubuntu;-inkscape-font-specification:Ubuntu Medium"
     id="text3794"
     transform="translate(-27.79661,17.762712)">
    <path
       d="m 70.484946,34.571388 1.2,0 c 0.367994,1e-5 0.735994,-0.03199 1.104,-0.096 0.383993,-0.07999 0.727993,-0.207989 1.032,-0.384 0.303992,-0.191989 0.551992,-0.439989 0.744,-0.744 0.191992,-0.303988 0.287992,-0.695988 0.288,-1.176 -8e-6,-0.383987 -0.07201,-0.711987 -0.216,-0.984 -0.144008,-0.271986 -0.336008,-0.495986 -0.576,-0.672 -0.224007,-0.175986 -0.488007,-0.303985 -0.792,-0.384 -0.304007,-0.07999 -0.624006,-0.119985 -0.96,-0.12 -0.720005,1.5e-5 -1.360005,0.112015 -1.92,0.336 -0.560003,0.208014 -1.056003,0.448014 -1.488,0.72 l -1.056,-2.16 c 0.223998,-0.143984 0.495998,-0.295984 0.816,-0.456 0.319997,-0.159983 0.671997,-0.311983 1.056,-0.456 0.399996,-0.143983 0.823996,-0.255983 1.272,-0.336 0.447995,-0.09598 0.919994,-0.143983 1.416,-0.144 0.927993,1.7e-5 1.727992,0.112017 2.4,0.336 0.671991,0.224017 1.22399,0.544016 1.656,0.96 0.447989,0.400016 0.775989,0.880015 0.984,1.44 0.223989,0.544014 0.335989,1.144013 0.336,1.8 -1.1e-5,0.768012 -0.216011,1.456011 -0.648,2.064 -0.41601,0.60801 -0.96001,1.07201 -1.632,1.392"
       id="path3803"
       inkscape:connector-curvature="0"
       sodipodi:nodetypes="ccccscccccccccccccccccc" />
  </g>
  <path
     transform="matrix(1.0896832,0,0,1.0896832,-69.753732,-11.399713)"
     d="m 33.269974,25.144659 a 9.635828,9.635828 0 1 1 -19.271656,0 9.635828,9.635828 0 1 1 19.271656,0 z"
     sodipodi:ry="9.635828"
     sodipodi:rx="9.635828"
     sodipodi:cy="25.144659"
     sodipodi:cx="23.634146"
     id="path3813"
     style="fill:#fb8b00;fill-opacity:1;stroke:none"
     sodipodi:type="arc" />
  <text
     sodipodi:linespacing="125%"
     id="text3817"
     y="24.327999"
     x="-50.636002"
     style="font-size:24px;font-style:normal;font-variant:normal;font-weight:500;font-stretch:normal;line-height:125%;letter-spacing:0px;word-spacing:0px;fill:#000000;fill-opacity:1;stroke:none;font-family:Ubuntu;-inkscape-font-specification:Ubuntu Medium"
     xml:space="preserve"><tspan
       y="24.327999"
       x="-50.636002"
       id="tspan3819"
       sodipodi:role="line">3</tspan></text>
  <path
     id="path3942"
     d="m 16,-54.5 c -5.79899,0 -10.5,4.70101 -10.5,10.5 0,5.79899 4.70101,10.5 10.5,10.5 l 0,-21 z"
     style="fill:#fb8b00;fill-opacity:1;stroke:none"
     inkscape:connector-curvature="0" />
  <text
     sodipodi:linespacing="125%"
     id="text3944"
     y="-36.701561"
     x="10.184383"
     style="font-size:21.03297043px;font-style:normal;font-variant:normal;font-weight:500;font-stretch:normal;line-height:125%;letter-spacing:0px;word-spacing:0px;fill:#000000;fill-opacity:1;stroke:none;font-family:Ubuntu;-inkscape-font-specification:Ubuntu Medium"
     xml:space="preserve"><tspan
       y="-36.701561"
       x="10.184383"
       id="tspan3946"
       sodipodi:role="line">3</tspan></text>
  <path
     inkscape:connector-curvature="0"
     style="fill:#fb8b00;fill-opacity:1;stroke:none"
     d="m 25.5,-54.5 c 5.79899,0 10.5,4.70101 10.5,10.5 0,5.79899 -4.70101,10.5 -10.5,10.5 l 0,-21 z"
     id="path3948" />
  <path
     style="font-size:medium;font-style:normal;font-variant:normal;font-weight:normal;font-stretch:normal;text-indent:0;text-align:start;text-decoration:none;line-height:normal;letter-spacing:normal;word-spacing:normal;text-transform:none;direction:ltr;block-progression:tb;writing-mode:lr-tb;text-anchor:start;baseline-shift:baseline;color:#000000;fill:#444444;fill-opacity:1;stroke:none;stroke-width:0.50000000000000000;marker:none;visibility:visible;display:inline;overflow:visible;enable-background:accumulate;font-family:Sans;-inkscape-font-specification:Sans"
     d="m 15.98574,2.0423322 c -7.7173246,0 -13.9687504,6.2514258 -13.9687504,13.9687498 0,7.717324 6.2514258,13.96875 13.9687504,13.96875 7.717324,0 14,-6.251426 14,-13.96875 0,-7.717324 -6.282676,-13.9687498 -14,-13.9687498 z m 0,0.5 c 7.447104,0 13.5,6.0216459 13.5,13.4687498 0,7.447104 -6.052896,13.46875 -13.5,13.46875 -7.4471045,0 -13.4687504,-6.021646 -13.4687504,-13.46875 0,-7.4471039 6.0216459,-13.4687498 13.4687504,-13.4687498 z"
     id="path3005"
     inkscape:connector-curvature="0" />
  <path
     style="fill:#444444"
     d="M 16 1 C 12.161239 1 8.335329 2.4771708 5.40625 5.40625 C -0.45190897 11.264409 -0.45190897 20.735591 5.40625 26.59375 C 11.264409 32.451908 20.735591 32.451908 26.59375 26.59375 C 26.604343 26.583157 26.614445 26.573116 26.625 26.5625 L 24.65625 24.59375 C 24.645687 24.60439 24.635611 24.614389 24.625 24.625 C 19.865287 29.384712 12.134713 29.384712 7.375 24.625 C 2.615287 19.865287 2.615287 12.134713 7.375 7.375 C 9.754857 4.9951438 12.880996 3.8125 16 3.8125 L 16 1 z "
     id="path3007" />
  <path
     sodipodi:nodetypes="csccssccsccccccccccccccsccccccscscccccsccccccccscccccccccccccc"
     inkscape:connector-curvature="0"
     id="path3012"
     d="m -15.217691,71.940678 c -5.784339,0.01718 -10.46875,4.711633 -10.46875,10.5 0,5.788367 4.684411,10.48282 10.46875,10.5 0.01062,3.2e-5 0.02063,0 0.03125,0 5.7843394,-0.01718 10.4687504,-4.711633 10.4687504,-10.5 0,-5.788367 -4.684411,-10.48282 -10.4687504,-10.5 -0.01062,-3.2e-5 -0.02063,0 -0.03125,0 z m -0.5,2.875 c 0.180398,3e-6 0.333234,0.02004 0.5,0.03125 0.01038,6.98e-4 0.02075,-6.39e-4 0.03125,0 0.581353,0.03545 1.112601,0.131297 1.5625,0.28125 0.588915,0.196322 1.090148,0.479193 1.46875,0.84375 0.392606,0.350563 0.661455,0.759244 0.84375,1.25 0.196298,0.476759 0.31249,1.01886 0.3125,1.59375 -10e-6,0.673065 -0.215166,1.248424 -0.59375,1.78125 -0.364581,0.532844 -0.817335,0.938319 -1.40625,1.21875 0.757178,0.266425 1.384221,0.72679 1.875,1.34375 0.504781,0.616973 0.749989,1.407489 0.75,2.375 -1.1e-5,0.645015 -0.119409,1.251624 -0.34375,1.8125 -0.224362,0.546859 -0.568534,1.030864 -1.03125,1.4375 -0.462734,0.392616 -1.034887,0.699127 -1.75,0.9375 -0.480696,0.153821 -1.073432,0.233699 -1.6875,0.28125 -0.01066,8.25e-4 -0.02058,-8.07e-4 -0.03125,0 -0.268536,0.02253 -0.515606,0.0625 -0.8125,0.0625 -0.378598,0 -0.780867,-0.03766 -1.1875,-0.09375 -0.392619,-0.04207 -0.760432,-0.103368 -1.125,-0.1875 -0.350552,-0.07011 -0.67429,-0.165868 -0.96875,-0.25 -0.294463,-0.09815 -0.533259,-0.165868 -0.6875,-0.25 l 0.5,-2.1875 c 0.29446,0.140222 0.720369,0.317717 1.28125,0.5 0.560876,0.168266 1.266449,0.250002 2.09375,0.25 0.331602,10e-7 0.630104,-0.02468 0.90625,-0.0625 0.0109,-0.0015 0.02043,0.0015 0.03125,0 0.632803,-0.08957 1.130083,-0.272217 1.46875,-0.5625 0.490762,-0.434678 0.718742,-1.003625 0.71875,-1.71875 -8e-6,-0.462721 -0.08495,-0.847761 -0.28125,-1.15625 -0.182293,-0.308478 -0.44473,-0.567708 -0.78125,-0.75 -0.322512,-0.196301 -0.690325,-0.336134 -1.125,-0.40625 -0.0098,-0.002 -0.02141,0.0019 -0.03125,0 -0.412022,-0.08019 -0.846882,-0.124993 -1.3125,-0.125 l -0.875,0 0,-2.0625 1.0625,0 c 0.322501,9e-6 0.646239,-0.0064 0.96875,-0.0625 0.05721,-0.01192 0.10328,-0.04481 0.15625,-0.0625 0.0095,-0.0025 0.02181,0.0025 0.03125,0 0.259246,-0.06852 0.505388,-0.15772 0.71875,-0.28125 0.266411,-0.168254 0.456729,-0.389823 0.625,-0.65625 0.168256,-0.266408 0.249993,-0.61058 0.25,-1.03125 -7e-6,-0.336516 -0.06131,-0.636615 -0.1875,-0.875 -0.126205,-0.238362 -0.289677,-0.439496 -0.5,-0.59375 -0.196314,-0.154229 -0.421089,-0.242378 -0.6875,-0.3125 -0.07264,-0.01911 -0.144209,-0.04721 -0.21875,-0.0625 -0.0099,-0.0018 -0.02132,0.0018 -0.03125,0 -0.190624,-0.03413 -0.39013,-0.06249 -0.59375,-0.0625 -0.630994,1.3e-5 -1.196735,0.116205 -1.6875,0.3125 -0.490772,0.182298 -0.902659,0.386638 -1.28125,0.625 l -0.9375,-1.90625 c 0.196306,-0.126184 0.438309,-0.234766 0.71875,-0.375 0.280437,-0.140206 0.56972,-0.280038 0.90625,-0.40625 0.350546,-0.126183 0.732381,-0.242376 1.125,-0.3125 0.392611,-0.08412 0.815314,-0.124985 1.25,-0.125 z"
     style="fill:#444444;fill-opacity:1;stroke:none" />
  <path
     transform="translate(-27.294451,68.10801)"
     d="m 25.830508,14.338984 a 13.728813,13.728813 0 1 1 -27.4576261,0 13.728813,13.728813 0 1 1 27.4576261,0 z"
     sodipodi:ry="13.728813"
     sodipodi:rx="13.728813"
     sodipodi:cy="14.338984"
     sodipodi:cx="12.101695"
     id="path3014"
     style="fill:none;stroke:#000000;stroke-width:0.5;stroke-miterlimit:4;stroke-opacity:1;stroke-dasharray:none"
     sodipodi:type="arc" />
  <path
     id="path3016"
     d="m -15.192756,67.446994 c -3.838761,0 -7.664671,1.47717 -10.59375,4.40625 -5.858159,5.858159 -5.858159,15.329341 0,21.1875 5.858159,5.858158 15.329341,5.858158 21.1875004,0 2.929079,-2.92908 4.40624995,-6.754989 4.40624995,-10.59375 l -2.81249995,0 c 0,3.119004 -1.182644,6.245143 -3.5625,8.625 -4.7597134,4.759712 -12.4902874,4.759712 -17.2500004,0 -4.759713,-4.759713 -4.759713,-12.490287 0,-17.25 2.379857,-2.379857 5.505996,-3.5625 8.625,-3.5625 l 0,-2.8125 z"
     style="fill:#444444"
     inkscape:connector-curvature="0" />
  <path
     sodipodi:nodetypes="ccccc"
     inkscape:connector-curvature="0"
     id="path3018"
     d="m -15.186441,66.440678 16.00000035,0 0,31.864407 L -15.186441,82.440678 z"
     style="fill:#d40000;fill-opacity:1;stroke:none" />
</svg>
