<?xml version="1.0" encoding="UTF-8" standalone="no"?>
<svg
   xmlns:dc="http://purl.org/dc/elements/1.1/"
   xmlns:cc="http://creativecommons.org/ns#"
   xmlns:rdf="http://www.w3.org/1999/02/22-rdf-syntax-ns#"
   xmlns:svg="http://www.w3.org/2000/svg"
   xmlns="http://www.w3.org/2000/svg"
   xmlns:sodipodi="http://sodipodi.sourceforge.net/DTD/sodipodi-0.dtd"
   xmlns:inkscape="http://www.inkscape.org/namespaces/inkscape"
   version="1.1"
   x="0px"
   y="0px"
   viewBox="0 0 32 32"
   enable-background="new 0 0 100 100"
   xml:space="preserve"
   id="svg2"
   inkscape:version="0.48.4 r9939"
   width="100%"
   height="100%"
   sodipodi:docname="drums.svg"><metadata
     id="metadata10"><rdf:RDF><cc:Work
         rdf:about=""><dc:format>image/svg+xml</dc:format><dc:type
           rdf:resource="http://purl.org/dc/dcmitype/StillImage" /></cc:Work></rdf:RDF></metadata><defs
     id="defs8" /><sodipodi:namedview
     pagecolor="#ffffff"
     bordercolor="#666666"
     borderopacity="1"
     objecttolerance="10"
     gridtolerance="10"
     guidetolerance="10"
     inkscape:pageopacity="0"
     inkscape:pageshadow="2"
     inkscape:window-width="1163"
     inkscape:window-height="635"
     id="namedview6"
     showgrid="false"
     inkscape:zoom="2.8284271"
     inkscape:cx="5.9257841"
     inkscape:cy="29.104609"
     inkscape:window-x="299"
     inkscape:window-y="99"
     inkscape:window-maximized="0"
     inkscape:current-layer="svg2" /><path
     d="m 26.773286,-18.638049 c 0.526844,-0.981708 0.704092,-1.94029 0.499019,-2.893306 -0.197975,0.525977 -0.496519,1.082278 -0.810221,1.588297 l -0.129261,-0.701592 c 0.316105,-0.589025 0.581931,-1.162885 0.732014,-1.75671 l -0.959154,-4.181627 c -0.175614,0.327237 -0.383948,0.636915 -0.59229,0.946586 l -0.09894,-0.601021 c 0.399115,-0.586625 0.664936,-1.160489 0.782301,-1.771874 0.07984,-0.462929 0.07668,-0.928257 -0.05979,-1.380822 l 2.75848,-0.584894 0.736714,-0.194709 c 0.150855,-0.04549 0.268987,-0.108534 0.30411,-0.173982 0,0 0,0 0,0 0.102968,-0.113336 0.140492,-0.261789 0.112566,-0.445368 -0.05825,-0.284149 -0.284915,-0.490087 -0.53634,-0.414276 0,0 0,0 0,0 -0.03273,-0.01756 -0.417443,0.07101 -0.467729,0.08617 0,0 -1.305011,0.311208 -3.311615,0.751678 -0.206696,-0.321669 -0.430963,-0.610616 -0.705515,-0.884402 -0.181945,-0.60342 -0.565033,-1.146192 -1.083812,-1.593192 l 6.730232,-2.331043 0.688827,-0.262556 c 0.118131,-0.06305 0.253826,-0.158819 0.288948,-0.224267 0,0 0,0 0,0 0.07025,-0.130894 0.107763,-0.279352 0.02956,-0.447766 -0.07581,-0.251425 -0.352762,-0.442202 -0.604187,-0.366391 0,0 0,0 0,0 -0.03272,-0.01756 -0.40228,0.121297 -0.452565,0.13646 0,0 -3.426581,1.280054 -7.64256,2.852988 -1.095044,-0.629813 -2.511757,-1.05292 -4.167131,-1.266922 l -0.01033,-0.216303 c -0.02792,-0.183579 -0.141257,-0.286548 -0.274552,-0.273785 -0.133293,0.01276 -0.188376,0.193943 -0.175613,0.327236 l -0.0024,0.08301 c -2.120726,-0.210837 -4.58546,-0.01623 -7.112474,0.608588 -0.585861,0.149223 -1.171719,0.298445 -1.7248552,0.46523 l -0.03034,-0.10057 c -0.02792,-0.183576 -0.141255,-0.286544 -0.274548,-0.273782 -0.133294,0.01276 -0.188377,0.193943 -0.175614,0.327236 l 0.04549,0.150855 c -3.238204,1.086111 -5.861856,2.754917 -7.376072,4.555481 l 0.05028,-0.01516 c -0.02793,-0.183579 -0.141258,-0.286547 -0.274551,-0.273785 -0.133294,0.01276 -0.188377,0.193942 -0.175615,0.327236 l 0.07101,0.417441 c -0.89879801,1.203577 -1.25166001,2.489394 -0.98593801,3.643552 0,0 0.01516,0.05028 0.01516,0.05028 -0.16765,0.626547 -0.169282,1.257893 -0.02006,1.843752 0.06065,0.20114 0.121298,0.40228 0.232231,0.588259 0.96568001,1.65624 3.26113201,2.719523 6.22468501,3.087646 l 0.05345,0.450166 c -2.218873,-0.263525 -4.045829,-0.864646 -5.330015,-1.848853 l 1.084479,3.86955 c 0.96808,1.573232 2.780642,2.672404 5.123212,3.255196 0,0 -0.01756,0.03273 0.01515,0.05028 l 0.08618,0.467727 c -2.063219,-0.475017 -3.764847,-1.388212 -4.875817,-2.616647 l 0.09097,0.301711 0,0 c 0.48039,1.775138 2.356,2.992443 4.997881,3.567271 l 0.04549,0.150855 c 0.02792,0.183579 0.141258,0.286548 0.274552,0.273785 0.133294,-0.01276 0.188377,-0.193942 0.175614,-0.327236 2.3473692,0.416776 5.1920242,0.29961 8.1867662,-0.41138 0.636144,-0.164385 1.239565,-0.346331 1.810262,-0.545839 0.04549,0.150856 0.15882,0.253825 0.25939,0.2235 0.133293,-0.01276 0.188377,-0.193943 0.175614,-0.327237 l -0.01517,-0.05028 c 3.474467,-1.212208 6.155602,-3.1452 7.460713,-5.184428 0.03032,0.100566 0.128495,0.153254 0.229065,0.122931 0.133293,-0.01276 0.188377,-0.193943 0.175615,-0.327237 l -0.09096,-0.301708 z m -1.722822,-7.078194 0.08378,0.550735 c -0.361593,0.438171 -0.806195,0.873942 -1.30108,1.324873 -1.670636,1.463733 -3.915135,2.661644 -6.416625,3.553047 l -0.07101,-0.417443 c 0,0 0,0 -0.01517,-0.05028 3.456906,-1.179484 6.201088,-2.994345 7.720103,-4.960928 z m -23.8666722,0.805569 c -0.72615101,-3.045028 4.012739,-6.613336 10.4547892,-8.171775 4.015606,-0.963948 7.735834,-0.906267 10.169378,-0.02176 -6.383036,2.390926 -13.8571792,5.165703 -13.9074642,5.180865 -0.268987,0.108535 -0.806961,0.325603 -1.950753,0.807628 0,0 0,0 0,0 -0.08061,-0.0854 -0.196342,-0.105371 -0.296912,-0.07505 -0.150855,0.04549 -0.575495,0.365524 -0.499684,0.61695 0.06065,0.20114 0.608986,0.200373 0.727117,0.137325 0.150855,-0.04549 0.221101,-0.176381 0.241061,-0.292114 0.367156,-0.05585 1.036025,-0.202673 2.177419,-0.601689 L 23.036293,-32.48716 c 0.815691,0.522046 1.344834,1.185348 1.554705,1.972346 0.01276,0.133294 0.02552,0.266588 0.03829,0.399882 -6.874656,1.579167 -19.1681012,4.380804 -19.2183852,4.395967 -0.28415,0.05825 -0.837285,0.225034 -2.041727,0.505917 0,0 0,0 0,0 -0.08061,-0.0854 -0.178782,-0.138087 -0.279348,-0.107773 -0.150855,0.04549 -0.623381,0.297679 -0.580294,0.531543 0.04309,0.233863 0.573861,0.265825 0.707157,0.253057 0.133293,-0.01276 0.236263,-0.126095 0.273785,-0.274551 0.38232,-0.0056 1.048788,-0.06938 2.235668,-0.31754 l 18.8065072,-3.942635 c -0.725683,2.687369 -4.87948,5.558117 -10.300668,6.863597 -6.4923362,1.573601 -12.2893132,0.359264 -13.0481892,-2.703324 z m 6.206157,6.028072 -0.07101,-0.417442 c 1.690498,0.148554 3.6196572,0.08801 5.6063002,-0.236733 0.651306,-0.114099 1.269889,-0.245761 1.938757,-0.392584 0.719153,-0.161985 1.390421,-0.391816 2.044126,-0.588925 l 0.07101,0.417442 c -0.671266,0.229832 -1.324972,0.42694 -2.044125,0.588925 -0.636144,0.164386 -1.305011,0.311209 -1.938756,0.392585 -2.019367,0.307177 -3.9158032,0.385287 -5.6063012,0.236732 z m 9.1306552,5.447977 c -0.636144,0.164384 -1.254728,0.296045 -1.906033,0.410145 -2.270792,0.382987 -4.413855,0.370892 -6.2807332,0.0013 l -0.101337,-0.518012 c 1.8668772,0.369657 3.9923792,0.414476 6.2631712,0.03148 0.601021,-0.09894 1.219603,-0.2306 1.855748,-0.394983 0.636144,-0.164386 1.206841,-0.363893 1.777538,-0.563401 l 0.06862,0.500451 c -0.520413,0.184345 -1.09111,0.383854 -1.676969,0.533077 z m 8.492706,-4.672748 c -1.609986,1.664872 -3.808998,3.01364 -6.295326,3.955326 l -0.08617,-0.467727 c 0,0 0,0 0,0 3.293287,-1.267291 5.908976,-3.235406 7.367341,-5.403129 l 0.1141,0.651306 c -0.344031,0.405446 -0.705623,0.843615 -1.09994,1.264224 z"
     id="path4"
     inkscape:connector-curvature="0"
     style="fill:#444444;fill-opacity:1" /><path
     style="fill:#444444;fill-opacity:1"
     inkscape:connector-curvature="0"
     id="path3056"
     d="m 27.550635,21.684789 c 0.300898,-0.560687 0.472928,-0.988552 0.523046,-1.612439 0.03965,-0.493585 -2.89e-4,-1.058249 -0.09296,-1.488869 -0.202526,0.538066 -0.547891,1.147113 -0.868803,1.664762 l -0.2706,-0.821614 c 0.32337,-0.602563 0.685726,-1.189613 0.839258,-1.797086 l -0.933247,-3.966048 c -0.17965,0.334758 -0.392773,0.651554 -0.605903,0.968342 l -0.149167,-0.926525 c 0.408289,-0.600108 0.680219,-1.187162 0.800282,-1.812599 0.08168,-0.473569 0.125315,-0.840217 -0.01429,-1.303184 L 29.58451,9.959942 30.338157,9.7607577 c 0.154322,-0.046534 0.275169,-0.1110284 0.311099,-0.177981 l 0,0 C 30.754591,9.4668363 30.761728,9.2368457 30.73316,9.0490476 30.673571,8.758368 30.441696,8.5476964 30.184492,8.6252498 l 0,0 c -0.03348,-0.017969 -0.427037,0.072641 -0.478479,0.088153 0,0 -1.335006,0.3183606 -3.38773,0.7689545 C 26.106837,9.1532947 25.877415,8.8577063 25.596553,8.5776282 25.410426,7.9603386 25.018533,7.4050915 24.48783,6.9478174 l 6.184166,-2.1811748 0.70466,-0.2685907 c 0.120846,-0.064498 0.25966,-0.1624698 0.295589,-0.2294212 l 0,0 c 0.07186,-0.1339029 0.11024,-0.2857734 0.03024,-0.4580585 C 31.624932,3.5533685 31.341614,3.358207 31.08441,3.4357606 l 0,0 C 31.05094,3.4177976 30.672884,3.5598459 30.621444,3.5753567 27.398865,4.6603023 26.193686,5.1990158 23.32277,6.189633 22.229176,5.6008244 20.844578,5.2017291 19.241072,4.9944323 L 19.230504,4.7731582 C 19.201943,4.5853599 19.086001,4.4800244 18.949642,4.4930804 18.813285,4.5061378 18.756936,4.6914807 18.769993,4.8278379 l -0.0025,0.084914 C 16.598024,4.6970691 14.076641,4.8961519 11.491545,5.5353279 10.892219,5.6879804 10.292896,5.8406319 9.7270461,6.01125 L 9.6960527,5.9083688 C 9.667491,5.7205734 9.5515511,5.6152382 9.4151945,5.6282938 9.2788368,5.6413491 9.2224878,5.8266944 9.2355442,5.9630509 l 0.046536,0.1543229 C 5.9694484,7.2284481 3.2854941,8.9356101 1.7364752,10.777558 l 0.051436,-0.01551 C 1.7593392,10.574249 1.6434065,10.468915 1.5070499,10.48197 1.3706923,10.49502 1.3143432,10.68037 1.3273985,10.816727 l 0.072642,0.427036 c -0.91945605,1.23124 -1.28042827,2.54661 -1.00859888,3.727296 l 0.0155084,0.05143 c -0.17150329,0.640948 -0.1731728,1.286805 -0.0205211,1.886129 0.062044,0.205763 0.12408593,0.411526 0.23756863,0.60178 0.98787525,1.694307 3.16825345,2.782029 6.19992105,3.158613 l 0.099884,0.731772 C 4.6539307,21.13121 2.9528166,20.516273 1.6391147,19.509445 l 1.0482109,3.287625 c 0.9903305,1.609392 2.6863179,2.948857 5.0827298,3.545044 0.030649,0.140656 0.1758154,0.706408 0.2100629,0.881484 C 5.869478,26.737663 4.1965545,25.636481 3.0600499,24.379812 l 0.093061,0.308645 0.04521,0.31647 c 0.4914313,1.815938 2.3514419,3.193803 5.0540442,3.781843 0.1408033,0.698056 0.3310467,0.556426 0.5617733,0.567375 0.2307266,0.01095 0.3285517,-0.218862 0.2685939,-0.467732 2.4013207,0.426355 5.0974437,0.145209 8.1610167,-0.582172 0.650766,-0.168163 1.057119,-0.299604 1.640933,-0.503698 0.02689,0.180508 0.09097,0.349954 0.415684,0.290745 0.324709,-0.05921 0.351589,-0.411197 0.27161,-0.518618 3.554325,-1.240069 6.206603,-3.024499 7.541711,-5.110596 0.03102,0.102877 0.160965,0.19489 0.263847,0.16387 0.158447,0.03113 0.373787,-0.262785 0.321386,-0.477834 z m -2.026633,-7.366398 0.133658,0.875083 c -0.369904,0.448242 -0.72882,0.814108 -1.23508,1.275403 -1.709034,1.497376 -3.860128,2.745425 -6.419112,3.657316 -0.07618,-0.247393 -0.105144,-0.584816 -0.168082,-0.790163 3.53636,-1.206594 6.134685,-3.005852 7.688616,-5.017639 z M 1.2046799,15.062554 C 0.46183899,11.947539 5.3096482,8.2972169 11.899763,6.7029586 16.007664,5.7168548 19.702914,5.7427162 22.19239,6.647549 c -2.647636,0.9917382 -4.814151,1.6453016 -6.18048,2.1078195 -2.003385,0.6781689 -5.381694,1.9449995 -5.412276,1.9542205 -0.27517,0.11103 -3.415868,1.112075 -4.585949,1.605179 l 0,0 c -0.082463,-0.08736 -0.2008548,-0.107793 -0.3037363,-0.07677 -0.1600363,0.0251 -0.6954678,0.340616 -0.60724,0.786708 0.048469,0.245065 0.7651698,0.332343 0.9063865,0.233895 0.1543223,-0.04654 0.2261828,-0.180435 0.2466016,-0.298828 0.3755947,-0.05713 3.9689482,-1.119831 5.1365762,-1.528018 L 22.74185,7.6654792 c 0.03636,0.02327 0.889755,-0.306738 0.924999,-0.2829203 0.773586,0.5227853 1.277691,1.1770397 1.483031,1.9470455 0.01305,0.1363574 0.02611,0.2727154 0.03917,0.4090728 C 18.156386,11.35414 5.5803871,14.22017 5.5289474,14.235681 5.2382664,14.29527 5.158554,14.3775 3.926429,14.664838 l 0,0 c -0.082463,-0.08736 -0.1828912,-0.14126 -0.2857686,-0.11025 -0.1853501,0.0078 -0.728621,0.357001 -0.6027844,0.698439 0.017289,0.306216 0.5752153,0.440416 0.7436117,0.347263 0.1363567,-0.01305 0.2495058,-0.08993 0.2878902,-0.2418 0.3911073,-0.07561 4.0678966,-0.76113 5.282056,-1.010998 C 14.480766,13.425425 19.695806,12.316317 25.074567,10.978536 24.332205,13.727672 20.098561,16.492527 14.552772,17.828012 7.9112155,19.437781 1.9810001,18.195533 1.2046799,15.062554 z m 6.4899146,6.42989 -0.1178518,-0.698296 c 1.7293526,0.151969 3.6069473,0.09802 5.6392513,-0.234182 1.385758,-0.208763 2.715964,-0.596231 3.914585,-1.012061 l 0.14982,0.722272 c -1.334586,0.479156 -2.622786,0.751422 -3.946551,0.988086 -2.065781,0.314237 -3.9098998,0.386151 -5.6392535,0.234181 z m 9.1994005,5.309926 c -0.650765,0.168162 -1.283567,0.30285 -1.949841,0.419572 -2.179042,0.247848 -4.088565,0.457226 -6.0872857,0.168085 L 8.7001452,26.545998 c 2.0186638,0.34186 4.0335308,0.206758 6.1220178,-0.106876 0.614835,-0.101214 1.247634,-0.2359 1.898401,-0.404061 0.650765,-0.168164 1.027145,-0.345326 1.610959,-0.549417 l 0.142125,0.795433 C 17.941274,26.46966 17.493325,26.649779 16.894,26.802432 z m 8.687904,-4.780147 c -1.646991,1.703138 -3.68076,3.042946 -6.224234,4.006276 -0.06013,-0.262386 -0.121162,-0.577905 -0.165328,-0.842899 3.36898,-1.296418 5.677389,-3.074357 7.169273,-5.291903 l 0.2777,0.982177 c -0.351938,0.414765 -0.654026,0.716073 -1.057411,1.146349 z"
     sodipodi:nodetypes="cscccccccccccccccccccccccccccccccccccccsccccccccccccccccccccczccczccccccccccccccsccccsccccscccccccccccccccccccccccccscccccccccc" /></svg>