<?xml version="1.0" encoding="UTF-8" standalone="no"?>
<svg
   xmlns:dc="http://purl.org/dc/elements/1.1/"
   xmlns:cc="http://creativecommons.org/ns#"
   xmlns:rdf="http://www.w3.org/1999/02/22-rdf-syntax-ns#"
   xmlns:svg="http://www.w3.org/2000/svg"
   xmlns="http://www.w3.org/2000/svg"
   xmlns:sodipodi="http://sodipodi.sourceforge.net/DTD/sodipodi-0.dtd"
   xmlns:inkscape="http://www.inkscape.org/namespaces/inkscape"
   version="1.1"
   x="0px"
   y="0px"
   viewBox="0 0 32 32"
   enable-background="new 0 0 100 100"
   xml:space="preserve"
   id="svg2"
   inkscape:version="0.48.4 r9939"
   width="100%"
   height="100%"
   sodipodi:docname="drums.svg"><metadata
     id="metadata10"><rdf:RDF><cc:Work
         rdf:about=""><dc:format>image/svg+xml</dc:format><dc:type
           rdf:resource="http://purl.org/dc/dcmitype/StillImage" /></cc:Work></rdf:RDF></metadata><defs
     id="defs8" /><sodipodi:namedview
     pagecolor="#ffffff"
     bordercolor="#666666"
     borderopacity="1"
     objecttolerance="10"
     gridtolerance="10"
     guidetolerance="10"
     inkscape:pageopacity="0"
     inkscape:pageshadow="2"
     inkscape:window-width="1163"
     inkscape:window-height="635"
     id="namedview6"
     showgrid="false"
     inkscape:zoom="9.44"
     inkscape:cx="-1.4089559"
     inkscape:cy="14.91619"
     inkscape:window-x="0"
     inkscape:window-y="25"
     inkscape:window-maximized="0"
     inkscape:current-layer="svg2" /><path
     d="m 26.773288,21.361951 c 0.526844,-0.981708 0.704092,-1.94029 0.499019,-2.893306 -0.197975,0.525977 -0.496519,1.082278 -0.810221,1.588297 L 26.332825,19.35535 c 0.316105,-0.589025 0.581931,-1.162885 0.732014,-1.75671 l -0.959154,-4.181627 c -0.175614,0.327237 -0.383948,0.636915 -0.59229,0.946586 l -0.09894,-0.601021 c 0.399115,-0.586625 0.664936,-1.160489 0.782301,-1.771874 0.07984,-0.462929 0.07668,-0.928257 -0.05979,-1.380822 l 2.75848,-0.584894 0.736714,-0.194709 c 0.150855,-0.045489 0.268987,-0.1085339 0.30411,-0.1739822 0,0 0,0 0,0 0.102968,-0.1133355 0.140492,-0.261789 0.112566,-0.4453677 -0.05825,-0.2841487 -0.284915,-0.490087 -0.53634,-0.4142761 0,0 0,0 0,0 -0.03273,-0.017565 -0.417443,0.071009 -0.467729,0.086172 0,0 -1.305011,0.3112078 -3.311615,0.7516779 C 25.526456,9.312834 25.302189,9.0238868 25.027637,8.7501014 24.845692,8.1466809 24.462604,7.6039089 23.943825,7.1569087 l 6.730232,-2.3310426 0.688827,-0.262556 c 0.118131,-0.063049 0.253826,-0.1588195 0.288948,-0.2242667 0,0 0,0 0,0 0.07025,-0.1308944 0.107763,-0.2793527 0.02956,-0.4477669 -0.07581,-0.251425 -0.352762,-0.4422016 -0.604187,-0.3663905 0,0 0,0 0,0 -0.03272,-0.017559 -0.40228,0.1212974 -0.452565,0.1364597 0,0 -3.426581,1.2800539 -7.64256,2.8529879 C 21.887036,5.8845214 20.470323,5.4614139 18.814949,5.2474117 L 18.804623,5.0311092 C 18.7767,4.8475303 18.663366,4.7445614 18.530071,4.7573241 18.396778,4.7700877 18.341695,4.9512668 18.354458,5.0845603 l -0.0024,0.083006 C 16.231332,4.9567294 13.766598,5.1513389 11.239584,5.7761544 10.653723,5.9253772 10.067865,6.074599 9.5147292,6.2413837 L 9.4843862,6.1408142 C 9.4564642,5.9572381 9.3431312,5.8542695 9.2098382,5.8670318 9.076544,5.8797941 9.0214607,6.0609748 9.0342235,6.1942677 l 0.045486,0.1508556 C 5.8415061,7.4312343 3.2178535,9.1000402 1.7036377,10.900604 l 0.050278,-0.01516 C 1.72599,10.701865 1.6126581,10.598897 1.4793644,10.611659 1.3460706,10.624419 1.2909873,10.805601 1.3037502,10.938895 l 0.071011,0.417441 c -0.89879859,1.203577 -1.25166066,2.489394 -0.98593839,3.643552 0,0 0.01516,0.05028 0.01516,0.05028 -0.1676499,0.626547 -0.1692821,1.257893 -0.020061,1.843752 0.060649,0.20114 0.1212976,0.40228 0.232231,0.588259 0.96568029,1.65624 3.26113209,2.719523 6.22468469,3.087646 l 0.05345,0.450166 C 4.675415,20.756468 2.8484585,20.155347 1.5642732,19.17114 l 1.0844788,3.86955 c 0.9680801,1.573232 2.7806415,2.672404 5.1232119,3.255196 0,0 -0.017564,0.03273 0.015154,0.05028 l 0.086175,0.467727 C 5.8100742,26.338876 4.1084462,25.425681 2.9974754,24.197246 l 0.090974,0.301711 0,0 c 0.4803906,1.775138 2.356,2.992443 4.9978817,3.567271 l 0.045486,0.150855 c 0.027924,0.183579 0.1412576,0.286548 0.2745519,0.273785 0.1332938,-0.01276 0.1883766,-0.193942 0.1756142,-0.327236 2.3473688,0.416776 5.1920238,0.29961 8.1867658,-0.41138 0.636144,-0.164385 1.239565,-0.346331 1.810262,-0.545839 0.04549,0.150856 0.15882,0.253825 0.25939,0.2235 0.133293,-0.01276 0.188377,-0.193943 0.175614,-0.327237 l -0.01517,-0.05028 c 3.474467,-1.212208 6.155602,-3.1452 7.460713,-5.184428 0.03032,0.100566 0.128495,0.153254 0.229065,0.122931 0.133293,-0.01276 0.188377,-0.193943 0.175615,-0.327237 l -0.09096,-0.301708 z m -1.722822,-7.078194 0.08378,0.550735 c -0.361593,0.438171 -0.806195,0.873942 -1.30108,1.324873 -1.670636,1.463733 -3.915135,2.661644 -6.416625,3.553047 l -0.07101,-0.417443 c 0,0 0,0 -0.01517,-0.05028 3.456906,-1.179484 6.201088,-2.994345 7.720103,-4.960928 z M 1.183794,15.089326 C 0.45764261,12.044298 5.1965323,8.4759903 11.638583,6.9175513 15.654189,5.953603 19.374417,6.0112843 21.807961,6.8957873 15.424925,9.2867127 7.9507814,12.06149 7.9004967,12.076652 7.6315098,12.185187 7.0935358,12.402255 5.9497438,12.88428 c 0,0 0,0 0,0 -0.080613,-0.0854 -0.1963423,-0.105371 -0.2969117,-0.07505 -0.1508556,0.04549 -0.5754951,0.365524 -0.4996848,0.61695 0.060649,0.20114 0.608986,0.200373 0.7271173,0.137325 0.150855,-0.04549 0.2211009,-0.176381 0.241061,-0.292114 0.3671565,-0.05585 1.0360252,-0.202673 2.1774193,-0.601689 L 23.036295,7.5128364 c 0.815691,0.5220452 1.344834,1.1853478 1.554705,1.972346 0.01276,0.1332938 0.02552,0.2665881 0.03829,0.3998819 -6.874656,1.5791667 -19.1681008,4.3808037 -19.2183854,4.3959667 -0.2841499,0.05825 -0.8372847,0.225034 -2.0417268,0.505917 0,0 0,0 0,0 -0.080613,-0.0854 -0.1787825,-0.138087 -0.279348,-0.107773 -0.1508546,0.04549 -0.623381,0.297679 -0.5802936,0.531543 0.043087,0.233863 0.5738604,0.265825 0.7071562,0.253057 0.1332938,-0.01276 0.236263,-0.126095 0.2737854,-0.274551 0.3823195,-0.0056 1.0487875,-0.06938 2.2356683,-0.31754 L 24.532653,10.929053 C 23.80697,13.616422 19.653173,16.48717 14.231985,17.79265 7.739649,19.366251 1.9426718,18.151914 1.1837961,15.089326 z M 7.389951,21.117398 7.31894,20.699956 c 1.6904974,0.148554 3.619657,0.08801 5.6063,-0.236733 0.651306,-0.114099 1.269889,-0.245761 1.938757,-0.392584 0.719153,-0.161985 1.390421,-0.391816 2.044126,-0.588925 l 0.07101,0.417442 c -0.671266,0.229832 -1.324972,0.42694 -2.044125,0.588925 -0.636144,0.164386 -1.305011,0.311209 -1.938756,0.392585 -2.019367,0.307177 -3.9158034,0.385287 -5.6063014,0.236732 z m 9.130655,5.447977 c -0.636144,0.164384 -1.254728,0.296045 -1.906033,0.410145 -2.270792,0.382987 -4.413855,0.370892 -6.2807333,0.0013 l -0.101337,-0.518012 c 1.8668773,0.369657 3.9923793,0.414476 6.2631713,0.03148 0.601021,-0.09894 1.219603,-0.2306 1.855748,-0.394983 0.636144,-0.164386 1.206841,-0.363893 1.777538,-0.563401 l 0.06862,0.500451 c -0.520413,0.184345 -1.09111,0.383854 -1.676969,0.533077 z m 8.492706,-4.672748 c -1.609986,1.664872 -3.808998,3.01364 -6.295326,3.955326 l -0.08617,-0.467727 c 0,0 0,0 0,0 3.293287,-1.267291 5.908976,-3.235406 7.367341,-5.403129 l 0.1141,0.651306 c -0.344031,0.405446 -0.705623,0.843615 -1.09994,1.264224 z"
     id="path4"
     inkscape:connector-curvature="0"
     style="fill:#444444;fill-opacity:1" /></svg>