<?xml version="1.0" encoding="UTF-8" standalone="no"?>
<!-- Created with Inkscape (http://www.inkscape.org/) -->

<svg
   xmlns:dc="http://purl.org/dc/elements/1.1/"
   xmlns:cc="http://creativecommons.org/ns#"
   xmlns:rdf="http://www.w3.org/1999/02/22-rdf-syntax-ns#"
   xmlns:svg="http://www.w3.org/2000/svg"
   xmlns="http://www.w3.org/2000/svg"
   xmlns:sodipodi="http://sodipodi.sourceforge.net/DTD/sodipodi-0.dtd"
   xmlns:inkscape="http://www.inkscape.org/namespaces/inkscape"
   width="32"
   height="32"
   id="svg3356"
   version="1.1"
   inkscape:version="0.48.4 r9939"
   sodipodi:docname="github.svg">
  <defs
     id="defs3358" />
  <sodipodi:namedview
     id="base"
     pagecolor="#ffffff"
     bordercolor="#666666"
     borderopacity="1.0"
     inkscape:pageopacity="0.0"
     inkscape:pageshadow="2"
     inkscape:zoom="7.9195959"
     inkscape:cx="-33.717682"
     inkscape:cy="7.1986255"
     inkscape:document-units="px"
     inkscape:current-layer="layer1"
     showgrid="false"
     inkscape:window-width="1023"
     inkscape:window-height="626"
     inkscape:window-x="625"
     inkscape:window-y="236"
     inkscape:window-maximized="0" />
  <metadata
     id="metadata3361">
    <rdf:RDF>
      <cc:Work
         rdf:about="">
        <dc:format>image/svg+xml</dc:format>
        <dc:type
           rdf:resource="http://purl.org/dc/dcmitype/StillImage" />
        <dc:title />
      </cc:Work>
    </rdf:RDF>
  </metadata>
  <g
     inkscape:label="Layer 1"
     inkscape:groupmode="layer"
     id="layer1"
     transform="translate(0,-1020.3622)">
    <path
       inkscape:connector-curvature="0"
       d="m 15.998615,1021.6777 c -8.3139073,0 -15.0546869,6.7408 -15.0546869,15.0565 0,6.6521 4.3136184,12.2949 10.2964889,14.2866 0.753288,0.1378 1.0278,-0.3271 1.0278,-0.7265 0,-0.3567 -0.01294,-1.3041 -0.02033,-2.5602 -4.1879165,0.9096 -5.071529,-2.0187 -5.071529,-2.0187 -0.684892,-1.7386 -1.672024,-2.2015 -1.672024,-2.2015 -1.3670112,-0.9345 0.103519,-0.9161 0.103519,-0.9161 1.5111992,0.1072 2.3060806,1.552 2.3060806,1.552 1.3429801,2.3005 3.5242844,1.636 4.3820164,1.2514 0.136794,-0.9732 0.524991,-1.6369 0.955705,-2.0131 -3.3431231,-0.3798 -6.8581633,-1.672 -6.8581633,-7.4415 0,-1.6432 0.5869183,-2.9872 1.550019,-4.04 -0.1552792,-0.3806 -0.6719522,-1.9113 0.1469606,-3.9845 0,0 1.264416,-0.4049 4.1407797,1.5436 1.20064,-0.3337 2.489088,-0.501 3.769216,-0.5066 1.27828,0.01 2.566728,0.1729 3.769217,0.5066 2.874513,-1.9485 4.136157,-1.5436 4.136157,-1.5436 0.821685,2.0732 0.305012,3.6039 0.149733,3.9845 0.96495,1.0528 1.54817,2.3968 1.54817,4.04 0,5.7843 -3.520585,7.0571 -6.8748,7.4295 0.540704,0.4649 1.022255,1.3837 1.022255,2.7886 0,2.0121 -0.01849,3.6362 -0.01849,4.1296 0,0.4031 0.270815,0.8717 1.035194,0.7248 5.978248,-1.9957 10.288169,-7.6347 10.288169,-14.2849 0,-8.3157 -6.741703,-15.0565 -15.057457,-15.0565"
       style="fill:#444444;fill-opacity:1;fill-rule:evenodd;stroke:none"
       id="path24" />
  </g>
</svg>
