<?xml version="1.0" encoding="UTF-8" standalone="no"?>
<!-- Generated by IcoMoon.io -->

<svg
   xmlns:dc="http://purl.org/dc/elements/1.1/"
   xmlns:cc="http://creativecommons.org/ns#"
   xmlns:rdf="http://www.w3.org/1999/02/22-rdf-syntax-ns#"
   xmlns:svg="http://www.w3.org/2000/svg"
   xmlns="http://www.w3.org/2000/svg"
   xmlns:sodipodi="http://sodipodi.sourceforge.net/DTD/sodipodi-0.dtd"
   xmlns:inkscape="http://www.inkscape.org/namespaces/inkscape"
   version="1.1"
   width="32"
   height="32"
   viewBox="0 0 32 32"
   id="svg2"
   inkscape:version="0.48.4 r9939"
   sodipodi:docname="help.svg">
  <metadata
     id="metadata10">
    <rdf:RDF>
      <cc:Work
         rdf:about="">
        <dc:format>image/svg+xml</dc:format>
        <dc:type
           rdf:resource="http://purl.org/dc/dcmitype/StillImage" />
      </cc:Work>
    </rdf:RDF>
  </metadata>
  <defs
     id="defs8" />
  <sodipodi:namedview
     pagecolor="#ffffff"
     bordercolor="#666666"
     borderopacity="1"
     objecttolerance="10"
     gridtolerance="10"
     guidetolerance="10"
     inkscape:pageopacity="0"
     inkscape:pageshadow="2"
     inkscape:window-width="985"
     inkscape:window-height="797"
     id="namedview6"
     showgrid="false"
     inkscape:zoom="3.6875"
     inkscape:cx="-11.035199"
     inkscape:cy="-2.623342"
     inkscape:window-x="334"
     inkscape:window-y="25"
     inkscape:window-maximized="0"
     inkscape:current-layer="svg2" />
  <path
     style="fill:#444444;fill-opacity:1;stroke:none"
     d="M 16,1.5 C 7.9918711,1.5 1.5,7.9918709 1.5,16 1.5,24.008129 7.9918711,30.5 16,30.5 24.008129,30.5 30.5,24.008129 30.5,16 30.5,7.9918709 24.008129,1.5 16,1.5 z m -0.40625,5.6732811 c 1.80985,0 3.232136,0.3072855 4.53125,1.28125 1.160293,0.8819129 1.8125,2.1266929 1.8125,3.8437499 0,1.020732 -0.364262,1.959925 -0.875,2.65625 -0.325149,0.417943 -0.99383,0.991917 -1.875,1.6875 l -0.96875,0.625 c -0.46397,0.371177 -0.767432,0.84853 -0.90625,1.3125 -0.0928,0.278381 -0.15625,0.87978 -0.15625,1.34375 0,0.09279 -0.03412,0.28125 -0.3125,0.28125 l -2.875,0 c -0.325151,0 -0.34375,-0.157207 -0.34375,-0.25 0.04677,-1.20632 0.208012,-2.274123 0.71875,-3.0625 0.696325,-1.067501 2.625,-2.21875 2.625,-2.21875 0.278382,-0.232356 0.501912,-0.409119 0.6875,-0.6875 0.32515,-0.46397 0.5625,-0.990005 0.5625,-1.5 0,-0.603531 -0.128825,-1.192281 -0.5,-1.65625 -0.46397,-0.556763 -0.978312,-0.8437499 -1.90625,-0.8437499 -0.927939,0 -1.472575,0.5222109 -1.84375,1.1249999 -0.371177,0.602788 -0.34375,1.350443 -0.34375,2 l -3.5625,0 c 0,-2.505433 0.639344,-4.1033114 2.03125,-5.0312499 0.927939,-0.6495566 2.108092,-0.90625 3.5,-0.90625 z m -0.25,14.8749999 c 1.253089,0.04677 2.203018,0.919637 2.15625,2.21875 -0.04678,1.299114 -1.028162,2.139776 -2.28125,2.09375 -1.20632,-0.04677 -2.139777,-0.888386 -2.09375,-2.1875 0.04602,-1.299114 1.012431,-2.171767 2.21875,-2.125 z"
     id="path3758"
     inkscape:connector-curvature="0"
     sodipodi:nodetypes="sssssscsccccsssccccscsscccscscsc" />
</svg>
