<?xml version="1.0" encoding="UTF-8" standalone="no"?>
<!-- Created with Inkscape (http://www.inkscape.org/) -->

<svg
   xmlns:dc="http://purl.org/dc/elements/1.1/"
   xmlns:cc="http://creativecommons.org/ns#"
   xmlns:rdf="http://www.w3.org/1999/02/22-rdf-syntax-ns#"
   xmlns:svg="http://www.w3.org/2000/svg"
   xmlns="http://www.w3.org/2000/svg"
   xmlns:sodipodi="http://sodipodi.sourceforge.net/DTD/sodipodi-0.dtd"
   xmlns:inkscape="http://www.inkscape.org/namespaces/inkscape"
   width="32"
   height="32"
   id="svg2"
   version="1.1"
   inkscape:version="0.48.4 r9939"
   sodipodi:docname="jack-input.svg">
  <defs
     id="defs4" />
  <sodipodi:namedview
     id="base"
     pagecolor="#ffffff"
     bordercolor="#666666"
     borderopacity="1.0"
     inkscape:pageopacity="0.0"
     inkscape:pageshadow="2"
     inkscape:zoom="16"
     inkscape:cx="16.396446"
     inkscape:cy="4.7268789"
     inkscape:document-units="px"
     inkscape:current-layer="layer1"
     showgrid="false"
     inkscape:window-width="1438"
     inkscape:window-height="1026"
     inkscape:window-x="586"
     inkscape:window-y="110"
     inkscape:window-maximized="0" />
  <metadata
     id="metadata7">
    <rdf:RDF>
      <cc:Work
         rdf:about="">
        <dc:format>image/svg+xml</dc:format>
        <dc:type
           rdf:resource="http://purl.org/dc/dcmitype/StillImage" />
        <dc:title />
      </cc:Work>
    </rdf:RDF>
  </metadata>
  <g
     inkscape:label="Layer 1"
     inkscape:groupmode="layer"
     id="layer1"
     transform="translate(0,-1020.3622)">
    <path
       style="fill:#444444;fill-opacity:1"
       d="M 28.53125 0.3125 L 27.5 2.4375 L 26.5625 2.34375 L 26 2.78125 L 28.6875 5.9375 L 29.1875 5.5 L 29.34375 4.59375 L 31.53125 3.84375 L 31.03125 1.21875 L 28.53125 0.3125 z M 25.5 3.25 L 22.4375 5.84375 L 25.15625 8.96875 L 28.15625 6.40625 L 25.5 3.25 z M 21.84375 6.3125 L 17.84375 9.75 L 16.25 7.90625 L 11.09375 12.3125 C 8.2561737 14.7304 5.9365811 16.73 5.9375 16.75 C 5.9377027 16.7698 5.7929265 17.0973 5.59375 17.5 C 5.3945048 17.9029 4.9704102 18.7828 4.65625 19.4375 L 4.0625 20.625 L 2.6875 21.78125 L 1.3125 22.96875 C 1.7047548 23.42995 1.5085072 23.18235 1.8125 23.65625 L 2.40625 24.34375 C 1.8331175 24.8267 1.3613272 25.294846 1.03125 25.78125 C 0.39044072 26.72565 0.20445104 27.7401 0.46875 28.625 C 0.99734791 30.3948 2.9357237 31.40195 5.0625 31.78125 C 6.3574673 32.01225 7.7059573 31.4839 9.125 30.8125 C 10.544043 30.1411 12.036275 29.2661 13.4375 28.5 C 14.838725 27.7339 16.180985 27.1148 17.15625 26.9375 C 17.643883 26.8485 18.006143 26.86475 18.28125 26.96875 C 18.556357 27.07285 18.96875 27.625 18.96875 27.625 L 20.28125 26.9375 C 20.28125 26.9375 19.426425 25.7948 18.8125 25.5625 C 18.198575 25.3302 17.53434 25.34915 16.875 25.46875 C 15.556321 25.70845 14.157333 26.401 12.71875 27.1875 C 11.280167 27.974 9.8187683 28.876 8.5 29.5 C 7.1812317 30.124 6.0054857 30.4361 5.3125 30.3125 C 3.5057292 29.9902 2.1354528 29.0595 1.875 28.1875 C 1.7447736 27.7515 1.79355 27.26635 2.25 26.59375 C 2.4909899 26.238588 2.8634049 25.856903 3.375 25.4375 L 4.15625 26.3125 C 4.5008971 26.6936 4.4618948 26.5963 4.78125 27 L 6.125 25.84375 C 6.8770502 25.20335 7.526336 24.6735 7.5625 24.6875 C 7.6406265 24.6965 7.9866843 24.5919 9.09375 24.25 C 9.5733904 24.1016 10.374012 23.8888 10.84375 23.75 L 11.6875 23.5 L 16.875 19.09375 L 22.03125 14.6875 L 20.53125 12.90625 L 24.5625 9.46875 L 21.84375 6.3125 z "
       transform="translate(0,1020.3622)"
       id="path3840" />
    <path
       sodipodi:nodetypes="cssc"
       inkscape:connector-curvature="0"
       id="path3766"
       d="m 4.7061549,1077.3644 c -6.11897,3.5741 -3.4481571,6.7199 0.48539,7.4215 3.9759061,0.7092 12.2469661,-7.9669 14.4474051,-3.7448 0.808352,1.551 0.762502,4.3232 0.762502,4.3232"
       style="fill:none;stroke:#000000;stroke-width:1.48267853;stroke-linecap:butt;stroke-linejoin:miter;stroke-miterlimit:4;stroke-opacity:1;stroke-dasharray:none" />
    <path
       sodipodi:nodetypes="cccccccccccccccccccsccsccccccccsccsccc"
       inkscape:connector-curvature="0"
       d="m 31.022114,1054.5865 -2.493304,-0.9204 -1.030741,2.1219 -0.942154,-0.074 -0.563543,0.4299 2.705773,3.1695 0.494519,-0.4497 0.142604,-0.9222 2.205895,-0.7478 z m -8.581685,4.6129 3.05311,-2.5957 2.672269,3.1529 -3.02047,2.5676 z m -20.6168427,17.8099 c -0.3039928,-0.4739 -0.1077596,-0.2163 -0.5000144,-0.6775 l 1.3766786,-1.1767 1.3763324,-1.1767 0.5714459,-1.1898 c 0.3141602,-0.6547 0.7341646,-1.5201 0.9334098,-1.923 0.1991765,-0.4027 0.3617427,-0.7484 0.36154,-0.7682 -9.189e-4,-0.02 2.3210231,-2.0138 5.1585994,-4.4317 l 5.158975,-4.3958 1.578901,1.8504 4.015236,-3.4417 2.698359,3.1608 -4.014311,3.443 1.500208,1.7581 -5.176046,4.4075 -5.176199,4.4076 -0.853843,0.2531 c -0.469738,0.1388 -1.2476328,0.3696 -1.7272732,0.518 -1.1070657,0.3419 -1.461153,0.4399 -1.5392795,0.4309 -0.036164,-0.014 -0.6789158,0.513 -1.430966,1.1534 l -1.3678252,1.1649 c -0.3193552,-0.4037 -0.2771544,-0.3058 -0.6218015,-0.6869 z"
       style="fill:#444444;fill-opacity:1"
       id="path2985" />
  </g>
</svg>
