<?xml version="1.0" encoding="UTF-8" standalone="no"?>
<!-- Generated by IcoMoon.io -->

<svg
   xmlns:dc="http://purl.org/dc/elements/1.1/"
   xmlns:cc="http://creativecommons.org/ns#"
   xmlns:rdf="http://www.w3.org/1999/02/22-rdf-syntax-ns#"
   xmlns:svg="http://www.w3.org/2000/svg"
   xmlns="http://www.w3.org/2000/svg"
   xmlns:sodipodi="http://sodipodi.sourceforge.net/DTD/sodipodi-0.dtd"
   xmlns:inkscape="http://www.inkscape.org/namespaces/inkscape"
   version="1.1"
   width="32"
   height="32"
   viewBox="0 0 32 32"
   id="svg2"
   inkscape:version="0.48.4 r9939"
   sodipodi:docname="repeat.svg">
  <metadata
     id="metadata12">
    <rdf:RDF>
      <cc:Work
         rdf:about="">
        <dc:format>image/svg+xml</dc:format>
        <dc:type
           rdf:resource="http://purl.org/dc/dcmitype/StillImage" />
      </cc:Work>
    </rdf:RDF>
  </metadata>
  <defs
     id="defs10" />
  <sodipodi:namedview
     pagecolor="#ffffff"
     bordercolor="#666666"
     borderopacity="1"
     objecttolerance="10"
     gridtolerance="10"
     guidetolerance="10"
     inkscape:pageopacity="0"
     inkscape:pageshadow="2"
     inkscape:window-width="1418"
     inkscape:window-height="945"
     id="namedview8"
     showgrid="false"
     showguides="true"
     inkscape:guide-bbox="true"
     inkscape:zoom="5.2149125"
     inkscape:cx="5.5402008"
     inkscape:cy="27.482637"
     inkscape:window-x="0"
     inkscape:window-y="25"
     inkscape:window-maximized="0"
     inkscape:current-layer="svg2" />
  <path
     style="font-size:medium;font-style:normal;font-variant:normal;font-weight:normal;font-stretch:normal;text-indent:0;text-align:start;text-decoration:none;line-height:normal;letter-spacing:normal;word-spacing:normal;text-transform:none;direction:ltr;block-progression:tb;writing-mode:lr-tb;text-anchor:start;baseline-shift:baseline;color:#000000;fill:#444444;fill-opacity:1;stroke:none;stroke-width:4.59999990000000025;marker:none;visibility:visible;display:inline;overflow:visible;enable-background:accumulate;font-family:Sans;-inkscape-font-specification:Sans"
     d="M 22.5 2.71875 C 22.154484 2.77366 22.152331 3.102744 22.15625 3.46875 L 22.15625 6.75 L 8.40625 6.75 C 4.2910338 6.75 0.90625 10.134784 0.90625 14.25 L 0.90625 18.78125 C 0.90625 19.681453 1 21.6875 1 21.6875 L 5.65625 17.25 L 5.65625 14.25 C 5.65625 12.603616 6.7598664 11.375 8.40625 11.375 L 22.15625 11.375 L 22.15625 14.5 C 22.14945 15.094135 22.675137 15.463516 23.09375 15.0625 L 29.09375 9.46875 C 29.380796 9.183077 29.380796 8.785673 29.09375 8.5 L 23.09375 2.90625 C 22.933048 2.752626 22.71508 2.684394 22.5 2.71875 z M 31.15625 11.25 L 26.5 15.6875 L 26.5 18.6875 C 26.5 20.333884 25.396384 21.5625 23.75 21.5625 L 10 21.5625 L 10 18.4375 C 10.0068 17.843365 9.481113 17.473984 9.0625 17.875 L 3.0625 23.46875 C 2.775454 23.754423 2.775454 24.151827 3.0625 24.4375 L 9.0625 30.03125 C 9.223202 30.184875 9.44117 30.253106 9.65625 30.21875 C 10.001767 30.16384 10.00392 29.834756 10 29.46875 L 10 26.1875 L 23.75 26.1875 C 27.865217 26.1875 31.25 22.802716 31.25 18.6875 L 31.25 14.15625 C 31.25 13.256047 31.15625 11.25 31.15625 11.25 z "
     id="rect2982" />
</svg>
