<?xml version="1.0" encoding="UTF-8" standalone="no"?>
<!-- Generated by IcoMoon.io -->

<svg
   xmlns:dc="http://purl.org/dc/elements/1.1/"
   xmlns:cc="http://creativecommons.org/ns#"
   xmlns:rdf="http://www.w3.org/1999/02/22-rdf-syntax-ns#"
   xmlns:svg="http://www.w3.org/2000/svg"
   xmlns="http://www.w3.org/2000/svg"
   xmlns:sodipodi="http://sodipodi.sourceforge.net/DTD/sodipodi-0.dtd"
   xmlns:inkscape="http://www.inkscape.org/namespaces/inkscape"
   version="1.1"
   width="32"
   height="32"
   viewBox="0 0 32 32"
   id="svg2"
   inkscape:version="0.48.4 r9939"
   sodipodi:docname="options.svg">
  <metadata
     id="metadata10">
    <rdf:RDF>
      <cc:Work
         rdf:about="">
        <dc:format>image/svg+xml</dc:format>
        <dc:type
           rdf:resource="http://purl.org/dc/dcmitype/StillImage" />
      </cc:Work>
    </rdf:RDF>
  </metadata>
  <defs
     id="defs8" />
  <sodipodi:namedview
     pagecolor="#ffffff"
     bordercolor="#666666"
     borderopacity="1"
     objecttolerance="10"
     gridtolerance="10"
     guidetolerance="10"
     inkscape:pageopacity="0"
     inkscape:pageshadow="2"
     inkscape:window-width="1191"
     inkscape:window-height="670"
     id="namedview6"
     showgrid="false"
     inkscape:zoom="7.375"
     inkscape:cx="-0.66101695"
     inkscape:cy="13.830508"
     inkscape:window-x="0"
     inkscape:window-y="25"
     inkscape:window-maximized="0"
     inkscape:current-layer="svg2" />
  <path
     d="M 0.72451573,24.943262 Q 0.82519085,24.014207 1.5650863,23.419714 L 14.816735,12.772269 q 0.498112,1.792815 1.681076,3.260406 1.182964,1.467591 2.828513,2.338462 L 6.0550616,29.034341 Q 5.3347804,29.613072 4.4046143,29.512278 3.4911638,29.413293 2.8771582,28.689974 L 1.2211307,26.593827 Q 0.621925,25.889996 0.72451573,24.943262 z M 4.9719242,24.267814 q -0.04938,0.455689 0.2477627,0.825719 0.2971423,0.370031 0.7544656,0.418595 0.4573211,0.04858 0.8266199,-0.247263 0.3692966,-0.295826 0.4188892,-0.75348 0.049592,-0.457653 -0.2477627,-0.82572 Q 6.6745436,23.317599 6.217433,23.267072 5.7603202,23.216564 5.3908134,23.514334 5.0213039,23.812125 4.9719242,24.267814 z M 15.664641,9.5285637 q 0.351618,-3.2448228 2.910196,-5.3005913 2.558579,-2.0557684 5.807277,-1.7037305 1.01866,0.1103849 2.102285,0.5209278 1.083625,0.4105429 1.799532,1.019708 0.260355,0.2229626 0.228003,0.5215178 -0.03235,0.2985551 -0.334425,0.4605715 l -5.465608,2.406481 -0.425688,3.928358 3.184949,2.243939 q 0.09326,-0.04354 1.479544,-0.700148 1.386288,-0.656599 2.533382,-1.162253 1.147092,-0.505653 1.305397,-0.488499 0.263515,0.02856 0.393921,0.220545 0.130406,0.191989 0.101992,0.454207 -0.07407,0.683534 -0.605577,1.815303 -1.079625,2.260746 -3.302167,3.501394 -2.222543,1.240649 -4.697415,0.972465 Q 19.431542,17.886721 17.372721,15.330598 15.3139,12.774475 15.665518,9.5296527 z"
     id="path4"
     inkscape:connector-curvature="0"
     style="fill:#444444" />
</svg>
