<?xml version="1.0" encoding="UTF-8" standalone="no"?>
<!-- Generated by IcoMoon.io -->

<svg
   xmlns:dc="http://purl.org/dc/elements/1.1/"
   xmlns:cc="http://creativecommons.org/ns#"
   xmlns:rdf="http://www.w3.org/1999/02/22-rdf-syntax-ns#"
   xmlns:svg="http://www.w3.org/2000/svg"
   xmlns="http://www.w3.org/2000/svg"
   xmlns:sodipodi="http://sodipodi.sourceforge.net/DTD/sodipodi-0.dtd"
   xmlns:inkscape="http://www.inkscape.org/namespaces/inkscape"
   version="1.1"
   width="32"
   height="32"
   viewBox="0 0 32 32"
   id="svg2"
   inkscape:version="0.48.4 r9939"
   sodipodi:docname="pause.svg">
  <metadata
     id="metadata12">
    <rdf:RDF>
      <cc:Work
         rdf:about="">
        <dc:format>image/svg+xml</dc:format>
        <dc:type
           rdf:resource="http://purl.org/dc/dcmitype/StillImage" />
      </cc:Work>
    </rdf:RDF>
  </metadata>
  <defs
     id="defs10" />
  <sodipodi:namedview
     pagecolor="#ffffff"
     bordercolor="#666666"
     borderopacity="1"
     objecttolerance="10"
     gridtolerance="10"
     guidetolerance="10"
     inkscape:pageopacity="0"
     inkscape:pageshadow="2"
     inkscape:window-width="1418"
     inkscape:window-height="945"
     id="namedview8"
     showgrid="false"
     showguides="true"
     inkscape:guide-bbox="true"
     inkscape:zoom="14.75"
     inkscape:cx="11.306166"
     inkscape:cy="12.580907"
     inkscape:window-x="0"
     inkscape:window-y="25"
     inkscape:window-maximized="0"
     inkscape:current-layer="svg2" />
  <path
     d="M 16 1 C 7.7153125 1 1 7.7153125 1 16 C 1 24.284687 7.7153125 31 16 31 C 24.284687 31 31 24.284687 31 16 C 31 7.7153125 24.284687 1 16 1 z M 16 3.8125 C 22.73125 3.8125 28.1875 9.26875 28.1875 16 C 28.1875 22.73125 22.73125 28.1875 16 28.1875 C 9.26875 28.1875 3.8125 22.73125 3.8125 16 C 3.8125 9.26875 9.26875 3.8125 16 3.8125 z M 11.0625 9 C 10.471566 9 10 9.3693 10 9.8125 L 10 22.1875 C 10 22.6307 10.471566 23 11.0625 23 L 12.9375 23 C 13.528434 23 14 22.6307 14 22.1875 L 14 9.8125 C 14 9.3693 13.528434 9 12.9375 9 L 11.0625 9 z M 19.0625 9 C 18.471566 9 18 9.3693 18 9.8125 L 18 22.1875 C 18 22.6307 18.471566 23 19.0625 23 L 20.9375 23 C 21.528434 23 22 22.6307 22 22.1875 L 22 9.8125 C 22 9.3693 21.528434 9 20.9375 9 L 19.0625 9 z "
     id="path6" />
  <rect
     ry="0.80000001"
     rx="1.0666667"
     y="9"
     x="-10"
     height="14"
     width="4"
     id="rect2988"
     style="fill:#ae5507;fill-opacity:1;stroke:none" />
</svg>
