<?xml version="1.0" encoding="UTF-8" standalone="no"?>
<!-- Created with Inkscape (http://www.inkscape.org/) -->

<svg
   xmlns:dc="http://purl.org/dc/elements/1.1/"
   xmlns:cc="http://creativecommons.org/ns#"
   xmlns:rdf="http://www.w3.org/1999/02/22-rdf-syntax-ns#"
   xmlns:svg="http://www.w3.org/2000/svg"
   xmlns="http://www.w3.org/2000/svg"
   xmlns:sodipodi="http://sodipodi.sourceforge.net/DTD/sodipodi-0.dtd"
   xmlns:inkscape="http://www.inkscape.org/namespaces/inkscape"
   width="32"
   height="32"
   id="svg5542"
   version="1.1"
   inkscape:version="0.48.4 r9939"
   sodipodi:docname="percussions.svg">
  <defs
     id="defs5544" />
  <sodipodi:namedview
     id="base"
     pagecolor="#ffffff"
     bordercolor="#666666"
     borderopacity="1.0"
     inkscape:pageopacity="0.0"
     inkscape:pageshadow="2"
     inkscape:zoom="15.839192"
     inkscape:cx="20.386141"
     inkscape:cy="14.59345"
     inkscape:document-units="px"
     inkscape:current-layer="layer1"
     showgrid="false"
     inkscape:window-width="1920"
     inkscape:window-height="1028"
     inkscape:window-x="0"
     inkscape:window-y="25"
     inkscape:window-maximized="1" />
  <metadata
     id="metadata5547">
    <rdf:RDF>
      <cc:Work
         rdf:about="">
        <dc:format>image/svg+xml</dc:format>
        <dc:type
           rdf:resource="http://purl.org/dc/dcmitype/StillImage" />
        <dc:title />
      </cc:Work>
    </rdf:RDF>
  </metadata>
  <g
     inkscape:label="Layer 1"
     inkscape:groupmode="layer"
     id="layer1"
     transform="translate(0,-1020.3622)">
    <path
       d="m 24.08676,1020.4134 c -1.30692,0.1099 -2.563278,0.7075 -3.61035,1.6381 -1.396095,1.2409 -2.437639,3.0627 -2.874908,5.215 -0.39672,1.9527 -0.294752,4.0279 0.434579,5.7163 0.551611,1.2769 1.49922,2.3418 2.774621,2.9419 -0.530554,2.3659 -1.268927,4.764 -1.771746,7.1872 -0.200905,0.9891 0.34873,1.9927 1.337168,2.1729 0.988541,0.1804 1.905152,-0.5151 2.106036,-1.5043 3.24e-4,-0.011 3.24e-4,-0.023 0,-0.034 0.388559,-2.3877 0.782428,-4.8889 1.170022,-7.3209 1.388184,-0.1306 2.634791,-0.8111 3.643779,-1.7718 1.362764,-1.2977 2.343323,-3.1229 2.741193,-5.0813 0.437266,-2.1522 0.178664,-4.2328 -0.635155,-5.8835 -0.406986,-0.8252 -1.001176,-1.5519 -1.671459,-2.106 -0.669817,-0.5548 -1.425863,-0.9426 -2.306612,-1.1031 -0.440393,-0.081 -0.901527,-0.1036 -1.337168,-0.067 z m 0.100293,1.1701 c 0.336332,-0.028 0.665987,0.01 1.002875,0.067 0.673738,0.1227 1.279716,0.3995 1.805175,0.8357 0.525847,0.4357 0.99583,1.0126 1.337167,1.7049 0.436461,0.8852 0.645952,1.9833 0.668583,3.1423 l -1.571171,1.17 -0.902588,-1.1365 -0.768871,-0.9695 -1.002875,0.7689 -1.103162,0.7688 -0.83573,-1.0697 -0.702012,-0.9695 -1.036304,0.702 -0.869159,0.6019 -0.568296,-1.0363 -0.300863,-0.4347 c 0.48282,-1.117 1.154579,-2.0775 1.938892,-2.7746 0.887013,-0.7885 1.899339,-1.2869 2.908339,-1.3706 z m -17.1491639,7.7556 c -0.8695566,0.015 -1.7343024,0.2167 -2.5071879,0.6685 -1.5457684,0.9039 -2.4568184,2.5617 -2.7077628,4.4127 -0.2509444,1.8509 0.1666452,3.8989 1.2368793,5.8167 0.9709329,1.7399 2.3917119,3.239 4.0449298,4.045 1.250246,0.6094 2.6529561,0.8101 4.0114995,0.4345 1.138648,2.1408 2.146011,4.453 3.342917,6.619 0.491998,0.8814 1.572896,1.2758 2.440329,0.7688 0.86747,-0.5071 1.09375,-1.6256 0.601726,-2.5072 0.0012,-0.023 0.0012,-0.044 0,-0.067 -1.260581,-2.0648 -2.621138,-4.187 -3.911214,-6.2847 0.968261,-1.0032 1.498255,-2.3245 1.638029,-3.7106 0.188773,-1.8722 -0.296609,-3.9046 -1.270308,-5.6495 -1.070236,-1.918 -2.619627,-3.3226 -4.3123612,-4.045 -0.8463686,-0.361 -1.7379193,-0.5176 -2.6074757,-0.5015 z m 14.4748299,0.067 0.835729,1.1031 0.768871,1.0029 1.002875,-0.7688 1.103162,-0.8024 0.902589,1.17 0.768871,0.9695 1.002875,-0.7689 0.40115,-0.3009 c -0.445818,1.0853 -1.032735,2.0727 -1.805175,2.8082 -1.153532,1.0983 -2.538444,1.6231 -4.111788,1.3371 -0.255374,-0.047 -0.50746,-0.086 -0.735442,-0.1671 -1.176235,-0.4219 -1.996879,-1.3248 -2.507189,-2.5072 -0.377943,-0.8749 -0.562278,-1.9032 -0.568295,-2.9753 l 0.100282,0.2007 0.702012,1.1031 1.103163,-0.7355 z m -14.4414008,1.0697 c 0.6828629,-0.012 1.3961273,0.1316 2.1060377,0.4346 0.9078341,0.3873 1.8019021,1.0743 2.5740441,1.9389 l -0.468008,1.9388 -1.4040235,-0.3008 -1.2368792,-0.2341 -0.2340043,1.2369 -0.3342917,1.3371 -1.3371669,-0.3008 -1.1700209,-0.2674 -0.3342917,1.2035 -0.2340042,1.0363 -1.1365918,-0.4012 -0.5014375,-0.1671 c -0.3613257,-1.1621 -0.4752845,-2.3365 -0.3342917,-3.3764 0.212592,-1.568 0.9235415,-2.8186 2.1060377,-3.51 0.5912462,-0.3456 1.2560291,-0.5569 1.9388919,-0.5683 z m 6.5186868,5.6495 c 0.368722,1.114 0.541582,2.2482 0.434579,3.3095 -0.159804,1.5848 -0.826306,2.8692 -2.206325,3.6772 -0.22398,0.131 -0.44239,0.2479 -0.668583,0.3342 -1.1672168,0.4462 -2.3860916,0.3308 -3.543491,-0.2339 -0.8566915,-0.4176 -1.6706067,-1.096 -2.3734712,-1.9055 l 0.2005751,0.067 1.2703084,0.4345 0.3677209,-1.3036 0.3342917,-1.2035 1.3705961,0.3008 1.20345,0.2675 0.267432,-1.2369 0.334293,-1.3373 1.404024,0.301 1.23688,0.234 0.267433,-1.2369 0.100292,-0.468 z"
       id="path3896"
       inkscape:connector-curvature="0"
       sodipodi:nodetypes="ccsccccccccscccccccccccccccccccccccccsccccccccsscccccccccccccccccccccccccccccccccccssccsccccccccccccccccc" />
  </g>
</svg>
