<?xml version="1.0" encoding="UTF-8" standalone="no"?>
<!-- Created with Inkscape (http://www.inkscape.org/) -->

<svg
   xmlns:dc="http://purl.org/dc/elements/1.1/"
   xmlns:cc="http://creativecommons.org/ns#"
   xmlns:rdf="http://www.w3.org/1999/02/22-rdf-syntax-ns#"
   xmlns:svg="http://www.w3.org/2000/svg"
   xmlns="http://www.w3.org/2000/svg"
   xmlns:sodipodi="http://sodipodi.sourceforge.net/DTD/sodipodi-0.dtd"
   xmlns:inkscape="http://www.inkscape.org/namespaces/inkscape"
   width="32"
   height="32"
   id="svg2"
   version="1.1"
   inkscape:version="0.48.4 r9939"
   sodipodi:docname="piano.svg">
  <defs
     id="defs4" />
  <sodipodi:namedview
     id="base"
     pagecolor="#ffffff"
     bordercolor="#666666"
     borderopacity="1.0"
     inkscape:pageopacity="0.0"
     inkscape:pageshadow="2"
     inkscape:zoom="11.313709"
     inkscape:cx="6.629274"
     inkscape:cy="15.939817"
     inkscape:document-units="px"
     inkscape:current-layer="layer1"
     showgrid="false"
     inkscape:window-width="1651"
     inkscape:window-height="838"
     inkscape:window-x="267"
     inkscape:window-y="80"
     inkscape:window-maximized="0"
     showguides="true"
     inkscape:guide-bbox="true" />
  <metadata
     id="metadata7">
    <rdf:RDF>
      <cc:Work
         rdf:about="">
        <dc:format>image/svg+xml</dc:format>
        <dc:type
           rdf:resource="http://purl.org/dc/dcmitype/StillImage" />
        <dc:title />
      </cc:Work>
    </rdf:RDF>
  </metadata>
  <g
     inkscape:label="Layer 1"
     inkscape:groupmode="layer"
     id="layer1"
     transform="translate(0,-1020.3622)">
    <path
       style="fill:#444444;fill-opacity:1"
       d="m 1.0091076,1048.2869 c -0.4022444,-0.086 -0.8156898,-0.3809 -0.9275891,-0.6613 -0.1109441,-0.2781 -0.1075259,-19.5831 0.00342,-19.8615 0.1049774,-0.2631 0.5917586,-0.6018 0.9699003,-0.6748 0.4112738,-0.08 28.1434152,-0.08 28.5546882,0 0.441681,0.085 0.868346,0.4112 0.969209,0.7403 0.115508,0.3768 0.116736,19.3591 0.0013,19.7339 -0.11252,0.365 -0.547788,0.6679 -1.072453,0.7461 -0.269131,0.039 -4.258347,0.055 -14.20257,0.052 -11.8109558,0 -14.0107775,-0.016 -14.2959824,-0.076 z m 5.6630046,-9.2393 c -0.3033928,-0.01 -0.4565659,0 -0.7033129,-1e-4 -0.6142559,-0.014 -0.6676868,-0.5119 -0.6671435,-0.7213 0.00125,-3.3342 0.00857,-6.728 0.00857,-10.0958 -1.4950026,0.01 -2.4392687,0 -3.9342995,0.01 l 0,9.4506 0,9.4783 c 2.0312724,0 3.292388,0 5.3236603,0 -0.011082,-2.469 -0.014516,-5.6526 -0.027474,-8.1216 z m 8.0018868,-0.013 c -0.251222,0 -0.446593,-0.01 -0.638475,-0.01 -0.616077,-0.1143 -0.674404,-0.4802 -0.715128,-0.9283 0,-3.3352 0,-6.4913 0,-9.8633 -1.102406,0 -2.86478,0 -3.967186,0 0,3.4791 0,6.5946 0,10.0489 0.03968,0.5002 -0.255283,0.7436 -0.591104,0.7522 -0.2629612,0 -0.4312755,0.011 -0.759127,0.011 -0.013568,2.4656 0.012304,5.6456 4.006e-4,8.1111 2.1745784,0 4.5081534,0 6.6827314,0 10e-7,-2.4741 -0.01211,-5.6548 -0.01211,-8.1289 z m 7.99631,9e-4 c -0.244063,0 -0.446332,0 -0.646688,0 -0.694702,-0.032 -0.676372,-0.5187 -0.707081,-0.8116 -0.0099,-3.3774 -0.0012,-6.5675 -0.01185,-9.9775 -1.113462,-7e-4 -2.965408,0 -3.962197,0 0,3.4294 0,6.602 0,10.0007 -0.0077,0.5771 -0.334569,0.7569 -0.651946,0.7815 -0.216117,0 -0.430497,0.021 -0.695213,0.021 0,2.474 -0.0078,5.6469 -0.0078,8.1208 2.150092,0 4.5356,0 6.685692,0 2.3e-4,-2.7733 -0.0028,-5.6011 -0.0029,-8.131 z m 6.609186,-1.3706 0,-9.4455 c -1.479913,0 -2.456152,0.012 -3.936026,0.021 -0.0099,3.4165 0.01652,6.5669 0.0099,9.9513 0.02148,0.5634 -0.276744,0.8269 -0.678548,0.8348 -0.210837,0 -0.404192,0.01 -0.679535,0.01 0,2.474 -3.45e-4,5.6534 -3.45e-4,8.1274 2.027889,0 3.256654,0 5.284542,0 l 0,-9.4831 z"
       id="path2996"
       inkscape:connector-curvature="0"
       sodipodi:nodetypes="ccccccccccccccccccccccccccccccccccccccccccccccccccccccc" />
  </g>
</svg>
