<?xml version="1.0" encoding="UTF-8" standalone="no"?>
<!-- Generated by IcoMoon.io -->

<svg
   xmlns:dc="http://purl.org/dc/elements/1.1/"
   xmlns:cc="http://creativecommons.org/ns#"
   xmlns:rdf="http://www.w3.org/1999/02/22-rdf-syntax-ns#"
   xmlns:svg="http://www.w3.org/2000/svg"
   xmlns="http://www.w3.org/2000/svg"
   xmlns:sodipodi="http://sodipodi.sourceforge.net/DTD/sodipodi-0.dtd"
   xmlns:inkscape="http://www.inkscape.org/namespaces/inkscape"
   version="1.1"
   width="32"
   height="32"
   viewBox="0 0 32 32"
   id="svg2"
   inkscape:version="0.48.4 r9939"
   sodipodi:docname="playback-range2.svg">
  <metadata
     id="metadata12">
    <rdf:RDF>
      <cc:Work
         rdf:about="">
        <dc:format>image/svg+xml</dc:format>
        <dc:type
           rdf:resource="http://purl.org/dc/dcmitype/StillImage" />
        <dc:title />
      </cc:Work>
    </rdf:RDF>
  </metadata>
  <defs
     id="defs10" />
  <sodipodi:namedview
     pagecolor="#ffffff"
     bordercolor="#666666"
     borderopacity="1"
     objecttolerance="10"
     gridtolerance="10"
     guidetolerance="10"
     inkscape:pageopacity="0"
     inkscape:pageshadow="2"
     inkscape:window-width="1339"
     inkscape:window-height="793"
     id="namedview8"
     showgrid="false"
     showguides="true"
     inkscape:guide-bbox="true"
     inkscape:zoom="8"
     inkscape:cx="41.715006"
     inkscape:cy="11.947951"
     inkscape:window-x="556"
     inkscape:window-y="172"
     inkscape:window-maximized="0"
     inkscape:current-layer="svg2" />
  <path
     sodipodi:type="arc"
     style="fill:#444444;fill-opacity:1;stroke:none"
     id="path4010"
     sodipodi:cx="41.0625"
     sodipodi:cy="24.9375"
     sodipodi:rx="2.1875"
     sodipodi:ry="2.1875"
     d="m 43.25,24.9375 a 2.1875,2.1875 0 1 1 -4.375,0 2.1875,2.1875 0 1 1 4.375,0 z"
     transform="matrix(0.72408988,0,0,0.72408988,-28.148994,5.9831158)" />
  <path
     sodipodi:nodetypes="ccccccc"
     inkscape:connector-curvature="0"
     id="path4012"
     d="m 11.898052,4.467642 0,10.36311 c 4.44e-4,1.442077 0.727308,0.919174 1.188657,0.541626 l 6.010296,-5.19961 c 0.316347,-0.268956 0.316347,-0.778187 0,-1.047145 L 13.086709,3.926014 C 12.47095,3.452955 11.907512,3.370374 11.898052,4.467642 z"
     style="fill:#444444" />
  <path
     inkscape:connector-curvature="0"
     id="path4014"
     d="m 7.67675,9.3336772 c -1.280676,0 -2.34375,1.0318238 -2.34375,2.3124998 l 0,4.103823 1.34375,0 0,-4.103823 c 0,-0.565252 0.4347518,-0.997918 1,-1 l 1.5,0 0,-1.3124998 z"
     style="font-size:medium;font-style:normal;font-variant:normal;font-weight:normal;font-stretch:normal;text-indent:0;text-align:start;text-decoration:none;line-height:normal;letter-spacing:normal;word-spacing:normal;text-transform:none;direction:ltr;block-progression:tb;writing-mode:lr-tb;text-anchor:start;baseline-shift:baseline;color:#000000;fill:#444444;fill-opacity:1;stroke:none;stroke-width:1.33299994;marker:none;visibility:visible;display:inline;overflow:visible;enable-background:accumulate;font-family:Sans;-inkscape-font-specification:Sans"
     sodipodi:nodetypes="ssccssccs" />
  <path
     transform="matrix(1.3333504,0,0,1.3333504,-46.695443,-9.917426)"
     d="m 43.25,24.9375 a 2.1875,2.1875 0 1 1 -4.375,0 2.1875,2.1875 0 1 1 4.375,0 z"
     sodipodi:ry="2.1875"
     sodipodi:rx="2.1875"
     sodipodi:cy="24.9375"
     sodipodi:cx="41.0625"
     id="path4018"
     style="fill:#444444;fill-opacity:1;stroke:none"
     sodipodi:type="arc" />
  <path
     sodipodi:type="arc"
     style="fill:#444444;fill-opacity:1;stroke:none"
     id="path4020"
     sodipodi:cx="41.0625"
     sodipodi:cy="24.9375"
     sodipodi:rx="2.1875"
     sodipodi:ry="2.1875"
     d="m 43.25,24.9375 a 2.1875,2.1875 0 1 1 -4.375,0 2.1875,2.1875 0 1 1 4.375,0 z"
     transform="matrix(1.3333504,0,0,1.3333504,-30.784691,-9.917426)" />
  <path
     transform="matrix(1.3333504,0,0,1.3333504,-38.695446,-9.917426)"
     d="m 43.25,24.9375 a 2.1875,2.1875 0 1 1 -4.375,0 2.1875,2.1875 0 1 1 4.375,0 z"
     sodipodi:ry="2.1875"
     sodipodi:rx="2.1875"
     sodipodi:cy="24.9375"
     sodipodi:cx="41.0625"
     id="path4022"
     style="fill:#444444;fill-opacity:1;stroke:none"
     sodipodi:type="arc" />
  <path
     transform="matrix(0.72408988,0,0,0.72408988,0.66560726,5.9831158)"
     d="m 43.25,24.9375 a 2.1875,2.1875 0 1 1 -4.375,0 2.1875,2.1875 0 1 1 4.375,0 z"
     sodipodi:ry="2.1875"
     sodipodi:rx="2.1875"
     sodipodi:cy="24.9375"
     sodipodi:cx="41.0625"
     id="path4024"
     style="fill:#444444;fill-opacity:1;stroke:none"
     sodipodi:type="arc" />
  <path
     style="font-size:medium;font-style:normal;font-variant:normal;font-weight:normal;font-stretch:normal;text-indent:0;text-align:start;text-decoration:none;line-height:normal;letter-spacing:normal;word-spacing:normal;text-transform:none;direction:ltr;block-progression:tb;writing-mode:lr-tb;text-anchor:start;baseline-shift:baseline;color:#000000;fill:#444444;fill-opacity:1;stroke:none;stroke-width:1.33299994;marker:none;visibility:visible;display:inline;overflow:visible;enable-background:accumulate;font-family:Sans;-inkscape-font-specification:Sans"
     d="m 22.998227,9.3336772 c 1.280676,0 2.34375,1.0318238 2.34375,2.3124998 l 0,4.103823 -1.34375,0 0,-4.103823 c 0,-0.565252 -0.434752,-0.997918 -1,-1 l -1.5,0 0,-1.3124998 z"
     id="path4052"
     inkscape:connector-curvature="0"
     sodipodi:nodetypes="ssccssccs" />
</svg>
