<?xml version="1.0" encoding="UTF-8" standalone="no"?>
<!-- Generated by IcoMoon.io -->

<svg
   xmlns:dc="http://purl.org/dc/elements/1.1/"
   xmlns:cc="http://creativecommons.org/ns#"
   xmlns:rdf="http://www.w3.org/1999/02/22-rdf-syntax-ns#"
   xmlns:svg="http://www.w3.org/2000/svg"
   xmlns="http://www.w3.org/2000/svg"
   xmlns:sodipodi="http://sodipodi.sourceforge.net/DTD/sodipodi-0.dtd"
   xmlns:inkscape="http://www.inkscape.org/namespaces/inkscape"
   version="1.1"
   width="32"
   height="32"
   viewBox="0 0 32 32"
   id="svg2"
   inkscape:version="0.48.4 r9939"
   sodipodi:docname="playlist.svg">
  <metadata
     id="metadata12">
    <rdf:RDF>
      <cc:Work
         rdf:about="">
        <dc:format>image/svg+xml</dc:format>
        <dc:type
           rdf:resource="http://purl.org/dc/dcmitype/StillImage" />
        <dc:title />
      </cc:Work>
    </rdf:RDF>
  </metadata>
  <defs
     id="defs10" />
  <sodipodi:namedview
     pagecolor="#ffffff"
     bordercolor="#666666"
     borderopacity="1"
     objecttolerance="10"
     gridtolerance="10"
     guidetolerance="10"
     inkscape:pageopacity="0"
     inkscape:pageshadow="2"
     inkscape:window-width="1339"
     inkscape:window-height="793"
     id="namedview8"
     showgrid="false"
     showguides="true"
     inkscape:guide-bbox="true"
     inkscape:zoom="2.8284273"
     inkscape:cx="14.394536"
     inkscape:cy="-6.0327829"
     inkscape:window-x="556"
     inkscape:window-y="128"
     inkscape:window-maximized="0"
     inkscape:current-layer="svg2" />
  <path
     style="fill:#444444"
     d="m 6.9834017,6.2247637 0,8.0769863 c 3.46e-4,1.123952 0.566862,0.716402 0.926437,0.422142 l 4.6844103,-4.052564 c 0.24656,-0.209624 0.24656,-0.606518 0,-0.816143 L 7.9098387,5.8026207 C 7.4299177,5.4339189 6.9907747,5.3695552 6.9834017,6.2247637 z"
     id="path2994"
     inkscape:connector-curvature="0"
     sodipodi:nodetypes="ccccccc" />
  <path
     id="path3007"
     style="fill:#444444;fill-opacity:1"
     d="m 2.666,27.335893 0,2.666 c 8.889334,0 17.778668,0 26.668,0 l 0,-2.666 c -8.889332,0 -17.778666,0 -26.668,0 z"
     inkscape:connector-curvature="0"
     sodipodi:nodetypes="ccccc" />
  <path
     style="font-size:medium;font-style:normal;font-variant:normal;font-weight:normal;font-stretch:normal;text-indent:0;text-align:start;text-decoration:none;line-height:normal;letter-spacing:normal;word-spacing:normal;text-transform:none;direction:ltr;block-progression:tb;writing-mode:lr-tb;text-anchor:start;baseline-shift:baseline;color:#000000;fill:#000000;fill-opacity:1;stroke:none;stroke-width:1.73816228;marker:none;visibility:visible;display:inline;overflow:visible;enable-background:accumulate;font-family:Sans;-inkscape-font-specification:Sans"
     d="M 9.0045387,2.3582889 C 4.5941557,2.3582889 1,5.9524444 1,10.362828 c 0,4.410382 3.5941557,8.004538 8.0045387,8.004538 4.4103823,0 8.0045373,-3.594156 8.0045373,-8.004538 0,-4.4103836 -3.594155,-8.0045391 -8.0045373,-8.0045391 z m 0,1.3420782 c 3.6899753,0 6.6624593,2.972484 6.6624593,6.6624609 0,3.689976 -2.972484,6.662459 -6.6624593,6.662459 -3.689977,0 -6.662461,-2.972483 -6.662461,-6.662459 0,-3.6899769 2.972484,-6.6624609 6.662461,-6.6624609 z"
     id="path3784"
     inkscape:connector-curvature="0" />
  <path
     sodipodi:nodetypes="ccccc"
     inkscape:connector-curvature="0"
     d="m 2.666,20.926884 0,2.666 c 8.889334,0 17.778668,0 26.668,0 l 0,-2.666 c -8.889332,0 -17.778666,0 -26.668,0 z"
     style="fill:#444444;fill-opacity:1"
     id="path2991" />
  <path
     id="path2995"
     style="fill:#444444;fill-opacity:1"
     d="m 18.424317,13.988399 -1.829413,2.666 c 4.395873,0 8.343224,0 12.739096,0 l 0,-2.666 c -4.395872,0 -6.513811,0 -10.909683,0 z"
     inkscape:connector-curvature="0"
     sodipodi:nodetypes="ccccc" />
  <path
     sodipodi:nodetypes="ccccc"
     inkscape:connector-curvature="0"
     d="m 18.73913,7.0057196 0,2.6660004 c 3.531623,0 7.063247,0 10.59487,0 l 0,-2.6660004 c -3.531623,0 -7.063247,0 -10.59487,0 z"
     style="fill:#444444;fill-opacity:1"
     id="path2997" />
</svg>
