<?xml version="1.0" encoding="UTF-8" standalone="no"?>
<!-- Generated by IcoMoon.io -->

<svg
   xmlns:dc="http://purl.org/dc/elements/1.1/"
   xmlns:cc="http://creativecommons.org/ns#"
   xmlns:rdf="http://www.w3.org/1999/02/22-rdf-syntax-ns#"
   xmlns:svg="http://www.w3.org/2000/svg"
   xmlns="http://www.w3.org/2000/svg"
   xmlns:sodipodi="http://sodipodi.sourceforge.net/DTD/sodipodi-0.dtd"
   xmlns:inkscape="http://www.inkscape.org/namespaces/inkscape"
   version="1.1"
   width="32"
   height="32"
   viewBox="0 0 32 32"
   id="svg2"
   inkscape:version="0.48.4 r9939"
   sodipodi:docname="play.svg">
  <metadata
     id="metadata12">
    <rdf:RDF>
      <cc:Work
         rdf:about="">
        <dc:format>image/svg+xml</dc:format>
        <dc:type
           rdf:resource="http://purl.org/dc/dcmitype/StillImage" />
      </cc:Work>
    </rdf:RDF>
  </metadata>
  <defs
     id="defs10" />
  <sodipodi:namedview
     pagecolor="#ffffff"
     bordercolor="#666666"
     borderopacity="1"
     objecttolerance="10"
     gridtolerance="10"
     guidetolerance="10"
     inkscape:pageopacity="0"
     inkscape:pageshadow="2"
     inkscape:window-width="1418"
     inkscape:window-height="945"
     id="namedview8"
     showgrid="false"
     showguides="true"
     inkscape:guide-bbox="true"
     inkscape:zoom="10.429825"
     inkscape:cx="17.719568"
     inkscape:cy="12.698835"
     inkscape:window-x="0"
     inkscape:window-y="25"
     inkscape:window-maximized="0"
     inkscape:current-layer="svg2" />
  <path
     style="fill:#444444"
     d="M 16 1 C 7.7153125 1 1 7.7153125 1 16 C 1 24.284687 7.7153125 31 16 31 C 24.284687 31 31 24.284687 31 16 C 31 7.7153125 24.284687 1 16 1 z M 16 3.8125 C 22.73125 3.8125 28.1875 9.26875 28.1875 16 C 28.1875 22.73125 22.73125 28.1875 16 28.1875 C 9.26875 28.1875 3.8125 22.73125 3.8125 16 C 3.8125 9.26875 9.26875 3.8125 16 3.8125 z M 13.0625 5.78125 C 12.472765 5.8707361 11.993309 6.4348015 12 7.03125 L 12 24.96875 C 11.98836 25.936965 13.379248 26.55975 14.09375 25.90625 L 23.84375 16.90625 C 24.333686 16.440713 24.333686 15.559287 23.84375 15.09375 L 14.09375 6.09375 C 13.819471 5.8434023 13.429608 5.7252621 13.0625 5.78125 z "
     id="path6" />
</svg>
