<?xml version="1.0" encoding="UTF-8" standalone="no"?>
<!-- Generated by IcoMoon.io -->

<svg
   xmlns:dc="http://purl.org/dc/elements/1.1/"
   xmlns:cc="http://creativecommons.org/ns#"
   xmlns:rdf="http://www.w3.org/1999/02/22-rdf-syntax-ns#"
   xmlns:svg="http://www.w3.org/2000/svg"
   xmlns="http://www.w3.org/2000/svg"
   xmlns:sodipodi="http://sodipodi.sourceforge.net/DTD/sodipodi-0.dtd"
   xmlns:inkscape="http://www.inkscape.org/namespaces/inkscape"
   version="1.1"
   width="32"
   height="32"
   viewBox="0 0 32 32"
   id="svg2"
   inkscape:version="0.48.4 r9939"
   sodipodi:docname="playlist-edit.svg">
  <metadata
     id="metadata12">
    <rdf:RDF>
      <cc:Work
         rdf:about="">
        <dc:format>image/svg+xml</dc:format>
        <dc:type
           rdf:resource="http://purl.org/dc/dcmitype/StillImage" />
        <dc:title />
      </cc:Work>
    </rdf:RDF>
  </metadata>
  <defs
     id="defs10" />
  <sodipodi:namedview
     pagecolor="#ffffff"
     bordercolor="#666666"
     borderopacity="1"
     objecttolerance="10"
     gridtolerance="10"
     guidetolerance="10"
     inkscape:pageopacity="0"
     inkscape:pageshadow="2"
     inkscape:window-width="1339"
     inkscape:window-height="793"
     id="namedview8"
     showgrid="false"
     showguides="true"
     inkscape:guide-bbox="true"
     inkscape:zoom="8.0000004"
     inkscape:cx="11.640396"
     inkscape:cy="-1.45505"
     inkscape:window-x="332"
     inkscape:window-y="175"
     inkscape:window-maximized="0"
     inkscape:current-layer="svg2" />
  <path
     id="path3007"
     d="m 2.666,28.001 0,2.666 c 8.889334,0 17.778668,0 26.668,0 l 0,-2.666 c -8.889332,0 -17.778666,0 -26.668,0 z"
     inkscape:connector-curvature="0"
     sodipodi:nodetypes="ccccc" />
  <path
     sodipodi:nodetypes="ccccc"
     inkscape:connector-curvature="0"
     d="m 2.666,21.334 0,2.666 c 8.889334,0 17.778668,0 26.668,0 l 0,-2.666 c -8.889332,0 -17.778666,0 -26.668,0 z"
     id="path2991" />
  <path
     id="path2995"
     d="m 16.822064,14.668 -1.752397,2.666 c 4.395873,0 9.868461,0 14.264333,0 l 0,-2.666 c -4.395872,0 -8.116064,0 -12.511936,0 z"
     inkscape:connector-curvature="0"
     sodipodi:nodetypes="ccccc" />
  <path
     sodipodi:nodetypes="ccccc"
     inkscape:connector-curvature="0"
     d="M 20.661386,8.0009996 18.928009,10.667 c 3.531623,0 6.874368,0 10.405991,0 l 0,-2.6660004 c -3.531623,0 -5.140991,0 -8.672614,0 z"
     id="path2997" />
  <path
     d="M 10.170182,4.694531 5.6053741,13.836859 10.232018,16.06793 14.745581,6.900888 z M 12.962903,1.6691171 C 12.352852,1.3749311 11.663918,1.5650029 11.408893,2.089321 l -0.826182,1.6986441 4.626645,2.2310719 0.826183,-1.6986429 c 0.255007,-0.524293 -0.02239,-1.180359 -0.632438,-1.474542 z m -3.1811359,15.4288309 -4.521881,-2.184161 0.633398,4.245378 z"
     id="path4-3"
     inkscape:connector-curvature="0"
     sodipodi:nodetypes="cccccssccssscccc" />
</svg>
