<?xml version="1.0" encoding="UTF-8" standalone="no"?>
<!-- Generated by IcoMoon.io -->

<svg
   xmlns:dc="http://purl.org/dc/elements/1.1/"
   xmlns:cc="http://creativecommons.org/ns#"
   xmlns:rdf="http://www.w3.org/1999/02/22-rdf-syntax-ns#"
   xmlns:svg="http://www.w3.org/2000/svg"
   xmlns="http://www.w3.org/2000/svg"
   xmlns:sodipodi="http://sodipodi.sourceforge.net/DTD/sodipodi-0.dtd"
   xmlns:inkscape="http://www.inkscape.org/namespaces/inkscape"
   version="1.1"
   width="32"
   height="32"
   viewBox="0 0 32 32"
   id="svg2"
   inkscape:version="0.48.4 r9939"
   sodipodi:docname="playback-range.svg">
  <metadata
     id="metadata12">
    <rdf:RDF>
      <cc:Work
         rdf:about="">
        <dc:format>image/svg+xml</dc:format>
        <dc:type
           rdf:resource="http://purl.org/dc/dcmitype/StillImage" />
        <dc:title />
      </cc:Work>
    </rdf:RDF>
  </metadata>
  <defs
     id="defs10" />
  <sodipodi:namedview
     pagecolor="#ffffff"
     bordercolor="#666666"
     borderopacity="1"
     objecttolerance="10"
     gridtolerance="10"
     guidetolerance="10"
     inkscape:pageopacity="0"
     inkscape:pageshadow="2"
     inkscape:window-width="1339"
     inkscape:window-height="793"
     id="namedview8"
     showgrid="false"
     showguides="true"
     inkscape:guide-bbox="true"
     inkscape:zoom="5.6568546"
     inkscape:cx="77.210209"
     inkscape:cy="16.915521"
     inkscape:window-x="556"
     inkscape:window-y="128"
     inkscape:window-maximized="0"
     inkscape:current-layer="svg2" />
  <path
     style="fill:#444444"
     d="m 14.260586,4.4078222 0,8.0769878 c 3.46e-4,1.123952 0.566862,0.716402 0.926437,0.422142 l 4.684412,-4.0525658 c 0.24656,-0.2096238 0.24656,-0.6065173 0,-0.8161425 L 15.187023,3.9856792 C 14.707102,3.6169774 14.267959,3.5526137 14.260586,4.4078222 z"
     id="path2994"
     inkscape:connector-curvature="0"
     sodipodi:nodetypes="ccccccc" />
  <path
     id="path3007"
     style="fill:#444444;fill-opacity:1"
     d="m 0.00197855,22.666 0,1.334 C 10.668646,24 21.335313,24 32.001978,24 l 0,-1.334 c -10.666665,0 -21.333332,0 -31.99999945,0 z"
     inkscape:connector-curvature="0"
     sodipodi:nodetypes="ccccc" />
  <path
     id="path3009"
     style="fill:#444444;fill-opacity:1"
     d="m 8,29.333 2.666,0 c 0,-4.302049 0,-7.69795 0,-12 l -2.666,0 c 0,4.30205 0,7.69795 0,12 z"
     inkscape:connector-curvature="0"
     sodipodi:nodetypes="ccccc" />
  <path
     id="path3013"
     style="fill:#444444;fill-opacity:1"
     d="m 22.666,29.333 2.666,0 c 0,-4.30205 0,-7.69795 0,-12 l -2.666,0 c 0,4.30205 0,7.69795 0,12 z"
     inkscape:connector-curvature="0"
     sodipodi:nodetypes="ccccc" />
  <path
     sodipodi:nodetypes="ccccc"
     inkscape:connector-curvature="0"
     d="m 30.667,29.333 1.333,0 c 0,-3.999998 0,-8.000002 0,-12 l -1.333,0 c 0,3.999998 0,7.999998 0,12 z"
     style="fill:#444444;fill-opacity:1"
     id="path3015" />
  <path
     sodipodi:nodetypes="ccccc"
     inkscape:connector-curvature="0"
     d="m 0,29.333 1.3329999,0 c 0,-4.000001 0,-7.999999 0,-12 L 0,17.333 c 0,4.000001 0,7.999998 0,12 z"
     style="fill:#444444;fill-opacity:1"
     id="path3019" />
  <path
     sodipodi:nodetypes="ccccc"
     inkscape:connector-curvature="0"
     d="m 9.3144781,21.333499 0,4 c 4.6041669,0 9.2083339,0 13.8124999,0 l 0,-4 c -4.604166,0 -9.208333,0 -13.8124999,0 z"
     style="fill:#444444;fill-opacity:1"
     id="path3024" />
  <path
     style="font-size:medium;font-style:normal;font-variant:normal;font-weight:normal;font-stretch:normal;text-indent:0;text-align:start;text-decoration:none;line-height:normal;letter-spacing:normal;word-spacing:normal;text-transform:none;direction:ltr;block-progression:tb;writing-mode:lr-tb;text-anchor:start;baseline-shift:baseline;color:#000000;fill:#000000;fill-opacity:1;stroke:none;stroke-width:1.73816228;marker:none;visibility:visible;display:inline;overflow:visible;enable-background:accumulate;font-family:Sans;-inkscape-font-specification:Sans"
     d="m 16.281723,0.5413472 c -4.410383,0 -8.004539,3.5941557 -8.004539,8.0045392 0,4.4103836 3.594156,8.0045396 8.004539,8.0045396 4.410384,0 8.004539,-3.594156 8.004539,-8.0045396 0,-4.4103835 -3.594155,-8.0045392 -8.004539,-8.0045392 z m 0,1.3420784 c 3.689977,0 6.662461,2.972484 6.662461,6.6624608 0,3.6899776 -2.972484,6.6624606 -6.662461,6.6624606 -3.689977,0 -6.6624605,-2.972483 -6.6624605,-6.6624606 0,-3.6899768 2.9724835,-6.6624608 6.6624605,-6.6624608 z"
     id="path3784"
     inkscape:connector-curvature="0" />
</svg>
