<?xml version="1.0" encoding="UTF-8" standalone="no"?>
<!-- Generator: Adobe Illustrator 16.2.1, SVG Export Plug-In . SVG Version: 6.00 Build 0)  -->

<svg
   xmlns:dc="http://purl.org/dc/elements/1.1/"
   xmlns:cc="http://creativecommons.org/ns#"
   xmlns:rdf="http://www.w3.org/1999/02/22-rdf-syntax-ns#"
   xmlns:svg="http://www.w3.org/2000/svg"
   xmlns="http://www.w3.org/2000/svg"
   xmlns:sodipodi="http://sodipodi.sourceforge.net/DTD/sodipodi-0.dtd"
   xmlns:inkscape="http://www.inkscape.org/namespaces/inkscape"
   version="1.1"
   id="Layer_1"
   x="0px"
   y="0px"
   width="32"
   height="32"
   viewBox="0 0 32 32"
   enable-background="new 0 0 512 512"
   xml:space="preserve"
   inkscape:version="0.48.4 r9939"
   sodipodi:docname="preferences.svg"><metadata
     id="metadata33"><rdf:RDF><cc:Work
         rdf:about=""><dc:format>image/svg+xml</dc:format><dc:type
           rdf:resource="http://purl.org/dc/dcmitype/StillImage" /></cc:Work></rdf:RDF></metadata><defs
     id="defs31" /><sodipodi:namedview
     pagecolor="#ffffff"
     bordercolor="#666666"
     borderopacity="1"
     objecttolerance="10"
     gridtolerance="10"
     guidetolerance="10"
     inkscape:pageopacity="0"
     inkscape:pageshadow="2"
     inkscape:window-width="1271"
     inkscape:window-height="749"
     id="namedview29"
     showgrid="false"
     inkscape:zoom="7.375"
     inkscape:cx="-1.444831"
     inkscape:cy="22.794541"
     inkscape:window-x="0"
     inkscape:window-y="25"
     inkscape:window-maximized="0"
     inkscape:current-layer="Layer_1" /><g
     id="g3"
     transform="matrix(0.06696429,0,0,0.06696429,-1.1428582,-1.1428582)"
     style="fill:#444444;fill-opacity:1"><g
       id="g5"
       style="fill:#444444;fill-opacity:1"><rect
         x="32"
         y="384"
         width="272"
         height="32"
         id="rect7"
         style="fill:#444444;fill-opacity:1" /><rect
         x="400"
         y="384"
         width="80"
         height="32"
         id="rect9"
         style="fill:#444444;fill-opacity:1" /><path
         d="m 384,447.5 c 0,17.949 -14.327,32.5 -32,32.5 l 0,0 c -17.673,0 -32,-14.551 -32,-32.5 v -95 c 0,-17.949 14.327,-32.5 32,-32.5 l 0,0 c 17.673,0 32,14.551 32,32.5 v 95 z"
         id="path11"
         inkscape:connector-curvature="0"
         style="fill:#444444;fill-opacity:1" /></g><g
       id="g13"
       style="fill:#444444;fill-opacity:1"><rect
         x="32"
         y="240"
         width="80"
         height="32"
         id="rect15"
         style="fill:#444444;fill-opacity:1" /><rect
         x="208"
         y="240"
         width="272"
         height="32"
         id="rect17"
         style="fill:#444444;fill-opacity:1" /><path
         d="m 192,303.5 c 0,17.949 -14.327,32.5 -32,32.5 l 0,0 c -17.673,0 -32,-14.551 -32,-32.5 v -95 c 0,-17.949 14.327,-32.5 32,-32.5 l 0,0 c 17.673,0 32,14.551 32,32.5 v 95 z"
         id="path19"
         inkscape:connector-curvature="0"
         style="fill:#444444;fill-opacity:1" /></g><g
       id="g21"
       style="fill:#444444;fill-opacity:1"><rect
         x="32"
         y="96"
         width="272"
         height="32"
         id="rect23"
         style="fill:#444444;fill-opacity:1" /><rect
         x="400"
         y="96"
         width="80"
         height="32"
         id="rect25"
         style="fill:#444444;fill-opacity:1" /><path
         d="m 384,159.5 c 0,17.949 -14.327,32.5 -32,32.5 l 0,0 c -17.673,0 -32,-14.551 -32,-32.5 v -95 C 320,46.551 334.327,32 352,32 l 0,0 c 17.673,0 32,14.551 32,32.5 v 95 z"
         id="path27"
         inkscape:connector-curvature="0"
         style="fill:#444444;fill-opacity:1" /></g></g></svg>