<?xml version="1.0" encoding="UTF-8" standalone="no"?>
<!-- Generated by IcoMoon.io -->

<svg
   xmlns:dc="http://purl.org/dc/elements/1.1/"
   xmlns:cc="http://creativecommons.org/ns#"
   xmlns:rdf="http://www.w3.org/1999/02/22-rdf-syntax-ns#"
   xmlns:svg="http://www.w3.org/2000/svg"
   xmlns="http://www.w3.org/2000/svg"
   xmlns:sodipodi="http://sodipodi.sourceforge.net/DTD/sodipodi-0.dtd"
   xmlns:inkscape="http://www.inkscape.org/namespaces/inkscape"
   version="1.1"
   width="32"
   height="32"
   viewBox="0 0 32 32"
   id="svg2"
   inkscape:version="0.48.4 r9939"
   sodipodi:docname="refresh.svg">
  <metadata
     id="metadata12">
    <rdf:RDF>
      <cc:Work
         rdf:about="">
        <dc:format>image/svg+xml</dc:format>
        <dc:type
           rdf:resource="http://purl.org/dc/dcmitype/StillImage" />
      </cc:Work>
    </rdf:RDF>
  </metadata>
  <defs
     id="defs10" />
  <sodipodi:namedview
     pagecolor="#ffffff"
     bordercolor="#666666"
     borderopacity="1"
     objecttolerance="10"
     gridtolerance="10"
     guidetolerance="10"
     inkscape:pageopacity="0"
     inkscape:pageshadow="2"
     inkscape:window-width="1418"
     inkscape:window-height="945"
     id="namedview8"
     showgrid="false"
     showguides="true"
     inkscape:guide-bbox="true"
     inkscape:zoom="7.375"
     inkscape:cx="9.6704873"
     inkscape:cy="14.906179"
     inkscape:window-x="0"
     inkscape:window-y="25"
     inkscape:window-maximized="0"
     inkscape:current-layer="svg2" />
  <path
     style="font-size:medium;font-style:normal;font-variant:normal;font-weight:normal;font-stretch:normal;text-indent:0;text-align:start;text-decoration:none;line-height:normal;letter-spacing:normal;word-spacing:normal;text-transform:none;direction:ltr;block-progression:tb;writing-mode:lr-tb;text-anchor:start;baseline-shift:baseline;fill:#444444;fill-opacity:1;stroke:none;stroke-width:2.23095964999999996;marker:none;visibility:visible;display:inline;overflow:visible;enable-background:accumulate;font-family:Sans;-inkscape-font-specification:Sans"
     d="M 29.174024,3.6424609 C 28.962196,3.4139417 28.618445,3.4810188 28.342996,3.7621585 L 26.136126,6.066945 C 26.079803,6.0011014 26.032163,5.9275978 25.969134,5.8672457 20.386741,0.52201667 11.479337,0.71533627 6.1341074,6.2977292 0.78887867,11.880121 0.98219737,20.787525 6.5645908,26.132754 c 5.5823932,5.345229 14.4897972,5.15191 19.8350262,-0.430484 1.528672,-1.596498 2.590302,-3.458688 3.216492,-5.437546 L 26.258,20.113951 C 25.759848,21.330089 25.042116,22.46452 24.074067,23.47552 19.932264,27.801093 13.097033,27.969771 8.7714598,23.827969 4.4458873,19.686165 4.2970903,12.83017 8.4388937,8.5045983 12.580698,4.1790257 19.396929,4.0717561 23.722501,8.2135595 c 0.06427,0.061546 0.111052,0.1341607 0.166993,0.1996996 l -2.564739,2.6785349 c 0,0 -0.51161,0.553797 0.265047,0.9702 l 7.545482,0.100559 c 0.372475,-0.0072 0.62531,-0.271243 0.616332,-0.643679 L 29.323784,3.9848597 C 29.284556,3.8461461 29.244636,3.7186333 29.174026,3.6424604 z"
     id="path2982"
     inkscape:connector-curvature="0" />
</svg>
