<?xml version="1.0" encoding="UTF-8" standalone="no"?>
<svg
   xmlns:dc="http://purl.org/dc/elements/1.1/"
   xmlns:cc="http://creativecommons.org/ns#"
   xmlns:rdf="http://www.w3.org/1999/02/22-rdf-syntax-ns#"
   xmlns:svg="http://www.w3.org/2000/svg"
   xmlns="http://www.w3.org/2000/svg"
   xmlns:sodipodi="http://sodipodi.sourceforge.net/DTD/sodipodi-0.dtd"
   xmlns:inkscape="http://www.inkscape.org/namespaces/inkscape"
   version="1.1"
   width="32"
   height="32"
   viewBox="0 0 32 32"
   id="svg2"
   inkscape:version="0.48.4 r9939"
   sodipodi:docname="save.svg">
  <metadata
     id="metadata10">
    <rdf:RDF>
      <cc:Work
         rdf:about="">
        <dc:format>image/svg+xml</dc:format>
        <dc:type
           rdf:resource="http://purl.org/dc/dcmitype/StillImage" />
        <dc:title />
      </cc:Work>
    </rdf:RDF>
  </metadata>
  <defs
     id="defs8" />
  <sodipodi:namedview
     pagecolor="#ffffff"
     bordercolor="#666666"
     borderopacity="1"
     objecttolerance="10"
     gridtolerance="10"
     guidetolerance="10"
     inkscape:pageopacity="0"
     inkscape:pageshadow="2"
     inkscape:window-width="1351"
     inkscape:window-height="792"
     id="namedview6"
     showgrid="false"
     inkscape:zoom="9.8333332"
     inkscape:cx="-0.94504487"
     inkscape:cy="8.3057774"
     inkscape:window-x="0"
     inkscape:window-y="25"
     inkscape:window-maximized="0"
     inkscape:current-layer="svg2" />
  <path
     inkscape:connector-curvature="0"
     id="path3032"
     d="m 75.510357,12.888889 h -3.11111 V 8.2222218 h -6.222222 v 4.6666672 h -3.111111 l 6.222222,6.222222 m 10.888889,1.555555 H 73.954802 A 4.6666666,4.6666666 0 0 1 69.288136,25.333334 4.6666666,4.6666666 0 0 1 64.62147,20.666666 H 58.399247 V 5.1111111 H 80.177025 M 80.177025,2 H 58.399247 C 56.67258,2 55.288136,3.4 55.288136,5.1111111 V 26.888889 A 3.1111111,3.1111111 0 0 0 58.399247,30 h 21.777778 a 3.1111111,3.1111111 0 0 0 3.111111,-3.111111 V 5.1111111 A 3.1111111,3.1111111 0 0 0 80.177025,2 z" />
  <path
     d="M 93.1875 2 C 91.460833 2 90.0625 3.4138889 90.0625 5.125 L 90.0625 26.875 C 90.0625 28.503974 91.558526 30 93.1875 30 L 114.96875 30 C 116.59772 30 118.0625 28.503974 118.0625 26.875 L 118.0625 5.125 C 118.0625 3.4960261 116.59772 2.0000001 114.96875 2 L 93.1875 2 z M 93.1875 5.125 L 114.96875 5.125 L 114.96875 20.65625 L 108.75 20.65625 C 105.63888 20.67161 102.51737 20.66335 99.40625 20.65625 L 93.1875 20.65625 L 93.1875 5.125 z M 100.96875 8.21875 L 100.96875 12.875 L 97.84375 12.875 L 104.0625 19.125 L 110.28125 12.875 L 107.1875 12.875 L 107.1875 8.21875 L 100.96875 8.21875 z M 111.53125 23.21875 C 112.63582 23.21875 113.53125 24.114181 113.53125 25.21875 C 113.53125 26.323319 112.63582 27.21875 111.53125 27.21875 C 110.42668 27.21875 109.53125 26.323319 109.53125 25.21875 C 109.53125 24.114181 110.42668 23.21875 111.53125 23.21875 z "
     id="path3042" />
  <path
     style="font-size:medium;font-style:normal;font-variant:normal;font-weight:normal;font-stretch:normal;text-indent:0;text-align:start;text-decoration:none;line-height:normal;letter-spacing:normal;word-spacing:normal;text-transform:none;direction:ltr;block-progression:tb;writing-mode:lr-tb;text-anchor:start;baseline-shift:baseline;color:#000000;fill:#000000;fill-opacity:1;stroke:none;stroke-width:2.66599989;marker:none;visibility:visible;display:inline;overflow:visible;enable-background:accumulate;font-family:Sans;-inkscape-font-specification:Sans"
     d="m 4.5,18.65625 c -2.1004248,0 -3.84375,1.743325 -3.84375,3.84375 l 0,4.34375 c 0,2.100425 1.7433252,3.8125 3.84375,3.8125 l 23,0 c 2.100425,0 3.84375,-1.712075 3.84375,-3.8125 l 0,-4.34375 c 0,-2.100425 -1.743325,-3.84375 -3.84375,-3.84375 l -23,0 z m 0,2.6875 23,0 c 0.669575,0 1.15625,0.486675 1.15625,1.15625 l 0,4.34375 C 28.65625,27.513325 28.169575,28 27.5,28 l -23,0 C 3.8304248,28 3.34375,27.513325 3.34375,26.84375 l 0,-4.34375 c 0,-0.669575 0.4866748,-1.15625 1.15625,-1.15625 z"
     inkscape:connector-curvature="0"
     id="path2991" />
  <path
     d="m -79.762709,21.73972 0,4.46928 c 0,1.628974 1.46477,3.125 3.09375,3.125 l 21.781247,0 c 1.62897,0 3.125,-1.496026 3.125,-3.125 l 0,-4.46928 z"
     id="path3816"
     inkscape:connector-curvature="0"
     sodipodi:nodetypes="csssscc" />
  <rect
     style="fill:none;stroke:#f1ffff;stroke-width:1.33299994;stroke-miterlimit:4;stroke-opacity:1;stroke-dasharray:none"
     id="rect3822"
     width="19"
     height="11.145921"
     x="-75.262726"
     y="14.771587"
     rx="1"
     ry="1" />
  <path
     d="m -32.141949,4.5625 0,4.65625 -3.09375,0 6.21875,6.21875 6.21875,-6.21875 -3.09375,0 0,-4.65625 -6.25,0 z m -7.75,14.53125 c -1.726666,5e-6 -3.125,1.382639 -3.125,3.09375 l 0,4.6875 c 0,1.628974 1.496026,3.125 3.125,3.125 l 21.75,0 c 1.628974,0 3.125,-1.496026 3.125,-3.125 l 0,-4.6875 c 0,-1.628974 -1.496026,-3.093745 -3.125,-3.09375 l -21.75,0 z m 19.125,3.25 c 1.104569,0 2,0.895431 2,2 0,1.104569 -0.895431,2 -2,2 -1.10457,0 -2,-0.895431 -2,-2 0,-1.104569 0.89543,-2 2,-2 z"
     id="path3828"
     inkscape:connector-curvature="0" />
  <path
     d="m -57.958489,9.7312365 -3.90211,0 0,-5.8531687 -7.80422,0 0,5.8531687 -3.90212,0 7.80423,7.8042235"
     id="path4"
     inkscape:connector-curvature="0"
     sodipodi:nodetypes="ccccccc" />
  <path
     sodipodi:nodetypes="ccccccc"
     inkscape:connector-curvature="0"
     id="path3832"
     d="m 25.73896,7.3589641 -4.425112,0 0,-6.63767235 -8.850229,0 0,6.63767235 -4.4251144,0 8.8502294,8.8502279" />
  <path
     transform="matrix(0.15860215,0,0,0.15860215,26.802199,21.148018)"
     style="fill:#000000;fill-opacity:1;stroke:none"
     d="m -9.1525431,20.20339 c 0,6.964404 -5.6457649,12.61017 -12.6101689,12.61017 -6.964405,0 -12.61017,-5.645766 -12.61017,-12.61017 0,-6.964404 5.645765,-12.6101693 12.61017,-12.6101693 6.964404,0 12.6101689,5.6457653 12.6101689,12.6101693 z"
     id="path3834" />
  <rect
     ry="2.5"
     rx="2.5"
     y="54.372883"
     x="2"
     height="9.3339996"
     width="28"
     style="fill:none;stroke:#000000;stroke-width:2.66599989;stroke-miterlimit:4;stroke-opacity:1;stroke-dasharray:none"
     id="rect3773" />
</svg>
