<?xml version="1.0" encoding="UTF-8" standalone="no"?>
<!-- Generated by IcoMoon.io -->

<svg
   xmlns:dc="http://purl.org/dc/elements/1.1/"
   xmlns:cc="http://creativecommons.org/ns#"
   xmlns:rdf="http://www.w3.org/1999/02/22-rdf-syntax-ns#"
   xmlns:svg="http://www.w3.org/2000/svg"
   xmlns="http://www.w3.org/2000/svg"
   xmlns:sodipodi="http://sodipodi.sourceforge.net/DTD/sodipodi-0.dtd"
   xmlns:inkscape="http://www.inkscape.org/namespaces/inkscape"
   version="1.1"
   width="32"
   height="32"
   viewBox="0 0 32 32"
   id="svg2"
   inkscape:version="0.48.4 r9939"
   sodipodi:docname="screen-playback.svg">
  <metadata
     id="metadata12">
    <rdf:RDF>
      <cc:Work
         rdf:about="">
        <dc:format>image/svg+xml</dc:format>
        <dc:type
           rdf:resource="http://purl.org/dc/dcmitype/StillImage" />
        <dc:title />
      </cc:Work>
    </rdf:RDF>
  </metadata>
  <defs
     id="defs10">
    <path
       id="a"
       d="M0 0h24v24H0V0z" />
  </defs>
  <sodipodi:namedview
     pagecolor="#ffffff"
     bordercolor="#666666"
     borderopacity="1"
     objecttolerance="10"
     gridtolerance="10"
     guidetolerance="10"
     inkscape:pageopacity="0"
     inkscape:pageshadow="2"
     inkscape:window-width="1339"
     inkscape:window-height="793"
     id="namedview8"
     showgrid="false"
     showguides="true"
     inkscape:guide-bbox="true"
     inkscape:zoom="5.6568543"
     inkscape:cx="17.088452"
     inkscape:cy="6.1541773"
     inkscape:window-x="550"
     inkscape:window-y="172"
     inkscape:window-maximized="0"
     inkscape:current-layer="svg2" />
  <path
     style="font-size:medium;font-style:normal;font-variant:normal;font-weight:normal;font-stretch:normal;text-indent:0;text-align:start;text-decoration:none;line-height:normal;letter-spacing:normal;word-spacing:normal;text-transform:none;direction:ltr;block-progression:tb;writing-mode:lr-tb;text-anchor:start;baseline-shift:baseline;color:#000000;fill:#444444;fill-opacity:1;stroke:none;stroke-width:1.33299994;marker:none;visibility:visible;display:inline;overflow:visible;enable-background:accumulate;font-family:Sans;-inkscape-font-specification:Sans"
     d="M 3.6875,5.28125 C 2.406825,5.28325 -0.001638,7.1577449 0,8.4384199 L 0,11.96875 0,12.8125 0,21.112976 C 0,22.393652 2.406824,24 3.6875,24 l 6.625,0 18,0 c 1.280676,0 3.691552,-1.606353 3.6875,-2.887024 0,-0.815156 0,-1.630311 0,-2.445467 l -2.6875,0 c 0,0.669296 0,1.338592 0,2.007888 0,0.565252 -0.434752,0.997918 -1,1 l -19.3125,0 -5.3125,0 c -0.565248,-0.0021 -1.000367,-0.434748 -1,-1 l 0,-7.487897 0,-0.84375 0,-3.34375 c 0,-0.565252 0.434752,-0.997918 1,-1 l 5.875,0 7.775888,0 0,-2.6875 L 9.5625,5.28125 z"
     id="path3828"
     inkscape:connector-curvature="0"
     sodipodi:nodetypes="ccccsscsccccccccccscccccc" />
  <path
     sodipodi:nodetypes="ccssccssccc"
     inkscape:connector-curvature="0"
     style="fill:#444444;fill-opacity:1;stroke:none"
     d="m 14,24 -0.65625,2.670927 -3.225873,0 c -0.7384816,0 -1.3437496,0.446 -1.3437496,1 l 0,1.660529 14.4510946,0 0,-1.660529 c 0,-0.554 -0.605268,-1 -1.34375,-1 l -3.225222,0 L 18,24 z"
     id="path3830" />
  <path
     inkscape:connector-curvature="0"
     d="M 30.637949,5.3436321 H 29.877276 V 3.8212945 c 0,-2.1008273 -1.703904,-3.80584666 -3.803357,-3.80584666 -2.099455,0 -3.80336,1.70501936 -3.80336,3.80584666 v 1.5223376 h -0.760671 c -0.836741,0 -1.521345,0.6850522 -1.521345,1.5223386 V 14.477662 C 19.988543,15.314948 20.673147,16 21.509888,16 h 9.128061 c 0.836739,0 1.521342,-0.685052 1.521342,-1.522338 V 6.8659707 c 0,-0.8372864 -0.684603,-1.5223386 -1.521342,-1.5223386 z m -4.56403,6.8505229 c -0.83674,0 -1.521345,-0.685052 -1.521345,-1.522339 0,-0.8372856 0.684605,-1.5223379 1.521345,-1.5223379 0.836738,0 1.521343,0.6850523 1.521343,1.5223379 0,0.837287 -0.684605,1.522339 -1.521343,1.522339 z M 28.432,5.3436321 H 23.715836 V 3.8212945 c 0,-1.3015999 1.057333,-2.359625 2.358083,-2.359625 1.300747,0 2.358081,1.0580251 2.358081,2.359625 v 1.5223376 z"
     id="path6" />
  <g
     style="fill:#000000"
     id="g3087"
     transform="matrix(0.75140777,0,0,0.75140777,43.862902,-21.862077)">
    <path
       id="path3080"
       d="m 12,17 c 1.1,0 2,-0.9 2,-2 0,-1.1 -0.9,-2 -2,-2 -1.1,0 -2,0.9 -2,2 0,1.1 0.9,2 2,2 z M 18,8 H 17 V 6 C 17,3.24 14.76,1 12,1 9.24,1 7,3.24 7,6 V 8 H 6 C 4.9,8 4,8.9 4,10 v 10 c 0,1.1 0.9,2 2,2 h 12 c 1.1,0 2,-0.9 2,-2 V 10 C 20,8.9 19.1,8 18,8 z M 8.9,6 c 0,-1.71 1.39,-3.1 3.1,-3.1 1.71,0 3.1,1.39 3.1,3.1 V 8 H 8.9 V 6 z M 18,20 H 6 V 10 h 12 v 10 z"
       clip-path="url(#b)"
       inkscape:connector-curvature="0" />
  </g>
  <rect
     style="fill:#f44800;fill-opacity:1;stroke:none"
     id="rect3090"
     width="4.0216699"
     height="3.9332814"
     x="14.6455"
     y="-5.8956308" />
  <path
     sodipodi:nodetypes="ccccsscscccccsccccccscccccc"
     inkscape:connector-curvature="0"
     id="path3104"
     d="M 3.6875,45.28125 C 2.406825,45.28325 -0.001638,46.313075 0,47.59375 l 0,4.375 0,0.84375 0,8.875 C 0,62.968176 2.406824,64 3.6875,64 l 6.625,0 18,0 C 29.593176,64 32.004052,62.968171 32,61.6875 l 0,-1.21875 0,-4.391085 -2.6875,0 0,4.766085 0,0.84375 c 0,0.565252 -0.434752,0.997918 -1,1 l -19.3125,0 -5.3125,0 c -0.565248,-0.0021 -1.000367,-0.434748 -1,-1 l 0,-8.5 0,-0.84375 0,-4.71875 c 0,-0.565252 0.434752,-0.997918 1,-1 l 5.875,0 9.728553,0 0,-1.3125 L 9.5625,45.28125 z"
     style="font-size:medium;font-style:normal;font-variant:normal;font-weight:normal;font-stretch:normal;text-indent:0;text-align:start;text-decoration:none;line-height:normal;letter-spacing:normal;word-spacing:normal;text-transform:none;direction:ltr;block-progression:tb;writing-mode:lr-tb;text-anchor:start;baseline-shift:baseline;color:#000000;fill:#444444;fill-opacity:1;stroke:none;stroke-width:1.33299994;marker:none;visibility:visible;display:inline;overflow:visible;enable-background:accumulate;font-family:Sans;-inkscape-font-specification:Sans" />
  <path
     id="path3106"
     d="m 14,64 -0.65625,2.670927 -3.225873,0 c -0.7384816,0 -1.3437496,0.446 -1.3437496,1 l 0,1.660529 14.4510946,0 0,-1.660529 c 0,-0.554 -0.605268,-1 -1.34375,-1 l -3.225222,0 L 18,64 z"
     style="fill:#444444;fill-opacity:1;stroke:none"
     inkscape:connector-curvature="0"
     sodipodi:nodetypes="ccssccssccc" />
  <path
     id="path3108"
     d="m 30.787223,45.062517 h -0.686035 v -1.372068 c 0,-1.893456 -1.536717,-3.430174 -3.430172,-3.430174 -1.893455,0 -3.430172,1.536718 -3.430172,3.430174 v 1.372068 H 22.55481 c -0.754639,0 -1.37207,0.617431 -1.37207,1.37207 v 6.860344 c 0,0.754638 0.617431,1.372069 1.37207,1.372069 h 8.232413 c 0.754638,0 1.372068,-0.617431 1.372068,-1.372069 v -6.860344 c 0,-0.754639 -0.61743,-1.37207 -1.372068,-1.37207 z m -4.116207,6.174311 c -0.754638,0 -1.372069,-0.617431 -1.372069,-1.37207 0,-0.754637 0.617431,-1.372068 1.372069,-1.372068 0.754638,0 1.372069,0.617431 1.372069,1.372068 0,0.754639 -0.617431,1.37207 -1.372069,1.37207 z m 2.126707,-6.174311 h -4.253414 v -1.372068 c 0,-1.17312 0.953588,-2.126708 2.126707,-2.126708 1.173119,0 2.126707,0.953588 2.126707,2.126708 v 1.372068 z"
     inkscape:connector-curvature="0" />
</svg>
