<?xml version="1.0" encoding="UTF-8" standalone="no"?>
<!-- Generated by IcoMoon.io -->

<svg
   xmlns:dc="http://purl.org/dc/elements/1.1/"
   xmlns:cc="http://creativecommons.org/ns#"
   xmlns:rdf="http://www.w3.org/1999/02/22-rdf-syntax-ns#"
   xmlns:svg="http://www.w3.org/2000/svg"
   xmlns="http://www.w3.org/2000/svg"
   xmlns:sodipodi="http://sodipodi.sourceforge.net/DTD/sodipodi-0.dtd"
   xmlns:inkscape="http://www.inkscape.org/namespaces/inkscape"
   version="1.1"
   width="32"
   height="32"
   viewBox="0 0 32 32"
   id="svg2"
   inkscape:version="0.48.4 r9939"
   sodipodi:docname="screen-playback3.svg">
  <metadata
     id="metadata12">
    <rdf:RDF>
      <cc:Work
         rdf:about="">
        <dc:format>image/svg+xml</dc:format>
        <dc:type
           rdf:resource="http://purl.org/dc/dcmitype/StillImage" />
        <dc:title></dc:title>
      </cc:Work>
    </rdf:RDF>
  </metadata>
  <defs
     id="defs10" />
  <sodipodi:namedview
     pagecolor="#ffffff"
     bordercolor="#666666"
     borderopacity="1"
     objecttolerance="10"
     gridtolerance="10"
     guidetolerance="10"
     inkscape:pageopacity="0"
     inkscape:pageshadow="2"
     inkscape:window-width="1339"
     inkscape:window-height="793"
     id="namedview8"
     showgrid="false"
     showguides="true"
     inkscape:guide-bbox="true"
     inkscape:zoom="4"
     inkscape:cx="8.9462014"
     inkscape:cy="4.8395626"
     inkscape:window-x="556"
     inkscape:window-y="172"
     inkscape:window-maximized="0"
     inkscape:current-layer="svg2" />
  <path
     sodipodi:type="arc"
     style="fill:#444444;fill-opacity:1;stroke:none"
     id="path4010"
     sodipodi:cx="41.0625"
     sodipodi:cy="24.9375"
     sodipodi:rx="2.1875"
     sodipodi:ry="2.1875"
     d="m 43.25,24.9375 a 2.1875,2.1875 0 1 1 -4.375,0 2.1875,2.1875 0 1 1 4.375,0 z"
     transform="matrix(0.82408988,0,0,0.82408988,-112.03649,-0.38443811)" />
  <path
     style="font-size:medium;font-style:normal;font-variant:normal;font-weight:normal;font-stretch:normal;text-indent:0;text-align:start;text-decoration:none;line-height:normal;letter-spacing:normal;word-spacing:normal;text-transform:none;direction:ltr;block-progression:tb;writing-mode:lr-tb;text-anchor:start;baseline-shift:baseline;color:#000000;fill:#444444;fill-opacity:1;stroke:none;stroke-width:1.33299994;marker:none;visibility:visible;display:inline;overflow:visible;enable-background:accumulate;font-family:Sans;-inkscape-font-specification:Sans"
     d="m -72.330806,8.0301633 c -1.280654,0.00748 -2.34375,1.0318242 -2.34375,2.3125007 l 0,4.296608 0,0.84375 0,8.871478 c 0,1.280676 1.063074,2.3125 2.34375,2.3125 l 2.625,0 15.365962,0 c 1.280676,0 2.34375,-1.031823 2.34375,-2.3125 l 0,-1.234375 0,-12.78918 c 0,-1.280676 -1.063074,-2.3125004 -2.34375,-2.3125004 l -16.832031,0 0,1.3125004 16.832031,0 c 0.565248,0.0021 1,0.434748 1,1 l 0,13.160274 0,0.863281 c 0,0.565252 -0.434752,0.997918 -1,1 l -16.694087,0 -1.296875,0 c -0.565248,-0.0021 -1,-0.434748 -1,-1 l 0,-8.500384 0,-0.84375 0,-4.679421 c 0,-0.565252 0.434752,-0.997918 1,-1 l 4.5625,0 0,-1.3274355 z"
     id="path4014"
     inkscape:connector-curvature="0"
     sodipodi:nodetypes="ssccsscsscsscccscscccsccscccs" />
  <path
     transform="matrix(1.1904933,0,0,1.1904933,-116.8715,-9.6941308)"
     d="m 43.25,24.9375 a 2.1875,2.1875 0 1 1 -4.375,0 2.1875,2.1875 0 1 1 4.375,0 z"
     sodipodi:ry="2.1875"
     sodipodi:rx="2.1875"
     sodipodi:cy="24.9375"
     sodipodi:cx="41.0625"
     id="path4018"
     style="fill:#444444;fill-opacity:1;stroke:none"
     sodipodi:type="arc" />
  <path
     sodipodi:type="arc"
     style="fill:#444444;fill-opacity:1;stroke:none"
     id="path4020"
     sodipodi:cx="41.0625"
     sodipodi:cy="24.9375"
     sodipodi:rx="2.1875"
     sodipodi:ry="2.1875"
     d="m 43.25,24.9375 a 2.1875,2.1875 0 1 1 -4.375,0 2.1875,2.1875 0 1 1 4.375,0 z"
     transform="matrix(1.3333504,0,0,1.3333504,-30.784691,47.76062)" />
  <path
     transform="matrix(1.3333504,0,0,1.3333504,-38.695446,47.76062)"
     d="m 43.25,24.9375 a 2.1875,2.1875 0 1 1 -4.375,0 2.1875,2.1875 0 1 1 4.375,0 z"
     sodipodi:ry="2.1875"
     sodipodi:rx="2.1875"
     sodipodi:cy="24.9375"
     sodipodi:cx="41.0625"
     id="path4022"
     style="fill:#444444;fill-opacity:1;stroke:none"
     sodipodi:type="arc" />
  <path
     transform="matrix(0.80980417,0,0,0.80980417,-83.013914,0.00306189)"
     d="m 43.25,24.9375 a 2.1875,2.1875 0 1 1 -4.375,0 2.1875,2.1875 0 1 1 4.375,0 z"
     sodipodi:ry="2.1875"
     sodipodi:rx="2.1875"
     sodipodi:cy="24.9375"
     sodipodi:cx="41.0625"
     id="path4024"
     style="fill:#444444;fill-opacity:1;stroke:none"
     sodipodi:type="arc" />
  <rect
     style="fill:#ba4444;fill-opacity:1;stroke:none"
     id="rect4056"
     width="2.0771263"
     height="4.1542525"
     x="33.956345"
     y="77.343552" />
  <path
     transform="matrix(0.82408988,0,0,0.82408988,-32.036494,-39.051338)"
     d="m 43.25,24.9375 a 2.1875,2.1875 0 1 1 -4.375,0 2.1875,2.1875 0 1 1 4.375,0 z"
     sodipodi:ry="2.1875"
     sodipodi:rx="2.1875"
     sodipodi:cy="24.9375"
     sodipodi:cx="41.0625"
     id="path3047"
     style="fill:#444444;fill-opacity:1;stroke:none"
     sodipodi:type="arc" />
  <path
     style="fill:#444444"
     d="m 14.818547,-36.854608 0,10.36311 c 4.44e-4,1.442077 0.727308,0.919174 1.188657,0.541626 l 6.010296,-5.19961 c 0.316347,-0.268956 0.316347,-0.778187 0,-1.047145 l -6.010296,-5.199609 c -0.615759,-0.473059 -1.179197,-0.55564 -1.188657,0.541628 z"
     id="path3049"
     inkscape:connector-curvature="0"
     sodipodi:nodetypes="ccccccc" />
  <path
     sodipodi:nodetypes="ssccsscsscsscccscscccsccscccs"
     inkscape:connector-curvature="0"
     id="path3051"
     d="m 7.6691942,-31.019265 c -1.2806542,0.0075 -2.34375,1.031824 -2.34375,2.3125 l 0,4.679421 0,0.84375 0,8.871478 c 0,1.280676 1.0630739,2.3125 2.34375,2.3125 l 2.6249998,0 15.365962,0 c 1.280676,0 2.34375,-1.031823 2.34375,-2.3125 l 0,-1.234375 0,-12.78918 c 0,-1.280676 -1.063074,-2.3125 -2.34375,-2.3125 l -0.832031,0 0,1.3125 0.832031,0 c 0.565248,0.0021 1,0.434748 1,1 l 0,13.160274 0,0.863281 c 0,0.565252 -0.434752,0.997918 -1,1 l -16.6940868,0 -1.296875,0 c -0.5652482,-0.0021 -1,-0.434748 -1,-1 l 0,-8.500384 0,-0.84375 0,-4.679421 c 0,-0.565252 0.4347518,-0.997918 1,-1 l 4.5624998,0 0,-1.710248 z"
     style="font-size:medium;font-style:normal;font-variant:normal;font-weight:normal;font-stretch:normal;text-indent:0;text-align:start;text-decoration:none;line-height:normal;letter-spacing:normal;word-spacing:normal;text-transform:none;direction:ltr;block-progression:tb;writing-mode:lr-tb;text-anchor:start;baseline-shift:baseline;color:#000000;fill:#444444;fill-opacity:1;stroke:none;stroke-width:1.33299994;marker:none;visibility:visible;display:inline;overflow:visible;enable-background:accumulate;font-family:Sans;-inkscape-font-specification:Sans" />
  <path
     sodipodi:type="arc"
     style="fill:#444444;fill-opacity:1;stroke:none"
     id="path3053"
     sodipodi:cx="41.0625"
     sodipodi:cy="24.9375"
     sodipodi:rx="2.1875"
     sodipodi:ry="2.1875"
     d="m 43.25,24.9375 a 2.1875,2.1875 0 1 1 -4.375,0 2.1875,2.1875 0 1 1 4.375,0 z"
     transform="matrix(0.80980417,0,0,0.80980417,-3.0415356,-38.663838)" />
  <path
     sodipodi:type="arc"
     style="fill:#444444;fill-opacity:1;stroke:none"
     id="path3055"
     sodipodi:cx="41.0625"
     sodipodi:cy="24.9375"
     sodipodi:rx="2.1875"
     sodipodi:ry="2.1875"
     d="m 43.25,24.9375 a 2.1875,2.1875 0 1 1 -4.375,0 2.1875,2.1875 0 1 1 4.375,0 z"
     transform="matrix(0.80980417,0,0,0.80980417,-23.305215,-38.663838)" />
  <path
     transform="matrix(0.79551845,0,0,0.79551845,-16.05262,-38.276338)"
     d="m 43.25,24.9375 a 2.1875,2.1875 0 1 1 -4.375,0 2.1875,2.1875 0 1 1 4.375,0 z"
     sodipodi:ry="2.1875"
     sodipodi:rx="2.1875"
     sodipodi:cy="24.9375"
     sodipodi:cx="41.0625"
     id="path3057"
     style="fill:#444444;fill-opacity:1;stroke:none"
     sodipodi:type="arc" />
  <path
     sodipodi:type="arc"
     style="fill:#444444;fill-opacity:1;stroke:none"
     id="path3059"
     sodipodi:cx="41.0625"
     sodipodi:cy="24.9375"
     sodipodi:rx="2.1875"
     sodipodi:ry="2.1875"
     d="m 43.25,24.9375 a 2.1875,2.1875 0 1 1 -4.375,0 2.1875,2.1875 0 1 1 4.375,0 z"
     transform="matrix(0.79551845,0,0,0.79551845,-9.5862759,-38.276338)" />
  <path
     sodipodi:type="arc"
     style="fill:#444444;fill-opacity:1;stroke:none"
     id="path3063"
     sodipodi:cx="41.0625"
     sodipodi:cy="24.9375"
     sodipodi:rx="2.1875"
     sodipodi:ry="2.1875"
     d="m 43.25,24.9375 a 2.1875,2.1875 0 1 1 -4.375,0 2.1875,2.1875 0 1 1 4.375,0 z"
     transform="matrix(1.1904933,0,0,1.1904933,-108.1215,-9.6941308)" />
  <path
     style="fill:#444444;fill-opacity:1;stroke:none"
     d="m -66,26.65625 -0.65625,2.6875 -2,0 c -0.738482,0 -1.34375,0.446 -1.34375,1 l 0,0.3125 12,0 0,-0.3125 c 0,-0.554 -0.605268,-1 -1.34375,-1 l -2,0 -0.65625,-2.6875 -4,0 z"
     id="rect3047"
     inkscape:connector-curvature="0" />
  <rect
     y="72.809967"
     x="14"
     height="2.6659999"
     width="4"
     id="rect3055"
     style="fill:#986601;fill-opacity:1;stroke:none" />
  <rect
     y="91.381973"
     x="10"
     height="1.3329999"
     width="12"
     id="rect3057"
     style="fill:#ba4444;fill-opacity:1;stroke:none" />
  <rect
     style="fill:#d9bb7a;fill-opacity:1;stroke:none"
     id="rect3059"
     width="5.3330002"
     height="2.6659999"
     x="13.3335"
     y="75.550003" />
  <rect
     ry="1"
     rx="1.3329999"
     y="29.334"
     x="90"
     height="2.6659999"
     width="12"
     id="rect3833"
     style="fill:#336699;fill-opacity:1;stroke:none" />
  <rect
     style="fill:#ba4444;fill-opacity:1;stroke:none"
     id="rect3835"
     width="12"
     height="1.3329999"
     x="90"
     y="30.667" />
  <path
     transform="matrix(0.82408988,0,0,0.82408988,-32.036494,39.615562)"
     d="m 43.25,24.9375 a 2.1875,2.1875 0 1 1 -4.375,0 2.1875,2.1875 0 1 1 4.375,0 z"
     sodipodi:ry="2.1875"
     sodipodi:rx="2.1875"
     sodipodi:cy="24.9375"
     sodipodi:cx="41.0625"
     id="path3841"
     style="fill:#444444;fill-opacity:1;stroke:none"
     sodipodi:type="arc" />
  <path
     style="fill:#444444"
     d="m 14.818547,42.437699 0,10.363111 c 4.44e-4,1.442077 0.727308,0.919174 1.188657,0.541626 L 22.0175,48.142825 c 0.316347,-0.268955 0.316347,-0.778186 0,-1.047145 l -6.010296,-5.199608 c -0.615759,-0.47306 -1.179197,-0.555641 -1.188657,0.541627 z"
     id="path3843"
     inkscape:connector-curvature="0"
     sodipodi:nodetypes="ccccccc" />
  <path
     sodipodi:nodetypes="ssccsscsscsscccscscccsccscccs"
     inkscape:connector-curvature="0"
     id="path3845"
     d="m 7.6691942,48.006726 c -1.2806653,0.0053 -2.34375,1.031824 -2.34375,2.3125 l 0,4.320046 0,0.84375 0,8.871478 c 0,1.280676 1.0630739,2.3125 2.34375,2.3125 l 2.6249998,0 15.365962,0 c 1.280676,0 2.34375,-1.031823 2.34375,-2.3125 l 0,-1.234375 0,-12.78918 c 0,-1.280676 -1.063074,-2.3125 -2.34375,-2.3125 l -0.832031,0 0,1.3125 0.832031,0 c 0.565248,0.0021 1,0.434748 1,1 l 0,13.160274 0,0.863281 c 0,0.565252 -0.434752,0.997918 -1,1 l -16.6940868,0 -1.296875,0 c -0.5652482,-0.0021 -1,-0.434748 -1,-1 l 0,-8.500384 0,-0.84375 0,-4.679421 c 0,-0.565252 0.4347518,-0.997918 1,-1 l 4.5624998,0 0,-1.34306 z"
     style="font-size:medium;font-style:normal;font-variant:normal;font-weight:normal;font-stretch:normal;text-indent:0;text-align:start;text-decoration:none;line-height:normal;letter-spacing:normal;word-spacing:normal;text-transform:none;direction:ltr;block-progression:tb;writing-mode:lr-tb;text-anchor:start;baseline-shift:baseline;color:#000000;fill:#444444;fill-opacity:1;stroke:none;stroke-width:1.33299994;marker:none;visibility:visible;display:inline;overflow:visible;enable-background:accumulate;font-family:Sans;-inkscape-font-specification:Sans" />
  <path
     sodipodi:type="arc"
     style="fill:#444444;fill-opacity:1;stroke:none"
     id="path3847"
     sodipodi:cx="41.0625"
     sodipodi:cy="24.9375"
     sodipodi:rx="2.1875"
     sodipodi:ry="2.1875"
     d="m 43.25,24.9375 a 2.1875,2.1875 0 1 1 -4.375,0 2.1875,2.1875 0 1 1 4.375,0 z"
     transform="matrix(1.1904933,0,0,1.1904933,-36.871503,30.305869)" />
  <path
     sodipodi:type="arc"
     style="fill:#444444;fill-opacity:1;stroke:none"
     id="path3849"
     sodipodi:cx="41.0625"
     sodipodi:cy="24.9375"
     sodipodi:rx="2.1875"
     sodipodi:ry="2.1875"
     d="m 43.25,24.9375 a 2.1875,2.1875 0 1 1 -4.375,0 2.1875,2.1875 0 1 1 4.375,0 z"
     transform="matrix(0.80980417,0,0,0.80980417,-3.0139142,40.003062)" />
  <path
     transform="matrix(1.1904933,0,0,1.1904933,-28.121503,30.305869)"
     d="m 43.25,24.9375 a 2.1875,2.1875 0 1 1 -4.375,0 2.1875,2.1875 0 1 1 4.375,0 z"
     sodipodi:ry="2.1875"
     sodipodi:rx="2.1875"
     sodipodi:cy="24.9375"
     sodipodi:cx="41.0625"
     id="path3851"
     style="fill:#444444;fill-opacity:1;stroke:none"
     sodipodi:type="arc" />
  <path
     id="path3853"
     d="m 14,66.65625 -0.65625,2.6875 -2,0 c -0.738482,0 -1.34375,0.446 -1.34375,1 l 0,0.3125 12,0 0,-0.3125 c 0,-0.554 -0.605268,-1 -1.34375,-1 l -2,0 L 18,66.65625 l -4,0 z"
     style="fill:#444444;fill-opacity:1;stroke:none"
     inkscape:connector-curvature="0" />
  <path
     style="font-size:medium;font-style:normal;font-variant:normal;font-weight:normal;font-stretch:normal;text-indent:0;text-align:start;text-decoration:none;line-height:normal;letter-spacing:normal;word-spacing:normal;text-transform:none;direction:ltr;block-progression:tb;writing-mode:lr-tb;text-anchor:start;baseline-shift:baseline;color:#000000;fill:#444444;fill-opacity:1;stroke:none;stroke-width:1.33299994;marker:none;visibility:visible;display:inline;overflow:visible;enable-background:accumulate;font-family:Sans;-inkscape-font-specification:Sans"
     d="m -32.328125,8 c -1.280675,0.002 -2.345388,1.031825 -2.34375,2.3125 l 0,1.65625 0,0.84375 0,8.875 c 0,1.280676 1.063074,2.3125 2.34375,2.3125 l 2.625,0 15.360727,0 c 1.280676,0 2.347802,-1.031829 2.34375,-2.3125 l 0,-1.21875 0,-10.125 c 0,-1.280676 -1.063074,-2.3125 -2.34375,-2.3125 L -30.421875,8 z m 0,1.34375 1.90625,0 16.079477,0 c 0.565248,0.0021 1,0.434748 1,1 l 0,10.5 0,0.84375 c 0,0.565252 -0.434752,0.997918 -1,1 l -16.673227,0 -1.3125,0 c -0.565248,-0.0021 -1.000367,-0.434748 -1,-1 l 0,-8.5 0,-0.84375 0,-2 c 0,-0.565252 0.434752,-0.997918 1,-1 z"
     id="path3881"
     inkscape:connector-curvature="0"
     sodipodi:nodetypes="ccccsscsccsccccccscsccccccsc" />
  <path
     inkscape:connector-curvature="0"
     style="fill:#444444;fill-opacity:1;stroke:none"
     d="m -26,24 -0.65625,2.6875 -2,0 c -0.738482,0 -1.34375,0.446 -1.34375,1 l 0,0.3125 12,0 0,-0.3125 c 0,-0.554 -0.605268,-1 -1.34375,-1 l -2,0 L -22,24 l -4,0 z"
     id="path3889" />
  <rect
     style="fill:#986601;fill-opacity:1;stroke:none"
     id="rect3891"
     width="4"
     height="2.6659999"
     x="33.1875"
     y="12.837495" />
  <path
     sodipodi:type="arc"
     style="fill:#444444;fill-opacity:1;stroke:none"
     id="path3897"
     sodipodi:cx="41.0625"
     sodipodi:cy="24.9375"
     sodipodi:rx="2.1875"
     sodipodi:ry="2.1875"
     d="m 43.25,24.9375 a 2.1875,2.1875 0 1 1 -4.375,0 2.1875,2.1875 0 1 1 4.375,0 z"
     transform="matrix(0.80980417,0,0,0.80980417,-83.013914,0.00306189)" />
  <path
     style="fill:#444444"
     d="m 53.344393,12.671866 0,9.317911 c 3.99e-4,1.296632 0.653953,0.826468 1.068772,0.486998 l 5.404111,-4.675189 c 0.28444,-0.241829 0.28444,-0.6997 0,-0.941533 l -5.404111,-4.675187 c -0.553655,-0.425348 -1.060266,-0.4996 -1.068772,0.487 z"
     id="path3901"
     inkscape:connector-curvature="0"
     sodipodi:nodetypes="ccccccc" />
  <path
     sodipodi:nodetypes="ccccsscsccsccccccscsccccccsc"
     inkscape:connector-curvature="0"
     id="path3903"
     d="m 45,8 c -1.280675,0.002 -2.345388,1.031825 -2.34375,2.3125 l 0,4.3125 0,0.84375 0,8.875 c 0,1.280676 1.063074,2.3125 2.34375,2.3125 l 2.625,0 19.375,0 c 1.280676,0 2.347802,-1.031829 2.34375,-2.3125 l 0,-1.21875 0,-12.78125 C 69.34375,9.063074 68.280676,8.03125 67,8.03125 L 49.578125,8 z m 0,1.34375 4.578125,0 17.421875,0 c 0.565248,0.0021 1,0.434748 1,1 L 68,23.5 l 0,0.84375 c 0,0.565252 -0.434752,0.997918 -1,1 l -20.6875,0 -1.3125,0 c -0.565248,-0.0021 -1.000367,-0.434748 -1,-1 l 0,-8.5 L 44,15 44,10.34375 c 0,-0.565252 0.434752,-0.997918 1,-1 z"
     style="font-size:medium;font-style:normal;font-variant:normal;font-weight:normal;font-stretch:normal;text-indent:0;text-align:start;text-decoration:none;line-height:normal;letter-spacing:normal;word-spacing:normal;text-transform:none;direction:ltr;block-progression:tb;writing-mode:lr-tb;text-anchor:start;baseline-shift:baseline;color:#000000;fill:#444444;fill-opacity:1;stroke:none;stroke-width:1.33299994;marker:none;visibility:visible;display:inline;overflow:visible;enable-background:accumulate;font-family:Sans;-inkscape-font-specification:Sans" />
  <path
     id="path3905"
     d="m 54,26.65625 -0.65625,2.6875 -2,0 c -0.738482,0 -1.34375,0.446 -1.34375,1 l 0,0.3125 12,0 0,-0.3125 c 0,-0.554 -0.605268,-1 -1.34375,-1 l -2,0 L 58,26.65625 l -4,0 z"
     style="fill:#444444;fill-opacity:1;stroke:none"
     inkscape:connector-curvature="0" />
  <path
     transform="matrix(0.80980417,0,0,0.80980417,-75.481137,-2.6531881)"
     d="m 43.25,24.9375 a 2.1875,2.1875 0 1 1 -4.375,0 2.1875,2.1875 0 1 1 4.375,0 z"
     sodipodi:ry="2.1875"
     sodipodi:rx="2.1875"
     sodipodi:cy="24.9375"
     sodipodi:cx="41.0625"
     id="path3907"
     style="fill:#444444;fill-opacity:1;stroke:none"
     sodipodi:type="arc" />
  <path
     sodipodi:type="arc"
     style="fill:#444444;fill-opacity:1;stroke:none"
     id="path3909"
     sodipodi:cx="41.0625"
     sodipodi:cy="24.9375"
     sodipodi:rx="2.1875"
     sodipodi:ry="2.1875"
     d="m 43.25,24.9375 a 2.1875,2.1875 0 1 1 -4.375,0 2.1875,2.1875 0 1 1 4.375,0 z"
     transform="matrix(0.80980417,0,0,0.80980417,-39.012387,-2.6531881)" />
  <path
     sodipodi:type="arc"
     style="fill:#444444;fill-opacity:1;stroke:none"
     id="path3911"
     sodipodi:cx="41.0625"
     sodipodi:cy="24.9375"
     sodipodi:rx="2.1875"
     sodipodi:ry="2.1875"
     d="m 43.25,24.9375 a 2.1875,2.1875 0 1 1 -4.375,0 2.1875,2.1875 0 1 1 4.375,0 z"
     transform="matrix(0.80980417,0,0,0.80980417,-62.793637,-2.6531881)" />
  <path
     transform="matrix(0.80980417,0,0,0.80980417,-50.737419,-2.6531881)"
     d="m 43.25,24.9375 a 2.1875,2.1875 0 1 1 -4.375,0 2.1875,2.1875 0 1 1 4.375,0 z"
     sodipodi:ry="2.1875"
     sodipodi:rx="2.1875"
     sodipodi:cy="24.9375"
     sodipodi:cx="41.0625"
     id="path3913"
     style="fill:#444444;fill-opacity:1;stroke:none"
     sodipodi:type="arc" />
  <path
     transform="matrix(0.80980417,0,0,0.80980417,-56.606452,-2.6531881)"
     d="m 43.25,24.9375 a 2.1875,2.1875 0 1 1 -4.375,0 2.1875,2.1875 0 1 1 4.375,0 z"
     sodipodi:ry="2.1875"
     sodipodi:rx="2.1875"
     sodipodi:cy="24.9375"
     sodipodi:cx="41.0625"
     id="path3915"
     style="fill:#444444;fill-opacity:1;stroke:none"
     sodipodi:type="arc" />
  <path
     sodipodi:nodetypes="ccccsscsccsccccccscsccccccsc"
     inkscape:connector-curvature="0"
     id="path3951"
     d="m 5.0078125,8 c -1.280675,0.002 -2.345388,1.031825 -2.34375,2.3125 l 0,1.65625 0,0.84375 0,8.875 c 0,1.280676 1.063074,2.3125 2.34375,2.3125 l 5.2890625,0 16.704477,0 c 1.280676,0 2.347802,-1.031829 2.34375,-2.3125 l 0,-1.21875 0,-10.125 c 0,-1.280676 -1.063074,-2.3125 -2.34375,-2.3125 L 9.578125,8 z m 0,1.34375 4.5703125,0 17.423227,0 c 0.565248,0.0021 1,0.434748 1,1 l 0,10.5 0,0.84375 c 0,0.565252 -0.434752,0.997918 -1,1 l -18.016977,0 -3.9765625,0 c -0.565248,-0.0021 -1.000367,-0.434748 -1,-1 l 0,-8.5 0,-0.84375 0,-2 c 0,-0.565252 0.434752,-0.997918 1,-1 z"
     style="font-size:medium;font-style:normal;font-variant:normal;font-weight:normal;font-stretch:normal;text-indent:0;text-align:start;text-decoration:none;line-height:normal;letter-spacing:normal;word-spacing:normal;text-transform:none;direction:ltr;block-progression:tb;writing-mode:lr-tb;text-anchor:start;baseline-shift:baseline;color:#000000;fill:#444444;fill-opacity:1;stroke:none;stroke-width:1.33299994;marker:none;visibility:visible;display:inline;overflow:visible;enable-background:accumulate;font-family:Sans;-inkscape-font-specification:Sans" />
  <path
     id="path3953"
     d="m 14,24 -0.65625,2.6875 -2,0 c -0.738482,0 -1.34375,0.446 -1.34375,1 L 10,28 l 12,0 0,-0.3125 c 0,-0.554 -0.605268,-1 -1.34375,-1 l -2,0 L 18,24 14,24 z"
     style="fill:#444444;fill-opacity:1;stroke:none"
     inkscape:connector-curvature="0" />
  <path
     transform="matrix(0.80980417,0,0,0.80980417,0.987613,-2.6531881)"
     d="m 43.25,24.9375 a 2.1875,2.1875 0 1 1 -4.375,0 2.1875,2.1875 0 1 1 4.375,0 z"
     sodipodi:ry="2.1875"
     sodipodi:rx="2.1875"
     sodipodi:cy="24.9375"
     sodipodi:cx="41.0625"
     id="path3957"
     style="fill:#444444;fill-opacity:1;stroke:none"
     sodipodi:type="arc" />
  <path
     sodipodi:type="arc"
     style="fill:#444444;fill-opacity:1;stroke:none"
     id="path3965"
     sodipodi:cx="41.0625"
     sodipodi:cy="24.9375"
     sodipodi:rx="2.1875"
     sodipodi:ry="2.1875"
     d="m 43.25,24.9375 a 2.1875,2.1875 0 1 1 -4.375,0 2.1875,2.1875 0 1 1 4.375,0 z"
     transform="matrix(1.1904933,0,0,1.1904933,-25.637746,-12.214946)" />
  <path
     transform="matrix(1.1904933,0,0,1.1904933,-32.884631,-12.214946)"
     d="m 43.25,24.9375 a 2.1875,2.1875 0 1 1 -4.375,0 2.1875,2.1875 0 1 1 4.375,0 z"
     sodipodi:ry="2.1875"
     sodipodi:rx="2.1875"
     sodipodi:cy="24.9375"
     sodipodi:cx="41.0625"
     id="path3967"
     style="fill:#444444;fill-opacity:1;stroke:none"
     sodipodi:type="arc" />
  <path
     sodipodi:type="arc"
     style="fill:#444444;fill-opacity:1;stroke:none"
     id="path3969"
     sodipodi:cx="41.0625"
     sodipodi:cy="24.9375"
     sodipodi:rx="2.1875"
     sodipodi:ry="2.1875"
     d="m 43.25,24.9375 a 2.1875,2.1875 0 1 1 -4.375,0 2.1875,2.1875 0 1 1 4.375,0 z"
     transform="matrix(1.1904933,0,0,1.1904933,-40.09041,-12.214946)" />
</svg>
