<?xml version="1.0" encoding="UTF-8" standalone="no"?>
<!-- Generated by IcoMoon.io -->

<svg
   xmlns:dc="http://purl.org/dc/elements/1.1/"
   xmlns:cc="http://creativecommons.org/ns#"
   xmlns:rdf="http://www.w3.org/1999/02/22-rdf-syntax-ns#"
   xmlns:svg="http://www.w3.org/2000/svg"
   xmlns="http://www.w3.org/2000/svg"
   xmlns:sodipodi="http://sodipodi.sourceforge.net/DTD/sodipodi-0.dtd"
   xmlns:inkscape="http://www.inkscape.org/namespaces/inkscape"
   version="1.1"
   width="32"
   height="32"
   viewBox="0 0 32 32"
   id="svg2"
   inkscape:version="0.48.4 r9939"
   sodipodi:docname="screen-playback.svg">
  <metadata
     id="metadata12">
    <rdf:RDF>
      <cc:Work
         rdf:about="">
        <dc:format>image/svg+xml</dc:format>
        <dc:type
           rdf:resource="http://purl.org/dc/dcmitype/StillImage" />
        <dc:title />
      </cc:Work>
    </rdf:RDF>
  </metadata>
  <defs
     id="defs10">
    <path
       id="a"
       d="M0 0h24v24H0V0z" />
  </defs>
  <sodipodi:namedview
     pagecolor="#ffffff"
     bordercolor="#666666"
     borderopacity="1"
     objecttolerance="10"
     gridtolerance="10"
     guidetolerance="10"
     inkscape:pageopacity="0"
     inkscape:pageshadow="2"
     inkscape:window-width="1339"
     inkscape:window-height="793"
     id="namedview8"
     showgrid="false"
     showguides="true"
     inkscape:guide-bbox="true"
     inkscape:zoom="5.6568543"
     inkscape:cx="-7.9032771"
     inkscape:cy="3.1797369"
     inkscape:window-x="550"
     inkscape:window-y="172"
     inkscape:window-maximized="0"
     inkscape:current-layer="svg2" />
  <path
     d="M 3.6875,5.28125 C 2.406825,5.28325 -0.001638,7.1577449 0,8.4384199 L 0,11.96875 0,12.8125 0,21.112976 C 0,22.393652 2.406824,24 3.6875,24 l 6.625,0 18,0 c 1.280676,0 3.691552,-1.606353 3.6875,-2.887024 0,-0.815156 0,-1.630311 0,-2.445467 l -2.6875,0 c 0,0.669296 0,1.338592 0,2.007888 0,0.565252 -0.434752,0.997918 -1,1 l -19.3125,0 -5.3125,0 c -0.565248,-0.0021 -1.000367,-0.434748 -1,-1 l 0,-7.487897 0,-0.84375 0,-3.34375 c 0,-0.565252 0.434752,-0.997918 1,-1 l 5.875,0 7.775888,0 0,-2.6875 L 9.5625,5.28125 z"
     id="path3828"
     inkscape:connector-curvature="0"
     sodipodi:nodetypes="ccccsscsccccccccccscccccc" />
  <path
     sodipodi:nodetypes="ccssccssccc"
     inkscape:connector-curvature="0"
     d="m 14,24 -0.65625,2.670927 -3.225873,0 c -0.7384816,0 -1.3437496,0.446 -1.3437496,1 l 0,1.660529 14.4510946,0 0,-1.660529 c 0,-0.554 -0.605268,-1 -1.34375,-1 l -3.225222,0 L 18,24 z"
     id="path3830" />
  <path
     inkscape:connector-curvature="0"
     d="M 30.637949,5.3436321 H 29.877276 V 3.8212945 c 0,-2.1008273 -1.703904,-3.80584666 -3.803357,-3.80584666 -2.099455,0 -3.80336,1.70501936 -3.80336,3.80584666 v 1.5223376 h -0.760671 c -0.836741,0 -1.521345,0.6850522 -1.521345,1.5223386 V 14.477662 C 19.988543,15.314948 20.673147,16 21.509888,16 h 9.128061 c 0.836739,0 1.521342,-0.685052 1.521342,-1.522338 V 6.8659707 c 0,-0.8372864 -0.684603,-1.5223386 -1.521342,-1.5223386 z m -4.56403,6.8505229 c -0.83674,0 -1.521345,-0.685052 -1.521345,-1.522339 0,-0.8372856 0.684605,-1.5223379 1.521345,-1.5223379 0.836738,0 1.521343,0.6850523 1.521343,1.5223379 0,0.837287 -0.684605,1.522339 -1.521343,1.522339 z M 28.432,5.3436321 H 23.715836 V 3.8212945 c 0,-1.3015999 1.057333,-2.359625 2.358083,-2.359625 1.300747,0 2.358081,1.0580251 2.358081,2.359625 v 1.5223376 z"
     id="path6" />
</svg>
