<?xml version="1.0" encoding="UTF-8" standalone="no"?>
<!-- Generated by IcoMoon.io -->

<svg
   xmlns:dc="http://purl.org/dc/elements/1.1/"
   xmlns:cc="http://creativecommons.org/ns#"
   xmlns:rdf="http://www.w3.org/1999/02/22-rdf-syntax-ns#"
   xmlns:svg="http://www.w3.org/2000/svg"
   xmlns="http://www.w3.org/2000/svg"
   xmlns:sodipodi="http://sodipodi.sourceforge.net/DTD/sodipodi-0.dtd"
   xmlns:inkscape="http://www.inkscape.org/namespaces/inkscape"
   version="1.1"
   width="32"
   height="32"
   viewBox="0 0 32 32"
   id="svg2"
   inkscape:version="0.48.4 r9939"
   sodipodi:docname="section-mode.svg">
  <metadata
     id="metadata12">
    <rdf:RDF>
      <cc:Work
         rdf:about="">
        <dc:format>image/svg+xml</dc:format>
        <dc:type
           rdf:resource="http://purl.org/dc/dcmitype/StillImage" />
        <dc:title />
      </cc:Work>
    </rdf:RDF>
  </metadata>
  <defs
     id="defs10" />
  <sodipodi:namedview
     pagecolor="#ffffff"
     bordercolor="#666666"
     borderopacity="1"
     objecttolerance="10"
     gridtolerance="10"
     guidetolerance="10"
     inkscape:pageopacity="0"
     inkscape:pageshadow="2"
     inkscape:window-width="1339"
     inkscape:window-height="793"
     id="namedview8"
     showgrid="false"
     showguides="true"
     inkscape:guide-bbox="true"
     inkscape:zoom="5.6568543"
     inkscape:cx="20.134489"
     inkscape:cy="11.211361"
     inkscape:window-x="560"
     inkscape:window-y="260"
     inkscape:window-maximized="0"
     inkscape:current-layer="svg2" />
  <path
     d="m 2.65625,28 0,2.65625 26.6875,0 0,-2.65625 -6.28512,0 -3.635463,2.479902 -2.330067,0.0036 L 15.881282,28 z"
     id="path2991"
     inkscape:connector-curvature="0"
     sodipodi:nodetypes="ccccccccc" />
  <path
     d="m 6.983402,6.224398 0,8.076986 c 3.46e-4,1.123952 0.566862,0.716402 0.926437,0.422142 l 4.68441,-4.052564 c 0.24656,-0.209624 0.24656,-0.606518 0,-0.816143 L 7.909839,5.802255 C 7.429918,5.433553 6.990775,5.369189 6.983402,6.224398 z"
     id="path2994-3"
     inkscape:connector-curvature="0"
     sodipodi:nodetypes="ccccccc" />
  <path
     style="font-size:medium;font-style:normal;font-variant:normal;font-weight:normal;font-stretch:normal;text-indent:0;text-align:start;text-decoration:none;line-height:normal;letter-spacing:normal;word-spacing:normal;text-transform:none;direction:ltr;block-progression:tb;writing-mode:lr-tb;text-anchor:start;baseline-shift:baseline;stroke:none;stroke-width:1.73816228;marker:none;visibility:visible;display:inline;overflow:visible;enable-background:accumulate;font-family:Sans;-inkscape-font-specification:Sans"
     d="M 9.004539,2.3579227 C 4.594156,2.3579227 1,5.952079 1,10.362462 1,14.772844 4.594156,18.367 9.004539,18.367 c 4.410382,0 8.004537,-3.594156 8.004537,-8.004538 0,-4.410383 -3.594155,-8.0045393 -8.004537,-8.0045393 z m 0,1.3420783 c 3.689975,0 6.662459,2.972484 6.662459,6.662461 0,3.689976 -2.972484,6.662459 -6.662459,6.662459 -3.689977,0 -6.662461,-2.972483 -6.662461,-6.662459 0,-3.689977 2.972484,-6.662461 6.662461,-6.662461 z"
     id="path3784-6"
     inkscape:connector-curvature="0" />
  <path
     d="m 22.936027,12.677018 -4.564808,9.142328 4.626644,2.231071 4.513563,-9.167042 z m 2.792721,-3.0254139 c -0.610051,-0.294186 -1.298985,-0.1041142 -1.55401,0.4202039 l -0.826182,1.698644 4.626645,2.231072 0.826183,-1.698643 c 0.255007,-0.524293 -0.02239,-1.180359 -0.632438,-1.474542 z m -3.181136,15.4288309 -4.521881,-2.184161 0.633398,4.245378 z"
     id="path4"
     inkscape:connector-curvature="0"
     sodipodi:nodetypes="cccccssccssscccc" />
</svg>
