<?xml version="1.0" encoding="UTF-8" standalone="no"?>
<!-- Generated by IcoMoon.io -->

<svg
   xmlns:dc="http://purl.org/dc/elements/1.1/"
   xmlns:cc="http://creativecommons.org/ns#"
   xmlns:rdf="http://www.w3.org/1999/02/22-rdf-syntax-ns#"
   xmlns:svg="http://www.w3.org/2000/svg"
   xmlns="http://www.w3.org/2000/svg"
   xmlns:sodipodi="http://sodipodi.sourceforge.net/DTD/sodipodi-0.dtd"
   xmlns:inkscape="http://www.inkscape.org/namespaces/inkscape"
   version="1.1"
   width="32"
   height="32"
   viewBox="0 0 32 32"
   id="svg2"
   inkscape:version="0.48.4 r9939"
   sodipodi:docname="selection-playback.svg">
  <metadata
     id="metadata12">
    <rdf:RDF>
      <cc:Work
         rdf:about="">
        <dc:format>image/svg+xml</dc:format>
        <dc:type
           rdf:resource="http://purl.org/dc/dcmitype/StillImage" />
        <dc:title />
      </cc:Work>
    </rdf:RDF>
  </metadata>
  <defs
     id="defs10" />
  <sodipodi:namedview
     pagecolor="#ffffff"
     bordercolor="#666666"
     borderopacity="1"
     objecttolerance="10"
     gridtolerance="10"
     guidetolerance="10"
     inkscape:pageopacity="0"
     inkscape:pageshadow="2"
     inkscape:window-width="1339"
     inkscape:window-height="793"
     id="namedview8"
     showgrid="false"
     showguides="true"
     inkscape:guide-bbox="true"
     inkscape:zoom="4.0000002"
     inkscape:cx="26.903293"
     inkscape:cy="2.7902298"
     inkscape:window-x="531"
     inkscape:window-y="166"
     inkscape:window-maximized="0"
     inkscape:current-layer="svg2" />
  <path
     sodipodi:nodetypes="ccccc"
     inkscape:connector-curvature="0"
     d="m 18,-34.6665 -4,0 c 0,7.111 0,14.222002 0,21.333 l 4,0 c 0,-7.110998 0,-14.222 0,-21.333 z"
     style="fill:#444444;fill-opacity:1"
     id="path2991" />
  <path
     d="m -26.738575,10.6875 c -0.08556,0 -0.162183,0.03289 -0.227367,0.101054 l -0.703934,0.73616 c -0.06601,0.06737 -0.09902,0.144712 -0.09902,0.232029 0,0.08732 0.03301,0.16466 0.09902,0.232029 l 2.123558,3.729979 -2.167752,3.630541 c -0.06601,0.06737 -0.09902,0.144712 -0.09902,0.232029 0,0.08732 0.03301,0.16466 0.09902,0.232029 l 0.748128,0.835598 c 0.06601,0.06737 0.141802,0.101054 0.227367,0.101054 0.08556,0 0.16135,-0.03368 0.227366,-0.101054 l 4.60321,-4.697603 c 0.06601,-0.06737 0.09902,-0.144713 0.09902,-0.23203 0,-0.08732 -0.03301,-0.16466 -0.09902,-0.232029 l -4.60321,-4.697603 c -0.06601,-0.06737 -0.141802,-0.101054 -0.227366,-0.101054 z"
     id="path4"
     inkscape:connector-curvature="0"
     style="fill:#444444"
     sodipodi:nodetypes="cscscccsccsscscccc" />
  <path
     style="font-size:medium;font-style:normal;font-variant:normal;font-weight:normal;font-stretch:normal;text-indent:0;text-align:start;text-decoration:none;line-height:normal;letter-spacing:normal;word-spacing:normal;text-transform:none;direction:ltr;block-progression:tb;writing-mode:lr-tb;text-anchor:start;baseline-shift:baseline;color:#000000;fill:#444444;fill-opacity:1;stroke:none;stroke-width:2.66599989;marker:none;visibility:visible;display:inline;overflow:visible;enable-background:accumulate;font-family:Sans;-inkscape-font-specification:Sans"
     d="m 0.02975851,-29.90625 0,2.65625 7.67945749,0 0,-2.65625 z"
     id="path3005"
     inkscape:connector-curvature="0"
     sodipodi:nodetypes="ccccc" />
  <path
     sodipodi:nodetypes="cscscccsccsscscccc"
     style="fill:#444444"
     inkscape:connector-curvature="0"
     id="path3965"
     d="m 59.187636,10.6875 c 0.08556,0 0.162183,0.03289 0.227367,0.101054 l 0.703933,0.73616 c 0.06601,0.06737 0.09902,0.144712 0.09902,0.232029 0,0.08732 -0.03301,0.16466 -0.09902,0.232029 l -2.123557,3.729979 2.167752,3.630541 c 0.06601,0.06737 0.09902,0.144712 0.09902,0.232029 0,0.08732 -0.03301,0.16466 -0.09902,0.232029 l -0.748128,0.835598 c -0.06601,0.06737 -0.141802,0.101054 -0.227367,0.101054 -0.08556,0 -0.161351,-0.03368 -0.227366,-0.101054 l -4.60321,-4.697603 c -0.06601,-0.06737 -0.09902,-0.144713 -0.09902,-0.23203 0,-0.08732 0.03301,-0.16466 0.09902,-0.232029 l 4.60321,-4.697603 c 0.06601,-0.06737 0.141802,-0.101054 0.227366,-0.101054 z" />
  <path
     sodipodi:nodetypes="ccccc"
     inkscape:connector-curvature="0"
     id="path3967"
     d="m 31.981822,-21.40625 0,2.65625 -7.679458,0 0,-2.65625 z"
     style="font-size:medium;font-style:normal;font-variant:normal;font-weight:normal;font-stretch:normal;text-indent:0;text-align:start;text-decoration:none;line-height:normal;letter-spacing:normal;word-spacing:normal;text-transform:none;direction:ltr;block-progression:tb;writing-mode:lr-tb;text-anchor:start;baseline-shift:baseline;color:#000000;fill:#444444;fill-opacity:1;stroke:none;stroke-width:2.66599989;marker:none;visibility:visible;display:inline;overflow:visible;enable-background:accumulate;font-family:Sans;-inkscape-font-specification:Sans" />
  <path
     sodipodi:nodetypes="ccccccc"
     inkscape:connector-curvature="0"
     id="path3971"
     d="m 4.3076751,-33.260856 0,9.944371 c 4.26e-4,1.383808 0.69792,0.882033 1.1406282,0.519741 l 5.7674387,-4.98951 c 0.303564,-0.258088 0.303564,-0.746744 0,-1.004834 l -5.7674387,-4.98951 c -0.5908779,-0.453945 -1.1315506,-0.533189 -1.1406282,0.519742 z"
     style="fill:#444444" />
  <path
     id="path3975"
     style="fill:#444444;fill-opacity:1"
     d="m 14.666,6.667 -2.666,0 c 0,6.222 0,12.444002 0,18.666 l 2.666,0 c 0,-6.221998 0,-12.444 0,-18.666 z"
     inkscape:connector-curvature="0"
     sodipodi:nodetypes="ccccc" />
  <path
     sodipodi:nodetypes="ccccc"
     inkscape:connector-curvature="0"
     id="path3977"
     d="m 0,14.67775 0,2.65625 7.6794575,0 0,-2.65625 z"
     style="font-size:medium;font-style:normal;font-variant:normal;font-weight:normal;font-stretch:normal;text-indent:0;text-align:start;text-decoration:none;line-height:normal;letter-spacing:normal;word-spacing:normal;text-transform:none;direction:ltr;block-progression:tb;writing-mode:lr-tb;text-anchor:start;baseline-shift:baseline;color:#000000;fill:#444444;fill-opacity:1;stroke:none;stroke-width:2.66599989;marker:none;visibility:visible;display:inline;overflow:visible;enable-background:accumulate;font-family:Sans;-inkscape-font-specification:Sans" />
  <path
     style="font-size:medium;font-style:normal;font-variant:normal;font-weight:normal;font-stretch:normal;text-indent:0;text-align:start;text-decoration:none;line-height:normal;letter-spacing:normal;word-spacing:normal;text-transform:none;direction:ltr;block-progression:tb;writing-mode:lr-tb;text-anchor:start;baseline-shift:baseline;color:#000000;fill:#444444;fill-opacity:1;stroke:none;stroke-width:2.66599989;marker:none;visibility:visible;display:inline;overflow:visible;enable-background:accumulate;font-family:Sans;-inkscape-font-specification:Sans"
     d="m 31.981822,14.67775 0,2.65625 -7.679458,0 0,-2.65625 z"
     id="path3979"
     inkscape:connector-curvature="0"
     sodipodi:nodetypes="ccccc" />
  <path
     sodipodi:nodetypes="ccccc"
     inkscape:connector-curvature="0"
     d="m 19.999,6.667 -2.666,0 c 0,6.222 0,12.444002 0,18.666 l 2.666,0 c 0,-6.221998 0,-12.444 0,-18.666 z"
     style="fill:#444444;fill-opacity:1"
     id="path3981" />
  <path
     style="fill:#444444"
     d="m 4.3076751,11.551433 0,8.828472 c 3.782e-4,1.228525 0.6196035,0.783056 1.0126335,0.461418 l 5.1202504,-4.429616 c 0.2695,-0.229127 0.2695,-0.662949 0,-0.892077 L 5.3203086,11.090014 C 4.7957356,10.687008 4.3157341,10.616655 4.3076751,11.551433 z"
     id="path3983"
     inkscape:connector-curvature="0"
     sodipodi:nodetypes="ccccccc" />
  <path
     sodipodi:nodetypes="ccccccc"
     inkscape:connector-curvature="0"
     id="path3985"
     d="m 27.65744,11.551433 0,8.828472 c -3.79e-4,1.228525 -0.619604,0.783056 -1.012634,0.461418 l -5.12025,-4.429616 c -0.2695,-0.229127 -0.2695,-0.662949 0,-0.892077 l 5.12025,-4.429616 c 0.524573,-0.403006 1.004575,-0.473359 1.012634,0.461419 z"
     style="fill:#444444" />
  <path
     style="fill:#444444"
     d="m 27.443414,-24.760856 0,9.944371 c -4.26e-4,1.383808 -0.69792,0.882033 -1.140628,0.519741 l -5.767439,-4.98951 c -0.303564,-0.258088 -0.303564,-0.746744 0,-1.004834 l 5.767439,-4.98951 c 0.590878,-0.453945 1.13155,-0.53319 1.140628,0.519742 z"
     id="path3987"
     inkscape:connector-curvature="0"
     sodipodi:nodetypes="ccccccc" />
  <path
     sodipodi:nodetypes="ccccc"
     inkscape:connector-curvature="0"
     d="m 13.332,46.667 -2.666,0 c 0,6.222 0,12.444002 0,18.666 l 2.666,0 c 0,-6.221998 0,-12.444 0,-18.666 z"
     style="fill:#444444;fill-opacity:1"
     id="path3991" />
  <path
     id="path3993"
     style="fill:#444444;fill-opacity:1"
     d="m 21.332,46.667 -2.666,0 c 0,6.222 0,12.444002 0,18.666 l 2.666,0 c 0,-6.221998 0,-12.444 0,-18.666 z"
     inkscape:connector-curvature="0"
     sodipodi:nodetypes="ccccc" />
  <path
     id="path3995"
     style="fill:#444444;fill-opacity:1"
     d="m 17.333,46.667 -2.666,0 c 0,6.222 0,12.444002 0,18.666 l 2.666,0 c 0,-6.221998 0,-12.444 0,-18.666 z"
     inkscape:connector-curvature="0"
     sodipodi:nodetypes="ccccc" />
</svg>
