<?xml version="1.0" encoding="UTF-8" standalone="no"?>
<!-- Generated by IcoMoon.io -->

<svg
   xmlns:dc="http://purl.org/dc/elements/1.1/"
   xmlns:cc="http://creativecommons.org/ns#"
   xmlns:rdf="http://www.w3.org/1999/02/22-rdf-syntax-ns#"
   xmlns:svg="http://www.w3.org/2000/svg"
   xmlns="http://www.w3.org/2000/svg"
   xmlns:sodipodi="http://sodipodi.sourceforge.net/DTD/sodipodi-0.dtd"
   xmlns:inkscape="http://www.inkscape.org/namespaces/inkscape"
   version="1.1"
   width="32"
   height="32"
   viewBox="0 0 32 32"
   id="svg2"
   inkscape:version="0.48.4 r9939"
   sodipodi:docname="slide-animation.svg">
  <metadata
     id="metadata12">
    <rdf:RDF>
      <cc:Work
         rdf:about="">
        <dc:format>image/svg+xml</dc:format>
        <dc:type
           rdf:resource="http://purl.org/dc/dcmitype/StillImage" />
        <dc:title />
      </cc:Work>
    </rdf:RDF>
  </metadata>
  <defs
     id="defs10" />
  <sodipodi:namedview
     pagecolor="#ffffff"
     bordercolor="#666666"
     borderopacity="1"
     objecttolerance="10"
     gridtolerance="10"
     guidetolerance="10"
     inkscape:pageopacity="0"
     inkscape:pageshadow="2"
     inkscape:window-width="1418"
     inkscape:window-height="945"
     id="namedview8"
     showgrid="false"
     showguides="true"
     inkscape:guide-bbox="true"
     inkscape:zoom="10.242"
     inkscape:cx="15.56328"
     inkscape:cy="7.1386451"
     inkscape:window-x="193"
     inkscape:window-y="46"
     inkscape:window-maximized="0"
     inkscape:current-layer="svg2" />
  <path
     style="font-size:medium;font-style:normal;font-variant:normal;font-weight:normal;font-stretch:normal;text-indent:0;text-align:start;text-decoration:none;line-height:normal;letter-spacing:normal;word-spacing:normal;text-transform:none;direction:ltr;block-progression:tb;writing-mode:lr-tb;text-anchor:start;baseline-shift:baseline;color:#000000;fill:#444444;fill-opacity:1;stroke:none;stroke-width:4.5999999;marker:none;visibility:visible;display:inline;overflow:visible;enable-background:accumulate;font-family:Sans;-inkscape-font-specification:Sans"
     d="m 22.255843,18.340825 c -0.359122,0.03809 -0.36136,0.266371 -0.357286,0.520264 l 0,2.46427 -17.898557,0 0,2.693976 17.898557,0 0,2.355882 c -0.0071,0.412142 0.539319,0.668376 0.974416,0.390198 l 6.236265,-3.811259 c 0.298349,-0.198167 0.298349,-0.47384 0,-0.672007 l -6.236265,-3.811258 c -0.16703,-0.106566 -0.393581,-0.153898 -0.61713,-0.130066 z"
     id="rect2982"
     inkscape:connector-curvature="0"
     sodipodi:nodetypes="cccccccccccc"
     inkscape:transform-center-y="-3.1864407" />
  <path
     style="fill:#444444;fill-opacity:1;stroke:none"
     d="m 5.0188963,6.6680002 4.6282072,0 c 0.5644685,0 1.0188965,0.5159092 1.0188965,1.156747 l 0,4.3525058 c 0,0.640838 -0.454428,1.156747 -1.0188965,1.156747 l -4.6282072,0 C 4.4544278,13.334 4,12.818091 4,12.177253 L 4,7.8247472 C 4,7.1839094 4.4544278,6.6680002 5.0188963,6.6680002 z"
     id="rect2983" />
  <path
     style="fill:#444444;fill-opacity:1;stroke:none"
     d="m 14.351897,6.6680002 4.628207,0 c 0.564468,0 1.018896,0.5159092 1.018896,1.156747 l 0,4.3525058 c 0,0.640838 -0.454428,1.156747 -1.018896,1.156747 l -4.628207,0 C 13.787428,13.334 13.333,12.818091 13.333,12.177253 l 0,-4.3525058 c 0,-0.6408378 0.454428,-1.156747 1.018897,-1.156747 z"
     id="rect3755" />
  <path
     style="fill:#444444;fill-opacity:1;stroke:none"
     d="m 23.684897,6.6680002 4.628207,0 c 0.564468,0 1.018896,0.5159092 1.018896,1.156747 l 0,4.3525058 c 0,0.640838 -0.454428,1.156747 -1.018896,1.156747 l -4.628207,0 C 23.120428,13.334 22.666,12.818091 22.666,12.177253 l 0,-4.3525058 c 0,-0.6408378 0.454428,-1.156747 1.018897,-1.156747 z"
     id="rect3757" />
  <rect
     ry="1.156747"
     rx="1.0188963"
     y="6.6680002"
     x="-36"
     height="6.6659999"
     width="6.6659999"
     id="rect2985"
     style="fill:#444444;fill-opacity:1;stroke:none" />
  <rect
     style="fill:#444444;fill-opacity:1;stroke:none"
     id="rect2987"
     width="6.6659999"
     height="6.6659999"
     x="-26.667"
     y="6.6680002"
     rx="1.0188963"
     ry="1.156747" />
  <rect
     ry="1.156747"
     rx="1.0188963"
     y="6.6680002"
     x="-17.334"
     height="6.6659999"
     width="6.6659999"
     id="rect2989"
     style="fill:#444444;fill-opacity:1;stroke:none" />
  <rect
     style="fill:#a40000;fill-opacity:1;stroke:none"
     id="rect3756"
     width="16.983818"
     height="2.6659999"
     x="-27.243898"
     y="21.236362" />
</svg>
