<?xml version="1.0" encoding="UTF-8" standalone="no"?>
<!-- Generated by IcoMoon.io -->

<svg
   xmlns:dc="http://purl.org/dc/elements/1.1/"
   xmlns:cc="http://creativecommons.org/ns#"
   xmlns:rdf="http://www.w3.org/1999/02/22-rdf-syntax-ns#"
   xmlns:svg="http://www.w3.org/2000/svg"
   xmlns="http://www.w3.org/2000/svg"
   xmlns:sodipodi="http://sodipodi.sourceforge.net/DTD/sodipodi-0.dtd"
   xmlns:inkscape="http://www.inkscape.org/namespaces/inkscape"
   version="1.1"
   width="32"
   height="32"
   viewBox="0 0 32 32"
   id="svg2"
   inkscape:version="0.48.4 r9939"
   sodipodi:docname="stop.svg">
  <metadata
     id="metadata12">
    <rdf:RDF>
      <cc:Work
         rdf:about="">
        <dc:format>image/svg+xml</dc:format>
        <dc:type
           rdf:resource="http://purl.org/dc/dcmitype/StillImage" />
      </cc:Work>
    </rdf:RDF>
  </metadata>
  <defs
     id="defs10" />
  <sodipodi:namedview
     pagecolor="#ffffff"
     bordercolor="#666666"
     borderopacity="1"
     objecttolerance="10"
     gridtolerance="10"
     guidetolerance="10"
     inkscape:pageopacity="0"
     inkscape:pageshadow="2"
     inkscape:window-width="1418"
     inkscape:window-height="945"
     id="namedview8"
     showgrid="false"
     showguides="true"
     inkscape:guide-bbox="true"
     inkscape:zoom="14.75"
     inkscape:cx="27.747708"
     inkscape:cy="13.783069"
     inkscape:window-x="0"
     inkscape:window-y="25"
     inkscape:window-maximized="0"
     inkscape:current-layer="svg2" />
  <path
     style="fill:#444444"
     d="M 16 1 C 7.7153125 1 1 7.7153125 1 16 C 1 24.284687 7.7153125 31 16 31 C 24.284687 31 31 24.284687 31 16 C 31 7.7153125 24.284687 1 16 1 z M 16 3.8125 C 22.73125 3.8125 28.1875 9.26875 28.1875 16 C 28.1875 22.73125 22.73125 28.1875 16 28.1875 C 9.26875 28.1875 3.8125 22.73125 3.8125 16 C 3.8125 9.26875 9.26875 3.8125 16 3.8125 z M 10.125 9 C 9.5132457 9.061532 8.9969747 9.6351664 9 10.25 L 9 21.75 C 9.0000654 22.404481 9.5955194 22.999935 10.25 23 L 21.75 23 C 22.404481 22.999935 22.999935 22.404481 23 21.75 L 23 10.25 C 22.999935 9.5955194 22.404481 9.0000654 21.75 9 L 10.25 9 C 10.20837 8.99792 10.16663 8.99792 10.125 9 z "
     id="path6" />
</svg>
