<?xml version="1.0" encoding="UTF-8" standalone="no"?>
<!-- Created with Inkscape (http://www.inkscape.org/) -->

<svg
   xmlns:dc="http://purl.org/dc/elements/1.1/"
   xmlns:cc="http://creativecommons.org/ns#"
   xmlns:rdf="http://www.w3.org/1999/02/22-rdf-syntax-ns#"
   xmlns:svg="http://www.w3.org/2000/svg"
   xmlns="http://www.w3.org/2000/svg"
   xmlns:sodipodi="http://sodipodi.sourceforge.net/DTD/sodipodi-0.dtd"
   xmlns:inkscape="http://www.inkscape.org/namespaces/inkscape"
   width="32"
   height="32"
   id="svg2"
   version="1.1"
   inkscape:version="0.48.4 r9939"
   sodipodi:docname="tip.svg">
  <defs
     id="defs4" />
  <sodipodi:namedview
     id="base"
     pagecolor="#ffffff"
     bordercolor="#666666"
     borderopacity="1.0"
     inkscape:pageopacity="0.0"
     inkscape:pageshadow="2"
     inkscape:zoom="15.839192"
     inkscape:cx="9.4455206"
     inkscape:cy="11.898508"
     inkscape:document-units="px"
     inkscape:current-layer="layer1"
     showgrid="false"
     inkscape:window-width="996"
     inkscape:window-height="718"
     inkscape:window-x="897"
     inkscape:window-y="154"
     inkscape:window-maximized="0" />
  <metadata
     id="metadata7">
    <rdf:RDF>
      <cc:Work
         rdf:about="">
        <dc:format>image/svg+xml</dc:format>
        <dc:type
           rdf:resource="http://purl.org/dc/dcmitype/StillImage" />
        <dc:title />
      </cc:Work>
    </rdf:RDF>
  </metadata>
  <g
     inkscape:label="Layer 1"
     inkscape:groupmode="layer"
     id="layer1"
     transform="translate(0,-1020.3622)">
    <path
       style="fill:#444444;fill-opacity:1"
       d="m 15.378175,1050.1785 c -0.59686,-0.2228 -1.056285,-0.6049 -1.310769,-1.0902 -0.06971,-0.133 -0.12892,-0.1495 -0.535868,-0.1495 -0.393974,0 -0.485568,-0.023 -0.659601,-0.1701 -0.121369,-0.1026 -0.219214,-0.2613 -0.244956,-0.3985 -0.03978,-0.2121 -0.06066,-0.2285 -0.292191,-0.2285 -0.155194,0 -0.31844,-0.055 -0.432379,-0.1439 -0.337675,-0.2656 -0.366216,-0.4382 -0.366216,-2.2139 0,-1.8535 0.03125,-2.0143 0.428054,-2.2034 0.129873,-0.062 0.236137,-0.1496 0.236137,-0.1948 0,-0.1983 -0.441499,-1.3139 -0.772642,-1.9524 -0.487892,-0.9405 -1.099344,-1.7806 -1.9945965,-2.7404 -1.4944329,-1.6022 -2.248944,-2.9385 -2.6529725,-4.6985 -0.7250617,-3.1585 0.3510446,-6.467 2.9056305,-8.9336 1.3366005,-1.2905 2.7953485,-2.0753 4.5889855,-2.469 0.425586,-0.094 0.833152,-0.1201 1.811138,-0.1188 1.141335,0 1.328919,0.019 1.962301,0.1777 2.266233,0.5696 4.096092,1.7862 5.492093,3.6511 2.37207,3.169 2.640897,6.9395 0.733134,10.2829 -0.34365,0.6024 -0.899089,1.3057 -1.900167,2.4065 -1.067582,1.174 -1.870547,2.5089 -2.328136,3.8705 l -0.198018,0.5894 0.263925,0.1181 c 0.429855,0.1925 0.458181,0.3292 0.458181,2.2112 0,1.3474 -0.01862,1.6746 -0.107865,1.8976 -0.12306,0.3075 -0.365227,0.4637 -0.719086,0.4637 -0.18959,0 -0.235765,0.026 -0.235765,0.1298 0,0.2215 -0.150563,0.4738 -0.341729,0.5727 -0.103461,0.053 -0.371132,0.095 -0.615717,0.095 -0.381462,0 -0.441866,0.018 -0.510227,0.1495 -0.184082,0.3548 -0.541552,0.7043 -0.934464,0.9138 -0.358319,0.1909 -0.49947,0.2274 -0.952047,0.2456 -0.336776,0.013 -0.620273,-0.011 -0.774173,-0.069 z m 3.354174,-7.6019 c 0.623413,-1.8995 1.562613,-3.4523 3.054477,-5.0501 1.167811,-1.2506 1.869388,-2.5869 2.218526,-4.2254 0.137991,-0.6476 0.153228,-2.1398 0.02784,-2.7272 -0.614829,-2.881 -2.813032,-5.3882 -5.536362,-6.3145 -2.245838,-0.7639 -4.646294,-0.4327 -6.680755,0.9217 -1.782625,1.1868 -3.1340465,3.0956 -3.6533435,5.1603 -0.1540047,0.6122 -0.1747296,0.823 -0.1698632,1.7268 0.00451,0.878 0.030252,1.1232 0.1735658,1.6655 0.4278284,1.619 0.9675504,2.5096 2.6133339,4.3123 0.730324,0.7999 1.421557,1.7981 1.881876,2.7172 0.355384,0.7097 0.76315,1.7594 0.879839,2.2648 l 0.07652,0.3315 2.429513,0 2.429508,0 0.255317,-0.7779 z m -3.047956,-1.2398 -0.163029,-0.1631 0,-1.9106 0,-1.9107 -1.461232,-1.4665 c -1.30246,-1.3072 -1.461225,-1.4899 -1.461225,-1.6821 0,-0.2885 0.252787,-0.5415 0.541155,-0.5415 0.190759,0 0.363933,0.1482 1.530666,1.3096 l 1.315569,1.3096 1.315575,-1.3096 c 1.166732,-1.1614 1.339901,-1.3096 1.530665,-1.3096 0.288287,0 0.541156,0.253 0.541156,0.5414 0,0.1915 -0.154065,0.3701 -1.394807,1.6157 l -1.394812,1.4003 0,1.977 0,1.977 -0.16303,0.1631 c -0.102771,0.1025 -0.238916,0.163 -0.368327,0.163 -0.129407,0 -0.265557,-0.06 -0.368324,-0.163 z M 1.9658589,1037.324 c -0.1835745,-0.1487 -0.2109569,-0.5508 -0.048564,-0.7132 0.1488474,-0.1488 2.7502961,-1.1007 3.1098795,-1.1379 0.2456239,-0.026 0.3220869,0 0.4284057,0.112 0.1781713,0.1969 0.1723767,0.5837 -0.010991,0.7322 -0.1906282,0.1544 -2.8984258,1.1311 -3.1356965,1.1311 -0.1042718,0 -0.2586478,-0.056 -0.3430627,-0.1242 z m 26.0846151,-0.4001 c -1.419626,-0.5218 -1.636313,-0.6493 -1.636313,-0.9627 0,-0.1935 0.176456,-0.4337 0.373657,-0.5087 0.129622,-0.049 0.461301,0.048 1.701952,0.4989 0.855964,0.3111 1.578597,0.6115 1.625632,0.6758 0.129025,0.1764 0.103851,0.5361 -0.04816,0.6882 -0.215498,0.2155 -0.533295,0.1538 -2.016761,-0.3915 z m -26.9783711,-5.4172 c -0.10276708,-0.1025 -0.16303018,-0.239 -0.16303018,-0.3684 0,-0.1294 0.060263,-0.2655 0.16303018,-0.3682 l 0.1630301,-0.163 1.6665237,0 1.6665288,0 0.1630252,0.163 c 0.102767,0.1025 0.1630302,0.2388 0.1630302,0.3682 0,0.1294 -0.060263,0.2657 -0.1630302,0.3684 l -0.1630252,0.163 -1.6665288,0 -1.6665237,0 -0.1630301,-0.163 z m 26.2356991,0 c -0.10277,-0.1025 -0.163026,-0.239 -0.163026,-0.3684 0,-0.1294 0.06026,-0.2655 0.163026,-0.3682 l 0.16303,-0.163 1.626594,0 c 1.609958,0 1.62844,0 1.807414,0.1555 0.248117,0.2133 0.248117,0.5381 0,0.7516 -0.178974,0.1539 -0.197456,0.1555 -1.807414,0.1555 l -1.626594,0 -0.16303,-0.163 z m -23.8644021,-5.2116 c -0.7797011,-0.2864 -1.4656459,-0.5687 -1.5243289,-0.6273 -0.1448488,-0.1449 -0.1356829,-0.535 0.016506,-0.7032 0.07693,-0.085 0.2057794,-0.1361 0.3430627,-0.1361 0.258994,0 2.9614485,0.9656 3.1659687,1.1312 0.200331,0.1622 0.1930866,0.5701 -0.013094,0.7371 -0.084414,0.068 -0.2473095,0.1231 -0.3619865,0.1216 -0.114677,0 -0.8464414,-0.237 -1.6261375,-0.5233 z m 23.1084211,0.351 c -0.07572,-0.096 -0.13766,-0.244 -0.13766,-0.3284 0,-0.3163 0.250791,-0.4617 1.693696,-0.9813 1.389323,-0.5005 1.489556,-0.5307 1.710301,-0.5158 0.311892,0.021 0.501788,0.5492 0.29781,0.8282 -0.10743,0.1469 -2.910948,1.1723 -3.205186,1.1723 -0.159965,0 -0.259455,-0.049 -0.358961,-0.175 z"
       id="path3084"
       inkscape:connector-curvature="0" />
  </g>
</svg>
