<?xml version="1.0" encoding="UTF-8" standalone="no"?>
<!-- Generator: Adobe Illustrator 16.2.1, SVG Export Plug-In . SVG Version: 6.00 Build 0)  -->

<svg
   xmlns:dc="http://purl.org/dc/elements/1.1/"
   xmlns:cc="http://creativecommons.org/ns#"
   xmlns:rdf="http://www.w3.org/1999/02/22-rdf-syntax-ns#"
   xmlns:svg="http://www.w3.org/2000/svg"
   xmlns="http://www.w3.org/2000/svg"
   xmlns:sodipodi="http://sodipodi.sourceforge.net/DTD/sodipodi-0.dtd"
   xmlns:inkscape="http://www.inkscape.org/namespaces/inkscape"
   version="1.1"
   id="Layer_1"
   x="0px"
   y="0px"
   width="32"
   height="32"
   viewBox="0 0 32 32"
   xml:space="preserve"
   inkscape:version="0.48.4 r9939"
   sodipodi:docname="volume-medium.svg"><metadata
     id="metadata15"><rdf:RDF><cc:Work
         rdf:about=""><dc:format>image/svg+xml</dc:format><dc:type
           rdf:resource="http://purl.org/dc/dcmitype/StillImage" /></cc:Work></rdf:RDF></metadata><defs
     id="defs13" /><sodipodi:namedview
     pagecolor="#ffffff"
     bordercolor="#666666"
     borderopacity="1"
     objecttolerance="10"
     gridtolerance="10"
     guidetolerance="10"
     inkscape:pageopacity="0"
     inkscape:pageshadow="2"
     inkscape:window-width="1216"
     inkscape:window-height="772"
     id="namedview11"
     showgrid="false"
     inkscape:zoom="10.429825"
     inkscape:cx="12.120371"
     inkscape:cy="17.350287"
     inkscape:window-x="0"
     inkscape:window-y="25"
     inkscape:window-maximized="0"
     inkscape:current-layer="Layer_1" /><g
     id="g3"
     transform="matrix(0.08112493,0,0,0.08112493,-4.7598696,-4.7720383)"
     style="fill:#444444;fill-opacity:1"><polygon
       points="71,192 71,320 175.3,320 270,407.7 270,104.4 175.3,192 "
       id="polygon5"
       style="fill:#444444;fill-opacity:1" /><path
       d="m 326.3,355.6 c 20.5,-27.8 32.8,-62.3 32.8,-99.6 0,-37.4 -12.3,-71.8 -32.8,-99.6 l -20.4,15.3 c 17.4,23.6 27.8,52.7 27.8,84.3 0,31.6 -10.4,60.7 -27.8,84.3 l 20.4,15.3 z"
       id="path7"
       inkscape:connector-curvature="0"
       style="fill:#444444;fill-opacity:1" /><path
       d="m 392.8,401.6 c 30,-40.7 48,-91 48,-145.6 0,-54.6 -18,-104.9 -48,-145.6 l -20.4,15.3 c 26.9,36.4 43,81.4 43,130.3 0,48.9 -16.1,93.8 -43,130.3 l 20.4,15.3 z"
       id="path9"
       inkscape:connector-curvature="0"
       style="fill:#444444;fill-opacity:1" /></g></svg>