<?xml version="1.0" encoding="UTF-8" standalone="no"?>
<!-- Generator: Adobe Illustrator 16.2.1, SVG Export Plug-In . SVG Version: 6.00 Build 0)  -->

<svg
   xmlns:dc="http://purl.org/dc/elements/1.1/"
   xmlns:cc="http://creativecommons.org/ns#"
   xmlns:rdf="http://www.w3.org/1999/02/22-rdf-syntax-ns#"
   xmlns:svg="http://www.w3.org/2000/svg"
   xmlns="http://www.w3.org/2000/svg"
   xmlns:sodipodi="http://sodipodi.sourceforge.net/DTD/sodipodi-0.dtd"
   xmlns:inkscape="http://www.inkscape.org/namespaces/inkscape"
   version="1.1"
   id="Layer_1"
   x="0px"
   y="0px"
   width="32"
   height="32"
   viewBox="0 0 32 32"
   xml:space="preserve"
   inkscape:version="0.48.4 r9939"
   sodipodi:docname="watch.svg"><metadata
     id="metadata15"><rdf:RDF><cc:Work
         rdf:about=""><dc:format>image/svg+xml</dc:format><dc:type
           rdf:resource="http://purl.org/dc/dcmitype/StillImage" /></cc:Work></rdf:RDF></metadata><defs
     id="defs13" /><sodipodi:namedview
     pagecolor="#ffffff"
     bordercolor="#666666"
     borderopacity="1"
     objecttolerance="10"
     gridtolerance="10"
     guidetolerance="10"
     inkscape:pageopacity="0"
     inkscape:pageshadow="2"
     inkscape:window-width="1216"
     inkscape:window-height="772"
     id="namedview11"
     showgrid="false"
     inkscape:zoom="10.429825"
     inkscape:cx="1.7361169"
     inkscape:cy="28.751666"
     inkscape:window-x="0"
     inkscape:window-y="25"
     inkscape:window-maximized="0"
     inkscape:current-layer="Layer_1" /><path
     sodipodi:nodetypes="sssscssscssscsscsssssccccsscccsccscscssssscssssscscsscssccccsssssss"
     inkscape:connector-curvature="0"
     id="path3874"
     d="M 13.058101,30.716931 C 6.2065128,29.206541 1.4672248,23.68554 1.0278258,16.702374 0.58666283,9.691435 5.4365588,3.093597 12.358312,1.288233 14.435505,0.74644705 14.586463,0.85750805 14.586463,2.927405 l 0,1.733595 -1.6737,0.528954 c -2.029767,0.641492 -4.0260502,1.895043 -5.2427392,3.292182 -1.103024,1.266608 -2.387338,3.943673 -2.609283,5.438857 l -0.163819,1.103693 1.023806,0.0736 c 0.863656,0.06209 1.035846,0.158516 1.10065,0.616344 0.110184,0.77824 -0.363427,1.223201 -1.301973,1.223201 l -0.814841,0 0.166406,1.000701 c 0.730309,4.391894 4.600581,8.267479 8.9864362,8.998799 l 0.999329,0.166632 0,-0.815974 c 0,-0.939818 0.444361,-1.414085 1.221533,-1.30376 0.454753,0.06455 0.553629,0.238035 0.614294,1.077639 0.05693,0.787891 0.164172,1.000701 0.504297,1.000701 0.98515,0 3.588414,-1.011181 4.953779,-1.924192 l 1.462548,-0.977991 0.779147,0.420172 c 0.428512,0.231093 1.130065,0.716407 1.558953,1.078475 l 0.77983,0.658303 -1.129806,1.060595 c -3.017198,2.832341 -8.511274,4.271907 -12.743209,3.338998 z m 14.04624,-8.016608 c -0.67724,-0.456699 -1.229011,-0.959993 -1.226165,-1.118431 0.0028,-0.158438 0.209929,-0.73984 0.460232,-1.292008 0.250279,-0.552168 0.5248,-1.376202 0.610037,-1.831188 0.08524,-0.454985 0.34732,-0.930332 0.582433,-1.056326 0.564914,-0.302758 3.211467,-0.295153 3.399646,0.0098 0.459457,0.744428 -1.483168,6.118547 -2.211715,6.118547 -0.210729,0 -0.937253,-0.373664 -1.614468,-0.830365 z M 15.134048,17.76995 c -0.81778,-0.354088 -1.248997,-0.97594 -1.260283,-1.817339 -0.004,-0.299895 -0.691795,-1.498148 -1.528386,-2.662787 -1.529396,-2.129122 -1.713861,-2.615081 -1.292144,-3.404156 0.25818,-0.483077 1.191624,-0.789817 1.75026,-0.575156 0.203816,0.07832 1.056632,1.111308 1.895128,2.295516 0.911035,1.286663 1.786612,2.264103 2.175786,2.428932 0.358207,0.151703 1.461937,0.312225 2.452777,0.356713 1.97933,0.08887 2.783637,0.524019 2.783637,1.505998 0,1.001805 -1.025053,1.51108 -3.04144,1.51108 -0.991311,0 -1.902887,0.09405 -2.025746,0.208996 -0.439423,0.411139 -1.176011,0.469846 -1.909589,0.152203 z m 12.054965,-3.689382 c -0.05547,-0.176787 -0.313131,-0.9799 -0.572604,-1.784695 l -0.471777,-1.46326 0.812654,-0.7145 c 1.50546,-1.323639 1.952619,-1.542166 2.347154,-1.147084 0.444078,0.444691 1.494996,3.415428 1.501486,4.244427 0.0063,0.798781 -0.02328,0.814378 -1.931927,1.017744 -1.243917,0.132544 -1.605816,0.09976 -1.684986,-0.152632 z M 23.23863,7.319587 22.268388,6.413327 23.000226,4.847267 c 0.402529,-0.861332 0.869675,-1.565993 1.038126,-1.565911 0.560682,2.36e-4 3.010332,2.104392 3.010332,2.585717 0,0.408687 -2.212138,2.358775 -2.675757,2.358775 -0.09024,0 -0.600679,-0.407818 -1.134297,-0.906261 z M 18.466211,5.002433 c -0.743007,-0.178125 -1.058113,-0.7788 -1.058113,-2.017166 0,-1.575607 0.33086,-2.14297895 1.136226,-1.948544 2.769387,0.668591 2.74759,0.6344 1.730508,2.715403 -0.626755,1.282367 -0.896621,1.468935 -1.808621,1.250307 z"
     style="fill:#444444;fill-opacity:1" /></svg>