<?xml version="1.0" encoding="UTF-8" standalone="no"?>
<svg
   xmlns:dc="http://purl.org/dc/elements/1.1/"
   xmlns:cc="http://creativecommons.org/ns#"
   xmlns:rdf="http://www.w3.org/1999/02/22-rdf-syntax-ns#"
   xmlns:svg="http://www.w3.org/2000/svg"
   xmlns="http://www.w3.org/2000/svg"
   xmlns:sodipodi="http://sodipodi.sourceforge.net/DTD/sodipodi-0.dtd"
   xmlns:inkscape="http://www.inkscape.org/namespaces/inkscape"
   width="32"
   height="32"
   viewBox="0 0 32 32"
   id="svg2"
   version="1.1"
   inkscape:version="0.48.4 r9939"
   sodipodi:docname="youtube.svg">
  <metadata
     id="metadata10">
    <rdf:RDF>
      <cc:Work
         rdf:about="">
        <dc:format>image/svg+xml</dc:format>
        <dc:type
           rdf:resource="http://purl.org/dc/dcmitype/StillImage" />
      </cc:Work>
    </rdf:RDF>
  </metadata>
  <defs
     id="defs8" />
  <sodipodi:namedview
     pagecolor="#ffffff"
     bordercolor="#666666"
     borderopacity="1"
     objecttolerance="10"
     gridtolerance="10"
     guidetolerance="10"
     inkscape:pageopacity="0"
     inkscape:pageshadow="2"
     inkscape:window-width="864"
     inkscape:window-height="554"
     id="namedview6"
     showgrid="false"
     inkscape:zoom="6.9532166"
     inkscape:cx="5.9649791"
     inkscape:cy="9.3763375"
     inkscape:window-x="669"
     inkscape:window-y="130"
     inkscape:window-maximized="0"
     inkscape:current-layer="svg2"
     showguides="true"
     inkscape:guide-bbox="true" />
  <path
     d="M 6.4476001,0.40016248 H 8.3195997 L 9.6040009,5.2127625 10.794801,0.40016248 h 1.8902 l -2.1645,7.15650022 V 12.440763 H 8.6601997 V 7.5566627 L 6.4476001,0.40016248 z M 15.019801,3.4850625 c -1.4547,0 -2.4193,0.962 -2.4193,2.3855 v 4.3536995 c 0,1.565201 0.8177,2.380301 2.4193,2.380301 1.3286,0 2.3738,-0.8879 2.3738,-2.380301 V 5.8705625 c 0,-1.3897 -1.0361,-2.3855 -2.3738,-2.3855 z m 0.6903,6.6650995 c 0,0.4836 -0.247,0.8398 -0.6916,0.8398 -0.4563,0 -0.7202,-0.3731 -0.7202,-0.8398 V 6.0174625 c 0,-0.4862 0.2236,-0.8463 0.6877,-0.8463 0.507,0 0.7241,0.3497 0.7241,0.8463 v 4.1326995 z m 6.1477,-6.5909995 v 6.7417995 c -0.2015,0.2522 -0.65,0.6656 -0.9711,0.6656 -0.3523,0 -0.4394,-0.2418 -0.4394,-0.598 V 3.5591625 h -1.651 v 7.4229995 c 0,0.877501 0.2678,1.586001 1.1531,1.586001 0.4992,0 1.1934,-0.26 1.9084,-1.1089 v 0.9802 h 1.651 V 3.5591625 h -1.651 z m 2.8639,18.0154005 c -0.5824,0 -0.7033,0.4095 -0.7033,0.9919 v 0.8567 h 1.3897 v -0.858 c 0.0013,-0.572 -0.1196,-0.9906 -0.6864,-0.9906 z m -6.1139,0.052 c -0.1092,0.0559 -0.2171,0.1417 -0.325,0.2574 v 5.2715 c 0.1287,0.1378 0.2522,0.2366 0.3731,0.2977 0.2561,0.13 0.6305,0.1391 0.8047,-0.0871 0.091,-0.1196 0.1365,-0.3133 0.1365,-0.5837 v -4.3667 c 0,-0.286 -0.0559,-0.5018 -0.1677,-0.65 -0.1911,-0.2509 -0.546,-0.2782 -0.8216,-0.1391 z m 6.2751,-6.7535 c -3.3852,-0.2301 -14.3858,-0.2301 -17.7658013,0 -3.6581996,0.2496 -4.0897995,2.4596 -4.1170996,8.2771 0.0273,5.8071 0.455,8.0275 4.1170996,8.2771 3.3800013,0.2301 14.3806013,0.2301 17.7658013,0 3.6582,-0.2496 4.0898,-2.4609 4.117099,-8.2771 -0.0273,-5.8071 -0.454999,-8.0275 -4.117099,-8.2771 z m -16.0212013,13.8918 h -1.7719 v -9.802 H 5.2568001 v -1.664 h 5.4366009 v 1.664 H 8.8603997 v 9.802 z m 6.2998013,0 h -1.573 v -0.9334 c -0.2899,0.3445 -0.5915,0.6071 -0.9048,0.7865 -0.8476,0.4862 -2.0111,0.4745 -2.0111,-1.2415 v -7.0694 h 1.5717 v 6.4844 c 0,0.3406 0.0819,0.5694 0.4186,0.5694 0.3068,0 0.7332,-0.3939 0.9243,-0.6331 v -6.4207 h 1.573 v 8.4578 z m 6.0541,-1.7524 c 0,1.0465 -0.3913,1.8603 -1.4378,1.8603 -0.5759,0 -1.0556,-0.2106 -1.4937,-0.7579 v 0.65 h -1.5873 v -11.466 h 1.5873 v 3.692 c 0.3549,-0.4329 0.8372,-0.7904 1.3988,-0.7904 1.1518,0 1.534,0.9737 1.534,2.1203 v 4.6917 z m 5.8123,-2.2776 h -3.0082 v 1.5964 c 0,0.6344 0.0546,1.183 0.6864,1.183 0.6643,0 0.7033,-0.4472 0.7033,-1.183 v -0.5876 h 1.6185 v 0.6357 c 0,1.6289 -0.6994,2.6169 -2.3569,2.6169 -1.5015,0 -2.2698,-1.0946 -2.2698,-2.6169 v -3.7973 c 0,-1.4677 0.9698,-2.4882 2.3881,-2.4882 1.5093,0 2.2373,0.9594 2.2373,2.4882 v 2.1528 z"
     id="path4"
     inkscape:connector-curvature="0" />
</svg>
