<?xml version="1.0" encoding="UTF-8" standalone="no"?>
<!-- Generator: Adobe Illustrator 18.1.0, SVG Export Plug-In . SVG Version: 6.00 Build 0)  -->
<svg xmlns:rdf="http://www.w3.org/1999/02/22-rdf-syntax-ns#" xmlns="http://www.w3.org/2000/svg" enable-background="new 0 0 500 500" xml:space="preserve" viewBox="0 0 260 48" height="100%" width="100%" version="1.1" y="0px" x="0px" xmlns:cc="http://creativecommons.org/ns#" xmlns:dc="http://purl.org/dc/elements/1.1/"><metadata><rdf:RDF><cc:Work rdf:about=""><dc:format>image/svg+xml</dc:format><dc:type rdf:resource="http://purl.org/dc/dcmitype/StillImage"/><dc:title/></cc:Work></rdf:RDF></metadata><g style="letter-spacing:0px;word-spacing:0px;" font-weight="bold" transform="translate(0.145428,6.4593768)" font-size="54px" font-stretch="normal" line-height="125%" font-variant="normal" font-family="Exo 2" font-style="normal" fill="#cf4317"><path d="m30.07,22.68,0,5.4c-0.000033,2.916-1.17,4.95-3.51,6.102s-5.814,1.728-10.42,1.728h-14.58v-35.05h14.2c4.968,0.00003504,8.334,0.558,10.1,1.674,1.764,1.116,2.646,3.06,2.646,5.832v4.32c-0.000031,1.008-0.396,1.944-1.188,2.808s-1.692,1.44-2.7,1.728v0.27c1.296,0.144,2.52,0.72,3.672,1.728,1.188,1.008,1.782,2.16,1.782,3.456m-9.666-11.07,0-1.728c-0.000023-1.152-0.27-1.944-0.81-2.376s-1.872-0.648-3.996-0.648h-5.616v8.262h5.778c1.98,0.000021,3.24-0.252,3.78-0.756,0.576-0.504,0.864-1.422,0.864-2.754m1.242,15.34,0-2.808c-0.000024-1.296-0.342-2.214-1.026-2.754-0.648-0.54-1.818-0.81-3.51-0.81h-7.128v9.342h5.994c2.052,0.000006,3.51-0.234,4.374-0.702s1.296-1.224,1.296-2.268"/><path d="m59.06,35.91-7.722,0,0-2.376c-0.576,1.044-1.404,1.8-2.484,2.268-1.08,0.432-3.06,0.648-5.94,0.648-3.528,0-5.868-0.54-7.02-1.62s-1.728-3.33-1.728-6.75c-0.000002-3.096,0.594-5.238,1.782-6.426,1.188-1.224,3.312-1.836,6.372-1.836h8.856v-1.782c-0.000019-1.584-0.378-2.628-1.134-3.132-0.72-0.54-2.268-0.81-4.644-0.81-2.232,0.000022-5.292,0.216-9.18,0.648v-4.968c2.988-0.36,6.318-0.54,9.99-0.54,4.824,0.0000267,8.172,0.594,10.04,1.782,1.872,1.152,2.808,3.456,2.808,6.912v17.98m-7.884-6.696,0-5.076-5.4,0c-1.728,0.000012-2.808,0.198-3.24,0.594s-0.648,1.458-0.648,3.186c-0.000009,1.692,0.216,2.718,0.648,3.078,0.468,0.36,1.62,0.54,3.456,0.54,0.9,0.000005,1.566,0.000005,1.998,0,0.432-0.03599,0.9-0.08999,1.404-0.162,0.504-0.072,0.846-0.18,1.026-0.324,0.216-0.18,0.396-0.414,0.54-0.702s0.216-0.666,0.216-1.134"/><path d="m88.51,25.7,0,3.294c-0.000026,1.296-0.252,2.412-0.756,3.348-0.468,0.936-1.08,1.674-1.836,2.214-0.72,0.504-1.674,0.9-2.862,1.188s-2.34,0.468-3.456,0.54c-1.08,0.108-2.358,0.162-3.834,0.162-2.844,0-6.282-0.27-10.31-0.81v-5.238c5.004,0.756,8.478,1.134,10.42,1.134,1.548,0.000005,2.736-0.144,3.564-0.432,0.864-0.324,1.296-0.936,1.296-1.836v-1.62c-0.000018-0.828-0.234-1.44-0.702-1.836-0.468-0.432-1.476-0.648-3.024-0.648h-3.402c-2.736,0.000011-4.878-0.54-6.426-1.62-1.512-1.116-2.268-2.736-2.268-4.86v-3.186c-0.000002-2.376,1.134-4.014,3.402-4.914s5.472-1.35,9.612-1.35c1.728,0.0000267,4.824,0.162,9.288,0.486v5.022c-5.616-0.432-8.784-0.648-9.504-0.648-2.196,0.000022-3.582,0.162-4.158,0.486-0.576,0.288-0.864,0.864-0.864,1.728v1.404c-0.00001,0.432,0.216,0.828,0.648,1.188,0.468,0.36,1.17,0.54,2.106,0.54h3.456c6.408,0.000017,9.612,2.088,9.612,6.264"/><path d="m116.9,25.7,0,3.294c-0.00002,1.296-0.252,2.412-0.756,3.348-0.468,0.936-1.08,1.674-1.836,2.214-0.72,0.504-1.674,0.9-2.862,1.188s-2.34,0.468-3.456,0.54c-1.08,0.108-2.358,0.162-3.834,0.162-2.844,0-6.282-0.27-10.31-0.81v-5.238c5.004,0.756,8.478,1.134,10.42,1.134,1.548,0.000005,2.736-0.144,3.564-0.432,0.864-0.324,1.296-0.936,1.296-1.836v-1.62c-0.00001-0.828-0.234-1.44-0.702-1.836-0.468-0.432-1.476-0.648-3.024-0.648h-3.402c-2.736,0.000011-4.878-0.54-6.426-1.62-1.512-1.116-2.268-2.736-2.268-4.86v-3.186c-0.000002-2.376,1.134-4.014,3.402-4.914s5.472-1.35,9.612-1.35c1.728,0.0000267,4.824,0.162,9.288,0.486v5.022c-5.616-0.432-8.784-0.648-9.504-0.648-2.196,0.000022-3.582,0.162-4.158,0.486-0.576,0.288-0.864,0.864-0.864,1.728v1.404c-0.00001,0.432,0.216,0.828,0.648,1.188,0.468,0.36,1.17,0.54,2.106,0.54h3.456c6.408,0.000017,9.612,2.088,9.612,6.264"/></g><g style="letter-spacing:0px;word-spacing:0px;" font-weight="bold" transform="translate(0,0.52966102)" font-size="53px" font-stretch="normal" line-height="125%" font-variant="normal" font-family="Play" font-style="normal" fill="#babdb6"><path d="m150,41.56c-3.887,0.7773-7.597,1.166-11.13,1.166-1.413-0.000001-2.756-0.07067-4.028-0.212-1.237-0.106-2.632-0.3533-4.187-0.742-1.519-0.424-2.827-0.9717-3.922-1.643-1.06-0.7067-1.961-1.678-2.703-2.915-0.742-1.272-1.113-2.756-1.113-4.452v-15.1c0-6.925,5.318-10.39,15.95-10.39,2.615,0.0000349,6.254,0.3887,10.92,1.166v6.201c-4.205-0.9893-7.809-1.484-10.81-1.484-1.201,0.000029-2.191,0.03536-2.968,0.106-0.742,0.0707-1.537,0.2474-2.385,0.53-0.8127,0.2827-1.431,0.742-1.855,1.378-0.3887,0.6007-0.583,1.396-0.583,2.385v14.63c-0.00001,3.109,2.844,4.664,8.533,4.664,2.509,0.000005,5.936-0.5123,10.28-1.537v6.254"/><path d="m163,42.19-7.738,0,0-37.1,7.738,0,0,37.1"/><path d="m195.3,25.82,0,7.579c-0.00003,1.661-0.265,3.092-0.795,4.293-0.53,1.166-1.184,2.085-1.961,2.756-0.7774,0.636-1.802,1.131-3.074,1.484-1.237,0.3533-2.385,0.5653-3.445,0.636-1.025,0.106-2.279,0.159-3.763,0.159-1.484-0.000001-2.756-0.053-3.816-0.159-1.025-0.07067-2.173-0.2827-3.445-0.636-1.237-0.3533-2.244-0.848-3.021-1.484-0.7773-0.6713-1.431-1.59-1.961-2.756-0.53-1.201-0.795-2.632-0.795-4.293v-7.579c0-1.767,0.265-3.268,0.795-4.505,0.5653-1.272,1.237-2.244,2.014-2.915,0.8127-0.6713,1.855-1.184,3.127-1.537,1.272-0.3886,2.403-0.6183,3.392-0.689,1.025-0.106,2.261-0.159,3.71-0.159,1.449,0.000026,2.668,0.05303,3.657,0.159,1.025,0.07069,2.173,0.3004,3.445,0.689,1.272,0.3534,2.297,0.8657,3.074,1.537,0.8126,0.6714,1.484,1.643,2.014,2.915,0.5653,1.237,0.848,2.738,0.848,4.505m-7.738,8.48,0-9.699c-0.00002-1.378-0.3534-2.35-1.06-2.915-0.7067-0.6006-2.12-0.901-4.24-0.901-2.12,0.000021-3.533,0.3004-4.24,0.901-0.7067,0.5654-1.06,1.537-1.06,2.915v9.699c-0.00001,1.343,0.3357,2.279,1.007,2.809,0.7067,0.53,2.138,0.795,4.293,0.795,2.155,0.000004,3.569-0.265,4.24-0.795,0.7066-0.53,1.06-1.466,1.06-2.809"/><path d="m226,42.19-7.632,0,0-3.127c-0.6007,2.438-3.339,3.657-8.215,3.657-3.392-0.000001-5.724-0.6007-6.996-1.802-1.272-1.237-1.908-3.092-1.908-5.565v-18.82h7.738v17.76c-0.00001,1.413,0.2296,2.367,0.689,2.862,0.4946,0.4947,1.643,0.742,3.445,0.742,2.226,0.000004,3.639-0.2297,4.24-0.689,0.6006-0.4947,0.901-1.466,0.901-2.915v-17.76h7.738v25.65"/><path d="m258.3,42.19-7.473,0,0-2.915c-0.6007,0.954-1.148,1.661-1.643,2.12-0.4947,0.424-1.237,0.742-2.226,0.954-0.9894,0.2473-2.403,0.371-4.24,0.371-4.381-0.000001-7.243-0.5477-8.586-1.643s-2.014-3.533-2.014-7.314v-10.02c0-2.897,0.8127-4.911,2.438-6.042,1.661-1.131,4.258-1.696,7.791-1.696,2.544,0.000026,4.328,0.2474,5.353,0.742,1.025,0.4594,1.979,1.343,2.862,2.65v-14.31h7.738v37.1m-7.738-7.685,0-10.34c-0.00002-1.272-0.3534-2.155-1.06-2.65-0.6714-0.4946-2.138-0.742-4.399-0.742-2.367,0.000021-3.834,0.2297-4.399,0.689-0.5653,0.4594-0.848,1.449-0.848,2.968v9.805c-0.00001,1.413,0.2827,2.385,0.848,2.915,0.5653,0.4947,1.89,0.742,3.975,0.742,2.509,0.000004,4.116-0.212,4.823-0.636,0.7066-0.4593,1.06-1.378,1.06-2.756"/></g></svg>
