<svg><defs><svg id="arrow-down" viewBox="0 0 32 32" width="32" height="32"><path d="M2 10.283q0-.357.28-.633l1.404-1.374Q3.964 8 4.33 8q.364 0 .645.276L16 19.08 27.025 8.275Q27.305 8 27.67 8t.646.276L29.72 9.65q.28.276.28.633t-.28.633L16.646 23.724q-.28.276-.645.276t-.646-.276L2.284 10.916q-.28-.276-.28-.633z"/></svg><svg id="arrow-left-fill" viewBox="0 0 32 32" width="32" height="32"><path d="M22.92 2.02c.808.122 1.466.895 1.457 1.714v24.61c.016 1.33-1.892 2.183-2.873 1.287L8.127 17.283c-.672-.638-.672-1.848 0-2.486L21.504 2.448a1.74 1.74 0 0 1 1.415-.43z"/></svg><svg id="arrow-left" viewBox="0 0 32 32" width="32" height="32"><path d="M21.717 2q.357 0 .633.28l1.374 1.404q.276.28.276.646 0 .364-.276.645L12.92 16l10.804 11.025q.276.28.276.645t-.276.646L22.35 29.72q-.276.28-.633.28t-.633-.28L8.276 16.646Q8 16.367 8 16.002t.276-.646L21.084 2.284q.276-.28.633-.28z"/></svg><svg id="arrow-right-fill" viewBox="0 0 32 32" width="32" height="32"><path d="M9.08 2.02c-.808.122-1.466.895-1.457 1.714v24.61c-.016 1.33 1.892 2.183 2.873 1.287l13.377-12.348c.672-.638.672-1.848 0-2.486L10.496 2.448a1.74 1.74 0 0 0-1.415-.43z"/></svg><svg id="arrow-right" viewBox="0 0 32 32" width="32" height="32"><path d="M10.283 30q-.357 0-.633-.28l-1.374-1.404Q8 28.036 8 27.67q0-.364.276-.645L19.08 16 8.275 4.975Q8 4.695 8 4.33t.276-.646L9.65 2.28q.276-.28.633-.28t.633.28l12.808 13.073q.276.28.276.645t-.276.646L10.916 29.716q-.276.28-.633.28z"/></svg><svg id="arrow-up" viewBox="0 0 32 32" width="32" height="32"><path d="M2.003 21.717q0-.357.28-.633L15.357 8.276q.28-.276.646-.276.364 0 .645.276L29.72 21.084q.28.276.28.633t-.28.633l-1.404 1.374q-.28.276-.646.276-.364 0-.645-.276L16 12.92 4.975 23.725Q4.695 24 4.33 24t-.646-.276L2.28 22.35Q2 22.074 2 21.717z"/></svg><svg id="bass-guitar" viewBox="0 0 32 32"><g><path d="M2.08 18.355l1.843 4.988-1.65.61-1.84-4.99zM26.86 17.096c.74 1.46 2.337.69 3.198.13.165-.102.32-.212.462-.333.062-.05.105-.08.105-.08l-.002-.005a3.823 3.823 0 0 0 1.048-4.18 3.82 3.82 0 0 0-3.903-2.48l-.004-.013-23.475 2.79c.36 3.145-1.56 5.184-1.56 5.184l1.85 5.005.916-.34c.973-.217 4.453 2.077 4.453 2.077 3.46-3.285 16.914-7.756 16.914-7.756zm-18.865-.75a1.04 1.04 0 1 1 1.335.615 1.04 1.04 0 0 1-1.335-.614zm6.283-.628c-.2-.543.077-1.136.615-1.335.543-.2 1.136.078 1.335.615a1.04 1.04 0 0 1-1.95.72zm6.085-1.125a1.04 1.04 0 1 1 1.335.615 1.04 1.04 0 0 1-1.335-.615zm6.085-1.125a1.04 1.04 0 1 1 1.95-.717 1.04 1.04 0 0 1-1.95.717zM23.366 7.084l.004.012a1.357 1.357 0 0 0-.676 1.68 1.352 1.352 0 0 0 1.74.8c.012-.003.028-.015.033-.018l.003.006.727-.268.233.632 1.57-.19-.36-.974.726-.27-.003-.005c.012-.005.032-.006.038-.008a1.352 1.352 0 0 0-.804-2.577c0-.006 0-.006-.003-.012a1.73 1.73 0 0 0-2.218-1.022 1.714 1.714 0 0 0-1.01 2.214zM17.093 7.72l.005.013a1.357 1.357 0 0 0-.676 1.68 1.352 1.352 0 0 0 1.74.802c.012-.005.027-.017.033-.02l.002.006.727-.267.27.727 1.567-.19-.394-1.07.733-.27-.003-.006c.012-.004.032-.005.038-.007a1.352 1.352 0 0 0-.804-2.577l-.005-.012a1.73 1.73 0 0 0-2.217-1.022 1.732 1.732 0 0 0-1.017 2.215zM10.854 8.447l.004.012a1.357 1.357 0 0 0-.676 1.68 1.352 1.352 0 0 0 1.74.8c.012-.004.028-.017.034-.02l.002.007.727-.268.27.732 1.57-.19-.396-1.07.726-.268-.002-.006c.01-.005.03-.005.037-.007a1.352 1.352 0 0 0-.804-2.577c0-.006 0-.006-.003-.012a1.73 1.73 0 0 0-2.217-1.02 1.717 1.717 0 0 0-1.012 2.207zM8.3 11.935l-.5-1.36.725-.268-.002-.006c.012-.003.032-.004.038-.006a1.352 1.352 0 0 0-.804-2.577c0-.006 0-.006-.003-.012a1.73 1.73 0 0 0-2.218-1.022A1.73 1.73 0 0 0 4.515 8.9c0 .007 0 .007.003.013a1.357 1.357 0 0 0-.676 1.68 1.352 1.352 0 0 0 1.74.8c.012-.003.03-.01.034-.018l.002.006.727-.267.373 1.01 1.582-.188z"/></g></svg><svg id="check" viewBox="0 0 32 32" width="32" height="32"><path d="M26.25 6.525a.94.94 0 0 0-.688.28l-13.437 13.44-5.656-5.658a.988.988 0 0 0-1.407 0l-1.438 1.407a.988.988 0 0 0 0 1.406l7.78 7.78a.988.988 0 0 0 1.408 0C17.997 20 23.187 14.827 28.374 9.65a1.026 1.026 0 0 0 0-1.438L26.97 6.806a1.01 1.01 0 0 0-.72-.28z"/></svg><svg id="circle-i-outline" viewBox="0 0 32 32" width="32" height="32"><path d="M5.393 5.393c-5.858 5.86-5.858 15.355 0 21.214 5.86 5.858 15.355 5.858 21.214 0 5.858-5.86 5.858-15.355 0-21.214-5.86-5.858-15.355-5.858-21.214 0zm19.225 19.225c-4.76 4.76-12.476 4.76-17.236 0s-4.76-12.476 0-17.236 12.476-4.76 17.236 0 4.76 12.476 0 17.236zM5.768 5.768c-5.65 5.65-5.65 14.813 0 20.464 5.65 5.65 14.813 5.65 20.464 0 5.65-5.65 5.65-14.813 0-20.464-5.65-5.65-14.813-5.65-20.464 0zm18.545 18.545c-4.59 4.592-12.035 4.592-16.626 0-4.592-4.59-4.592-12.035 0-16.626 4.59-4.592 12.035-4.592 16.626 0 4.592 4.59 4.592 12.035 0 16.626z" style="line-height:125%;-inkscape-font-specification:Noto Serif Bold" font-size="22" font-weight="700" letter-spacing="0" word-spacing="0" font-family="Noto Serif"/><path d="M14 12.68h4v11.792h-4zM18 8.783a2 2 0 1 1-4 0 2 2 0 0 1 4 0z"/></svg><svg id="circle-i" viewBox="0 0 32 32" width="32" height="32"><path d="M16 1C7.707 1 1 7.707 1 16s6.707 15 15 15 15-6.707 15-15S24.294 1 16 1zm0 5.78a2 2 0 1 1 0 4 2 2 0 0 1 0-4zm-2 5.907h4V24.47h-4V12.687z"/></svg><svg id="circle-minus-outline" viewBox="0 0 32 32" width="32" height="32"><path d="M7.382 14.01v3.98h17.236v-3.98zm-1.99-8.617c-5.857 5.86-5.857 15.355 0 21.214 5.86 5.858 15.356 5.858 21.215 0 5.858-5.86 5.858-15.355 0-21.214-5.86-5.858-15.355-5.858-21.214 0zM24.62 24.618c-4.76 4.76-12.476 4.76-17.236 0s-4.76-12.476 0-17.236 12.476-4.76 17.236 0 4.76 12.476 0 17.236z"/></svg><svg id="circle-minus" viewBox="0 0 32 32" width="32" height="32"><path d="M16 1c8.294 0 15 6.707 15 15s-6.707 15-15 15S1 24.293 1 16 7.707 1 16 1zm7.717 16.515v-3.03H8.284v3.03z"/></svg><svg id="circle-plus-outline" viewBox="0 0 32 32" width="32" height="32"><path d="M14.01 7.382v6.63H7.383v3.977h6.63v6.628h3.977v-6.63h6.628v-3.977h-6.63V7.383zm-8.617-1.99c-5.858 5.86-5.858 15.356 0 21.215 5.86 5.858 15.355 5.858 21.214 0 5.858-5.86 5.858-15.355 0-21.214-5.86-5.858-15.355-5.858-21.214 0zM24.618 24.62c-4.76 4.76-12.476 4.76-17.236 0s-4.76-12.476 0-17.236 12.476-4.76 17.236 0 4.76 12.476 0 17.236z"/></svg><svg id="circle-plus" viewBox="0 0 32 32" width="32" height="32"><path d="M16 1c8.294 0 15 6.707 15 15s-6.707 15-15 15S1 24.293 1 16 7.707 1 16 1zm7.717 16.515v-3.03h-6.202v-6.2h-3.03v6.2h-6.2v3.03h6.2v6.202h3.03v-6.202h6.202z"/></svg><svg id="circle-x-outline" viewBox="0 0 32 32" width="32" height="32"><path d="M20.688 8.5L16 13.188 11.312 8.5 8.5 11.313 13.188 16 8.5 20.688l2.813 2.812L16 18.812l4.688 4.688 2.812-2.813L18.812 16l4.688-4.688zM16 1C7.715 1 1 7.715 1 16s6.715 15 15 15 15-6.715 15-15S24.285 1 16 1zm0 27.188C9.27 28.188 3.812 22.73 3.812 16 3.813 9.27 9.27 3.812 16 3.812c6.73 0 12.188 5.457 12.188 12.188 0 6.73-5.457 12.188-12.188 12.188z"/></svg><svg id="countdown (copy)" viewBox="0 0 32 32" width="32" height="32"><path style="text-indent:0;text-align:start;line-height:normal;text-transform:none;block-progression:tb;-inkscape-font-specification:Sans" d="M-48.27 97.356c-8.82 0-16 7.18-16 16s7.18 16 16 16c4.408 0 8.414-1.784 11.31-4.688l-.905-.875c.005-.005-.005-.025 0-.03 2.665-2.668 4.344-6.34 4.344-10.407 0-8.14-6.626-14.733-14.75-14.75v-1.25zm0 1.78c7.84.018 14.218 6.367 14.218 14.22 0 3.932-1.58 7.49-4.157 10.062l-.874-.875a12.92 12.92 0 0 1-9.187 3.813c-7.2 0-13-5.803-13-13 0-7.198 5.8-13 13-13v-1.22zm0 3.22c-6.067 0-11 4.934-11 11s4.933 11 11 11c6.065 0 11-4.934 11-11s-4.935-11-11-11zm-.626 2.312c.22 0 .42.02.625.032.66.04 1.268.14 1.78.312.672.224 1.224.522 1.656.938.448.4.792.908 1 1.468.224.544.313 1.126.313 1.782 0 .768-.194 1.454-.626 2.062a4.157 4.157 0 0 1-1.656 1.406c.864.304 1.596.796 2.156 1.5.576.704.844 1.615.844 2.72 0 .735-.12 1.422-.375 2.062a4.276 4.276 0 0 1-1.157 1.625c-.528.448-1.215.82-2.03 1.093-.56.18-1.193.29-1.907.344-.31.023-.632.03-.97.03-.432 0-.88-.028-1.344-.092a11.226 11.226 0 0 1-1.312-.22c-.4-.08-.758-.153-1.094-.25-.266-.088-.433-.17-.594-.25-.05-.034-.105-.057-.156-.093l.563-2.47c.336.16.828.356 1.468.564.64.193 1.432.282 2.376.282a7.42 7.42 0 0 0 1.063-.062c.717-.103 1.27-.327 1.655-.657.56-.496.844-1.152.844-1.968 0-.528-.09-.96-.314-1.313a2.31 2.31 0 0 0-.906-.844c-.368-.224-.785-.357-1.28-.437a8.08 8.08 0 0 0-1.564-.155h-.968v-2.344h1.187c.368 0 .757-.03 1.125-.093.08-.016.143-.042.22-.062.29-.08.57-.204.81-.344a2.3 2.3 0 0 0 .75-.718c.193-.304.283-.707.283-1.187 0-.384-.075-.728-.22-1a1.95 1.95 0 0 0-.593-.657 2.088 2.088 0 0 0-.78-.375c-.083-.02-.167-.046-.25-.062a3.95 3.95 0 0 0-.72-.062c-.72 0-1.346.12-1.906.344a8.17 8.17 0 0 0-1.5.72l-1.063-2.157c.225-.144.525-.31.845-.47.32-.16.647-.324 1.03-.468.4-.144.835-.232 1.283-.312.448-.096.91-.157 1.406-.157z" font-weight="400" color="#000" overflow="visible" font-family="Sans"/><path d="M69.73 16a13.73 13.73 0 1 1-27.46 0 13.73 13.73 0 1 1 27.46 0z" stroke="#000" stroke-width=".5"/><path d="M66.5 16c0 5.8-4.7 10.5-10.5 10.5S45.5 21.8 45.5 16 50.2 5.5 56 5.5 66.5 10.2 66.5 16z"/><path d="M56 1c-3.84 0-7.665 1.477-10.594 4.406-5.858 5.858-5.858 15.33 0 21.188 5.858 5.858 15.33 5.858 21.188 0A14.937 14.937 0 0 0 71 16h-2.813c0 3.12-1.182 6.245-3.562 8.625-4.76 4.76-12.49 4.76-17.25 0s-4.76-12.49 0-17.25A12.158 12.158 0 0 1 56 3.812V1z"/><g style="line-height:125%;-inkscape-font-specification:Ubuntu Medium" font-size="24" font-weight="500" letter-spacing="0" word-spacing="0" font-family="Ubuntu"><path d="M55.028 24.688a9.84 9.84 0 0 1-1.344-.096c-.448-.048-.88-.12-1.296-.216-.4-.08-.768-.168-1.104-.264a4.956 4.956 0 0 1-.768-.312l.576-2.472c.336.16.824.344 1.464.552.64.192 1.432.288 2.376.288 1.264 0 2.176-.24 2.736-.72.56-.496.84-1.152.84-1.968 0-.528-.112-.968-.336-1.32a2.25 2.25 0 0 0-.888-.84 3.557 3.557 0 0 0-1.296-.456 7.827 7.827 0 0 0-1.536-.144h-.984v-2.352h1.2a6.43 6.43 0 0 0 1.104-.096c.384-.08.728-.208 1.032-.384a2.36 2.36 0 0 0 .744-.744c.192-.304.288-.696.288-1.176 0-.384-.072-.712-.216-.984a1.955 1.955 0 0 0-.576-.672 2.15 2.15 0 0 0-.792-.384 3.76 3.76 0 0 0-.96-.12c-.72 0-1.36.112-1.92.336a8.045 8.045 0 0 0-1.488.72l-1.056-2.16c.224-.144.496-.296.816-.456.32-.16.672-.312 1.056-.456.4-.144.824-.256 1.272-.336.448-.096.92-.144 1.416-.144.928 0 1.728.112 2.4.336.672.224 1.224.544 1.656.96.448.4.776.88.984 1.44.224.544.336 1.144.336 1.8 0 .768-.216 1.456-.648 2.064a4.053 4.053 0 0 1-1.632 1.392 4.64 4.64 0 0 1 2.136 1.512c.576.704.864 1.608.864 2.712 0 .736-.128 1.424-.384 2.064a4.35 4.35 0 0 1-1.176 1.632c-.528.448-1.2.808-2.016 1.08-.8.256-1.76.384-2.88.384"/><path d="M55.028 24.688a9.84 9.84 0 0 1-1.344-.096c-.448-.048-.88-.12-1.296-.216-.4-.08-.768-.168-1.104-.264a4.956 4.956 0 0 1-.768-.312l.576-2.472c.336.16.824.344 1.464.552.64.192 1.432.288 2.376.288 1.264 0 2.176-.24 2.736-.72.56-.496.84-1.152.84-1.968 0-.528-.112-.968-.336-1.32a2.25 2.25 0 0 0-.888-.84 3.557 3.557 0 0 0-1.296-.456 7.827 7.827 0 0 0-1.536-.144h-.984v-2.352h1.2a6.43 6.43 0 0 0 1.104-.096c.384-.08.728-.208 1.032-.384a2.36 2.36 0 0 0 .744-.744c.192-.304.288-.696.288-1.176 0-.384-.072-.712-.216-.984a1.955 1.955 0 0 0-.576-.672 2.15 2.15 0 0 0-.792-.384 3.76 3.76 0 0 0-.96-.12c-.72 0-1.36.112-1.92.336a8.045 8.045 0 0 0-1.488.72l-1.056-2.16c.224-.144.496-.296.816-.456.32-.16.672-.312 1.056-.456.4-.144.824-.256 1.272-.336.448-.096.92-.144 1.416-.144.928 0 1.728.112 2.4.336.672.224 1.224.544 1.656.96.448.4.776.88.984 1.44.224.544.336 1.144.336 1.8 0 .768-.216 1.456-.648 2.064a4.053 4.053 0 0 1-1.632 1.392 4.64 4.64 0 0 1 2.136 1.512c.576.704.864 1.608.864 2.712 0 .736-.128 1.424-.384 2.064a4.35 4.35 0 0 1-1.176 1.632c-.528.448-1.2.808-2.016 1.08-.8.256-1.76.384-2.88.384"/></g><path d="M48.37 13.735h3.788v3.883H48.37zM90.623 33.922h14.848v9.83H90.624z"/><g style="line-height:125%;-inkscape-font-specification:Ubuntu Medium" font-size="24" font-weight="500" letter-spacing="0" word-spacing="0" font-family="Ubuntu"><path d="M97.79 44.63a9.84 9.84 0 0 1-1.344-.095c-.448-.048-.88-.12-1.296-.216-.4-.08-.768-.17-1.104-.265a4.956 4.956 0 0 1-.768-.312l.576-2.472c.336.16.824.345 1.464.553.64.192 1.432.288 2.376.288 1.264 0 2.176-.24 2.736-.72.56-.495.84-1.15.84-1.967 0-.528-.112-.968-.336-1.32a2.25 2.25 0 0 0-.888-.84 3.557 3.557 0 0 0-1.296-.456 7.827 7.827 0 0 0-1.536-.144h-.984V34.31h1.2a6.43 6.43 0 0 0 1.104-.095c.384-.08.728-.208 1.032-.384a2.36 2.36 0 0 0 .744-.743c.192-.304.288-.696.288-1.176 0-.383-.072-.71-.216-.983a1.955 1.955 0 0 0-.576-.672 2.15 2.15 0 0 0-.792-.384 3.76 3.76 0 0 0-.96-.12c-.72 0-1.36.113-1.92.337a8.045 8.045 0 0 0-1.488.72l-1.056-2.16c.224-.144.496-.296.816-.456.32-.16.672-.31 1.056-.455.4-.144.824-.256 1.272-.336.448-.097.92-.145 1.416-.145.928 0 1.728.112 2.4.336.672.225 1.224.545 1.656.96.448.4.776.88.984 1.44.224.545.336 1.145.336 1.8 0 .77-.216 1.457-.648 2.065a4.053 4.053 0 0 1-1.632 1.392 4.64 4.64 0 0 1 2.136 1.512c.576.703.864 1.607.864 2.71 0 .737-.128 1.425-.384 2.065a4.35 4.35 0 0 1-1.176 1.632c-.528.448-1.2.808-2.016 1.08-.8.256-1.76.384-2.88.384"/><path d="M97.79 44.63a9.84 9.84 0 0 1-1.344-.095c-.448-.048-.88-.12-1.296-.216-.4-.08-.768-.17-1.104-.265a4.956 4.956 0 0 1-.768-.312l.576-2.472c.336.16.824.345 1.464.553.64.192 1.432.288 2.376.288 1.264 0 2.176-.24 2.736-.72.56-.495.84-1.15.84-1.967 0-.528-.112-.968-.336-1.32a2.25 2.25 0 0 0-.888-.84 3.557 3.557 0 0 0-1.296-.456 7.827 7.827 0 0 0-1.536-.144h-.984V34.31h1.2a6.43 6.43 0 0 0 1.104-.095c.384-.08.728-.208 1.032-.384a2.36 2.36 0 0 0 .744-.743c.192-.304.288-.696.288-1.176 0-.383-.072-.71-.216-.983a1.955 1.955 0 0 0-.576-.672 2.15 2.15 0 0 0-.792-.384 3.76 3.76 0 0 0-.96-.12c-.72 0-1.36.113-1.92.337a8.045 8.045 0 0 0-1.488.72l-1.056-2.16c.224-.144.496-.296.816-.456.32-.16.672-.31 1.056-.455.4-.144.824-.256 1.272-.336.448-.097.92-.145 1.416-.145.928 0 1.728.112 2.4.336.672.225 1.224.545 1.656.96.448.4.776.88.984 1.44.224.545.336 1.145.336 1.8 0 .77-.216 1.457-.648 2.065a4.053 4.053 0 0 1-1.632 1.392 4.64 4.64 0 0 1 2.136 1.512c.576.703.864 1.607.864 2.71 0 .737-.128 1.425-.384 2.065a4.35 4.35 0 0 1-1.176 1.632c-.528.448-1.2.808-2.016 1.08-.8.256-1.76.384-2.88.384"/></g><path d="M60.475 65.22c0 8.013-6.496 14.51-14.51 14.51-8.012 0-11.728-6.327-11.728-14.34s3.716-14.678 11.73-14.678c8.012 0 14.508 6.496 14.508 14.508z"/><path d="M42.688 52.334h1.2a6.43 6.43 0 0 0 1.104-.096c.384-.08.728-.208 1.032-.384a2.36 2.36 0 0 0 .744-.744c.192-.304.288-.696.288-1.176 0-.384-.072-.712-.216-.984a1.955 1.955 0 0 0-.576-.672 2.15 2.15 0 0 0-.792-.384 3.76 3.76 0 0 0-.96-.12c-.72 0-1.36.112-1.92.336a8.045 8.045 0 0 0-1.488.72l-1.056-2.16c.224-.144.496-.296.816-.456.32-.16.672-.312 1.056-.456.4-.144.824-.256 1.272-.336.448-.096.92-.144 1.416-.144.928 0 1.728.112 2.4.336.672.224 1.224.544 1.656.96.448.4.776.88.984 1.44.224.544.336 1.144.336 1.8 0 .768-.216 1.456-.648 2.064a4.053 4.053 0 0 1-1.632 1.392" style="line-height:125%;-inkscape-font-specification:Ubuntu Medium" font-size="24" font-weight="500" letter-spacing="0" word-spacing="0" font-family="Ubuntu"/><path d="M-33.5 16a10.5 10.5 0 1 1-21 0 10.5 10.5 0 1 1 21 0z"/><text y="24.328" x="-50.636" style="line-height:125%;-inkscape-font-specification:Ubuntu Medium" font-size="24" font-weight="500" letter-spacing="0" word-spacing="0" font-family="Ubuntu"><tspan y="24.328" x="-50.636">3</tspan></text><path d="M-33 16a11 11 0 1 1-22 0 11 11 0 1 1 22 0z"/><path d="M-33.75 16a10.25 10.25 0 1 1-20.5 0 10.25 10.25 0 1 1 20.5 0z" stroke="#000" stroke-width="1.4999256"/><path d="M-34.407 43.508c-5.8 0-10.5 4.7-10.5 10.5s4.7 10.5 10.5 10.5 10.5-4.7 10.5-10.5-4.7-10.5-10.5-10.5zm-.625 1.813c.22 0 .42.02.625.032.66.04 1.27.142 1.78.313.673.224 1.226.52 1.658.937.45.4.793.91 1 1.47.225.543.313 1.124.313 1.78 0 .768-.193 1.455-.625 2.063a4.157 4.157 0 0 1-1.656 1.406c.864.305 1.596.797 2.156 1.5.576.705.844 1.616.844 2.72 0 .736-.12 1.422-.375 2.062a4.276 4.276 0 0 1-1.156 1.625c-.527.448-1.215.822-2.03 1.094-.56.18-1.192.29-1.907.345-.31.023-.63.03-.97.03-.43 0-.878-.03-1.342-.093a11.226 11.226 0 0 1-1.312-.22c-.4-.08-.758-.153-1.094-.25a4.62 4.62 0 0 1-.75-.31l.563-2.5c.336.16.83.353 1.47.56.64.193 1.43.283 2.374.283.396 0 .737-.016 1.063-.063.718-.103 1.27-.326 1.656-.656.56-.496.843-1.153.843-1.97 0-.527-.088-.96-.312-1.31a2.31 2.31 0 0 0-.906-.845c-.368-.223-.785-.357-1.28-.437a8.082 8.082 0 0 0-1.563-.156h-.968v-2.344h1.187c.367 0 .756-.03 1.124-.093.08-.017.144-.042.22-.063.29-.08.57-.204.812-.344a2.3 2.3 0 0 0 .75-.718c.192-.304.28-.708.28-1.188 0-.384-.074-.728-.218-1a1.95 1.95 0 0 0-.594-.656 2.088 2.088 0 0 0-.78-.374c-.083-.022-.167-.047-.25-.063a3.948 3.948 0 0 0-.72-.062c-.72 0-1.346.12-1.906.345a8.17 8.17 0 0 0-1.5.718l-1.062-2.156a9.48 9.48 0 0 1 .843-.47c.32-.16.647-.323 1.03-.467.4-.144.834-.233 1.282-.313.448-.096.91-.156 1.406-.156z"/><path style="text-indent:0;text-align:start;line-height:normal;text-transform:none;block-progression:tb;-inkscape-font-specification:Sans" d="M-34.415 40.044c-7.717 0-13.968 6.252-13.968 13.97 0 7.717 6.25 13.968 13.968 13.968s14-6.25 14-13.97c0-7.716-6.282-13.968-14-13.968zm0 .5c7.447 0 13.5 6.022 13.5 13.47 0 7.446-6.053 13.468-13.5 13.468s-13.468-6.022-13.468-13.47c0-7.446 6.02-13.468 13.468-13.468z" font-weight="400" color="#000" overflow="visible" font-family="Sans"/><path d="M-34.407 39.008c-3.84 0-7.664 1.478-10.594 4.407-5.86 5.858-5.86 15.33 0 21.187 5.725 5.726 14.9 5.84 20.78.375l-2.124-1.844c-4.788 4.24-12.106 4.083-16.688-.5-4.76-4.76-4.76-12.49 0-17.25a12.158 12.158 0 0 1 8.625-3.562V39.01z"/><path d="M-16.915 58.178a16.712 16.712 0 1 1-33.424 0 16.712 16.712 0 1 1 33.425 0z"/><path d="M-13.34 42.57l16-.006v32.012l-16-16.012z"/><path d="M16.498 5.51c-5.8 0-10.5 4.7-10.5 10.5s4.7 10.5 10.5 10.5 10.5-4.7 10.5-10.5-4.7-10.5-10.5-10.5z"/><path d="M16.49 2.046c-7.718 0-13.97 6.25-13.97 13.97 0 7.716 6.252 13.967 13.97 13.967 7.717 0 14-6.25 14-13.968s-6.283-13.97-14-13.97zm0 .5c7.447 0 13.5 6.022 13.5 13.47 0 7.446-6.053 13.467-13.5 13.467S3.02 23.463 3.02 16.015c0-7.447 6.023-13.47 13.47-13.47z" style="text-indent:0;text-align:start;line-height:normal;text-transform:none;block-progression:tb;-inkscape-font-specification:Sans" font-weight="400" color="#000" overflow="visible" font-family="Sans"/><path d="M16.498 1.01c-3.84 0-7.665 1.477-10.594 4.406-5.858 5.858-5.858 15.33 0 21.188 5.725 5.725 14.9 5.84 20.78.375l-2.124-1.845c-4.787 4.24-12.105 4.082-16.687-.5-4.76-4.76-4.76-12.49 0-17.25a12.158 12.158 0 0 1 8.625-3.563V1.01z"/><g style="line-height:125%;-inkscape-font-specification:Ubuntu Medium" font-size="24" font-weight="500" letter-spacing="0" word-spacing="0" font-family="Ubuntu"><path d="M15.185 23.284a8.25 8.25 0 0 1-1.127-.08c-.375-.04-.738-.1-1.086-.182-.336-.067-.644-.14-.926-.22a4.155 4.155 0 0 1-.644-.262l.483-2.073c.282.134.69.288 1.228.463.536.16 1.2.24 1.992.24 1.06 0 1.824-.2 2.293-.602.47-.416.705-.966.705-1.65 0-.443-.094-.812-.282-1.107a1.886 1.886 0 0 0-.743-.703 2.982 2.982 0 0 0-1.087-.383 6.562 6.562 0 0 0-1.288-.12h-.825v-1.972h1.006c.31 0 .617-.027.926-.08a2.89 2.89 0 0 0 .864-.323c.255-.162.463-.37.624-.624.16-.255.24-.584.24-.986 0-.322-.06-.597-.18-.825a1.64 1.64 0 0 0-.483-.564 1.804 1.804 0 0 0-.664-.32 3.152 3.152 0 0 0-.804-.1c-.603 0-1.14.092-1.61.28-.47.175-.885.376-1.247.604l-.886-1.81c.188-.122.416-.25.684-.383.268-.133.563-.26.885-.382.336-.12.69-.214 1.067-.28.375-.082.77-.122 1.187-.122.778 0 1.45.094 2.012.282.562.187 1.025.456 1.387.804.376.336.65.738.825 1.208.188.456.282.96.282 1.51 0 .643-.18 1.22-.543 1.73-.348.51-.804.898-1.367 1.166a3.89 3.89 0 0 1 1.79 1.268c.483.59.725 1.348.725 2.274 0 .617-.108 1.194-.322 1.73-.215.524-.543.98-.986 1.37-.443.374-1.006.676-1.69.904-.67.215-1.476.322-2.415.322"/><path d="M15.185 23.284a8.25 8.25 0 0 1-1.127-.08c-.375-.04-.738-.1-1.086-.182-.336-.067-.644-.14-.926-.22a4.155 4.155 0 0 1-.644-.262l.483-2.073c.282.134.69.288 1.228.463.536.16 1.2.24 1.992.24 1.06 0 1.824-.2 2.293-.602.47-.416.705-.966.705-1.65 0-.443-.094-.812-.282-1.107a1.886 1.886 0 0 0-.743-.703 2.982 2.982 0 0 0-1.087-.383 6.562 6.562 0 0 0-1.288-.12h-.825v-1.972h1.006c.31 0 .617-.027.926-.08a2.89 2.89 0 0 0 .864-.323c.255-.162.463-.37.624-.624.16-.255.24-.584.24-.986 0-.322-.06-.597-.18-.825a1.64 1.64 0 0 0-.483-.564 1.804 1.804 0 0 0-.664-.32 3.152 3.152 0 0 0-.804-.1c-.603 0-1.14.092-1.61.28-.47.175-.885.376-1.247.604l-.886-1.81c.188-.122.416-.25.684-.383.268-.133.563-.26.885-.382.336-.12.69-.214 1.067-.28.375-.082.77-.122 1.187-.122.778 0 1.45.094 2.012.282.562.187 1.025.456 1.387.804.376.336.65.738.825 1.208.188.456.282.96.282 1.51 0 .643-.18 1.22-.543 1.73-.348.51-.804.898-1.367 1.166a3.89 3.89 0 0 1 1.79 1.268c.483.59.725 1.348.725 2.274 0 .617-.108 1.194-.322 1.73-.215.524-.543.98-.986 1.37-.443.374-1.006.676-1.69.904-.67.215-1.476.322-2.415.322"/></g></svg><svg id="countdown" viewBox="0 0 32 32" width="32" height="32"><path d="M15.97 5.5C10.183 5.517 5.5 10.212 5.5 16s4.684 10.483 10.47 10.5H16c5.784-.017 10.47-4.712 10.47-10.5S21.783 5.517 16 5.5h-.03zm-.5 2.875c.18 0 .332.02.5.03.01.002.02 0 .03 0 .58.037 1.113.133 1.563.283.588.196 1.09.48 1.468.843.394.352.663.76.845 1.25.196.478.312 1.02.313 1.595 0 .673-.216 1.248-.594 1.78a3.482 3.482 0 0 1-1.407 1.22 4.113 4.113 0 0 1 1.875 1.344c.505.616.75 1.406.75 2.374 0 .645-.12 1.25-.343 1.812a3.84 3.84 0 0 1-1.032 1.438c-.463.392-1.035.7-1.75.937-.48.155-1.074.235-1.688.282h-.03c-.27.023-.517.063-.814.063-.378 0-.78-.038-1.187-.094a9.412 9.412 0 0 1-1.126-.186c-.35-.07-.675-.166-.97-.25-.293-.098-.532-.166-.687-.25l.5-2.188c.295.14.72.318 1.282.5.56.17 1.265.25 2.092.25.332 0 .63-.024.907-.062.01-.002.02 0 .03 0 .633-.09 1.13-.272 1.47-.563.49-.433.717-1.002.718-1.718 0-.462-.085-.847-.282-1.156a2.013 2.013 0 0 0-.78-.75A3.067 3.067 0 0 0 16 16.75c-.01-.002-.02.002-.03 0a6.836 6.836 0 0 0-1.314-.125h-.875v-2.063h1.064c.322 0 .646-.006.97-.062.056-.012.102-.045.155-.063.008-.002.02.003.03 0 .26-.068.505-.157.72-.28a2 2 0 0 0 .624-.657c.168-.266.25-.61.25-1.03 0-.338-.062-.638-.188-.876a1.717 1.717 0 0 0-.5-.594c-.196-.154-.42-.242-.687-.313-.074-.02-.145-.047-.22-.062-.01-.002-.02.002-.03 0a3.373 3.373 0 0 0-.595-.063c-.63 0-1.197.117-1.688.313a6.81 6.81 0 0 0-1.28.625l-.938-1.906c.195-.126.437-.235.717-.375.28-.14.57-.28.907-.408.35-.126.732-.242 1.125-.312a6 6 0 0 1 1.25-.125z"/><path d="M69.73 16a13.73 13.73 0 1 1-27.46 0 13.73 13.73 0 1 1 27.46 0z" stroke="#000" stroke-width=".5"/><path d="M66.5 16c0 5.8-4.7 10.5-10.5 10.5S45.5 21.8 45.5 16 50.2 5.5 56 5.5 66.5 10.2 66.5 16z"/><path d="M56 1c-3.84 0-7.665 1.477-10.594 4.406-5.858 5.858-5.858 15.33 0 21.188 5.858 5.858 15.33 5.858 21.188 0A14.937 14.937 0 0 0 71 16h-2.813c0 3.12-1.182 6.245-3.562 8.625-4.76 4.76-12.49 4.76-17.25 0s-4.76-12.49 0-17.25A12.158 12.158 0 0 1 56 3.812V1z"/><g style="line-height:125%;-inkscape-font-specification:Ubuntu Medium" font-size="24" font-weight="500" letter-spacing="0" word-spacing="0" font-family="Ubuntu"><path d="M55.028 24.688a9.84 9.84 0 0 1-1.344-.096c-.448-.048-.88-.12-1.296-.216-.4-.08-.768-.168-1.104-.264a4.956 4.956 0 0 1-.768-.312l.576-2.472c.336.16.824.344 1.464.552.64.192 1.432.288 2.376.288 1.264 0 2.176-.24 2.736-.72.56-.496.84-1.152.84-1.968 0-.528-.112-.968-.336-1.32a2.25 2.25 0 0 0-.888-.84 3.557 3.557 0 0 0-1.296-.456 7.827 7.827 0 0 0-1.536-.144h-.984v-2.352h1.2a6.43 6.43 0 0 0 1.104-.096c.384-.08.728-.208 1.032-.384a2.36 2.36 0 0 0 .744-.744c.192-.304.288-.696.288-1.176 0-.384-.072-.712-.216-.984a1.955 1.955 0 0 0-.576-.672 2.15 2.15 0 0 0-.792-.384 3.76 3.76 0 0 0-.96-.12c-.72 0-1.36.112-1.92.336a8.045 8.045 0 0 0-1.488.72l-1.056-2.16c.224-.144.496-.296.816-.456.32-.16.672-.312 1.056-.456.4-.144.824-.256 1.272-.336.448-.096.92-.144 1.416-.144.928 0 1.728.112 2.4.336.672.224 1.224.544 1.656.96.448.4.776.88.984 1.44.224.544.336 1.144.336 1.8 0 .768-.216 1.456-.648 2.064a4.053 4.053 0 0 1-1.632 1.392 4.64 4.64 0 0 1 2.136 1.512c.576.704.864 1.608.864 2.712 0 .736-.128 1.424-.384 2.064a4.35 4.35 0 0 1-1.176 1.632c-.528.448-1.2.808-2.016 1.08-.8.256-1.76.384-2.88.384"/><path d="M55.028 24.688a9.84 9.84 0 0 1-1.344-.096c-.448-.048-.88-.12-1.296-.216-.4-.08-.768-.168-1.104-.264a4.956 4.956 0 0 1-.768-.312l.576-2.472c.336.16.824.344 1.464.552.64.192 1.432.288 2.376.288 1.264 0 2.176-.24 2.736-.72.56-.496.84-1.152.84-1.968 0-.528-.112-.968-.336-1.32a2.25 2.25 0 0 0-.888-.84 3.557 3.557 0 0 0-1.296-.456 7.827 7.827 0 0 0-1.536-.144h-.984v-2.352h1.2a6.43 6.43 0 0 0 1.104-.096c.384-.08.728-.208 1.032-.384a2.36 2.36 0 0 0 .744-.744c.192-.304.288-.696.288-1.176 0-.384-.072-.712-.216-.984a1.955 1.955 0 0 0-.576-.672 2.15 2.15 0 0 0-.792-.384 3.76 3.76 0 0 0-.96-.12c-.72 0-1.36.112-1.92.336a8.045 8.045 0 0 0-1.488.72l-1.056-2.16c.224-.144.496-.296.816-.456.32-.16.672-.312 1.056-.456.4-.144.824-.256 1.272-.336.448-.096.92-.144 1.416-.144.928 0 1.728.112 2.4.336.672.224 1.224.544 1.656.96.448.4.776.88.984 1.44.224.544.336 1.144.336 1.8 0 .768-.216 1.456-.648 2.064a4.053 4.053 0 0 1-1.632 1.392 4.64 4.64 0 0 1 2.136 1.512c.576.704.864 1.608.864 2.712 0 .736-.128 1.424-.384 2.064a4.35 4.35 0 0 1-1.176 1.632c-.528.448-1.2.808-2.016 1.08-.8.256-1.76.384-2.88.384"/></g><path d="M56.616 46.142h3.787v3.883h-3.787zM90.623 33.922h14.848v9.83H90.624z"/><g style="line-height:125%;-inkscape-font-specification:Ubuntu Medium" font-size="24" font-weight="500" letter-spacing="0" word-spacing="0" font-family="Ubuntu"><path d="M97.79 44.63a9.84 9.84 0 0 1-1.344-.095c-.448-.048-.88-.12-1.296-.216-.4-.08-.768-.17-1.104-.265a4.956 4.956 0 0 1-.768-.312l.576-2.472c.336.16.824.345 1.464.553.64.192 1.432.288 2.376.288 1.264 0 2.176-.24 2.736-.72.56-.495.84-1.15.84-1.967 0-.528-.112-.968-.336-1.32a2.25 2.25 0 0 0-.888-.84 3.557 3.557 0 0 0-1.296-.456 7.827 7.827 0 0 0-1.536-.144h-.984V34.31h1.2a6.43 6.43 0 0 0 1.104-.095c.384-.08.728-.208 1.032-.384a2.36 2.36 0 0 0 .744-.743c.192-.304.288-.696.288-1.176 0-.383-.072-.71-.216-.983a1.955 1.955 0 0 0-.576-.672 2.15 2.15 0 0 0-.792-.384 3.76 3.76 0 0 0-.96-.12c-.72 0-1.36.113-1.92.337a8.045 8.045 0 0 0-1.488.72l-1.056-2.16c.224-.144.496-.296.816-.456.32-.16.672-.31 1.056-.455.4-.144.824-.256 1.272-.336.448-.097.92-.145 1.416-.145.928 0 1.728.112 2.4.336.672.225 1.224.545 1.656.96.448.4.776.88.984 1.44.224.545.336 1.145.336 1.8 0 .77-.216 1.457-.648 2.065a4.053 4.053 0 0 1-1.632 1.392 4.64 4.64 0 0 1 2.136 1.512c.576.703.864 1.607.864 2.71 0 .737-.128 1.425-.384 2.065a4.35 4.35 0 0 1-1.176 1.632c-.528.448-1.2.808-2.016 1.08-.8.256-1.76.384-2.88.384"/><path d="M97.79 44.63a9.84 9.84 0 0 1-1.344-.095c-.448-.048-.88-.12-1.296-.216-.4-.08-.768-.17-1.104-.265a4.956 4.956 0 0 1-.768-.312l.576-2.472c.336.16.824.345 1.464.553.64.192 1.432.288 2.376.288 1.264 0 2.176-.24 2.736-.72.56-.495.84-1.15.84-1.967 0-.528-.112-.968-.336-1.32a2.25 2.25 0 0 0-.888-.84 3.557 3.557 0 0 0-1.296-.456 7.827 7.827 0 0 0-1.536-.144h-.984V34.31h1.2a6.43 6.43 0 0 0 1.104-.095c.384-.08.728-.208 1.032-.384a2.36 2.36 0 0 0 .744-.743c.192-.304.288-.696.288-1.176 0-.383-.072-.71-.216-.983a1.955 1.955 0 0 0-.576-.672 2.15 2.15 0 0 0-.792-.384 3.76 3.76 0 0 0-.96-.12c-.72 0-1.36.113-1.92.337a8.045 8.045 0 0 0-1.488.72l-1.056-2.16c.224-.144.496-.296.816-.456.32-.16.672-.31 1.056-.455.4-.144.824-.256 1.272-.336.448-.097.92-.145 1.416-.145.928 0 1.728.112 2.4.336.672.225 1.224.545 1.656.96.448.4.776.88.984 1.44.224.545.336 1.145.336 1.8 0 .77-.216 1.457-.648 2.065a4.053 4.053 0 0 1-1.632 1.392 4.64 4.64 0 0 1 2.136 1.512c.576.703.864 1.607.864 2.71 0 .737-.128 1.425-.384 2.065a4.35 4.35 0 0 1-1.176 1.632c-.528.448-1.2.808-2.016 1.08-.8.256-1.76.384-2.88.384"/></g><path d="M60.475 65.22c0 8.013-6.496 14.51-14.51 14.51-8.012 0-11.728-6.327-11.728-14.34s3.716-14.678 11.73-14.678c8.012 0 14.508 6.496 14.508 14.508z"/><path d="M42.688 52.334h1.2a6.43 6.43 0 0 0 1.104-.096c.384-.08.728-.208 1.032-.384a2.36 2.36 0 0 0 .744-.744c.192-.304.288-.696.288-1.176 0-.384-.072-.712-.216-.984a1.955 1.955 0 0 0-.576-.672 2.15 2.15 0 0 0-.792-.384 3.76 3.76 0 0 0-.96-.12c-.72 0-1.36.112-1.92.336a8.045 8.045 0 0 0-1.488.72l-1.056-2.16c.224-.144.496-.296.816-.456.32-.16.672-.312 1.056-.456.4-.144.824-.256 1.272-.336.448-.096.92-.144 1.416-.144.928 0 1.728.112 2.4.336.672.224 1.224.544 1.656.96.448.4.776.88.984 1.44.224.544.336 1.144.336 1.8 0 .768-.216 1.456-.648 2.064a4.053 4.053 0 0 1-1.632 1.392" style="line-height:125%;-inkscape-font-specification:Ubuntu Medium" font-size="24" font-weight="500" letter-spacing="0" word-spacing="0" font-family="Ubuntu"/><path d="M-33.5 16a10.5 10.5 0 1 1-21 0 10.5 10.5 0 1 1 21 0z"/><text y="24.328" x="-50.636" style="line-height:125%;-inkscape-font-specification:Ubuntu Medium" font-size="24" font-weight="500" letter-spacing="0" word-spacing="0" font-family="Ubuntu"><tspan y="24.328" x="-50.636">3</tspan></text><path d="M16-54.5c-5.8 0-10.5 4.7-10.5 10.5S10.2-33.5 16-33.5v-21z"/><text y="-36.702" x="10.184" style="line-height:125%;-inkscape-font-specification:Ubuntu Medium" font-size="21.033" font-weight="500" letter-spacing="0" word-spacing="0" font-family="Ubuntu"><tspan y="-36.702" x="10.184">3</tspan></text><path d="M25.5-54.5C31.3-54.5 36-49.8 36-44s-4.7 10.5-10.5 10.5v-21z"/><path style="text-indent:0;text-align:start;line-height:normal;text-transform:none;block-progression:tb;-inkscape-font-specification:Sans" d="M15.986 2.042c-7.718 0-13.97 6.252-13.97 13.97 0 7.716 6.252 13.968 13.97 13.968 7.717 0 14-6.252 14-13.97 0-7.716-6.283-13.968-14-13.968zm0 .5c7.447 0 13.5 6.022 13.5 13.47 0 7.446-6.053 13.468-13.5 13.468s-13.47-6.022-13.47-13.47c0-7.446 6.023-13.468 13.47-13.468z" font-weight="400" color="#000" overflow="visible" font-family="Sans"/><path d="M16 1C12.16 1 8.335 2.477 5.406 5.406c-5.858 5.858-5.858 15.33 0 21.188 5.858 5.858 15.33 5.858 21.188 0l.03-.032-1.968-1.968-.03.03c-4.76 4.76-12.49 4.76-17.25 0s-4.76-12.49 0-17.25A12.158 12.158 0 0 1 16 3.815V.998zM-15.218 71.94c-5.784.018-10.468 4.712-10.468 10.5 0 5.79 4.684 10.483 10.468 10.5h.032c5.784-.017 10.468-4.71 10.468-10.5 0-5.788-4.684-10.482-10.468-10.5h-.032zm-.5 2.876c.18 0 .334.02.5.03.01.002.02 0 .032 0 .58.036 1.112.132 1.562.282.59.197 1.09.48 1.47.844.39.35.66.76.843 1.25.195.477.31 1.02.31 1.594 0 .673-.214 1.248-.593 1.78A3.482 3.482 0 0 1-13 81.817a4.113 4.113 0 0 1 1.876 1.343c.505.616.75 1.407.75 2.374 0 .645-.12 1.252-.344 1.813a3.84 3.84 0 0 1-1.03 1.437c-.464.393-1.036.7-1.75.938-.482.154-1.074.234-1.688.28-.01.002-.02 0-.032 0-.268.024-.515.064-.812.064-.38 0-.78-.038-1.188-.094a9.412 9.412 0 0 1-1.125-.188c-.35-.07-.674-.165-.968-.25-.296-.098-.535-.165-.69-.25l.5-2.187c.296.14.72.318 1.282.5.56.168 1.267.25 2.094.25.332 0 .63-.025.906-.063.01 0 .02.002.032 0 .632-.09 1.13-.272 1.468-.562.49-.435.72-1.004.72-1.72 0-.462-.086-.847-.282-1.155a2.013 2.013 0 0 0-.78-.75 3.067 3.067 0 0 0-1.126-.406c-.01 0-.022.003-.032 0a6.836 6.836 0 0 0-1.312-.124h-.875v-2.063h1.062c.323 0 .647-.006.97-.062.056-.01.102-.044.155-.062.01-.002.022.003.032 0 .26-.068.505-.158.718-.28a2 2 0 0 0 .625-.657c.17-.266.25-.61.25-1.03 0-.337-.06-.637-.187-.876a1.717 1.717 0 0 0-.5-.593c-.197-.154-.42-.242-.688-.312-.072-.02-.144-.047-.218-.062-.01-.002-.022 0-.032 0a3.373 3.373 0 0 0-.593-.063c-.632 0-1.198.116-1.69.313a6.81 6.81 0 0 0-1.28.625l-.938-1.906c.197-.126.44-.234.72-.375.28-.14.57-.28.905-.407.35-.126.733-.242 1.125-.312a6 6 0 0 1 1.25-.124z"/><path d="M-1.464 82.447a13.73 13.73 0 1 1-27.458 0 13.73 13.73 0 1 1 27.458 0z" stroke="#000" stroke-width=".5"/><path d="M-15.193 67.447c-3.84 0-7.664 1.477-10.594 4.406-5.858 5.858-5.858 15.33 0 21.188 5.86 5.86 15.33 5.86 21.188 0A14.937 14.937 0 0 0-.192 82.448h-2.812c0 3.12-1.183 6.245-3.563 8.625-4.76 4.76-12.49 4.76-17.25 0s-4.76-12.49 0-17.25a12.158 12.158 0 0 1 8.625-3.563v-2.813z"/><path d="M-15.186 66.44h16v31.865l-16-15.864z"/></svg><svg id="countdown.svg.2016_06_16_20_12_00.0" viewBox="0 0 32 32" width="32" height="32"><path d="M69.73 16a13.73 13.73 0 1 1-27.46 0 13.73 13.73 0 1 1 27.46 0z" stroke="#000" stroke-width=".5"/><path d="M66.5 16c0 5.8-4.7 10.5-10.5 10.5S45.5 21.8 45.5 16 50.2 5.5 56 5.5 66.5 10.2 66.5 16z"/><path d="M56 1c-3.84 0-7.665 1.477-10.594 4.406-5.858 5.858-5.858 15.33 0 21.188 5.858 5.858 15.33 5.858 21.188 0A14.937 14.937 0 0 0 71 16h-2.813c0 3.12-1.182 6.245-3.562 8.625-4.76 4.76-12.49 4.76-17.25 0s-4.76-12.49 0-17.25A12.158 12.158 0 0 1 56 3.812V1z"/><g style="line-height:125%;-inkscape-font-specification:Ubuntu Medium" font-size="24" font-weight="500" letter-spacing="0" word-spacing="0" font-family="Ubuntu"><path d="M55.028 24.688a9.84 9.84 0 0 1-1.344-.096c-.448-.048-.88-.12-1.296-.216-.4-.08-.768-.168-1.104-.264a4.956 4.956 0 0 1-.768-.312l.576-2.472c.336.16.824.344 1.464.552.64.192 1.432.288 2.376.288 1.264 0 2.176-.24 2.736-.72.56-.496.84-1.152.84-1.968 0-.528-.112-.968-.336-1.32a2.25 2.25 0 0 0-.888-.84 3.557 3.557 0 0 0-1.296-.456 7.827 7.827 0 0 0-1.536-.144h-.984v-2.352h1.2a6.43 6.43 0 0 0 1.104-.096c.384-.08.728-.208 1.032-.384a2.36 2.36 0 0 0 .744-.744c.192-.304.288-.696.288-1.176 0-.384-.072-.712-.216-.984a1.955 1.955 0 0 0-.576-.672 2.15 2.15 0 0 0-.792-.384 3.76 3.76 0 0 0-.96-.12c-.72 0-1.36.112-1.92.336a8.045 8.045 0 0 0-1.488.72l-1.056-2.16c.224-.144.496-.296.816-.456.32-.16.672-.312 1.056-.456.4-.144.824-.256 1.272-.336.448-.096.92-.144 1.416-.144.928 0 1.728.112 2.4.336.672.224 1.224.544 1.656.96.448.4.776.88.984 1.44.224.544.336 1.144.336 1.8 0 .768-.216 1.456-.648 2.064a4.053 4.053 0 0 1-1.632 1.392 4.64 4.64 0 0 1 2.136 1.512c.576.704.864 1.608.864 2.712 0 .736-.128 1.424-.384 2.064a4.35 4.35 0 0 1-1.176 1.632c-.528.448-1.2.808-2.016 1.08-.8.256-1.76.384-2.88.384"/><path d="M55.028 24.688a9.84 9.84 0 0 1-1.344-.096c-.448-.048-.88-.12-1.296-.216-.4-.08-.768-.168-1.104-.264a4.956 4.956 0 0 1-.768-.312l.576-2.472c.336.16.824.344 1.464.552.64.192 1.432.288 2.376.288 1.264 0 2.176-.24 2.736-.72.56-.496.84-1.152.84-1.968 0-.528-.112-.968-.336-1.32a2.25 2.25 0 0 0-.888-.84 3.557 3.557 0 0 0-1.296-.456 7.827 7.827 0 0 0-1.536-.144h-.984v-2.352h1.2a6.43 6.43 0 0 0 1.104-.096c.384-.08.728-.208 1.032-.384a2.36 2.36 0 0 0 .744-.744c.192-.304.288-.696.288-1.176 0-.384-.072-.712-.216-.984a1.955 1.955 0 0 0-.576-.672 2.15 2.15 0 0 0-.792-.384 3.76 3.76 0 0 0-.96-.12c-.72 0-1.36.112-1.92.336a8.045 8.045 0 0 0-1.488.72l-1.056-2.16c.224-.144.496-.296.816-.456.32-.16.672-.312 1.056-.456.4-.144.824-.256 1.272-.336.448-.096.92-.144 1.416-.144.928 0 1.728.112 2.4.336.672.224 1.224.544 1.656.96.448.4.776.88.984 1.44.224.544.336 1.144.336 1.8 0 .768-.216 1.456-.648 2.064a4.053 4.053 0 0 1-1.632 1.392 4.64 4.64 0 0 1 2.136 1.512c.576.704.864 1.608.864 2.712 0 .736-.128 1.424-.384 2.064a4.35 4.35 0 0 1-1.176 1.632c-.528.448-1.2.808-2.016 1.08-.8.256-1.76.384-2.88.384"/></g><path d="M56.616 46.142h3.787v3.883h-3.787zM90.623 33.922h14.848v9.83H90.624z"/><g style="line-height:125%;-inkscape-font-specification:Ubuntu Medium" font-size="24" font-weight="500" letter-spacing="0" word-spacing="0" font-family="Ubuntu"><path d="M97.79 44.63a9.84 9.84 0 0 1-1.344-.095c-.448-.048-.88-.12-1.296-.216-.4-.08-.768-.17-1.104-.265a4.956 4.956 0 0 1-.768-.312l.576-2.472c.336.16.824.345 1.464.553.64.192 1.432.288 2.376.288 1.264 0 2.176-.24 2.736-.72.56-.495.84-1.15.84-1.967 0-.528-.112-.968-.336-1.32a2.25 2.25 0 0 0-.888-.84 3.557 3.557 0 0 0-1.296-.456 7.827 7.827 0 0 0-1.536-.144h-.984V34.31h1.2a6.43 6.43 0 0 0 1.104-.095c.384-.08.728-.208 1.032-.384a2.36 2.36 0 0 0 .744-.743c.192-.304.288-.696.288-1.176 0-.383-.072-.71-.216-.983a1.955 1.955 0 0 0-.576-.672 2.15 2.15 0 0 0-.792-.384 3.76 3.76 0 0 0-.96-.12c-.72 0-1.36.113-1.92.337a8.045 8.045 0 0 0-1.488.72l-1.056-2.16c.224-.144.496-.296.816-.456.32-.16.672-.31 1.056-.455.4-.144.824-.256 1.272-.336.448-.097.92-.145 1.416-.145.928 0 1.728.112 2.4.336.672.225 1.224.545 1.656.96.448.4.776.88.984 1.44.224.545.336 1.145.336 1.8 0 .77-.216 1.457-.648 2.065a4.053 4.053 0 0 1-1.632 1.392 4.64 4.64 0 0 1 2.136 1.512c.576.703.864 1.607.864 2.71 0 .737-.128 1.425-.384 2.065a4.35 4.35 0 0 1-1.176 1.632c-.528.448-1.2.808-2.016 1.08-.8.256-1.76.384-2.88.384"/><path d="M97.79 44.63a9.84 9.84 0 0 1-1.344-.095c-.448-.048-.88-.12-1.296-.216-.4-.08-.768-.17-1.104-.265a4.956 4.956 0 0 1-.768-.312l.576-2.472c.336.16.824.345 1.464.553.64.192 1.432.288 2.376.288 1.264 0 2.176-.24 2.736-.72.56-.495.84-1.15.84-1.967 0-.528-.112-.968-.336-1.32a2.25 2.25 0 0 0-.888-.84 3.557 3.557 0 0 0-1.296-.456 7.827 7.827 0 0 0-1.536-.144h-.984V34.31h1.2a6.43 6.43 0 0 0 1.104-.095c.384-.08.728-.208 1.032-.384a2.36 2.36 0 0 0 .744-.743c.192-.304.288-.696.288-1.176 0-.383-.072-.71-.216-.983a1.955 1.955 0 0 0-.576-.672 2.15 2.15 0 0 0-.792-.384 3.76 3.76 0 0 0-.96-.12c-.72 0-1.36.113-1.92.337a8.045 8.045 0 0 0-1.488.72l-1.056-2.16c.224-.144.496-.296.816-.456.32-.16.672-.31 1.056-.455.4-.144.824-.256 1.272-.336.448-.097.92-.145 1.416-.145.928 0 1.728.112 2.4.336.672.225 1.224.545 1.656.96.448.4.776.88.984 1.44.224.545.336 1.145.336 1.8 0 .77-.216 1.457-.648 2.065a4.053 4.053 0 0 1-1.632 1.392 4.64 4.64 0 0 1 2.136 1.512c.576.703.864 1.607.864 2.71 0 .737-.128 1.425-.384 2.065a4.35 4.35 0 0 1-1.176 1.632c-.528.448-1.2.808-2.016 1.08-.8.256-1.76.384-2.88.384"/></g><path d="M60.475 65.22c0 8.013-6.496 14.51-14.51 14.51-8.012 0-11.728-6.327-11.728-14.34s3.716-14.678 11.73-14.678c8.012 0 14.508 6.496 14.508 14.508z"/><path d="M42.688 52.334h1.2a6.43 6.43 0 0 0 1.104-.096c.384-.08.728-.208 1.032-.384a2.36 2.36 0 0 0 .744-.744c.192-.304.288-.696.288-1.176 0-.384-.072-.712-.216-.984a1.955 1.955 0 0 0-.576-.672 2.15 2.15 0 0 0-.792-.384 3.76 3.76 0 0 0-.96-.12c-.72 0-1.36.112-1.92.336a8.045 8.045 0 0 0-1.488.72l-1.056-2.16c.224-.144.496-.296.816-.456.32-.16.672-.312 1.056-.456.4-.144.824-.256 1.272-.336.448-.096.92-.144 1.416-.144.928 0 1.728.112 2.4.336.672.224 1.224.544 1.656.96.448.4.776.88.984 1.44.224.544.336 1.144.336 1.8 0 .768-.216 1.456-.648 2.064a4.053 4.053 0 0 1-1.632 1.392" style="line-height:125%;-inkscape-font-specification:Ubuntu Medium" font-size="24" font-weight="500" letter-spacing="0" word-spacing="0" font-family="Ubuntu"/><path style="text-indent:0;text-align:start;line-height:normal;text-transform:none;block-progression:tb;-inkscape-font-specification:Sans" d="M16.496 2.046c-7.717 0-13.968 6.25-13.968 13.97 0 7.716 6.25 13.967 13.968 13.967s14-6.25 14-13.968-6.282-13.97-14-13.97zm0 .5c7.447 0 13.5 6.022 13.5 13.47 0 7.446-6.053 13.467-13.5 13.467S3.028 23.463 3.028 16.015c0-7.447 6.02-13.47 13.468-13.47z" font-weight="400" color="#000" overflow="visible" font-family="Sans"/><path d="M-33.5 16a10.5 10.5 0 1 1-21 0 10.5 10.5 0 1 1 21 0z"/><text y="24.328" x="-50.636" style="line-height:125%;-inkscape-font-specification:Ubuntu Medium" font-size="24" font-weight="500" letter-spacing="0" word-spacing="0" font-family="Ubuntu"><tspan y="24.328" x="-50.636">3</tspan></text><path d="M16-54.5c-5.8 0-10.5 4.7-10.5 10.5S10.2-33.5 16-33.5v-21z"/><text y="-36.702" x="10.184" style="line-height:125%;-inkscape-font-specification:Ubuntu Medium" font-size="21.033" font-weight="500" letter-spacing="0" word-spacing="0" font-family="Ubuntu"><tspan y="-36.702" x="10.184">3</tspan></text><path d="M25.5-54.5C31.3-54.5 36-49.8 36-44s-4.7 10.5-10.5 10.5v-21z"/></svg><svg id="delete" viewBox="0 0 32 32" width="32" height="32"><path d="M22.688 8.5L18 13.188 13.312 8.5 10.5 11.313 15.188 16 10.5 20.688l2.813 2.812L18 18.812l4.688 4.688 2.812-2.813L20.812 16l4.688-4.688z"/><path style="text-indent:0;text-align:start;line-height:normal;text-transform:none;block-progression:tb;-inkscape-font-specification:Sans" d="M9.375 2.188c-.82 0-1.625.558-1.97 1-.342.44-.474.746-.56.906l-6 10.937a1.75 1.75 0 0 0 0 1.626l6 11.625c.096.19.21.524.56.97.354.446 1.158.97 1.97.97h19.25c1.493 0 2.75-1.258 2.75-2.75V4.937c0-1.494-1.257-2.75-2.75-2.75H9.375zm.594 3.5h17.905v21.03H9.97c-.022-.04-.01-.016-.033-.062l-5.562-10.75L9.938 5.78c.033-.06.002-.04.03-.093z" font-weight="400" color="#000" overflow="visible" font-family="Sans"/></svg><svg id="drums" viewBox="0 0 32 32"><path d="M26.773 21.362c.527-.982.704-1.94.5-2.893-.2.525-.497 1.08-.81 1.587l-.13-.702c.316-.59.582-1.163.732-1.756l-.96-4.183a11.22 11.22 0 0 1-.592.947l-.1-.6c.4-.588.666-1.162.784-1.773.08-.462.076-.928-.06-1.38l2.758-.585.737-.195c.15-.045.27-.108.304-.174.103-.113.14-.26.113-.445-.06-.283-.286-.49-.538-.413-.032-.018-.417.07-.467.086 0 0-1.305.31-3.312.752a5.162 5.162 0 0 0-.705-.885c-.182-.603-.565-1.146-1.084-1.593l6.73-2.33.69-.264c.117-.063.253-.16.288-.224.07-.132.108-.28.03-.45-.076-.25-.353-.44-.605-.365-.033-.018-.402.12-.452.136l-7.643 2.854c-1.095-.63-2.512-1.053-4.167-1.267l-.01-.216c-.028-.182-.142-.285-.275-.273-.133.013-.188.194-.176.328l-.002.083c-2.12-.21-4.585-.017-7.112.608-.586.15-1.172.3-1.725.465l-.03-.1c-.03-.183-.142-.286-.275-.273-.133.013-.19.194-.176.327l.046.15C5.842 7.432 3.218 9.1 1.704 10.902l.05-.015c-.028-.183-.14-.286-.275-.273-.134.012-.19.194-.176.327l.07.416C.477 12.56.125 13.846.39 15l.014.05a3.64 3.64 0 0 0-.02 1.844c.06.2.12.402.232.588.966 1.656 3.26 2.72 6.225 3.088l.054.45c-2.22-.264-4.046-.865-5.33-1.85l1.085 3.87c.967 1.574 2.78 2.673 5.122 3.256 0 0-.018.033.015.05l.086.468c-2.063-.475-3.765-1.388-4.876-2.617l.09.302c.482 1.774 2.357 2.99 5 3.566l.045.15c.028.185.14.288.274.275.134-.012.19-.193.176-.326 2.347.416 5.192.3 8.187-.412a22.69 22.69 0 0 0 1.81-.546c.045.15.158.254.258.224.134-.013.19-.194.176-.327l-.015-.05c3.473-1.213 6.154-3.146 7.46-5.185.03.1.128.153.23.123.132-.012.187-.193.174-.326l-.09-.302zm-1.723-7.078l.084.55c-.36.44-.806.874-1.3 1.325-1.67 1.463-3.916 2.66-6.417 3.552l-.07-.417-.017-.05c3.457-1.18 6.2-2.995 7.72-4.96zm-23.866.805C.458 12.043 5.197 8.475 11.64 6.917c4.014-.964 7.734-.907 10.168-.022A4153.03 4153.03 0 0 1 7.9 12.076c-.268.11-.806.326-1.95.808a.29.29 0 0 0-.297-.075c-.15.045-.576.365-.5.616.06.2.61.2.727.138a.355.355 0 0 0 .24-.293c.368-.054 1.037-.2 2.18-.6l14.736-5.157c.816.522 1.345 1.185 1.555 1.972l.04.4c-6.875 1.58-19.17 4.38-19.22 4.396-.283.06-.836.226-2.04.507-.08-.085-.18-.138-.28-.108-.15.045-.624.297-.58.53.043.235.573.267.707.254.133-.013.236-.126.273-.275.383-.006 1.05-.07 2.236-.318l18.807-3.943c-.726 2.686-4.88 5.557-10.3 6.863-6.493 1.573-12.29.36-13.05-2.704zm6.206 6.027l-.07-.417c1.69.15 3.62.088 5.605-.237.652-.114 1.27-.246 1.94-.392.718-.16 1.39-.39 2.043-.588l.07.417c-.67.23-1.324.426-2.043.588a16.14 16.14 0 0 1-1.94.393c-2.018.308-3.915.386-5.605.237zm9.13 5.448c-.636.165-1.254.296-1.905.41-2.27.384-4.414.37-6.28.002l-.102-.518c1.866.368 3.992.413 6.263.03.6-.1 1.22-.23 1.855-.395a21.764 21.764 0 0 0 1.78-.563l.068.5c-.52.185-1.092.384-1.677.533zm8.493-4.672c-1.61 1.664-3.81 3.013-6.295 3.955l-.086-.468c3.293-1.267 5.91-3.235 7.367-5.403l.113.65c-.344.407-.705.845-1.1 1.266z"/></svg><svg id="fretboard" width="32" height="32"><path style="text-indent:0;text-align:start;line-height:normal;text-transform:none;block-progression:tb;-inkscape-font-specification:Sans" d="M8.156 3.17v25.155h1.5V3.17h-1.5zM22.47 3.17v25.155h1.5V3.17h-1.5zM29.906 3.17v25.155h1.5V3.17h-1.5z" font-weight="400" color="#000" overflow="visible" font-family="Sans"/><path style="text-indent:0;text-align:start;line-height:normal;text-transform:none;block-progression:tb;-inkscape-font-specification:Sans" d="M36.03 1.107l-36 1.25.095 2 35.97-1.25-.064-2z" font-weight="400" color="#000" overflow="visible" font-family="Sans"/><path d="M-18.313 3.184v25.128" stroke="#000" stroke-width="3"/><path d="M57.427-33.128h36" stroke="#000" stroke-width="2"/><path style="text-indent:0;text-align:start;line-height:normal;text-transform:none;block-progression:tb;-inkscape-font-specification:Sans" d="M.125 27.294l-.094 2 36 1.25.064-2-35.97-1.25z" font-weight="400" color="#000" overflow="visible" font-family="Sans"/><path d="M6.76 16a1.5 1.5 0 1 1-3 0 1.5 1.5 0 0 1 3 0z"/><path style="text-indent:0;text-align:start;line-height:normal;text-transform:none;block-progression:tb;-inkscape-font-specification:Sans" d="M.813 3.17v25.155h1.5V3.17h-1.5zM15.25 3.17v25.155h1.5V3.17h-1.5z" font-weight="400" color="#000" overflow="visible" font-family="Sans"/><path d="M21.02 16a1.5 1.5 0 1 1-3 0 1.5 1.5 0 0 1 3 0z"/><path d="M69.22-6.31v25.127M83.548-6.31v25.127M90.968-6.31v25.127" stroke="#000" stroke-width="1.5"/><path d="M60.397-6.133L96.374-7.39M60.397 18.796l35.977 1.256" stroke="#000" stroke-width="2"/><path d="M67.077 6.506a1.5 1.5 0 1 1-3 0 1.5 1.5 0 1 1 3 0z"/><path d="M61.893-6.31v25.127M76.306-6.31v25.127" stroke="#000" stroke-width="1.5"/><path d="M81.338 6.506a1.5 1.5 0 1 1-3 0 1.5 1.5 0 1 1 3 0z"/></svg><svg id="load" viewBox="0 0 32 32" width="32" height="32"><path d="M31 13.987c0 .202 0 .402-.067.603-.268.536-1.005.804-1.54.47-.268-.134-.402-.47-.47-.737-.066-.336-.066-.603-.133-.937-.268-1.34-.803-2.678-1.472-3.883-.803-1.406-1.874-2.745-3.146-3.748-1.204-1.005-2.676-1.74-4.148-2.21a15.398 15.398 0 0 0-4.283-.602h-.267c-.2 0-.4.067-.603.067-.4 0-.936.068-1.338.134-.87.134-1.673.402-2.476.737C9.65 4.417 8.38 5.22 7.24 6.225c-1.137 1.005-2.074 2.21-2.81 3.48a14.42 14.42 0 0 0-1.606 4.686c-.133.737-.133 1.54-.133 2.276 0 .4 0 .737.068 1.07.068.402.134.87.2 1.273.336 1.605.938 3.146 1.875 4.484.87 1.34 1.94 2.544 3.212 3.48a14.06 14.06 0 0 0 4.35 2.21c1.674.47 3.346.603 5.086.47a14.004 14.004 0 0 0 4.886-1.34c.737-.335 1.472-.803 2.142-1.272.67-.47 1.27-1.004 1.807-1.606.267-.268.535-.603.803-.937.267-.335.47-.67.67-1.006.2-.335.802-1.338 1.137-2.075.268-.537.535-1.072.737-1.675.134-.268.2-.603.267-.87.066-.27.067-.47.133-.738.068.603.068 1.205-.067 1.74-.068.336-.134.737-.268 1.072-.067.334-.2.668-.335 1.003a15.9 15.9 0 0 1-.87 1.874c-.402.737-.804 1.406-1.34 2.008-.534.602-1.07 1.205-1.672 1.74-1.204 1.005-2.676 1.808-4.148 2.41a15.14 15.14 0 0 1-4.886 1.005c-1.673.067-3.413-.202-5.02-.737-1.538-.47-3.01-1.272-4.35-2.21a15.863 15.863 0 0 1-3.345-3.346c-.468-.67-.87-1.34-1.203-2.076a21.844 21.844 0 0 1-.87-2.208c-.402-1.205-.603-2.477-.67-3.748-.067-1.34.068-2.61.335-3.882.335-1.607 1.005-3.147 1.874-4.552.803-1.272 1.74-2.343 2.81-3.347 1.07-1.003 2.343-1.808 3.68-2.41 1.54-.736 3.213-1.272 4.953-1.406C15.337 1 15.94 1 16.61 1c.87 0 1.74.134 2.543.268 1.606.335 3.146.937 4.55 1.74 1.405.803 2.745 1.942 3.815 3.213 1.004 1.206 1.807 2.478 2.41 3.883.267.67.468 1.406.668 2.142.134.535.335 1.138.402 1.74z"/></svg><svg id="loop" viewBox="0 0 32 32" width="32" height="32"><path style="text-indent:0;text-align:start;line-height:normal;text-transform:none;block-progression:tb;-inkscape-font-specification:Sans" d="M22.5 2.72c-.346.054-.348.383-.344.75v3.28H8.406c-4.115 0-7.5 3.385-7.5 7.5v4.53c0 .9.094 2.907.094 2.907l4.656-4.437v-3c0-1.646 1.104-2.875 2.75-2.875h13.75V14.5c-.007.594.52.964.938.563l6-5.594c.287-.287.287-.684 0-.97l-6-5.594a.697.697 0 0 0-.594-.187zm8.656 8.53L26.5 15.688v3c0 1.646-1.104 2.875-2.75 2.875H10v-3.125c.007-.595-.52-.964-.938-.563l-6 5.594c-.287.284-.287.682 0 .968l6 5.593c.16.155.38.223.594.19.346-.056.348-.385.344-.75v-3.282h13.75c4.115 0 7.5-3.385 7.5-7.5v-4.532c0-.9-.094-2.906-.094-2.906z" font-weight="400" color="#000" overflow="visible" font-family="Sans"/></svg><svg id="menu-dots" width="32" height="32"><g transform="matrix(0 -1.55556 1.55625 0 -2.675 -1602.34)"><rect width="4" height="4" x="-1042.362" y="10" ry="0"/><rect ry="0" y="10" x="-1035.362" height="4" width="4"/><rect ry="0" y="10" x="-1049.362" height="4" width="4"/></g></svg><svg id="menu" width="32" height="32"><g transform="matrix(0 -1.33333 1.25 0 1 -1371.15)"><rect width="4" height="24" x="-1042.362" ry="0"/><rect ry="0" x="-1035.362" height="24" width="4"/><rect ry="0" x="-1049.362" height="24" width="4"/></g></svg><svg id="minus" viewBox="0 0 32 32" width="32" height="32"><path d="M6 14.56v2.88h20v-2.88H6z"/></svg><svg id="options" viewBox="0 0 32 32" width="32" height="32"><path d="M1 26.71q0-.97.695-1.663l12.45-12.435q.712 1.79 2.093 3.168 1.38 1.378 3.17 2.09L6.943 30.325Q6.265 31 5.297 31q-.95 0-1.664-.676l-1.938-1.972Q1 27.694 1 26.71zm4.296-1.17q0 .474.347.822t.823.347q.476-.002.823-.348.346-.346.346-.822 0-.477-.347-.822-.348-.346-.824-.347-.476 0-.823.348-.347.347-.347.822zm9.36-16.36q0-3.378 2.403-5.78Q19.462 1 22.844 1q1.06 0 2.222.302 1.16.3 1.965.848.293.2.293.512 0 .31-.293.51L21.676 6.26v4.09l3.528 1.953 1.444-.886q1.354-.83 2.478-1.478 1.124-.65 1.288-.65.275 0 .43.183.156.183.156.456 0 .71-.42 1.935-.86 2.447-3.008 3.97-2.15 1.526-4.726 1.526-3.382 0-5.786-2.4-2.404-2.4-2.404-5.78z"/></svg><svg id="pen" viewBox="0 0 32 32" width="32" height="32"><path d="M26.3 11.723L10.177 27.91 4.09 21.823l16.188-16.12zm4.137-6.95c.803.804.737 2.142-.134 3.012l-2.82 2.82-6.088-6.09 2.82-2.818c.87-.87 2.208-.937 3.01-.134zM3.14 23.174l5.688 5.686L1 31z"/></svg><svg id="play" viewBox="0 0 32 32" width="32" height="32"><path d="M16 1C7.715 1 1 7.715 1 16s6.715 15 15 15 15-6.715 15-15S24.285 1 16 1zm0 2.813c6.73 0 12.188 5.456 12.188 12.187 0 6.73-5.457 12.188-12.188 12.188C9.27 28.188 3.812 22.73 3.812 16 3.813 9.27 9.27 3.812 16 3.812zM13.062 5.78c-.59.09-1.07.655-1.062 1.25v17.94c-.012.967 1.38 1.59 2.094.936l9.75-9c.49-.465.49-1.347 0-1.812l-9.75-9a1.27 1.27 0 0 0-1.03-.313z"/></svg><svg id="plus" viewBox="0 0 32 32" width="32" height="32"><path d="M14.56 6v8.56H6v2.88h8.56V26h2.88v-8.56H26v-2.88h-8.56V6z"/></svg><svg id="preferences" viewBox="0 0 32 32" width="32" height="32"><g><path d="M1 24.57h18.214v2.144H1zM25.643 24.57H31v2.144h-5.357zM24.57 28.824c0 1.202-.958 2.176-2.14 2.176-1.185 0-2.144-.974-2.144-2.176v-6.362c0-1.202.96-2.176 2.143-2.176 1.182 0 2.14.974 2.14 2.176v6.362z"/><g><path d="M1 14.93h5.357v2.14H1zM12.786 14.93H31v2.14H12.786zM11.714 19.18c0 1.203-.96 2.177-2.143 2.177-1.182 0-2.14-.974-2.14-2.176v-6.36c0-1.203.958-2.177 2.14-2.177 1.185 0 2.144.974 2.144 2.176v6.36z"/></g><g><path d="M1 5.286h18.214V7.43H1zM25.643 5.286H31V7.43h-5.357zM24.57 9.538c0 1.202-.958 2.176-2.14 2.176-1.185 0-2.144-.974-2.144-2.176V3.176c0-1.202.96-2.176 2.143-2.176 1.182 0 2.14.974 2.14 2.176v6.362z"/></g></g></svg><svg id="settings" viewBox="0 0 32 32" width="32" height="32"><path d="M27.392 17.515l3.39 2.45c.216.218.287.722.143 1.01l-3.1 5.12c-.145.29-.506.506-.866.362l-3.894-1.515c-.865.577-1.66 1.154-2.596 1.515l-.576 3.966c-.073.29-.433.577-.794.577h-6.13c-.36 0-.72-.217-.792-.577l-.577-3.966c-.937-.36-1.802-.938-2.594-1.515l-3.894 1.515c-.288.144-.72-.073-.865-.36l-3.1-5.12c-.217-.362-.145-.795.144-1.01l3.246-2.452c0-.506-.073-1.01-.073-1.515 0-.505.073-1.01.073-1.515l-3.317-2.45c-.218-.218-.29-.722-.145-1.01l3.1-5.12c.145-.29.506-.506.866-.362l3.894 1.515c.865-.577 1.66-1.154 2.596-1.515l.576-3.966c.073-.29.433-.577.794-.577h6.13c.36 0 .72.288.792.577l.505 3.966c.938.36 1.803.938 2.596 1.515l3.82-1.515c.29-.144.795.073.94.36l3.1 5.12c.217.362.144.795-.144 1.01l-3.246 2.452c0 .506.073 1.01.073 1.515 0 .505 0 1.082-.073 1.515zm-11.463 3.75c2.956 0 5.407-2.308 5.407-5.265s-2.45-5.264-5.408-5.264c-2.957 0-5.336 2.307-5.336 5.264 0 2.957 2.38 5.264 5.335 5.264z"/></svg><svg id="square-minus" viewBox="0 0 32 32" width="32" height="32"><path d="M1 25.375V6.625Q1 4.3 2.65 2.65 4.3 1 6.625 1h18.75Q27.7 1 29.35 2.65 31 4.3 31 6.625v18.75q0 2.324-1.65 3.975Q27.7 31 25.375 31H6.625Q4.3 31 2.65 29.35 1 27.7 1 25.375zm5-8.124q0 .508.37.88t.88.37h17.5q.507 0 .88-.37.37-.37.37-.88v-2.5q0-.507-.37-.88-.372-.37-.88-.37H7.25q-.508 0-.88.37-.372.372-.37.88v2.5z"/></svg><svg id="square-plus" viewBox="0 0 32 32" width="32" height="32"><path d="M6.638 1c-1.55 0-2.898.54-3.998 1.64C1.54 3.74 1 5.09 1 6.638v18.724c0 1.55.54 2.898 1.64 3.998C3.74 30.46 5.09 31 6.638 31h18.724c1.55 0 2.864-.54 3.964-1.64 1.1-1.1 1.674-2.45 1.674-3.998V6.638c0-1.55-.574-2.898-1.674-3.998S26.91 1 25.362 1H6.638zm8.098 4.99h2.494c.34-.002.64.127.888.374.248.248.376.55.376.89v6.252h6.253c.34 0 .64.128.89.376.246.247.34.516.34.854v2.528c0 .34-.094.607-.34.854a1.23 1.23 0 0 1-.89.376h-6.253v6.253c0 .34-.128.64-.376.89a1.23 1.23 0 0 1-.888.374h-2.494c-.34.002-.607-.127-.854-.374a1.23 1.23 0 0 1-.376-.89v-6.252H7.253c-.34 0-.64-.128-.89-.376-.246-.247-.374-.516-.374-.854v-2.528c-.002-.34.127-.607.374-.854a1.23 1.23 0 0 1 .89-.376h6.252V7.253c0-.34.128-.64.376-.89.247-.246.516-.374.854-.374z"/></svg><svg id="stop" viewBox="0 0 32 32" width="32" height="32"><path d="M16 1C7.715 1 1 7.715 1 16s6.715 15 15 15 15-6.715 15-15S24.285 1 16 1zm0 2.813c6.73 0 12.188 5.456 12.188 12.187 0 6.73-5.457 12.188-12.188 12.188C9.27 28.188 3.812 22.73 3.812 16 3.813 9.27 9.27 3.812 16 3.812zM10.125 9c-.612.062-1.128.635-1.125 1.25v11.5c0 .654.596 1.25 1.25 1.25h11.5c.654 0 1.25-.596 1.25-1.25v-11.5C23 9.596 22.404 9 21.75 9h-11.5a1.253 1.253 0 0 0-.125 0z"/></svg><svg id="trash" viewBox="0 0 32 32" width="32" height="32"><path d="M6.656 7.344c-.83 0-1.603.637-1.5 1.406L7.97 29.594c.102.768.668 1.406 1.5 1.406h13.06c.832 0 1.398-.638 1.5-1.406L26.845 8.75c.103-.77-.67-1.406-1.5-1.406H6.656zm9.157 3.5a.85.85 0 0 1 .093 0 .85.85 0 0 1 .938.875v13.81a.85.85 0 1 1-1.688 0V11.72a.85.85 0 0 1 .656-.876zm-6.563.062a.85.85 0 0 1 .97.75l1.81 13.72a.85.85 0 1 1-1.686.218L8.53 11.874a.85.85 0 0 1 .72-.968zm13.156 0a.85.85 0 0 1 1 .97l-1.812 13.718a.85.85 0 1 1-1.688-.22l1.813-13.718a.85.85 0 0 1 .686-.75z"/><path style="text-indent:0;text-align:start;line-height:normal;text-transform:none;block-progression:tb;-inkscape-font-specification:Sans" d="M14.483.95a1.313 1.313 0 0 0-.94 2.277l-6.948-.85a1.313 1.313 0 1 0-.32 2.604l19.48 2.387a1.313 1.313 0 1 0 .32-2.606l-6.948-.85a1.313 1.313 0 0 0-.487-2.452L14.607.964a1.313 1.313 0 0 0-.124-.015z" font-weight="400" color="#000" overflow="visible" font-family="Sans"/></svg><svg id="volume-medium" viewBox="0 0 32 32" width="32" height="32"><g><path d="M1 10.804v10.384h8.46l7.684 7.115V3.697L9.46 10.804zM21.71 24.076a13.586 13.586 0 0 0 2.662-8.08c0-3.034-.998-5.825-2.66-8.08l-1.656 1.24a11.482 11.482 0 0 1 2.256 6.84c0 2.563-.844 4.924-2.256 6.84l1.655 1.24zM27.106 27.808A19.845 19.845 0 0 0 31 15.996c0-4.43-1.46-8.51-3.894-11.812l-1.655 1.24a17.723 17.723 0 0 1 3.49 10.572 17.74 17.74 0 0 1-3.49 10.57l1.656 1.242z"/></g></svg><svg id="volume-mute" viewBox="0 0 32 32" width="32" height="32"><path d="M18.03 1l-9.124 9.53h-7.28v10.94h7.28L18.03 31V1zm3.876 9.97l-1.593 1.592L23.75 16l-3.438 3.438 1.594 1.593 3.438-3.436 3.437 3.437 1.595-1.593L26.937 16l3.438-3.438-1.594-1.593-3.436 3.436-3.438-3.437z"/></svg><svg id="x" viewBox="0 0 32 32" width="32" height="32"><path d="M3.305 7.482L11.825 16l-8.52 8.518 4.177 4.177L16 20.175l8.518 8.52 4.177-4.177L20.175 16l8.52-8.518-4.177-4.177L16 11.825l-8.518-8.52z"/></svg><svg id="zoom-to" viewBox="0 0 32 32" width="32" height="32"><path d="M1.118 1.127A.415.415 0 0 1 1.424 1l6.644.273c.18.012.303.1.37.264.058.17.028.315-.092.436L6.33 4.01l1.426 1.44a.403.403 0 0 1 .126.29c0 .11-.042.207-.126.292l-1.73 1.746a.395.395 0 0 1-.287.127.395.395 0 0 1-.29-.127l-1.425-1.44-2.017 2.037a.367.367 0 0 1-.432.09.412.412 0 0 1-.27-.363L1 1.43a.41.41 0 0 1 .117-.302zm29.764 29.746a.415.415 0 0 1-.306.127l-6.644-.273a.397.397 0 0 1-.37-.264c-.058-.17-.028-.315.092-.436l2.016-2.037-1.426-1.44a.403.403 0 0 1-.126-.29c0-.11.042-.207.126-.292l1.73-1.746a.395.395 0 0 1 .287-.127c.11 0 .206.042.29.127l1.425 1.44 2.017-2.037a.367.367 0 0 1 .432-.09.412.412 0 0 1 .27.363L31 30.57a.41.41 0 0 1-.117.302zm-.01-29.755a.42.42 0 0 1 .128.308L30.728 8.1a.4.4 0 0 1-.262.37c-.17.06-.314.03-.435-.09l-2.026-2.026-1.434 1.432a.4.4 0 0 1-.29.127.4.4 0 0 1-.29-.127L24.252 6.05a.398.398 0 0 1-.127-.29c0-.11.043-.205.127-.29l1.434-1.432-2.028-2.025a.37.37 0 0 1-.09-.434.41.41 0 0 1 .36-.273L30.574 1c.12 0 .22.04.3.117zm-4.2 14.347a10.56 10.56 0 0 0-1.006-4.123c-.613-1.3-1.415-2.41-2.407-3.328-.993-.92-2.158-1.633-3.497-2.142-1.34-.51-2.73-.734-4.172-.676-1.442.058-2.81.396-4.104 1.01-1.293.617-2.398 1.423-3.313 2.42-.915.996-1.625 2.167-2.132 3.51a10.565 10.565 0 0 0-.672 4.192c.09 2.23.796 4.226 2.12 5.99l-4.98 5.422c-.36.39-.527.854-.506 1.39.022.538.23.99.623 1.353.394.365.858.537 1.392.515.545-.022.99-.233 1.34-.633l4.98-5.408c1.856 1.183 3.893 1.73 6.113 1.64a10.436 10.436 0 0 0 4.104-1.012c1.294-.615 2.398-1.42 3.313-2.418.915-.996 1.626-2.167 2.132-3.512.506-1.345.73-2.742.672-4.19zm-3.872.157c.075 1.875-.523 3.505-1.796 4.89-1.273 1.387-2.843 2.118-4.71 2.194-1.865.075-3.488-.526-4.868-1.805-1.38-1.277-2.108-2.854-2.183-4.73-.075-1.873.523-3.504 1.796-4.89 1.272-1.386 2.842-2.117 4.708-2.193 1.866-.075 3.49.526 4.87 1.805 1.38 1.278 2.107 2.855 2.182 4.73z"/></svg></defs></svg>