<svg><defs><svg id="arrow-down" viewBox="0 0 32 32" width="32" height="32"><path d="M2 10.283q0-.357.28-.633l1.404-1.374Q3.964 8 4.33 8q.364 0 .645.276L16 19.08 27.025 8.275Q27.305 8 27.67 8t.646.276L29.72 9.65q.28.276.28.633t-.28.633L16.646 23.724q-.28.276-.645.276t-.646-.276L2.284 10.916q-.28-.276-.28-.633z"/></svg><svg id="arrow-left" viewBox="0 0 32 32" width="32" height="32"><path d="M21.717 2q.357 0 .633.28l1.374 1.404q.276.28.276.646 0 .364-.276.645L12.92 16l10.804 11.025q.276.28.276.645t-.276.646L22.35 29.72q-.276.28-.633.28t-.633-.28L8.276 16.646Q8 16.367 8 16.002t.276-.646L21.084 2.284q.276-.28.633-.28z"/></svg><svg id="arrow-right" viewBox="0 0 32 32" width="32" height="32"><path d="M10.283 30q-.357 0-.633-.28l-1.374-1.404Q8 28.036 8 27.67q0-.364.276-.645L19.08 16 8.275 4.975Q8 4.695 8 4.33t.276-.646L9.65 2.28q.276-.28.633-.28t.633.28l12.808 13.073q.276.28.276.645t-.276.646L10.916 29.716q-.276.28-.633.28z"/></svg><svg id="arrow-up" viewBox="0 0 32 32" width="32" height="32"><path d="M2.003 21.717q0-.357.28-.633L15.357 8.276q.28-.276.646-.276.364 0 .645.276L29.72 21.084q.28.276.28.633t-.28.633l-1.404 1.374q-.28.276-.646.276-.364 0-.645-.276L16 12.92 4.975 23.725Q4.695 24 4.33 24t-.646-.276L2.28 22.35Q2 22.074 2 21.717z"/></svg><svg id="check" viewBox="0 0 32 32" width="32" height="32"><path d="M26.25 6.525a.94.94 0 0 0-.688.28l-13.437 13.44-5.656-5.658a.988.988 0 0 0-1.407 0l-1.438 1.407a.988.988 0 0 0 0 1.406l7.78 7.78a.988.988 0 0 0 1.408 0C17.997 20 23.187 14.827 28.374 9.65a1.026 1.026 0 0 0 0-1.438L26.97 6.806a1.01 1.01 0 0 0-.72-.28z"/></svg><svg id="circle-i-outline" viewBox="0 0 32 32" width="32" height="32"><path d="M5.393 5.393c-5.858 5.86-5.858 15.355 0 21.214 5.86 5.858 15.355 5.858 21.214 0 5.858-5.86 5.858-15.355 0-21.214-5.86-5.858-15.355-5.858-21.214 0zm19.225 19.225c-4.76 4.76-12.476 4.76-17.236 0s-4.76-12.476 0-17.236 12.476-4.76 17.236 0 4.76 12.476 0 17.236zM5.768 5.768c-5.65 5.65-5.65 14.813 0 20.464 5.65 5.65 14.813 5.65 20.464 0 5.65-5.65 5.65-14.813 0-20.464-5.65-5.65-14.813-5.65-20.464 0zm18.545 18.545c-4.59 4.592-12.035 4.592-16.626 0-4.592-4.59-4.592-12.035 0-16.626 4.59-4.592 12.035-4.592 16.626 0 4.592 4.59 4.592 12.035 0 16.626z" style="line-height:125%;-inkscape-font-specification:Noto Serif Bold" font-size="22" font-weight="700" letter-spacing="0" word-spacing="0" font-family="Noto Serif"/><path d="M14 12.68h4v11.792h-4zM18 8.783a2 2 0 1 1-4 0 2 2 0 0 1 4 0z"/></svg><svg id="circle-i" viewBox="0 0 32 32" width="32" height="32"><path d="M16 1C7.707 1 1 7.707 1 16s6.707 15 15 15 15-6.707 15-15S24.294 1 16 1zm0 5.78a2 2 0 1 1 0 4 2 2 0 0 1 0-4zm-2 5.907h4V24.47h-4V12.687z"/></svg><svg id="circle-minus-outline" viewBox="0 0 32 32" width="32" height="32"><path d="M7.382 14.01v3.98h17.236v-3.98zm-1.99-8.617c-5.857 5.86-5.857 15.355 0 21.214 5.86 5.858 15.356 5.858 21.215 0 5.858-5.86 5.858-15.355 0-21.214-5.86-5.858-15.355-5.858-21.214 0zM24.62 24.618c-4.76 4.76-12.476 4.76-17.236 0s-4.76-12.476 0-17.236 12.476-4.76 17.236 0 4.76 12.476 0 17.236z"/></svg><svg id="circle-minus" viewBox="0 0 32 32" width="32" height="32"><path d="M16 1c8.294 0 15 6.707 15 15s-6.707 15-15 15S1 24.293 1 16 7.707 1 16 1zm7.717 16.515v-3.03H8.284v3.03z"/></svg><svg id="circle-plus-outline" viewBox="0 0 32 32" width="32" height="32"><path d="M14.01 7.382v6.63H7.383v3.977h6.63v6.628h3.977v-6.63h6.628v-3.977h-6.63V7.383zm-8.617-1.99c-5.858 5.86-5.858 15.356 0 21.215 5.86 5.858 15.355 5.858 21.214 0 5.858-5.86 5.858-15.355 0-21.214-5.86-5.858-15.355-5.858-21.214 0zM24.618 24.62c-4.76 4.76-12.476 4.76-17.236 0s-4.76-12.476 0-17.236 12.476-4.76 17.236 0 4.76 12.476 0 17.236z"/></svg><svg id="circle-plus" viewBox="0 0 32 32" width="32" height="32"><path d="M16 1c8.294 0 15 6.707 15 15s-6.707 15-15 15S1 24.293 1 16 7.707 1 16 1zm7.717 16.515v-3.03h-6.202v-6.2h-3.03v6.2h-6.2v3.03h6.2v6.202h3.03v-6.202h6.202z"/></svg><svg id="circle-x-outline" viewBox="0 0 32 32" width="32" height="32"><path d="M20.688 8.5L16 13.188 11.312 8.5 8.5 11.313 13.188 16 8.5 20.688l2.813 2.812L16 18.812l4.688 4.688 2.812-2.813L18.812 16l4.688-4.688zM16 1C7.715 1 1 7.715 1 16s6.715 15 15 15 15-6.715 15-15S24.285 1 16 1zm0 27.188C9.27 28.188 3.812 22.73 3.812 16 3.813 9.27 9.27 3.812 16 3.812c6.73 0 12.188 5.457 12.188 12.188 0 6.73-5.457 12.188-12.188 12.188z"/></svg><svg id="delete" viewBox="0 0 32 32" width="32" height="32"><path d="M22.688 8.5L18 13.188 13.312 8.5 10.5 11.313 15.188 16 10.5 20.688l2.813 2.812L18 18.812l4.688 4.688 2.812-2.813L20.812 16l4.688-4.688z"/><path style="text-indent:0;text-align:start;line-height:normal;text-transform:none;block-progression:tb;-inkscape-font-specification:Sans" d="M9.375 2.188c-.82 0-1.625.558-1.97 1-.342.44-.474.746-.56.906l-6 10.937a1.75 1.75 0 0 0 0 1.626l6 11.625c.096.19.21.524.56.97.354.446 1.158.97 1.97.97h19.25c1.493 0 2.75-1.258 2.75-2.75V4.937c0-1.494-1.257-2.75-2.75-2.75H9.375zm.594 3.5h17.905v21.03H9.97c-.022-.04-.01-.016-.033-.062l-5.562-10.75L9.938 5.78c.033-.06.002-.04.03-.093z" font-weight="400" color="#000" overflow="visible" font-family="Sans"/></svg><svg id="load" viewBox="0 0 32 32" width="32" height="32"><path d="M31 13.987c0 .202 0 .402-.067.603-.268.536-1.005.804-1.54.47-.268-.134-.402-.47-.47-.737-.066-.336-.066-.603-.133-.937-.268-1.34-.803-2.678-1.472-3.883-.803-1.406-1.874-2.745-3.146-3.748-1.204-1.005-2.676-1.74-4.148-2.21a15.398 15.398 0 0 0-4.283-.602h-.267c-.2 0-.4.067-.603.067-.4 0-.936.068-1.338.134-.87.134-1.673.402-2.476.737C9.65 4.417 8.38 5.22 7.24 6.225c-1.137 1.005-2.074 2.21-2.81 3.48a14.42 14.42 0 0 0-1.606 4.686c-.133.737-.133 1.54-.133 2.276 0 .4 0 .737.068 1.07.068.402.134.87.2 1.273.336 1.605.938 3.146 1.875 4.484.87 1.34 1.94 2.544 3.212 3.48a14.06 14.06 0 0 0 4.35 2.21c1.674.47 3.346.603 5.086.47a14.004 14.004 0 0 0 4.886-1.34c.737-.335 1.472-.803 2.142-1.272.67-.47 1.27-1.004 1.807-1.606.267-.268.535-.603.803-.937.267-.335.47-.67.67-1.006.2-.335.802-1.338 1.137-2.075.268-.537.535-1.072.737-1.675.134-.268.2-.603.267-.87.066-.27.067-.47.133-.738.068.603.068 1.205-.067 1.74-.068.336-.134.737-.268 1.072-.067.334-.2.668-.335 1.003a15.9 15.9 0 0 1-.87 1.874c-.402.737-.804 1.406-1.34 2.008-.534.602-1.07 1.205-1.672 1.74-1.204 1.005-2.676 1.808-4.148 2.41a15.14 15.14 0 0 1-4.886 1.005c-1.673.067-3.413-.202-5.02-.737-1.538-.47-3.01-1.272-4.35-2.21a15.863 15.863 0 0 1-3.345-3.346c-.468-.67-.87-1.34-1.203-2.076a21.844 21.844 0 0 1-.87-2.208c-.402-1.205-.603-2.477-.67-3.748-.067-1.34.068-2.61.335-3.882.335-1.607 1.005-3.147 1.874-4.552.803-1.272 1.74-2.343 2.81-3.347 1.07-1.003 2.343-1.808 3.68-2.41 1.54-.736 3.213-1.272 4.953-1.406C15.337 1 15.94 1 16.61 1c.87 0 1.74.134 2.543.268 1.606.335 3.146.937 4.55 1.74 1.405.803 2.745 1.942 3.815 3.213 1.004 1.206 1.807 2.478 2.41 3.883.267.67.468 1.406.668 2.142.134.535.335 1.138.402 1.74z"/></svg><svg id="menu-dots" width="32" height="32"><g transform="matrix(0 -1.55556 1.55625 0 -2.675 -1602.34)"><rect width="4" height="4" x="-1042.362" y="10" ry="0"/><rect ry="0" y="10" x="-1035.362" height="4" width="4"/><rect ry="0" y="10" x="-1049.362" height="4" width="4"/></g></svg><svg id="menu" width="32" height="32"><g transform="matrix(0 -1.33333 1.25 0 1 -1371.15)"><rect width="4" height="24" x="-1042.362" ry="0"/><rect ry="0" x="-1035.362" height="24" width="4"/><rect ry="0" x="-1049.362" height="24" width="4"/></g></svg><svg id="minus" viewBox="0 0 32 32" width="32" height="32"><path d="M2 13.985v4.03h28v-4.03H2z"/></svg><svg id="options" viewBox="0 0 32 32" width="32" height="32"><path d="M1 26.71q0-.97.695-1.663l12.45-12.435q.712 1.79 2.093 3.168 1.38 1.378 3.17 2.09L6.943 30.325Q6.265 31 5.297 31q-.95 0-1.664-.676l-1.938-1.972Q1 27.694 1 26.71zm4.296-1.17q0 .474.347.822t.823.347q.476-.002.823-.348.346-.346.346-.822 0-.477-.347-.822-.348-.346-.824-.347-.476 0-.823.348-.347.347-.347.822zm9.36-16.36q0-3.378 2.403-5.78Q19.462 1 22.844 1q1.06 0 2.222.302 1.16.3 1.965.848.293.2.293.512 0 .31-.293.51L21.676 6.26v4.09l3.528 1.953 1.444-.886q1.354-.83 2.478-1.478 1.124-.65 1.288-.65.275 0 .43.183.156.183.156.456 0 .71-.42 1.935-.86 2.447-3.008 3.97-2.15 1.526-4.726 1.526-3.382 0-5.786-2.4-2.404-2.4-2.404-5.78z"/></svg><svg id="pen" viewBox="0 0 32 32" width="32" height="32"><path d="M26.3 11.723L10.177 27.91 4.09 21.823l16.188-16.12zm4.137-6.95c.803.804.737 2.142-.134 3.012l-2.82 2.82-6.088-6.09 2.82-2.818c.87-.87 2.208-.937 3.01-.134zM3.14 23.174l5.688 5.686L1 31z"/></svg><svg id="play" viewBox="0 0 32 32" width="32" height="32"><path d="M16 1C7.715 1 1 7.715 1 16s6.715 15 15 15 15-6.715 15-15S24.285 1 16 1zm0 27.188C9.27 28.188 3.812 22.73 3.812 16 3.813 9.27 9.27 3.812 16 3.812c6.73 0 12.188 5.457 12.188 12.188 0 6.73-5.457 12.188-12.188 12.188z"/><path style="text-indent:0;text-align:start;line-height:normal;text-transform:none;block-progression:tb;-inkscape-font-specification:Sans" d="M13.063 5.78c-.59.09-1.07.655-1.063 1.25v17.94c-.012.967 1.38 1.59 2.094.936l9.75-9c.49-.465.49-1.347 0-1.812l-9.75-9a1.27 1.27 0 0 0-1.03-.313z" font-weight="400" color="#000" overflow="visible" font-family="Sans"/></svg><svg id="plus" viewBox="0 0 32 32" width="32" height="32"><path d="M14.56 6v8.56H6v2.88h8.56V26h2.88v-8.56H26v-2.88h-8.56V6z"/></svg><svg id="settings" viewBox="0 0 32 32" width="32" height="32"><path d="M27.392 17.515l3.39 2.45c.216.218.287.722.143 1.01l-3.1 5.12c-.145.29-.506.506-.866.362l-3.894-1.515c-.865.577-1.66 1.154-2.596 1.515l-.576 3.966c-.073.29-.433.577-.794.577h-6.13c-.36 0-.72-.217-.792-.577l-.577-3.966c-.937-.36-1.802-.938-2.594-1.515l-3.894 1.515c-.288.144-.72-.073-.865-.36l-3.1-5.12c-.217-.362-.145-.795.144-1.01l3.246-2.452c0-.506-.073-1.01-.073-1.515 0-.505.073-1.01.073-1.515l-3.317-2.45c-.218-.218-.29-.722-.145-1.01l3.1-5.12c.145-.29.506-.506.866-.362l3.894 1.515c.865-.577 1.66-1.154 2.596-1.515l.576-3.966c.073-.29.433-.577.794-.577h6.13c.36 0 .72.288.792.577l.505 3.966c.938.36 1.803.938 2.596 1.515l3.82-1.515c.29-.144.795.073.94.36l3.1 5.12c.217.362.144.795-.144 1.01l-3.246 2.452c0 .506.073 1.01.073 1.515 0 .505 0 1.082-.073 1.515zm-11.463 3.75c2.956 0 5.407-2.308 5.407-5.265s-2.45-5.264-5.408-5.264c-2.957 0-5.336 2.307-5.336 5.264 0 2.957 2.38 5.264 5.335 5.264z"/></svg><svg id="square-minus" viewBox="0 0 32 32" width="32" height="32"><path d="M1 25.375V6.625Q1 4.3 2.65 2.65 4.3 1 6.625 1h18.75Q27.7 1 29.35 2.65 31 4.3 31 6.625v18.75q0 2.324-1.65 3.975Q27.7 31 25.375 31H6.625Q4.3 31 2.65 29.35 1 27.7 1 25.375zm5-8.124q0 .508.37.88t.88.37h17.5q.507 0 .88-.37.37-.37.37-.88v-2.5q0-.507-.37-.88-.372-.37-.88-.37H7.25q-.508 0-.88.37-.372.372-.37.88v2.5z"/></svg><svg id="square-plus" viewBox="0 0 32 32" width="32" height="32"><path d="M6.638 1c-1.55 0-2.898.54-3.998 1.64C1.54 3.74 1 5.09 1 6.638v18.724c0 1.55.54 2.898 1.64 3.998C3.74 30.46 5.09 31 6.638 31h18.724c1.55 0 2.864-.54 3.964-1.64 1.1-1.1 1.674-2.45 1.674-3.998V6.638c0-1.55-.574-2.898-1.674-3.998S26.91 1 25.362 1H6.638zm8.098 4.99h2.494c.34-.002.64.127.888.374.248.248.376.55.376.89v6.252h6.253c.34 0 .64.128.89.376.246.247.34.516.34.854v2.528c0 .34-.094.607-.34.854a1.23 1.23 0 0 1-.89.376h-6.253v6.253c0 .34-.128.64-.376.89a1.23 1.23 0 0 1-.888.374h-2.494c-.34.002-.607-.127-.854-.374a1.23 1.23 0 0 1-.376-.89v-6.252H7.253c-.34 0-.64-.128-.89-.376-.246-.247-.374-.516-.374-.854v-2.528c-.002-.34.127-.607.374-.854a1.23 1.23 0 0 1 .89-.376h6.252V7.253c0-.34.128-.64.376-.89.247-.246.516-.374.854-.374z"/></svg><svg id="stop" viewBox="0 0 32 32" width="32" height="32"><path d="M16 1C7.715 1 1 7.715 1 16s6.715 15 15 15 15-6.715 15-15S24.285 1 16 1zm0 27.188C9.27 28.188 3.812 22.73 3.812 16 3.813 9.27 9.27 3.812 16 3.812c6.73 0 12.188 5.457 12.188 12.188 0 6.73-5.457 12.188-12.188 12.188z"/><path style="text-indent:0;text-align:start;line-height:normal;text-transform:none;block-progression:tb;-inkscape-font-specification:Sans" d="M10.125 9c-.612.062-1.128.635-1.125 1.25v11.5c0 .654.596 1.25 1.25 1.25h11.5c.654 0 1.25-.596 1.25-1.25v-11.5C23 9.596 22.404 9 21.75 9h-11.5a1.253 1.253 0 0 0-.125 0z" font-weight="400" color="#000" overflow="visible" font-family="Sans"/></svg><svg id="x" viewBox="0 0 32 32" width="32" height="32"><path d="M3.305 7.482L11.825 16l-8.52 8.518 4.177 4.177L16 20.175l8.518 8.52 4.177-4.177L20.175 16l8.52-8.518-4.177-4.177L16 11.825l-8.518-8.52z"/></svg><svg id="zoom-to" viewBox="0 0 32 32" width="32" height="32"><path d="M1.118 1.127A.415.415 0 0 1 1.424 1l6.644.273c.18.012.303.1.37.264.058.17.028.315-.092.436L6.33 4.01l1.426 1.44a.403.403 0 0 1 .126.29c0 .11-.042.207-.126.292l-1.73 1.746a.395.395 0 0 1-.287.127.395.395 0 0 1-.29-.127l-1.425-1.44-2.017 2.037a.367.367 0 0 1-.432.09.412.412 0 0 1-.27-.363L1 1.43a.41.41 0 0 1 .117-.302zm29.764 29.746a.415.415 0 0 1-.306.127l-6.644-.273a.397.397 0 0 1-.37-.264c-.058-.17-.028-.315.092-.436l2.016-2.037-1.426-1.44a.403.403 0 0 1-.126-.29c0-.11.042-.207.126-.292l1.73-1.746a.395.395 0 0 1 .287-.127c.11 0 .206.042.29.127l1.425 1.44 2.017-2.037a.367.367 0 0 1 .432-.09.412.412 0 0 1 .27.363L31 30.57a.41.41 0 0 1-.117.302zm-.01-29.755a.42.42 0 0 1 .128.308L30.728 8.1a.4.4 0 0 1-.262.37c-.17.06-.314.03-.435-.09l-2.026-2.026-1.434 1.432a.4.4 0 0 1-.29.127.4.4 0 0 1-.29-.127L24.252 6.05a.398.398 0 0 1-.127-.29c0-.11.043-.205.127-.29l1.434-1.432-2.028-2.025a.37.37 0 0 1-.09-.434.41.41 0 0 1 .36-.273L30.574 1c.12 0 .22.04.3.117zm-4.2 14.347a10.56 10.56 0 0 0-1.006-4.123c-.613-1.3-1.415-2.41-2.407-3.328-.993-.92-2.158-1.633-3.497-2.142-1.34-.51-2.73-.734-4.172-.676-1.442.058-2.81.396-4.104 1.01-1.293.617-2.398 1.423-3.313 2.42-.915.996-1.625 2.167-2.132 3.51a10.565 10.565 0 0 0-.672 4.192c.09 2.23.796 4.226 2.12 5.99l-4.98 5.422c-.36.39-.527.854-.506 1.39.022.538.23.99.623 1.353.394.365.858.537 1.392.515.545-.022.99-.233 1.34-.633l4.98-5.408c1.856 1.183 3.893 1.73 6.113 1.64a10.436 10.436 0 0 0 4.104-1.012c1.294-.615 2.398-1.42 3.313-2.418.915-.996 1.626-2.167 2.132-3.512.506-1.345.73-2.742.672-4.19zm-3.872.157c.075 1.875-.523 3.505-1.796 4.89-1.273 1.387-2.843 2.118-4.71 2.194-1.865.075-3.488-.526-4.868-1.805-1.38-1.277-2.108-2.854-2.183-4.73-.075-1.873.523-3.504 1.796-4.89 1.272-1.386 2.842-2.117 4.708-2.193 1.866-.075 3.49.526 4.87 1.805 1.38 1.278 2.107 2.855 2.182 4.73z"/></svg></defs></svg>