<svg><defs><svg id="arrow-left" viewBox="0 0 32 32" width="32" height="32"><path d="M21.717 2q.357 0 .633.281l1.374 1.403q.276.281.276.646 0 .364-.276.645L12.921 16l10.803 11.025q.276.28.276.645t-.276.646l-1.374 1.403q-.276.281-.633.281t-.633-.281L8.276 16.647Q8 16.366 8 16.002q0-.365.276-.646L21.084 2.284q.276-.28.633-.28z"/></svg><svg id="audio-signal (copy)" viewBox="0 0 32 32" width="32" height="32"><path style="text-indent:0;text-align:start;line-height:normal;text-transform:none;block-progression:tb;marker:none;-inkscape-font-specification:Sans" d="M16.75 4.938a.667.667 0 0 0-.625.593L14 22.688l-2.781-11.375a.667.667 0 0 0-1.281 0l-1.782 6.843-2-3.937a.667.667 0 0 0-1.093-.125L3.03 16.469H.656v1.343h2.688a.667.667 0 0 0 .5-.25l1.594-1.843 2.343 4.625a.667.667 0 0 0 1.25-.125l1.531-6.032 3.032 12.344a.667.667 0 0 0 1.281-.062l2.063-16.844 2.875 13.438a.667.667 0 0 0 1.28.03l2.188-8.75 2.282 6.47a.667.667 0 0 0 1.187.125l1.875-3.125h2.719v-1.344H28.28a.667.667 0 0 0-.562.312l-1.375 2.25-2.563-7.25a.667.667 0 0 0-1.281.063l-2 8.062L17.437 5.47a.667.667 0 0 0-.687-.532z" font-weight="400" color="#000" overflow="visible" font-family="Sans"/><path d="M47.666 17.13h2.68l2.23-2.607 2.798 5.528 2.21-8.578 3.643 14.91 2.558-20.766 3.676 17.315 2.69-10.915 3.032 8.562 2.104-3.448h3.047" stroke="#000" stroke-width="1.333" stroke-linejoin="round"/></svg><svg id="audio-signal" viewBox="0 0 32 32" width="32" height="32"><path style="text-indent:0;text-align:start;line-height:normal;text-transform:none;block-progression:tb;marker:none;-inkscape-font-specification:Sans" d="M16.469 4.625a1 1 0 0 0-.875.875l-2 15.406-2.344-9.656a1 1 0 0 0-1.938-.063l-1.874 6.126-1.594-3.22a1 1 0 0 0-1.625-.25l-2.063 2.282H0v2h2.594a1 1 0 0 0 .719-.313l1.374-1.53L6.75 20.5a1 1 0 0 0 1.875-.156l1.531-5.063 2.781 11.344a1 1 0 0 0 1.97-.125l1.937-15 2.531 11.656a1 1 0 0 0 1.969.032l2.062-7.844 2.094 5.594a1 1 0 0 0 1.781.187l2.032-3H32v-2h-3.25a1 1 0 0 0-.813.438l-1.25 1.843-2.53-6.75a1 1 0 0 0-1.907.094l-1.781 6.906-2.907-13.25a1 1 0 0 0-1.093-.781z" font-weight="400" color="#000" overflow="visible" font-family="Sans"/><path d="M42.78 16.424h2.583l2.364-2.608 2.71 5.528 2.608-8.579 3.642 14.91 2.69-20.765 3.765 17.315L66.01 11.31l3.208 8.562 2.325-3.448h3.238" stroke="#000" stroke-width="2" stroke-linejoin="round"/></svg><svg id="bass-guitar" viewBox="0 0 32 32"><g><path d="M2.081 18.355l1.842 4.988-1.649.609-1.841-4.988zM26.861 17.096c.74 1.46 2.336.689 3.197.13.165-.102.319-.212.462-.333.062-.05.105-.079.105-.079l-.002-.006a3.823 3.823 0 0 0 1.048-4.181 3.821 3.821 0 0 0-3.904-2.48l-.004-.012-23.475 2.791c.361 3.144-1.559 5.183-1.559 5.183l1.849 5.006.916-.339c.973-.218 4.453 2.076 4.453 2.076 3.461-3.285 16.914-7.756 16.914-7.756zm-18.866-.75a1.04 1.04 0 1 1 1.335.615 1.04 1.04 0 0 1-1.335-.615zm6.283-.628c-.201-.543.077-1.136.615-1.335.543-.2 1.136.078 1.335.615a1.04 1.04 0 0 1-1.95.72zm6.085-1.125a1.04 1.04 0 1 1 1.335.615 1.04 1.04 0 0 1-1.335-.615zm6.085-1.125a1.04 1.04 0 1 1 1.95-.717 1.04 1.04 0 0 1-1.95.717zM23.366 7.084l.004.012a1.357 1.357 0 0 0-.676 1.68 1.352 1.352 0 0 0 1.74.801c.012-.004.028-.016.033-.019l.003.006.727-.268.233.632 1.569-.19-.36-.974.727-.269-.003-.006c.012-.004.032-.005.038-.007a1.352 1.352 0 1 0-.804-2.577l-.004-.012a1.729 1.729 0 0 0-2.218-1.022 1.714 1.714 0 0 0-1.01 2.213zM17.093 7.721l.005.012a1.357 1.357 0 0 0-.676 1.68 1.352 1.352 0 0 0 1.74.802c.012-.005.027-.017.033-.02l.002.006.727-.268.269.727 1.568-.19-.395-1.07.733-.27-.002-.006c.012-.004.032-.005.038-.007a1.352 1.352 0 1 0-.804-2.577l-.005-.012a1.729 1.729 0 0 0-2.217-1.022 1.732 1.732 0 0 0-1.016 2.215zM10.854 8.447l.004.012a1.357 1.357 0 0 0-.676 1.68 1.352 1.352 0 0 0 1.74.801c.012-.004.028-.017.034-.019l.002.006.727-.268.27.733 1.569-.19-.395-1.07.727-.268-.002-.006c.011-.005.031-.005.037-.007a1.352 1.352 0 1 0-.804-2.577l-.004-.013a1.729 1.729 0 0 0-2.217-1.021 1.717 1.717 0 0 0-1.012 2.207zM8.3 11.935l-.501-1.36.726-.268-.002-.006c.012-.004.032-.005.038-.007a1.352 1.352 0 1 0-.804-2.577l-.004-.012a1.729 1.729 0 0 0-2.218-1.022 1.729 1.729 0 0 0-1.021 2.218l.004.012a1.357 1.357 0 0 0-.676 1.68 1.352 1.352 0 0 0 1.74.801c.012-.004.03-.01.034-.019l.002.006.727-.268.373 1.01 1.582-.188z"/></g></svg><svg id="check" viewBox="0 0 32 32" width="32" height="32"><path d="M26.25 6.525a.94.94 0 0 0-.688.281L12.126 20.244l-5.656-5.657a.988.988 0 0 0-1.406 0l-1.438 1.407a.988.988 0 0 0 0 1.406l7.781 7.781a.988.988 0 0 0 1.406 0c5.185-5.18 10.375-10.355 15.563-15.531a1.026 1.026 0 0 0 0-1.438l-1.406-1.406a1.01 1.01 0 0 0-.719-.281z"/></svg><svg id="countdown (copy)" viewBox="0 0 32 32" width="32" height="32"><path style="text-indent:0;text-align:start;line-height:normal;text-transform:none;block-progression:tb;marker:none;-inkscape-font-specification:Sans" d="M-48.271 97.356c-8.819 0-16 7.181-16 16 0 8.819 7.181 16 16 16 4.41 0 8.415-1.784 11.312-4.688l-.906-.875c.005-.005-.005-.025 0-.03 2.665-2.668 4.344-6.34 4.344-10.407 0-8.139-6.625-14.733-14.75-14.75v-1.25zm0 1.781c7.84.017 14.219 6.366 14.219 14.219 0 3.932-1.579 7.49-4.157 10.062l-.875-.875a12.921 12.921 0 0 1-9.187 3.813c-7.198 0-13-5.803-13-13 0-7.198 5.802-13 13-13v-1.219zm0 3.219c-6.066 0-11 4.934-11 11s4.934 11 11 11 11-4.934 11-11-4.934-11-11-11zm-.625 2.312c.22 0 .419.019.625.032.66.04 1.269.141 1.781.312.672.224 1.224.522 1.656.938.448.4.792.908 1 1.468.224.544.313 1.126.313 1.782 0 .768-.193 1.454-.625 2.062a4.157 4.157 0 0 1-1.656 1.406c.864.304 1.596.796 2.156 1.5.576.704.844 1.615.844 2.72 0 .735-.12 1.422-.375 2.062a4.276 4.276 0 0 1-1.157 1.625c-.528.448-1.215.821-2.03 1.093-.56.18-1.193.29-1.907.344-.309.023-.631.031-.969.031-.432 0-.88-.03-1.344-.093a11.226 11.226 0 0 1-1.312-.22c-.4-.08-.758-.153-1.094-.25-.266-.088-.433-.17-.594-.25-.05-.034-.105-.057-.156-.093l.563-2.469c.336.16.828.355 1.468.563.64.192 1.431.281 2.375.281.395 0 .737-.015 1.063-.062.718-.103 1.271-.327 1.656-.657.56-.496.844-1.152.844-1.968 0-.528-.089-.96-.313-1.313a2.31 2.31 0 0 0-.906-.844c-.368-.224-.785-.357-1.281-.437a8.081 8.081 0 0 0-1.563-.156h-.968v-2.344h1.187c.368 0 .757-.03 1.125-.094.079-.016.143-.042.219-.062.292-.08.57-.204.812-.344.304-.192.558-.415.75-.719.192-.304.282-.707.282-1.187 0-.384-.075-.728-.22-1a1.951 1.951 0 0 0-.593-.657 2.088 2.088 0 0 0-.781-.375c-.082-.021-.166-.046-.25-.062a3.949 3.949 0 0 0-.719-.063c-.72 0-1.346.12-1.906.344a8.17 8.17 0 0 0-1.5.719l-1.063-2.156c.224-.144.524-.309.844-.469.32-.16.647-.325 1.031-.469.4-.144.834-.232 1.282-.312.448-.096.91-.157 1.406-.157z" font-weight="400" color="#000" overflow="visible" font-family="Sans"/><path d="M69.729 16a13.729 13.729 0 1 1-27.458 0 13.729 13.729 0 1 1 27.458 0z" stroke="#000" stroke-width=".5"/><path d="M66.5 16c0 5.799-4.701 10.5-10.5 10.5S45.5 21.799 45.5 16 50.201 5.5 56 5.5 66.5 10.201 66.5 16z"/><path d="M56 1a14.937 14.937 0 0 0-10.594 4.406c-5.858 5.858-5.858 15.33 0 21.188 5.858 5.858 15.33 5.858 21.188 0A14.937 14.937 0 0 0 71 16h-2.813c0 3.119-1.182 6.245-3.562 8.625-4.76 4.76-12.49 4.76-17.25 0s-4.76-12.49 0-17.25A12.158 12.158 0 0 1 56 3.812V1z"/><g style="line-height:125%;-inkscape-font-specification:Ubuntu Medium" font-size="24" font-weight="500" letter-spacing="0" word-spacing="0" font-family="Ubuntu"><path d="M55.028 24.688c-.432 0-.88-.032-1.344-.096-.448-.048-.88-.12-1.296-.216-.4-.08-.768-.168-1.104-.264a4.956 4.956 0 0 1-.768-.312l.576-2.472c.336.16.824.344 1.464.552.64.192 1.432.288 2.376.288 1.264 0 2.176-.24 2.736-.72.56-.496.84-1.152.84-1.968 0-.528-.112-.968-.336-1.32a2.25 2.25 0 0 0-.888-.84 3.557 3.557 0 0 0-1.296-.456 7.827 7.827 0 0 0-1.536-.144h-.984v-2.352h1.2a6.43 6.43 0 0 0 1.104-.096c.384-.08.728-.208 1.032-.384a2.36 2.36 0 0 0 .744-.744c.192-.304.288-.696.288-1.176 0-.384-.072-.712-.216-.984a1.955 1.955 0 0 0-.576-.672 2.151 2.151 0 0 0-.792-.384 3.76 3.76 0 0 0-.96-.12c-.72 0-1.36.112-1.92.336a8.045 8.045 0 0 0-1.488.72l-1.056-2.16c.224-.144.496-.296.816-.456.32-.16.672-.312 1.056-.456.4-.144.824-.256 1.272-.336.448-.096.92-.144 1.416-.144.928 0 1.728.112 2.4.336.672.224 1.224.544 1.656.96.448.4.776.88.984 1.44.224.544.336 1.144.336 1.8 0 .768-.216 1.456-.648 2.064a4.053 4.053 0 0 1-1.632 1.392 4.64 4.64 0 0 1 2.136 1.512c.576.704.864 1.608.864 2.712 0 .736-.128 1.424-.384 2.064a4.351 4.351 0 0 1-1.176 1.632c-.528.448-1.2.808-2.016 1.08-.8.256-1.76.384-2.88.384"/><path d="M55.028 24.688c-.432 0-.88-.032-1.344-.096-.448-.048-.88-.12-1.296-.216-.4-.08-.768-.168-1.104-.264a4.956 4.956 0 0 1-.768-.312l.576-2.472c.336.16.824.344 1.464.552.64.192 1.432.288 2.376.288 1.264 0 2.176-.24 2.736-.72.56-.496.84-1.152.84-1.968 0-.528-.112-.968-.336-1.32a2.25 2.25 0 0 0-.888-.84 3.557 3.557 0 0 0-1.296-.456 7.827 7.827 0 0 0-1.536-.144h-.984v-2.352h1.2a6.43 6.43 0 0 0 1.104-.096c.384-.08.728-.208 1.032-.384a2.36 2.36 0 0 0 .744-.744c.192-.304.288-.696.288-1.176 0-.384-.072-.712-.216-.984a1.955 1.955 0 0 0-.576-.672 2.151 2.151 0 0 0-.792-.384 3.76 3.76 0 0 0-.96-.12c-.72 0-1.36.112-1.92.336a8.045 8.045 0 0 0-1.488.72l-1.056-2.16c.224-.144.496-.296.816-.456.32-.16.672-.312 1.056-.456.4-.144.824-.256 1.272-.336.448-.096.92-.144 1.416-.144.928 0 1.728.112 2.4.336.672.224 1.224.544 1.656.96.448.4.776.88.984 1.44.224.544.336 1.144.336 1.8 0 .768-.216 1.456-.648 2.064a4.053 4.053 0 0 1-1.632 1.392 4.64 4.64 0 0 1 2.136 1.512c.576.704.864 1.608.864 2.712 0 .736-.128 1.424-.384 2.064a4.351 4.351 0 0 1-1.176 1.632c-.528.448-1.2.808-2.016 1.08-.8.256-1.76.384-2.88.384"/></g><path d="M48.371 13.735h3.787v3.883h-3.787zM90.623 33.922h14.848v9.83H90.623z"/><g style="line-height:125%;-inkscape-font-specification:Ubuntu Medium" font-size="24" font-weight="500" letter-spacing="0" word-spacing="0" font-family="Ubuntu"><path d="M97.79 44.63c-.432 0-.88-.031-1.344-.095-.448-.048-.88-.12-1.296-.216-.4-.08-.768-.168-1.104-.264a4.956 4.956 0 0 1-.768-.312l.576-2.472c.336.16.824.344 1.464.552.64.192 1.432.288 2.376.288 1.264 0 2.176-.24 2.736-.72.56-.496.84-1.152.84-1.968 0-.528-.112-.968-.336-1.32a2.25 2.25 0 0 0-.888-.84 3.557 3.557 0 0 0-1.296-.456 7.827 7.827 0 0 0-1.536-.144h-.984V34.31h1.2a6.43 6.43 0 0 0 1.104-.096c.384-.08.728-.208 1.032-.384a2.36 2.36 0 0 0 .744-.744c.192-.304.288-.696.288-1.176 0-.384-.072-.712-.216-.984a1.955 1.955 0 0 0-.576-.672 2.151 2.151 0 0 0-.792-.384 3.76 3.76 0 0 0-.96-.12c-.72 0-1.36.112-1.92.336a8.045 8.045 0 0 0-1.488.72l-1.056-2.16c.224-.144.496-.296.816-.456.32-.16.672-.312 1.056-.456.4-.144.824-.256 1.272-.336.448-.096.92-.144 1.416-.144.928 0 1.728.112 2.4.336.672.224 1.224.544 1.656.96.448.4.776.88.984 1.44.224.544.336 1.144.336 1.8 0 .768-.216 1.456-.648 2.064a4.053 4.053 0 0 1-1.632 1.392 4.64 4.64 0 0 1 2.136 1.512c.576.704.864 1.608.864 2.712 0 .736-.128 1.424-.384 2.064a4.351 4.351 0 0 1-1.176 1.632c-.528.448-1.2.808-2.016 1.08-.8.256-1.76.384-2.88.384"/><path d="M97.79 44.63c-.432 0-.88-.031-1.344-.095-.448-.048-.88-.12-1.296-.216-.4-.08-.768-.168-1.104-.264a4.956 4.956 0 0 1-.768-.312l.576-2.472c.336.16.824.344 1.464.552.64.192 1.432.288 2.376.288 1.264 0 2.176-.24 2.736-.72.56-.496.84-1.152.84-1.968 0-.528-.112-.968-.336-1.32a2.25 2.25 0 0 0-.888-.84 3.557 3.557 0 0 0-1.296-.456 7.827 7.827 0 0 0-1.536-.144h-.984V34.31h1.2a6.43 6.43 0 0 0 1.104-.096c.384-.08.728-.208 1.032-.384a2.36 2.36 0 0 0 .744-.744c.192-.304.288-.696.288-1.176 0-.384-.072-.712-.216-.984a1.955 1.955 0 0 0-.576-.672 2.151 2.151 0 0 0-.792-.384 3.76 3.76 0 0 0-.96-.12c-.72 0-1.36.112-1.92.336a8.045 8.045 0 0 0-1.488.72l-1.056-2.16c.224-.144.496-.296.816-.456.32-.16.672-.312 1.056-.456.4-.144.824-.256 1.272-.336.448-.096.92-.144 1.416-.144.928 0 1.728.112 2.4.336.672.224 1.224.544 1.656.96.448.4.776.88.984 1.44.224.544.336 1.144.336 1.8 0 .768-.216 1.456-.648 2.064a4.053 4.053 0 0 1-1.632 1.392 4.64 4.64 0 0 1 2.136 1.512c.576.704.864 1.608.864 2.712 0 .736-.128 1.424-.384 2.064a4.351 4.351 0 0 1-1.176 1.632c-.528.448-1.2.808-2.016 1.08-.8.256-1.76.384-2.88.384"/></g><path d="M60.475 65.22c0 8.013-6.496 14.509-14.509 14.509s-11.729-6.326-11.729-14.34c0-8.012 3.716-14.677 11.73-14.677 8.012 0 14.508 6.496 14.508 14.508z"/><path d="M42.688 52.334h1.2a6.43 6.43 0 0 0 1.104-.096c.384-.08.728-.208 1.032-.384a2.36 2.36 0 0 0 .744-.744c.192-.304.288-.696.288-1.176 0-.384-.072-.712-.216-.984a1.955 1.955 0 0 0-.576-.672 2.151 2.151 0 0 0-.792-.384 3.759 3.759 0 0 0-.96-.12c-.72 0-1.36.112-1.92.336a8.045 8.045 0 0 0-1.488.72l-1.056-2.16c.224-.144.496-.296.816-.456.32-.16.672-.312 1.056-.456.4-.144.824-.256 1.272-.336.448-.096.92-.144 1.416-.144.928 0 1.728.112 2.4.336.672.224 1.224.544 1.656.96.448.4.776.88.984 1.44.224.544.336 1.144.336 1.8 0 .768-.216 1.456-.648 2.064a4.053 4.053 0 0 1-1.632 1.392" style="line-height:125%;-inkscape-font-specification:Ubuntu Medium" font-size="24" font-weight="500" letter-spacing="0" word-spacing="0" font-family="Ubuntu"/><path d="M-33.5 16a10.5 10.5 0 1 1-21 0 10.5 10.5 0 1 1 21 0z"/><text y="24.328" x="-50.636" style="line-height:125%;-inkscape-font-specification:Ubuntu Medium" font-size="24" font-weight="500" letter-spacing="0" word-spacing="0" font-family="Ubuntu"><tspan y="24.328" x="-50.636">3</tspan></text><path d="M-33 16a11 11 0 1 1-22 0 11 11 0 1 1 22 0z"/><path d="M-33.75 16a10.25 10.25 0 1 1-20.5 0 10.25 10.25 0 1 1 20.5 0z" stroke="#000" stroke-width="1.4999256"/><path d="M-34.407 43.508c-5.799 0-10.5 4.701-10.5 10.5 0 5.8 4.701 10.5 10.5 10.5 5.8 0 10.5-4.7 10.5-10.5 0-5.799-4.7-10.5-10.5-10.5zm-.625 1.813c.22 0 .42.019.625.031.661.04 1.27.142 1.781.313.672.224 1.225.521 1.657.937.448.4.792.909 1 1.469.224.544.312 1.125.312 1.781 0 .768-.193 1.455-.625 2.063a4.157 4.157 0 0 1-1.656 1.406c.864.304 1.596.796 2.156 1.5.576.704.844 1.615.844 2.719 0 .736-.119 1.422-.375 2.062a4.276 4.276 0 0 1-1.156 1.625c-.528.448-1.216.822-2.032 1.094-.558.179-1.191.29-1.906.344-.309.023-.63.031-.969.031-.432 0-.88-.03-1.343-.094a11.226 11.226 0 0 1-1.313-.219c-.4-.08-.758-.154-1.094-.25a4.62 4.62 0 0 1-.75-.312l.563-2.5c.336.16.829.354 1.469.562.64.192 1.43.282 2.375.282.395 0 .736-.016 1.062-.063.718-.103 1.271-.326 1.656-.656.56-.496.844-1.153.844-1.969 0-.528-.088-.96-.312-1.312a2.31 2.31 0 0 0-.907-.844c-.368-.224-.785-.358-1.28-.438a8.082 8.082 0 0 0-1.563-.156h-.969v-2.344h1.187c.368 0 .757-.03 1.125-.093.08-.017.144-.042.22-.063.291-.079.57-.204.812-.344.304-.192.558-.414.75-.718.192-.304.281-.708.281-1.188 0-.384-.075-.728-.219-1a1.951 1.951 0 0 0-.594-.656 2.088 2.088 0 0 0-.78-.375c-.083-.022-.167-.047-.25-.063a3.948 3.948 0 0 0-.72-.062c-.72 0-1.346.12-1.906.344a8.17 8.17 0 0 0-1.5.718l-1.062-2.156c.224-.144.523-.309.843-.469.32-.16.648-.324 1.032-.468.4-.144.833-.233 1.281-.313.448-.096.91-.156 1.406-.156z"/><path style="text-indent:0;text-align:start;line-height:normal;text-transform:none;block-progression:tb;marker:none;-inkscape-font-specification:Sans" d="M-34.415 40.044c-7.717 0-13.968 6.252-13.968 13.97 0 7.717 6.251 13.968 13.968 13.968 7.718 0 14-6.251 14-13.969 0-7.717-6.282-13.969-14-13.969zm0 .5c7.447 0 13.5 6.022 13.5 13.47 0 7.446-6.053 13.468-13.5 13.468s-13.468-6.022-13.468-13.469c0-7.447 6.021-13.469 13.468-13.469z" font-weight="400" color="#000" overflow="visible" font-family="Sans"/><path d="M-34.407 39.008A14.937 14.937 0 0 0-45 43.415c-5.858 5.858-5.858 15.33 0 21.187 5.726 5.726 14.9 5.841 20.782.375l-2.125-1.844c-4.788 4.24-12.106 4.083-16.688-.5-4.76-4.76-4.76-12.49 0-17.25a12.158 12.158 0 0 1 8.625-3.562v-2.813z"/><path d="M-16.915 58.178a16.712 16.712 0 1 1-33.424 0 16.712 16.712 0 1 1 33.424 0z"/><path d="M-13.339 42.57l16-.006v32.012l-16-16.012z"/><path d="M16.498 5.51c-5.8 0-10.5 4.7-10.5 10.5 0 5.799 4.7 10.5 10.5 10.5 5.799 0 10.5-4.701 10.5-10.5 0-5.8-4.701-10.5-10.5-10.5z"/><path d="M16.49 2.046C8.772 2.046 2.52 8.297 2.52 16.015c0 7.717 6.251 13.968 13.969 13.968 7.717 0 14-6.251 14-13.968 0-7.718-6.283-13.97-14-13.97zm0 .5c7.447 0 13.5 6.022 13.5 13.469 0 7.447-6.053 13.468-13.5 13.468S3.02 23.462 3.02 16.015 9.043 2.545 16.49 2.545z" style="text-indent:0;text-align:start;line-height:normal;text-transform:none;block-progression:tb;marker:none;-inkscape-font-specification:Sans" font-weight="400" color="#000" overflow="visible" font-family="Sans"/><path d="M16.498 1.01A14.937 14.937 0 0 0 5.904 5.416c-5.858 5.858-5.858 15.33 0 21.188 5.725 5.725 14.9 5.84 20.781.375l-2.125-1.844c-4.787 4.24-12.105 4.082-16.687-.5-4.76-4.76-4.76-12.49 0-17.25a12.158 12.158 0 0 1 8.625-3.563V1.01z"/><g style="line-height:125%;-inkscape-font-specification:Ubuntu Medium" font-size="24" font-weight="500" letter-spacing="0" word-spacing="0" font-family="Ubuntu"><path d="M15.185 23.284c-.362 0-.738-.027-1.127-.08-.375-.04-.738-.101-1.086-.182-.336-.067-.644-.14-.926-.22a4.155 4.155 0 0 1-.644-.262l.483-2.073c.282.134.69.288 1.228.463.536.16 1.2.241 1.992.241 1.06 0 1.824-.2 2.293-.603.47-.416.705-.966.705-1.65 0-.443-.094-.812-.282-1.107a1.886 1.886 0 0 0-.744-.704 2.982 2.982 0 0 0-1.087-.383 6.562 6.562 0 0 0-1.288-.12h-.825v-1.972h1.006c.309 0 .617-.027.926-.08a2.89 2.89 0 0 0 .865-.323c.255-.16.463-.369.624-.623.16-.255.241-.584.241-.986 0-.322-.06-.597-.18-.825a1.639 1.639 0 0 0-.484-.564 1.804 1.804 0 0 0-.664-.322 3.152 3.152 0 0 0-.805-.1c-.603 0-1.14.093-1.61.281-.469.175-.885.376-1.247.604l-.885-1.811c.188-.12.416-.248.684-.382.268-.134.563-.262.885-.383.336-.12.691-.214 1.067-.281.375-.08.771-.121 1.187-.121.778 0 1.449.094 2.012.282.563.187 1.026.456 1.388.804.376.336.651.738.825 1.208.188.456.282.959.282 1.509 0 .644-.18 1.22-.543 1.73-.349.51-.805.9-1.368 1.167a3.89 3.89 0 0 1 1.79 1.268c.483.59.725 1.348.725 2.274 0 .617-.108 1.194-.322 1.73-.215.524-.543.98-.986 1.369-.443.375-1.006.677-1.69.905-.671.215-1.476.322-2.415.322"/><path d="M15.185 23.284c-.362 0-.738-.027-1.127-.08-.375-.04-.738-.101-1.086-.182-.336-.067-.644-.14-.926-.22a4.155 4.155 0 0 1-.644-.262l.483-2.073c.282.134.69.288 1.228.463.536.16 1.2.241 1.992.241 1.06 0 1.824-.2 2.293-.603.47-.416.705-.966.705-1.65 0-.443-.094-.812-.282-1.107a1.886 1.886 0 0 0-.744-.704 2.982 2.982 0 0 0-1.087-.383 6.562 6.562 0 0 0-1.288-.12h-.825v-1.972h1.006c.309 0 .617-.027.926-.08a2.89 2.89 0 0 0 .865-.323c.255-.16.463-.369.624-.623.16-.255.241-.584.241-.986 0-.322-.06-.597-.18-.825a1.639 1.639 0 0 0-.484-.564 1.804 1.804 0 0 0-.664-.322 3.152 3.152 0 0 0-.805-.1c-.603 0-1.14.093-1.61.281-.469.175-.885.376-1.247.604l-.885-1.811c.188-.12.416-.248.684-.382.268-.134.563-.262.885-.383.336-.12.691-.214 1.067-.281.375-.08.771-.121 1.187-.121.778 0 1.449.094 2.012.282.563.187 1.026.456 1.388.804.376.336.651.738.825 1.208.188.456.282.959.282 1.509 0 .644-.18 1.22-.543 1.73-.349.51-.805.9-1.368 1.167a3.89 3.89 0 0 1 1.79 1.268c.483.59.725 1.348.725 2.274 0 .617-.108 1.194-.322 1.73-.215.524-.543.98-.986 1.369-.443.375-1.006.677-1.69.905-.671.215-1.476.322-2.415.322"/></g></svg><svg id="countdown" viewBox="0 0 32 32" width="32" height="32"><path d="M15.969 5.5C10.184 5.517 5.5 10.212 5.5 16s4.684 10.483 10.469 10.5H16c5.784-.017 10.469-4.712 10.469-10.5S21.784 5.517 16 5.5h-.031zm-.5 2.875c.18 0 .333.02.5.031H16a6.188 6.188 0 0 1 1.563.281c.588.197 1.09.48 1.468.844.393.35.662.76.844 1.25.196.477.312 1.02.313 1.594 0 .673-.216 1.248-.594 1.781a3.482 3.482 0 0 1-1.407 1.219 4.113 4.113 0 0 1 1.875 1.344c.505.617.75 1.407.75 2.375 0 .645-.119 1.251-.343 1.812a3.84 3.84 0 0 1-1.032 1.438c-.462.392-1.034.699-1.75.937-.48.154-1.073.234-1.687.282h-.031c-.269.022-.516.062-.813.062-.378 0-.78-.038-1.187-.094a9.412 9.412 0 0 1-1.125-.187c-.35-.07-.675-.166-.969-.25-.294-.098-.533-.166-.688-.25l.5-2.188c.295.14.72.318 1.282.5.56.169 1.266.25 2.094.25.331 0 .63-.024.906-.062.01-.002.02.001.031 0 .633-.09 1.13-.272 1.469-.563.49-.434.718-1.003.718-1.718 0-.463-.084-.848-.28-1.157a2.013 2.013 0 0 0-.782-.75A3.067 3.067 0 0 0 16 16.75c-.01-.002-.021.002-.031 0a6.836 6.836 0 0 0-1.313-.125h-.875v-2.063h1.063c.322 0 .646-.006.969-.062.057-.012.103-.045.156-.063.01-.002.022.003.031 0 .26-.068.505-.157.719-.28.266-.169.456-.39.625-.657.168-.266.25-.61.25-1.031 0-.337-.062-.637-.188-.875a1.717 1.717 0 0 0-.5-.594c-.196-.154-.42-.242-.687-.313-.073-.019-.144-.047-.219-.062-.01-.002-.021.002-.031 0a3.373 3.373 0 0 0-.594-.063c-.631 0-1.197.117-1.688.313-.49.182-.902.387-1.28.625l-.938-1.906c.196-.126.438-.235.719-.375.28-.14.57-.28.906-.406.35-.127.732-.243 1.125-.313a6 6 0 0 1 1.25-.125z"/><path d="M69.729 16a13.729 13.729 0 1 1-27.458 0 13.729 13.729 0 1 1 27.458 0z" stroke="#000" stroke-width=".5"/><path d="M66.5 16c0 5.799-4.701 10.5-10.5 10.5S45.5 21.799 45.5 16 50.201 5.5 56 5.5 66.5 10.201 66.5 16z"/><path d="M56 1a14.937 14.937 0 0 0-10.594 4.406c-5.858 5.858-5.858 15.33 0 21.188 5.858 5.858 15.33 5.858 21.188 0A14.937 14.937 0 0 0 71 16h-2.813c0 3.119-1.182 6.245-3.562 8.625-4.76 4.76-12.49 4.76-17.25 0s-4.76-12.49 0-17.25A12.158 12.158 0 0 1 56 3.812V1z"/><g style="line-height:125%;-inkscape-font-specification:Ubuntu Medium" font-size="24" font-weight="500" letter-spacing="0" word-spacing="0" font-family="Ubuntu"><path d="M55.028 24.688c-.432 0-.88-.032-1.344-.096-.448-.048-.88-.12-1.296-.216-.4-.08-.768-.168-1.104-.264a4.956 4.956 0 0 1-.768-.312l.576-2.472c.336.16.824.344 1.464.552.64.192 1.432.288 2.376.288 1.264 0 2.176-.24 2.736-.72.56-.496.84-1.152.84-1.968 0-.528-.112-.968-.336-1.32a2.25 2.25 0 0 0-.888-.84 3.557 3.557 0 0 0-1.296-.456 7.827 7.827 0 0 0-1.536-.144h-.984v-2.352h1.2a6.43 6.43 0 0 0 1.104-.096c.384-.08.728-.208 1.032-.384a2.36 2.36 0 0 0 .744-.744c.192-.304.288-.696.288-1.176 0-.384-.072-.712-.216-.984a1.955 1.955 0 0 0-.576-.672 2.151 2.151 0 0 0-.792-.384 3.76 3.76 0 0 0-.96-.12c-.72 0-1.36.112-1.92.336a8.045 8.045 0 0 0-1.488.72l-1.056-2.16c.224-.144.496-.296.816-.456.32-.16.672-.312 1.056-.456.4-.144.824-.256 1.272-.336.448-.096.92-.144 1.416-.144.928 0 1.728.112 2.4.336.672.224 1.224.544 1.656.96.448.4.776.88.984 1.44.224.544.336 1.144.336 1.8 0 .768-.216 1.456-.648 2.064a4.053 4.053 0 0 1-1.632 1.392 4.64 4.64 0 0 1 2.136 1.512c.576.704.864 1.608.864 2.712 0 .736-.128 1.424-.384 2.064a4.351 4.351 0 0 1-1.176 1.632c-.528.448-1.2.808-2.016 1.08-.8.256-1.76.384-2.88.384"/><path d="M55.028 24.688c-.432 0-.88-.032-1.344-.096-.448-.048-.88-.12-1.296-.216-.4-.08-.768-.168-1.104-.264a4.956 4.956 0 0 1-.768-.312l.576-2.472c.336.16.824.344 1.464.552.64.192 1.432.288 2.376.288 1.264 0 2.176-.24 2.736-.72.56-.496.84-1.152.84-1.968 0-.528-.112-.968-.336-1.32a2.25 2.25 0 0 0-.888-.84 3.557 3.557 0 0 0-1.296-.456 7.827 7.827 0 0 0-1.536-.144h-.984v-2.352h1.2a6.43 6.43 0 0 0 1.104-.096c.384-.08.728-.208 1.032-.384a2.36 2.36 0 0 0 .744-.744c.192-.304.288-.696.288-1.176 0-.384-.072-.712-.216-.984a1.955 1.955 0 0 0-.576-.672 2.151 2.151 0 0 0-.792-.384 3.76 3.76 0 0 0-.96-.12c-.72 0-1.36.112-1.92.336a8.045 8.045 0 0 0-1.488.72l-1.056-2.16c.224-.144.496-.296.816-.456.32-.16.672-.312 1.056-.456.4-.144.824-.256 1.272-.336.448-.096.92-.144 1.416-.144.928 0 1.728.112 2.4.336.672.224 1.224.544 1.656.96.448.4.776.88.984 1.44.224.544.336 1.144.336 1.8 0 .768-.216 1.456-.648 2.064a4.053 4.053 0 0 1-1.632 1.392 4.64 4.64 0 0 1 2.136 1.512c.576.704.864 1.608.864 2.712 0 .736-.128 1.424-.384 2.064a4.351 4.351 0 0 1-1.176 1.632c-.528.448-1.2.808-2.016 1.08-.8.256-1.76.384-2.88.384"/></g><path d="M56.616 46.142h3.787v3.883h-3.787zM90.623 33.922h14.848v9.83H90.623z"/><g style="line-height:125%;-inkscape-font-specification:Ubuntu Medium" font-size="24" font-weight="500" letter-spacing="0" word-spacing="0" font-family="Ubuntu"><path d="M97.79 44.63c-.432 0-.88-.031-1.344-.095-.448-.048-.88-.12-1.296-.216-.4-.08-.768-.168-1.104-.264a4.956 4.956 0 0 1-.768-.312l.576-2.472c.336.16.824.344 1.464.552.64.192 1.432.288 2.376.288 1.264 0 2.176-.24 2.736-.72.56-.496.84-1.152.84-1.968 0-.528-.112-.968-.336-1.32a2.25 2.25 0 0 0-.888-.84 3.557 3.557 0 0 0-1.296-.456 7.827 7.827 0 0 0-1.536-.144h-.984V34.31h1.2a6.43 6.43 0 0 0 1.104-.096c.384-.08.728-.208 1.032-.384a2.36 2.36 0 0 0 .744-.744c.192-.304.288-.696.288-1.176 0-.384-.072-.712-.216-.984a1.955 1.955 0 0 0-.576-.672 2.151 2.151 0 0 0-.792-.384 3.76 3.76 0 0 0-.96-.12c-.72 0-1.36.112-1.92.336a8.045 8.045 0 0 0-1.488.72l-1.056-2.16c.224-.144.496-.296.816-.456.32-.16.672-.312 1.056-.456.4-.144.824-.256 1.272-.336.448-.096.92-.144 1.416-.144.928 0 1.728.112 2.4.336.672.224 1.224.544 1.656.96.448.4.776.88.984 1.44.224.544.336 1.144.336 1.8 0 .768-.216 1.456-.648 2.064a4.053 4.053 0 0 1-1.632 1.392 4.64 4.64 0 0 1 2.136 1.512c.576.704.864 1.608.864 2.712 0 .736-.128 1.424-.384 2.064a4.351 4.351 0 0 1-1.176 1.632c-.528.448-1.2.808-2.016 1.08-.8.256-1.76.384-2.88.384"/><path d="M97.79 44.63c-.432 0-.88-.031-1.344-.095-.448-.048-.88-.12-1.296-.216-.4-.08-.768-.168-1.104-.264a4.956 4.956 0 0 1-.768-.312l.576-2.472c.336.16.824.344 1.464.552.64.192 1.432.288 2.376.288 1.264 0 2.176-.24 2.736-.72.56-.496.84-1.152.84-1.968 0-.528-.112-.968-.336-1.32a2.25 2.25 0 0 0-.888-.84 3.557 3.557 0 0 0-1.296-.456 7.827 7.827 0 0 0-1.536-.144h-.984V34.31h1.2a6.43 6.43 0 0 0 1.104-.096c.384-.08.728-.208 1.032-.384a2.36 2.36 0 0 0 .744-.744c.192-.304.288-.696.288-1.176 0-.384-.072-.712-.216-.984a1.955 1.955 0 0 0-.576-.672 2.151 2.151 0 0 0-.792-.384 3.76 3.76 0 0 0-.96-.12c-.72 0-1.36.112-1.92.336a8.045 8.045 0 0 0-1.488.72l-1.056-2.16c.224-.144.496-.296.816-.456.32-.16.672-.312 1.056-.456.4-.144.824-.256 1.272-.336.448-.096.92-.144 1.416-.144.928 0 1.728.112 2.4.336.672.224 1.224.544 1.656.96.448.4.776.88.984 1.44.224.544.336 1.144.336 1.8 0 .768-.216 1.456-.648 2.064a4.053 4.053 0 0 1-1.632 1.392 4.64 4.64 0 0 1 2.136 1.512c.576.704.864 1.608.864 2.712 0 .736-.128 1.424-.384 2.064a4.351 4.351 0 0 1-1.176 1.632c-.528.448-1.2.808-2.016 1.08-.8.256-1.76.384-2.88.384"/></g><path d="M60.475 65.22c0 8.013-6.496 14.509-14.509 14.509s-11.729-6.326-11.729-14.34c0-8.012 3.716-14.677 11.73-14.677 8.012 0 14.508 6.496 14.508 14.508z"/><path d="M42.688 52.334h1.2a6.43 6.43 0 0 0 1.104-.096c.384-.08.728-.208 1.032-.384a2.36 2.36 0 0 0 .744-.744c.192-.304.288-.696.288-1.176 0-.384-.072-.712-.216-.984a1.955 1.955 0 0 0-.576-.672 2.151 2.151 0 0 0-.792-.384 3.759 3.759 0 0 0-.96-.12c-.72 0-1.36.112-1.92.336a8.045 8.045 0 0 0-1.488.72l-1.056-2.16c.224-.144.496-.296.816-.456.32-.16.672-.312 1.056-.456.4-.144.824-.256 1.272-.336.448-.096.92-.144 1.416-.144.928 0 1.728.112 2.4.336.672.224 1.224.544 1.656.96.448.4.776.88.984 1.44.224.544.336 1.144.336 1.8 0 .768-.216 1.456-.648 2.064a4.053 4.053 0 0 1-1.632 1.392" style="line-height:125%;-inkscape-font-specification:Ubuntu Medium" font-size="24" font-weight="500" letter-spacing="0" word-spacing="0" font-family="Ubuntu"/><path d="M-33.5 16a10.5 10.5 0 1 1-21 0 10.5 10.5 0 1 1 21 0z"/><text y="24.328" x="-50.636" style="line-height:125%;-inkscape-font-specification:Ubuntu Medium" font-size="24" font-weight="500" letter-spacing="0" word-spacing="0" font-family="Ubuntu"><tspan y="24.328" x="-50.636">3</tspan></text><path d="M16-54.5c-5.799 0-10.5 4.701-10.5 10.5S10.201-33.5 16-33.5v-21z"/><text y="-36.702" x="10.184" style="line-height:125%;-inkscape-font-specification:Ubuntu Medium" font-size="21.033" font-weight="500" letter-spacing="0" word-spacing="0" font-family="Ubuntu"><tspan y="-36.702" x="10.184">3</tspan></text><path d="M25.5-54.5C31.299-54.5 36-49.799 36-44s-4.701 10.5-10.5 10.5v-21z"/><path style="text-indent:0;text-align:start;line-height:normal;text-transform:none;block-progression:tb;marker:none;-inkscape-font-specification:Sans" d="M15.986 2.042c-7.718 0-13.969 6.252-13.969 13.97 0 7.716 6.251 13.968 13.969 13.968 7.717 0 14-6.252 14-13.969s-6.283-13.969-14-13.969zm0 .5c7.447 0 13.5 6.022 13.5 13.47 0 7.446-6.053 13.468-13.5 13.468S2.517 23.458 2.517 16.01c0-7.447 6.022-13.469 13.469-13.469z" font-weight="400" color="#000" overflow="visible" font-family="Sans"/><path d="M16 1A14.937 14.937 0 0 0 5.406 5.406c-5.858 5.858-5.858 15.33 0 21.188 5.858 5.858 15.33 5.858 21.188 0l.031-.032-1.969-1.968-.031.031c-4.76 4.76-12.49 4.76-17.25 0s-4.76-12.49 0-17.25A12.158 12.158 0 0 1 16 3.812V1zM-15.218 71.94c-5.784.018-10.468 4.712-10.468 10.5 0 5.789 4.684 10.483 10.468 10.5h.032c5.784-.017 10.468-4.711 10.468-10.5 0-5.788-4.684-10.482-10.468-10.5h-.032zm-.5 2.876c.18 0 .334.02.5.03.01.002.021 0 .032 0a6.188 6.188 0 0 1 1.562.282c.589.197 1.09.48 1.469.844.392.35.661.76.844 1.25.196.477.312 1.019.312 1.594 0 .673-.215 1.248-.594 1.78a3.482 3.482 0 0 1-1.406 1.22 4.113 4.113 0 0 1 1.875 1.343c.505.617.75 1.408.75 2.375 0 .645-.12 1.252-.344 1.813a3.84 3.84 0 0 1-1.03 1.437c-.464.393-1.036.7-1.75.938-.482.154-1.074.234-1.688.281h-.032c-.268.023-.515.063-.812.063-.379 0-.781-.038-1.188-.094a9.412 9.412 0 0 1-1.125-.188c-.35-.07-.674-.165-.968-.25-.295-.098-.534-.165-.688-.25l.5-2.187c.295.14.72.318 1.281.5.561.168 1.267.25 2.094.25.332 0 .63-.025.906-.063.011-.001.02.002.032 0 .632-.09 1.13-.272 1.468-.562.491-.435.72-1.004.72-1.719 0-.463-.086-.848-.282-1.156a2.013 2.013 0 0 0-.781-.75 3.067 3.067 0 0 0-1.125-.406c-.01-.002-.022.002-.032 0a6.836 6.836 0 0 0-1.312-.125h-.875v-2.063h1.062c.323 0 .647-.006.97-.062.056-.012.102-.045.155-.063.01-.002.022.003.032 0 .259-.068.505-.158.718-.281.267-.168.457-.39.625-.656.169-.267.25-.61.25-1.032 0-.336-.061-.636-.187-.875a1.717 1.717 0 0 0-.5-.593c-.197-.155-.421-.243-.688-.313-.072-.019-.144-.047-.218-.062-.01-.002-.022.001-.032 0a3.373 3.373 0 0 0-.593-.063c-.631 0-1.197.116-1.688.313-.49.182-.903.386-1.281.625l-.938-1.907c.197-.126.439-.234.72-.375.28-.14.569-.28.905-.406.35-.126.733-.242 1.125-.312a6 6 0 0 1 1.25-.125z"/><path d="M-1.464 82.447a13.729 13.729 0 1 1-27.458 0 13.729 13.729 0 1 1 27.458 0z" stroke="#000" stroke-width=".5"/><path d="M-15.193 67.447a14.937 14.937 0 0 0-10.594 4.406c-5.858 5.858-5.858 15.33 0 21.188 5.859 5.858 15.33 5.858 21.188 0A14.937 14.937 0 0 0-.193 82.447h-2.812c0 3.119-1.183 6.245-3.563 8.625-4.76 4.76-12.49 4.76-17.25 0s-4.76-12.49 0-17.25a12.158 12.158 0 0 1 8.625-3.563v-2.812z"/><path d="M-15.186 66.44h16v31.865l-16-15.864z"/></svg><svg id="countdown.svg.2016_06_16_20_12_00.0" viewBox="0 0 32 32" width="32" height="32"><path d="M69.729 16a13.729 13.729 0 1 1-27.458 0 13.729 13.729 0 1 1 27.458 0z" stroke="#000" stroke-width=".5"/><path d="M66.5 16c0 5.799-4.701 10.5-10.5 10.5S45.5 21.799 45.5 16 50.201 5.5 56 5.5 66.5 10.201 66.5 16z"/><path d="M56 1a14.937 14.937 0 0 0-10.594 4.406c-5.858 5.858-5.858 15.33 0 21.188 5.858 5.858 15.33 5.858 21.188 0A14.937 14.937 0 0 0 71 16h-2.813c0 3.119-1.182 6.245-3.562 8.625-4.76 4.76-12.49 4.76-17.25 0s-4.76-12.49 0-17.25A12.158 12.158 0 0 1 56 3.812V1z"/><g style="line-height:125%;-inkscape-font-specification:Ubuntu Medium" font-size="24" font-weight="500" letter-spacing="0" word-spacing="0" font-family="Ubuntu"><path d="M55.028 24.688c-.432 0-.88-.032-1.344-.096-.448-.048-.88-.12-1.296-.216-.4-.08-.768-.168-1.104-.264a4.956 4.956 0 0 1-.768-.312l.576-2.472c.336.16.824.344 1.464.552.64.192 1.432.288 2.376.288 1.264 0 2.176-.24 2.736-.72.56-.496.84-1.152.84-1.968 0-.528-.112-.968-.336-1.32a2.25 2.25 0 0 0-.888-.84 3.557 3.557 0 0 0-1.296-.456 7.827 7.827 0 0 0-1.536-.144h-.984v-2.352h1.2a6.43 6.43 0 0 0 1.104-.096c.384-.08.728-.208 1.032-.384a2.36 2.36 0 0 0 .744-.744c.192-.304.288-.696.288-1.176 0-.384-.072-.712-.216-.984a1.955 1.955 0 0 0-.576-.672 2.151 2.151 0 0 0-.792-.384 3.76 3.76 0 0 0-.96-.12c-.72 0-1.36.112-1.92.336a8.045 8.045 0 0 0-1.488.72l-1.056-2.16c.224-.144.496-.296.816-.456.32-.16.672-.312 1.056-.456.4-.144.824-.256 1.272-.336.448-.096.92-.144 1.416-.144.928 0 1.728.112 2.4.336.672.224 1.224.544 1.656.96.448.4.776.88.984 1.44.224.544.336 1.144.336 1.8 0 .768-.216 1.456-.648 2.064a4.053 4.053 0 0 1-1.632 1.392 4.64 4.64 0 0 1 2.136 1.512c.576.704.864 1.608.864 2.712 0 .736-.128 1.424-.384 2.064a4.351 4.351 0 0 1-1.176 1.632c-.528.448-1.2.808-2.016 1.08-.8.256-1.76.384-2.88.384"/><path d="M55.028 24.688c-.432 0-.88-.032-1.344-.096-.448-.048-.88-.12-1.296-.216-.4-.08-.768-.168-1.104-.264a4.956 4.956 0 0 1-.768-.312l.576-2.472c.336.16.824.344 1.464.552.64.192 1.432.288 2.376.288 1.264 0 2.176-.24 2.736-.72.56-.496.84-1.152.84-1.968 0-.528-.112-.968-.336-1.32a2.25 2.25 0 0 0-.888-.84 3.557 3.557 0 0 0-1.296-.456 7.827 7.827 0 0 0-1.536-.144h-.984v-2.352h1.2a6.43 6.43 0 0 0 1.104-.096c.384-.08.728-.208 1.032-.384a2.36 2.36 0 0 0 .744-.744c.192-.304.288-.696.288-1.176 0-.384-.072-.712-.216-.984a1.955 1.955 0 0 0-.576-.672 2.151 2.151 0 0 0-.792-.384 3.76 3.76 0 0 0-.96-.12c-.72 0-1.36.112-1.92.336a8.045 8.045 0 0 0-1.488.72l-1.056-2.16c.224-.144.496-.296.816-.456.32-.16.672-.312 1.056-.456.4-.144.824-.256 1.272-.336.448-.096.92-.144 1.416-.144.928 0 1.728.112 2.4.336.672.224 1.224.544 1.656.96.448.4.776.88.984 1.44.224.544.336 1.144.336 1.8 0 .768-.216 1.456-.648 2.064a4.053 4.053 0 0 1-1.632 1.392 4.64 4.64 0 0 1 2.136 1.512c.576.704.864 1.608.864 2.712 0 .736-.128 1.424-.384 2.064a4.351 4.351 0 0 1-1.176 1.632c-.528.448-1.2.808-2.016 1.08-.8.256-1.76.384-2.88.384"/></g><path d="M56.616 46.142h3.787v3.883h-3.787zM90.623 33.922h14.848v9.83H90.623z"/><g style="line-height:125%;-inkscape-font-specification:Ubuntu Medium" font-size="24" font-weight="500" letter-spacing="0" word-spacing="0" font-family="Ubuntu"><path d="M97.79 44.63c-.432 0-.88-.031-1.344-.095-.448-.048-.88-.12-1.296-.216-.4-.08-.768-.168-1.104-.264a4.956 4.956 0 0 1-.768-.312l.576-2.472c.336.16.824.344 1.464.552.64.192 1.432.288 2.376.288 1.264 0 2.176-.24 2.736-.72.56-.496.84-1.152.84-1.968 0-.528-.112-.968-.336-1.32a2.25 2.25 0 0 0-.888-.84 3.557 3.557 0 0 0-1.296-.456 7.827 7.827 0 0 0-1.536-.144h-.984V34.31h1.2a6.43 6.43 0 0 0 1.104-.096c.384-.08.728-.208 1.032-.384a2.36 2.36 0 0 0 .744-.744c.192-.304.288-.696.288-1.176 0-.384-.072-.712-.216-.984a1.955 1.955 0 0 0-.576-.672 2.151 2.151 0 0 0-.792-.384 3.76 3.76 0 0 0-.96-.12c-.72 0-1.36.112-1.92.336a8.045 8.045 0 0 0-1.488.72l-1.056-2.16c.224-.144.496-.296.816-.456.32-.16.672-.312 1.056-.456.4-.144.824-.256 1.272-.336.448-.096.92-.144 1.416-.144.928 0 1.728.112 2.4.336.672.224 1.224.544 1.656.96.448.4.776.88.984 1.44.224.544.336 1.144.336 1.8 0 .768-.216 1.456-.648 2.064a4.053 4.053 0 0 1-1.632 1.392 4.64 4.64 0 0 1 2.136 1.512c.576.704.864 1.608.864 2.712 0 .736-.128 1.424-.384 2.064a4.351 4.351 0 0 1-1.176 1.632c-.528.448-1.2.808-2.016 1.08-.8.256-1.76.384-2.88.384"/><path d="M97.79 44.63c-.432 0-.88-.031-1.344-.095-.448-.048-.88-.12-1.296-.216-.4-.08-.768-.168-1.104-.264a4.956 4.956 0 0 1-.768-.312l.576-2.472c.336.16.824.344 1.464.552.64.192 1.432.288 2.376.288 1.264 0 2.176-.24 2.736-.72.56-.496.84-1.152.84-1.968 0-.528-.112-.968-.336-1.32a2.25 2.25 0 0 0-.888-.84 3.557 3.557 0 0 0-1.296-.456 7.827 7.827 0 0 0-1.536-.144h-.984V34.31h1.2a6.43 6.43 0 0 0 1.104-.096c.384-.08.728-.208 1.032-.384a2.36 2.36 0 0 0 .744-.744c.192-.304.288-.696.288-1.176 0-.384-.072-.712-.216-.984a1.955 1.955 0 0 0-.576-.672 2.151 2.151 0 0 0-.792-.384 3.76 3.76 0 0 0-.96-.12c-.72 0-1.36.112-1.92.336a8.045 8.045 0 0 0-1.488.72l-1.056-2.16c.224-.144.496-.296.816-.456.32-.16.672-.312 1.056-.456.4-.144.824-.256 1.272-.336.448-.096.92-.144 1.416-.144.928 0 1.728.112 2.4.336.672.224 1.224.544 1.656.96.448.4.776.88.984 1.44.224.544.336 1.144.336 1.8 0 .768-.216 1.456-.648 2.064a4.053 4.053 0 0 1-1.632 1.392 4.64 4.64 0 0 1 2.136 1.512c.576.704.864 1.608.864 2.712 0 .736-.128 1.424-.384 2.064a4.351 4.351 0 0 1-1.176 1.632c-.528.448-1.2.808-2.016 1.08-.8.256-1.76.384-2.88.384"/></g><path d="M60.475 65.22c0 8.013-6.496 14.509-14.509 14.509s-11.729-6.326-11.729-14.34c0-8.012 3.716-14.677 11.73-14.677 8.012 0 14.508 6.496 14.508 14.508z"/><path d="M42.688 52.334h1.2a6.43 6.43 0 0 0 1.104-.096c.384-.08.728-.208 1.032-.384a2.36 2.36 0 0 0 .744-.744c.192-.304.288-.696.288-1.176 0-.384-.072-.712-.216-.984a1.955 1.955 0 0 0-.576-.672 2.151 2.151 0 0 0-.792-.384 3.759 3.759 0 0 0-.96-.12c-.72 0-1.36.112-1.92.336a8.045 8.045 0 0 0-1.488.72l-1.056-2.16c.224-.144.496-.296.816-.456.32-.16.672-.312 1.056-.456.4-.144.824-.256 1.272-.336.448-.096.92-.144 1.416-.144.928 0 1.728.112 2.4.336.672.224 1.224.544 1.656.96.448.4.776.88.984 1.44.224.544.336 1.144.336 1.8 0 .768-.216 1.456-.648 2.064a4.053 4.053 0 0 1-1.632 1.392" style="line-height:125%;-inkscape-font-specification:Ubuntu Medium" font-size="24" font-weight="500" letter-spacing="0" word-spacing="0" font-family="Ubuntu"/><path style="text-indent:0;text-align:start;line-height:normal;text-transform:none;block-progression:tb;marker:none;-inkscape-font-specification:Sans" d="M16.496 2.046c-7.717 0-13.968 6.251-13.968 13.969 0 7.717 6.251 13.968 13.968 13.968 7.718 0 14-6.251 14-13.968 0-7.718-6.282-13.97-14-13.97zm0 .5c7.447 0 13.5 6.022 13.5 13.469 0 7.447-6.053 13.468-13.5 13.468S3.028 23.462 3.028 16.015s6.021-13.47 13.468-13.47z" font-weight="400" color="#000" overflow="visible" font-family="Sans"/><path d="M-33.5 16a10.5 10.5 0 1 1-21 0 10.5 10.5 0 1 1 21 0z"/><text y="24.328" x="-50.636" style="line-height:125%;-inkscape-font-specification:Ubuntu Medium" font-size="24" font-weight="500" letter-spacing="0" word-spacing="0" font-family="Ubuntu"><tspan y="24.328" x="-50.636">3</tspan></text><path d="M16-54.5c-5.799 0-10.5 4.701-10.5 10.5S10.201-33.5 16-33.5v-21z"/><text y="-36.702" x="10.184" style="line-height:125%;-inkscape-font-specification:Ubuntu Medium" font-size="21.033" font-weight="500" letter-spacing="0" word-spacing="0" font-family="Ubuntu"><tspan y="-36.702" x="10.184">3</tspan></text><path d="M25.5-54.5C31.299-54.5 36-49.799 36-44s-4.701 10.5-10.5 10.5v-21z"/></svg><svg id="drums" viewBox="0 0 32 32"><path d="M26.773 21.362c.527-.982.704-1.94.5-2.893-.199.526-.497 1.082-.81 1.588l-.13-.702c.316-.589.582-1.163.732-1.756l-.96-4.182a11.22 11.22 0 0 1-.592.947l-.099-.601c.4-.587.665-1.16.783-1.772.08-.463.076-.929-.06-1.381l2.758-.585.737-.195c.151-.045.27-.108.304-.174.103-.113.14-.261.113-.445-.058-.284-.285-.49-.537-.414-.032-.018-.417.07-.467.086 0 0-1.305.311-3.312.752a5.162 5.162 0 0 0-.705-.885c-.182-.603-.565-1.146-1.084-1.593l6.73-2.331.689-.263c.118-.063.254-.159.289-.224.07-.13.108-.28.03-.448-.076-.251-.353-.442-.605-.366-.033-.018-.402.121-.452.136l-7.643 2.853c-1.095-.63-2.512-1.053-4.167-1.267l-.01-.216c-.028-.183-.142-.286-.275-.274-.133.013-.188.194-.176.328l-.002.083c-2.12-.211-4.585-.017-7.112.608-.586.15-1.172.299-1.725.465l-.03-.1c-.029-.184-.142-.287-.275-.274-.133.013-.189.194-.176.327l.046.151C5.842 7.431 3.218 9.1 1.704 10.901l.05-.016c-.028-.183-.141-.286-.275-.273-.133.012-.188.194-.175.327l.07.417C.477 12.56.125 13.846.39 15l.015.05a3.64 3.64 0 0 0-.02 1.844c.06.201.121.402.232.588.966 1.656 3.261 2.72 6.225 3.088l.053.45c-2.219-.264-4.046-.865-5.33-1.849l1.085 3.87c.968 1.573 2.78 2.672 5.123 3.255 0 0-.018.033.015.05l.086.468c-2.063-.475-3.765-1.388-4.876-2.617l.091.302c.48 1.775 2.356 2.992 4.998 3.567l.046.151c.028.184.141.287.274.274.134-.013.189-.194.176-.327 2.347.416 5.192.3 8.187-.412a22.69 22.69 0 0 0 1.81-.546c.046.151.159.254.26.224.133-.013.188-.194.175-.327l-.015-.05c3.474-1.213 6.155-3.146 7.46-5.185.03.1.13.153.23.123.133-.013.188-.194.175-.327l-.09-.302zm-1.723-7.078l.084.55c-.361.439-.806.874-1.3 1.325-1.671 1.464-3.916 2.662-6.417 3.553l-.071-.417-.016-.05c3.457-1.18 6.201-2.995 7.72-4.961zm-23.866.805c-.726-3.045 4.013-6.613 10.455-8.171 4.015-.964 7.735-.907 10.169-.022A4153.031 4153.031 0 0 1 7.9 12.076c-.268.11-.806.326-1.95.808a.289.289 0 0 0-.297-.075c-.151.046-.576.366-.5.617.06.201.61.2.727.138a.355.355 0 0 0 .241-.293c.367-.055 1.036-.202 2.178-.601l14.737-5.157c.816.522 1.345 1.185 1.555 1.972l.038.4c-6.874 1.58-19.168 4.38-19.218 4.396-.284.058-.837.225-2.042.506-.08-.085-.179-.138-.28-.108-.15.046-.623.298-.58.532.044.234.574.266.708.253.133-.013.236-.126.273-.275.383-.005 1.05-.07 2.236-.317l18.807-3.943c-.726 2.687-4.88 5.558-10.301 6.864-6.492 1.573-12.29.359-13.048-2.704zm6.206 6.028l-.071-.417c1.69.149 3.62.088 5.606-.237.652-.114 1.27-.246 1.939-.392.72-.162 1.39-.392 2.044-.59l.071.418a19.24 19.24 0 0 1-2.044.59 16.14 16.14 0 0 1-1.939.392c-2.02.307-3.916.385-5.606.236zm9.13 5.448c-.636.165-1.254.296-1.905.41-2.271.384-4.414.371-6.281.002l-.101-.518c1.866.37 3.992.414 6.263.031.6-.099 1.22-.23 1.855-.395a21.764 21.764 0 0 0 1.778-.563l.069.5c-.52.185-1.092.384-1.677.533zm8.493-4.672c-1.61 1.664-3.809 3.013-6.295 3.955l-.086-.468c3.293-1.267 5.909-3.235 7.367-5.403l.114.651c-.344.406-.705.844-1.1 1.265z"/></svg><svg id="loop" viewBox="0 0 32 32" width="32" height="32"><path style="text-indent:0;text-align:start;line-height:normal;text-transform:none;block-progression:tb;marker:none;-inkscape-font-specification:Sans" d="M22.5 2.719c-.346.055-.348.384-.344.75V6.75H8.406c-4.115 0-7.5 3.385-7.5 7.5v4.531c0 .9.094 2.907.094 2.907l4.656-4.438v-3c0-1.646 1.104-2.875 2.75-2.875h13.75V14.5c-.007.594.52.964.938.563l6-5.594c.287-.286.287-.683 0-.969l-6-5.594a.697.697 0 0 0-.594-.187zm8.656 8.531L26.5 15.688v3c0 1.646-1.104 2.875-2.75 2.875H10v-3.125c.007-.595-.519-.964-.938-.563l-6 5.594c-.287.285-.287.683 0 .968l6 5.594c.161.154.38.222.594.188.346-.055.348-.384.344-.75v-3.282h13.75c4.115 0 7.5-3.384 7.5-7.5v-4.53c0-.901-.094-2.907-.094-2.907z" font-weight="400" color="#000" overflow="visible" font-family="Sans"/></svg><svg id="menu-dots" width="32" height="32"><g transform="matrix(0 -1.55556 1.55625 0 -2.675 -1602.341)"><rect width="4" height="4" x="-1042.362" y="10" ry="0"/><rect ry="0" y="10" x="-1035.362" height="4" width="4"/><rect ry="0" y="10" x="-1049.362" height="4" width="4"/></g></svg><svg id="menu" width="32" height="32"><g transform="matrix(0 -1.33333 1.25 0 1 -1371.15)"><rect width="4" height="24" x="-1042.362" ry="0"/><rect ry="0" x="-1035.362" height="24" width="4"/><rect ry="0" x="-1049.362" height="24" width="4"/></g></svg><svg id="minus" viewBox="0 0 32 32" width="32" height="32"><path d="M6 14.56v2.88h20v-2.88H6z"/></svg><svg id="pen" viewBox="0 0 32 32" width="32" height="32"><path d="M26.299 11.723l-16.12 16.188-6.09-6.089 16.189-16.12zm4.138-6.949c.803.803.737 2.14-.134 3.011l-2.819 2.82-6.089-6.09 2.82-2.818c.87-.87 2.208-.937 3.01-.134zM3.141 23.172l5.687 5.687L1 31z"/></svg><svg id="play" viewBox="0 0 32 32" width="32" height="32"><path d="M16 1C7.715 1 1 7.715 1 16s6.715 15 15 15 15-6.715 15-15S24.285 1 16 1zm0 2.813c6.731 0 12.188 5.456 12.188 12.187 0 6.731-5.457 12.188-12.188 12.188C9.269 28.188 3.812 22.73 3.812 16 3.813 9.269 9.27 3.812 16 3.812zM13.062 5.78c-.59.09-1.069.654-1.062 1.25V24.97c-.012.968 1.38 1.59 2.094.937l9.75-9c.49-.465.49-1.347 0-1.812l-9.75-9a1.27 1.27 0 0 0-1.031-.313z"/></svg><svg id="playback-range" viewBox="0 0 32 32" width="32" height="32"><path d="M14.26 4.408v8.077c0 1.124.567.716.927.422l4.684-4.053a.543.543 0 0 0 0-.816l-4.684-4.052c-.48-.369-.919-.433-.926.422zM.002 22.666V24h32v-1.334h-32z"/><path d="M8 29.333h2.666v-12H8v12zM22.666 29.333h2.666v-12h-2.666v12zM30.667 29.333H32v-12h-1.333v12zM0 29.333h1.333v-12H0v12z"/><path d="M9.314 21.333v4h13.813v-4H9.314z"/><path style="text-indent:0;text-align:start;line-height:normal;text-transform:none;block-progression:tb;marker:none;-inkscape-font-specification:Sans" d="M16.282.541c-4.41 0-8.005 3.595-8.005 8.005s3.594 8.004 8.005 8.004c4.41 0 8.004-3.594 8.004-8.004S20.692.54 16.282.54zm0 1.342a6.65 6.65 0 0 1 6.662 6.663 6.65 6.65 0 0 1-6.662 6.662 6.65 6.65 0 0 1-6.663-6.662 6.65 6.65 0 0 1 6.663-6.663z" font-weight="400" color="#000" overflow="visible" font-family="Sans"/></svg><svg id="playlist-mode" viewBox="0 0 32 32" width="32" height="32"><path d="M6.983 6.225v8.077c0 1.124.567.716.927.422l4.684-4.053a.543.543 0 0 0 0-.816L7.91 5.803c-.48-.37-.92-.433-.927.422zM2.666 27.336v2.666h26.668v-2.666H2.666z"/><path style="text-indent:0;text-align:start;line-height:normal;text-transform:none;block-progression:tb;marker:none;-inkscape-font-specification:Sans" d="M9.005 2.358C4.595 2.358 1 5.952 1 10.363c0 4.41 3.594 8.004 8.005 8.004 4.41 0 8.004-3.594 8.004-8.004s-3.594-8.005-8.004-8.005zm0 1.342a6.65 6.65 0 0 1 6.662 6.663 6.65 6.65 0 0 1-6.662 6.662 6.65 6.65 0 0 1-6.663-6.662A6.65 6.65 0 0 1 9.005 3.7z" font-weight="400" color="#000" overflow="visible" font-family="Sans"/><path d="M2.666 20.927v2.666h26.668v-2.666H2.666zM18.424 13.988l-1.83 2.666h12.74v-2.666h-10.91zM18.74 7.006v2.666h10.594V7.006H18.739z"/></svg><svg id="plus" viewBox="0 0 32 32" width="32" height="32"><path d="M14.56 6v8.56H6v2.88h8.56V26h2.88v-8.56H26v-2.88h-8.56V6z"/></svg><svg id="preferences" viewBox="0 0 32 32" width="32" height="32"><g><path d="M1 24.571h18.214v2.143H1zM25.643 24.571H31v2.143h-5.357zM24.571 28.824c0 1.202-.959 2.176-2.142 2.176-1.184 0-2.143-.974-2.143-2.176v-6.362c0-1.202.96-2.176 2.143-2.176 1.183 0 2.142.974 2.142 2.176v6.362z"/><g><path d="M1 14.929h5.357v2.142H1zM12.786 14.929H31v2.142H12.786zM11.714 19.18c0 1.203-.96 2.177-2.143 2.177-1.183 0-2.142-.974-2.142-2.176v-6.362c0-1.202.959-2.176 2.142-2.176 1.184 0 2.143.974 2.143 2.176v6.362z"/></g><g><path d="M1 5.286h18.214v2.143H1zM25.643 5.286H31v2.143h-5.357zM24.571 9.538c0 1.202-.959 2.176-2.142 2.176-1.184 0-2.143-.974-2.143-2.176V3.176c0-1.202.96-2.176 2.143-2.176 1.183 0 2.142.974 2.142 2.176v6.362z"/></g></g></svg><svg id="save" viewBox="0 0 32 32" width="32" height="32"><path d="M75.51 12.889H72.4V8.222h-6.223v4.667h-3.111l6.222 6.222m10.889 1.556h-6.222a4.667 4.667 0 0 1-4.667 4.666 4.667 4.667 0 0 1-4.667-4.666H58.4V5.11h21.778m0-3.111H58.399a3.11 3.11 0 0 0-3.11 3.111V26.89A3.111 3.111 0 0 0 58.398 30h21.778a3.111 3.111 0 0 0 3.111-3.111V5.11A3.111 3.111 0 0 0 80.177 2zM93.188 2a3.134 3.134 0 0 0-3.126 3.125v21.75c0 1.629 1.497 3.125 3.126 3.125h21.78c1.63 0 3.094-1.496 3.094-3.125V5.125c0-1.629-1.464-3.125-3.093-3.125H93.188zm0 3.125h21.78v15.531h-6.218c-3.111.016-6.233.007-9.344 0h-6.219V5.125zm7.78 3.094v4.656h-3.124l6.219 6.25 6.218-6.25h-3.094V8.219h-6.218zm10.563 15a2 2 0 1 1 0 4 2 2 0 0 1 0-4z"/><path style="text-indent:0;text-align:start;line-height:normal;text-transform:none;block-progression:tb;marker:none;-inkscape-font-specification:Sans" d="M4.5 18.656C2.4 18.656.656 20.4.656 22.5v4.344c0 2.1 1.744 3.812 3.844 3.812h23c2.1 0 3.844-1.712 3.844-3.812V22.5c0-2.1-1.744-3.844-3.844-3.844h-23zm0 2.688h23c.67 0 1.156.486 1.156 1.156v4.344c0 .67-.486 1.156-1.156 1.156h-23c-.67 0-1.156-.487-1.156-1.156V22.5c0-.67.486-1.156 1.156-1.156z" font-weight="400" color="#000" overflow="visible" font-family="Sans"/><path d="M-79.763 21.74v4.469c0 1.629 1.465 3.125 3.094 3.125h21.781c1.63 0 3.125-1.496 3.125-3.125v-4.47z"/><rect width="19" height="11.146" x="-75.263" y="14.772" rx="1" ry="1" stroke="#f1ffff" stroke-width="1.333"/><path d="M-32.142 4.563v4.656h-3.094l6.22 6.219 6.218-6.22h-3.094V4.564h-6.25zm-7.75 14.53c-1.727 0-3.125 1.383-3.125 3.095v4.687c0 1.629 1.496 3.125 3.125 3.125h21.75c1.629 0 3.125-1.496 3.125-3.125v-4.688c0-1.628-1.496-3.093-3.125-3.093h-21.75zm19.125 3.25a2 2 0 1 1 0 4 2 2 0 0 1 0-4zM-57.958 9.731h-3.903V3.878h-7.804v5.853h-3.902l7.804 7.804M25.739 7.359h-4.425V.721h-8.85V7.36H8.039l8.85 8.85M25.35 24.352a2 2 0 1 1-4 0 2 2 0 0 1 4 0z"/><rect ry="2.5" rx="2.5" y="54.373" x="2" height="9.334" width="28" stroke="#000" stroke-width="2.666"/></svg><svg id="section-mode" viewBox="0 0 32 32" width="32" height="32"><path d="M6.983 6.225v8.077c0 1.124.567.716.927.422l4.684-4.053a.543.543 0 0 0 0-.816L7.91 5.803c-.48-.37-.92-.433-.927.422z"/><path style="text-indent:0;text-align:start;line-height:normal;text-transform:none;block-progression:tb;marker:none;-inkscape-font-specification:Sans" d="M9.005 2.358C4.595 2.358 1 5.952 1 10.363c0 4.41 3.594 8.004 8.005 8.004 4.41 0 8.004-3.594 8.004-8.004s-3.594-8.005-8.004-8.005zm0 1.342a6.65 6.65 0 0 1 6.662 6.663 6.65 6.65 0 0 1-6.662 6.662 6.65 6.65 0 0 1-6.663-6.662A6.65 6.65 0 0 1 9.005 3.7z" font-weight="400" color="#000" overflow="visible" font-family="Sans"/><path d="M2.666 27.336v2.666h26.668v-2.666H2.666z"/></svg><svg id="settings" viewBox="0 0 32 32" width="32" height="32"><path d="M27.392 17.515l3.389 2.451c.217.217.288.721.144 1.01l-3.1 5.12c-.145.288-.506.505-.866.36l-3.893-1.514c-.865.577-1.659 1.154-2.596 1.515l-.576 3.966c-.073.289-.433.577-.794.577h-6.129c-.36 0-.72-.217-.793-.577l-.577-3.966c-.938-.361-1.803-.938-2.595-1.515l-3.894 1.515c-.288.144-.72-.073-.865-.361l-3.1-5.12c-.217-.361-.145-.794.144-1.01l3.245-2.451c0-.506-.073-1.01-.073-1.515 0-.505.073-1.01.073-1.515l-3.317-2.451c-.217-.217-.288-.721-.144-1.01l3.1-5.12c.145-.288.506-.505.866-.36l3.893 1.514c.865-.577 1.659-1.154 2.596-1.515l.576-3.966C12.18 1.288 12.54 1 12.9 1h6.129c.36 0 .72.288.793.577l.505 3.966c.938.361 1.803.938 2.596 1.515l3.821-1.515c.289-.144.794.073.938.361l3.101 5.12c.217.361.144.794-.144 1.01l-3.245 2.451c0 .506.073 1.01.073 1.515 0 .505 0 1.082-.073 1.515zm-11.463 3.75c2.957 0 5.408-2.308 5.408-5.265s-2.451-5.264-5.408-5.264c-2.956 0-5.335 2.307-5.335 5.264 0 2.957 2.38 5.264 5.335 5.264z"/></svg><svg id="stop" viewBox="0 0 32 32" width="32" height="32"><path d="M16 1C7.715 1 1 7.715 1 16s6.715 15 15 15 15-6.715 15-15S24.285 1 16 1zm0 2.813c6.731 0 12.188 5.456 12.188 12.187 0 6.731-5.457 12.188-12.188 12.188C9.269 28.188 3.812 22.73 3.812 16 3.813 9.269 9.27 3.812 16 3.812zM10.125 9c-.612.062-1.128.635-1.125 1.25v11.5c0 .654.596 1.25 1.25 1.25h11.5c.654 0 1.25-.596 1.25-1.25v-11.5C23 9.596 22.404 9 21.75 9h-11.5a1.253 1.253 0 0 0-.125 0z"/></svg><svg id="volume-medium" viewBox="0 0 32 32" width="32" height="32"><g><path d="M1 10.804v10.384h8.461l7.683 7.115V3.697L9.46 10.804zM21.711 24.076a13.586 13.586 0 0 0 2.661-8.08c0-3.034-.998-5.825-2.66-8.08l-1.656 1.241a11.482 11.482 0 0 1 2.256 6.839c0 2.563-.844 4.924-2.256 6.839l1.655 1.241zM27.106 27.808A19.845 19.845 0 0 0 31 15.996c0-4.43-1.46-8.51-3.894-11.812l-1.655 1.241a17.723 17.723 0 0 1 3.488 10.57 17.74 17.74 0 0 1-3.488 10.572l1.655 1.24z"/></g></svg><svg id="volume-mute" viewBox="0 0 32 32" width="32" height="32"><path d="M18.031 1l-9.125 9.531H1.625V21.47h7.281L18.031 31V1zm3.875 9.969l-1.593 1.594L23.75 16l-3.438 3.438 1.594 1.593 3.438-3.437 3.437 3.437 1.594-1.593L26.937 16l3.438-3.438-1.594-1.593-3.437 3.437-3.438-3.437z"/></svg><svg id="x" viewBox="0 0 32 32" width="32" height="32"><path d="M3.305 7.482L11.824 16l-8.519 8.518 4.177 4.177L16 20.176l8.518 8.519 4.177-4.177L20.176 16l8.519-8.518-4.177-4.177L16 11.824 7.482 3.305z"/></svg><svg id="zoom-to" viewBox="0 0 32 32" width="32" height="32"><path d="M1.118 1.127A.415.415 0 0 1 1.424 1l6.644.273c.18.012.303.1.369.264.06.17.03.315-.09.436L6.33 4.01l1.426 1.44a.403.403 0 0 1 .126.291c0 .11-.042.206-.126.291L6.027 7.778a.395.395 0 0 1-.288.127.395.395 0 0 1-.289-.127l-1.425-1.44-2.017 2.037a.367.367 0 0 1-.432.09.412.412 0 0 1-.27-.363L1 1.43a.41.41 0 0 1 .117-.3zm29.764 29.746a.415.415 0 0 1-.306.127l-6.644-.273a.397.397 0 0 1-.369-.264c-.06-.17-.03-.315.09-.436l2.017-2.037-1.426-1.44a.403.403 0 0 1-.126-.29c0-.11.042-.207.126-.292l1.729-1.746a.395.395 0 0 1 .288-.127c.108 0 .205.042.289.127l1.425 1.44 2.017-2.037a.367.367 0 0 1 .432-.09.412.412 0 0 1 .27.363L31 30.57a.41.41 0 0 1-.117.3zm-.009-29.755a.419.419 0 0 1 .127.308L30.728 8.1a.399.399 0 0 1-.262.371c-.17.06-.314.03-.435-.09l-2.027-2.026-1.434 1.432a.4.4 0 0 1-.29.127.4.4 0 0 1-.29-.127L24.252 6.05a.398.398 0 0 1-.127-.29c0-.109.043-.205.127-.29l1.434-1.432-2.028-2.025a.37.37 0 0 1-.09-.434.411.411 0 0 1 .361-.272L30.573 1c.121 0 .22.04.3.117zm-4.2 14.347a10.56 10.56 0 0 0-1.007-4.123c-.613-1.3-1.415-2.409-2.407-3.328-.992-.92-2.157-1.633-3.496-2.142a10.432 10.432 0 0 0-4.172-.676c-1.443.058-2.811.396-4.105 1.011-1.293.616-2.398 1.422-3.313 2.418-.915.997-1.625 2.168-2.132 3.512a10.565 10.565 0 0 0-.673 4.191c.09 2.23.796 4.226 2.12 5.989l-4.98 5.423c-.359.39-.527.854-.506 1.391.022.537.23.988.623 1.352.394.365.858.537 1.392.515.545-.022.991-.233 1.339-.633l4.98-5.408c1.857 1.183 3.894 1.73 6.114 1.64a10.436 10.436 0 0 0 4.104-1.012c1.294-.615 2.398-1.421 3.313-2.418.915-.996 1.626-2.167 2.132-3.512.507-1.345.731-2.742.673-4.191zm-3.873.157c.075 1.875-.523 3.505-1.796 4.891-1.273 1.386-2.843 2.117-4.709 2.193-1.866.075-3.49-.526-4.87-1.805-1.38-1.278-2.107-2.855-2.182-4.73-.075-1.874.523-3.505 1.796-4.891 1.273-1.386 2.843-2.117 4.709-2.193 1.866-.075 3.49.526 4.87 1.805 1.38 1.278 2.107 2.855 2.182 4.73z"/></svg></defs></svg>