<?xml version="1.0" encoding="UTF-8" standalone="no"?>
<!-- Created with Inkscape (http://www.inkscape.org/) -->

<svg
   xmlns:dc="http://purl.org/dc/elements/1.1/"
   xmlns:cc="http://creativecommons.org/ns#"
   xmlns:rdf="http://www.w3.org/1999/02/22-rdf-syntax-ns#"
   xmlns:svg="http://www.w3.org/2000/svg"
   xmlns="http://www.w3.org/2000/svg"
   xmlns:sodipodi="http://sodipodi.sourceforge.net/DTD/sodipodi-0.dtd"
   xmlns:inkscape="http://www.inkscape.org/namespaces/inkscape"
   width="32px"
   height="32px"
   id="svg3238"
   version="1.1"
   inkscape:version="0.48.4 r9939"
   sodipodi:docname="New document 14">
  <defs
     id="defs3240" />
  <sodipodi:namedview
     id="base"
     pagecolor="#ffffff"
     bordercolor="#666666"
     borderopacity="1.0"
     inkscape:pageopacity="0.0"
     inkscape:pageshadow="2"
     inkscape:zoom="7.9180417"
     inkscape:cx="9.8656555"
     inkscape:cy="18.028977"
     inkscape:current-layer="layer1"
     showgrid="true"
     inkscape:grid-bbox="true"
     inkscape:document-units="px"
     inkscape:window-width="890"
     inkscape:window-height="633"
     inkscape:window-x="50"
     inkscape:window-y="77"
     inkscape:window-maximized="0" />
  <metadata
     id="metadata3243">
    <rdf:RDF>
      <cc:Work
         rdf:about="">
        <dc:format>image/svg+xml</dc:format>
        <dc:type
           rdf:resource="http://purl.org/dc/dcmitype/StillImage" />
        <dc:title></dc:title>
      </cc:Work>
    </rdf:RDF>
  </metadata>
  <g
     id="layer1"
     inkscape:label="Layer 1"
     inkscape:groupmode="layer">
    <g
       style="font-size:40px;font-style:normal;font-weight:normal;line-height:125%;letter-spacing:0px;word-spacing:0px;fill:#000000;fill-opacity:1;stroke:none;font-family:Sans"
       id="text3031"
       transform="matrix(0.96525079,0,0,0.96525079,-144.19577,-417.06048)">
      <path
         d="m 161.16285,461.43074 c 0,-1.38666 0.68,-2.61333 2.04,-3.68 1.36,-1.09333 2.8,-1.63999 4.32,-1.64 0.87999,10e-6 1.66666,0.22668 2.36,0.68 l 0,-23.68 0.88,0 0,25.88 c -10e-6,1.49334 -0.65334,2.73334 -1.96,3.72 -1.30667,0.98667 -2.74667,1.48 -4.32,1.48 -0.88,0 -1.65333,-0.25333 -2.32,-0.76 -0.66667,-0.53333 -1,-1.2 -1,-2"
         id="path3053"
         inkscape:connector-curvature="0" />
    </g>
  </g>
</svg>
