<?xml version="1.0" encoding="UTF-8" standalone="no"?>
<!-- Created with Inkscape (http://www.inkscape.org/) -->

<svg
   xmlns:dc="http://purl.org/dc/elements/1.1/"
   xmlns:cc="http://creativecommons.org/ns#"
   xmlns:rdf="http://www.w3.org/1999/02/22-rdf-syntax-ns#"
   xmlns:svg="http://www.w3.org/2000/svg"
   xmlns="http://www.w3.org/2000/svg"
   xmlns:sodipodi="http://sodipodi.sourceforge.net/DTD/sodipodi-0.dtd"
   xmlns:inkscape="http://www.inkscape.org/namespaces/inkscape"
   width="32px"
   height="32px"
   id="svg3334"
   version="1.1"
   inkscape:version="0.48.4 r9939"
   sodipodi:docname="New document 20">
  <defs
     id="defs3336" />
  <sodipodi:namedview
     id="base"
     pagecolor="#ffffff"
     bordercolor="#666666"
     borderopacity="1.0"
     inkscape:pageopacity="0.0"
     inkscape:pageshadow="2"
     inkscape:zoom="5.598901"
     inkscape:cx="20.625589"
     inkscape:cy="14.41154"
     inkscape:current-layer="layer1"
     showgrid="true"
     inkscape:grid-bbox="true"
     inkscape:document-units="px"
     inkscape:window-width="638"
     inkscape:window-height="421"
     inkscape:window-x="48"
     inkscape:window-y="73"
     inkscape:window-maximized="0" />
  <metadata
     id="metadata3339">
    <rdf:RDF>
      <cc:Work
         rdf:about="">
        <dc:format>image/svg+xml</dc:format>
        <dc:type
           rdf:resource="http://purl.org/dc/dcmitype/StillImage" />
        <dc:title></dc:title>
      </cc:Work>
    </rdf:RDF>
  </metadata>
  <g
     id="layer1"
     inkscape:label="Layer 1"
     inkscape:groupmode="layer">
    <g
       style="font-size:40px;font-style:normal;font-weight:normal;line-height:125%;letter-spacing:0px;word-spacing:0px;fill:#000000;fill-opacity:1;stroke:none;font-family:Sans"
       id="text3039"
       transform="matrix(0.96525079,0,0,0.96525079,-210.07001,-417.74996)">
      <path
         d="m 225.44857,462.14504 c -1e-5,-1.38667 0.67999,-2.61333 2.04,-3.68 1.35999,-1.09333 2.79999,-1.64 4.32,-1.64 0.87999,0 1.66665,0.22667 2.36,0.68 l 0,-23.68 0.84,0 c 0.10665,0.93336 0.43998,1.84002 1,2.72 0.58665,0.85336 1.25332,1.64002 2,2.36 0.74665,0.69335 1.47998,1.41335 2.2,2.16 0.74665,0.72002 1.37331,1.57335 1.88,2.56 0.50664,0.96002 0.75998,1.98668 0.76,3.08 -2e-5,0.90668 -0.21336,1.82668 -0.64,2.76 0.50664,0.74668 0.75998,1.73334 0.76,2.96 -2e-5,2.05334 -0.50669,3.92 -1.52,5.6 l -0.96,0 c 0.93331,-1.86666 1.39998,-3.55999 1.4,-5.08 -2e-5,-0.85333 -0.21336,-1.65332 -0.64,-2.4 -0.40002,-0.74666 -1.02669,-1.42666 -1.88,-2.04 -0.82669,-0.61332 -1.52002,-1.07999 -2.08,-1.4 -0.53335,-0.31999 -1.28002,-0.71999 -2.24,-1.2 l 0,13.8 c -2e-5,1.49333 -0.65335,2.73333 -1.96,3.72 -1.30668,0.98666 -2.74668,1.48 -4.32,1.48 -0.88001,0 -1.65334,-0.25334 -2.32,-0.76 -0.66667,-0.53334 -1.00001,-1.2 -1,-2 m 16.16,-14.76 c -2e-5,-2.74665 -2.18669,-5.30665 -6.56,-7.68 -2e-5,0.77335 0.15998,1.50669 0.48,2.2 0.31998,0.69335 0.74665,1.32002 1.28,1.88 0.53332,0.53335 1.07998,1.02668 1.64,1.48 0.55998,0.45335 1.13331,0.96001 1.72,1.52 0.58665,0.53335 1.03998,1.04001 1.36,1.52 0.0533,-0.42665 0.08,-0.73332 0.08,-0.92"
         id="path3047"
         inkscape:connector-curvature="0" />
    </g>
  </g>
</svg>
