<?xml version="1.0" encoding="UTF-8" standalone="no"?>
<!-- Created with Inkscape (http://www.inkscape.org/) -->

<svg
   xmlns:dc="http://purl.org/dc/elements/1.1/"
   xmlns:cc="http://creativecommons.org/ns#"
   xmlns:rdf="http://www.w3.org/1999/02/22-rdf-syntax-ns#"
   xmlns:svg="http://www.w3.org/2000/svg"
   xmlns="http://www.w3.org/2000/svg"
   xmlns:sodipodi="http://sodipodi.sourceforge.net/DTD/sodipodi-0.dtd"
   xmlns:inkscape="http://www.inkscape.org/namespaces/inkscape"
   width="32px"
   height="32px"
   id="svg3286"
   version="1.1"
   inkscape:version="0.48.4 r9939"
   sodipodi:docname="New document 17">
  <defs
     id="defs3288" />
  <sodipodi:namedview
     id="base"
     pagecolor="#ffffff"
     bordercolor="#666666"
     borderopacity="1.0"
     inkscape:pageopacity="0.0"
     inkscape:pageshadow="2"
     inkscape:zoom="5.598901"
     inkscape:cx="8.3368192"
     inkscape:cy="1.014514"
     inkscape:current-layer="layer1"
     showgrid="true"
     inkscape:grid-bbox="true"
     inkscape:document-units="px"
     inkscape:window-width="903"
     inkscape:window-height="713"
     inkscape:window-x="26"
     inkscape:window-y="51"
     inkscape:window-maximized="0" />
  <metadata
     id="metadata3291">
    <rdf:RDF>
      <cc:Work
         rdf:about="">
        <dc:format>image/svg+xml</dc:format>
        <dc:type
           rdf:resource="http://purl.org/dc/dcmitype/StillImage" />
        <dc:title></dc:title>
      </cc:Work>
    </rdf:RDF>
  </metadata>
  <g
     id="layer1"
     inkscape:label="Layer 1"
     inkscape:groupmode="layer">
    <g
       style="font-size:40px;font-style:normal;font-weight:normal;line-height:125%;letter-spacing:0px;word-spacing:0px;fill:#000000;fill-opacity:1;stroke:none;font-family:Sans"
       id="text3035"
       transform="matrix(0.96525079,0,0,0.96525079,-185.24927,-417.74996)">
      <path
         d="m 199.73428,462.14504 c 0,-1.38667 0.68,-2.61333 2.04,-3.68 1.35999,-1.09333 2.79999,-1.64 4.32,-1.64 0.87999,0 1.66666,0.22667 2.36,0.68 l 0,-23.68 0.84,0 c 0.23999,1.54669 0.67999,2.93336 1.32,4.16 0.63999,1.22669 1.31999,2.24002 2.04,3.04 0.74665,0.77335 1.46665,1.54668 2.16,2.32 0.69332,0.74668 1.26665,1.64001 1.72,2.68 0.47998,1.01335 0.71998,2.16001 0.72,3.44 -2e-5,2.26667 -0.94669,4.92001 -2.84,7.96 l -0.92,0 c 0.13332,-0.29333 0.34665,-0.76 0.64,-1.4 0.31998,-0.64 0.53332,-1.08 0.64,-1.32 0.10665,-0.23999 0.25332,-0.59999 0.44,-1.08 0.18665,-0.47999 0.30665,-0.86666 0.36,-1.16 0.08,-0.31999 0.14665,-0.69333 0.2,-1.12 0.08,-0.42666 0.11998,-0.85332 0.12,-1.28 -2e-5,-1.78666 -0.66668,-3.45332 -2,-5 -1.30668,-1.54665 -2.82668,-2.37332 -4.56,-2.48 l 0,17.12 c -1e-5,1.49333 -0.65334,2.73333 -1.96,3.72 -1.30668,0.98666 -2.74667,1.48 -4.32,1.48 -0.88,0 -1.65334,-0.25334 -2.32,-0.76 -0.66667,-0.53334 -1,-1.2 -1,-2"
         id="path3050"
         inkscape:connector-curvature="0" />
    </g>
  </g>
</svg>
