<?xml version="1.0" encoding="UTF-8" standalone="no"?>
<!-- Created with Inkscape (http://www.inkscape.org/) -->

<svg
   xmlns:dc="http://purl.org/dc/elements/1.1/"
   xmlns:cc="http://creativecommons.org/ns#"
   xmlns:rdf="http://www.w3.org/1999/02/22-rdf-syntax-ns#"
   xmlns:svg="http://www.w3.org/2000/svg"
   xmlns="http://www.w3.org/2000/svg"
   xmlns:sodipodi="http://sodipodi.sourceforge.net/DTD/sodipodi-0.dtd"
   xmlns:inkscape="http://www.inkscape.org/namespaces/inkscape"
   width="32px"
   height="32px"
   id="svg3058"
   version="1.1"
   inkscape:version="0.48.4 r9939"
   sodipodi:docname="New document 4">
  <defs
     id="defs3060" />
  <sodipodi:namedview
     id="base"
     pagecolor="#ffffff"
     bordercolor="#666666"
     borderopacity="1.0"
     inkscape:pageopacity="0.0"
     inkscape:pageshadow="2"
     inkscape:zoom="3.9590209"
     inkscape:cx="-1.6501125"
     inkscape:cy="14.671993"
     inkscape:current-layer="layer1"
     showgrid="true"
     inkscape:grid-bbox="true"
     inkscape:document-units="px"
     showguides="true"
     inkscape:guide-bbox="true"
     inkscape:window-width="1091"
     inkscape:window-height="585"
     inkscape:window-x="25"
     inkscape:window-y="51"
     inkscape:window-maximized="0" />
  <metadata
     id="metadata3063">
    <rdf:RDF>
      <cc:Work
         rdf:about="">
        <dc:format>image/svg+xml</dc:format>
        <dc:type
           rdf:resource="http://purl.org/dc/dcmitype/StillImage" />
        <dc:title></dc:title>
      </cc:Work>
    </rdf:RDF>
  </metadata>
  <g
     id="layer1"
     inkscape:label="Layer 1"
     inkscape:groupmode="layer">
    <g
       style="font-size:40px;font-style:normal;font-weight:normal;line-height:125%;letter-spacing:0px;word-spacing:0px;fill:#000000;fill-opacity:1;stroke:none;font-family:Sans"
       id="text2985-7"
       transform="matrix(0.96525079,0,0,0.96525079,-98.356186,-417.54037)">
      <path
         d="m 113.67303,461.9279 c 0,-1.38666 0.68,-2.61333 2.04,-3.68 1.36,-1.09332 2.79999,-1.63999 4.32,-1.64 0.87999,1e-5 1.66666,0.22668 2.36,0.68 l 0,-23.68 0.88,0 0,25.88 c -1e-5,1.49334 -0.65334,2.73334 -1.96,3.72 -1.30667,0.98667 -2.74667,1.48 -4.32,1.48 -0.88,0 -1.65334,-0.25333 -2.32,-0.76 -0.66667,-0.53333 -1,-1.2 -1,-2 m 1.84,1.2 c 1.41333,0 2.83999,-0.6 4.28,-1.8 1.46666,-1.19999 2.19999,-2.09333 2.2,-2.68 -1e-5,-0.37332 -0.16001,-0.55999 -0.48,-0.56 -0.98667,1e-5 -2.34667,0.57334 -4.08,1.72 -1.70667,1.12001 -2.56,2.05334 -2.56,2.8 0,0.34667 0.21333,0.52 0.64,0.52"
         id="path3056"
         inkscape:connector-curvature="0" />
    </g>
  </g>
</svg>
