<?xml version="1.0" encoding="UTF-8" standalone="no"?>
<!-- Created with Inkscape (http://www.inkscape.org/) -->

<svg
   xmlns:dc="http://purl.org/dc/elements/1.1/"
   xmlns:cc="http://creativecommons.org/ns#"
   xmlns:rdf="http://www.w3.org/1999/02/22-rdf-syntax-ns#"
   xmlns:svg="http://www.w3.org/2000/svg"
   xmlns="http://www.w3.org/2000/svg"
   xmlns:sodipodi="http://sodipodi.sourceforge.net/DTD/sodipodi-0.dtd"
   xmlns:inkscape="http://www.inkscape.org/namespaces/inkscape"
   width="32px"
   height="32px"
   id="svg3190"
   version="1.1"
   inkscape:version="0.48.4 r9939"
   sodipodi:docname="New document 11">
  <defs
     id="defs3192" />
  <sodipodi:namedview
     id="base"
     pagecolor="#ffffff"
     bordercolor="#666666"
     borderopacity="1.0"
     inkscape:pageopacity="0.0"
     inkscape:pageshadow="2"
     inkscape:zoom="2.7994505"
     inkscape:cx="7.8162388"
     inkscape:cy="22.012451"
     inkscape:current-layer="layer1"
     showgrid="true"
     inkscape:grid-bbox="true"
     inkscape:document-units="px"
     inkscape:window-width="638"
     inkscape:window-height="421"
     inkscape:window-x="50"
     inkscape:window-y="77"
     inkscape:window-maximized="0" />
  <metadata
     id="metadata3195">
    <rdf:RDF>
      <cc:Work
         rdf:about="">
        <dc:format>image/svg+xml</dc:format>
        <dc:type
           rdf:resource="http://purl.org/dc/dcmitype/StillImage" />
        <dc:title></dc:title>
      </cc:Work>
    </rdf:RDF>
  </metadata>
  <g
     id="layer1"
     inkscape:label="Layer 1"
     inkscape:groupmode="layer">
    <g
       style="font-size:40px;font-style:normal;font-weight:normal;line-height:125%;letter-spacing:0px;word-spacing:0px;fill:#000000;fill-opacity:1;stroke:none;font-family:Sans"
       id="text2985-3"
       transform="matrix(0.96525079,0,0,0.96525079,-54.644598,-417.68824)">
      <path
         d="m 73.047817,456.8411 c 1.83999,1e-5 3.399989,0.36001 4.68,1.08 1.279986,0.69334 1.919986,1.69334 1.92,3 -1.4e-5,1.25334 -0.62668,2.22667 -1.88,2.92 -1.253345,0.66667 -2.76001,1 -4.52,1 -1.840006,0 -3.386671,-0.34667 -4.64,-1.04 -1.253335,-0.69333 -1.880001,-1.72 -1.88,-3.08 -10e-7,-0.95999 0.386665,-1.74666 1.16,-2.36 0.799997,-0.61333 1.639996,-1.01333 2.52,-1.2 0.879994,-0.21332 1.759993,-0.31999 2.64,-0.32 m -2.16,2.84 c -6e-6,1.12 0.253327,2.10667 0.76,2.96 0.50666,0.85334 1.159992,1.28 1.96,1.28 1.226657,0 1.83999,-0.66666 1.84,-2 -1e-5,-1.06666 -0.253343,-2.01333 -0.76,-2.84 -0.480009,-0.85333 -1.146675,-1.27999 -2,-1.28 -1.200006,10e-6 -1.800006,0.62667 -1.8,1.88"
         id="path3044"
         inkscape:connector-curvature="0" />
    </g>
  </g>
</svg>
