<?xml version="1.0" encoding="UTF-8" standalone="no"?>
<!-- Generator: Adobe Illustrator 18.1.0, SVG Export Plug-In . SVG Version: 6.00 Build 0)  -->

<svg
   xmlns:dc="http://purl.org/dc/elements/1.1/"
   xmlns:cc="http://creativecommons.org/ns#"
   xmlns:rdf="http://www.w3.org/1999/02/22-rdf-syntax-ns#"
   xmlns:svg="http://www.w3.org/2000/svg"
   xmlns="http://www.w3.org/2000/svg"
   xmlns:sodipodi="http://sodipodi.sourceforge.net/DTD/sodipodi-0.dtd"
   xmlns:inkscape="http://www.inkscape.org/namespaces/inkscape"
   version="1.1"
   id="Layer_1"
   x="0px"
   y="0px"
   viewBox="0 0 220 48"
   enable-background="new 0 0 500 500"
   xml:space="preserve"
   inkscape:version="0.48.4 r9939"
   width="100%"
   height="100%"
   sodipodi:docname="logo.svg"><metadata
     id="metadata21"><rdf:RDF><cc:Work
         rdf:about=""><dc:format>image/svg+xml</dc:format><dc:type
           rdf:resource="http://purl.org/dc/dcmitype/StillImage" /></cc:Work></rdf:RDF></metadata><defs
     id="defs19" /><sodipodi:namedview
     pagecolor="#ffffff"
     bordercolor="#666666"
     borderopacity="1"
     objecttolerance="10"
     gridtolerance="10"
     guidetolerance="10"
     inkscape:pageopacity="0"
     inkscape:pageshadow="2"
     inkscape:window-width="1541"
     inkscape:window-height="799"
     id="namedview17"
     showgrid="false"
     inkscape:zoom="1.3350176"
     inkscape:cx="211.76858"
     inkscape:cy="-79.093524"
     inkscape:window-x="181"
     inkscape:window-y="169"
     inkscape:window-maximized="0"
     inkscape:current-layer="Layer_1" /><g
     id="g3"
     transform="matrix(0.0478575,0.12961268,-0.12961268,0.0478575,-26.983264,-27.174672)"
     style="fill:#cf4317;fill-opacity:1"><rect
       x="257.39999"
       y="472.10001"
       width="84.400002"
       height="27.9"
       id="rect5"
       style="fill:#cf4317;fill-opacity:1" /><path
       d="m 374.9,96.2 c 25.8,-3 23.1,-31 19.5,-46.9 -0.6,-3 -1.4,-5.9 -2.4,-8.7 -0.4,-1.2 -0.6,-2 -0.6,-2 h -0.1 C 382.5,16.1 360.6,0 334.8,0 307,0 283.5,18.8 276.4,44.5 h -0.2 l -87.5,364.9 c 48.8,11.9 68.6,51.7 68.6,51.7 H 342 v -15.5 c 2.1,-15.7 55.4,-54.9 55.4,-54.9 C 367.5,321.1 374.9,96.2 374.9,96.2 z M 260,373 c -9.2,0 -16.5,-7.4 -16.5,-16.5 0,-9.1 7.4,-16.5 16.5,-16.5 9.2,0 16.5,7.4 16.5,16.5 0,9.1 -7.4,16.5 -16.5,16.5 z m 25.2,-97 c -9.2,0 -16.5,-7.4 -16.5,-16.5 0,-9.2 7.4,-16.5 16.5,-16.5 9.2,0 16.5,7.4 16.5,16.5 0,9.2 -7.5,16.5 -16.5,16.5 z m 16.7,-96.8 c -9.2,0 -16.5,-7.4 -16.5,-16.5 0,-9.1 7.4,-16.5 16.5,-16.5 9.2,0 16.5,7.4 16.5,16.5 0,9.1 -7.4,16.5 -16.5,16.5 z m 16.7,-96.8 c -9.2,0 -16.5,-7.4 -16.5,-16.5 0,-9.1 7.4,-16.5 16.5,-16.5 9.2,0 16.5,7.4 16.5,16.5 0,9.1 -7.3,16.5 -16.5,16.5 z"
       id="path7"
       inkscape:connector-curvature="0"
       style="fill:#cf4317;fill-opacity:1" /><path
       d="m 206.6,93.2 c 0.1,0 0.1,0 0.2,0 1.2,10.8 10.2,19.3 21.3,19.3 11.9,0 21.5,-9.6 21.5,-21.5 0,-0.2 -0.1,-0.5 -0.1,-0.6 h 0.1 V 78.1 h 10.7 l 5.8,-24.4 H 249.6 V 41.4 h -0.1 c 0,-0.2 0.1,-0.5 0.1,-0.6 0,-11.9 -9.6,-21.5 -21.5,-21.5 -11.1,0 -20.1,8.4 -21.3,19.3 -0.1,0 -0.1,0 -0.2,0 -15.1,0 -27.4,12.3 -27.4,27.4 -0.1,15 12.2,27.2 27.4,27.2 z"
       id="path9"
       inkscape:connector-curvature="0"
       style="fill:#cf4317;fill-opacity:1" /><path
       d="m 181.6,190.1 c 0.1,0 0.1,0 0.2,0 1.2,10.8 10.2,19.3 21.3,19.3 11.9,0 21.5,-9.6 21.5,-21.5 0,-0.2 -0.1,-0.5 -0.1,-0.6 h 0.1 V 175 h 12.3 l 5.8,-24.4 h -18.1 v -12.4 h -0.1 c 0,-0.2 0.1,-0.5 0.1,-0.6 0,-11.9 -9.6,-21.5 -21.5,-21.5 -11.1,0 -20.1,8.4 -21.3,19.3 -0.1,0 -0.1,0 -0.2,0 -15.1,0 -27.4,12.3 -27.4,27.4 0.1,15 12.3,27.3 27.4,27.3 z"
       id="path11"
       inkscape:connector-curvature="0"
       style="fill:#cf4317;fill-opacity:1" /><path
       d="m 158.1,287 c 0.1,0 0.1,0 0.2,0 1.2,10.8 10.2,19.3 21.3,19.3 11.9,0 21.5,-9.6 21.5,-21.5 0,-0.2 -0.1,-0.5 -0.1,-0.6 h 0.1 v -12.3 h 12.4 l 5.8,-24.4 h -18.1 v -12.3 h -0.1 c 0,-0.2 0.1,-0.5 0.1,-0.6 0,-11.9 -9.6,-21.5 -21.5,-21.5 -11.1,0 -20.1,8.4 -21.3,19.3 -0.1,0 -0.1,0 -0.2,0 -15.1,0 -27.4,12.3 -27.4,27.4 -0.1,14.9 12.2,27.2 27.3,27.2 z"
       id="path13"
       inkscape:connector-curvature="0"
       style="fill:#cf4317;fill-opacity:1" /><path
       d="m 196,344.2 h -23 v -12.3 h -0.1 c 0,-0.2 0.1,-0.5 0.1,-0.6 0,-11.9 -9.6,-21.5 -21.5,-21.5 -11.1,0 -20.1,8.4 -21.3,19.3 -0.1,0 -0.1,0 -0.2,0 -15.1,0 -27.4,12.3 -27.4,27.4 0,15.1 12.3,27.4 27.4,27.4 0.1,0 0.1,0 0.2,0 1.2,10.8 10.2,19.3 21.3,19.3 11.9,0 21.5,-9.6 21.5,-21.5 0,-0.2 0,-0.5 -0.1,-0.6 h 0.1 v -12.3 h 17.1 l 5.9,-24.6 z"
       id="path15"
       inkscape:connector-curvature="0"
       style="fill:#cf4317;fill-opacity:1" /></g><g
     style="font-size:54px;font-style:normal;font-variant:normal;font-weight:bold;font-stretch:normal;line-height:125%;letter-spacing:0px;word-spacing:0px;fill:#cf4317;fill-opacity:1;stroke:none;font-family:Exo 2;-inkscape-font-specification:Exo 2 Bold"
     id="text3012"><path
       d="m 30.070719,22.677001 0,5.4 c -3.3e-5,2.916005 -1.170031,4.950003 -3.51,6.102 -2.340027,1.152001 -5.814023,1.728 -10.422,1.728 l -14.5800003,0 0,-35.0459995 14.2020003,0 c 4.967977,3.504e-5 8.333973,0.5580345 10.098,1.674 1.76397,1.1160323 2.645969,3.0600303 2.646,5.832 l 0,4.3199995 c -3.1e-5,1.008023 -0.396031,1.944022 -1.188,2.808 -0.792029,0.86402 -1.692028,1.440019 -2.7,1.728 l 0,0.27 c 1.295972,0.144019 2.51997,0.720018 3.672,1.728 1.187968,1.008016 1.781967,2.160015 1.782,3.456 m -9.666,-11.07 0,-1.7279995 c -2.3e-5,-1.1519728 -0.270023,-1.943972 -0.81,-2.376 -0.540022,-0.4319712 -1.87202,-0.647971 -3.996,-0.648 l -5.6160003,0 0,8.2619995 5.7780003,0 c 1.97998,2.1e-5 3.239978,-0.251978 3.78,-0.756 0.575977,-0.503977 0.863977,-1.421977 0.864,-2.754 m 1.242,15.336 0,-2.808 c -2.4e-5,-1.295986 -0.342024,-2.213986 -1.026,-2.754 -0.648022,-0.539984 -1.818021,-0.809984 -3.51,-0.81 l -7.1280003,0 0,9.342 5.9940003,0 c 2.051979,6e-6 3.509978,-0.233993 4.374,-0.702 0.863976,-0.467992 1.295976,-1.223992 1.296,-2.268"
       style="font-family:Play;-inkscape-font-specification:Play Bold"
       id="path3785" /><path
       d="m 59.056062,35.907001 -7.722,0 0,-2.376 c -0.576018,1.044002 -1.404017,1.800001 -2.484,2.268 -1.080015,0.432 -3.060013,0.648 -5.94,0.648 -3.528007,0 -5.868005,-0.54 -7.02,-1.62 -1.152002,-1.079997 -1.728002,-3.329995 -1.728,-6.75 -2e-6,-3.095989 0.593998,-5.237986 1.782,-6.426 1.187995,-1.223984 3.311993,-1.835983 6.372,-1.836 l 8.856,0 0,-1.782 c -1.9e-5,-1.58398 -0.378018,-2.627979 -1.134,-3.132 -0.720017,-0.539978 -2.268015,-0.809978 -4.644,-0.81 -2.232011,2.2e-5 -5.292008,0.216022 -9.18,0.648 l 0,-4.9679995 c 2.987993,-0.3599735 6.31799,-0.5399733 9.99,-0.54 4.823981,2.67e-5 8.171978,0.5940261 10.044,1.7819995 1.871974,1.152024 2.807973,3.456022 2.808,6.912 l 0,17.982 m -7.884,-6.696 0,-5.076 -5.4,0 c -1.728012,1.2e-5 -2.80801,0.198012 -3.24,0.594 -0.43201,0.396011 -0.648009,1.45801 -0.648,3.186 -9e-6,1.692007 0.21599,2.718006 0.648,3.078 0.46799,0.360005 1.619988,0.540005 3.456,0.54 0.899986,5e-6 1.565985,5e-6 1.998,0 0.431984,-0.03599 0.899984,-0.08999 1.404,-0.162 0.503983,-0.072 0.845982,-0.179995 1.026,-0.324 0.215982,-0.179994 0.395982,-0.413994 0.54,-0.702 0.143981,-0.287994 0.215981,-0.665993 0.216,-1.134"
       style="font-family:Play;-inkscape-font-specification:Play Bold"
       id="path3787" /><path
       d="m 88.510531,25.701001 0,3.294 c -2.6e-5,1.296006 -0.252026,2.412005 -0.756,3.348 -0.468025,0.936003 -1.080024,1.674002 -1.836,2.214 -0.720022,0.504001 -1.674021,0.900001 -2.862,1.188 -1.188019,0.288 -2.340018,0.468 -3.456,0.54 -1.080016,0.108 -2.358014,0.162 -3.834,0.162 -2.84401,0 -6.282007,-0.27 -10.314,-0.81 l 0,-5.238 c 5.003992,0.756005 8.477989,1.134005 10.422,1.134 1.547985,5e-6 2.735984,-0.143995 3.564,-0.432 0.863982,-0.323994 1.295982,-0.935994 1.296,-1.836 l 0,-1.62 c -1.8e-5,-0.82799 -0.234018,-1.43999 -0.702,-1.836 -0.468017,-0.431989 -1.476016,-0.647989 -3.024,-0.648 l -3.402,0 c -2.736008,1.1e-5 -4.878006,-0.539988 -6.426,-1.62 -1.512003,-1.115986 -2.268002,-2.735984 -2.268,-4.86 l 0,-3.186 c -2e-6,-2.375977 1.133997,-4.013975 3.402,-4.914 2.267992,-0.8999733 5.471989,-1.3499728 9.612,-1.3499995 1.727983,2.67e-5 4.82398,0.1620265 9.288,0.486 l 0,5.0219995 c -5.616019,-0.431978 -8.784016,-0.647978 -9.504,-0.648 -2.196013,2.2e-5 -3.582011,0.162022 -4.158,0.486 -0.57601,0.288022 -0.86401,0.864021 -0.864,1.728 l 0,1.404 c -1e-5,0.432018 0.21599,0.828018 0.648,1.188 0.467989,0.360017 1.169988,0.540017 2.106,0.54 l 3.456,0 c 6.407977,1.7e-5 9.611974,2.088015 9.612,6.264"
       style="font-family:Play;-inkscape-font-specification:Play Bold"
       id="path3789" /><path
       d="m 116.88162,25.701001 0,3.294 c -2e-5,1.296006 -0.25202,2.412005 -0.756,3.348 -0.46802,0.936003 -1.08002,1.674002 -1.836,2.214 -0.72002,0.504001 -1.67402,0.900001 -2.862,1.188 -1.18801,0.288 -2.34001,0.468 -3.456,0.54 -1.08001,0.108 -2.35801,0.162 -3.834,0.162 -2.84401,0 -6.282002,-0.27 -10.313995,-0.81 l 0,-5.238 c 5.003992,0.756005 8.477985,1.134005 10.421995,1.134 1.54799,5e-6 2.73599,-0.143995 3.564,-0.432 0.86399,-0.323994 1.29599,-0.935994 1.296,-1.836 l 0,-1.62 c -1e-5,-0.82799 -0.23401,-1.43999 -0.702,-1.836 -0.46801,-0.431989 -1.47601,-0.647989 -3.024,-0.648 l -3.402,0 c -2.736003,1.1e-5 -4.878001,-0.539988 -6.425995,-1.62 -1.512003,-1.115986 -2.268002,-2.735984 -2.268,-4.86 l 0,-3.186 c -2e-6,-2.375977 1.133996,-4.013975 3.402,-4.914 2.267992,-0.8999733 5.471985,-1.3499728 9.611995,-1.3499995 1.72799,2.67e-5 4.82398,0.1620265 9.288,0.486 l 0,5.0219995 c -5.61601,-0.431978 -8.78401,-0.647978 -9.504,-0.648 -2.19601,2.2e-5 -3.58201,0.162022 -4.158,0.486 -0.57601,0.288022 -0.86401,0.864021 -0.864,1.728 l 0,1.404 c -10e-6,0.432018 0.21599,0.828018 0.648,1.188 0.46799,0.360017 1.16999,0.540017 2.106,0.54 l 3.456,0 c 6.40798,1.7e-5 9.61198,2.088015 9.612,6.264"
       style="font-family:Play;-inkscape-font-specification:Play Bold"
       id="path3791" /></g><g
     id="g3799"
     style="font-size:54px;font-style:normal;font-variant:normal;font-weight:bold;font-stretch:normal;line-height:125%;letter-spacing:0px;word-spacing:0px;fill:#ffffff;fill-opacity:1;stroke:none;font-family:Exo 2;-inkscape-font-specification:Exo 2 Bold"><path
       id="path3809"
       style="font-family:Play;-inkscape-font-specification:Play Bold;fill:#ffffff;fill-opacity:1"
       d="m 155.24272,35.907001 -8.532,0 -3.132,-9.234 -12.798,0 -3.078,9.234 -8.316,0 12.96,-35.0459995 10.26,0 12.636,35.0459995 m -13.5,-14.85 -4.428,-13.1759995 -0.216,0 -4.428,13.1759995 9.072,0"
       inkscape:connector-curvature="0" /><path
       id="path3811"
       style="font-family:Play;-inkscape-font-specification:Play Bold;fill:#ffffff;fill-opacity:1"
       d="m 185.53503,18.033001 0,8.586 c -3e-5,3.888006 -0.86403,6.498003 -2.592,7.83 -1.72802,1.332001 -4.53602,1.998 -8.424,1.998 -2.44802,0 -4.28401,-0.198 -5.508,-0.594 -1.18801,-0.395999 -1.96201,-1.259998 -2.322,-2.592 l 0,13.878 -7.884,0 0,-37.3679995 7.452,0 0,2.5919995 c 0.46799,-1.151975 1.38599,-1.961974 2.754,-2.4299995 1.40399,-0.4679736 3.43798,-0.7019733 6.102,-0.702 2.23198,2.67e-5 4.04998,0.1800265 5.454,0.54 1.40397,0.3600255 2.46597,0.9540255 3.186,1.7819995 0.71997,0.792024 1.18797,1.674023 1.404,2.646 0.25197,0.972021 0.37797,2.25002 0.378,3.834 m -7.884,9.612 0,-9.666 c -2e-5,-1.69198 -0.32402,-2.753979 -0.972,-3.186 -0.61202,-0.467978 -2.16002,-0.701978 -4.644,-0.702 -2.23201,2.2e-5 -3.69001,0.288022 -4.374,0.864 -0.64801,0.576021 -0.97201,1.58402 -0.972,3.024 l 0,9.666 c -1e-5,1.548007 0.32399,2.592006 0.972,3.132 0.64799,0.504005 2.12399,0.756005 4.428,0.756 2.30398,5e-6 3.79798,-0.251995 4.482,-0.756 0.71998,-0.539994 1.07998,-1.583993 1.08,-3.132"
       inkscape:connector-curvature="0" /><path
       id="path3813"
       style="font-family:Play;-inkscape-font-specification:Play Bold;fill:#ffffff;fill-opacity:1"
       d="m 218.44128,18.033001 0,8.586 c -3e-5,3.888006 -0.86403,6.498003 -2.592,7.83 -1.72802,1.332001 -4.53602,1.998 -8.424,1.998 -2.44802,0 -4.28401,-0.198 -5.508,-0.594 -1.18801,-0.395999 -1.96201,-1.259998 -2.322,-2.592 l 0,13.878 -7.884,0 0,-37.3679995 7.452,0 0,2.5919995 c 0.46799,-1.151975 1.38599,-1.961974 2.754,-2.4299995 1.40399,-0.4679736 3.43798,-0.7019733 6.102,-0.702 2.23198,2.67e-5 4.04998,0.1800265 5.454,0.54 1.40397,0.3600255 2.46597,0.9540255 3.186,1.7819995 0.71997,0.792024 1.18797,1.674023 1.404,2.646 0.25197,0.972021 0.37797,2.25002 0.378,3.834 m -7.884,9.612 0,-9.666 c -2e-5,-1.69198 -0.32402,-2.753979 -0.972,-3.186 -0.61202,-0.467978 -2.16002,-0.701978 -4.644,-0.702 -2.23201,2.2e-5 -3.69001,0.288022 -4.374,0.864 -0.64801,0.576021 -0.97201,1.58402 -0.972,3.024 l 0,9.666 c -1e-5,1.548007 0.32399,2.592006 0.972,3.132 0.64799,0.504005 2.12399,0.756005 4.428,0.756 2.30398,5e-6 3.79798,-0.251995 4.482,-0.756 0.71998,-0.539994 1.07998,-1.583993 1.08,-3.132"
       inkscape:connector-curvature="0" /></g></svg>